<?xml version="1.0" encoding="UTF-8"?>
<!DOCTYPE svg PUBLIC "-//W3C//DTD SVG 1.1//EN" "http://www.w3.org/Graphics/SVG/1.1/DTD/svg11.dtd">
<!-- Creator: CorelDRAW -->
<svg xmlns="http://www.w3.org/2000/svg" xml:space="preserve" width="210mm" height="297mm" style="shape-rendering:geometricPrecision; text-rendering:geometricPrecision; image-rendering:optimizeQuality; fill-rule:evenodd; clip-rule:evenodd"
viewBox="0 0 210 297"
 xmlns:xlink="http://www.w3.org/1999/xlink">
 <defs>
  <style type="text/css">
   <![CDATA[
    .str1 {stroke:black;stroke-width:0.1;stroke-opacity:0.501961}
    .str0 {stroke:black;stroke-width:0.3}
    .str2 {stroke:black;stroke-width:0.5}
    .fil5 {fill:none}
    .fil0 {fill:white;fill-rule:nonzero}
    .fil2 {fill:#1F1A17;fill-rule:nonzero}
    .fil3 {fill:#C2C1C1;fill-rule:nonzero}
    .fil4 {fill:white;fill-rule:nonzero}
    .fil6 {fill:black;fill-rule:nonzero}
    .fil1 {fill:white;fill-rule:nonzero;fill-opacity:0.501961}
   ]]>
  </style>
 </defs>
 <g id="Plan_x0020_1">
  <metadata id="CorelCorpID_0Corel-Layer"/>
  <path class="fil0 str0" d="M40.1425 254.539c1.0223,0 1.7016,0.805 2.7877,0.3706 0.0149,-0.1052 0.0245,-0.294 -0.0995,-0.3564 -0.0625,-0.3128 -0.7144,-0.5506 -0.7965,-0.7981l-0.1992 0.2423c-0.0915,0 -0.388,-0.0831 -0.4124,-0.1568 -0.0412,-0.0102 -0.062,-0.0476 -0.0996,-0.057 -0.0187,-0.0751 -0.2031,-0.2113 -0.2133,-0.2423 -0.0487,0 -0.0428,0.0334 -0.0712,0.0428 -0.0152,0.0763 -0.1538,0.3403 -0.1991,0.3705 0,0.5171 -1.4161,0.4738 -1.8063,0.5131l-2.546 0.2566c-1.3716,0.1382 -2.9477,0.4577 -4.2527,0.7839l0 0.0427c0.0701,0.0233 0.0758,0.1321 0.2134,0.1426 0.145,0.009 0.2011,-0.0286 0.3271,-0.0286 0.2476,-0.198 1.384,-0.287 1.7637,-0.3848 0.8141,-0.2096 1.6457,-0.2468 2.4606,-0.4418 0.3249,-0.0778 0.7761,-0.0713 1.1236,-0.0713 0.124,0 0.8736,-0.0402 0.9529,-0.0997 0.2458,0 0.4508,-0.0713 0.697,-0.0713l0.455 -0.0551m131.188 -36.3435l-108.646 -0.1744c0.0947,0.1293 0.0876,0.0741 0.0876,0.1719 0.2727,0.0904 0.0738,1.3859 0.0569,1.6106 -0.0938,1.2441 -0.6562,2.5055 -1.1236,3.6486 -0.1084,0.265 -0.4651,0.7864 -0.2702,1.069 0.1152,0.1669 0.1415,0.9727 0.2986,1.0119 0.032,0.1283 0.2525,0.227 0.2703,0.3706 0.5272,0.2828 0.9979,0.8821 1.4081,1.3255 0.2232,0.2414 0.4041,0.5252 0.6827,0.7268 0.2042,0.1479 0.411,0.6124 0.5547,0.6842 0.0224,0.1575 0.1134,0.7192 0.256,0.7981 0.6195,0.3427 0.4221,0.5976 0.6685,1.1545 0.3041,0.6876 1.3212,1.0098 1.8917,1.3254 0.3648,0.2019 0.402,0.5892 0.8676,0.7839 0.423,0.1768 1.0701,0.1174 1.4223,0.3991 0.7007,0.6459 1.3652,1.77 1.5788,2.6795 0.1492,0.635 -0.1128,1.0922 -0.2561,1.6676 -0.1192,0.4783 -0.5566,1.2009 -0.5973,1.6105l-0.6258 0.8409c-0.4608,0.2628 -0.6937,1.2932 -0.5974,1.7958 0.1368,0.7146 0.6826,1.2288 0.4551,1.9811 0.0011,0.053 0.022,0.0877 0.0257,0.1354 0.0289,0.0333 0.0542,0.0864 0.0783,0.1247 0.0418,0.0667 0.094,0.1476 0.1493,0.2031 0.0628,0.0632 0.133,0.1227 0.1956,0.1853l0.2338 0.0642 0 0c0.1165,0.1547 0.7289,0.5266 0.7539,0.6271l0.0284 0c0.0054,0.0162 0.0317,0.0507 0.0569,0.057 0,0.2333 -0.0571,0.5062 -0.1707,0.7126 0,0.4747 -0.5005,0.5044 -0.8818,0.4703 -0.6842,-0.0611 -0.4216,0.6264 -0.8961,0.7839 -0.3945,0.131 -0.1965,0.4355 -0.3555,0.7269 -0.2218,0.4062 -0.2478,0.8299 -0.4836,1.2115 -0.115,0.1863 -1.001,1.1084 -1.1663,1.0262 -0.433,-0.2152 -0.1419,0.0681 -0.4978,0.2138 -0.3625,0.1485 -0.3469,0.2305 -0.4552,0.6413 -0.128,0.4859 -0.6312,-0.0472 -0.8249,0.3421 -0.2532,0.5087 -0.4501,0.5892 -0.9103,0.2708 -0.3913,-0.2706 -1.0601,1.0086 -1.1663,0.3135 -0.1023,-0.6703 0.0427,-1.0928 0.0427,-1.7245 -0.2131,0.2828 -0.5193,0.463 -0.7112,0.0855 -0.2451,-0.4819 -0.262,-0.0616 -0.2845,0.3136 -0.038,0.6348 1.1027,0.9185 -0.0426,1.4252 -0.603,0.2668 0.5745,0.3302 0.7396,0.3991 0.6624,0.2768 0.7758,-0.3287 1.3085,-0.2851 0.3086,0.0253 0.4852,0.0949 0.825,0.0428 0.2544,-0.0389 0.5927,-0.6859 0.7396,-0.3991 0.2328,0.4542 -0.2879,0.6169 -0.5832,0.7839 -0.6211,0.3514 -0.6768,0.5174 -1.1236,1.0262 -0.0405,0.0305 -0.0876,-0.0018 -0.128,0.0285 -0.9847,0 -2.1185,0.5348 -3.0864,0.8124 -1.2489,0.3583 -2.5613,0.2116 -3.8261,0.4703 -0.8055,0.1648 -1.8027,0.4989 -2.617,0.4989 -1.8368,0 -3.6562,0.3687 -5.5186,0.171 -1.5624,-0.1659 -3.0517,0.3278 -4.5941,0.3278 0.1959,-0.7837 2.8363,-0.1307 3.186,-0.6984 0.1916,-0.3112 0.2352,-0.77 0.4409,-1.0261 0.1436,-0.1789 1.0259,0.3577 1.209,0.5273 0.603,0.5583 1.0093,0.4793 1.7779,0.4133 0.6713,0.1681 1.2828,-0.0219 1.8063,-0.3563 0.538,-0.3435 1.206,-0.3065 1.8348,-0.3421 0.9899,-0.0562 1.6214,-1.0252 1.6214,-1.9811 -0.5462,0.1365 -0.3488,0.1447 -0.7822,-0.3848 -0.346,-0.4229 -1.0114,-0.8589 -1.4792,-1.1829 -0.4717,-0.3268 -1.9162,-1.7709 -1.2801,-2.4087 0.6832,-0.6851 0.493,-0.4283 0.3129,-1.3683 -0.1011,-0.5281 -0.2935,-0.0623 -0.5547,0.1996 -0.3617,0.3625 0.1407,0.8856 0,1.1117 -0.1524,0.2447 -0.6954,-0.0949 -0.8819,-0.1568 -0.3969,-0.1317 -1.0219,-0.7114 -1.408,-0.9692 -0.8487,-0.5669 -0.4901,-0.5819 -0.7112,-1.468 0,-0.5088 -0.2069,-1.3114 -0.3556,-1.7958 -0.0955,-0.3108 -0.7168,-0.6968 -0.64,-0.7839 0.6511,-0.7391 1.2278,-2.0507 1.4223,-3.0073 0.0718,-0.3529 -0.1221,-1.5809 -0.4694,-1.6961 -0.0705,-0.2823 0.061,-0.6055 0.0427,-0.9121 -0.0257,-0.4282 -0.1164,-0.6869 -0.2276,-1.0832 -0.0049,-0.0346 -0.1276,-0.3186 -0.0569,-0.3421 -0.1465,-0.515 -0.2665,-1.7958 -1.0098,-1.7958 -0.2246,0 -0.5547,0.1758 -0.5547,-0.1853 -0.0595,-0.0148 -0.5173,-0.149 -0.5263,-0.1853 1.0258,-0.2555 -0.0413,-0.5734 0.0569,-0.9549 0.054,-0.2096 0.1565,-0.3883 0.1565,-0.6129 -0.0175,-0.0058 -0.0227,-0.0109 -0.0285,-0.0285 -0.2084,0 -0.5913,-0.0777 -0.64,0.1568 -0.0866,0.4161 -0.3153,0.6357 -0.5547,0.9549 0.0848,0.1135 0.5265,0.3144 0.5547,0.4276l-0.0142 0.0142c-0.2191,0 -0.7833,-0.1524 -0.9672,-0.2137 0,-0.0541 0.4963,-0.7462 0.5547,-0.8124 0.2281,-0.259 0.0524,-0.9273 0.0427,-0.898 -0.3184,0 -0.3969,0.3453 -0.6401,-0.0855 -0.1171,-0.2073 -0.4641,-0.5098 -0.3413,-0.7554 0.1907,-0.3816 1.0519,-1.2115 0.896,-1.525 -0.1883,-0.3789 -0.3677,-0.484 -0.8107,-0.3705 -0.611,0.1565 -0.3271,1.0603 -0.3271,1.4537 0,0.2955 0.1429,0.814 0.0995,1.0405 -0.0845,0.4414 -0.012,0.6352 -0.2986,1.0261 -0.2476,0.3375 0.1948,0.6414 0.4978,0.6414 0,0.2207 -0.2438,0.4946 -0.3983,0.6556l0 0.0428c-0.1026,0.1026 -0.0631,0.3578 -0.128,0.4846 -0.0536,0.105 -0.0942,0.2028 -0.1422,0.3135 -0.1554,0.3586 -0.3147,0.3306 -0.6401,0.2138 -0.2224,-0.0799 -0.2353,-0.1786 -0.384,-0.3278l-0.0284 0c-0.1816,0.1816 -0.128,0.7369 -0.128,0.9977l-0.0285 0.0285c0,0.2565 0.0656,0.5299 0.0427,0.7554 -0.0417,0.4111 -0.1238,0.8563 -0.2987,1.24 -0.3021,0.3634 -0.588,1.1741 -1.081,1.2969 -0.0871,0.3498 0.1565,0.8547 0.1565,1.2685 0,0.2028 -0.2987,1.2865 -0.4552,1.3255 -0.1002,0.4023 -0.2986,0.5301 -0.2986,1.0404 0,0.448 0.2027,0.8096 0.0853,1.2685 -0.2452,0.959 0.0049,2.0684 -0.2702,3.0073 0,0.6288 0.1996,1.8299 -0.3414,2.2662 -0.3235,0.261 -0.5181,0.9719 -0.64,1.3682 -0.0417,0.1358 -0.3404,0.9264 -0.4267,0.9264 -0.0058,-0.0174 -0.0111,-0.0227 -0.0285,-0.0285 0,-0.27 -0.193,-0.3831 -0.2275,-0.5558 -0.0316,-0.0078 -0.0285,-0.0116 -0.0285,-0.0428l0.0142 -0.0142c0.1231,0 0.438,-0.1449 0.4694,-0.2708 0.2069,-0.0517 0.057,-0.641 0.0284,-0.7554 -0.2008,-0.0502 -0.6145,0.6902 -0.7253,0.3563 -0.2162,0.0538 -0.1502,0.5196 -0.4694,0.6414 -0.4007,0.153 -0.8193,0.3249 -1.2516,0.1853 0,-0.1445 -0.0441,-0.704 -0.1992,-0.7554 0.006,-0.0244 0.0143,-0.0289 0.0143,-0.057 0.0143,-0.0047 0.0511,-0.0253 0.0569,-0.0428 0.8665,0 0.3486,-0.8106 0.2417,-1.24 -0.2063,-0.0515 -0.5129,0.0998 -0.7538,0.0998 -0.2552,0 -0.4959,-0.2658 -0.6969,-0.3848 -0.5007,-0.2967 -1.3564,-0.5374 -1.9344,-0.5701 -0.337,-0.0191 -0.6517,-0.3278 -0.9387,-0.3278 -0.5291,0 -0.2807,0.9948 -0.6685,0.8979 -0.0785,-0.3151 0.0038,-0.8893 -0.128,-1.1545 -0.1215,-0.2442 -0.9629,-0.2716 -1.2374,-0.3278 -0.1307,-0.0268 -0.6604,-0.3033 -0.7112,-0.0998 -0.034,0.0085 -0.2126,0.2842 -0.2702,0.3421 -0.0765,0.0767 -0.2539,0.0317 -0.3556,0.057 -0.0724,0.2907 -0.4392,0.2993 -0.6685,0.2993 -0.0471,0.1893 -0.1846,0.254 -0.3416,0.2729l0 0 -2.9845 -73.2537 0.495 -5.7268 0.1136 -3.2376 5.7697 -58.6047 8.9417 -83.2147c-0.0424,-0.0299 -0.1185,-0.0732 -0.1602,-0.1149 -0.5092,-0.0635 -1.3689,-0.7198 -1.6357,-1.1545 -0.2236,-0.3642 -0.4639,-0.67 -0.7253,-0.9976 -0.1473,-0.1845 -0.2636,-0.3683 -0.4267,-0.5416 -0.1682,-0.1789 -0.2301,-0.4717 -0.3841,-0.6699l-0.7262 -1.4824 0 0 0.0862 -0.6341 108.226 1.1678 0 0 17.3168 103.624c0.0065,0.1597 -0.0773,0.3044 -0.161,0.4491 -0.1057,0.1826 0.3079,1.2402 0.3692,1.4768 0.1325,0.5112 0.2587,1.0242 0.3976,1.5336 0.0035,0.0129 0.0191,0.019 0.0284,0.0284 0.1168,0.1168 0.5291,-0.0163 0.6248,0.1136 0.2027,0.2752 0.0436,0.6692 -0.0568,0.994 -0.1449,0.4682 -0.2193,0.6983 -0.1136,1.1644 0.0608,0.2678 1.0933,0.9636 1.2496,1.0508 0.056,0.0313 0.1201,0.1305 0.1704,0.1704 0.0341,0.0271 0.1874,0.1616 0.2272,0.1988 0.0356,0.0334 0.0452,0.0472 0.0568,0.0852 0.1847,0.6053 -0.8231,0.4467 -0.7668,0.994 0.0237,0.2304 0.8881,0.8089 0.994,0.994 0.282,0.4932 -0.0589,1.7432 0.142,2.3004 0.1147,0.318 0.5178,0.9788 0.6816,1.3064 0.3624,0.7248 0.2125,0.6343 -0.0568,1.2212 -0.0634,0.1384 -0.0466,0.3992 0,0.426 0.1321,0.0758 0.191,0.1606 0.3692,0.0852 0.1265,-0.0536 0.2615,-0.0619 0.3124,0.0284 0.1394,0.2477 -0.0598,1.7294 0.3408,1.9312 0.0986,0.0497 0.4066,0.662 0.4828,0.7384 0.0765,0.0769 0.4443,0.4238 0.4828,0.5112 0.1134,0.2567 0.8111,0.878 0.994,1.0224 0.1015,0.08 0.6717,0.8855 0.7384,0.9372 0.0434,0.0335 0.0158,0.1056 0.0568,0.142 0.0502,0.0444 0.0584,0.0155 0.0852,0.0568 0.0513,0.0787 0.0566,0.2004 0.1136,0.284 0.0328,0.048 0.0404,-0.0274 0.0568,0.0284 0.325,1.1037 -0.0861,2.4209 0.6816,3.3228 0.0319,0.0374 0.042,0.0057 0.0852,0.0568 0.0574,0.0681 0.0508,0.1642 0.1136,0.2272 0.0094,0.0094 0.019,0.019 0.0284,0.0284 0.0375,0.0375 0.0737,0.0218 0.1136,0.0568 0.032,0.0282 0.0963,0.0891 0.1136,0.1136 0.0283,0.0398 0.0321,0.054 0.0568,0.0852 0.0329,0.0417 0.0192,0.0762 0.0568,0.1136 0.038,0.0377 0.0165,0.0215 0.0568,0.0568 0.0504,0.044 0.0527,0.0199 0.0852,0.0568 0.0355,0.0401 0.0184,0.0195 0.0568,0.0568 0.0418,0.0404 -0.0158,0.019 0.0284,0.0568 0.0508,0.0436 0.0695,0.0102 0.0852,0.0568 0.1581,0.4705 -0.2528,0.8364 -0.6248,1.136 -0.4471,0.3599 0.4544,0.9007 0.4544,1.2212 0,1.0968 -1.5682,1.1893 -1.2496,2.5276 0.239,1.0037 0.4102,0.9527 1.3632,1.1644 0.9409,0.2089 1.4037,0.3269 1.988,1.136 0.1023,0.1418 0.65,1.0884 0.6532,1.1076 0.0172,0.1036 0.0343,0.3006 -0.0284,0.426 -0.1429,0.2853 -0.6581,0.2037 -0.8236,0.3692 -0.2739,0.2739 -0.4168,0.7497 -0.6816,1.136 -0.2329,0.3399 -0.6023,0.5112 -0.994,0.5112 -0.2648,0 -0.7624,-0.0786 -0.852,0.142 -0.0406,0.1001 0.2556,0.7343 0.2556,0.7952 0,0.019 0,0.0379 0,0.0568 0,0.0846 -0.0954,0.018 -0.1704,0.0568 -0.0495,0.0257 -0.423,0.2698 -0.5112,0.3124 -0.2934,0.142 -0.587,0.2841 -0.8804,0.426 -0.0621,0.0301 -0.1337,0.0239 -0.1988,0.0568 -0.0417,0.021 -0.1602,0.0699 -0.1988,0.1136 -0.0475,0.0536 -0.0434,0.0895 -0.0852,0.1136 -0.1018,0.0585 -0.1073,0.0806 -0.1704,0.1704 -0.1148,0.1631 -0.3848,0.4144 -0.4828,0.568 -0.0607,0.095 -0.2032,0.2113 -0.2556,0.284 -0.0828,0.1151 -0.16,0.2778 -0.2272,0.3976 -0.0407,0.0724 -0.1249,0.1096 -0.142,0.1704 -0.1076,0.3834 -0.2551,0.7511 -0.0852,1.1928 0.1585,0.4123 0.3124,1.0575 0.3124,1.5336 0,1.0281 -0.0914,2.0635 -0.1704,3.0956 -0.0424,0.554 -0.1517,1.5329 -0.3795,2.0532 -0.3383,0.6417 -0.4981,1.2808 -0.7988,1.8014 -0.3746,0.6486 -0.8778,1.1813 -1.164,2.0896 -0.0745,0.5799 -0.433,0.4032 -0.4619,0.818 -0.0146,0.2092 -0.0827,0.375 -0.1379,0.5722 -0.0599,0.2138 -0.0691,0.7599 -0.094,0.9603 -0.4339,0.311 -0.6759,1.0939 -0.5009,1.512 0.3139,0.7503 0.1394,1.9477 0.6169,2.5064 0.5979,0.6994 1.3268,2.2783 0.7307,2.9231 -0.0985,1.0505 0.2277,1.022 0.7884,1.7788 0.2164,0.292 0.0992,0.6743 0.353,0.9584 0.046,0.0515 0.1769,0.7441 0.1991,0.8551 0.2002,0.0799 0.4039,0.3661 0.6274,0.6937 0.2149,0.2928 0.3745,0.5809 0.5339,0.869 0.1804,0.3258 0.1482,0.8924 0.0568,1.2496 -0.0298,0.1164 -0.1704,0.7834 -0.1704,0.9372 0,0.0284 0,0.0568 0,0.0852 0,0.0569 0.6425,0.8134 0.6816,0.9088 0.1154,0.2819 0.1017,0.7086 -0.0568,0.994 -0.4554,0.8194 -0.5274,1.6335 -0.71,2.5844 -0.4829,2.5145 -0.9656,4.6473 -0.9656,7.242 0,0.8196 -0.3333,1.2176 -0.5396,1.846 -0.0176,0.0536 -0.0452,0.0452 -0.0852,0.0852 -0.04,0.04 -0.0452,0.0452 -0.0852,0.0852 -0.04,0.04 -0.0324,0.0652 -0.0852,0.0852 -0.3658,0.1392 0.193,2.4021 0.3408,2.698 0.2799,0.5599 -0.6987,2.3913 0.2272,2.6696 0.0506,0.0152 0.0022,0.1172 0.0568,0.142 0.9762,0.4429 1.9507,3.3781 2.7264,4.402 0.1027,0.1355 0.1847,0.6892 0.2556,0.852 0.0382,0.0875 0.1544,0.2998 0.1988,0.3976 0.0841,0.1856 0.2272,1.196 0.2272,1.3348 0,0.0284 0,0.0568 0,0.0852 0,0.0914 0.0933,0.1079 0.142,0.1704 0.0358,0.0458 0.0512,-0.0294 0.0568,0.0284 0.0382,0.3875 0.0374,0.6371 -0.0407,0.9412l0 0z"/>
  </g>
</svg>
