<?xml version="1.0" encoding="UTF-8"?>
<!DOCTYPE svg PUBLIC "-//W3C//DTD SVG 1.1//EN" "http://www.w3.org/Graphics/SVG/1.1/DTD/svg11.dtd">
<!-- Creator: CorelDRAW -->
<svg xmlns="http://www.w3.org/2000/svg" xml:space="preserve" width="210mm" height="297mm" style="shape-rendering:geometricPrecision; text-rendering:geometricPrecision; image-rendering:optimizeQuality; fill-rule:evenodd; clip-rule:evenodd"
viewBox="0 0 210 297"
 xmlns:xlink="http://www.w3.org/1999/xlink">
 <defs>
  <style type="text/css">
   <![CDATA[
    .str2 {stroke:#2F3133;stroke-width:0.1}
    .str1 {stroke:black;stroke-width:0.1;stroke-opacity:0.501961}
    .str0 {stroke:black;stroke-width:0.2}
    .str3 {stroke:black;stroke-width:0.5}
    .fil5 {fill:none}
    .fil0 {fill:white}
    .fil2 {fill:#1F1A17;fill-rule:nonzero}
    .fil3 {fill:#C2C1C1;fill-rule:nonzero}
    .fil4 {fill:white;fill-rule:nonzero}
    .fil6 {fill:black;fill-rule:nonzero}
    .fil1 {fill:white;fill-rule:nonzero;fill-opacity:0.501961}
   ]]>
  </style>
 </defs>
 <g id="Plan_x0020_1">
  <metadata id="CorelCorpID_0Corel-Layer"/>
  <path class="fil0 str0" d="M30.1376 93.688c-0.058,-0.8326 -0.1033,-1.1575 0.2556,-1.846 0.0478,-0.0919 0.0357,-0.0071 0.1136,-0.0852 0.0582,-0.0583 0.3352,-0.3897 0.3692,-0.426 0.0333,-0.0356 0.0527,-0.0457 0.0568,-0.0852 0.0361,-0.3491 -0.6401,-0.9446 -0.9088,-1.1076 -0.093,-0.0564 -0.0606,-0.2419 0.0284,-0.284 1.1062,-0.5244 1.6188,0.1767 1.6188,-1.42 0,-0.9592 -0.142,-1.9438 -0.142,-2.9252 0,-1.8383 0.0139,-3.5725 -0.9873,-5.0791 -0.1269,-0.35 -0.4815,-0.67 -0.5547,-1.126 -0.0624,-0.3881 -0.202,-0.6445 -0.3983,-0.9977 -0.1144,-0.2056 -0.4043,-0.5553 -0.5831,-0.8551 0.0648,-0.8262 0.1299,-1.6524 0.1946,-2.4785 0.0204,-0.2607 -0.1579,-0.7316 -0.0852,-0.994 0.1169,-0.4213 0.4544,-0.6701 0.4544,-1.1644 0,-0.9218 -1.0723,-1.4388 -0.8804,-2.13 0.0881,-0.3175 -0.2424,-0.8022 -0.3408,-1.1644 -0.3124,-1.1494 -0.3443,-5.1003 0.6532,-5.7652 0.726,-0.4839 0.0108,-0.9832 -0.3692,-1.3632 -0.4098,-0.4098 -0.9333,-1.0009 -1.136,-1.5336 -0.3611,-0.9485 -0.4957,-2.1388 -0.3965,-3.2035l-0.1707 -1.069c-0.0474,-0.8395 0.8759,-1.133 1.4657,-1.3773 0.0841,-0.0502 0.1889,-0.1502 0.2659,-0.229 0.0742,-0.0759 0.2033,-0.1465 0.284,-0.2272 0.2908,-0.2908 0.9376,-0.5222 1.3348,-0.5964 0.2306,-0.043 0.4073,-0.0568 0.6532,-0.0568 0.2282,0 0.4139,0.0067 0.6248,-0.0568 0.0744,-0.0223 0.5473,-0.1704 0.6532,-0.1704 0.2476,0 0.4952,0 0.7428,0 0.685,0.2209 1.79,0.7834 2.5379,0.69 0.3437,-0.3437 0.9416,-0.645 1.4223,-0.5986 0.1655,0.0622 0.7391,0.2464 0.9185,0.3805l0.6318 1.0448c0.1118,0.318 0.2236,0.6361 0.3355,0.9542 0.1494,0.2233 1.2837,1.0841 1.6273,1.3832 0.8348,0.5013 1.5976,0.8418 2.5475,0.5479 1.2601,-0.3899 1.0522,-2.4426 2.1584,-3.3228 0.5868,-0.467 1.2068,-2.0532 1.8385,-2.7815l-0.3049 -28.6005 0 0 0 0 141.454 0.1054 0 0 0.2442 194.414 0 0 -57.4051 0.0748 -105.57 -38.8032 0 0c0.0963,-0.1315 0.1428,-0.2953 0.1188,-0.5286 -0.0926,-0.8985 0.1988,-1.6784 0.1988,-2.4708 0,-0.6376 -0.413,-1.1374 0.0284,-1.6756 0.3954,-0.4821 1.4432,-1.4893 1.846,-1.9312 0.2262,-0.2483 0.2461,-0.6695 0.2733,-1.0627l0 0c0.0485,-0.7008 0.1211,-1.3127 1.4307,-0.6981 1.518,0.7124 2.2224,-0.2091 3.4932,-0.5964 0.057,-0.0174 0.0699,-0.0852 0.1136,-0.0852 0.0284,0 0.0568,0 0.0852,0 0.9165,0 0.2836,-1.8357 0.9372,-2.414 0.7018,-0.621 1.1989,-1.4055 0.6816,-2.414 -0.3591,-0.7002 0,-1.1299 0,-1.7608 0,-1.0266 -0.8956,-0.7753 -0.9372,-1.6472 -0.0021,-0.0446 -0.2953,-0.5632 -0.3124,-0.568 -0.52,-0.1463 -0.6787,-0.5112 -1.42,-0.5112 -0.6448,0 -0.9625,0.5035 -1.562,0.1704 -0.4021,-0.2234 -0.2627,-0.7301 -0.7668,-0.6816 -0.0528,0.005 -0.0555,0.1265 -0.1136,0.1704 -0.0838,0.0634 -0.2066,-0.0852 -0.3692,-0.0852 -0.0189,0 -0.0378,0 -0.0568,0 -0.4338,0 -0.5303,-0.9811 -0.71,-1.4484 -0.213,-0.5538 0.1581,-1.2759 0.3976,-1.7324 0.4714,-0.8986 0.3962,-2.1518 0.284,-3.0672 -0.0164,-0.1337 0.1712,-1.2278 -0.0852,-1.4484 -0.2636,-0.2267 -0.9205,-0.2615 -1.1076,-0.568 -0.4834,-0.7917 -0.5368,-0.928 0.1704,-1.4484 1.074,-0.7904 -0.2533,-2.1911 -0.142,-2.414 0.2644,-0.529 1.9571,-0.4178 2.272,-0.8236 0.2054,-0.2648 0.8834,-2.1075 1.1644,-2.414 0.2431,-0.2652 0.6043,-0.7558 0.7668,-0.852 0.0399,-0.0236 0.0491,-0.171 0.0568,-0.1988 0.0239,-0.0867 0.0302,-0.1631 0.0852,-0.2272 0.0425,-0.0495 0.0976,-0.0374 0.142,-0.0852 0.0502,-0.0541 0.3478,-0.1836 0.3692,-0.2556 0.1565,-0.5241 -0.2966,-1.2407 -0.0568,-1.6756 0.259,-0.4698 0.6615,-1.6021 0.568,-2.1584 -0.0478,-0.285 -0.0512,-0.876 0.2272,-1.0224 0.0885,-0.0465 0.2122,-0.1742 0.284,-0.2272 0.043,-0.0318 0.0424,-0.0053 0.0568,-0.0568 0.0959,-0.3435 0.223,-0.4532 0.1704,-0.8804 -0.0069,-0.0559 -0.0318,-0.0672 -0.0852,-0.0852 -0.5487,-0.186 -0.7516,-3.9761 -0.6248,-4.402 0.2839,-0.9532 -0.1209,-3.3083 0.9656,-3.976 0.468,-0.2876 0.0084,-0.7332 0.6248,-1.3632 0.9433,-0.9642 0.9025,-2.3029 1.4484,-3.1524 0.4344,-0.6759 3.3511,-0.7392 3.4364,-1.7892 0.0092,-0.1136 0.2096,-0.157 0.284,-0.2556 0.0987,-0.1309 0.9035,-0.3048 1.0792,-0.426 0.3288,-0.2269 0.6092,-0.7052 0.7384,-0.852 0.0504,-0.0573 -0.0079,-0.1254 0.0568,-0.142 0.1127,-0.0288 0.2255,-0.0581 0.3381,-0.0871 0.0916,-0.0235 0.1312,-0.1611 0.1849,-0.2281 0.0536,-0.0669 0.215,-0.2256 0.2702,-0.3135 0.097,-0.1543 0.2389,-0.3765 0.3556,-0.5131 0.1885,-0.2207 0.17,-0.6652 0.3982,-0.8409 0.1728,-0.1331 0.4336,-0.0223 0.5548,-0.2281 0.0533,-0.0906 0.0781,-0.2874 0.0568,-0.399 -0.0804,-0.4213 0.2582,-0.9792 -0.0569,-1.2492 -0.3223,-0.2761 -0.8192,-0.0867 -0.9941,-0.5714 -0.1378,-0.382 -0.2527,-0.4243 -0.5396,-0.6816 -0.3354,-0.3007 -0.7907,-0.4077 -1.136,-0.6816 -0.4151,-0.3293 -0.5764,-0.8125 -0.994,-1.0792 -0.1221,-0.0779 -0.6516,-0.2046 -0.6816,-0.2272 -0.0437,-0.0329 -0.1172,-0.008 -0.142,-0.0568 -0.0834,-0.1634 -0.3919,-0.8849 -0.5112,-1.0224 -0.1511,-0.1741 -0.5574,-0.3415 -0.7384,-0.5964 -0.0807,-0.1138 -0.2003,-0.1579 -0.2937,-0.2621l-0.6047 -0.3719c-0.1339,-0.4375 -0.3542,-0.9165 -0.3815,-1.1769 -0.0751,-0.3525 -0.1503,-0.7051 -0.2253,-1.0575 -0.0123,-0.058 -0.075,-0.563 -0.0852,-0.6532 -0.0208,-0.1822 -0.3326,-0.3621 -0.4828,-0.4544 -0.6499,-0.3997 -0.0735,-0.874 -0.3408,-1.3632 -0.117,-0.2142 -1.0267,-1.3188 -1.1076,-1.562 -0.2521,-0.7569 -0.2559,-1.4675 -0.6248,-2.2152 -0.1241,-0.2517 -0.4724,-0.3614 -0.6816,-0.5396 -0.2756,-0.2348 -0.6573,-0.6124 -0.852,-0.9656 -0.1235,-0.2241 -0.5313,-1.1023 -0.6248,-1.278 -0.0854,-0.1604 -0.334,-0.676 -0.4544,-0.8804 -0.1603,-0.2719 -0.3172,-0.4827 -0.568,-0.6816 -0.5788,-0.4592 -0.8255,-1.293 -0.7668,-2.0448 0.0137,-0.1766 0.0574,-0.5889 0,-0.7384 -0.0304,-0.0793 -0.0062,-0.5605 0,-0.6248 0.059,-0.6052 0.014,-1.1797 -0.0284,-1.7892l0 0z"/>
 </g>
</svg>
