<?xml version="1.0" encoding="UTF-8"?>
<!DOCTYPE svg PUBLIC "-//W3C//DTD SVG 1.1//EN" "http://www.w3.org/Graphics/SVG/1.1/DTD/svg11.dtd">
<!-- Creator: CorelDRAW -->
<svg xmlns="http://www.w3.org/2000/svg" xml:space="preserve" width="297mm" height="210mm" style="shape-rendering:geometricPrecision; text-rendering:geometricPrecision; image-rendering:optimizeQuality; fill-rule:evenodd; clip-rule:evenodd"
viewBox="0 0 297 210"
 xmlns:xlink="http://www.w3.org/1999/xlink">
 <defs>
  <style type="text/css">
   <![CDATA[
    .str2 {stroke:#2F3133;stroke-width:0.1}
    .str1 {stroke:black;stroke-width:0.1;stroke-opacity:0.501961}
    .str0 {stroke:black;stroke-width:0.2}
    .str3 {stroke:black;stroke-width:0.5}
    .fil5 {fill:none}
    .fil0 {fill:white}
    .fil2 {fill:#1F1A17;fill-rule:nonzero}
    .fil3 {fill:#C2C1C1;fill-rule:nonzero}
    .fil4 {fill:white;fill-rule:nonzero}
    .fil6 {fill:black;fill-rule:nonzero}
    .fil1 {fill:white;fill-rule:nonzero;fill-opacity:0.501961}
   ]]>
  </style>
 </defs>
 <g id="Plan_x0020_1">
  <metadata id="CorelCorpID_0Corel-Layer"/>
  <path class="fil0 str0" d="M197.477 95.1954c0.0298,0.1671 0.2809,0.4005 0.3468,0.5387 0.0002,0.0118 0.1622,0.4356 0.1953,0.4774 0.0275,0.0346 0.5699,0.5477 0.6076,0.5859 0.0763,0.0772 0.1588,0.1571 0.2604,0.1953 0.3103,0.117 0.5966,0.3585 0.8463,0.4557 0.0413,0.0161 -0.02,0.0285 0.0217,0.0434 0.3342,0.1191 0.5758,1.2419 0.5208,1.5841 -0.0802,0.4984 -0.2439,0.8121 -0.5859,1.1935 -0.1947,0.2171 -0.547,0.3056 -0.9283,0.3746 -0.8625,0.4566 -0.8452,0.8348 -0.9582,1.7469 -0.6227,0.6227 -0.9977,0.1059 -1.4904,-0.3273 -0.0929,0.1029 -0.1659,0.2062 -0.2036,0.289 -0.0576,0.1268 -0.9833,0.6088 -1.085,0.6944 -0.2802,0.2359 -1.0132,0.3846 -1.8069,0.5498 -0.3266,-0.0325 -0.5839,-0.5137 -0.4802,-1.3229 0.2865,-2.2353 -3.0912,-2.2282 -2.106,-0.1755 0.1135,0.2364 0.826,1.393 0.9195,1.9405 -0.4025,0.1656 -0.6711,0.374 -0.6711,0.6573 0,0.2524 0.4397,1.5395 0.6076,1.7577 0.5473,0.7113 0.3449,1.2008 0.0651,1.8445 -0.0504,0.116 -0.3073,0.0241 -0.3689,0.1302 -0.2612,0.4495 -1.7673,0.1036 -2.1049,-0.0651 -0.8942,-0.7439 1.9051,-1.9689 0.4061,-3.2231 -0.7733,-0.647 -1.368,0.0228 -1.1934,0.8424 0.0906,0.4252 0.313,1.4601 0.0908,1.9504 -0.318,-0.2 -0.567,-0.2739 -0.9744,0.0831 -0.0776,0.068 -0.1363,0.1958 -0.1816,0.3657 0.0377,0.1546 0.2476,0.4986 0.2579,0.5492 0.382,1.8715 3.3884,0.106 3.978,1.0647 0.6181,1.0048 -1.3999,2.4162 -2.0358,2.925 -0.7003,0.5602 -1.8875,0.7029 -1.5561,-0.585 0.202,-0.7847 0.6286,-1.3665 0.1638,-2.1411 -0.2465,-0.411 -0.9176,-0.2798 -1.1817,0.0351 -0.5666,0.6757 -0.2483,1.3056 -0.1823,1.9311 -0.4621,0.4316 -0.3386,1.1992 -0.1302,1.8662 0.2053,0.6572 0.6538,1.3702 1.085,1.7143 0.5711,0.4558 0.7378,1.2766 0.5642,1.7794 -0.1375,0.3983 -0.7765,0.757 -1.1501,0.8897 -0.0435,0.0154 -0.0568,0.0328 -0.0868,0.0651 -0.0339,0.0365 -0.0303,0.0728 -0.0651,0.1085 -0.0332,0.0341 -0.1499,0.1988 -0.1953,0.217 -0.2671,0.1074 -0.4779,2.1609 -0.3689,2.4955 0.2505,0.7687 0.6854,1.6657 0.3038,2.5172 -0.5656,1.262 -2.0586,1.1688 -3.0755,1.8431 -0.2307,0.351 -0.2235,0.9937 -0.0801,1.6783 0.1328,0.634 -0.0934,1.7853 -1.0062,1.6029 -0.6948,-0.1389 -0.1502,-1.0886 -0.0468,-1.4508 0.0677,-0.2374 0.1267,-0.8278 0.1088,-1.1839 -0.4042,0.1738 -0.8459,0.2638 -1.2601,0.1795 -0.2075,-0.0423 -1.4465,-0.0217 -1.7577,-0.0217 -0.0144,0 -0.0289,0 -0.0434,0 -0.0285,0 0.0025,0.0502 -0.0217,0.0651 -0.0744,0.0458 -0.06,0.3195 -0.0217,0.3906 0.0195,0.0363 0.0007,0.0469 0.0434,0.0651 0.4259,0.1819 1.7237,2.9352 0.8463,3.1899 -0.0392,0.0113 -0.0192,0.0106 -0.0434,0.0434 -0.0404,0.0547 -0.1752,0.132 -0.1953,0.1953 -0.2846,0.8961 -2.8922,-0.4744 -3.0814,0.1085 -0.0156,0.048 -0.1398,0.1118 -0.1736,0.1519 -0.0255,0.0302 -0.0504,0.0888 -0.0868,0.1085 -0.1545,0.0836 -0.2609,1.1424 -0.3255,1.4322 -0.0246,0.1102 -0.057,0.5186 -0.0974,0.9215 -0.3585,0.8105 -1.758,0.8504 -2.2209,0.1339 -0.3023,-0.468 -0.8928,-1.1583 -1.5093,-1.1583 -0.9508,0 0.4504,2.2967 0.6903,2.574 0.9838,1.1373 2.8542,-0.3399 3.4749,0.2808 0.4638,0.1855 0.6112,0.8504 0.5148,1.3104 -0.2915,1.3911 -1.3884,1.2035 -2.4687,0.702 -0.3634,-0.1687 -1.3129,-0.7634 -1.8968,-0.9885 -0.5315,0.4954 -1.0025,1.1386 -1.2392,1.6275 -0.2534,0.5231 1.291,2.4492 1.8228,2.6257 0.0482,0.0159 0.0934,0.0601 0.1085,0.1085 0.2227,0.7156 1.3316,1.1585 0.7378,2.2351 -0.4797,0.8698 -3.0651,0.2352 -4.0796,0.9114 0.1306,0.4327 0.7514,1.103 0.7323,1.6703 -0.0228,0.6754 -0.5093,0.6427 -0.9711,0.3978 -0.5607,-0.2975 -0.6768,-0.614 -1.0296,-1.1115 -0.0301,-0.0425 -0.1651,-0.27 -0.1939,-0.2947 -0.8089,0.2792 -1.6381,0.5217 -2.2267,1.0307 -0.8538,0.7382 0.4825,1.6027 1.6926,1.5841 0.2332,-0.0035 0.2896,-0.0635 0.434,0.0217 0.1117,0.0659 0.552,0.1512 0.7595,0.3472 0.2282,0.2155 -0.2058,0.9091 -0.3038,1.0199 -0.522,0.59 -1.2021,1.137 -1.7794,1.7143 -0.6296,0.6296 -0.6161,1.0807 -0.3689,1.8445 0.043,0.133 0.4619,0.7065 0.7271,1.099 0.1712,0.1771 0.6812,0.2787 0.8266,0.4083 0.3557,0.3169 0.7986,0.5325 1.1934,0.7956 0.496,0.3307 0.3004,0.611 0.2457,1.053 -1.0115,1.0115 -1.9948,-0.101 -3.087,-0.138 -0.2006,-0.0067 -0.4034,0.0166 -0.6274,0.0623 -0.1018,0.0207 -0.2339,-0.0135 -0.3269,0.061 -0.6902,0 -0.9691,-0.4182 -1.6332,-0.4182 -0.6586,0 -0.2925,1.3438 -0.2925,1.6848 0.1123,1.1643 0.2091,2.3047 1.6731,1.9188 0.8803,-0.2321 1.3905,-0.9377 2.1996,-0.0234 1.1926,1.3479 0.0805,2.5564 -1.4508,2.5038 -0.7153,-0.0246 -1.5015,-0.4482 -2.0475,-0.8892 -0.3628,-0.2929 -1.2777,-1.1299 -1.4743,-1.5232 -0.4097,0.12 -1.1992,0.3437 -1.4377,0.3711 -0.8602,0.0987 -1.0328,0.7983 -0.6944,1.2369 0.7733,1.002 2.6639,1.0445 3.4286,2.1917 0.5571,0.8357 0.4851,2.3506 -0.7161,2.6691 -0.8051,0.2134 -2.2157,-0.081 -2.8861,0.3472 -0.9172,0.5859 0.6128,1.9489 1.5525,2.6387 0.1634,0.1981 0.0731,0.998 -0.0189,1.2179 -0.1711,0.4093 -0.9144,0.923 -1.2753,1.1934 -0.4842,0.2499 -0.7281,0.504 -0.6903,1.0764 0.5146,0.7719 2.1114,0.7804 2.2113,-0.3276 0.3491,-0.4654 -0.0151,-2.1549 0.6232,-2.6249 0.8801,0.4931 1.5957,0.9031 2.014,1.6273 0.1681,0.9282 -0.2681,1.829 -1.397,2.0272 -0.584,0.1025 -1.3225,0.3603 -1.872,0.585 -0.6512,0.2664 -0.3229,0.7227 -0.0585,1.1466 1.0512,0.5835 2.2746,0.6069 3.3228,-0.0702 1.167,-0.754 0.4173,-2.41 1.4859,-3.2409 1.2898,-0.1278 0.5162,2.1189 0.0585,2.6793 -0.7628,0.9338 -2.2161,1.848 -2.574,2.9952 -0.2219,0.7897 -0.2062,2.583 0.1755,3.2723 0.2199,0.397 0.703,0.8481 0.9169,1.2269 0.1386,0.2453 0.2487,0.2861 0.6275,0.2861l0.0351 -0.0351c0,-0.7676 0.3956,-2.0864 1.3338,-2.0475 1.5632,0.0649 0.7944,1.9769 0.0585,2.5506 -0.2522,0.1967 -0.9251,0.4947 -0.9828,0.7605 -0.113,0.5197 0.4158,1.1569 0.3692,1.7211 0.1014,0.361 0.0999,1.058 -0.0271,1.5787 -0.062,0.2542 -0.223,0.4015 -0.2836,0.5729 -0.2974,0.8406 -0.8677,0.7111 -1.5444,0.6552 -0.1056,-0.0821 -0.3449,-0.2112 -0.4797,-0.2223 -0.1947,-0.1514 -0.5382,-0.1874 -0.7254,-0.351 -0.5114,-0.0422 -1.2639,-0.3124 -1.6965,0.1755 -0.6858,0.7732 0.2112,1.6618 0.8658,1.989 0.8212,0.4106 1.4998,0.839 2.106,1.5327 0.0396,0.3198 0.2317,0.5896 0,0.9243 -0.1564,0.2259 -1.2631,1.3119 -1.521,1.3923l0 0 -116.468 -0.6459 0 0 -0.3688 -25.7985c-1.1508,0.1104 -0.6663,-0.8081 -1.2818,-0.8079 -0.9401,0.0002 -2.015,0.9513 -2.7495,0.329 -0.3445,-0.2919 -0.3643,-0.7131 -0.7755,-0.94 -0.5536,-0.3056 -1.2578,0.3034 -1.1985,0.893 0.0841,0.8348 -0.9733,0.611 -1.5745,0.611 -0.8772,0 -0.0821,-2.6879 -1.128,-1.2925 -0.2399,0.3201 -0.4007,1.1622 -0.705,1.2455 -0.1791,0.049 -0.4375,-0.4806 -0.47,-0.376 -0.5425,1.7462 -1.8864,-0.7348 -2.5615,0.564 -0.7821,1.5047 -2.4613,0.2093 -0.94,-1.0575 0.7223,-0.6014 -1.4781,0.3289 -1.7155,0.094 -0.2163,-0.214 -0.2322,-0.7287 -0.47,-0.846 -0.5826,-0.2873 -1.0398,-0.1628 -0.5875,-0.94 0.3899,-0.6701 -0.5789,-0.6349 -0.4465,-1.1515 0.0676,-0.2641 0.5028,-0.3527 0.2585,-0.5875 -0.1877,-0.1803 -0.2729,0.2271 -0.517,0.3525 -0.3192,0.164 -0.6422,-0.1278 -0.8509,-0.0423l0 0 1.7667 -77.3955c-0.077,-0.3607 0.3629,-1.1109 0.5382,-1.4274 0.2843,-0.5134 0.1099,-1.0952 -0.2925,-1.4976 -0.1279,-0.5118 -0.3545,-1.1284 0.0351,-1.6146 0.0086,-0.0696 0.0293,-0.0873 0.0702,-0.1638 0.0665,-0.6033 0.2521,-1.176 0.1404,-1.7901 -0.1015,-0.5585 0.1791,-1.1741 0.0468,-1.6731 -0.0831,-0.3137 -0.3578,-0.4974 -0.468,-0.8073 -0.1591,-0.4478 -0.0006,-0.8474 0.0936,-1.2753 0.1261,-0.573 -0.234,-1.26 -0.234,-1.8369 -0.0418,-0.0522 -0.0295,-0.126 -0.0348,-0.1923l-6.8145 -51.7663 0 0 177.47 -0.1532c0.2505,0.2189 0.3647,0.355 0.5148,0.6552 0.0795,0.1592 0.2737,0.432 0.4446,0.4914 0.4384,0.1522 0.8827,-0.3359 1.1349,-0.6435 0.1737,-0.2117 0.3937,-0.5499 0.702,-0.5499 0.5879,0 0.2155,0.9953 0.1287,1.2519 -0.1165,0.3448 0.1019,0.2909 0.2808,0.4329 0.0755,0.0598 0.1655,0.1881 0.234,0.2223 0.0247,0.0997 0.1104,0.1205 0.117,0.2574 0.0073,0.1536 0.038,0.2999 0.0234,0.4563 0,0.596 0.2825,0.7944 -0.1404,1.3221 0,0.2494 0.3512,0.743 0.6084,0.8073 0.1092,0.153 0.8925,0.4379 1.0998,0.5148 0.3657,0.1356 0.7309,0.3541 1.053,0.5616 0.6542,0.4216 0.6723,1.5191 0.2223,2.0943 -0.3238,0.4137 -0.5868,0.9534 -0.3978,1.5327 0.1084,0.3325 0.3982,0.553 0.4329,0.9477 0.1049,0.175 -0.0604,0.6064 -0.2574,0.6552 -0.0488,0.1971 -0.1654,0.7226 -0.4329,0.7605 -0.1974,0.2766 -0.805,0.323 -1.0998,0.5967 -0.3837,0.3564 -0.4282,0.7001 -0.5265,1.1817 -0.1669,0.8183 -1.3393,1.1992 -2.0592,1.4391 -0.5472,0.1824 -0.902,0.8081 -1.3572,1.1115 -0.7733,0.5156 -0.8768,1.1871 -0.9594,2.0709 -0.0683,0.3441 -0.9326,1.0252 -1.2168,1.2636 -0.3577,0.2999 -1.2197,0.9774 -1.3923,1.3923 -0.6722,0.4194 -1.0592,1.3751 -1.6146,1.9305 -0.0344,0.2778 -0.5373,0.8126 -0.6786,1.0998 -0.1975,0.4016 -0.4656,0.7342 -0.6326,1.1583l26.6938 -0.018 0 0c-0.2551,0.1141 -0.467,0.908 -0.5425,1.1501 -0.0923,0.2958 0.0992,0.9121 0.3689,1.0633 0.0976,0.0547 1.2153,0.9646 1.3671,1.0633 0.1008,0.0655 0.1821,0.157 0.2821,0.217 0.0393,0.0235 0.0757,0.0202 0.1085,0.0434 0.1938,0.1373 0.2187,0.1543 0.2821,0.217 0.0623,0.0616 0.1012,0.1826 0.1736,0.2387 0.0906,0.0702 0.1982,0.2123 0.2387,0.3038 0.0242,0.0547 0.0444,0.0676 0.0651,0.1302 0.0455,0.137 0.135,0.3071 0.1519,0.4557 0.0184,0.1611 0.12,0.37 0.0651,0.5425 -0.1589,0.4991 -0.2841,0.5657 -0.4991,0.8897 -0.0314,0.0473 -0.0554,0.0716 -0.1085,0.0868 -1.3199,0.3778 -1.691,-1.6709 -2.9946,-1.6709 -0.6415,0 -1.0544,0.5147 -1.3671,1.0199 -0.1154,0.1866 -0.317,0.6074 -0.2387,0.8246 0.0875,0.2427 0.2844,0.6848 0.434,0.8029 0.2224,0.1756 0.6673,0.31 0.9982,0.4123 0.4713,0.1457 1.4873,0.2592 1.6275,0.868 0.1212,0.5266 -0.2689,0.9095 -0.7547,1.208 -0.6133,0.2312 -1.2427,-0.1256 -2.1784,-0.1256 -0.8227,0 -1.0475,0.5284 -1.1934,1.2402 -0.2183,1.0651 -1.3075,1.9016 -2.3166,2.1996 -0.9922,0.2931 -1.8788,-0.9679 -2.9367,-0.3627 -0.1033,0.2066 -0.2039,0.3046 -0.3744,0.4563 -0.035,0.0275 -0.138,0.0911 -0.1521,0.1404 -0.9845,0.2816 -0.4806,2.478 0.0702,2.9835 0.2677,0.2458 1.0322,0.8344 1.4157,0.702 0.6088,-0.2101 0.8319,-0.6392 1.5444,-0.5382 0.2591,0.3887 0.6837,0.8566 0.585,1.404 -0.1406,0.7791 -1.4815,1.2788 -2.1411,1.4274 -0.5753,0.1295 -1.2134,0.1476 -1.7667,0.3393 -0.5646,0.1957 -0.5499,0.6101 -0.5499,1.1466 0.0405,0.0997 0.1061,0.2374 0.1287,0.3393 0.2232,0.1594 0.327,0.5155 0.5967,0.7137 0.4419,0.3246 1.2521,0.4401 1.6791,0.8497 -0.0514,1.1301 -0.2123,2.0352 -0.9434,1.8477 -0.2258,-0.0579 -0.4632,-0.1336 -0.7056,-0.2079 -0.2152,-0.2163 -0.3754,-0.7275 -0.6151,-1.0036 -0.4421,-0.5099 -0.9217,-1.2803 -1.6614,-1.2402 -0.315,0.0171 -1.079,0.494 -1.3104,0.7254 -0.3958,0.3958 -0.6609,1.5948 -0.585,2.1645 0.073,0.5477 0.1714,0.8823 0.5265,1.3221 0.3368,0.417 1.002,0.7048 1.053,1.3221 0.1447,0.4221 0.2337,0.8299 0.1531,1.0695 -0.3195,0.3667 -0.7948,0.6538 -1.1951,0.8608 -0.2785,0.1439 -0.5572,0.2882 -0.8358,0.4323 -0.2634,0.0064 -0.4893,-0.3996 -0.6611,-1.3447 -0.097,-0.5338 0.0533,-0.9931 0.0819,-1.521 0.0308,-0.5669 -0.3524,-0.6944 -0.6084,-1.053 -0.6446,-0.0914 -1.1521,-0.3428 -1.4508,0.5382 -0.2067,0.6094 0.0312,1.4312 -0.5031,1.8837 -0.5111,0.433 -1.1665,0.2111 -1.6029,0.8775 -0.6827,1.0428 0.1644,1.8544 1.1349,2.1528 0.5373,0.1652 0.3158,-0.4094 0.2691,-0.6903 -0.0682,-0.4095 0.1178,-2.1218 0.8775,-1.7784 0.4364,0.1973 0.5175,0.5551 0.6669,0.9477 0.2164,0.5684 0.8763,0.7638 0.8863,1.2023 -0.1677,0.3306 -0.3442,0.6622 -0.4462,0.8918 -0.4054,0.9131 -0.6911,1.9137 -0.7621,2.9416 -0.6889,-0.0291 -1.5062,-0.1453 -2.0414,0.241 -0.3274,0.2364 0.0097,1.1769 0.0936,1.4742 0.3719,1.3165 1.2944,0.3295 2.0826,0.5733 0.0642,0.0198 0.3628,0.0583 0.4442,0.1261 0.149,0.3418 0.3061,0.6267 0.4435,0.7632 0.1523,0.1515 0.2957,0.444 0.3882,0.6793 -0.0063,0.0507 -0.0879,0.1538 -0.1527,0.163 -0.0395,0.079 -0.4131,0.1116 -0.5265,0.1872 -0.2555,0.1703 -0.0336,0.6435 -0.5382,0.6435 -0.464,0 -0.5031,0.2494 -0.5031,0.6552 0.0247,0.9219 1.3461,1.0799 1.9656,1.4157 0.0296,0.016 0.1527,0.1038 0.1787,0.125 -0.0245,0.2813 -0.0526,0.5053 -0.0742,0.623 -0.1146,0.6245 -0.2062,0.8782 -0.6293,1.1284 -0.5993,0.3544 -0.6347,0.1324 -1.3237,-0.1736 -0.4825,-0.2142 -0.9967,-0.4997 -1.519,-0.3038 -0.3144,0.1179 -0.7214,0.2719 -0.9765,0.8463 -0.3242,0.7299 -0.1172,1.7952 -0.2821,2.604 -0.0963,0.4727 -0.2281,0.6579 -0.4774,1.0633 -0.159,0.2586 -0.463,0.7199 -0.6727,0.7595l-0.5184 -0.3541c-0.6233,0 -1.1659,-0.43 -1.8603,-0.4095 -0.2945,0.0086 -0.6541,0.0366 -0.936,0.117 -0.3008,0.0859 -0.3955,0.2275 -0.6318,0.3627 -0.0439,0.3099 -0.1939,0.6036 -0.2223,0.9477l0.0245 0.7722 0 0z"/>
</g>
</svg>
