<?xml version="1.0" encoding="UTF-8"?>
<!DOCTYPE svg PUBLIC "-//W3C//DTD SVG 1.1//EN" "http://www.w3.org/Graphics/SVG/1.1/DTD/svg11.dtd">
<!-- Creator: CorelDRAW -->
<svg xmlns="http://www.w3.org/2000/svg" xml:space="preserve" width="210mm" height="297mm" style="shape-rendering:geometricPrecision; text-rendering:geometricPrecision; image-rendering:optimizeQuality; fill-rule:evenodd; clip-rule:evenodd"
viewBox="0 0 210 297"
 xmlns:xlink="http://www.w3.org/1999/xlink">
 <defs>
  <style type="text/css">
   <![CDATA[
    .str1 {stroke:black;stroke-width:0.1;stroke-opacity:0.501961}
    .str0 {stroke:black;stroke-width:0.2}
    .str2 {stroke:black;stroke-width:0.5}
    .fil5 {fill:none}
    .fil0 {fill:white}
    .fil2 {fill:#C2C1C1;fill-rule:nonzero}
    .fil3 {fill:white;fill-rule:nonzero}
    .fil4 {fill:black;fill-rule:nonzero}
    .fil1 {fill:white;fill-rule:nonzero;fill-opacity:0.501961}
   ]]>
  </style>
 </defs>
 <g id="Plan_x0020_1">
  <metadata id="CorelCorpID_0Corel-Layer"/>
  <path class="fil0 str0" d="M84.8373 185.413c-0.1231,0 -0.2189,0.0613 -0.3283,0.0122 -0.1433,-0.0642 -0.5894,-0.3696 -0.2433,-0.5119 0.1147,-0.0472 0.3449,-0.071 0.4743,-0.0975 0.1811,-0.0372 0.4691,-0.1098 0.6081,-0.2193 0.0306,-0.0242 0.299,-0.3887 0.3769,-0.2316 0.0541,0.1089 -0.1064,0.2713 -0.0486,0.3656 0.1045,0.1702 0.5618,-0.0439 0.6567,0.2194l0.1581 0.4387c0.1114,0.309 -0.365,0.129 -0.5473,0.2194 -0.1248,0.062 -0.1531,0.1213 -0.3405,0.0731 -0.1769,-0.0454 -0.3287,-0.1996 -0.5107,-0.2681l-0.2554 0zm6.1534 0.4752c-0.212,-0.2113 -0.1581,-0.4505 -0.1581,-0.7311 -0.015,-0.005 -0.0194,-0.0094 -0.0243,-0.0244 -0.249,0 -0.5601,0.1581 -0.7905,0.2437 -0.3035,0.1127 -0.3191,-0.1828 -0.5351,-0.1828 -0.0107,0.0436 -0.0842,0.0445 -0.0972,0.0975 -0.0155,0.0038 -0.021,0.0083 -0.0365,0.0122 -0.0133,0.0667 -0.273,0.3386 -0.3284,0.3656 -0.1264,0.0615 -0.3019,0.0487 -0.4499,0.0487 -0.3469,0 -0.67,-0.0243 -1.0094,-0.0243 -0.0049,0.0202 -0.0237,0.0438 -0.0365,0.0609 0.0555,0.074 0.0952,0.1807 0.1703,0.2559 0.0333,0.0334 0.199,0.0984 0.2067,0.1219 0.0322,0 0.0636,-0.004 0.073,0.0244l0.0243 0c0.005,0.015 0.0584,0.0786 0.0851,0.0853l0 0.0365c0.1586,0.0227 0.2235,0.2698 0.1946,0.4144 0.1309,0.446 0.4289,0.7836 0.8513,0.9749 0.3928,0.1778 0.3223,0.4303 0.7661,0.134 0.2528,-0.1689 0.4653,0.093 0.7053,-0.0853 0.0796,-0.0592 0.1901,-0.0623 0.2676,-0.134 0.3187,-0.2952 0.5085,-0.3523 0.9485,-0.4144 0.4216,-0.0594 0.304,-0.3979 0.304,-0.7799 -0.2072,0 -0.716,-0.1085 -0.8634,-0.2559l-0.2675 -0.2438zm3.2956 0.7312c-0.3977,0.092 -0.6734,-0.2696 -0.7783,-0.5605 -0.0635,-0.1763 0.1581,-0.6179 0.1581,-0.8775 -0.0352,-0.0059 -0.1333,-0.0952 -0.146,-0.1462 -0.0266,0 -0.0298,0.0026 -0.0364,-0.0244 -0.1419,-0.0354 -0.3174,-0.1272 -0.45,-0.1462 -0.2301,-0.9358 0.6217,-0.3473 1.2283,-0.3169 0.2195,0.0109 0.2565,0.2245 0.4013,0.3047 0.1233,0.0682 0.8189,-0.0759 1.0701,-0.0244 0.7125,0.146 1.0135,0.7727 1.8363,0.6581 0.3715,-0.0518 0.5586,0.0099 0.681,-0.39 0.0426,-0.139 0.5631,-0.411 0.5959,-0.2803 0.2224,0 0.4122,0.103 0.608,0.195 0.4013,0.1884 0.0591,0.2152 -0.1094,0.3656 -0.2483,0.2215 -0.0736,0.8197 -0.5959,0.719 -0.4193,-0.0809 -1.379,0.0686 -1.7755,0.2316 -0.3163,0.1301 -0.3692,0.3019 -0.7661,0.3656 -0.4102,0.0658 -1.2753,0.0934 -1.6539,0.0365l-0.2675 -0.1097zm5.0346 14.6483c-0.2203,0 -0.6605,-0.5367 -0.7418,-0.7312 -0.1832,-0.4378 0.6222,-0.245 0.7296,-0.5728 0.3461,0 0.724,0.4764 1.0459,0.6093 0.183,0.0756 0.6566,0.6359 0.6566,0.8165 -0.4558,0 -0.8968,-0.0405 -1.3498,-0.0121l-0.3405 -0.1097zm8.245 -4.7954c-0.0185,0.0704 -0.0543,0.0087 -0.0729,-0.0244 -0.0224,-0.0401 -0.0815,-0.0576 -0.0912,-0.1036 -0.0205,-0.0979 -0.012,-0.1934 0.0486,-0.2742 0.046,-0.0615 0.1099,-0.0701 0.1885,-0.0731 0.0935,-0.0036 0.2189,-0.0113 0.2189,0.1158 0,0.1553 -0.0702,0.2478 -0.1946,0.3412l-0.0973 0.0183zm9.2545 2.3824c-0.07,-0.2794 0.017,-0.5581 0,-0.8408 -0.0172,-0.2877 -0.2475,-0.4682 -0.3041,-0.6947 -0.0383,-0.0063 -0.0468,-0.0365 -0.0973,-0.0365 -0.0151,-0.046 -0.3548,-0.0107 -0.4134,-0.0122l-0.4621 -0.0122c-0.0181,-0.0363 -0.0999,-0.0712 -0.1095,-0.1097 -0.0239,-0.0095 -0.2373,-0.2566 -0.2432,-0.2803 -0.0162,-0.0054 -0.0193,-0.0161 -0.0243,-0.0365 -0.1375,-0.0458 -0.2647,-0.4445 -0.3648,-0.5119 0,-0.0694 0.4202,-0.0378 0.4864,-0.0243 0.5147,0.1054 0.6793,-0.1691 1.0823,0.2681 0.3745,0.4061 0.9388,0.3515 1.4228,0.6093 0.2486,0.1325 0.445,0.3262 0.6932,0.4509 0.2295,0.1152 0.2859,0.4204 0.304,0.4265 0,0.1176 0.479,0.6281 0.5837,0.6581 0.0062,0.022 0.6711,0.6779 0.4378,0.7556 0,0.1866 -0.3412,0.4837 -0.5472,0.3412 -0.5611,-0.3884 -0.4369,-0.2925 -1.0945,-0.2925 -0.4236,0 -0.8896,0.0536 -1.2161,-0.2437l-0.1337 -0.4144zm-1.0824 8.4697c0,-0.4917 -0.5837,-0.9252 -0.5837,-1.5355 0,-0.2352 -0.2185,-0.2238 -0.3526,-0.3169 -0.109,-0.0758 -0.0532,-0.5706 0.1702,-0.4387 0.2035,0.1202 0.5177,0.1143 0.6689,0.3413 0.1297,0.1945 0.2019,0.4435 0.2918,0.658 0.2112,0.5033 0.9368,1.3045 1.3499,1.7183 0.2779,0.2785 0.6256,0.5222 0.8756,0.8043 0.0625,0.0706 0.6471,0.5765 0.7296,0.5972l0 0.0244c-0.4681,0 -0.3684,0.0012 -0.7418,0.2315 -0.081,0.05 -0.5587,0.2284 -0.5716,0 -0.0097,-0.1733 -0.6535,-0.4693 -0.8269,-0.6093 -0.333,-0.2691 -0.5411,-0.7587 -0.7905,-1.109l-0.2189 -0.3656zm-24.1102 -189.746l0 64.9225 88.7695 82.9745 0 0c0,0.4424 -0.0013,0.6636 -0.0365,1.1577 -0.0855,1.1992 0.5761,1.9557 1.1675,2.9126 0.5409,0.8752 1.6072,1.5501 1.8971,2.5104 0.1863,0.6175 0.373,1.235 0.5594,1.8524 0.2537,0.8403 0.6184,1.3965 0.8391,2.3032 0.237,0.9737 1.0527,0.921 1.6782,1.499 0.3235,0.2989 1.404,0.7273 1.5079,0.9627 0.167,0.3781 0.3201,0.5707 0.5716,0.9018 0.4573,0.602 0.5036,0.4584 -0.0851,1.0481 -0.3597,0.3604 -0.7937,0.5159 -1.1796,0.9018 -0.608,0.608 -1.2267,1.5372 -2.0917,1.6208 -0.2006,0.0193 -1.315,1.0371 -1.362,1.2308 -0.1062,0.4372 -0.1773,0.7172 -0.4013,1.1212 -0.2385,0.4302 -0.1801,0.9384 -0.754,1.1577 -0.3491,0.1334 -0.4011,0.3265 -0.377,0.6703 0.0335,0.4779 0.7062,1.0568 0.2311,1.4014 -0.8251,0.5985 0.3661,2.5198 0.1702,3.2295 -0.0678,0.2457 -0.6639,0.3934 -0.5229,0.7311 0.2418,0.5788 0.0365,0.7072 0.0365,1.2796 0,0.5088 0.3159,0.722 -0.2432,1.1334 -0.4986,0.3669 -1.1013,1.1789 -1.2891,1.7427 -0.3485,1.0459 -0.6604,0.2686 -1.4106,0.7068 -0.4445,0.2596 0.2432,0.754 0.2432,1.243 0,0.5463 -0.8174,0.6578 -0.4743,1.1334 0.1402,0.1943 0.5739,0.1958 0.6688,0.3899 0.3482,0.7126 0.2052,1.6084 0.0852,2.4008 -0.037,0.2449 -0.1822,0.5592 -0.2797,0.6946 -0.0644,0.0895 -0.2722,0.5052 0.0121,0.585 0.0246,0.0069 0.0765,0.0231 0.0852,0.0487 0.0551,0.1626 0.033,0.2205 0.0972,0.4265 0.0945,0.3033 0.321,0.6593 0.5351,0.4388 0.2257,-0.2326 0.6793,0.2376 0.827,0.2681 0.2552,0.0528 0.485,-0.1977 0.8147,-0.1341 0.7648,0.1474 0.6088,0.5241 0.8756,1.1212 0.077,0.1723 0.4802,-0.0303 0.5473,0.1462 0.1532,0.4032 -0.1562,0.6152 -0.0852,1.0481 0.0634,0.3864 0.0487,0.7156 0.0487,1.1211 0,0.7688 -1.3357,1.0656 -1.0337,1.8036 0.17,0.4155 -1.287,0.7312 -1.6174,0.7312 -0.4931,0 -0.993,-0.0027 -1.4107,0.1463l-0.2448 0.1656 0 0 -39.9024 3.4885 0 0c-0.0125,-0.4161 -0.0519,-0.9912 -0.1174,-1.3143 -0.1135,-0.5605 -1.23,-2.3624 -1.4957,-1.0115 -0.3616,0.0517 -0.3634,-1.4155 -0.3405,-1.7427 0.0623,-0.887 -0.1677,-1.1232 -0.6203,-1.8036 -0.1063,-0.1597 0.5512,-0.4473 0.5959,-0.914 -0.0656,-0.7984 -0.3897,-1.4049 -0.6202,-2.157 -0.1804,-0.589 -0.2965,-1.1687 -0.5229,-1.7427 -0.4719,-1.1959 -1.3832,-2.1852 -1.8241,-3.3757 -1.1634,-1.8935 -3.2906,-3.1188 -4.7914,-4.6552 -0.4343,-0.4447 -0.7111,-0.9329 -1.3012,-1.0846 -0.2368,-0.0609 -0.7341,-0.6881 -1.0215,-0.8775 -1.5477,-0.6847 -2.3339,-1.1956 -3.3807,-2.5957 -0.6994,-0.9356 -3.4059,-1.3708 -3.7699,0.0853 -0.5998,0 -1.0711,-0.5606 -1.7147,-0.5606 -0.6313,0 -0.3533,-0.9312 -0.2067,-1.1699 0.7814,-1.273 -0.785,-2.0311 -0.8148,-3.1929 -0.7069,-1.4139 -1.2065,-1.2384 -2.5903,-1.4502 -0.5252,-0.0804 -3.101,-0.0522 -3.101,0.7312 -0.0447,0.0192 -0.0453,0.01 -0.0851,0 -0.2437,-0.9668 -2.442,-1.0233 -3.247,-1.4014 -0.978,-0.4595 -2.8271,-0.5665 -3.3564,-1.6208 -0.4954,0 -0.983,-0.8126 -0.9971,-1.3284 0,-0.3949 0.0981,-0.9929 -0.3527,-1.1089 -0.7099,-0.1826 -0.5614,-0.1217 -1.058,-0.6703 -0.2401,-0.2654 -0.7252,-0.0652 -0.8148,-0.4143 -0.2462,-0.9583 -3.5843,-2.3152 -4.4265,-1.7427 -0.3872,0.2633 -0.7578,0.5932 -1.1918,0.2925 -0.4208,-0.2917 -0.8554,-0.4909 -1.3742,-0.4144 -0.2819,0.0416 -0.4245,0.3534 -0.5351,0.3534 -0.2895,0 -0.5119,-0.3011 -0.7904,-0.4143 -0.1491,-0.0856 -0.3845,-0.2271 -0.4986,-0.3412 -0.1698,-0.1698 -0.3402,0.2185 -0.5229,0.0731 -0.3397,-0.2701 -0.5536,-0.5955 -1.0459,-0.5972l-3.3199 -0.0121 -2.6389 0.2681c-0.789,0.0802 -1.6174,0.4938 -1.6174,-0.6581 -0.06,-0.0151 -0.5521,-0.8807 -1.0093,-1.0846 -0.4974,-0.2217 -1.4685,-0.2099 -1.6174,-0.6947 -0.1223,-0.3984 1.137,-3.1548 0.3283,-3.2903 -0.0539,-0.2744 -0.3092,-0.3533 -0.2432,-0.7068 0.1089,-0.5802 0.4378,-1.0775 0.4378,-1.6696 0,-0.5573 -0.6013,-0.4394 -0.6202,-0.6703 -0.0252,-0.3087 -0.3358,-0.2472 -0.3405,-0.3046 -0.0827,-1.0085 0.6794,-2.4011 0.8634,-3.4123 0.1414,-0.7767 -0.5473,-1.621 -1.2161,-1.9254 -0.2085,-0.0525 -0.9728,-0.4353 -0.9728,0.1218 -0.2722,0 -1.5459,-1.0047 -1.8363,-1.1943 -0.6933,-0.4524 -0.7474,-0.9391 -0.3527,-1.6086 0.4072,-0.6909 0.5094,-2.9553 -0.5716,-2.9979 -1.3534,-0.0534 -2.2068,-0.9846 -3.0159,-1.9986 -0.4509,-0.565 -0.6595,-1.4591 -1.2525,-1.8767 -1.1302,-0.2837 -2.6148,-0.582 -2.3835,-2.0839 0.1987,-1.2906 -1.8437,-2.2767 -2.5052,-3.2904 -0.3947,-0.6047 -0.1627,-1.9199 -0.985,-2.2057 -0.7493,-0.2603 -0.6319,-0.4128 -1.131,-0.914 -0.2274,-0.2285 -0.9272,-1.2867 -0.985,-1.5599 -0.4466,-0.7041 -1.4673,-1.7067 -2.2133,-2.0595 -0.7895,-0.3735 -1.1323,-1.456 -1.7998,-1.6208 -0.1786,-0.7145 0.1889,-1.6484 -0.0973,-2.4374 -0.3803,-1.0488 -0.4651,-1.5708 -0.5472,-2.6566 -0.028,-0.3698 -0.4705,-0.1474 -0.6202,-0.3169 -0.2293,-0.2598 0.2859,-0.6661 0.3648,-0.8774 0.1364,-0.2396 0.2582,-0.3484 0.3283,-0.6337 0.278,-0.0695 0.577,0.3832 0.7297,0.5728 0.0193,0.0239 0.142,0.1215 0.1581,0.0731 0.0251,0 0.1025,-0.0261 0.1094,-0.0366 0.7855,0 1.0231,-2.258 1.1432,-2.7663 0.2692,-1.1396 0.0567,-2.1454 -0.4743,-3.1563 -0.25,-0.4758 -1.2939,-1.3513 -1.3864,-1.7183 -0.5549,-0.1398 -0.626,0.6428 -1.2525,0.4387 -0.3457,-0.1127 -0.8897,0.2485 -1.5323,0.0975 -1.1633,-0.2733 -2.3575,-1.2515 -2.9429,-2.2789 -0.3253,-0.7351 -0.4202,-0.8653 -1.1431,-0.8653 -0.1204,-0.2399 -0.1581,-0.4989 -0.1581,-0.7799 -0.1945,-0.0648 -0.4305,-0.5518 -0.5959,-0.6825 -0.3846,-0.3041 -0.3824,0.0963 -0.5229,-0.5971 -0.165,-0.8147 0.0486,-1.1653 0.0486,-1.9377 0,-1.6412 -0.7157,-2.7567 -1.0701,-4.1921 -0.1413,0 -0.436,0.1884 -0.4378,0.1828 -0.1626,0 -0.3808,-0.5949 -0.4378,-0.7312 0,-0.3642 0.044,-0.7975 0.0243,-1.1456 -0.0247,-0.4356 -0.01,-0.2147 0.2919,-0.3656 0.3963,-0.1981 0.0769,-1.1806 0.0608,-1.5355 -0.017,-0.3769 -0.0268,-0.8042 -0.0973,-1.1699 -0.0833,-0.4327 -0.131,-0.8422 -0.0365,-1.2186 0.3843,0 0.398,-0.2674 0.4621,-0.5241 0.2018,-0.0498 0.4939,0.0244 0.7175,0.0244 0.0995,0 0.6324,0.0219 0.6324,0.1341 0.2436,0.0614 0.3165,1.4585 0.7175,1.6573 0,0.242 -0.2437,0.2774 -0.45,0.3291 -0.0575,0.23 -0.0141,0.3054 0.073,0.5606 0,0.4431 0.1293,0.7906 0.2432,1.1333 0.1592,0.4786 -0.397,0.4719 0.3162,0.719 0.789,0.2735 1.6938,0.2607 2.1281,1.1334 0.1943,0.3906 0.72,1.2378 1.2647,0.9018 0.2531,-0.1562 0.18,0.1707 0.3041,0.3534 0.2028,0.2983 0.2052,0.4544 0.5472,0.6824 0.5997,0.3998 2.3471,0.7774 2.3471,-0.329 0,-0.3703 -1.0283,-0.4329 -1.4229,-0.4997 -0.6014,-0.1017 -1.3346,-0.8131 -1.6417,-1.3527 0.0234,0.0047 0.0237,0.0164 0.0365,0.0366 -0.2448,-0.5522 -0.3527,-1.2623 -0.3527,-1.8767 0,-0.586 -0.4014,-0.8406 -0.7783,-1.2187 -0.1572,-0.1576 -0.3029,-0.0491 -0.4986,-0.1097 -0.3667,-0.1135 -0.2982,-0.8161 -0.4013,-1.0236 -0.3362,-0.6768 -1.3133,-0.094 -1.3133,-0.8897 0,-0.2108 0.2371,-0.5847 0.377,-0.6824 0.4855,-0.3394 0.0511,-0.4251 -0.0852,-0.8896 -0.2716,-0.5478 0.1795,-1.2726 -1.0823,-0.8165 -0.0459,0.0166 -0.4007,-0.9385 -0.8391,-1.0846 0.0539,-0.2156 0.8594,-0.201 0.9972,-0.39 0.1134,-0.1557 0.2897,-0.7627 0.377,-0.719 0.5032,0.2524 1.3281,-0.4255 1.4593,-0.9506l1.1918 0.0732c0.3912,0.024 0.3968,0.7494 0.7661,0.6215 0.8871,-0.3074 1.7444,-0.6019 2.5659,-0.4753 0.5602,0.0864 1.5561,0.0265 2.0187,0.2437 0.8044,0.3779 1.8287,0.4388 2.7119,0.4388 0,-0.2212 -0.1094,-0.3555 -0.1094,-0.5606 -0.4721,0 -0.3002,0.4442 -0.9608,0.134 -0.37,-0.1738 -0.2918,-0.1638 -0.2918,-0.524 -0.6672,-0.1674 -0.7206,-0.3068 -1.4228,-0.0244 -0.6907,0.2779 -0.782,-0.2681 -1.6174,-0.2681 -0.4337,0 -1.1093,-0.0462 -0.5837,-0.5727 0.4363,-0.4369 -0.0673,-0.7799 -0.5108,-0.7434 -0.9475,0.0779 -0.2414,0.7162 -0.985,1.048 -0.2613,0.1165 -0.4757,0.3934 -0.5838,0.6581 -0.2411,0.5906 -0.3413,0.0696 -0.6688,-0.0488 -0.5266,-0.1903 -1.028,-0.1703 -1.5688,-0.2559 -0.2137,-0.3101 -0.4056,-0.7343 -0.7296,-0.9383 -0.4727,-0.2978 -0.7596,-0.6221 -1.3559,-0.6886 -0.363,0 -0.4039,0.4166 -0.6871,0.4387 -0.2873,0.0225 -0.4432,0.2413 -0.7844,0.2011 -0.2405,-0.0284 -0.3025,0.0369 -0.2128,0.2864 0.0465,0.1292 0.0973,0.4422 0.0912,0.5789 -0.0127,0.2801 -0.1908,0.6536 -0.3223,0.9018 -0.1745,0.7009 0.7833,0.3607 0.8695,0.7068 0.1359,0.5457 -0.17,0.2995 -0.5351,0.5484 -0.2333,0.1591 0.1461,0.391 -0.0972,0.6154 -0.3306,0.3048 0.1322,0.388 0.3101,0.6764 0.1331,0.2156 0.1047,0.3308 0.3344,0.4996 0.1748,0.1286 0.1648,0.3226 -0.1034,0.3473 -0.2423,0.0224 -0.1731,-0.4884 -0.4256,-0.2985 -0.0424,0.0318 -0.3257,0.1535 -0.3284,0.1645 0.1878,0.1259 0.2451,0.2774 0.5108,0.3717 0.0633,0.0225 -0.0079,0.3677 -0.0365,0.4326 -0.0795,0.1809 -0.8249,0.4903 -1.0093,0.5118 -0.0692,0.0081 -0.3858,-0.4249 -0.4682,-0.4935 -0.3024,-0.2521 -0.7784,-0.505 -1.0215,-0.7678 -0.5552,-0.308 -0.4647,-0.7121 -1.1857,-0.3717 -0.3984,0.188 -0.6821,-0.5637 -0.9607,-0.7738 -0.8872,-0.6694 -0.8475,-1.5187 -2.116,-1.9194 -0.7919,-0.2502 -1.4411,-0.3021 -1.4411,0.7556 -0.1308,0 -0.6288,-0.1729 -0.7722,-0.2316 -0.1026,-0.0419 0.1268,-0.4164 0.152,-0.4874l0.4621 -1.2979c0.204,-0.2317 0.3707,-0.9626 0.4257,-1.2857 0.0505,-0.2962 0.0462,-0.5879 -0.1095,-0.8591 -0.1435,-0.2502 -0.6548,-1.0213 -0.5898,-1.2857 0.1919,0 1.0535,1.2579 1.1431,1.4684 0.1362,0.3197 1.1232,1.7915 1.4654,1.7915 0,-0.2021 -0.6983,-1.0406 -0.8512,-1.2674l-0.8209 -1.2187c-0.1308,-0.194 -0.5971,-0.6893 -0.6324,-0.8774 -0.1538,-0.1551 -0.8315,-1.2787 -0.8877,-1.4502 -0.1593,0 -0.3536,0.2354 -0.3892,0.3778 -0.303,0 -0.3463,-0.7007 -0.2797,-0.9018 0.1217,-0.3677 -0.191,-1.0744 -0.3648,-1.3893 -0.7081,-1.2835 -1.5513,-1.8627 -2.9308,-2.352 -1.6681,-0.9784 -1.7858,-2.767 -2.9794,-3.9606 -0.9846,-0.9846 -2.1223,-1.7666 -3.0645,-2.8273 -0.5601,-0.6307 -1.5579,-1.6249 -1.7998,-2.4008 0.1237,-0.6168 0.8877,-0.9558 0.8877,-1.7548 0,-0.5211 -0.3609,-1.8504 -0.6688,-2.2667 -0.1994,-0.2698 -0.6839,-1.096 -0.7661,-1.4137l-0.523 -2.0229c-0.2357,-0.9114 -0.7675,-1.6894 -0.1459,-2.6811 0.2472,-0.6614 -0.1484,-1.3764 0.377,-1.9986 0.3417,-0.4048 0.4354,-1.0134 0.1702,-1.4624 -0.5538,-0.9378 0.2301,-2.1065 -0.8391,-2.9491 -0.1963,-0.1546 -0.4221,-2.0337 -0.3891,-2.3155 -0.4576,-0.3262 -0.779,-0.5157 -0.9242,-1.0846 -0.1646,-0.6454 -0.4516,-0.3591 -0.7418,-0.8286 -0.2859,-0.4623 -1.2395,-2.5332 -1.7998,-2.1205 -0.4202,0.3094 -0.4735,-0.9289 -0.5473,-1.1699 -0.2882,-0.94 -1.2928,-0.9052 -1.9457,-1.5599 -0.6881,-0.6902 -1.5943,-1.2849 -2.1525,-2.0961 -0.1662,-0.2996 -0.5367,-0.7628 -0.3405,-1.1211 0.1626,-0.2967 0.141,-0.6764 0.0486,-0.9993 -0.1841,-0.6427 -0.6448,-1.2444 -0.8391,-1.8768 -0.195,-0.6351 0.2415,-0.6943 0.3527,-1.1943 0.0641,-0.2879 -0.1279,-0.5915 -0.0608,-0.853 0.0568,-0.2217 0.2953,-0.6052 0.4256,-0.8165 0.2369,-0.3838 0.3051,-0.8908 0.5473,-1.2613 0.4768,-0.7991 0.6863,-1.7857 1.1978,-2.5653 0.0808,-0.1231 0.3344,-0.4587 0.3344,-0.591l0.0061 -0.0061c0.0341,0 0.1715,0.0553 0.2189,0.067 0,0.263 -0.5322,1.2242 -0.5168,1.2552 0.0564,0.1136 0.3673,0.0443 0.4803,0.0609 0.3099,0.0457 0.2496,0.1896 0.2311,-0.2193 -0.0101,-0.2248 -0.0903,-0.5852 -0.0304,-0.7982 0.1552,-0.2668 0.2961,-0.2605 0.3952,-0.5972 0.0617,-0.2094 0.0581,-0.4525 0.1642,-0.652 0.249,-0.4682 1.1728,0.0553 1.4471,-0.4752 0.1259,-0.2434 0.1936,-0.9568 -0.1945,-0.9262 -0.2156,0.017 -0.3651,-0.0488 -0.5655,-0.0488 -0.1378,0 -0.2764,0.4259 -0.3527,0.5423 -0.1708,0.2607 -0.7532,1.7448 -1.0397,1.7305 -0.1811,-0.0091 -0.1019,-0.1619 -0.0487,-0.2437 0.5391,-0.8286 0.8766,-1.7671 1.4715,-2.5714 0.335,-0.9121 0.6818,-2.184 0.5715,-3.1563 -0.0301,-0.265 -0.3333,-0.4764 -0.4134,-0.719 -0.1284,-0.3886 -0.1846,-0.7951 -0.3649,-1.1577 -0.3053,-0.6138 0.7185,-0.8118 0.8148,-1.2674 0.0336,-0.5375 0.0227,-1.1103 0.1338,-1.6208 0.0764,-0.3508 0.1931,-0.662 0.2797,-0.9993 0.1746,-0.6802 -0.0724,-1.5732 0.1702,-2.2423 -0.094,-0.5068 -0.1459,-1.3179 -0.1459,-1.828 0,-0.3883 -0.1338,-0.7954 -0.1338,-1.2065 0,-0.2825 -0.3405,-0.2601 -0.3405,-0.5484 0,-0.3655 0.0842,-0.8733 -0.0972,-1.1699 -0.232,-0.3791 -0.5108,-0.9528 -0.5108,-1.4258 0,-0.8077 -0.1761,-1.4133 -0.985,-1.6696 -0.3445,-0.1973 -1.4406,-0.4102 -0.754,-1.0968 0.3978,-0.3978 0.4364,-1.2863 0.5472,-1.828 0.1684,-0.8228 0.2345,-1.7742 -0.0928,-2.5263l0 0 32.5348 -0.1943 37.4634 0.2702 0 0z"/>
 </g>
</svg>
