<?xml version="1.0" encoding="UTF-8"?>
<!DOCTYPE svg PUBLIC "-//W3C//DTD SVG 1.1//EN" "http://www.w3.org/Graphics/SVG/1.1/DTD/svg11.dtd">
<!-- Creator: CorelDRAW -->
<svg xmlns="http://www.w3.org/2000/svg" xml:space="preserve" width="297mm" height="210mm" style="shape-rendering:geometricPrecision; text-rendering:geometricPrecision; image-rendering:optimizeQuality; fill-rule:evenodd; clip-rule:evenodd"
viewBox="0 0 297 210"
 xmlns:xlink="http://www.w3.org/1999/xlink">
 <defs>
  <style type="text/css">
   <![CDATA[
    .str2 {stroke:#2F3133;stroke-width:0.1}
    .str1 {stroke:black;stroke-width:0.1;stroke-opacity:0.501961}
    .str0 {stroke:black;stroke-width:0.1}
    .str3 {stroke:black;stroke-width:0.5}
    .fil5 {fill:none}
    .fil0 {fill:white}
    .fil2 {fill:#1F1A17;fill-rule:nonzero}
    .fil3 {fill:#C2C1C1;fill-rule:nonzero}
    .fil4 {fill:white;fill-rule:nonzero}
    .fil6 {fill:black;fill-rule:nonzero}
    .fil1 {fill:white;fill-rule:nonzero;fill-opacity:0.501961}
   ]]>
  </style>
 </defs>
 <g id="Plan_x0020_1">
  <metadata id="CorelCorpID_0Corel-Layer"/>
  <path class="fil0 str0" d="M247.715 136.297c0.1316,-0.1151 0.3027,-0.234 0.3944,-0.3828 0.0446,-0.0722 0.121,-0.1198 0.174,-0.1856 0.0355,-0.0439 0.0637,-0.0868 0.087,-0.1392 0.0131,-0.0293 0.0302,-0.0928 0.0696,-0.0928 0.0118,0.0473 0.0268,0.1032 0.029,0.1566 0.0048,0.1114 0.0643,0.2307 0.0406,0.348 -0.0188,0.0935 -0.1135,0.1005 -0.1682,0.1682 -0.0285,0.0354 -0.0356,0.0661 -0.058,0.0986 -0.0265,0.0382 -0.1565,0.0496 -0.203,0.0638 -0.137,0.0417 -0.2297,0.0116 -0.3654,0.0116l0 -0.0464zm-0.3538 0.6264c-0.0548,-0.0658 -0.2115,-0.1554 -0.2958,-0.1392 -0.203,0.039 0.1899,0.2917 0.2436,0.3364 0.2544,0.2122 0.5796,0.3373 0.8294,0.551 0.1137,0.0973 0.2419,0.231 0.3364,0.348 0.0587,0.0728 0.2985,0.2864 0.3828,0.3074 -0.0208,-0.1044 -0.1893,-0.3006 -0.2494,-0.406 -0.11,-0.1926 -0.3507,-0.4099 -0.5336,-0.5336 -0.1656,-0.1121 -0.3145,-0.2501 -0.4988,-0.3422l-0.2146 -0.1218zm-19.6446 2.6506c-0.0584,0.0449 -0.108,0.1218 -0.1856,0.1218 -0.0191,0.0286 -0.307,0.0667 -0.3654,0.0812 -0.0922,0.0228 -0.2361,0.1594 -0.2436,0.261 -0.0102,0.1366 0.3685,-0.0553 0.4118,-0.0812 0.065,-0.0389 0.1389,-0.0693 0.203,-0.1044 0.025,-0.0136 0.0489,-0.0184 0.0754,-0.0348 0.0547,-0.0337 0.0955,-0.0971 0.145,-0.1218l-0.0406 -0.1218zm-123.325 19.981c0.071,0.0054 0.1457,0.0144 0.2204,0.0116 0.0876,-0.0034 0.1735,-0.0638 0.2552,-0.0638 0.0169,0.0282 0.002,0.0905 0,0.1218 -0.0059,0.0902 -0.0231,0.1939 -0.0058,0.2842 0.0104,0.054 0.009,0.1082 -0.029,0.1508 -0.0462,0.0517 -0.168,-0.0057 -0.2204,-0.0348 -0.0552,-0.0308 -0.0796,-0.0677 -0.0986,-0.1276 -0.0235,-0.0736 -0.0388,-0.108 -0.087,-0.1682l-0.0348 -0.174zm-36.5632 17.5218c-0.0033,0.0175 -0.007,0.035 -0.0116,0.0522m0.0348 -0.1624c0.0403,-0.0807 0.0388,-0.1731 -0.0116,-0.2436 -0.2258,0 -0.5314,0.1202 -0.725,0.2262 -0.1709,0.0935 0.2746,0.3216 0.3364,0.3422 0,0.1334 -0.2182,0.3059 -0.3538,0.261 -0.1839,-0.061 -0.245,-0.274 -0.377,-0.406 -0.1095,-0.1095 -0.2282,-0.2105 -0.3306,-0.319 -0.1182,-0.1254 -0.2646,-0.2343 -0.3654,-0.3654 -0.0724,-0.0695 -0.1322,-0.108 -0.1914,-0.029 0.0254,0.1271 0.2472,0.3748 0.3364,0.464 0.2645,0.2645 0.5032,0.5388 0.8062,0.7482 0.1821,0.1259 0.3855,0.041 0.5626,-0.0464 0.0766,-0.0377 0.3246,-0.4236 0.2784,-0.4698l0.0348 -0.1624zm-4.0122 3.288c0.0488,-0.171 0.0234,-0.2819 0.0234,-0.4446 -0.1658,-0.0411 -0.3753,-0.0448 -0.5499,0 -0.1427,0.0365 -0.2797,0.0227 -0.3978,0.1287 -0.1902,0.1705 -0.0732,0.3661 -0.0936,0.585 -0.0072,0.0782 -0.0017,0.1685 0.0234,0.234 0.0255,0.0663 0.0778,0.1586 0.0936,0.2223 0.0511,0.0255 0.0559,0.11 0.1053,0.1404 0.1343,0.0825 0.3081,0.1925 0.4212,0.2925 0.056,0.0496 0.1068,0.1312 0.1872,0.1404 0.1392,0.0159 0.1327,-0.065 0.2106,-0.117 0,-0.0491 -0.4188,-0.1932 -0.4914,-0.2457 -0.1253,-0.0904 -0.3993,-0.4139 -0.3627,-0.5616l0.0117 -0.0117c0.0582,0 0.2328,-0.0443 0.2574,-0.0936 0.0647,-0.0091 0.1077,-0.0702 0.1872,-0.0702l0.3744 -0.1989zm-1.6029 1.0881c0,-0.1572 0.0613,-0.35 0.0234,-0.5031 -0.0723,0 -0.2399,0.0581 -0.2574,0.1287 -0.2196,0 -0.5788,-0.0799 -0.6318,0.1872 -0.0244,0.006 -0.1521,0.1455 -0.1521,0.1872 0.0897,0.0537 0.3149,0.0059 0.4329,0.0351 0.0107,0.0433 0.0689,0.0759 0.0819,0.1287 0.0228,0.0075 0.0006,0.0042 0.0234,0.0117 0.0335,0.1352 -0.0117,0.2069 -0.0117,0.3393 0,0.1446 0.1016,0.2354 0.0585,0.4095 -0.0886,0.0219 -0.1015,0.1199 -0.234,0.0468 -0.1238,-0.0682 -0.3947,-0.1186 -0.5382,-0.0819 -0.1607,0.0412 -0.3178,0.1989 -0.468,0.1989 -0.1388,-0.5602 -0.585,-0.4822 -0.585,0.0819 0.0148,0.0049 -0.0887,0.3851 -0.1872,0.4095 -0.0044,0.0135 -0.0388,0.0419 -0.0585,0.0468 -0.024,0.0971 -0.2799,0.1901 -0.3744,0.1989 -0.199,0.0185 -0.1638,0.1076 -0.1638,0.2808l0.0117 0.0117c0.1759,0 0.6451,-0.3281 0.7839,-0.4563 0.2967,-0.2738 0.6508,-0.5382 1.053,-0.5382 0.2137,0 0.9945,0.2079 0.9945,-0.1872 0.0622,-0.0206 -0.1448,-0.6284 0.1053,-0.6903l0.0936 -0.2457zm-25.9021 11.2317c-0.0548,0 -0.1114,-0.015 -0.1624,0.0058 -0.0765,0.0311 -0.1369,0.086 -0.1856,0.1508 -0.0543,0.0724 -0.1469,0.178 -0.0928,0.2726 0.0639,0.0127 0.0945,0.0119 0.1566,-0.0116 0.0238,-0.0089 0.0469,-0.015 0.0696,-0.0232 0.0336,-0.012 0.066,-0.0526 0.087,-0.0812 0.0076,-0.0105 0.0224,-0.0208 0.029,-0.029 0.012,-0.0152 0.0247,-0.0511 0.0348,-0.0696 0.0135,-0.0247 0.0167,-0.0654 0.0464,-0.0696l0.0174 -0.145zm-1.885 1.0092c-0.0668,0.0668 -0.1491,0.1282 -0.2436,0.1334 -0.0935,0.0052 -0.1115,-0.027 -0.1856,-0.0638 -0.0973,-0.0485 -0.1839,-0.0438 -0.203,0.0812 -0.0214,0.1393 -0.0812,0.2995 -0.0812,0.435 0.0518,0 0.1018,-0.0902 0.1508,-0.116 0.1132,-0.0598 0.2457,-0.0336 0.3596,0.0232 0.1731,0.0862 0.4216,0.0066 0.5046,-0.1624 0.0592,-0.1208 0.057,-0.377 -0.1276,-0.377l-0.174 0.0464zm-1.6472 -1.6182c-0.0781,-0.0321 -0.1814,-0.0749 -0.2494,-0.1218 -0.038,-0.0263 -0.1549,-0.1651 -0.174,-0.1508 0,0.1079 0.0636,0.1766 0.0696,0.2842 0.0073,0.1321 -0.1029,0.1227 -0.116,0.2146 -0.0802,0.0401 0.0284,0.2515 0.0522,0.3016 0.0331,0.0693 0.0612,0.169 0.087,0.2436 0.0317,0.092 0.0711,0.0308 0.087,-0.0348 0.0302,-0.1239 0.1205,-0.2293 0.2088,-0.3074 0.0416,-0.0367 0.0894,-0.0726 0.0986,-0.1276 0.0045,-0.0266 0.007,-0.159 0.0174,-0.1624l-0.0812 -0.1392zm221.763 -60.1112l-0.0116 -0.0058c-0.1601,0.1201 -0.3339,0.3986 -0.406,0.5858 -0.1041,0.2706 0.231,0.3772 0.2958,0.5974 0.0379,0.1291 0.0655,0.4132 0.1276,0.5104 0.0207,0.0324 0.3399,0.0154 0.4176,0.0348 0.0432,0.1729 -0.0691,0.5064 0.0696,0.6148 0.2205,0.1725 0.2962,-0.0036 0.232,0.3944 -0.0063,0.0392 -0.0025,0.3602 -0.0174,0.377 -0.1614,0.1807 -0.2203,0.3204 -0.3538,0.5452 -0.2952,0.5905 -1.372,1.5141 -2.0416,1.6472 -0.066,0.0131 -0.1981,-0.0578 -0.2146,-0.0174 -0.0949,0.2326 -0.0743,0.6141 -0.4176,0.638 -0.191,0.0133 -0.2265,0.182 -0.3074,0.319 -0.0577,0.0975 -0.2385,0.2535 -0.3248,0.232l-0.145 -0.5858 -0.1334 -0.8584 -0.0116 0c-0.0303,0.1212 -0.1515,0.2553 -0.145,0.3712 0.0086,0.1544 0.0748,0.2501 -0.0986,0.1972 -0.0239,-0.0073 -0.1402,-0.0139 -0.1276,-0.0464 0.2038,-0.5275 -0.2085,-0.1546 -0.3944,-0.0116 -0.1497,0.1153 0.0456,-0.3326 0.0638,-0.3654 0.0487,-0.0873 0.4106,-0.5356 0.4988,-0.5394 0.0329,-0.0014 0.1856,-0.0049 0.1856,-0.0406 -0.129,-0.043 -0.3927,-0.2204 -0.5162,-0.2204 -0.0078,0.0157 -0.2577,0.1624 -0.2668,0.1624 0,-0.0833 0.0073,-0.137 -0.029,-0.2146 -0.1211,-0.0908 -0.3167,-0.0119 -0.2668,-0.174 0.0257,-0.0834 0.173,-0.2697 0.1508,-0.3364 -0.1019,0.0254 -0.2221,0.116 -0.3306,0.116 -0.1089,0 -0.1134,-0.0838 -0.1914,0.0638 -0.2289,0.4336 -0.2691,0.2197 -0.522,-0.0522 -0.1837,-0.1976 -0.1075,-0.1797 -0.1218,-0.435 -0.0139,-0.2469 -0.1276,-0.4856 -0.1276,-0.7482 0,-0.2174 -0.0732,-0.1276 -0.2146,-0.1276 0,-0.1898 0.1598,-0.2675 0.116,-0.522 -0.0242,-0.1405 0.005,-0.3736 -0.0348,-0.493 -0.0994,0.0994 -0.2856,0.2065 -0.1798,0.3596 0.0516,0.0745 -0.0384,0.3732 -0.0638,0.4814 -0.0887,0.378 -0.0095,0.7333 -0.4408,0.928 -0.1298,0.1623 -0.2313,0.0436 -0.2436,0.3306 -0.0121,0.2839 -0.1604,0.0174 -0.232,0.0174 -0.0816,0.245 -0.2353,0.8236 -0.551,0.8236 -0.0568,0 -0.1992,0.0493 -0.2262,0 -0.0598,-0.1094 -0.0841,-0.2149 -0.232,-0.1102 -0.1855,0.1315 -0.3165,0.269 -0.4582,0.4466 -0.1449,0.1814 -0.13,0.5569 -0.2204,0.783 -0.0074,-0.0018 -0.01,-0.004 -0.0174,-0.0058 -0.0575,-0.2302 -0.2355,-0.3571 -0.3132,-0.5626 -0.0964,-0.2546 0.1259,-0.4264 -0.232,-0.6148 -0.2494,-0.1314 -0.1579,-0.1389 -0.0348,-0.3596 0.1134,-0.2032 0.2659,-0.4376 0.0522,-0.667 -0.1258,-0.1352 -0.0859,-0.0968 0.0348,-0.2378 0.0999,-0.1169 0.1833,-0.1844 0.232,-0.3306 0.1313,0 0.1098,0.1482 0.2726,0.1218 0.084,0 0.0195,-0.3888 0.0174,-0.464 -0.004,-0.1464 0.0401,-0.3384 0.0058,-0.4756 -0.1756,0 -0.1928,0.4246 -0.2726,0.4988 -0.1098,0.1022 -0.3886,0.4372 -0.5394,0.3248 -0.1436,-0.1072 -0.1324,-0.168 -0.319,-0.2146l0 -0.0174 0.0116 0c0.0352,-0.0704 0.2429,0.0598 0.2668,0.0174 0.0202,-0.036 -0.066,-0.2533 -0.0696,-0.3074 -0.0228,-0.3442 -0.1961,-0.1519 -0.3654,0.0174 -0.1036,0.1036 -0.2225,0.1889 -0.348,0.2552 -0.0621,0.0327 -0.348,0.3688 -0.348,0.4002 0.2027,0 0.4441,0.0589 0.6264,0.1044 0,0.285 -0.0978,0.5266 -0.087,0.8294 0.0114,0.3167 0.1535,0.8499 -0.087,1.0904 -0.0679,0.0679 -0.3881,0.464 -0.4524,0.464 -0.0422,-0.1691 -0.0449,-0.3651 -0.087,-0.5336 -0.147,0 -0.252,0.2436 -0.348,0.2436 -0.0135,-0.054 -0.0179,-0.2699 -0.0116,-0.2552 0,-0.1896 0.1654,-0.2046 0.1392,-0.3886 -0.2686,-0.1074 -0.3997,-0.002 -0.6148,0.1682 -0.1588,0.1255 -0.1534,-0.3568 -0.2668,-0.4292 -0.1041,-0.0666 -0.2183,0.2518 -0.2668,0.1972 -0.0543,-0.0613 -0.051,-0.395 -0.0696,-0.4988 -0.0406,-0.2268 -0.3248,-0.0675 -0.3248,-0.3422 0,-0.0685 0.0149,-0.406 -0.0406,-0.406 -0.1154,0 -0.1862,0.3332 -0.2262,0.4292 -0.0505,0.1209 -0.1961,0.3143 -0.3306,0.2494 -0.0266,0.0199 -0.1101,0.0281 -0.145,0.0348 -0.0541,0.0103 -0.0993,0.0307 -0.1508,0.0522 -0.1361,0.0568 -0.2325,0.1566 -0.3886,0.1566 -0.0557,-0.1115 -0.0443,-0.1314 -0.0174,-0.2436 0.0016,-0.0193 0.019,-0.075 -0.0058,-0.0812 -0.0647,0.1942 -0.217,0.3964 -0.3016,0.609 -0.139,0.3496 -0.4369,0.1917 -0.6728,0.3364 -0.0412,0.0252 0.0806,0.2447 0.0986,0.3132 0.0495,0.1876 -0.2204,0.6484 -0.2204,0.3538 0,-0.1391 0.0335,-0.271 0.0522,-0.406 0.0437,-0.3152 -0.372,0.3174 -0.29,-0.0754 0.0207,-0.0995 0.0591,-0.5995 0.1856,-0.5916 0.0948,0.006 0.2938,0.3433 0.319,0.232 0.0302,-0.1339 0.0567,-0.2731 0.1334,-0.3886 0.166,-0.2502 0.4344,-0.2456 0.29,-0.6206 -0.0614,-0.1593 -0.2841,-0.029 -0.4002,-0.029 -0.1198,0 0.0133,-0.2825 -0.174,-0.1102 -0.1455,0.134 -0.2775,0.1516 -0.4466,0.2262 -0.2528,0.1117 -0.0959,-0.1711 -0.1972,-0.261 -0.0431,-0.0382 -0.1337,0.152 -0.1508,0.1798 -0.1187,0.1923 -0.1262,0.3471 -0.0928,0.5742 0.0975,0.6634 -0.4225,1.3498 -0.0638,2.0126 0.0586,0.1082 0.192,0.1726 0.174,0.3016 -0.0158,0.1136 -0.207,0.1741 -0.261,0.2552 -0.1593,-0.2124 0.0287,-1.0621 -0.4524,-0.5568 -0.0608,0.0638 -0.2699,0.4969 -0.29,0.464 -0.0222,-0.0362 -0.0959,-0.3519 -0.0986,-0.4002 -0.011,-0.1978 0.0386,-0.6052 -0.0348,-0.7714 -0.0331,-0.0748 -0.2787,0.2204 -0.3306,0.2204 0,-0.3343 0.2201,-0.4519 0.1508,-0.7424 -0.0519,-0.2179 -0.5335,0.5046 -0.6322,0.5046 0.0663,-0.2655 0.1965,-0.403 0.3538,-0.6032 0.131,-0.2621 0.3131,-0.6435 0.0348,-0.8816 -0.1288,-0.1103 -0.1735,-0.1022 -0.0406,-0.2668 0.1163,-0.1441 0.1973,-0.2206 0.2436,-0.406 0.1369,0 0.0709,0.2789 0.3074,0.2204 0.1248,-0.0309 0.2421,-0.2016 0.3712,-0.1334 0.1805,0.0952 0.4686,-0.142 0.5742,-0.3132 0.1486,-0.2407 0.2292,0.2294 0.3306,0.2436 0.0893,0.0124 0.0696,-0.2182 0.0696,-0.2726 0,-0.1889 -0.238,-0.5587 -0.1624,-0.7018 0.0747,-0.1416 0.1334,-0.1842 0.1334,-0.348 -0.1017,0 -0.1944,0.1238 -0.2784,0.174 -0.0956,0.0573 -0.1978,0.0356 -0.2958,0.0754 -0.2026,0.0825 -0.3256,0.4085 -0.5858,0.2784 -0.1144,-0.0286 0.0886,-0.5735 0.0638,-0.6728 -0.1265,0 -0.3188,0.2551 -0.4234,0.3306 -0.1123,0.0809 -0.3606,0.2103 -0.3828,0.348 -0.0303,0.1884 0.0745,0.2805 0.232,0.348 0,0.0971 -0.2492,0.1999 -0.319,0.2668 -0.09,0.0861 -0.2115,0.2693 -0.2726,0.0696 -0.0898,-0.293 -0.2936,0.4991 -0.4756,0.4698 -0.1072,-0.0173 -0.0928,0.1086 -0.0928,0.1798 0,0.1056 0.0045,0.2092 -0.087,0.2668 -0.0948,0.0758 -0.3227,0.4598 -0.4524,0.377 -0.1705,-0.109 -0.1822,-0.3666 -0.29,-0.5162 -0.2307,-0.3198 -0.4881,0.6943 -0.4176,0.8004 0.0838,0.1259 0.4147,0.5208 0.5394,0.5162 0.1069,-0.0039 0.3389,-0.169 0.3654,-0.1624 0.054,0.2162 -0.0711,0.4016 0.0928,0.5858 0.1568,0.1764 -0.1811,0.428 -0.2958,0.5568 -0.1536,0.1726 -0.1879,0.515 -0.232,0.7366 -0.037,0.1865 0.0189,0.5712 -0.2668,0.4292 -0.0735,-0.0366 -0.0075,-0.1877 -0.0174,-0.2494 -0.0213,-0.1324 -0.1852,-0.6434 -0.2668,-0.725 -0.0752,-0.0752 -0.227,0.3082 -0.3132,0.261 -0.0608,-0.0332 -0.102,-0.1192 -0.1624,-0.1392 -0.2571,-0.0852 -0.3162,0.4815 -0.348,0.609 -0.0112,-0.0037 -0.0004,-0.0021 -0.0116,-0.0058 0,-0.4123 -0.225,-1.5547 -0.5568,-1.8154 -0.0483,0.2419 -0.1143,0.2026 -0.3016,0.2958 -0.1603,0.0799 -0.07,0.1914 -0.319,0.1914 0,0.0977 0.22,0.359 0.3248,0.3422 0.1502,-0.0242 0.2877,-0.1856 0.3886,-0.1856 0.0408,0.1635 0.0978,0.35 0.1682,0.5104 0.1014,0.2312 0.0596,0.1303 -0.0522,0.3422 -0.0542,0.1026 -0.045,0.2254 -0.0638,0.3364 -0.0876,0.5173 -0.0208,1.0684 -0.1566,1.5776 -0.0174,0.0656 0.0023,0.3132 -0.0638,0.3132 -0.0342,-0.1027 -0.2671,-0.3098 -0.377,-0.3016 -0.1438,0.0107 -0.2482,0.2262 -0.4234,0.2262 0,-0.2217 0.0445,-0.5733 -0.0174,-0.7714 -0.0016,-0.0128 -0.0042,-0.022 -0.0058,-0.0348 -0.0343,-0.0428 -0.0542,-0.0873 -0.1044,-0.116 -0.0909,-0.1592 -0.3411,-0.2484 -0.5104,-0.2842 -0.1508,-0.0318 -0.1821,-0.0506 -0.319,-0.1624 -0.066,-0.066 0.5099,-0.132 0.5684,-0.2494 0.0724,-0.1456 0.264,-0.4744 0.0638,-0.5742 -0.1802,-0.0897 -0.1114,-0.1006 -0.1334,-0.3074 -0.023,-0.2168 -0.0751,-0.4627 -0.174,-0.6612 -0.1402,-0.2815 -0.6394,-0.028 -0.5568,-0.3596 0.0526,-0.2116 0.0638,-0.4102 0.0638,-0.6322 0,-0.1487 -0.1388,-0.348 -0.3016,-0.348 -0.0345,0.1381 0.0522,0.263 0.0522,0.406 0,0.1351 -0.0522,0.2619 -0.0522,0.406 0,0.2207 -0.2038,0.6911 0.1102,0.7714 0.1535,0.0393 0.0317,0.3578 0.0406,0.4872 0.0083,0.1219 0.1273,0.1378 0.1392,0.1856 -0.1426,0 -0.4436,0.2342 -0.4814,0.3654 -0.0803,0.2788 -0.2823,0.2174 -0.4118,0.3944 -0.1032,0.1409 -0.0966,0.3267 -0.1624,0.4756 -0.1109,0.2512 -0.2304,0.0362 -0.406,-0.0174 -0.3757,-0.1149 -0.3753,-0.1925 -0.4756,-0.5336 -0.2046,-0.2046 -1.0627,-0.4215 -0.6264,-0.8178 0.4855,-0.4408 0.8529,-0.7985 1.0034,-1.4732 0.0993,-0.4451 0.2495,-0.5393 -0.1102,-0.899 -0.1436,-0.1436 0.1567,-0.2773 0.1218,-0.4698 -0.0135,-0.0747 -0.4506,-1.1483 -0.4956,-1.1483 0,0.2039 0.3042,1.1069 0.2172,1.2817 -0.1391,0.2793 0.0956,0.5232 -0.0812,0.7888 -0.1212,0.182 -0.0491,0.3709 -0.1856,0.5336 -0.162,0.1933 -0.5299,-0.0058 -0.6032,0.2436 -0.0711,0.2416 0.0537,0.8719 -0.319,0.7482 -0.122,-0.0404 -0.1471,0.2826 -0.2436,0.348 -0.0393,0.0294 -0.3057,0.2807 -0.2958,0.0928 0.0041,-0.0784 0.1603,-0.3469 0.116,-0.406 -0.1219,0 -0.6611,0.3564 -0.6032,0.1392 0.075,-0.2816 -0.0801,-0.3858 0.145,-0.638 0.1066,-0.1193 -0.2502,-0.1817 -0.3074,-0.2842 -0.1901,-0.3409 -0.1177,0.0748 -0.1102,0.2146l0.0464 0.8584c0.0058,0.1087 0.0364,0.5744 -0.0232,0.5684 -0.1958,-0.0197 -0.1339,-0.493 -0.2088,-0.493 -0.0048,0.0072 -0.0283,0.0144 -0.0406,0.0174 -0.0441,0.1765 -0.0496,0.2154 -0.1624,0.3596 -0.0867,0.111 -0.009,0.2303 -0.0638,0.3306 -0.0538,0.0982 -0.7008,0.2992 -0.7946,0.261 -0.0921,-0.0374 -0.0525,-0.4196 -0.058,-0.5046 -0.0141,-0.2183 -0.5221,-0.2314 -0.6728,-0.2262 -0.144,0.0049 -0.2854,0.0928 -0.4176,0.0928 -0.1993,-0.2657 0.4618,-0.5034 -0.1508,-0.7076 0,-0.0268 0.0069,-0.0343 0.0116,-0.058 0.0919,-0.0459 0.1214,-0.1528 0.1044,-0.2378 -0.1465,-0.0366 -0.1931,-0.3184 -0.2784,-0.435 -0.1725,-0.2355 -0.1133,-0.3473 -0.1856,-0.6206 -0.0751,-0.3258 -0.0242,-0.6892 -0.0928,-1.0266 -0.041,-0.2019 -0.1367,-0.6702 -0.2726,-0.8178 -0.0785,-0.0854 -0.2121,-0.1972 -0.1682,-0.3132 0.0811,-0.2145 0.2894,-0.1041 0.0232,-0.319 -0.0397,-0.0321 -0.0522,-0.2012 -0.0522,-0.2494 0.1004,-0.0251 0.1947,0.0006 0.29,-0.0232 0,-0.0585 -0.1599,-0.3111 -0.1972,-0.3828 -0.0876,-0.1688 -0.0839,-0.365 -0.1682,-0.5336l-0.0058 -0.986c-0.0012,-0.2046 -0.1536,-0.6685 -0.0928,-0.8178 0,0.0932 -0.41,0.3173 -0.4292,0.3944 -0.0278,0.0069 -0.1006,0.2074 -0.1218,0.2436 -0.0757,0.1286 -0.0299,0.3113 0.0348,0.4408 0.2246,0.4493 -0.4937,-0.0464 -0.522,-0.0464 0,0.1926 0.2204,0.4043 0.2204,0.6148 0,0.3107 -0.2342,0.441 -0.4118,0.667 -0.03,0.0075 -0.3422,0.2208 -0.3422,0.2494 0.279,0.0697 0.3758,0.3562 0.638,0.4234 0.176,0.0452 0.1687,0.6723 0.0406,0.8004 -0.0646,0.0646 -0.2558,0.3378 -0.2958,0.348 -0.2678,0.0685 -0.3193,0.1047 -0.5162,0.3016 0.0445,0.178 0.1755,0.2541 0.319,0.348 0.1627,0.1063 0.0508,0.3002 0.1682,0.4176 0.2712,0.2712 0.3824,0.4375 0.5452,0.8062 0.0732,0.1657 0.2414,0.4011 0.2726,0.5626 0.2418,0.403 0.0116,0.7594 0.0116,1.1774 0,0.3726 -0.4614,0.3119 -0.609,0.638 -0.0536,0.1186 -0.0831,0.6037 0,0.7076 0,0.1431 -0.215,0.1034 -0.319,0.1276 -0.1502,0.0351 -0.2374,0.0953 -0.3364,0.2146 -0.2825,0.3401 -0.1594,0.5351 -0.6496,0.5626 -0.1939,0.0109 -0.3479,0.1525 -0.522,0.203 -0.115,0.0287 -0.4838,0.4942 -0.522,0.609 -0.2549,0 -0.5963,-0.2609 -0.87,-0.3248 -0.3289,-0.0767 -0.7109,-0.1478 -1.0382,-0.0232 -0.1823,0.0693 -0.4432,0.2088 -0.6322,0.2088 -0.1102,0 -0.1888,-0.0876 -0.2958,-0.1044 -0.1237,-0.0195 -0.269,0.0312 -0.3828,-0.029 -0.0734,-0.0387 -0.0957,-0.2132 -0.1914,-0.2842 -0.0991,-0.0737 -0.3372,-0.0406 -0.464,-0.0406 -0.0915,-0.122 -0.0721,-0.3098 -0.2204,-0.464 -0.031,-0.1551 -0.3132,-0.3283 -0.3132,-0.4814 0,-0.2095 0.0367,-0.3425 -0.0058,-0.5568 -0.023,-0.1157 -0.1798,-0.2251 -0.1798,-0.3364 0,-0.058 0.144,-0.2377 0.1682,-0.3596 0.0645,-0.3249 0.0812,-0.6356 0.0812,-0.9744 0,-0.0967 0.0488,-0.3385 -0.087,-0.1508 -0.1985,0.2746 -0.0779,0.6503 -0.2958,0.9048 -0.1595,0.1864 -0.2228,0.0089 -0.464,-0.0232 -0.3493,-0.0464 -0.0957,0.2842 0.0986,0.2842l-0.464 0.2088c-0.2539,0.1143 -0.2095,0.3371 -0.3944,0.4292 -0.1091,0.0544 -0.2952,0.0099 -0.3306,0.1682 -0.0464,0.2078 0.0618,0.418 0.1624,0.5858 0.0258,0.0432 0.185,0.1318 0.174,0.145 -0.0524,0.0634 -0.2545,0.0919 -0.3364,0.1392 -0.0488,0.0283 -0.2501,0.1753 -0.2842,0.145 -0.0943,-0.0835 -0.0174,-0.2013 -0.1798,-0.2552 -0.1863,-0.0617 -0.1197,-0.2004 -0.2146,-0.348 -0.1918,-0.1918 -0.2706,-0.232 -0.5452,-0.232 -0.033,-0.1322 0.1066,-0.4653 0.116,-0.6322 0.0168,-0.3001 -0.0992,-0.4999 -0.2726,-0.7366 -0.0952,-0.1301 -0.268,-0.2529 -0.319,-0.3944 -0.0164,-0.0458 -0.0282,-0.4256 0,-0.435 0,-0.0782 0.0348,-0.148 0.0348,-0.2262 0,-0.0934 -0.0518,-0.1553 -0.058,-0.232 -0.0188,-0.2313 0.4524,-0.0358 0.4524,-0.2378 0,-0.1654 -0.1636,-0.3379 -0.2784,-0.435 -0.0749,-0.1498 -0.3101,-0.1069 -0.116,-0.29 0.1131,-0.1068 0.212,-0.2017 0.3016,-0.3364 0.1166,-0.1751 0.0116,-0.4653 0.0116,-0.6786 0,-0.157 0.2059,-0.1908 0.1508,-0.406 -0.0627,-0.2445 -0.1946,-0.3965 -0.2552,-0.6264 -0.0723,-0.2738 -0.3074,-0.6292 -0.3074,-0.9048 0,-0.19 0.1276,-0.329 0.1276,-0.4872 -0.0795,0.0198 -0.3332,0.3217 -0.4002,0.3944 -0.1215,0.1321 -0.2053,0.4872 -0.3712,0.4872 -0.127,0 -0.285,0.0136 -0.406,-0.0174 -0.0706,-0.018 0.0638,-0.2714 0.0638,-0.377 0,-0.2275 -0.1627,-0.3538 -0.1914,-0.5452 -0.0095,-0.0632 -0.1063,-0.2849 -0.0986,-0.2668 -0.015,-0.1356 -0.0554,-0.0741 0.0174,-0.2204 0.0582,-0.1168 0.0407,-0.2237 0.0232,-0.348 -0.0371,-0.2638 0.0203,-0.5288 -0.1392,-0.7598 -0.1189,-0.172 -0.0953,-0.1738 -0.0812,-0.377 0.0079,-0.1137 -0.2087,-0.3066 -0.2668,-0.4234 -0.0216,-0.0433 -0.0729,-0.2735 -0.0928,-0.2784 -0.0324,0.1296 -0.174,0.2018 -0.174,0.3248 0,0.1994 0.0901,0.3685 0.1392,0.5568 0.0336,0.1292 0.0526,0.2613 0.0754,0.3944 0,0.1795 0.1799,0.4264 0.2204,0.6206 0.0398,0.191 -0.0116,0.428 -0.0116,0.6322 0,0.4683 0.116,0.9205 0.116,1.392 0,0.2576 0.1534,0.2821 0.3712,0.3132 0.0051,0.0102 0.0357,0.0335 0.0464,0.0406 0.0401,0.2008 0.1401,0.4088 0.1798,0.6206 -0.0958,0.1198 -0.1849,0.2262 -0.3538,0.2262 -0.0936,0 -0.2621,-0.0259 -0.3422,0 -0.0625,0.0201 -0.151,0.7244 -0.1102,0.8178 0.0306,0.0698 0.2928,0.0178 0.3306,-0.0232 0.1749,-0.1902 0.0971,-0.4404 0.1508,-0.6554 0.1137,0 0.2154,-0.029 0.3248,-0.029 0.0871,0.3485 0.3289,0.843 0.1508,1.2006 -0.053,0.1063 -0.2146,0.1311 -0.2146,0.2784 0,0.2038 0.2446,0.0265 0.1334,0.3074 -0.0467,0.1182 0.0228,0.1504 0.0986,0.2262 0.1523,0.1523 0.4487,0.232 0.6612,0.232 -0.0351,0.1054 -0.0042,0.2561 -0.1624,0.1856 -0.11,-0.0491 -0.2532,-0.1358 -0.3712,-0.174 -0.1023,-0.033 -0.2312,-0.0692 -0.3248,-0.1218 -0.4441,-0.0555 -1.2398,0.2669 -1.3746,0.725 -0.0386,0.1315 0.0141,0.2091 -0.1044,0.2958 -0.2318,0.1698 -0.3548,0.269 -0.5104,0.5162 -0.1088,0.173 -0.3367,0.6476 -0.0348,0.7482 0,0.1345 -0.237,0.2978 -0.3074,0.4118 -0.0803,0.1303 -0.0676,0.4149 -0.0812,0.5742 0,0.3468 0.0053,0.6792 0.1218,1.0034 0.0903,0.2511 0.1798,0.4879 0.1798,0.7598 0,0.3689 -0.0078,1.305 -0.5162,1.305 -0.2399,0 -0.6401,-0.0121 -0.725,-0.29 -0.1174,-0.3844 -0.036,-0.7183 -0.4872,-0.9106 -0.0381,-0.0162 -0.3105,-0.0867 -0.2668,-0.145 0.1969,0 0.3976,0.058 0.5916,0.058l0.0058 -0.0058c0,-0.1018 -0.108,-0.3202 -0.1624,-0.4118 -0.1154,-0.433 -0.3118,-0.8674 -0.377,-1.3108 -0.0592,-0.4031 0.0216,-0.8489 -0.058,-1.247l-0.0116 0c-0.0355,0.142 -0.1856,0.2976 -0.1856,0.4466 0,0.1518 -0.0804,0.2561 -0.0928,0.4002 -0.0076,0.0895 -0.0022,0.1929 -0.029,0.2784 -0.0511,0.1632 -0.1714,0.2663 -0.2552,0.4002 -0.0938,0.15 -0.2089,0.3246 -0.319,0.4698 -0.1936,0.3388 -0.6575,0.0837 -0.7308,0.5974l-0.0232 0c-0.0684,-0.0912 -0.0316,-0.2893 -0.0986,-0.406 -0.0976,-0.1698 -0.2476,-0.1941 -0.4234,-0.261 -0.3619,-0.1377 -0.8636,0.0545 -1.1194,0.319 -0.0412,0.0427 -0.1209,0.2133 -0.1624,0.203l-0.0058 -0.0058c-0.0287,-0.1148 -0.3172,-0.7018 -0.406,-0.7018 -0.0377,0.3019 -0.3728,0.4718 -0.2088,0.7656 0.1059,0.1899 0.2053,0.6845 0.145,0.899 -0.031,0.1101 -0.306,0.0445 -0.4118,0.1682 -0.1307,0.1526 -0.1473,0.5378 -0.2842,0.638 -0.0975,0.0714 -0.2604,0.132 -0.377,0.1972 -0.0963,0.077 -0.2837,0.3248 -0.406,0.3248l-0.0116 -0.0116c-0.0206,0 -0.0523,-0.0187 -0.0638,-0.0348 -0.0209,-0.0026 -0.017,-0.0006 -0.029,-0.0174 -0.0209,-0.0026 -0.017,-0.0006 -0.029,-0.0174 -0.0964,-0.0137 -0.2061,-0.1393 -0.319,-0.1682 -0.2049,-0.0524 -0.3623,-0.0466 -0.5742,-0.0406 -0.2956,0.0085 -1.1217,0.0899 -1.3398,0.2958 -0.1083,0.1021 -0.4674,0.2585 -0.6206,0.2958 -0.3232,0.0788 -0.6347,0.1291 -0.9744,0.1566 -0.1361,0 -0.3347,0.0761 -0.4582,0.1276 -0.1279,0.0532 -0.1889,-0.0298 -0.3016,-0.0522 -0.3128,-0.0621 -0.5657,0.0221 -0.8642,0.0522 -0.1831,0.0185 -0.3937,0.1696 -0.5626,0.1624 -0.2484,-0.0106 -0.6425,-0.0279 -0.8642,-0.145 -0.3153,-0.1664 0.6543,0.0292 0.7018,0.0174 -0.0029,-0.0088 -0.0058,-0.008 -0.0058,-0.0232 -0.0357,-0.0119 -0.1188,-0.1649 -0.1566,-0.1972 -0.0861,-0.0738 -0.2011,-0.1383 -0.3016,-0.1914 -0.1947,-0.1027 -0.661,-0.1684 -0.3596,-0.4234 0.2443,-0.1425 0.5002,-0.2594 0.696,-0.4698 0.0693,-0.0746 0.3717,-0.4738 0.1566,-0.4408 -0.1665,0.0256 -0.3076,0.0838 -0.4524,0.1682 -0.2018,0.1175 -0.4503,0.3568 -0.696,0.3422 -0.1103,-0.0066 -0.2855,-0.5064 -0.3654,-0.6264 -0.21,-0.3155 -0.2916,-0.5573 -0.3422,-0.9222 -0.0764,-0.5498 -0.7067,-0.7447 -0.4582,-1.3978 0.1704,-0.4476 -0.3798,0.0636 -0.4814,0.1392 -0.1197,0.0889 -0.1634,-0.1392 -0.2668,-0.1392 0,0.1179 0.0521,0.1777 0.0754,0.2842 0.0766,0.2812 0.2967,0.3914 0.4582,0.5916 0.0891,0.1103 0.4466,0.3792 0.4466,0.4872 0,0.216 -0.0917,0.2417 0.029,0.4582 0.0985,0.1765 0.2515,0.2978 0.3654,0.4582 0.1572,0.2215 0.2436,0.4188 0.2436,0.7076 0,0.3626 0.0649,0.8532 -0.1682,1.1252 -0.1772,0.0177 -0.3647,-0.0491 -0.5278,-0.1218 -0.099,-0.0442 -0.1648,-0.3279 -0.2552,-0.4292 -0.0573,-0.1721 -0.3292,-0.4849 -0.4582,-0.6264 -0.1548,-0.17 -0.2101,-0.4398 -0.319,-0.638 -0.1621,-0.2948 -0.3944,-0.9343 -0.3944,-1.2702 0.1829,0 0.3965,0.2958 0.609,0.2958 -0.0229,-0.0689 -0.3232,-0.2989 -0.406,-0.3538 -0.1002,-0.0665 -0.1442,-0.1948 -0.2088,-0.2958 -0.1747,-0.2734 -0.4181,-0.8258 -0.4002,-1.1078 0.0124,-0.1998 0.0037,-0.3384 -0.087,-0.5104 -0.0797,-0.1509 0.01,-0.3496 0.0464,-0.4988 0.0739,-0.3033 0.2942,-0.7197 0.058,-1.015 0,-0.1131 0.0949,-0.2111 0.1682,-0.29l-0.712 -0.2143c0,0.6795 -0.2393,1.4464 -0.4306,2.0935 -0.1268,0.2536 -0.0966,0.6089 -0.1566,0.8874 -0.056,0.2603 -0.0956,0.5202 -0.1798,0.7714 -0.1412,0.421 -0.1642,0.9464 -0.2262,1.3804 -0.0781,0 -0.1476,-0.1031 -0.2204,-0.1334l-0.319 -0.1334c-0.2174,-0.0908 -0.0694,-0.4884 -0.203,-0.6554 -0.1554,0 -0.3016,0.0268 -0.3016,0.203 0,0.1892 -0.1508,0.3094 -0.1508,0.4756 0,0.1167 0.0998,0.1803 0.087,0.3306 0,0.5122 -0.1987,1.3727 0.5684,0.7366 0.3578,-0.2968 0.8218,-1.0338 1.2122,-0.493 0.2365,0.3277 0.3178,0.6755 0.4872,1.044 0.042,0.0916 0.2846,0.3538 0.0696,0.3538 -0.2336,0 -0.4855,-0.0931 -0.7192,-0.0638 -0.3894,0.0488 -0.3151,0.2216 -0.696,0.0464 -0.1117,-0.0514 -0.2928,0.0033 -0.406,0.029 -0.3415,0.0774 -0.4028,-0.2384 -0.6728,0.058 -0.2874,0.3153 -0.4622,0.7192 -0.5568,1.1368 -0.0793,0.3497 0.6082,0.169 0.8236,0.1276 0.4619,-0.0887 0.7011,0.1319 1.044,-0.3248 0.266,-0.3544 0.7399,0.3911 1.0556,0.0754 0.0735,-0.0735 0.3221,-0.4292 0.406,-0.4292 0.0379,0 0.0638,0.4406 0.0638,0.522 0,0.2577 0.2914,0.2085 0.3132,0.2958 0.0385,0.0096 0.0051,0.2542 0,0.2958 -0.0106,0.087 0.0141,0.1928 -0.0058,0.2726 -0.1875,0 -0.419,-0.16 -0.6264,-0.1856 -0.2242,-0.0276 -0.4896,-0.0013 -0.7134,0.0406 -0.3525,0 -0.7763,0.1414 -1.073,0.3306 -0.2321,0.1479 -0.5464,0.4932 -0.7946,0.5568 -0.561,0.1437 -0.9341,-0.3568 -1.5428,-0.087 -0.2851,0.1264 -0.5778,0.4498 -0.8468,0.5394 0,0.0093 -0.0036,0.0031 0.0058,0 0,-0.388 -0.1629,-0.8002 -0.4582,-1.0614 -0.124,-0.248 -0.3318,-0.4473 -0.3828,-0.7308 -0.0463,-0.2568 -0.4089,-0.7041 -0.3944,-0.899 0.001,-0.014 0.405,0.1376 0.4988,0.1566 0.2911,0.0592 0.31,0.1914 0.3538,0.4872 0.0181,0.1221 0.2107,1.0092 0.348,1.0092 0.078,-0.234 0.0959,-0.735 0.1044,-1.0034 0.0073,-0.2281 -0.0591,-0.7797 -0.1218,-0.9976 -0.0412,-0.143 -0.4529,0.1911 -0.5916,0.1218 -0.1493,-0.0746 -0.0656,-0.5077 -0.0928,-0.6438 -0.0679,0.0169 -0.1502,0.3706 -0.1798,0.4582 -0.0577,0.1712 -0.1312,0.2121 -0.2668,0.2958 -0.2538,0.1566 -0.6385,-0.0855 -0.8584,0.1102 -0.2622,0.2335 -0.253,0.0956 -0.4698,-0.058 -0.1012,-0.0716 -0.2657,-0.1058 -0.3886,-0.1102 -0.361,-0.0129 -0.7141,-0.192 -0.9164,0.1218 -0.1281,0.1989 -0.2941,0.4137 -0.4524,0.5858 -0.1126,0.05 -0.3738,0.091 -0.4872,0.0406 -0.1252,0 -0.1992,-0.0927 -0.3016,-0.1392 -0.3992,-0.499 -1.4123,-0.667 -2.0068,-0.667 -0.7201,0 -1.2655,0.1624 -1.856,0.5684 -0.3217,0.1608 -0.6333,0.4715 -0.7482,0.812 -0.0797,0.2365 -0.4182,0.2646 -0.5742,0.0696 -0.0036,-0.0291 -0.0195,-0.0568 -0.0232,-0.087 -0.0071,-0.0047 -0.0056,-0.0073 -0.0116,-0.0174l-0.0116 -0.0058 -0.0232 0c-0.1227,0.1227 -0.0734,0.1856 -0.29,0.1856 -0.2073,0 -0.363,-0.0107 -0.5626,-0.058 -0.4825,-0.1143 -0.8031,-0.2785 -1.2992,-0.0232 -0.2483,0.1277 -0.5984,0.3776 -0.8642,0.4292 -0.4637,0.3477 -1.1892,0.8773 -1.2934,1.5022 -0.0211,0.1268 0.0477,0.2668 -0.1044,0.2668 -0.173,0 -0.271,0.0353 -0.3828,-0.087 -0.3207,-0.3512 -0.6731,-0.0754 -1.0266,-0.0754 0,-0.3846 0.6455,-0.2872 0.8352,-0.5974 0.2302,-0.3766 -0.7052,0.1834 -0.7714,0.174l-0.3828 -1.5776c-0.0694,-0.2858 -0.2782,0.0188 -0.4698,0.0928 -0.2943,0.1136 -0.6159,0.1373 -0.9222,0.1856 -0.1319,0.0164 -0.0725,0.1896 -0.2204,0.2204 -0.1361,0.0284 -0.2524,-0.0759 -0.3886,0 -0.3182,0.1776 -0.5096,0.5146 -0.9048,0.58 -0.0738,0.0122 -0.1529,-0.0486 -0.232,-0.029 -0.1943,0.0484 0.2456,0.5297 0.319,0.5858 0.116,0.0885 0.2531,0.1039 0.3654,0.1798 0.0576,0.039 0.1881,0.269 0.1972,0.2668 0.0473,-0.2365 0.3097,-0.5272 0.4814,-0.6902 0.181,-0.172 0.3866,-0.5278 0.6786,-0.5278 0,0.0745 -0.1979,0.272 -0.2552,0.3248 -0.1291,0.1187 -0.2269,0.2436 -0.3364,0.3828 -0.1855,0.2355 -0.4211,0.3867 -0.261,0.7076 0.126,0.2528 0.1289,0.3106 0.0928,0.609 -0.0537,0.0537 -0.0303,0.1881 -0.087,0.2668 -0.0563,0.078 -0.1754,0.0794 -0.2668,0.0928 -0.1933,0.0283 -0.4399,0.0713 -0.5684,0.232l-0.0174 0c-0.5992,-0.799 -1.3123,-1.4936 -2.0764,-2.1402 -0.2558,-0.2274 -0.4508,-0.523 -0.725,-0.7192 -0.189,-0.1351 -0.6074,-0.4208 -0.7424,-0.5858 -0.238,-0.0793 -0.4127,-0.288 -0.6902,-0.3364 -0.2653,-0.0462 -0.6077,-0.0054 -0.87,0.0406 -0.5497,0.0963 -1.0983,0.3828 -1.6588,0.3828 -0.2142,-0.0142 -0.3679,-0.2726 -0.6264,-0.2726 -0.2113,0 -0.3823,0.145 -0.551,0.145l-0.0174 -0.0058c-0.5473,-0.4378 -1.6819,-0.445 -2.3084,-0.1508 -0.2034,0.0954 -0.3103,0.2781 -0.4872,0.3886 -0.0792,0.1743 -0.8801,0.2485 -1.044,0.2204 -0.3201,-0.04 -0.9121,0.4056 -1.1368,0.319 -0.3641,-0.1402 -0.5565,-0.0406 -0.9338,-0.0406 -0.2221,0 -0.248,-0.1739 -0.3654,-0.3364 -0.1394,-0.1927 -0.353,-0.4964 -0.4234,-0.7076 -0.1582,0 -0.3899,0.3847 -0.4814,0.5046 -0.0698,0.0913 -0.2371,0.7276 -0.3654,0.3886 -0.0696,-0.1841 -0.0056,-0.1961 -0.2378,-0.145 -0.2151,0.0474 -0.4412,0.018 -0.3886,0.3074 -0.0532,0.1332 -0.1964,0.1187 -0.203,0.2378 -0.0056,0.1005 0.0116,0.2436 -0.1218,0.2436 -0.0445,0.178 0.1102,0.2833 0.1102,0.493 0,0.2631 0.0427,0.5832 -0.0174,0.8236 -0.0097,0.0024 -0.0149,0.0039 -0.0174,0.0116 -0.0411,0 -0.0982,-0.0376 -0.1044,-0.0812 -0.0894,-0.0255 -0.2624,-0.2492 -0.348,-0.319l-0.4118 -0.3364c-0.1367,0.2279 -0.0388,0.7274 -0.1334,1.015 -0.0564,0.1712 -0.5005,0.9892 -0.609,0.928 -0.0526,-0.0296 -0.068,-0.1125 -0.1276,-0.0696 -0.184,0.1327 -0.1419,0.3841 -0.3886,0.5162 -0.1122,-0.2244 -0.1632,-0.2293 -0.2262,-0.4814 -0.2165,-0.0541 -0.6803,0.3033 -0.8294,0.4524 -0.2966,0.2966 -0.6029,0.1117 -0.957,0.0232 -0.0596,-0.2387 0.6043,-0.3098 0.4582,-0.5046 -0.2546,0 -0.5081,0.0135 -0.7656,-0.0232 -0.0026,-0.0106 -0.001,-0.009 -0.0116,-0.0116 -0.1145,-0.5727 1.5665,-0.9814 1.2644,-1.624 -0.0394,-0.0838 -0.271,-0.4915 -0.3596,-0.4524 -0.4862,0.2147 -0.8914,0.5078 -1.4094,0.6728 -0.2425,0.0773 -0.2417,0.0449 -0.1334,-0.1798 0.1018,-0.2115 0.3794,-0.3001 0.4524,-0.493 0.0581,-0.1538 -0.0922,-0.5634 -0.3132,-0.464 -0.2402,0.1081 -0.5216,0.638 -0.7656,0.638 -0.0271,-0.0542 -0.0181,-0.1326 -0.0464,-0.1798 -0.1927,0 -0.172,0.3218 -0.3654,0.3132 -0.2079,-0.0093 -0.2242,0.0859 -0.377,0.2204 -0.0341,0.0243 -0.6762,1.1018 -0.551,0.3596 0.0771,-0.4571 -0.3654,-0.1479 -0.3654,-0.4176 0,-0.1635 0.139,-0.3283 0.1972,-0.4814 0.1499,-0.3938 -0.1759,-0.1372 -0.3306,-0.3306 -0.2667,0 -0.6475,0.3392 -0.9106,0.4408 -0.5537,0.2138 -0.3759,0.156 -0.4582,-0.3538 -0.0351,-0.2179 -0.155,-0.2365 -0.232,-0.4002 -0.1465,-0.3118 -0.0643,-0.3809 -0.3306,-0.6322 -0.5019,-0.4734 -0.1742,0.1778 -0.6148,0.3132 -0.1769,0.0544 -0.3223,-0.2813 -0.4524,-0.1914 -0.2126,0.1471 -0.2548,0.3712 -0.5452,0.3712 -0.18,0 -0.3693,-0.1603 -0.5452,0.0058 -0.1032,0.0973 -0.1373,0.3975 -0.29,0.2668 -0.1293,-0.1105 -0.1984,-0.1739 -0.3596,-0.2494 -0.2266,-0.106 -0.4578,0.0158 -0.6844,-0.0174 -0.0616,-0.009 -0.1239,-0.0763 -0.1856,-0.0638 -0.1167,0.0238 -0.2059,0.1229 -0.2842,0.2088 -0.0903,0.0992 -0.5017,0.8178 -0.551,0.8178l-0.0058 -0.0058c-0.0018,-0.0074 -0.004,-0.01 -0.0058,-0.0174 -0.0321,-0.016 -0.0841,-0.1095 -0.1102,-0.1392 -0.1527,-0.2749 -0.5725,0.0211 -0.7192,0.145 -0.2277,0.1925 -0.12,0.2378 -0.406,0.2378 -0.6355,0 -0.5575,0.754 -0.8584,1.073 -0.3238,0.3431 -0.515,0.1412 -0.8874,0.2668 -0.1075,0.0363 -0.2913,0.1577 -0.3886,0.1334 -0.0623,-0.2495 0.1955,-0.5399 0.0522,-0.7656 -0.1792,-0.2825 -0.4558,-0.2157 -0.6786,-0.3828 0.0187,-0.0748 0.2608,-0.2319 0.3306,-0.3248 0.1153,-0.1537 0.2685,-0.2173 0.3886,-0.3654 0.2677,-0.3298 0.5213,0.6398 0.6902,0.5162 0.2106,-0.1543 0.2435,-0.5064 0.3944,-0.7076 0.0947,-0.1261 0.0306,-0.1114 -0.116,-0.1392 -0.1306,-0.0248 -0.1573,-0.1127 -0.1856,-0.2262 -0.0837,-0.0418 -0.3821,0.2051 -0.5684,0.174 -0.3612,-0.0602 -0.154,-0.2514 -0.5278,0.1044 -0.1726,0.1644 -0.2194,-0.0744 -0.3944,-0.0406 -0.2374,-0.0863 -0.3284,-0.2712 -0.4524,-0.4582 -0.0759,-0.1143 -0.2209,0.4028 -0.261,0.4988 -0.0302,0.0726 -0.1798,0.1841 -0.1798,0.2436 0,0.1572 0.1708,0.1452 0.0812,0.348 -0.0536,0.1215 -0.0317,0.4759 -0.0754,0.5162 -0.0934,0.0859 -0.1979,0.0739 -0.2146,0.2262 -0.0207,0.1898 0.001,0.3422 -0.1218,0.5046 -0.0386,0.051 -0.3253,0.3944 -0.3654,0.3944 -0.0285,-0.0856 -0.0006,-0.3016 -0.0522,-0.3654 -0.0709,-0.0874 -0.2105,-0.1131 -0.2436,-0.2204 -0.0668,-0.2169 -0.1941,-0.5251 0,-0.7192 0.034,-0.034 -0.2146,-0.1773 -0.2146,-0.348 0,-0.3301 -0.3658,-0.1331 -0.4408,0.0464 -0.1611,0.386 -0.7482,-0.3507 -0.7482,0.5742 0,0.4356 -0.3317,0.1483 -0.5452,0.261 -0.1001,0.0529 0.0778,0.2984 0.145,0.3248 0.1029,0.0406 0.272,-0.0058 0.3886,-0.0058 0,0.2169 -0.5784,0.5148 -0.754,0.5684 -0.2589,0.0792 -0.4133,0.1822 -0.6496,0.3712 -0.1667,-0.0384 -0.4665,0.0034 -0.6496,0.0116l-0.6496 0.029c-0.2541,0.0113 -0.9219,0.1226 -1.0788,0.3422l-0.0174 0.0116 -0.0174 0 -0.0116 -0.0058c-0.1541,-0.1541 -0.2155,-0.2958 -0.4814,-0.2958 -0.2401,0 -0.532,0.0259 -0.7308,0.1682 -0.0658,0.047 -0.2217,0.188 -0.2958,0.1972l-0.0174 0.0116 -0.0232 0 -0.0116 -0.0058c-0.0083,-0.0083 -0.0147,-0.0124 -0.0174,-0.0232 -0.1014,-0.1014 -0.1159,-0.2726 -0.2552,-0.3422 -0.0303,-0.0425 -0.0957,-0.0879 -0.1392,-0.116l-0.493 -0.2958c-0.0969,-0.058 -0.2484,-0.0338 -0.3306,-0.116 -0.0493,-0.3453 0.0294,-0.5808 0.174,-0.87 0.2643,-0.1321 0.3098,-0.3236 0.638,-0.4002 0.3054,-0.0712 0.5046,-0.2213 0.5046,-0.5568 0,-0.5169 -0.4514,-1.1803 -0.8642,-1.4732 -0.1673,-0.1487 -0.4118,-0.256 -0.5974,-0.3886 -0.0181,-0.0908 0.0066,-0.1098 0.0174,-0.1856 0.0593,-0.0593 0.0946,-0.1556 0.1392,-0.2262 0.0532,-0.0844 0.1023,-0.1135 0.1334,-0.2146 0.059,-0.1921 -0.0243,-0.5334 -0.087,-0.7192 -0.0469,-0.1393 -0.1196,-0.2748 -0.1624,-0.4118 -0.0231,-0.1853 -0.237,-0.2398 -0.1334,-0.4408 0.0955,-0.1855 0.0928,-0.3131 0.0928,-0.5278 0,-0.4047 -0.2648,-0.9061 -0.0754,-1.2586 0.169,-0.3144 0.2153,-0.4336 0.5336,-0.58 0.2894,-0.1332 0.8142,-0.2929 0.9048,-0.6554 -0.083,-0.0622 -0.6238,0.2146 -0.7714,0.2146 -0.2562,0 -0.4367,-0.4582 -0.5916,-0.4582 -0.0446,0.1785 0.1626,0.8239 0.0116,0.9222 -0.2468,0.1608 -0.6122,0.1282 -0.899,0.1798 -0.5969,0.1076 -1.0682,1.2358 -1.3572,1.7226 -0.1669,0.2671 -0.3208,0.7493 -0.5916,0.9338 -0.4098,0.279 -0.344,-0.1744 -0.6264,-0.1798l-0.5974 -0.0116c0,0.1914 0.0984,0.46 0.203,0.6206 0.1511,0.2317 0.0603,0.3642 0.0928,0.609 0.0233,0.1751 0.1623,0.2598 0.2552,0.3886 0.0387,0.0538 -0.0119,0.0917 0.0058,0.145 0.0506,0.1528 0.3232,0.2777 0.4176,0.4408 0.2098,0.362 0.5603,-0.0928 0.7772,-0.0928 0.0965,0.3861 -0.7786,1.1552 -1.0614,1.3572 -0.5757,0.3985 -1.0914,0.5623 -1.7748,0.7134 -0.4621,0.1022 -0.8416,0.2948 -1.1368,0.6322 -0.0018,0.0207 -0.0092,0.0325 -0.0116,0.0522 -0.0085,0.0068 -0.0133,0.0091 -0.0174,0.0174 -0.1214,0.052 -0.204,-0.1341 -0.3828,-0.029 -0.1733,0.102 -0.2577,0.3299 -0.3132,0.5104 -0.1643,0.5333 -0.4074,0.5667 -0.8294,0.87 -0.388,0.388 -0.027,1.3914 -0.7308,1.653 -0.4959,0.1842 -0.8753,-0.3132 -1.363,-0.3132 -0.1139,0.1139 -0.0541,0.3439 -0.1102,0.4872l-0.2204 0.5626c-0.1478,0.3772 -0.3828,0.6406 -0.3828,1.073l-0.0116 0.0174 -0.0116 0.0058c-0.4041,0 -0.7653,-0.1143 -1.1542,0.0754 -0.7801,0.7801 -0.6308,3.1653 -2.204,2.9406 -0.0086,-0.0086 -0.0108,-0.0144 -0.0174,-0.0232 0,-0.552 -0.177,-0.5855 -0.7308,-0.5394 -0.5163,0.0429 -0.8918,0.2243 -1.3108,0.4988 -0.1133,0.1558 -0.1752,0.3238 -0.2204,0.5046 -0.0744,0 -0.355,-0.616 -0.4234,-0.7192 -0.0795,-0.1202 -0.6629,-0.6602 -0.6496,-0.7134 0.2967,-0.1187 0.5275,-0.1641 0.6322,-0.5046 0.0436,-0.1416 0.3912,-0.7342 0.348,-0.8062 -0.2269,0 -0.6403,0.28 -0.725,0.4872 -0.1089,0.2661 -0.0965,0.7685 -0.3886,0.493 -0.1127,-0.1064 -0.3144,-0.1111 -0.4698,-0.1508 -0.1022,-0.0262 0.2768,0.2563 0.3886,0.2842l0 0.0174c-0.7524,0.1881 -1.5698,0.9668 -1.8908,1.6646 -0.0526,0.1143 -0.1436,0.6113 -0.2088,0.6496 -0.1561,0.0919 -0.611,0.0128 -0.8048,0.0021 -0.0058,0.0175 -1.0438,0.5899 -1.2285,0.7605 -0.3404,0.3142 -0.6797,0.6869 -0.9126,1.0881 -0.3626,0.6244 -0.9169,1.2161 -1.0881,1.9071 -0.0909,-0.0225 -0.0466,-0.1756 -0.117,-0.1989 -0.087,0.2627 -1.404,0.7913 -1.404,0.2457 0.2071,-0.0686 0.3418,0.2107 0.5499,0.0819 0.161,-0.0997 0.4132,-0.1803 0.5148,-0.3393 0.1582,-0.2478 0.5083,-1.2051 0,-1.2636 -0.3092,-0.0355 -0.6567,-0.4274 -0.8541,-0.3393 -0.2876,0.1282 -0.5607,0.5098 -0.8073,0.7137 -0.075,0.0619 -0.5967,0.5322 -0.5967,0.2925 0,-0.5876 -0.3947,-1.421 0.3276,-1.5561 1.1545,-0.2161 0.9352,-1.1134 0.8822,-2.0861 -0.0453,0.0903 -0.1182,0.1831 -0.2266,0.2915 -0.2979,0.2979 -0.4878,0.6929 -0.7888,0.9628 -0.2096,0.262 0.0327,0.4647 -0.0812,0.6612 -0.1363,0.2354 -0.348,0.1098 -0.348,0.3654 0,0.2284 -0.0759,0.3444 -0.145,0.5452 -0.0557,0.1617 -0.1846,0.4115 -0.1624,0.5858 0.021,0.1642 0.1811,0.5488 0.1044,0.6786 -0.0628,0.1062 -0.2751,0.1973 -0.2262,0.3364 0.0288,0.0818 0.2498,0.3076 0.3422,0.3306 0.1962,0.0488 0.2933,-0.2146 0.435,-0.2146 0.0595,0.139 -0.116,0.2245 -0.116,0.3364 0.1173,0.1173 0.4917,-0.0622 0.609,-0.1044 0.141,-0.0508 0.4012,0.2843 0.493,0.3886l0.3633 0.2922c0.3614,0.3614 -0.267,1.2587 -0.1638,1.7784 0.1409,0.0467 0.3088,0.2613 0.5382,0.3159 0.1314,0.0312 0.5759,-0.0795 0.585,0 0.0161,0.1415 -0.0395,0.2755 -0.0585,0.4095 -0.0654,0.0162 -0.0458,0.1792 -0.0702,0.1872 0,0.32 -0.5429,-0.1755 -0.6903,-0.1755 -0.2637,0 -0.5948,0.4869 -0.8541,0.2574 -0.2229,-0.1972 -0.3543,-0.0847 -0.585,0.0819 -0.3874,0.2796 -0.6221,0.3347 -1.053,0.468 -0.3287,0.1017 -1.2843,-0.1064 -1.5902,-0.2858 -0.3925,-0.2616 -0.8145,-0.3863 -1.2354,-0.5858l-1.3456 -0.638c-0.3388,-0.1606 -0.6351,-0.1461 -0.9976,-0.203 -0.3843,-0.0604 -0.0724,-0.4566 0.0232,-0.7308 0.022,-0.063 0.1388,-0.5046 0.1914,-0.5046 0.2043,0.6131 0.9649,1.3483 1.5776,1.566 0.2518,0.0895 2.0488,0.9002 2.175,0.5684 0.0581,-0.1527 0.2472,-0.5697 0.0406,-0.5626 -0.5221,0.0179 0.0187,-0.7274 0.0058,-1.0034 -0.0071,-0.1509 -0.7564,0.1315 -0.8932,0.1914 -0.5312,0.233 -0.2956,0.9358 -1.0324,0.5046 -0.1888,-0.1105 -0.3589,-0.1037 -0.5162,-0.261 -0.2995,-0.2995 -0.44,-0.545 -0.8816,-0.6554 0,-0.1665 0.5452,-0.2482 0.5452,-0.5568 -0.2927,-0.0731 -0.5332,0.1198 -0.406,-0.2958 0.0627,-0.2046 0.4036,-0.5722 0.3538,-0.7714 -0.119,0.0297 -0.2372,0.3036 -0.3538,0.377 -0.1788,0.1124 -0.1302,-0.0913 -0.2204,-0.0812 -0.0433,0.0049 -0.0522,0.2016 -0.0522,0.2378 0,0.376 0.225,0.7354 -0.2668,0.609 -0.3321,-0.2906 -0.8129,-0.4163 -1.1484,-0.725 -0.2182,-0.2009 0.3576,-1.5588 -0.1392,-0.87 -0.0939,0.1301 -0.1937,0.3445 -0.3016,0.4524 -0.1751,-0.0437 -0.7019,-0.8352 -0.7308,-0.8352 -0.1147,0.459 0.0345,0.7682 0.3074,1.1078 0.1265,0.1573 0.878,0.7638 0.7366,0.8816 -0.1663,0.1387 -0.5513,0.1113 -0.7598,0.2262 -0.329,0.1815 -0.1064,0.6615 -0.3364,0.7946 -0.0507,0.0294 -0.3658,0.1102 -0.3944,0.058 -0.163,-0.2981 -1.1909,-0.0193 -1.45,0.1102 -0.2798,0.1076 -0.5728,0.4279 -0.8004,0.6264 -0.1983,0.1728 -0.3436,0.4003 -0.5394,0.5742 -0.332,0.2951 -0.3306,0.6367 -0.3306,1.0498 0,0.1384 -0.1125,0.6438 -0.2842,0.6438l-0.0116 -0.0116 -0.0058 -0.0116c-0.0325,-0.228 -0.0204,-0.4336 0.1279,-0.6275l0.0117 -0.0117c0,-0.0224 -0.0071,-0.0289 0.0117,-0.0351 0,-0.0237 -0.0063,-0.0175 0.0117,-0.0234 0,-0.0118 -0.0078,-0.039 0,-0.0468l0.0117 -0.0117 0 -0.0351 0.0117 -0.117 0 -0.234c0,-0.0674 -0.0085,-0.0811 -0.0234,-0.1755 -0.0429,-0.1149 -0.0116,-0.2749 -0.0351,-0.3978 -0.0132,-0.0688 0.0196,-0.2621 0.0585,-0.3159 0.0329,-0.0457 0.0821,-0.1377 0.1404,-0.1521 0.0125,-0.0505 0.3317,-0.2063 0.3978,-0.234 0.0252,-0.0252 0.0208,-0.0394 0.0585,-0.0468 0.0069,-0.0278 0.0435,-0.0552 0.0585,-0.0702 0.03,-0.03 0.0702,-0.0832 0.0936,-0.117 0.0683,-0.099 0.1411,-0.1946 0.2106,-0.2925 0.0553,-0.0778 0.1003,-0.1431 0.1521,-0.2223 0.0763,-0.1164 0.1385,-0.2252 0.2223,-0.351 0.0397,-0.0794 0.1053,-0.1355 0.1053,-0.2223 -0.2199,0.0728 -0.5395,0.5211 -0.6786,0.7137 -0.0818,0.1134 -0.5905,0.6273 -0.6552,0.4329 -0.0548,-0.1645 -0.0343,-0.491 -0.234,-0.1287 -0.1593,0.2888 -0.5157,0.6078 0,0.4095 0.0943,-0.0363 0.0189,0.2082 0.0117,0.234 -0.0577,0.2079 -0.1636,0.1331 -0.3042,0.1872 -0.1292,0.0496 -0.0203,0.2784 -0.3159,0.3393 -0.2594,0.0535 -0.0468,0.3039 -0.0468,0.4212 0,0.294 -0.2619,0.4339 -0.4095,0.6552 -0.2104,0.3157 -0.3375,0.236 -0.6435,0.2106 -0.1904,-0.0157 -0.6038,-0.0909 -0.3627,-0.3042 0.1935,-0.1713 0.3861,-0.1213 0.3861,-0.4563 0,-0.1058 -0.1624,-0.8357 -0.2223,-0.8775 -0.1243,-0.0865 -0.4212,0.149 -0.4212,-0.1404 0,-0.1792 0.0772,-0.4502 0.0351,-0.6201 -0.0892,0.0892 -0.2594,0.1577 -0.3042,0.2925 -0.0641,0.1924 0.0749,0.1685 0.1755,0.2574 0.1212,0.1073 -0.16,0.3128 0.1521,0.4329 0.1668,0.0641 0.1521,0.0238 0.1521,0.2808 0,0.1557 -0.0131,0.4121 -0.0936,0.5382 -0.202,0.3161 -0.0491,0.3877 0.1053,0.6786 -0.3101,0.1028 -0.8539,1.5899 -0.936,1.9188 -0.0147,0.0588 -0.11,0.5345 -0.1404,0.5265 -0.8035,-0.2141 -1.7284,0.8656 -2.2113,1.404 -0.6305,0.7032 -0.4815,-0.2106 -0.936,-0.2106 -0.2721,0 -0.5704,-0.0702 -0.819,-0.0702 -0.1437,-0.4336 -0.3393,-0.8113 -0.8541,-0.9477 -0.0865,-0.0229 -0.5674,-0.0108 -0.585,-0.0819 0.3782,-0.1253 0.1665,-0.3744 0.6903,-0.3744 0,-0.1441 -0.4312,-0.0922 -0.1521,-0.3393 0.0983,-0.0869 0.2366,-0.3042 0.3627,-0.3042 0.0685,-0.2068 0.5265,-0.0082 0.5265,-0.6318 -0.3406,0 -0.5808,0.6373 -0.9009,0.7605 -0.265,0.1019 -0.3194,0.4808 -0.5967,0.7137 -0.0192,0 -0.0782,0.0121 -0.0819,0.0234 -0.0237,0 -0.0175,-0.0063 -0.0234,0.0117 -0.023,0 -0.0268,0.0068 -0.0468,0.0117 -0.0963,0.3888 -0.4723,0.1943 -0.7839,0.2808 -0.4975,0.1382 -0.2848,0.5482 -0.3159,0.9243 -0.0068,0.0827 -0.5291,0.2519 -0.6552,0.351l-0.819 0.6435c-0.0204,-0.0826 -0.1404,-0.1637 -0.1404,-0.2574l-0.0117 -0.0117c-0.5629,-0.1395 -2.2127,0.3981 -2.3634,1.0062 -0.0371,0 -0.0584,-0.0047 -0.0936,-0.0117 -0.084,-0.3391 -0.6784,-0.117 -0.8541,-0.117 -0.0804,-0.2428 -0.3228,-0.4387 -0.6084,-0.351 -0.3474,0.1068 -0.0377,-0.2546 0,-0.4446 0.327,-0.081 1.0179,-0.5622 1.0179,-0.9594l-0.0117 -0.0117c-0.2096,0 -0.3712,0.2457 -0.4914,0.2457 -0.0415,-0.1674 -0.0148,-0.486 -0.2223,-0.1287 -0.1467,0.2528 -0.2737,0.3194 -0.3978,0.4914 -0.0948,0.1312 -0.4271,0.9176 -0.1638,0.9828 0.032,0.1293 -0.1635,0.2112 -0.0936,0.4212 0.0773,0.232 -0.2549,0.2633 -0.4095,0.3042 -0.2055,0.2747 -0.4212,0.4631 -0.4212,0.8307 0,0.4053 -0.2395,-0.0486 -0.4095,-0.1989 -0.1845,-0.1633 -0.0865,-0.2275 -0.1638,-0.351 -0.0116,-0.0187 -0.6691,-0.0002 -0.819,-0.0117 -0.3156,-0.0241 -0.529,-0.4446 -0.7371,-0.4446 -0.036,0 -0.2077,0.0225 -0.2106,0 -0.0197,-0.1528 0.0962,-0.5182 0.1521,-0.6552 0.0865,-0.2122 0.1638,-0.5602 0.1638,-0.7956 -0.2838,0.2838 -0.2585,0.8881 -0.6786,0.468 -0.0657,0.1983 -0.4534,0.8092 -0.6201,0.9243 -0.4132,0.2852 0.187,0.398 0.0702,0.6318 -0.1416,0.2832 1.2256,1.1739 1.3338,0.8424 0.0038,-0.0119 0.1287,-0.5724 0.1287,-0.2925 0,0.2279 -0.0641,0.4072 0.0468,0.6084 0.1102,0.1997 -0.1219,0.1885 -0.234,0.3276 -0.2415,0.3 -0.4542,-0.0735 -0.7254,-0.1287 -0.1227,-0.025 -0.6236,0.0163 -0.6435,-0.0702 -0.0447,-0.1945 -0.4541,-0.7632 0.0117,-0.351 0.1096,0.0969 0.2655,0.0063 0.351,0.0702 0,-0.2638 -0.4696,-0.5813 -0.6903,-0.3861 -0.184,0.1629 0.0257,0.5884 0.2106,0.702 0.0697,0.0429 -0.3289,0.3761 -0.4212,0.4914 -0.3637,0.4547 0.0893,-0.651 -0.1989,-0.5031 -0.6456,0.3312 -0.0263,0.5235 -0.2808,0.9009l-0.3393 0.5031c-0.1404,0.2082 -0.0877,0.6496 -0.1755,0.7488 -0.1351,0.1528 -0.3061,0.2131 -0.4563,0.3393 -0.0364,0.009 -0.0246,0.0357 -0.0468,0.0468 -0.0212,0.0106 -0.0659,-0.0045 -0.0819,-0.0117 -0.0379,-0.0169 -0.0561,-0.0694 -0.0819,-0.1053 -0.0108,-0.0149 -0.0548,-0.0625 -0.0702,-0.0702 -0.0441,-0.0219 -0.0936,-0.0048 -0.1404,-0.0468 -0.0278,-0.0249 -0.0702,-0.0799 -0.0702,-0.117 -0.0705,-0.0471 -0.0468,-0.3278 -0.0468,-0.4095 -0.0789,-0.059 -0.1911,0.0647 -0.234,-0.0468 -0.0288,-0.0751 -0.0117,-0.2526 -0.0117,-0.3393 0,-0.079 0.1674,-0.5099 0.0819,-0.5382 0,-0.1831 -0.3281,-0.1409 -0.4212,-0.234 -0.0274,-0.0274 0.0351,-0.362 0.0351,-0.4329 -0.1164,-0.0385 -0.1999,-0.3866 -0.2691,-0.4095l0 -0.0234c-0.0228,-0.0075 -0.0006,-0.0042 -0.0234,-0.0117 -0.0262,0.1059 -0.1038,0.2449 -0.1404,0.351 -0.042,0.122 -0.1412,0.1084 -0.2457,0.0936 -0.2202,-0.0314 -0.3573,-0.4329 -0.5499,-0.4329 0,0.1403 0.2953,0.759 0.4212,0.8073 0.0367,0.0141 0.1009,-0.0395 0.1404,0 0.0976,0.0976 -0.0206,0.4252 -0.0936,0.5148 0.1037,0.0343 -0.1216,0.3227 -0.117,0.3627 0.0084,0.0738 0.1225,0.2273 0.1755,0.2691 0.258,0.2031 -0.1419,0.4697 -0.234,0.6435 -0.1369,0.258 0.1694,0.1203 0.2106,0.0117 0.0324,-0.0851 0.2138,-0.5132 0.3276,-0.4563 0.3661,0.1829 -0.0049,0.486 -0.0702,0.6318 -0.06,0.1338 -0.0689,0.2486 -0.0585,0.4095 0.0139,0.2162 0.3016,1.3181 0.1053,1.2636 -0.4777,-0.1326 -0.5145,0.1132 -0.6669,-0.3744 -0.0866,-0.2768 -0.3516,-0.5259 -0.585,-0.2925 -0.6342,0.6342 -0.1626,-0.2969 -0.5265,0.3627 -0.0736,0.1336 -0.2329,0.3548 -0.1989,0.5031 0.0437,0.19 0.0931,0.3042 -0.0117,0.5031 -0.2439,0.4624 -0.6674,0.9659 -0.8541,0.1755 -0.139,-0.5881 -0.0549,-0.3576 -0.2223,0.0819 -0.0472,0.1242 -0.1853,0.7249 -0.2574,0.7488 0.2637,0 0.1872,0.5038 0.1872,0.7488 0,0.2617 -0.6136,-0.2911 -0.6318,-0.0351 -0.02,0.2827 -0.2563,0.2084 -0.3393,0.0234 -0.0691,-0.1543 -0.3834,-0.1149 -0.5031,-0.2223 -0.4254,-0.3813 -0.0824,-0.1399 -0.4095,0.1872 -0.1119,0.1119 -0.468,-0.2292 -0.468,-0.0819 0,0.3856 -0.0814,0.4111 -0.4095,0.5382 -0.4915,0.1903 -0.3056,0.3201 -0.3744,0.6786 -0.0324,0.1685 -0.5318,-0.2335 -0.234,-0.468 0.0385,-0.0304 -0.5116,-0.3459 -0.2691,-0.4797 0.4427,-0.2441 0.9959,-0.0354 0.3276,-0.5499 -0.1608,-0.1237 0.437,-0.4122 0.0117,-0.234 -0.1755,0.0736 -0.6987,0.4813 -0.7371,0.2808 -0.0096,-0.0502 -0.0568,-0.3577 -0.117,-0.3276 -0.0734,0.0367 -0.1571,0.3631 -0.2808,0.468 -0.4912,0.4162 0.1635,0.2277 0.2925,0.4212 0.0597,0.0896 -0.2555,0.6901 -0.2808,0.702 -0.1454,0.0681 -0.3243,0.0351 -0.4914,0.0351 -0.1373,0 -0.0142,0.2925 0.1755,0.2925 0.6576,0 0.0122,0.4243 -0.1872,0.5382 -0.0328,0.1326 -0.1451,0.2781 -0.1989,0.4095 -0.0673,0.1642 -0.0871,0.3501 -0.1287,0.5265 -0.0217,0.0919 0.0475,1.091 -0.2925,0.702 -0.1474,-0.1685 -0.1287,-0.1964 -0.1287,-0.4212 0,-0.1404 -0.2112,-0.3611 -0.2691,-0.4914 -0.1139,-0.2566 -0.2925,-0.558 -0.2925,-0.8541 -0.2155,0 -0.18,0.2983 -0.3276,0.3276 -0.0062,0.025 -0.0548,0.0651 -0.0702,0.0702 0,0.1653 0.0778,0.2277 -0.0234,0.4095 -0.0463,0.083 -0.1395,0.1723 -0.2106,0.0702 -0.1009,-0.1447 -0.3107,-0.1683 -0.2223,-0.3861 0.0231,-0.0568 0.0005,-0.269 -0.0351,-0.2808 0,-0.0629 -0.044,-0.119 -0.0819,-0.1404 -0.1304,-0.0736 -0.1662,-0.0372 -0.234,-0.1989 0,-0.1563 -0.1351,-0.2751 -0.2574,-0.3744 -0.195,-0.1585 -0.055,-0.2078 0.1053,-0.2574 0.104,-0.0321 0.1224,-0.0373 0.1872,-0.117 0.126,-0.1551 0.2131,0.0974 0.2925,0.117 -0.0452,-0.0604 -0.0622,-0.2043 -0.0936,-0.2808 -0.0427,-0.1044 -0.1447,-0.1894 -0.2106,-0.2808 -0.1412,-0.1955 -0.5241,-0.2936 -0.7488,-0.3627 -0.1902,-0.0584 -0.3996,-0.1693 -0.5148,-0.3393 -0.0257,-0.038 -0.2005,-0.2106 -0.2457,-0.2106 -0.0517,0 0.1348,0.2495 0.1638,0.2808 0.0785,0.0844 0.1287,0.2538 0.1287,0.3627 0,0.1347 -0.0514,0.299 -0.0234,0.4329 0.0465,0.2225 0.1534,0.4351 0.3393,0.5733 0.1603,0.1191 0.2512,0.1286 0.4329,0.1521 0.0112,0.0014 0.0234,0.213 0.0234,0.2457 0,0.0797 -0.1382,0.1097 -0.2223,0.1638 -0.3503,0.0868 -0.1456,0.9659 -0.5382,0.5733 -0.2314,-0.2314 -0.5601,0.6283 -0.5967,0.7605 -0.0397,0.143 -0.1901,-0.3042 -0.3627,-0.3042 -0.2719,0 -1.128,0.0104 -1.2987,0.2223 -0.5344,0.6638 0.5747,0.9664 0.4914,1.3338l-0.2574 1.1349c-0.0991,0.437 -0.2109,0.5873 -0.6435,0.6318 -0.425,0.0438 -0.6474,0.7326 -0.702,0.2574 -0.0502,-0.4363 0.2639,-2.79 -0.5616,-2.223 -0.3827,0.2629 -0.0943,-0.3132 -0.5616,-0.1521 -0.2713,0.0936 -0.4614,-0.5172 -0.5733,-0.6669 -0.0644,0.26 0.0424,0.6253 0.1053,0.8775 0.0919,0.3678 0.3012,0.7687 -0.2223,0.7839 -0.2887,0.2887 0.1517,0.6084 -0.351,0.6084 -0.0561,-0.2265 -0.3174,-0.9631 -0.5382,-0.3276 -0.0604,0.1737 -0.1857,0.0234 -0.2808,0.0234 0,0.2573 0.1553,0.3818 -0.0585,0.6201 -0.1338,0.1493 -0.1997,0.5464 -0.2925,0.6201 -0.322,0.2554 -0.6853,-0.2691 -0.7839,0.3744 -0.0428,0.2792 -0.3263,0.1584 -0.4095,0.4914 -0.09,0.3606 -0.3811,0.9575 -0.3627,1.2987 0.0133,0.2454 0.1436,0.411 -0.1872,0.4329 -0.286,0.019 -0.5667,-0.0423 -0.8424,0.0234 -0.3315,0.0789 -0.6683,0.276 -0.7839,-0.0936 -0.0865,-0.2769 -0.1167,-0.562 0.0117,-0.819 0.0915,-0.183 -0.146,-0.327 -0.1053,-0.4914 0.5141,0.1704 0.4697,0.5439 0.8658,0.8658 0.513,0.417 0.6492,-0.371 0.8307,-0.6552 0.0761,-0.119 0.3941,-0.6041 0.4212,-0.7137 -0.1481,0 -0.3239,-0.0199 -0.4797,-0.0585 0,-0.175 0.2296,-0.2164 0.3276,-0.3042 0.0763,-0.0685 0.0596,-0.2025 0.0819,-0.2925 0.3998,0 0.0428,-0.1932 -0.0585,-0.4212 -0.1509,-0.3399 0.2364,-0.2981 -0.2808,-0.4212 -0.2006,-0.0478 -0.1963,-0.1635 -0.2691,-0.3276 -0.0492,-0.1107 -0.1441,0.3435 -0.2691,0.3744 0,0.4221 -0.585,0.5783 -0.585,0.7371 -0.0234,0.0058 -0.2143,0.4323 -0.2691,0.5265 -0.1694,0.2915 -0.1862,-0.1699 -0.3042,-0.117 -0.0904,0.0404 -0.2047,0.1421 -0.2925,0.1638 0,0.1408 0.0218,0.2157 -0.0117,0.351 -0.1508,0 -0.1606,-0.2338 -0.3627,-0.2106 -0.3114,0.0357 -0.1662,0.4057 -0.4797,0.0351 0.0227,-0.2063 0.0725,-0.2869 0.1287,-0.4329 0.0453,-0.118 -0.2106,-0.2099 -0.2106,-0.3042 0,-0.203 0.5811,-0.2878 0.6435,-0.5499 0.1,-0.4202 -0.0961,-0.2015 -0.3042,-0.117 -0.319,0.1297 -0.0981,-0.2637 -0.0936,-0.4797l0.0234 -1.0881c0.0047,-0.2252 0.0936,-0.4207 0.0936,-0.6318 -0.1309,0.0434 -0.2917,0.7601 -0.3042,0.936 -0.0135,0.191 -0.2609,0.2578 -0.4095,0.3042 0,-0.0201 -0.1741,0.1127 -0.1989,0.1872 -0.0288,0.0867 0,0.1873 0,0.2808 0,0.2313 -0.0702,0.4427 -0.0702,0.6552 0,0.1183 0.1103,0.2482 0.1053,0.2925 -0.015,0.1305 -0.2597,0.1778 -0.351,0.234 -0.2229,0.137 -0.0751,0.4129 -0.3159,0.5733 -0.084,0.056 -0.1857,-0.0234 -0.2808,-0.0234 -0.0469,0.1415 -0.4941,0.5203 -0.6435,0.5499 -0.0192,0.0775 -0.3276,0.2978 -0.3276,0.0468 -0.0185,-0.0061 -0.0234,-0.0228 -0.0234,-0.0468 -0.0123,-0.0041 -0.042,-0.0321 -0.0468,-0.0468l-0.0234 0c0,-0.0224 0.0071,-0.0289 -0.0117,-0.0351 0,-0.1232 0.0688,-0.2031 0.1287,-0.3042l0.1404 -0.4446c0.0103,-0.115 0.0468,-0.2038 0.0468,-0.3159 -0.3943,0.1306 -0.2371,0.5121 -0.3627,0.8892 -0.2107,0.6321 -0.4329,0.0085 -0.4329,-0.2691 -0.1379,0 -0.2609,0.267 -0.3042,0.3978 -0.112,-0.0277 -0.1884,-0.691 -0.1989,-0.819 -0.0127,-0.1536 -0.5703,-0.449 -0.4212,-0.2106 0.0699,0.1117 0.2157,0.3848 0.3627,0.4212 0,0.1665 -0.276,0.1404 -0.4095,0.1404 0,0.0991 0.4914,0.2832 0.4914,0.4329 0,0.1958 -0.0562,0.4033 -0.0468,0.6084 0.0122,0.2683 -0.2462,1.4051 -0.585,0.936 -0.1831,-0.2537 -0.066,-0.4095 -0.4212,-0.4095 -0.176,0 -0.1471,0.2045 -0.2457,0.3159 -0.181,0.2046 -0.8073,-0.3358 -0.8073,-0.6318 0,-0.1005 -0.0619,-0.4545 -0.1638,-0.4797 -0.0592,0.2391 -0.2171,0.466 -0.2691,0.702 -0.0301,0.1371 0.1836,0.7839 0.0117,0.7839 -0.0076,0.0309 -0.201,0.0765 -0.2457,0.0936 -0.0998,0.0384 -0.1253,0.069 -0.2223,0.1287 -0.1901,0.1168 -0.276,0.5796 -0.4098,0.7762 -0.1479,0.1902 -0.204,0.5214 -0.3364,0.7424 -0.0454,0.0757 -0.352,0.5378 -0.435,0.4466 -0.0419,-0.0459 -0.1168,-0.3672 -0.1218,-0.435 -0.004,-0.0532 -0.0143,-0.0834 -0.0284,-0.0969l0 0 -0.0644 -0.8021c-0.0503,-0.3144 -0.0433,-0.6273 -0.0433,-0.9471 0,-0.1325 0.0134,-0.2537 0.0468,-0.3744 0.0249,-0.0897 0.0702,-0.2526 0.0702,-0.3393 0.0528,-0.066 0.0396,-0.19 0.0936,-0.2574 0,-0.0412 0.0094,-0.0733 0.0351,-0.1053 0,-0.0552 0.1408,-0.3748 0.1755,-0.4212l0.1638 -0.3861 -8.9388 -14.4858 30.2056 -18.4082 -8.5396 -13.3843 0.3641 -2.7828 7.5125 -121.636 0 0 8.5142 -0.0665 41.3372 1.6186 33.2451 0.6657 -0.51 6.4302 4.9528 -0.8032c0.4068,-0.2103 0.9284,0.0447 1.2753,-0.1287 0.0438,-0.2209 -0.1651,-0.5892 -0.0936,-0.7488 0.1056,-0.2355 0.8964,-0.3438 0.6201,-0.6201 -0.5733,-0.5733 0.278,-0.5572 0.1755,-0.9711 -0.1009,-0.025 -0.3219,-0.1322 -0.3393,-0.2457 -0.0358,-0.2342 -0.1874,-0.117 -0.3627,-0.117 -0.0056,-0.0169 -0.0041,-0.009 -0.0234,-0.0234 0,-0.1484 0.9742,-0.5591 1.1466,-0.6903 0.251,-0.1912 0.3299,-0.6419 0.5148,-0.8892 0.095,-0.1141 0.117,-0.1305 0.117,-0.2574 -0.056,-0.0138 -0.1185,-0.0205 -0.1755,-0.0351 -0.1168,-0.0298 -0.2071,-0.0986 -0.3276,-0.117 -0.0615,-0.0094 -0.1177,-0.0341 -0.1404,-0.0936 -0.0444,-0.1168 -0.0507,-0.2589 -0.0585,-0.3861l0.3159 -0.3744 7.2072 -0.117 7.0785 0.9009 3.8493 0.1521 0.1404 0.9477 3.0303 0.0702 1.1232 -0.8892c0.7941,0 1.4602,-0.2102 2.223,-0.3627 0.3966,-0.0792 0.795,-0.1287 1.2051,-0.1287 0.3594,0 0.6296,-0.0645 0.9594,-0.1053 0.1188,-0.0952 0.4401,-0.1287 0.5967,-0.1872l48.8497 0.7848 4.9467 0.2655 3.1358 0.2133 0.1872 -0.0117 11.4113 0.0822 0.4291 0.1167 1.8369 0 0.7722 0.0234 6.5169 0.2574 12.1164 0.0583 0 2.5979 0 0 0.7491 30.9864 0.7065 23.6442 -0.0011 6.4375 -1.2508 36.1586c0.1432,1.01 -0.9311,0.4517 -1.3806,0.1521 -0.7748,-0.5166 -1.0037,-0.4544 -1.7433,0.1521 -0.3651,0.2995 -0.5834,0.3979 -0.9711,0.5967 -0.4194,0.2152 -1.0424,-0.022 -1.2402,0.351 -0.4304,0.8113 0.3045,1.5168 0.0351,2.1177 -0.2356,0.5257 0.1065,0.7071 0.1638,1.1115 0.0235,0.0058 0.0528,0.0469 0.0585,0.0702 0.15,0.0371 0.3549,0.2032 0.5265,0.2457 0.0052,0.0213 0.0182,0.0255 0.0234,0.0468 0.2126,0.0527 0.1638,0.8457 0.1638,1.0413 0,0.574 0.507,0.4618 0.1287,1.0062 -0.1975,0.2841 0.0542,0.4769 0.1521,0.7605 0.1288,0.3735 -0.4028,0.7083 -0.5873,0.9571l-0.0638 0.8004 0 0z"/>
 </g>
</svg>
