<?xml version="1.0" encoding="UTF-8"?>
<!DOCTYPE svg PUBLIC "-//W3C//DTD SVG 1.1//EN" "http://www.w3.org/Graphics/SVG/1.1/DTD/svg11.dtd">
<!-- Creator: CorelDRAW -->
<svg xmlns="http://www.w3.org/2000/svg" xml:space="preserve" width="210mm" height="297mm" style="shape-rendering:geometricPrecision; text-rendering:geometricPrecision; image-rendering:optimizeQuality; fill-rule:evenodd; clip-rule:evenodd"
viewBox="0 0 210 297"
 xmlns:xlink="http://www.w3.org/1999/xlink">
 <defs>
  <style type="text/css">
   <![CDATA[
    .str2 {stroke:#2F3133;stroke-width:0.1}
    .str1 {stroke:black;stroke-width:0.1;stroke-opacity:0.501961}
    .str0 {stroke:black;stroke-width:0.1}
    .str3 {stroke:black;stroke-width:0.5}
    .fil5 {fill:none}
    .fil0 {fill:white}
    .fil2 {fill:#1F1A17;fill-rule:nonzero}
    .fil3 {fill:#C2C1C1;fill-rule:nonzero}
    .fil4 {fill:white;fill-rule:nonzero}
    .fil6 {fill:black;fill-rule:nonzero}
    .fil1 {fill:white;fill-rule:nonzero;fill-opacity:0.501961}
   ]]>
  </style>
 </defs>
 <g id="Plan_x0020_1">
  <metadata id="CorelCorpID_0Corel-Layer"/>
  <path class="fil0 str0" d="M87.278 70.0395c-0.0233,-0.0161 -0.045,-0.0315 -0.0711,-0.0427 -0.0362,-0.1455 -0.3906,-0.3635 -0.4979,-0.4989 -0.0718,-0.0905 -0.3938,-0.4418 -0.4978,-0.4418 -0.0425,0.0713 0.0989,0.5809 0.1138,0.6984 0.0324,0.2547 0.0235,0.4755 0.0854,0.7269 0.092,0.3741 0.3764,0.4641 0.5831,0.7554 0.2354,0.3316 0.6051,0.6223 1.0383,0.5558 0.8039,-0.1233 0.0134,-1.0694 -0.256,-1.3397l-0.4978 -0.4134zm1.8893 -6.7457l-0.1897 0.9806c0.0855,0.4167 0.0112,0.9493 0.0498,1.3896 0.0183,0.2099 0.0629,0.4001 0.1138,0.5986 0.0425,0.1655 0.1565,0.2887 0.1565,0.4703 0.1104,0.1388 0.1635,0.5046 0.1991,0.6842 0.047,0.2369 0.1997,0.7017 0.1997,0.9493l0 0c-0.4947,-0.2127 -1.1369,-0.1292 -1.3945,-0.4932 -0.3213,-0.4542 -0.346,-0.9506 -0.4836,-1.4966 -0.1457,-0.5777 -0.6258,-1.3944 -0.6258,-1.9383 0.4444,-0.2949 1.0592,-0.449 1.5219,-0.7839 0.1578,-0.1141 0.3077,-0.2353 0.4528,-0.3606l0 0zm-32.1 -16.5145l0.0787 12.7435 0.9372 17.8636 0.3976 5.5096 0.994 11.4452 0.2272 8.52 1.1122 15.4664 9.6606 155.251 17.7124 0.9036 66.711 0.6656 0 0c-0.1206,-0.3731 -0.3799,-0.7199 -0.1883,-1.0685 0.0598,-0.1089 0.4299,0.0403 0.6258,-0.1996 0.1514,-0.1855 0.2834,-0.5701 0.5405,-0.5701 0.1301,0.5222 0.6732,1.1456 0.896,1.6676 0.2149,0.2067 0.2237,0.0855 0.4694,0.0855 0.0209,0.0237 0.0334,0.0637 0.04,0.1144l0 0 0.9131 -0.0004 0 0c0.0733,-0.3345 0.1156,-0.6772 0.071,-0.9691 -0.0573,-0.3745 0.0689,-0.8623 -0.128,-1.1973 -0.0853,-0.145 -0.4692,0.1264 -0.6828,0.0998 -0.1897,-0.2667 -0.1774,-0.5672 -0.2986,-0.8694 -0.1511,-0.377 -0.396,-0.7488 -0.6116,-1.0832 -0.1993,-0.3093 -0.699,-0.7639 -0.7681,-1.1117 -0.1585,-0.2089 -0.2502,-0.185 -0.4694,-0.2708 -0.4153,-0.1624 -0.354,-0.2326 -0.0995,-0.3991 0.2257,-0.1476 0.4753,-0.7554 0.6543,-0.7554 0.0985,0.3954 1.4422,1.4253 1.849,1.4253 0.0493,-0.1979 -0.0712,-0.5121 -0.0712,-0.7554 0,-1.0093 1.0668,-1.2676 1.0668,-2.1949 -0.1884,0 -0.4454,0.1809 -0.5689,-0.0285 -0.2425,-0.4108 -0.1714,-0.7839 -0.7397,-0.7839 -0.4859,0 -0.8407,-0.1766 -1.2516,-0.3135 0,-0.107 0.5209,-0.4211 0.6258,-0.5701 0.095,-0.1351 0.51,-0.7137 0.7112,-0.6129 0.1799,0.0902 0.2724,0.353 0.4267,0.4988 0.3607,0.3406 0.9377,-0.296 1.2232,0.2423 0.3311,0.6241 0.2433,1.8953 0.256,2.6083l0.0569 3.1925c-0.0863,0.298 0.0995,0.6967 0.0995,1.0262 0,0.4727 -0.2362,2.0798 -0.8107,2.2234 -0.0063,0.019 -0.0187,0.0226 -0.0426,0.0285l-0.0143 0.0143c-0.0066,0.0266 -0.0218,0.0446 -0.0284,0.0712 -0.0665,0.0221 -0.1689,0.2475 -0.2616,0.492l0 0 1.9864 -0.0001 0 0c0.0441,-0.7078 0.178,-1.6625 -0.0038,-2.3304 0.1666,-2.0096 -0.1001,-4.183 -0.1707,-6.1999 -0.0158,-0.4508 0.0785,-1.2886 -0.0569,-1.6961 0,-0.291 -0.0711,-0.5699 -0.0711,-0.8551 -0.0443,-0.1334 -0.026,-0.2743 -0.0142,-0.4133 -0.0899,-1.0845 -0.1043,-2.1697 -0.2276,-3.2496l-0.3271 -2.8648c-0.0528,-0.4621 0.0507,-1.4077 -0.0996,-1.8101 0,-0.1217 0.0041,-0.2336 0.0142,-0.3563 -0.0236,-0.1665 -0.0471,-0.3544 -0.0569,-0.5273 -0.0024,-0.0441 -0.0319,-0.3196 -0.0568,-0.3279 0,-0.112 -0.0054,-0.1275 -0.0427,-0.2565 0,-0.5351 -0.1398,-1.1231 -0.1849,-1.6676 -0.046,-0.5541 -0.0358,-1.224 0.0142,-1.7815 0.0943,-1.0511 -0.0853,-2.0788 -0.0853,-3.1213 0,-0.0444 0.0043,-0.3312 -0.0285,-0.3421l0 -0.0285c-0.3767,0 -0.7779,0.2565 -1.1947,0.2565 -0.3604,0 -0.9647,-0.1604 -1.2801,-0.0712 -0.3266,0.0923 0.1221,0.742 0.2702,0.8836 0.1501,0.1434 0.8881,0.7557 0.8961,0.9265 0.0313,0.6606 -0.3196,1.2207 0.384,1.582 0.6629,0.3403 0.153,1.5409 -0.4693,1.6818 -1.1002,0.7329 -0.0525,-1.423 -0.4836,-1.5108 -0.1959,-0.0399 -0.3156,-0.3055 -0.4694,-0.2423 -0.3389,0.1395 -0.346,0.5225 -0.4694,0.7982 -0.2482,0.554 -0.7609,0.3913 -1.1663,0.6413 -0.4695,0.2897 -1.3083,1.0385 -1.4792,1.5536 -0.1551,-0.4676 -0.3696,-0.6701 -0.0995,-1.2115 0.2532,-0.5077 -1.1609,-0.3771 -1.3797,-0.4846 -0.359,-0.1763 0.314,-0.5237 0.4552,-0.5701 0.3197,-0.105 -0.3034,-0.8932 -0.4978,-1.1402 -0.5335,-0.6776 -2.1884,-0.1849 -2.9585,-0.4418 -1.4098,-0.4702 -1.3807,1.1687 -2.873,1.0404 -0.4809,0.1205 -0.8305,0.5676 -0.9957,1.0262 -0.1761,0.4891 -0.5859,0.2287 -0.9813,0.4418 -0.3312,0.1786 -0.5835,0.4184 -0.953,0.5559 -0.4962,0.1848 -0.8012,0.2865 -1.1094,0.7554 -0.5991,0.9112 -0.7384,0.2993 -1.4792,0.2993 -0.2135,0 -0.4524,0.2108 -0.6116,0.171 0,-0.649 0.7063,-0.7737 1.1947,-0.9692 0.2579,-0.1033 0.5963,-1.2628 0.5121,-1.4537 -0.048,-0.1091 -0.8006,-0.8586 -0.9103,-0.9265 -0.5312,-0.3293 -1.0721,0.8948 -1.8348,0.5559 -0.3416,-0.1518 -0.4917,-0.5426 -0.7965,-0.6841 -0.3872,-0.1796 -0.8216,0.1268 -1.2232,-0.0143 -0.153,-0.0538 -0.3748,-0.2708 -0.512,-0.2708 0.0048,-0.0144 1.2642,-0.2878 1.5219,-0.4846 0.9086,-0.6941 0.5087,-0.6481 1.5361,-0.0142 0.3425,0.2114 0.7955,-0.0657 1.1947,0.0142 0.7114,0.1423 1.1032,-0.2324 1.7637,-0.285 0.9404,-0.0748 0.9309,-0.9895 1.7636,-1.1117 0.4272,-0.0626 0.9777,-0.2694 1.0952,-0.7412l-0.0284 -0.9834c0.6737,0 1.0546,0.3215 1.8205,0.0713l1.9628 -0.6414c0.5962,-0.1948 1.3023,-0.1576 1.8633,-0.4418 0.8344,-0.4226 1.0574,-0.2708 1.9059,-0.2708 0.6556,0 1.3219,-0.7298 1.5645,-1.3113 0.3964,-0.9497 -0.9041,-1.1342 -1.5219,-1.6818 -0.4882,-0.4326 -1.197,-0.1715 -1.7921,-0.114 -1.139,0.11 -1.3276,0.0516 -2.233,-0.6128 -0.4001,-0.2935 -0.8632,-0.446 -1.2943,-0.6984 -0.8142,-0.4769 -1.0099,-0.7986 -1.0099,-1.7388 0.415,0 1.3936,1.0572 1.8348,1.3112 1.1067,0.6369 1.0964,-0.1001 0.6827,-0.9834 -0.2432,-0.5192 0.3102,-0.5732 0.2276,-1.0975 -0.4098,-0.74 -0.5671,-1.6654 -0.512,-2.4514 0.0746,-1.0629 -0.7459,-1.8794 -1.3086,-2.708 -0.1833,-0.2698 -1.28,-1.3642 -1.28,-1.5678 0.6518,0 1.445,0.2188 1.9912,0.5559 0.713,0.4399 0.9553,1.0556 1.9201,1.0119 0.7558,-0.0343 0.3498,-0.9025 0.4409,-1.2685l0.0285 0c0.084,0.1686 0.9852,0.6741 1.1805,0.7126 0.6613,0.1302 0.5492,-0.0564 0.953,-0.4133 0.1956,-0.1728 1.7755,1.3035 2.0196,0.5986 0.1711,-0.494 -0.1737,-1.488 0.4694,-1.2399 0.9283,0.3583 1.0059,-0.0647 1.2516,1.1687 0.2438,0.6494 0.2692,1.6815 0.3272,2.3801 0.1468,0.2109 0.2596,1.2554 0.2702,1.5393 0.0251,0.6663 -0.0783,1.0621 -0.3413,1.6533 -0.538,1.2096 -0.3556,1.9814 -0.3556,3.2639 -0.0475,0.5719 0.0798,0.8946 0.2702,1.411 0.164,0.4451 0,0.7946 0,1.2399 0,0.3114 0.056,0.5305 -0.0569,0.8409 -0.703,0.505 -1.2407,-0.2417 -1.9059,0.0428 -0.1993,0.3502 -0.0946,1.0281 0.2845,1.24 0.4013,0.2242 0.8033,0.3225 1.2801,0.3563 0.737,0.0523 1.6962,-0.163 2.3746,0.0919 -0.0892,-0.2387 -0.0847,-0.5785 -0.0847,-0.8473 -0.1666,-0.2778 -0.1375,-1.0938 -0.1849,-1.4395 -0.0821,-0.5991 -0.128,-1.2439 -0.128,-1.8528 0,-1.047 -0.0979,-2.1442 0,-3.1926 0,-1.2298 -0.1081,-2.5435 -0.3271,-3.7484 -0.2274,-1.2517 -0.5832,-2.5466 -0.5832,-3.834 0,-0.789 -0.2418,-1.5706 -0.2418,-2.3374 -0.016,-0.0428 -0.0142,-0.0517 -0.0142,-0.0998 -0.0252,-0.0676 -0.0324,-0.1944 -0.0427,-0.2565 -0.056,-0.9001 -0.3388,-1.8736 -0.4693,-2.7793l-0.3841 -2.6652c-0.2021,-1.4024 -0.3982,-3.0296 -0.3982,-4.4326 -0.0242,-0.0607 -0.0399,-0.1221 -0.0569,-0.1852 -0.1188,-1.9095 -0.5556,-4.7415 -1.2232,-6.542 -0.0659,-0.178 -0.7087,-1.3255 -0.9245,-1.0262 -0.2736,0.3797 0.1609,1.2249 0.4836,1.4395 0,2.3816 -3.6955,3.4448 -5.6466,2.9218 -2.5598,-0.6863 -4.9344,-2.2956 -7.0547,-3.8482 -0.8763,-0.7817 -1.1213,-1.7206 -1.849,-2.5227l-2.1335 -2.3517c-1.3684,-1.5083 -3.2756,-2.9901 -4.1247,-4.8601 -0.217,-0.155 -0.3548,-0.5179 -0.4693,-0.7554 -0.3136,-0.5887 -0.8996,-0.9454 -1.3086,-1.4537 -0.402,-0.4998 -0.9212,-1.0385 -1.3938,-1.4681 -0.9183,-0.8347 -1.6473,-2.0989 -2.4606,-3.05 -0.4378,-0.5121 -0.998,-1.145 -1.2801,-1.7673 -0.172,-0.1409 -0.3104,-0.4369 -0.4409,-0.6271 -0.3522,-0.6054 -1.1048,-1.2502 -1.5646,-1.8244 -0.4005,-0.5003 -0.8757,-1.1634 -1.0525,-1.7815 -0.3285,-1.1486 -0.3503,-2.0838 0.3983,-3.0216 0,-0.4082 -0.139,-0.7314 -0.1423,-1.1544l-0.0142 -1.7959c0,-3.7192 -2.269,-6.4469 -3.4562,-9.7202 -0.0784,-0.0562 -0.193,-0.2874 -0.256,-0.3706 -0.8226,-1.4123 -2.2792,-2.4137 -3.442,-3.5346 -1.075,-1.0361 -2.1159,-1.7681 -3.3567,-2.5512 -0.5424,-0.3422 -1.2232,-0.9085 -1.2232,-1.6106 0,-0.4396 -0.2559,-0.5766 -0.3556,-0.9264 -0.2781,-0.1594 -0.3414,-0.9481 -0.384,-1.24 0.1593,-0.4795 0.0996,-1.451 0.1565,-1.9953 0.0601,-0.575 0.128,-1.1421 0.128,-1.7246 0,-0.8181 -0.0455,-2.3039 -0.4552,-3.0073 -0.0507,-0.6116 -0.3407,-1.3139 -0.4409,-1.9384 -0.093,-0.5793 -0.0711,-1.3038 -0.0711,-1.8955 0.2067,-0.6222 -0.5623,-2.3696 -0.7396,-3.0643 -0.0406,-0.159 -0.042,-1.2784 0.0569,-1.3113 0,-0.4905 0.1517,-1.1982 0.2418,-1.696 0.0714,-0.394 -0.059,-1.3811 0.3413,-1.6106 0.0107,-0.0428 0.0713,-0.0573 0.0854,-0.114 0.0713,-0.0409 0.1156,-0.1083 0.1707,-0.171 0.3005,-0.5176 0.4876,-1.1375 0.7822,-1.6676 0.2075,-0.3732 0.3313,-0.8411 0.4978,-1.24 0.3071,-0.7353 0.0848,-2.0011 0.0143,-2.7792l-0.0996 -0.1425c0.0424,-0.5972 0.3284,-1.2062 -0.2276,-1.5108 -0.1714,-0.0938 -0.8624,-1.0976 -0.8249,-1.24 0.2711,-1.029 0.9073,-3.3295 -0.4836,-3.6772 0,-0.2748 0.2457,-0.6033 0.3271,-0.8694 0.1006,-0.3284 0.128,-0.7318 0.128,-1.0832 0,-0.8727 -0.0486,-1.3369 -0.5689,-2.0238 -1.8922,-1.8967 -3.7407,-3.9643 -3.7407,-6.7415 0,-0.4012 0.0301,-1.6174 -0.1991,-1.9241 -0.5613,-0.1403 -2.0081,-0.3356 -2.0339,-1.1402 -0.3291,-0.6605 -0.8411,-1.2618 -1.4792,-1.6248 -0.4834,-0.2749 -1.0775,-0.3647 -1.5219,-0.6984 -0.7135,-0.5359 -1.3805,-1.5392 -2.4179,-1.5392l-0.0142 0.0142c0,0.5164 0.1704,1.1763 0.384,1.6533 0.311,0.6941 0.2335,0.869 -0.4267,1.0832 -0.3678,0.1194 -1.1994,-2.4699 -0.9245,-2.9645 0.2806,-0.5046 1.0799,-1.3429 0.9245,-1.9669 -1.3848,-0.3462 -3.024,-1.515 -3.2002,-3.1071 0,-0.4161 -0.1293,-0.7775 -0.1849,-1.1687l-0.0427 -0.057c-0.0118,-0.0592 -0.0753,-0.1266 -0.128,-0.1568 -0.0488,-0.0856 -0.2562,-0.2221 -0.3414,-0.2708 -1.1371,-1.9939 -1.2257,-4.5043 -2.8161,-6.3424 -0.4937,-0.5707 -1.4532,-1.4718 -1.7353,-2.1378 -0.059,-0.2969 -1.4926,-1.1945 -1.7921,-1.4538 -0.4457,-0.3861 -0.8249,-1.0168 -0.8249,-1.6105 -0.7263,-0.7315 -1.8086,-1.1706 -2.3611,-2.1237 -0.6857,-1.1826 -0.4944,-3.1691 -0.3698,-4.5038 0.1633,-0.9244 0.3583,-2.4891 0.9388,-3.2496 0.5673,-0.743 1.4284,-1.9248 1.5076,-2.879 0.2486,-0.32 0.3327,-1.4717 0.4409,-1.9098 0.1331,-0.5393 0.2512,-1.2672 0.1992,-1.8244 0,-1.6247 0.4409,-3.1816 0.4409,-4.7461l-0.0285 -0.0285 0 -0.0428c-0.4951,-0.4951 -1.1919,-0.8584 -1.6783,-1.3682l-2.1619 -2.2662c-0.4241,-0.4444 -1.0475,-0.9768 -1.3512,-1.4965 -0.3239,-0.2309 -0.6955,-0.5582 -0.8392,-0.9549 -0.5945,-0.512 -0.5974,-1.8498 -0.5974,-2.5512 0,-0.9716 0.1372,-1.9307 0.6828,-2.7508 0.35,-0.5259 0.7978,-1.0238 1.1094,-1.582 0.367,-0.6572 1.075,-1.3268 1.3227,-1.9954 1.1285,-1.3908 2.4777,-1.3088 3.8687,-2.1806 0.1885,-0.3027 0.6469,-0.7136 0.8961,-1.0119 0.2702,-0.3236 0.4147,-0.9021 0.7396,-1.1688 0.3727,-0.822 1.0733,-1.5302 1.5503,-2.2946 0.375,-0.6009 1.24,-1.3741 1.465,-1.9954 0.0518,-0.052 0.092,-0.0917 0.128,-0.1568 0.0846,-0.0604 0.1387,-0.1575 0.2276,-0.228 0.3214,-0.3519 0.5245,-0.9319 0.8249,-1.3255 0.2055,-0.2691 0.4271,-0.618 0.5974,-0.9122 0.3298,-0.5694 0.133,-1.2167 -0.2418,-1.6818 -0.152,-0.1887 -0.9103,-0.6322 -0.9103,-0.8266 0.4782,0 1.5379,0.7195 1.9343,0.171 0.3955,-0.5474 0.314,-1.2615 0.6116,-1.8386 0.0265,-0.073 0.0569,-0.1385 0.0569,-0.2137 0.0811,-0.1016 0.1291,-0.3669 0.1565,-0.4989 0.046,-0.2218 0.1752,-0.4002 0.256,-0.6128 0.0863,-0.2267 0.216,-0.4566 0.3271,-0.6699 0.0685,-0.0882 0.1194,-0.2028 0.1849,-0.2993 0.0737,-0.1084 0.1283,-0.2195 0.1992,-0.3278 0.0385,-0.059 0.074,-0.0863 0.0995,-0.1568 0.0663,-0.0759 0.1008,-0.18 0.1423,-0.2708 0.5653,-1.135 1.4997,-2.0133 1.977,-3.2068 0.282,-0.705 0.6478,-2.3158 1.2943,-2.7793 0.3121,-0.6265 1.2519,-2.0078 1.9059,-2.2804 0.4309,-0.5287 1.786,-0.9856 2.4464,-1.2542 0.3239,-0.0909 0.6336,-0.2253 0.9387,-0.3563 0.1857,-0.0798 0.4814,-0.1827 0.6258,-0.3279 0.0562,-0.0175 0.1132,-0.0301 0.1707,-0.0427 0.3599,-0.1508 0.7046,-0.3157 1.0366,-0.4921l0 0 -1.0758 -0.7657c-0.4239,-0.2444 -1.0107,-0.7196 -1.4969,-0.7803 -0.0813,-0.0713 -0.1904,-0.101 -0.2703,-0.1711 -0.1582,-0.0197 -0.7088,-0.2402 -0.8249,-0.342 -0.7375,-0.0613 -1.5343,-0.7507 -2.2757,-0.9692 -0.7093,-0.2091 -1.5237,-0.9178 -2.2473,-0.9834 -0.4832,-0.4245 -1.4051,-0.4803 -1.9059,-0.8694 -0.5369,-0.0447 -1.1156,-0.3965 -1.6641,-0.4846 -0.7357,-0.1181 -1.5153,-0.0768 -2.2472,-0.2138 -0.0803,-0.0213 -0.1336,-0.029 -0.1991,-0.057l-0.0569 0c-1.6098,-0.6917 -4.6851,-0.5425 -6.4147,-0.3278l-3.442 0.4275 -3.9398 0.9835c-1.8393,0.3563 -3.8756,0.7355 -5.5328,1.7388l-2.7308 1.6533c-0.7022,0.4251 -1.7691,1.5151 -2.4749,1.8101 -0.9688,1.1871 -2.502,1.7951 -3.442,3.05 -0.037,0.0371 -0.1316,0.1471 -0.1849,0.1853 -0.766,1.5374 -2.5637,2.7086 -3.2855,4.2758 -0.409,0.8879 -1.1622,1.6675 -1.5219,2.5939l-1.1236 2.8933 -0.5405 1.4965 -2.3333 0 0 0z"/>
 </g>
</svg>
