<?xml version="1.0" encoding="UTF-8"?>
<!DOCTYPE svg PUBLIC "-//W3C//DTD SVG 1.1//EN" "http://www.w3.org/Graphics/SVG/1.1/DTD/svg11.dtd">
<!-- Creator: CorelDRAW -->
<svg xmlns="http://www.w3.org/2000/svg" xml:space="preserve" width="210mm" height="297mm" style="shape-rendering:geometricPrecision; text-rendering:geometricPrecision; image-rendering:optimizeQuality; fill-rule:evenodd; clip-rule:evenodd"
viewBox="0 0 210 297"
 xmlns:xlink="http://www.w3.org/1999/xlink">
 <defs>
  <style type="text/css">
   <![CDATA[
    .str2 {stroke:#2F3133;stroke-width:0.1}
    .str1 {stroke:black;stroke-width:0.1;stroke-opacity:0.501961}
    .str0 {stroke:black;stroke-width:0.4}
    .str3 {stroke:black;stroke-width:0.5}
    .fil5 {fill:none}
    .fil0 {fill:white}
    .fil2 {fill:#1F1A17;fill-rule:nonzero}
    .fil3 {fill:#C2C1C1;fill-rule:nonzero}
    .fil4 {fill:white;fill-rule:nonzero}
    .fil6 {fill:black;fill-rule:nonzero}
    .fil1 {fill:white;fill-rule:nonzero;fill-opacity:0.501961}
   ]]>
  </style>
 </defs>
 <g id="Plan_x0020_1">
  <metadata id="CorelCorpID_0Corel-Layer"/>
  <path class="fil0 str0" d="M168.777 209.9c0.0606,-0.9741 0.3642,-1.6611 0.8249,-2.4942 0.4107,-0.7429 0.6317,-1.6981 0.9103,-2.4942 0.2169,-0.62 0.2341,-1.4129 0.3129,-2.0666 0.0267,-0.2217 0.1052,-2.5646 -0.4267,-1.7958 -0.2985,0.4313 -0.4853,0.699 -0.384,1.2399 0.036,0.1921 0.5295,1.2108 0.2275,1.2258 -0.441,0.022 -0.6403,-0.7127 -1.0667,-0.7127 -0.1621,0.6508 -0.2042,0.8866 0,1.5536 0.0673,0.2197 0.2019,1.4203 -0.256,0.7553 -0.6977,-1.013 -0.5689,2.1242 -0.5689,2.4657 -0.1058,0.4126 -0.0143,0.9217 -0.0143,1.354 0,0.6492 0.0024,1.3546 -0.4266,1.8671 -0.3607,0.4311 0.5749,0.7268 0.6684,1.0547 0.1191,0.0237 0.274,0.1689 0.3983,0.2138 0.4287,0.1552 0.028,-0.6118 0.0142,-0.7554 -0.0369,-0.3851 -0.2276,-0.7131 -0.2276,-1.1402l0.0143 -0.2708zm1.1663 -12.7418c0,-0.5123 -0.2711,-0.7781 0,-1.3112 0.0965,-0.1899 0.0532,-0.4222 0.1564,-0.6414 0.109,-0.2313 0.4256,-0.3544 0.512,-0.5273l0.0427 0c0.1116,0.1489 0.1309,0.8312 0.0996,1.0261 -0.0938,0.584 -0.0996,1.2806 -0.0996,1.8814 0,0.2571 -0.0545,0.581 -0.1422,0.8124 -0.0852,0.225 -0.3112,0.5003 -0.3414,0.7126 -0.0077,0.0025 -0.1257,0.1474 -0.128,0.1568 -0.0604,0.01 -0.0021,0.0007 -0.0426,0.0142 -0.011,0.0442 -0.0947,0.0713 -0.1423,0.0713l-0.0142 -0.0285c-0.257,-0.0642 -0.2136,-0.7126 -0.0996,-0.8837 0.2039,-0.3057 0.2703,-0.4952 0.2703,-0.8979l-0.0711 -0.3848zm9.3872 -22.7756c0,-0.2937 -0.2529,-0.9395 -0.4124,-1.1972 -0.1249,-0.202 -0.2744,-0.4502 -0.0854,-0.5986 0.3368,-0.2647 0.6662,-0.8698 0.7681,-1.2828 0.0912,-0.3695 0.1246,-1.0792 0.3413,-1.3682 0.3471,0.0864 0.5643,0.0285 0.9103,0.0285l0.0142 0.0142c0,0.2624 -0.1259,0.5864 -0.1706,0.8552 -0.1016,0.6115 -0.0854,1.1992 -0.0854,1.8243 0,0.4759 -0.1585,0.6899 -0.384,1.0832 -0.2568,0.4481 -0.3406,1.0066 -0.5405,1.468 -0.0184,0.0425 -0.1542,0.5574 -0.256,0.4419 -0.1285,-0.146 -0.0285,-0.7439 -0.0285,-0.9407l-0.0711 -0.3278zm-3.6269 9.1074c0.1173,-0.3811 0.4251,-0.8533 0.5832,-1.2685 0.2519,-0.6618 0.8586,-1.4138 1.3512,-1.9383 0.3547,-0.3775 1.7844,-2.4834 1.1663,-2.8648 -0.2428,-0.1497 -0.4031,-0.5534 -0.6685,-0.6414 -0.1774,-0.0589 -0.1984,1.1118 -0.2276,1.3113 -0.0506,0.3458 -0.2418,0.8561 -0.2418,1.1544l-0.0142 0.0143c-0.1141,0 -0.1349,-0.3732 -0.1707,-0.4704 -0.1431,-0.3876 -0.2823,-0.5586 -0.2987,-0.9976 -0.005,-0.1345 -0.032,-0.8741 -0.128,-0.898 -0.0754,0.3794 -0.4777,0.8008 -0.64,1.1688 -0.3181,0.7216 -0.7129,1.365 -0.8676,2.1521 -0.075,0.3814 -0.2345,1.1326 -0.5121,1.411 -0.4294,0.4305 -0.4674,0.6434 -0.2133,1.1545 0.1555,0.3126 0.1835,0.8474 0.4694,0.9549l0.4124 -0.2423zm-1.8063 -6.5705c-0.1976,0 -0.3188,0.0059 -0.4694,0.1568 -0.0998,0.1001 -0.1543,0.2596 -0.1991,0.3848 -0.031,0.0865 -0.008,0.1572 0.0427,0.2281 0.0829,0.1161 0.1436,0.3438 0.1564,0.4846 0.0139,0.1519 0.0606,0.2818 0.0996,0.399 0.106,0 0.3538,-0.5386 0.3982,-0.6556 0.0378,-0.0998 0.0278,-0.191 0.0569,-0.285 0.0305,-0.0989 0.1449,-0.2709 0.0854,-0.3706l-0.1707 -0.3421zm15.4179 -21.5372c0.0639,0.1292 0.128,0.259 0.128,0.4149 0.0219,0.0073 0.0142,-0.0003 0.0142,0.0285 0,0.5665 0.6578,0.3128 0.953,0.1711 0.1917,-0.0921 0.5291,-0.5637 0.6684,-0.2851 0.1653,0.3308 0.2589,0.7309 0.2845,1.0975 0.049,0.6997 -0.2487,0.3684 -0.64,0.4988 0,0.3616 0.0943,0.6792 -0.2276,0.9122 -0.4988,0.3612 -0.9831,0.7823 -1.593,0.9264 -0.1392,0.0329 -0.2867,0.0616 -0.4125,0.1283 -0.2093,0.1111 -0.3413,0.2366 -0.3413,-0.0713 0,-0.2784 -0.0818,-0.4703 -0.1423,-0.7126l-0.0284 0c-0.0065,-0.0198 -0.324,0.0142 -0.384,0.0142 -0.0492,-0.1478 -0.1193,0.1001 -0.128,0.1283 -0.4313,1.4023 -1.1954,0.266 -1.9202,0.0855 -0.0094,-0.0377 -0.1397,-0.171 -0.1706,-0.171 -0.0059,-0.0178 -0.0447,-0.0285 -0.0711,-0.0285 -0.0073,0.0219 0.0003,0.0142 -0.0285,0.0142 -0.0063,0.0191 -0.0188,0.0226 -0.0427,0.0285 -0.1301,0.5223 0.6724,0.7578 0.7965,1.2542 -0.0945,0.2448 0.8713,0.8794 1.209,0.9407 0.6451,0.1173 1.289,-0.2653 0.4836,0.4276l-1.4081 1.2115c-0.1049,0.0902 -0.6592,0.864 -0.7112,0.7126 -0.1333,-0.3879 -0.1055,-0.5844 -0.6116,-0.5844 -0.4007,0 -0.5698,-0.1409 -0.9245,-0.2565 -0.6616,-0.2158 -0.9121,0.0408 -1.4792,-0.5274 -0.2946,-0.2953 -0.3504,-0.7792 -0.6258,-1.0546 -0.2241,-0.2241 -0.0426,1.8508 -0.8107,0.8124 -0.2243,-0.3031 -0.2549,-0.7028 -0.5547,-0.9407 -0.1746,-0.1386 -0.5654,-0.2462 -0.6543,-0.5131 0.1211,0.4846 0.5064,1.5445 0.953,1.7816 0.7275,0.3861 1.1064,-0.0284 1.4792,0.8124 0.1283,0.2896 -1.1529,0.1804 -1.4934,0.285 -1.1362,0.3489 -0.8729,-1.0308 -1.4366,-1.5963 -0.0326,-0.0326 0.0604,0.5433 0.128,0.8552 0.1286,0.5939 0.6841,1.1221 1.3228,1.2257 0.5152,0.0835 1.2619,0.1244 1.6499,0.5131 0.2175,0.218 0.3207,0.6099 0.6542,0.7126 0.3902,0.1203 0.9039,-0.7817 0.9672,0.057 0.0405,0.536 -0.6027,1.173 -0.9103,1.5963 -0.3875,0.7418 -1.1291,1.2612 -1.8205,1.9526 -1.981,1.981 -0.8514,-1.8841 -0.9388,-2.7935 -0.0468,-0.4866 -0.6925,-0.8758 -1.0098,-1.354 -0.3322,-0.5005 -0.9493,1.1359 -1.1094,1.4395 -0.1705,0.3235 -0.2151,0.6726 -0.3698,0.9835 -0.139,0.2791 -0.2886,0.0104 -0.4125,0.3135 -0.1722,0.4209 -1.0229,0.0998 -1.4792,0.0998 -0.2364,0 0.1864,-0.8829 -0.1422,-1.2115 -0.1822,-0.1822 -0.0365,-1.1893 -0.2276,-0.9977 -0.3343,0.3353 -0.6359,-0.0427 -0.9387,-0.0427 -0.5464,0 -0.4643,0.2045 -0.9672,-0.2993 -0.1058,-0.1061 -0.2276,-0.2137 -0.3556,-0.2708 -0.5512,-0.2458 -0.2767,-0.2879 -0.4551,0.3278 -0.2384,0.8224 -1.1495,1.0612 0.3129,1.3397 0.6994,0.1331 1.3036,0.408 1.7921,0.8979 0.2602,0.2608 -0.3413,1.6762 -0.3413,2.1949 0,1.1416 0.9242,-1.1722 1.3369,-0.342 0.1764,0.3547 0.4684,0.0142 0.7681,0.0142 0.116,0 -0.1185,0.6623 -0.1565,0.7554 -0.1745,0.4276 -0.3916,0.7441 -0.6258,1.126 -0.1284,0.2092 -0.4869,0.4985 -0.5689,0.0855 -0.0529,-0.2667 -0.0076,-0.8733 -0.3129,-0.5416 -0.3528,0.3831 -0.6073,0.2687 -0.3983,-0.2423 0.0098,-0.0242 -0.3996,-0.7223 -0.5405,-0.8979 0,0.3077 -0.3784,0.9656 -0.7396,0.6413 -0.2863,-0.2572 -0.3505,-0.8364 -0.64,-1.1259 0,0.618 -0.1378,1.5725 0.4978,1.9098 0.577,0.3063 0.3747,0.5153 -0.2845,0.6842 -0.5336,0.1366 -0.3305,0.4024 -0.2275,0.7696 0.0727,0.2589 -0.1198,0.87 0.3413,0.6984 0.3158,-0.1176 0.6656,-0.4276 1.0099,-0.4276 0.4264,0 0.5033,0.3876 1.0667,0.2138 0.5932,-0.1829 0.5033,-0.1608 0.7538,0.342 -0.1305,0.764 -0.6934,3.5347 -1.7352,3.5347 -0.3769,0 0.2608,-1.2611 0.3556,-1.4253 0.1232,-0.2131 0.6792,-0.9822 0.4694,-0.8836 -0.4579,0.215 -0.6332,-0.1094 -0.9814,-0.3136 -0.0069,-0.0041 0.1258,0.3513 0.1422,0.4703 0.1174,0.8491 -0.5405,1.0357 -0.5405,1.7959 0,0.2132 0.0158,0.5006 -0.0711,0.6841 -0.1066,0.2248 -0.255,-0.2687 -0.3271,-0.3706 -0.2359,-0.3336 -0.5737,0.1843 -0.7539,-0.2565 -0.1905,-0.4658 -0.1884,-0.1641 -0.2844,0.0855 -0.433,1.1262 -0.7314,1.0689 -1.7921,1.0689 0.2254,0.0751 0.2732,0.4819 0.512,0.5559 0.4248,0.1315 1.3085,-0.9489 1.3085,-0.3706 0,0.2947 -0.1286,0.9115 0.0711,1.1117 0.1662,0.1665 0.4884,0.2326 0.5547,0.4704 0.3348,1.2014 -1.0045,1.6363 -1.3085,2.5512 -0.5733,0.5053 -0.0409,1.2056 0.4267,1.5393 0.4298,0.3066 0.7752,0.3398 0.9956,0.8694 0.194,0.4659 0.3698,1.2815 0.3698,1.7958 0,0.2208 -0.2399,0.6476 -0.1707,0.8266 0.0734,0.1902 0.5144,0.1717 0.5832,0.4134 0.2096,0.0838 0.2487,0.3816 0.5262,0.4418 0.7566,0.1641 0.498,-0.3343 0.7539,0.4988 0.0856,0.279 0.3673,0.9014 0.5973,1.0547 0,0.2145 -0.3764,0.5393 -0.4978,0.8124 -0.071,0.7364 -0.1332,2.0137 -1.0383,0.9549 -0.3898,-0.4561 -0.0426,-1.7451 -0.0426,-2.3231 -0.973,-0.3243 -1.0054,0.8563 -1.2232,1.5963 -0.1997,0.6781 -0.6401,1.6366 -0.6401,2.3374 0.2131,0 0.9291,-1.1657 1.1095,-1.3825 0.053,-0.0638 0.3819,-0.5179 0.4409,-0.3991 0.044,0.0884 0.1187,0.3248 0.2133,0.3563 0,0.1933 -0.7695,0.9737 -0.9245,1.1687 -0.419,0.5269 -0.7091,1.2403 -1.1521,1.7816 -0.1892,0.2313 -1.0174,0.5433 -1.2943,0.4276 -0.6741,-0.2819 -0.029,-2.3036 0.0996,-2.936 0.0549,-0.2704 -0.2573,-0.5308 -0.4267,-0.7412 -0.2798,-0.3473 -0.5676,-0.7637 -0.6827,-1.2257 -0.1116,0 -0.232,0.6539 -0.2703,0.7839 -0.1745,0.591 -0.6177,1.0917 -0.8676,1.6533 -0.1681,0.378 -0.1968,0.4741 -0.0711,0.8837 0.1079,0.3513 -0.2887,1.0794 -0.3556,1.4965 -0.0541,0.3371 0.1619,0.7992 -0.2275,0.9549 -0.0785,-0.1076 -0.1498,-0.2163 -0.2134,-0.3278 -0.0446,-0.0111 -0.0568,-0.0531 -0.1138,-0.057 -0.0974,-0.0068 -0.2005,0 -0.2986,0 -0.1048,0 -0.1997,-0.0285 -0.2987,-0.0285 -0.041,-0.0328 -0.1251,-0.0653 -0.1707,-0.0855 -0.0984,-0.0435 -0.1301,-0.0839 -0.1991,-0.1711 -0.0584,-0.0737 -0.0569,-0.1448 -0.0569,-0.2423 0.0315,-0.1848 0.0068,-0.4282 0.2133,-0.5131 0.1013,-0.0417 0.3129,-0.1338 0.3129,-0.2565 -0.534,0 -0.9121,-0.2144 -0.5689,-0.7411 0.0814,-0.1248 0.3815,-0.805 0.1849,-0.9265 -0.2418,-0.1493 -0.6121,0.4216 -0.5405,-0.0427 0.1065,-0.6899 -0.7822,0.3308 -0.7822,-0.8267 0,-0.2109 0.122,-0.3844 0.0853,-0.6128 -0.0656,-0.4089 -0.3883,0.311 -0.6116,0.4133 -1.0864,0.4975 -0.7934,-0.9679 -1.1805,-1.0119 -0.0316,-0.0035 0.028,0.7871 -0.0285,0.9549 -0.1133,0.3358 -0.5622,0.401 -0.6258,0.6556 1.0228,0 0.8363,0.4021 1.0099,1.1972 0.161,0.7379 0.0354,0.7995 0.7822,0.9977 0.2637,0.0699 0.2443,0.5884 0.3414,0.7839 0.1186,0.2385 0.6626,0.1285 0.6827,0.285 0.0588,0.4588 -0.0903,0.4398 0.2276,0.8837 0.2134,0.2981 0.0968,0.6937 0.2702,0.9834 0.2529,0.4222 -0.3349,-0.1435 -0.4267,-0.2993 -0.1781,-0.3019 -0.5419,-0.3187 -0.6543,-0.5131 -0.0763,-0.1322 -0.2978,-1.5669 -0.5404,-0.6841 -0.0755,0.2751 -0.3704,0.7968 -0.1423,0.9549 0.5447,0.3773 0.0247,0.8834 0.1565,1.3968 0.115,0.4483 1.026,-0.0259 1.3654,0.3135 -0.2824,0.7624 -0.2586,0.8778 0.384,0.2708 0.3887,-0.3671 0.7572,1.3549 0.441,1.5108 -0.293,0.1446 -1.4639,-0.2762 -1.5504,0.0713 -0.0591,0.0147 -0.464,0.5028 -0.512,0.5843 -0.172,0.2914 0.1005,0.6448 0,1.0262 -0.0908,0.3449 -0.1735,0.7303 -0.0853,1.0832 0.4789,0 0.6598,-0.6933 1.2658,-0.2423 0.2283,0.1698 0.9171,0.068 1.0241,0.2423 0.1131,0.1845 -0.0679,0.6748 -0.1422,0.8694 -0.1754,0.4589 -0.4397,0.4657 -0.2703,0.9122 0.1617,0.426 0.023,1.0886 -0.0284,1.5535 0.1688,0.3385 -0.0092,0.7498 -0.0854,1.0547 -0.2857,0 -0.6758,-1.6814 -0.9814,-1.9098 -0.1902,0.1141 -0.7401,0.8039 -0.9102,1.0119 -0.2209,0.2699 -0.4411,0.5085 -0.7681,0.228 -0.6497,-0.5571 -0.519,1.2439 0.1707,1.0405 0.3194,-0.0941 0.4868,-0.2851 0.8391,-0.2851 0.2727,0 0.3572,0.0539 0.6685,0 0.4054,-0.0703 0.1423,0.7442 0.1423,1.012 0,0.1858 0.6554,0.6353 0.8107,0.8694 0.2502,0.3769 0.8391,0.3522 0.8391,0.8694 -0.1321,0 -0.2253,-0.0855 -0.3698,-0.0855l-0.0142 0.0142c0,0.3812 0.0135,0.7273 -0.0426,1.0975 -0.0495,0.3272 -0.1423,0.5991 -0.1423,0.9406 0,0.6484 -0.9529,-0.7593 -0.9529,-0.0142 0,0.1346 -0.0113,1.0798 -0.3841,0.7839 -0.1346,-0.1068 -0.3048,-0.0102 -0.4501,0.1567l0 0 -0.5526 -0.2779c-0.0948,0.0151 -0.2043,0.0081 -0.2204,0.1212 -0.0223,0.0037 -0.093,0.0587 -0.0996,0.0855 -0.0337,0 -0.0483,0.0142 -0.0853,0.0142l-0.0996 -0.4845c-0.294,-0.098 -0.3904,0.2928 -0.6685,0.4703 -0.202,0.129 -0.2232,-0.4653 -0.3698,-0.5559 -0.153,-0.0944 -0.7125,0.2236 -1.0241,0.0856 -0.0952,-0.0422 -0.3874,-0.7508 -0.4267,-0.8695 -0.0669,0 -0.1828,0.3636 -0.3413,0.4276 -0.206,0.0833 -0.0853,-0.3177 -0.2987,-0.342 -1.0622,-0.1208 -1.4975,0.3216 -2.361,-0.6272 -0.9995,-1.0984 -0.7954,-0.0001 -1.6499,-0.2137 -0.0269,-0.1081 -0.257,-0.7554 -0.3129,-0.7554 -0.0691,-0.2777 -1.8296,-0.2116 -2.1904,-0.3136 -0.4034,-0.114 -0.827,-0.2803 -1.0667,-0.6128 -0.1898,-0.2631 -0.3068,-1.1117 -0.6543,-1.1117 -0.2119,0.3532 0.0227,0.7268 -0.6543,0.7268 -0.3729,-0.2401 -1.0994,-1.0642 -1.3369,-0.2708l-0.2987 0.9977c-0.0717,0.2398 -0.3744,0.7441 -0.3983,0.9122 -0.4655,0.1995 -0.5062,-0.2366 -0.7822,-0.5131 -0.1072,-0.1075 -0.825,-0.3557 -0.825,-0.0713 -0.057,0.019 0.0563,0.2751 0.0711,0.3136 0.1665,0.4333 0.1645,0.9984 -0.3271,1.1972 -1.0977,0.4438 -0.4892,1.0185 -0.5405,1.9241 -0.0278,0.4923 -0.3413,0.998 -0.3413,1.468 0,0.3184 0.0066,1.366 0.3698,1.5108 0.013,0.0914 0.1829,0.2758 0.2275,0.3991 0.2771,0.6528 1.3909,2.7807 0.8819,3.4206 0,0.5432 -0.3414,1.1145 -0.3414,1.7245 0,0.9023 -0.0865,1.9546 -0.4693,2.765 -0.1974,0.4178 -0.3192,0.9241 -0.4552,1.3683 -0.1724,0.5628 0.128,0.9031 0.128,1.4395 -0.0704,0.3131 -0.3288,0.5335 -0.384,0.7554 -0.5505,0.0784 -0.7735,-0.0104 -1.3085,-0.1853 -0.7499,-0.2453 -3.4586,0.6377 -3.7549,-0.5559 -0.3605,-0.1028 -0.4309,-0.8682 -0.6259,-0.9976 0,-0.7816 0.4644,-3.8808 -0.4693,-4.1475 -0.0699,-0.2459 -0.5689,-0.713 -0.5689,-0.9835 -0.1382,-0.0689 -0.1138,-0.8744 0,-0.9121l0 -0.0428c0.0359,-0.0119 0.0283,-0.0856 0.0711,-0.0998 0,-0.2092 0.1564,-0.5333 0.1564,-0.8409 -0.0268,-0.0089 -0.0485,-0.112 -0.1138,-0.1282 -0.008,-0.0242 -0.0489,-0.033 -0.0569,-0.057l-0.0284 0c-0.0073,-0.022 0.0006,-0.0143 -0.0284,-0.0143l-93.2099 -5.8527c-0.3681,-0.0445 -2.3854,-0.1358 -2.7967,-0.0703l0 0 -0.1464 -0.3248c-0.0459,-0.2328 -0.5758,-0.4794 -0.7114,-0.6641 -0.2362,-0.322 -0.6985,-0.5057 -0.985,-0.7922 -0.1635,-0.1635 -0.553,-0.4856 -0.602,-0.7068l-0.1435 -0.7535c0.0106,-0.4484 0.0213,-0.8967 0.0319,-1.345 0.0358,-1.5115 -0.5619,-3.4088 -1.6756,-4.5724 -0.3555,-0.3713 -0.1291,-1.1914 -0.2556,-1.704 -0.0587,-0.2376 -0.4465,-0.1448 -0.5964,-0.3124 -0.2551,-0.2851 -0.1915,-0.6846 -0.0898,-1.0879l0 0c0.0766,-0.3039 0.175,-0.6102 0.175,-0.8717 0,-0.6662 -0.2459,-1.0826 -0.5396,-1.6188 -0.662,-1.2087 -1.2022,-2.582 -1.9596,-3.8056 -0.5745,-0.9279 -1.299,-1.4637 -1.0224,-2.698 0.3015,-1.3459 -0.9878,-1.9728 -0.2272,-3.2092 0.7816,-1.2707 0.7384,-2.5769 0.7384,-4.118 0,-0.928 0.456,-1.7094 0.6248,-2.5276 0.1382,-0.6696 0.6308,-2.2908 0.4828,-2.8684 -0.1072,-0.4183 0.1553,-1.0631 0.284,-1.42 0.1919,-0.5317 -0.3358,-1.1383 -0.3976,-1.6756 -0.0779,-0.678 -0.0801,-1.3557 -0.284,-1.988 -0.017,-0.0526 -0.074,-0.0986 -0.1179,-0.1754l-0.1717 -0.3383c-0.0772,-0.019 -0.463,-0.9776 -0.5108,-1.0846 -0.2529,-0.5649 -0.8639,-1.2471 -0.8026,-1.9011 -0.0832,-0.0277 -0.2405,-1.3237 -0.2797,-1.5233 -0.123,-0.6258 -0.1806,-0.8817 -0.5716,-1.4014 -0.6051,-0.8041 -0.5893,-2.2999 -0.3769,-3.2417 0.0494,-0.0166 0.1091,-0.6141 0.1216,-0.6824 0.058,-0.3178 0.0762,-0.65 0.231,-0.9384l0.8634 -1.6086c0.2022,-0.3768 0.4863,-0.7144 0.6324,-1.109l0.0741 -0.9276c0.0473,-0.2105 0.0947,-0.421 0.1419,-0.6314 0.0497,-0.2213 0.3446,-0.5787 0.4828,-0.7952 0.0891,-0.1395 0.3637,-0.6065 0.3976,-0.71 0.1387,-0.4238 0.1704,-0.8497 0.1704,-1.3348 0,-0.6434 -0.4927,-1.3305 -0.2556,-1.9028 0.3979,-0.9601 -0.538,-1.6118 0.3976,-2.84 0.344,-0.4517 2.5276,-1.6621 2.5276,-1.846 0,-1.1486 0.2011,-0.7668 1.2496,-0.7668 0.7475,0 0.508,-1.2369 1.2496,-1.704 0.4375,-0.2755 0.2555,-0.5371 -0.142,-0.8236 -0.445,-0.3209 -2.1493,-1.1685 -2.6128,-1.5336 -0.7527,-0.5927 -0.6515,-1.7462 -0.1704,-2.4992 0.2969,-0.4649 0.2272,-0.5182 0.2272,-1.5052 0,-0.0474 0,-0.0947 0,-0.142 0,-1.4776 0.1675,-1.8773 -0.3692,-2.414 -0.8099,-0.8099 -0.02,-1.281 -0.9088,-2.6696 -0.9308,-1.454 -2.7224,-2.1798 -2.5844,-4.118 0.0478,-0.6717 -0.6532,-0.4303 -0.6532,-0.6532 0,-1.0329 0.5211,-0.9871 -0.0284,-1.9596 -0.6263,-1.1086 -0.3303,-1.7003 -0.6816,-2.7548 -0.1315,-0.3947 -0.7974,-0.2457 -0.6532,-0.852 0.1383,-0.581 0.7246,-0.7099 -0.0852,-1.2496 -0.5403,-0.3602 -0.9617,-1.0189 -0.7952,-1.6472 0.1488,-0.561 0.0507,-0.8368 -0.3223,-1.2493l-15.6537 -93.5756 0 0 46.9603 0.0014 0 0 25.3897 -0.0609 0.4298 -0.254 18.5698 -0.2572 0 0c-0.1438,0.4549 -0.3735,0.7759 -0.4922,1.2264 -0.1332,0.5058 0,1.0428 0,1.5535l-0.0142 0.0142c-0.5014,0 -0.3028,-0.0389 -0.6685,0.2851 -0.1993,0.1767 -0.5739,-0.1786 -0.7965,0.1568 -0.322,0.4853 -0.0682,0.2008 -0.5263,0.4846 -0.4181,0.2591 -0.6076,0.9392 -0.896,1.3254 -0.3393,0.4546 -1.4343,-0.359 -1.6215,0.4989 -0.2383,1.0918 -0.2681,0.8884 -1.1094,1.3682 0,0.5374 0.0635,0.7081 -0.1138,1.24 -0.1733,0 -0.6834,-0.7692 -0.7965,-0.3135 -0.0275,0.0068 -0.0358,0.0152 -0.0426,0.0427 -0.0318,0.0079 -0.091,0.0454 -0.0996,0.0713 -0.2046,0.0292 -0.0097,0.2696 0,0.3563 0.014,0.124 -0.1625,0.3385 -0.256,0.4133 -0.2154,0.0835 -0.3974,0.1188 -0.5832,0.2423 -0.0674,0.474 0.0605,1.0179 -0.0284,1.4823 -0.0832,0.4344 -0.5566,0.6988 -0.7538,1.1402 -0.0946,0.212 -0.3909,0.6258 -0.4222,0.9519 0.0442,0.1672 0.0578,0.3672 0.1043,0.6093 0.24,1.2484 1.6167,0.4502 2.0732,1.3632 0.0094,0.019 0.019,0.038 0.0284,0.0568 0.072,0.1445 0.2896,0.3863 0.3408,0.5396 0.3282,0.9824 1.2348,-0.1393 1.42,0.8236 0.3756,1.9535 0.618,0.2055 1.5336,1.0508 0.2062,0.1903 0.9508,0.174 1.3064,-0.0284 0.52,-0.2959 0.03,1.5025 0.9372,1.8744 0.2666,0.1093 1.5451,1.1211 1.6472,1.3064 0.0326,0.0593 0.0947,-0.02 0.142,0.0284 0.0505,0.0518 0.0435,0.0395 0.1136,0.0852 0.0562,0.0365 0.0154,0.0587 0.0568,0.0852 0.081,0.0521 0.2029,0.0772 0.2272,0.1704 0.3713,1.4259 2.3223,1.9709 3.3208,2.8843 0.6424,-0.1972 1.0192,-0.2758 1.6498,-0.4703 0.4705,-0.145 1.8443,-0.3609 2.2686,-0.0203 0.6043,0.165 0.7819,1.4895 1.1165,2.0014 0.6773,1.0358 0.5971,2.3919 1.3588,3.4479 0.0235,0.0265 0.102,0.0756 0.1204,0.1152 0.0754,0.1624 0.3062,0.3066 0.441,0.4276 0.3022,0.2715 0.423,0.5242 0.6116,0.8694 0.088,0.1609 0.1077,0.4463 0.1422,0.6271 0.0355,0.1863 -0.0162,0.4514 0.0711,0.6129 0.0616,0.1139 0.1232,0.228 0.1849,0.3421 0.2006,0.252 0.4175,0.5038 0.5974,0.6841 0.3367,0.3374 0.5722,0.8729 0.8286,1.3602 -0.0657,0.2561 0.0405,0.888 0.1116,1.1669 0.0736,0.2891 0.2404,0.8085 0.2687,1.0075 0.131,0.0869 0.1747,1.0288 0.2293,1.2074 0.158,0.5173 0.226,0.6891 0.4574,1.0935 0.7005,0.2015 1.6858,0.985 1.8609,1.6882 0.476,0.272 0.8108,1.3611 1.0587,1.8303 0.3915,0.7406 1.2009,0.8102 1.386,1.7357 -0.0217,0.0399 -0.0319,0.0703 -0.0426,0.1128 -0.0078,0.0308 -0.0148,0.0547 -0.0284,0.0855 -0.0155,0.0353 -0.0277,0.1237 -0.0214,0.1639 0.0057,0.0362 0.0162,0.0786 0.0285,0.1141 0.0139,0.0397 0.0021,0.0888 0.0284,0.1211 0.0506,0.062 0.1013,0.1242 0.152,0.1863 0.4827,0.9578 0.8961,2.2513 1.5903,2.8067 1.168,0 1.4962,0.6626 2.2331,1.4538 0.6902,0.7411 1.5732,1.1489 2.2472,1.8243 0.6488,0.0809 1.6731,1.0365 2.2473,1.3968 0.501,0.2767 1.1664,0.5375 1.593,0.9122 0.4976,0.4369 0.5883,0.8993 0.9387,1.3397 0,0.4413 0.6769,0.5528 0.8961,0.8409 0.4727,0.6215 0.9604,1.0283 1.152,1.7958 0.1685,0.6754 -0.0101,1.5893 0.7254,2.0096 0.1317,0.3311 0.6264,0.4681 0.6264,0.8716 -0.1217,0.3699 0.0695,1.3213 0.3266,1.6084 0.3258,0.3636 1.1869,0.659 1.4081,0.9977 0.0647,0.099 0.6375,0.4784 0.7396,0.5701 0.2723,0.2444 0.513,-0.3165 0.7396,-0.3421 0.2496,-0.0281 0.3601,0.2101 0.4836,0.3848 0.2289,0.3235 0.8754,0.4306 1.2374,0.5416 0.5183,0.1591 1.1082,1.0809 1.3654,1.5678 0.0759,0.1437 0.5806,0.3021 0.7396,0.4276 0.153,0.1206 0.4612,0.8218 0.4836,1.0119 0.1225,1.039 0.918,1.1458 1.6641,1.6818 0.1344,0.0966 0.4523,0.013 0.6258,0.0998 0.2345,0.1175 0.3658,0.473 0.4694,0.7269 0.1395,0.3422 0.2108,0.3984 0.1849,0.7411 -0.0023,0.0312 -0.0644,0.0647 -0.0854,0.0713 -0.1027,0.0327 -0.2418,0.0222 -0.3413,0.0712 -0.0294,0.0144 -0.0159,0.0517 -0.0569,0.0855 -0.0883,0.0727 0.1016,0.5775 0.0569,0.7127 -0.0883,0.2669 -0.4806,0.1076 -0.6827,0.2708 -0.1094,0.0884 0.3621,0.3718 0.3982,0.5131 0.0937,0.3673 0.4194,0.8303 -0.0284,1.0547 -0.2617,0.1312 -0.7549,0.0457 -0.3841,0.4988 0.1108,0.1355 0.1565,0.161 0.1565,0.3421 0,0.2577 0.079,0.2473 0.2418,0.3563 0.1677,0.1124 0.7033,0.5445 0.896,0.6841 0.2871,0.2079 0.5325,0.6824 0.8108,0.8266 0.2922,0.1515 0.192,-0.1404 0.5689,0.0143 0.6235,0.2561 0.5456,0.1232 0.3698,0.8124 -0.1565,0.6132 1.1473,0.2254 0.4836,1.2257 -0.4838,0.729 0.2782,1.15 0.7823,1.5536 0.3644,0.2916 0.3057,0.5608 0.6684,0.8123 0.4439,0.3079 0.6605,0.1813 0.953,-0.4133 0.2654,-0.5398 0.5256,0.1898 0.64,0.3706 0.1802,0.2849 -0.0431,0.8048 -0.0995,1.0974 -0.2324,1.2054 1.2654,2.7242 2.3041,3.1214 0.4677,0.1789 1.4629,0.8355 1.8775,0.8551 0.2936,0.0138 0.7382,-0.0804 0.9956,-0.0142 0.2185,0.0561 0.2051,0.4161 0.3982,0.4988 0.0918,0.0392 0.2983,-0.065 0.3983,-0.0428 0.0404,0.009 0.0493,0.0431 0.0569,0.0856 0.0153,0.0852 0.0159,0.1742 0.0427,0.2565 0.0119,0.0364 0.0212,0.0518 0.0426,0.0855 0.0238,0.0377 0.0712,0.0344 0.0996,0.057 0.029,0.0229 0.0506,0.0586 0.0853,0.0713 0.043,0.0156 0.0719,0.0255 0.1138,0.0285 0.0784,0.0057 0.1592,-0.0066 0.2276,0.0285 0.0315,0.0162 0.0481,0.0135 0.0711,0.0428 0.0203,0.026 0.0471,0.0443 0.0711,0.0712 0.6884,0.7732 1.4895,0.9646 2.1762,1.7246 0.4422,0.4895 0.9312,0.7739 1.0382,1.468 0.0759,0.492 0.0243,1.0334 -0.5262,1.1117 -0.7944,0.1129 0.5146,1.8067 0.6116,2.1236 0.1333,0.4359 0.0214,0.7412 0.5689,0.7412 0.587,0 -0.0322,0.3685 -0.1138,0.6271 -0.3062,0.9709 0.4194,0.1872 0.8676,0.6984 0.2266,0.2586 -0.1416,0.7997 -0.1138,1.0974 0.0036,0.0386 0.0502,0.0528 0.0854,0.0713 0.2377,0.1247 0.4394,0.011 0.6685,0.0855 0.1667,0.0543 0.3061,0.1885 0.3413,0.2993 0.1528,0.4817 0.2661,0.7149 0.0996,1.1544 -0.1605,0.4239 0.0647,0.7461 0,1.1688 -0.1051,0.6866 0.6783,0.9672 0.5405,1.6818 -0.126,0.6539 -0.8815,1.4407 -0.3983,1.9241 0.4484,0.4487 0.4994,1.1423 0.825,1.5535 0.4626,0.5844 -1.2954,1.1122 -0.4267,1.8243 0.3601,0.2953 0.5087,0.9725 0.9529,1.1545 0.715,0.2928 0.9854,1.1357 1.8206,1.1829 0.5469,0.0309 1.4455,0.0021 1.7779,0.4846 0.2663,0.3867 0.3584,0.8303 0.7538,1.1402 0.686,0.5379 0.7262,0.3976 1.1094,1.1688 0.3457,0.6959 1.6214,0.8375 1.6214,1.582 0,0.0095 0,0.019 0,0.0285 0,0.0533 -0.2437,0.3957 -0.2986,0.4846 -0.5782,0.9363 0.2098,1.4628 0.5262,2.2091 0.1551,0.3661 0.0771,0.9738 0.2845,1.297 0.1872,0.2915 0.3662,0.7799 0.4551,1.069 0.2493,0.811 1.1848,-0.6347 1.0099,0.6841 -0.0732,0.5523 0.3984,0.9193 0.4835,1.4965 0.1056,0.7168 -0.7778,1.2629 -1.0966,1.966 -0.0174,0.0436 -0.0174,0.0266 -0.027,0.0722 -0.0812,0.385 0.2015,0.3302 0.2845,0.5558 0.0108,0.0293 0.0608,0.0501 0.0853,0.0713 0.0309,0.0269 0.0241,0.0184 0.0569,0.0427 0.0197,0.0145 0.024,0.0233 0.0285,0.0428 0.0171,0.0727 0.0129,0.1531 -0.0143,0.2138 -0.015,0.0337 -0.1202,0.0258 -0.1422,0.0712 -0.0821,0.1693 -0.259,0.2005 -0.1564,0.4133 0.0457,0.0947 0.2625,0.4177 0.0853,0.4846 -0.0249,0.0093 -0.0019,0.057 -0.0285,0.057 -0.0095,0 -0.019,0 -0.0284,0 -0.2017,0 -0.2609,0.2802 -0.1707,0.5274 0.0115,0.0315 0.0427,0.0039 0.0427,0.0285 0,0.0095 0,0.019 0,0.0285 0,0.0988 -0.1964,0.4161 0.0711,0.4846 0.5135,0.1314 0.4717,0.6689 0.5832,1.1401 0.0851,0.3593 -0.2379,0.5539 0.0711,0.955 0.9811,1.2739 1.2108,2.8687 3.3282,2.0523 0.8628,-0.3327 1.3388,-1.2269 1.9912,-0.114 0.4776,0.8145 1.3276,0.2449 1.6641,1.411 0.0245,0.0848 0.1115,0.1474 0.1849,0.1925 0.1045,0.0644 0.1835,0.1625 0.2703,0.2494 0.0555,0.0557 0.1038,0.1107 0.1706,0.1496 0.0583,0.0339 0.1248,0.0637 0.1849,0.0856 0.0693,0.0254 0.1632,0.0624 0.2418,0.0783 0.092,0.0185 0.1826,0.0317 0.2774,0.0285 0.1399,-0.0047 0.2795,-0.011 0.4196,-0.0158l0 0z"/>
 </g>
</svg>
