<?xml version="1.0" encoding="UTF-8"?>
<!DOCTYPE svg PUBLIC "-//W3C//DTD SVG 1.1//EN" "http://www.w3.org/Graphics/SVG/1.1/DTD/svg11.dtd">
<!-- Creator: CorelDRAW -->
<svg xmlns="http://www.w3.org/2000/svg" xml:space="preserve" width="297mm" height="210mm" style="shape-rendering:geometricPrecision; text-rendering:geometricPrecision; image-rendering:optimizeQuality; fill-rule:evenodd; clip-rule:evenodd"
viewBox="0 0 297 210"
 xmlns:xlink="http://www.w3.org/1999/xlink">
 <defs>
  <style type="text/css">
   <![CDATA[
    .str2 {stroke:#2F3133;stroke-width:0.1}
    .str1 {stroke:black;stroke-width:0.1;stroke-opacity:0.501961}
    .str0 {stroke:#000066;stroke-width:0.3}
    .str3 {stroke:black;stroke-width:0.5}
    .fil6 {fill:none}
    .fil0 {fill:white}
    .fil1 {fill:white}
    .fil5 {fill:#1F1A17;fill-rule:nonzero}
    .fil3 {fill:#C2C1C1;fill-rule:nonzero}
    .fil4 {fill:white;fill-rule:nonzero}
    .fil7 {fill:black;fill-rule:nonzero}
    .fil2 {fill:white;fill-rule:nonzero;fill-opacity:0.501961}
   ]]>
  </style>
 </defs>
 <g id="Plan_x0020_1">
  <metadata id="CorelCorpID_0Corel-Layer"/>
  <path class="fil1 str0" d="M16.8282 39.012c-0.0327,-0.142 -0.022,-0.5799 0.1404,-0.6201 0.0064,-0.0193 0.0168,-0.0083 0.0234,-0.0351 0.0369,-0.0091 0.0264,-0.0389 0.0585,-0.0468 0.0075,-0.0228 0.0042,-0.0006 0.0117,-0.0234 0.0213,-0.0052 0.0255,-0.0182 0.0468,-0.0234 0.0067,-0.0271 0.0475,-0.0763 0.0702,-0.0819 0,-0.0497 0.0703,-0.0937 0.0819,-0.1521 0.1004,-0.0248 0.2641,-1.436 0.3042,-1.638 0.4887,-0.1211 1.493,-1.0772 1.6146,-1.5678 0.0214,-0.0053 0.0181,-0.002 0.0234,-0.0234 0.0195,-0.0048 0.0422,-0.021 0.0468,-0.0351l0.0234 0c0.2466,-0.744 1.4755,-0.4913 1.6263,-1.0998 0.9491,-0.1345 2.3166,-1.0999 2.3166,-2.223 0.0068,-0.0707 0.0274,-0.2795 0.0819,-0.3159 0,-0.2794 0.4236,-0.5463 0.468,-0.7254 0.0893,-0.0126 0.1432,-0.0819 0.2457,-0.0819 0.0267,-0.0808 0.5371,0.0702 0.6201,0.0702 0.3921,0 0.6213,-0.2639 0.9945,0.0234 0.3493,0.2688 0.4797,0.3533 0.4797,0.819l-0.4563 0.5382c-0.6758,0.7971 -0.7123,1.9595 -1.0296,2.9133 0.1818,0.4336 0.2007,0.75 -0.0234,1.1466 -0.2826,0.5004 -1.0867,0.7823 -1.5912,0.8541 -0.1578,0.0225 -0.3231,0.1316 -0.468,0.1404 -0.2449,0.0148 -0.5147,0.0644 -0.7605,0.0819 -0.2555,0.0181 -0.4384,0.1393 -0.6318,0.1872 -0.0443,0.1787 0.0065,0.3774 -0.0468,0.5499 -0.0859,0.2776 -0.3211,0.4666 -0.4563,0.7371 -0.1301,0.252 -0.2731,0.3636 -0.4329,0.585 -0.0376,0.052 -0.3261,0.4205 -0.351,0.4329 -0.0339,0.2394 -0.3035,0.6542 -0.4446,0.8658 -0.1251,0.1878 -0.4095,0.7006 -0.4095,0.9126 -0.1276,0.0853 -0.0002,0.4591 -0.3276,0.585 -0.0635,0.0244 -0.5828,-0.3115 -0.6084,-0.3627 -0.0145,-0.0023 -0.1004,-0.0438 -0.1053,-0.0585l-0.0351 0 -0.4212 -0.234c-0.4513,-0.2508 -0.8196,-1.3579 -0.6318,-1.8603l-0.0468 -0.234zm7.6504 -9.9224c0,0.1049 -0.0724,0.1316 -0.145,0.1856 -0.1432,0.1063 -0.3782,-0.1551 -0.5046,0.0232 -0.0895,0.1264 -0.1122,0.2922 0.0116,0.406 0.0774,0.0713 0.1768,0.0266 0.2668,-0.0058 0.0723,-0.0259 0.1618,-0.0322 0.2146,-0.0812 0.0383,-0.0357 0.091,-0.0588 0.1276,-0.0986 0.0443,-0.0481 0.0652,-0.1112 0.0986,-0.1682 0.0157,-0.0267 0.0307,-0.0623 0.0406,-0.0928 0.0159,-0.0494 -0.0058,-0.0696 -0.0116,-0.1102l-0.0174 -0.0058 -0.0812 -0.0522zm28.058 7.3952c0.4696,0 1.0041,-0.0936 1.4508,0 0.4835,0.1012 0.8463,0.4128 1.2987,0.585 0.8964,0.3414 1.0836,-0.2013 1.8369,-0.5031 0.0784,-0.3949 1.418,-0.9395 1.3338,-1.1583 -0.1659,-0.4315 1.1491,-1.2675 1.5561,-1.3806 0.7078,-0.1966 0.163,-0.9235 0.5733,-1.3338 0.5747,-0.2149 0.8354,0.3355 0.7839,-0.5616 -0.0084,-0.1468 -0.0591,-1.2561 -0.117,-1.2753l0 -0.0234 -0.0117 -0.0117c-0.0501,0 -0.163,0.0151 -0.1989,-0.0117 0,-0.2669 0.1274,-0.3769 0.1053,-0.6669 -0.0229,-0.2995 -0.1256,-0.5787 -0.1053,-0.9126 0.0262,-0.4289 0.0309,-1.4474 0.5499,-1.521 0.0417,-0.0834 0.2049,-0.1526 0.2574,-0.2457 0.0863,-0.1527 0.0927,-0.3334 0.1404,-0.5031 0.0741,-0.1482 0.1015,-0.7235 0.2223,-0.7839 0.0492,-0.1988 0.3188,-0.3806 0.3861,-0.6435 0.0364,-0.1419 0.2052,-0.429 0.3627,-0.468 0.0055,-0.0225 0.0126,-0.0296 0.0351,-0.0351 0.1898,-0.7592 0.1638,-1.4413 0.1638,-2.2581l-0.0117 -0.0117 -0.0117 -0.0117 -0.0117 -0.0117c-0.479,0 -0.4914,0.0433 -0.4914,-0.4212 0,-0.3493 -0.3159,-0.6366 -0.3159,-0.9594 0,-0.1999 0.0868,-0.4869 -0.0468,-0.6552 -0.1209,-0.1525 -0.6683,-0.557 -0.8658,-0.585 -0.1893,-0.3787 -0.3571,-0.4838 -0.7137,-0.7488 -0.4791,-0.3562 -0.5462,-0.1145 -1.1232,-0.1638 -0.1333,-0.1333 -0.4492,-0.1479 -0.6084,-0.2457 -0.1661,-0.1022 0.0293,-0.2387 -0.2457,-0.3042 -0.2916,-0.0694 -0.7295,-0.0367 -0.819,-0.3978 -0.0237,0 -0.0175,0.0063 -0.0234,-0.0117 -0.0263,0 -0.0322,0.0117 -0.0585,0.0117 -0.1343,0.2687 -1.276,0.8307 -1.4274,0.7371 -0.1728,-0.107 -0.3375,-0.2738 -0.5382,-0.3393 -0.3995,-0.1303 -2.1651,-0.2279 -2.5389,-0.0468 -0.7864,0.3808 0.3971,0.693 -0.2223,1.0764 -0.3596,0.2227 -1.0313,-0.7371 -1.6848,-0.7371 -0.1147,-0.4631 -1.034,-0.9252 -1.3806,-0.5499 -0.1606,0.174 -0.2717,0.2443 -0.5031,0.1287 -0.1804,-0.0902 -0.6079,0.3364 -0.7605,0.4563 -0.3615,0.2897 -0.6659,0.7423 -1.0998,0.9243 -0.4144,0.1737 -0.7863,0.3275 -1.1583,0.585 -0.8169,0.5657 -1.4401,0.8003 -2.3517,1.1817 -0.3977,0.1663 -1.0471,0.0294 -1.3689,0.2223 -0.151,0.6095 -0.9401,1.3138 -1.0179,1.9422 -0.2506,0.1789 -0.4337,0.9674 -0.6552,1.2636l-0.0585 0.0117c-0.3514,0.4245 -0.5594,0.8682 -1.0296,1.1817 -0.1668,0.1111 -0.7488,0.241 -0.7488,0.4212 0,0.5254 -0.0565,0.9478 -0.1521,1.4742 -0.0294,0.1619 -0.2079,1.209 -0.0819,1.2402 0.0802,0.3236 0.6758,0.6699 0.819,1.0998 0.3164,0.9493 0.5291,1.1075 1.5444,1.3104 0.4796,0.0959 0.8807,0.2517 1.3104,0.4797 0.4842,0.2568 1.1078,0.1093 1.5678,0.3393 -0.0157,-0.0087 -0.0181,-0.0174 -0.0351,-0.0117 0.2081,0.2783 0.5957,0.1994 0.7956,0.5382 0.2712,0.4599 0.1828,0.2778 0.6669,0.3978 0.1036,0.4182 0.3314,0.5054 0.5733,0.8307 0.1998,0.2689 0.3575,0.564 0.6084,0.7956 0.3447,0.3183 0.7189,0.362 1.0413,0.7488 0.371,0.4449 0.523,-0.1044 0.6318,-0.4329 0.1192,0 0.3929,0.3586 0.5499,0.4446 0.8039,0.4403 2.042,0.5148 2.9601,0.5148l0.468 0zm84.3804 31.9761c0.6931,-0.1386 1.6085,-0.7879 2.2815,-0.7137 0.8911,0.6996 0.6361,2.1088 1.9539,0.6552 0.4674,-0.5157 1.7082,-1.759 1.7082,-2.4687 -0.3178,-0.5554 -1.468,-0.7047 -2.0007,-1.1349 -0.6132,-0.4951 -0.6903,-1.2637 -0.6903,-2.0007 -0.0499,-0.0999 -0.2239,-0.4037 -0.3159,-0.4563 -0.0901,-0.1575 -0.3595,-0.241 -0.5148,-0.3159l-0.6786 -0.3276c-0.0883,-0.0425 -0.2404,-0.1515 -0.3276,-0.1638 -0.0647,-0.0518 -0.1395,-0.096 -0.2106,-0.1404 -0.166,-0.4981 -0.0014,-0.7529 0.0936,-1.2285 0.0827,-0.4137 0.1719,-0.6551 0.4095,-1.0062 0.1097,-0.162 0.2457,-0.2438 0.2457,-0.4563l-0.0117 -0.0117 -0.0117 -0.0117c-0.3582,-0.0887 -0.7565,0.1767 -1.0998,0.2574 -0.3612,0.0848 -0.7806,-0.0819 -1.1466,-0.0819 -0.0238,0.0477 -0.125,0.0512 -0.1404,0.1287 -0.19,0.0471 0.2887,0.4818 0.3627,0.5382 0.2209,0.1681 0.2925,0.2883 0.2925,0.5616 0,0.5696 -0.1644,1.1437 -0.819,1.0179 -0.3121,-0.06 -0.6433,-0.0941 -0.8541,-0.3861 -0.2469,-0.3419 -0.3575,-0.889 -0.468,-1.2753 -0.083,-0.0117 -0.3603,-0.1881 -0.4329,-0.234 -0.2605,-0.0645 -0.2447,-0.5586 -0.6786,-0.585 -0.3506,-0.0214 -0.2808,-0.6311 -0.2808,-0.8775 0,-0.3164 -0.1013,-0.1968 -0.2808,-0.3393 -0.0339,-0.0268 -0.1672,-0.7618 -0.1872,-0.8658 -0.0451,-0.2351 0.3421,-0.6201 0.5499,-0.6201 0.0227,0.0685 0.1504,0.1679 0.1755,0.2691l0.0351 0c0.1999,-0.6032 0.1252,-1.1685 -0.1521,-1.755 -0.1384,-0.2929 -0.8902,-1.3459 -1.2402,-1.1817 -0.5506,0.2585 -0.3667,0.2107 -0.5499,-0.351 -0.1477,-0.4526 -0.5714,-0.8814 -0.8073,-1.3221 -0.048,-0.194 -0.662,-0.4657 -0.8073,-0.6669 -0.1597,-0.2213 -0.2281,-0.5708 -0.2925,-0.8307 -0.0225,-0.0055 -0.0296,-0.0126 -0.0351,-0.0351 -0.9561,-0.2369 0.9869,-1.3689 -0.4095,-1.3689 -0.1108,-0.3346 0.0585,-0.4445 0.0585,-0.7488 -0.155,-0.0514 -0.5963,0.1004 -0.6201,-0.234 -0.0231,-0.3256 -0.2751,-0.5488 -0.4914,-0.8073 -0.5633,-0.6734 -0.824,-1.692 -1.8486,-1.1466 -0.5716,0.3043 -1.1958,0.315 -1.8018,0.6786 -0.7194,0.4315 -1.7748,0.9958 -2.0826,1.8486 -0.1615,0.4474 -0.3084,1.1456 -0.6552,1.4508 -0.4076,0.4076 -1.4508,1.1961 -1.4508,1.8018l-0.5499 0.2457c-0.2886,0.0409 -0.28,0.234 -0.702,0.234 -0.4311,0 -0.8871,0.1989 -1.3689,0.1989l-3.7323 0c-0.4353,0 -1.7126,0.1942 -2.0475,0.4446l-0.0585 -0.0117c0.215,0.1688 0.4553,0.3981 0.7956,0.5499 0.8029,0.358 1.7873,1.1828 1.638,2.1528 -0.0715,0.4652 -0.125,2.4164 0.4329,2.5272 0.0194,0.0339 0.0396,0.0601 0.0702,0.0819 0.0102,0.072 0.1216,0.2186 0.1638,0.2925 0.0554,0.0818 0.1737,0.3037 0.2574,0.3276 0.1175,0.4109 0.9853,0.7244 1.1817,1.2402 0.1734,0.4556 0.4797,0.7885 0.4797,1.3104 0,0.2501 -0.1189,0.6368 0.1053,0.7605 0.6138,0.3385 0.8934,0.3696 1.3689,0.9243 0.3571,0.4164 0.8775,1.0858 0.8775,1.6497 0.0314,0.3363 0.2073,0.6518 0.2223,0.9945 0.0162,0.3705 0.2179,0.6986 0.2574,1.0179 0.3896,0.4458 0.1835,0.7722 0.936,0.7722 1.1045,0 2.144,-0.1873 3.2058,-0.4329l1.5678 -0.3627c0.3561,-0.0824 0.7941,-0.2576 1.1232,-0.3042l0.0234 -0.0234c0.0745,-0.0105 0.1147,-0.0913 0.1638,-0.1404 -0.011,0.0083 -0.013,0.0137 -0.0259,0.0088 0,-0.5901 0.2276,-1.0081 -0.3016,-1.4558 -0.3952,-0.3344 -0.7485,-0.3721 -1.247,-0.4698 -0.5382,-0.1056 -0.6586,-0.0856 -0.6264,-0.7366 0.0278,-0.5641 0.1007,-0.2805 0.406,-0.0986 0.3956,0.2358 0.7218,0.6979 1.1426,0.8874 0.1659,0.0746 0.3504,0.1125 0.5104,0.1972 0.1088,0.0577 0.2518,0.2726 0.3538,0.2726 0.1047,-0.419 -0.101,-0.797 -0.3828,-1.0788 -0.1479,-0.1479 -0.2836,-0.3342 -0.3654,-0.5278 -0.0417,-0.0986 -0.2572,-0.4794 -0.1624,-0.5742 0.1031,-0.1031 0.589,0.5931 0.6496,0.7018 0.1389,0.2487 0.3921,0.4579 0.4814,0.0522 0.0399,-0.1811 0.0284,-0.7154 0.2668,-0.7714 0.0681,-0.0159 0.3257,0.2626 0.4118,0.319 0.3864,0.253 0.8336,0.1874 0.5974,0.8178 -0.1258,0.3356 -0.343,0.5582 -0.7076,0.6264 -0.4945,0.0926 -0.6554,0.1675 -0.6554,0.6786 0,0.1741 -0.0523,0.3345 -0.0696,0.5046 -0.0153,0.1508 0.1454,0.4082 0.2088,0.551 0.1718,0.1628 0.3943,0.2824 0.5802,0.4349 0.2132,0.1748 0.5821,0.1851 0.8424,0.3276 0.2053,0.1125 0.4799,0.0792 0.702,0.0351 0.0627,-0.1892 0.3968,-0.385 0.5616,-0.5031 0.1332,-0.0956 0.2809,-0.1361 0.3861,-0.2691 0.0659,-0.0835 0.2046,-0.2691 0.3159,-0.2691l0.0117 0.0117c0,0.3737 0.2998,0.374 0.585,0.4446 -0.0803,0.0554 -0.3861,0.1989 -0.3861,0.2925 0,0.0705 0.062,0.442 0.1053,0.4563 -0.0193,0.078 -0.218,0.0144 -0.2691,0.0117 -0.1672,-0.009 -0.1872,0.0159 -0.3159,0.0585 0,0.2352 0.0828,0.5956 0.3042,0.7371 0.0694,0.0443 0.1744,-0.0043 0.2574,0.0468 0.5011,0.3081 0.9601,0.2703 1.5093,0.1287 0.5401,-0.1392 0.8255,0.2943 1.2519,0.5382 0.1015,0.2031 0.2521,0.3154 0.3861,0.4914 0.2057,0.27 0.3975,0.451 0.7371,0.5031 0.1484,0.0228 0.3036,0.0468 0.4563,0.0468 0.1692,0 0.3141,-0.1214 0.468,-0.1404 0.0922,-0.0806 0.1978,-0.1215 0.2925,-0.2106 0.094,-0.0886 0.2294,-0.2719 0.3393,-0.3159l0.2106 -0.2691zm127.998 103.217c0.6902,-0.23 1.2229,-1.0869 1.9656,-1.3572 0.4505,-0.7221 2.6997,-1.1685 3.5217,-1.5795 1.0348,-0.5173 1.7351,-0.9589 2.6091,-1.7082 0.558,-0.4785 1.1434,-0.8485 1.5678,-1.4742 0.4897,-0.3496 0.9485,-0.7467 1.4976,-1.0062 0.6039,-0.2855 0.836,-0.8372 1.3572,-1.1817 0.8386,-0.5541 2.202,-1.7397 2.4921,-2.7378 0.1659,-0.5706 0.6122,-1.5676 0.3042,-2.106 -0.0202,-0.008 -0.0303,-0.0186 -0.0468,-0.0351 -0.3923,-0.0779 -0.7572,-0.1592 -1.1349,-0.2925 -0.3104,-0.1776 -0.4542,-0.4205 -0.819,-0.5382 -0.283,-0.0912 -0.6101,-0.0842 -0.8775,-0.2106 -0.4476,-0.2115 -1.1786,-0.6038 -1.4742,-1.0062 -0.2273,-0.3093 -0.6194,-0.5571 -0.9243,-0.7956 -0.4486,-0.3511 -0.839,-0.5447 -0.9594,-1.1349 -0.0141,-0.0693 -0.0176,-0.6377 -0.0351,-0.6435l0 -0.0234c-0.0975,-0.0241 -0.215,-0.0714 -0.3042,-0.1287 -0.3239,0 -0.5679,-0.105 -0.8541,-0.1404 -0.2841,-0.3979 -0.5733,-0.5217 -0.5733,-1.0998 0,-0.5183 0.1053,-1.0121 0.1053,-1.5093 0,-1.1616 -0.4349,-1.9269 -1.0881,-2.8314 -0.3757,-0.5204 -0.814,0.0354 -1.2753,-0.1521 -0.2008,-0.0815 -0.3461,-0.2925 -0.5616,-0.2925 -0.2507,0.2507 -0.2974,0.4698 -0.6903,0.5499 -0.4159,0.0849 -0.5249,0.2645 -0.8892,0.3978 -0.7852,0.2872 -0.9584,-0.9162 -0.7605,-1.4274l0.0468 -1.5678c0.0139,-0.4698 -0.1532,-0.5637 -0.0117,-1.0647 0.0719,-0.2549 -0.2734,-0.2243 -0.1521,-0.5733 0.1443,-0.4155 0.3673,-0.6892 0.4095,-1.17 0.0236,-0.2684 -0.157,-1.479 -0.4212,-1.5444 -0.1265,-0.2531 -0.9428,-0.3564 -1.2051,-0.8541 -0.2837,-0.5381 -0.6964,-1.0021 -0.9828,-1.521 -0.8413,-0.7352 -1.4825,-1.5797 -2.34,-2.2464 -0.77,-0.0694 -2.3859,-1.6839 -2.9367,-2.2347 -1.0326,-1.0326 -3.1615,-1.1279 -4.2705,-2.1177 -0.9008,-0.3002 -1.8504,-0.9837 -2.7144,-1.4157 -0.8036,-0.4018 -1.366,-1.0424 -2.2698,-1.3221 -1.4239,-0.4408 -3.0319,-1.1618 -4.4928,-1.3689 -0.0352,-0.0282 -0.0987,-0.0526 -0.1404,-0.0585 -0.052,-0.0446 -0.0558,-0.0329 -0.1521,-0.0702 -0.6091,-0.2026 -1.524,-0.1521 -2.1645,-0.1521 -0.5138,0 -1.0262,0.4108 -1.2402,-0.2808 -0.0883,-0.2852 -0.7365,-0.5538 -1.0062,-0.6669 -0.9058,-0.3797 -0.7582,0.7137 -1.1817,0.7137 0,-0.355 0.2504,-0.7758 0.3276,-1.1115 0.0973,-0.4225 -0.3602,-0.5484 -0.6201,-0.7839 -0.6234,-0.5651 -1.4253,-0.8407 -2.1996,-1.1817 -0.6839,-0.3013 -0.893,-0.6903 -1.6614,-0.6903 -0.0562,-0.227 0.0372,-0.858 0.0885,-0.818 -0.6381,-0.4077 -1.2803,-0.9365 -1.8552,-1.3231 -0.832,-0.5596 -1.9895,-0.866 -2.9367,-1.1817 -0.7717,-0.2571 -1.2964,-0.0661 -2.0124,0.1287 -0.1377,0.1929 -0.4864,0.4798 -0.6669,0.6903 -0.1785,0.2083 -0.3258,0.6282 -0.4446,0.8775 -0.2854,0.5991 -0.1992,1.5283 -0.351,2.1879l0.1521 1.6263c0.0707,0.7556 0.3891,1.5898 0.585,2.3283 0.0894,0.3374 0.3051,0.6394 0.4563,0.9594 0.0768,0.1624 0.5116,0.9404 0.6201,1.0179 0.0411,0.3319 0.8157,0.8283 1.0179,1.1115 0.0927,0.1416 0.2736,0.4889 0.4212,0.5733 0.0501,0.2024 0.3167,0.446 0.3744,0.6903 0.1243,0.5263 0.117,1.047 0.117,1.6029 0,0.4074 -0.3848,1.3452 -0.8073,1.4508 -0.1906,0.2671 -0.5353,0.2864 -0.7137,0.6435 -0.124,0.248 -0.1769,0.4892 -0.3978,0.6786 -0.3134,0.2686 -0.9945,0.2171 -0.9945,0.8073 0,0.5065 -0.164,0.787 -0.5148,1.17 -1.1508,0.5015 -0.8632,1.5391 -1.3104,2.4336 -0.5541,0.1585 -0.8753,0.351 -1.5561,0.351 -1.1376,0 -1.9137,1.5436 -2.6325,2.2347 -0.4252,0.4089 -0.7991,0.9492 -1.3104,1.2636 -0.3799,0.2337 -0.4722,1.0469 -0.6435,1.4391 -0.0858,0.315 -0.5265,1.0805 -0.5265,1.3221 0,0.0656 0.4091,0.4182 0.468,0.6084 0.1802,0.5824 0.052,0.8281 0.5616,1.2987 0.3535,0.3263 0.4234,1.1533 0.7254,1.3689 0.0493,0.3982 1.1856,1.5905 1.5561,1.6965 0.0711,0.5016 0.684,1.1618 0.7488,1.6848 0.0366,0.2932 0.5274,2.5303 0.6318,2.5857 0.4568,0.2422 0.6195,1.0777 0.4797,1.5327 -0.0563,0.1831 -0.2845,0.2461 -0.2691,0.4329 0.0163,0.1971 0.3515,0.4378 0.3744,0.7605 0.078,1.0951 1.4391,0.4825 1.4391,1.7316 -0.0169,0.0056 -0.009,0.0041 -0.0234,0.0234 -0.4001,0 -0.1104,0.3744 -0.0351,0.4914 0.204,0.3165 0.1872,0.598 0.1872,0.9711 -0.0474,0.174 -0.048,0.5662 0.0702,0.7137 0.7213,0.1788 0.4888,0.6418 0.3978,1.1466 -0.0806,0.4468 0.3458,0.7647 0.5031,1.1583 0.2305,0.5763 0.5042,1.211 0.6201,1.8135 0.057,0.2968 -0.0322,0.7281 -0.0468,1.0296l-0.0819 1.6848c-0.0798,0.2595 -0.0691,0.5577 -0.1521,0.8073 0,1.1792 -0.4653,2.4139 -0.5616,3.5802 -0.0925,0.208 -0.0862,0.4544 -0.1755,0.6552 -0.0817,0.9892 -0.4799,2.0182 -0.5382,3.0186 -0.0257,0.4501 0.2815,2.117 0.5616,2.457 0.3602,0.4373 0.9181,1.4375 1.053,1.9773 0.4744,0.3387 0.706,0.704 1.2987,0.9477l1.4508 0.5967c0.7352,0.3023 1.4971,-0.0396 2.0007,0.6318 0.567,0.7561 1.1807,0.873 1.9071,1.3572 0.8695,0.4073 1.8398,0.7338 2.5974,1.3455 0.6856,0.5537 0.7137,0.9784 0.7137,1.8486 0.023,0.0076 0.0285,0.0574 0.0468,0.0819l0.0234 0c0.0305,0.0922 0.6506,-0.2752 0.7605,-0.3627 0.6732,-0.5357 1.1966,-1.0311 1.7433,-1.7082 0.2511,-0.3109 0.5418,-0.7378 0.9477,-0.7956 0.4029,-0.0573 1.1381,-1.7907 1.2987,-2.223 0.3115,-0.8379 1.1115,-1.0986 1.1115,-2.1411 0.2533,-0.459 0.1133,-1.1663 0.4914,-1.5444 0.3506,0 0.5134,-0.6757 0.7488,-0.8775 0.1865,-0.16 0.3756,-0.3498 0.4797,-0.585 0.0929,-0.2102 0.0762,-0.4506 0.2457,-0.6201l0.0234 0 0.0234 -0.0234c0.3536,0 0.7537,-0.5314 0.9945,-0.7722 0.2054,0 0.3312,0.1267 0.5382,0.0351 0.3721,-0.1645 0.7011,-0.1098 1.0881,-0.2223 0.4969,-0.1444 0.6809,-0.5405 1.0296,-0.8892 0.6295,-0.0168 0.8278,-0.6534 1.3104,-0.8541 0.4954,-0.6807 1.4111,-0.8519 2.1411,-1.1232 1.0239,-0.3805 1.0876,-1.0642 1.7901,-1.7667 0.6058,-0.1514 1.0844,-0.9634 1.638,-1.2402 0.3845,-0.1922 1.7873,-0.6441 2.1645,-0.5031 0.0906,0.0155 0.1063,0.0234 0.1755,0.0234 0.1766,0.1415 0.8442,0.2347 1.0881,0.3159 0.9084,0.3028 1.3604,0.4256 2.2581,0.0585 0.372,-0.1522 0.6907,-0.1475 1.0647,-0.2223 0.3535,-0.0706 0.5897,-0.267 0.9126,-0.3744l0.468 -0.1404zm-136.906 -108.386c-0.0898,0.0069 -0.1711,0.0167 -0.2494,0.0696 -0.0523,0.0354 -0.087,0.0954 -0.1334,0.1334 -0.0669,0.0546 -0.0779,0.1632 -0.0812,0.2436 -0.0046,0.1143 0.012,0.1743 0.0986,0.2436 0.0834,0 0.1436,-0.0561 0.2146,-0.0928 0.1115,-0.0578 0.2549,-0.0674 0.3132,-0.1914 0.0351,-0.0749 0.0077,-0.2952 -0.0406,-0.3596l-0.1218 -0.0464zm51.7304 16.5177c-0.5985,-0.1492 -1.257,-0.1925 -1.872,-0.3276 -0.5914,-0.13 -1.3426,-0.1751 -1.8954,-0.4329 -0.0842,-0.0052 -0.146,-0.0229 -0.2223,-0.0585 -0.4571,-0.0302 -1.2486,-0.2739 -1.6497,-0.5031 -0.7676,-0.4261 -1.5405,-0.6722 -2.3517,-0.9828 -0.4289,-0.1643 -1.414,-0.8139 -1.8486,-0.6669 -0.4652,0.1573 -0.8263,0.4602 -1.3455,0.5031 -0.2056,0.1598 -1.8666,0.2022 -2.1762,0.1404 -0.4914,-0.1635 -1.3289,-0.0018 -1.8486,0.0117 -0.5023,0.0131 -1.136,0.1725 -1.6146,0.0585 -1.1213,-0.2671 -2.2214,-0.0047 -3.3462,-0.1287 -0.0726,-0.0363 -0.1077,-0.0713 -0.1755,-0.1287 0.193,-0.6757 0.4022,-1.3757 0.6786,-2.0241 0.4689,-1.0996 1.5861,-1.2491 2.1528,-2.1645 0.4805,-0.776 -0.3744,-1.4697 -0.3744,-2.223 0.355,0.0705 0.5838,0.2762 1.0647,0.2925 0.9427,0.0319 1.2364,-0.1257 2.0007,0.4914 0.5686,0.4592 1.4375,0.4918 2.1411,0.5499 0.4642,-0.1004 1.3898,0.0304 1.8837,0.0702 0.854,0.0688 1.6493,0.4763 2.4687,0.5031 0.7133,0.0234 1.8494,-0.0657 2.4921,0.234 0.1586,0.0131 0.3505,0.0779 0.5031,0.1287 0.533,-0.0719 0.6661,0.0003 0.7839,-0.5616 0.0906,-0.4327 0.1448,-0.8361 0.5031,-1.1232l0.0936 0c0.9542,0.7647 1.3157,2.021 2.6676,2.3283 0.3571,0.0812 0.7124,-0.0208 1.0647,0.0234l1.6731 0.2106c0.6799,0.0855 1.285,-0.4329 1.9305,-0.4329 0.24,-0.1407 1.6485,-0.0481 2.0241,-0.0585 0.4031,-0.0112 2.0792,-0.243 2.1762,0.1755 0.1665,0.7177 0.5143,0.5265 1.2051,0.5265l0.0234 0.0234c0,1.5575 -2.3799,3.247 -3.4983,4.1418 -0.7616,0.6092 -1.6659,0.7995 -2.574,1.1466 -0.6347,0.2427 -1.8368,0.9736 -2.5038,0.585l-0.234 -0.3276zm1.6731 8.9037c-0.3239,-0.5192 -1.4244,-1.5125 -2.0124,-1.7082 -0.6592,-0.5865 -2.2172,-0.6197 -3.042,-0.7137 -0.8325,-0.0948 -2.7077,-0.365 -3.4398,0.0468 -0.0194,0.0044 -0.0388,0.0089 -0.0585,0.0117 -0.241,0.1802 -0.7961,0.286 -0.9594,0.5148 -0.4331,0.1967 -0.3718,1.1644 -0.2223,1.521 0.3886,0.9272 1.2955,0.9845 1.989,1.5327 0.7881,0.6228 1.0236,1.3032 1.2519,2.2698 0.0728,0.901 -0.0951,1.4737 0.1404,2.3868 0.1333,0.5172 0.8344,1.4066 1.1583,1.8603 0.6162,0.0763 1.2634,0.0079 1.8954,-0.0585 0.4469,-0.047 0.995,-0.3314 1.404,-0.1638 0.232,0.0951 1.5992,-0.9522 2.0826,-1.053 0.2686,-0.0559 0.4686,0.111 0.702,-0.1404 0.5843,-0.6291 1.7435,-2.2839 1.4274,-3.1473 -0.4248,-1.1599 -1.3022,-1.9106 -2.1411,-2.7495l-0.1755 -0.4095zm7.4646 18.252c0.4231,-0.0974 0.7564,-0.92 1.1349,-1.17 0.1677,-0.1108 0.2701,-0.1488 0.468,-0.1053 0.6391,0.1408 0.2082,0.005 0.702,-0.2457 0.8544,-0.4339 1.4067,-0.9504 2.0826,-1.6263 0.2403,-0.2403 0.4095,-0.1725 0.6786,-0.2925 0.6905,-0.3079 0.8909,-0.6965 1.638,-0.3978 0.4875,0.195 1.251,1.088 0.9126,1.6263 -0.2815,0.4476 -0.9516,1.4547 -0.6903,1.9773 0.3883,0.0962 0.8409,-0.0819 1.2519,-0.0819l0.0117 0.0117c0,0.2449 -0.3859,0.7721 -0.5733,0.9126 -0.446,0.3346 -0.4936,-0.0995 -0.9126,-0.0117 -0.3001,0.0628 -0.5695,0.2866 -0.8892,0.3627 -0.6361,0.1516 -0.6534,-0.7798 -1.5561,-0.2457 -0.2993,0.177 -1.0586,0.3793 -1.3689,0.1989 -0.4362,-0.2537 -0.3032,-0.3371 -0.6552,0.1053 -0.2283,0.2868 -0.9777,0.3693 -1.2636,0.1053 -0.2784,-0.2569 -0.44,-0.6791 -0.8073,-0.8892l-0.1638 -0.234zm32.8419 -7.5933c-0.4181,0.3804 -0.8502,0.8046 -1.1817,1.2636 -0.2959,0.4099 -0.6966,0.2955 -1.1349,0.2457 -0.7628,-0.0866 -2.2306,0.7252 -2.7963,1.2285 -0.5377,0.1698 -1.4205,0.0695 -1.989,-0.0117 -0.7779,-0.111 -1.1541,-0.1702 -1.9422,-0.0351 -0.9483,0.3161 -2.2761,1.6566 -3.3345,1.521 -0.2412,-0.0309 -0.4068,-0.2993 -0.6201,-0.2691 -0.5877,0.8232 -0.1072,1.1781 -1.3923,0.8658 -0.7699,-0.187 -1.3102,-0.0119 -1.3923,-1.0062 -0.0646,-0.0862 -0.0683,-0.1575 -0.1638,-0.234 -0.4027,0 -1.1507,0.533 -1.5093,0.7488 -0.5933,0.3572 -0.7095,0.1571 -1.2519,-0.0702 -0.4152,-0.4152 -0.4638,-0.3409 -0.6084,-0.9243 -0.2183,-0.0433 -0.4827,-0.1441 -0.702,-0.1638 -0.1808,-0.2533 -0.4043,-0.4862 -0.6201,-0.702 -0.3105,-0.3105 0.0105,-0.4445 0.1872,-0.7488 0.3161,-0.5446 0.1474,-1.5616 0.0936,-2.1762 -0.052,-0.5934 -0.0391,-1.2629 -0.234,-1.8252 -0.0997,-0.2879 -0.2887,-0.4833 -0.3978,-0.7605 0,-0.5112 -0.0501,-1.2217 -0.117,-1.7433 -0.095,-0.7414 -0.4345,-0.8429 -1.0413,-1.1583 -1.1965,-0.6221 -1.8939,0.4314 -2.6091,1.1466 -0.2485,0 -0.706,-0.6307 -0.9009,-0.7956 -0.4518,-0.3822 -0.7864,-0.5093 -1.3689,-0.5733 -0.4385,-0.0481 -0.4984,-0.1909 -0.8658,-0.3627 -0.3526,-0.1648 -0.8825,-0.3029 -1.1232,-0.6201 -0.1288,-0.3098 -0.4304,-0.5406 -0.6318,-0.7956 -0.204,-0.2581 -0.4323,-0.499 -0.6435,-0.7488 -0.0966,-0.1144 -0.2866,-0.2687 -0.351,-0.3978 -0.1533,-0.0765 -0.3466,-0.3652 -0.4446,-0.5148 -0.1111,-0.2446 -0.5062,-0.3879 -0.585,-0.585 -0.2662,-0.1523 -0.3393,-0.62 -0.3393,-0.8892 0,-0.4777 -0.1166,-0.8936 -0.3042,-1.3338 -0.1142,-0.2679 -0.3244,-0.5803 -0.351,-0.8658 0.302,-0.5612 0.2059,-1.1944 0.4446,-1.755 0.1047,-0.2458 0.8531,-1.9025 1.0062,-1.989 0.6459,-0.3649 1.1583,-0.4274 1.1583,-1.2636l2.3868 -0.0936c0.5289,-0.0207 1.2712,0.6456 1.6263,1.0179 0.3114,0.3264 0.7098,0.6736 1.0998,0.9009 0.474,0.2764 0.465,1.2089 0.8892,1.6848 0.5611,0.6297 0.8811,1.4778 1.4976,2.0943 0.0509,0.0579 0.0749,0.0755 0.1053,0.1287 0.474,0.2958 0.6012,1.2313 1.3338,1.053 0.5665,-0.1378 1.1601,-0.6417 1.6965,-0.8892 0.8268,-0.3814 1.7617,-0.1218 2.5272,-0.585 0.3456,-0.209 0.7432,-0.4138 1.1349,-0.5148 0.4325,-0.1114 0.7576,-0.4296 1.1934,-0.5382l2.691 0.1521c0.3945,0.0222 0.9539,0.0835 1.3221,0.234 0.3498,0.1431 0.5693,0.4855 0.8658,0.6201 0.0601,0.0752 0.1495,0.1575 0.2223,0.2223 0.2757,0.6071 1.0959,1.1987 1.5093,1.7667 0.2746,0.1524 0.6422,0.6776 0.8307,0.936 0.2531,0.3472 0.9278,0.493 1.3338,0.5265 0.2462,0.0069 0.4961,0.107 0.6903,0.2457 0.1607,0.4416 0.299,0.8972 0.6669,1.2051 0.4111,0.3439 1.1129,0.0415 1.6029,0.0819 0.034,0.0272 0.0865,0.0374 0.1287,0.0585 0.4214,0.6754 1.2821,1.1246 2.0475,1.1817 2.643,0.1972 3.412,3.2593 2.223,5.3001l-1.5678 1.5093z"/>
 </g>
</svg>
