<?xml version="1.0" encoding="UTF-8"?>
<!DOCTYPE svg PUBLIC "-//W3C//DTD SVG 1.1//EN" "http://www.w3.org/Graphics/SVG/1.1/DTD/svg11.dtd">
<!-- Creator: CorelDRAW -->
<svg xmlns="http://www.w3.org/2000/svg" xml:space="preserve" width="210mm" height="297mm" style="shape-rendering:geometricPrecision; text-rendering:geometricPrecision; image-rendering:optimizeQuality; fill-rule:evenodd; clip-rule:evenodd"
viewBox="0 0 210 297"
 xmlns:xlink="http://www.w3.org/1999/xlink">
 <defs>
  <style type="text/css">
   <![CDATA[
    .str2 {stroke:#2F3133;stroke-width:0.1}
    .str1 {stroke:black;stroke-width:0.1;stroke-opacity:0.501961}
    .str0 {stroke:black;stroke-width:0.1}
    .str3 {stroke:black;stroke-width:0.5}
    .fil5 {fill:none}
    .fil0 {fill:white}
    .fil2 {fill:#1F1A17;fill-rule:nonzero}
    .fil3 {fill:#C2C1C1;fill-rule:nonzero}
    .fil4 {fill:white;fill-rule:nonzero}
    .fil6 {fill:black;fill-rule:nonzero}
    .fil1 {fill:white;fill-rule:nonzero;fill-opacity:0.501961}
   ]]>
  </style>
 </defs>
 <g id="Plan_x0020_1">
  <metadata id="CorelCorpID_0Corel-Layer"/>
  <path class="fil0 str0" d="M175.695 191.885l0.1632 88.9861 0 0 -4.079 -0.1404 -16.17 -0.0708 -57.8414 0.5524 0 0 -3.6483 -0.0917 -2.9015 0.0712 -7.6947 -0.1995 -2.6455 0.057 -2.1335 -0.171 -3.6696 0 -3.4277 0.1496 -3.5274 0.0214 -4.2426 -0.0914 -44.298 -0.0725 0 0 -0.0102 -63.7161c0,-0.2423 0.0634,-1.0441 0.1395,-1.5073 0.008,-0.0486 0.0241,-0.0933 0.0526,-0.1318 0.106,-0.1432 0.2804,-0.3175 0.0996,-0.4989 -0.3434,-0.3443 0.4308,-0.4614 0.6542,-0.6271 0.3942,-0.2923 0.1742,-0.7128 0.3698,-1.1544 0.034,-0.0768 0.6055,-1.0054 0.313,-1.126 -0.0252,-0.0104 -0.0094,-0.0517 -0.0285,-0.0712 -0.0188,-0.019 -0.0076,-0.0118 -0.0284,-0.0286 -0.0295,-0.024 -0.0838,-0.0321 -0.0854,-0.057 -0.0231,-0.3573 0.4014,-0.6708 -0.0853,-0.8409 -0.0531,-0.0186 -0.0619,-0.2651 0.0142,-0.3135 0.0349,-0.0221 0.0278,-0.0424 0.0569,-0.057 0.0094,-0.0047 0.019,-0.0096 0.0284,-0.0143 0.2897,-0.1457 0.2792,-0.2399 0.3983,-0.3706 0.1088,-0.1192 0.3942,-0.0061 0.4267,-0.3278 0.0218,-0.2161 -0.1848,-0.446 -0.1422,-0.6128 0.1521,-0.5952 0.2571,-0.537 0.0426,-1.0975 -0.0117,-0.0308 -0.0556,-0.0464 -0.0853,-0.057 -0.2099,-0.0749 -0.4573,-0.195 -0.5974,-0.2708 -0.0433,-0.0235 -0.0173,-0.1032 -0.0711,-0.1283 -0.2211,-0.1029 -0.1821,-1.1203 -0.1422,-1.3112 0.1371,-0.6567 1.2848,-0.1676 1.3085,-1.3682 0.0004,-0.0246 0.0818,-0.1048 0.0996,-0.1283 0.0113,-0.0148 0.0275,-0.0034 0.0426,-0.0143 0.0087,-0.0064 0.1535,-0.131 0.1565,-0.1425 0.0104,-0.0386 0.0853,-0.2851 0.0853,-0.2993 0,-0.0143 0,-0.0286 0,-0.0428 0,-0.2284 0.5263,-0.7865 0.5263,-1.0404 0,-0.5724 -0.748,-0.3606 -0.8676,-0.5986 -0.0347,-0.0689 -0.1678,-0.188 -0.2276,-0.2423 -0.0458,-0.0415 -0.2341,-0.12 -0.256,-0.1283 -0.1008,-0.0387 -0.5542,-0.0842 -0.6258,-0.114 -0.3848,-0.16 0.0886,-1.4502 -0.2134,-1.7531 -0.2422,-0.2428 -1.4579,-0.2912 -1.7068,-0.1282 -0.1208,0.0792 -0.1133,0.791 -0.2986,0.6984 -0.2003,-0.1 -0.3235,-0.4662 -0.4552,-0.5559 -0.0251,-0.017 -0.0203,-0.0171 -0.0284,-0.0428 -0.0545,-0.1738 -0.2684,-0.282 -0.3841,-0.4275 -0.0871,-0.1094 -0.2245,-0.4591 -0.3271,-0.5131 -0.0328,-0.0173 -0.072,-0.0937 -0.0853,-0.1283 -0.0889,-0.2316 -0.4037,-0.4226 -0.4836,-0.2423 -0.4248,0.9591 -1.2738,1.0732 -1.977,0.4418 -0.127,-0.1141 -0.4519,-0.5436 -0.5263,-0.6556 -0.1122,-0.1692 -0.5464,-0.2962 -0.2845,-0.6271 0.09,-0.1136 0.542,-0.2876 0.6259,-0.3706 0.0934,-0.0925 0.2418,-0.105 0.2418,-0.3705 0,-0.2948 -0.0029,-0.527 -0.0854,-0.8124 -0.0338,-0.1167 -0.3337,-0.3564 -0.4124,-0.4419 -0.1798,-0.1951 -0.4686,-0.3789 -0.6116,-0.6983 -0.1756,-0.3925 -0.2206,-0.5317 -0.0712,-0.8694 0.0179,-0.0405 0.1104,-0.0021 0.128,-0.0428 0.0849,-0.1952 0.2877,-0.4384 0.3556,-0.6841 0.0702,-0.2543 0.0711,-0.5922 0.0711,-0.8694 0,-0.2795 -0.4293,-1.2733 -0.1991,-1.468 0.2502,-0.2118 0.6724,-0.2093 0.7823,-0.7839 0.0888,-0.4639 0.3374,-0.516 0.7965,-0.7697 0.3276,-0.1809 0.4164,-0.4863 0.5262,-0.8694 0.087,-0.3034 -0.3986,-0.6158 -0.128,-0.7554 0.9187,-0.4743 0.4419,-0.8672 0.7112,-1.4537 0.2772,-0.6036 0.4995,-0.7779 0.5547,-1.5108 0.0374,-0.4976 0.7395,-0.6801 0.6258,-1.126 -0.0736,-0.2884 -0.0799,-0.5819 0.256,-0.6983 0.1659,-0.0575 0.3021,-0.9331 0.3983,-1.1688 0.1735,-0.4255 0.8105,-0.7659 1.2516,-0.7411 0.2266,0.0127 1.8315,-1.2007 1.8775,-1.411 0.0999,-0.4571 0.2757,-0.7121 0.4124,-1.1259 0.0449,-0.1358 0.6137,-0.8501 0.3698,-0.955 -0.0495,-0.0213 -0.051,-0.0823 0,-0.0997 0.5037,-0.1721 0.8831,-0.5947 1.1663,-1.069 0.3462,-0.5796 0.3555,-1.3107 0.6116,-1.9383 0.199,-0.4874 -0.6688,-0.9433 -0.2987,-1.2115 0.4399,-0.3186 0.3465,-0.2504 0.2276,-0.6414 -0.0071,-0.0233 -0.0228,-0.027 -0.0427,-0.0285 -0.2295,-0.0184 -0.2099,0.6079 -0.4551,0.4276 -0.1457,-0.107 0.0616,-0.7083 0.1849,-0.8694 0.1103,-0.1439 0.1991,-0.2957 0.1991,-0.5131 0,-0.1837 -0.1145,-0.2834 -0.0995,-0.4988 0.0244,-0.3504 0.472,-0.494 0.7254,-0.6557 0.2084,-0.1331 0.4545,-0.5173 0.5547,-0.6698 0.1457,-0.2219 0.3271,-0.5154 0.3271,-0.8267 0,-0.3341 -0.0092,-0.4823 0.0853,-0.7839 0.0066,-0.0211 0.1171,-0.0821 0.128,-0.0855 0.0563,-0.0174 0.1085,-0.0176 0.1565,-0.057 0.0426,-0.0351 0.1165,-0.0956 0.1564,-0.1283 0.05,-0.0408 0.1037,-0.0684 0.1423,-0.0997 0.0318,-0.0257 0.0061,-0.0386 0.0426,-0.057 0.1254,-0.0631 0.1772,-0.4464 0.2276,-0.5701 0.0732,-0.1798 0.3297,-0.2537 0.4552,-0.5559 0.1916,-0.4616 0.1689,-0.9902 0.3555,-1.4823 0.1879,-0.4952 0.1011,-0.9728 0.2276,-1.468 0.0434,-0.17 0.1633,-0.5963 0.2133,-0.7269 0.0309,-0.0805 0.142,-0.5635 0.1849,-0.6698 0.1023,-0.2539 0.2711,-0.3645 0.4125,-0.5701 0.2833,-0.4121 -0.132,-1.2674 0.1849,-1.8671 0.2325,-0.4399 0.4393,-0.7363 0.6116,-1.2115 0.2715,-0.7491 0.3505,-1.0979 0.9956,-1.639 0.5228,-0.4384 0.5444,-1.1061 0.6543,-1.6818 0.0065,-0.0341 0.0291,-0.0613 0.0569,-0.0856 0.0918,-0.0802 0.1983,-0.2286 0.3129,-0.2993 0.091,-0.0562 0.2933,0.0467 0.3129,-0.057 0.0709,-0.3755 0.1577,-0.7705 0.0711,-1.1972 -0.1125,-0.5536 0.1169,-0.6049 0.3698,-1.1117 0.1679,-0.3363 0.1794,-0.6083 0.2845,-0.9264 0.0802,-0.2426 0.5574,-0.2776 0.6543,-0.4988 0.2027,-0.4627 0.6684,-0.4162 0.6684,-0.898 0,-0.3689 0.4709,-0.5753 0.3414,-1.0832 -0.0755,-0.2961 -0.1985,-0.5409 -0.3271,-0.7126 -0.0729,-0.0972 -0.2377,-0.3509 -0.2987,-0.4561 -0.3343,-0.5756 -1.0072,-1.1639 -1.1521,-1.7815 -0.0971,-0.4135 -0.0464,-1.9701 -0.4267,-2.2234 -0.2563,-0.1708 -0.569,-0.5651 -0.8249,-0.7982 -0.2364,-0.2152 -0.6642,-0.2439 -0.9814,-0.3421 -0.3759,-0.1163 -0.6863,0.0143 -1.081,0.0143 -0.1703,0 -1.0618,-1.3884 -1.2374,-1.5108 -0.2693,-0.1876 -0.4471,-0.1702 -0.8534,-0.0427 -0.1175,0.0369 -0.6333,0.2827 -0.6969,0.228 -0.0504,-0.0432 -0.1559,-0.18 -0.2134,-0.1995 -0.276,-0.0941 -0.4114,-1.0973 -0.5689,-1.3255 -0.3822,-0.554 -1.3356,-1.0181 -1.5788,-1.5678 -0.3227,-0.7297 -0.0077,-1.6479 -0.5547,-2.1949 -0.0048,-0.0047 -0.0095,-0.0096 -0.0142,-0.0142 -0.0408,-0.0408 -0.22,-0.0416 -0.2702,-0.0713 -0.1241,-0.0737 -0.2195,-0.5654 -0.2418,-0.6984 -0.0042,-0.0249 -0.0402,-0.0382 -0.0569,-0.057 -0.0179,-0.02 -0.0146,-0.0055 -0.0285,-0.0285 -0.033,-0.0542 -0.1143,-0.1242 -0.1564,-0.171 -0.0298,-0.0333 -0.0984,-0.0314 -0.1138,-0.0713 -0.0498,-0.1296 -0.0857,-0.289 -0.1233,-0.4506l0 0c-0.0401,-0.1719 -0.0826,-0.3465 -0.1469,-0.4901 -0.0805,-0.1796 -0.0648,-0.9462 -0.2276,-1.0262 -0.0382,-0.0188 -0.0969,-0.1242 -0.128,-0.1567 -0.024,-0.0252 -0.016,-0.0344 -0.0427,-0.057 -0.0202,-0.0172 -0.0063,-0.0425 -0.0284,-0.0571 -0.0454,-0.0298 -0.1923,-0.6323 -0.2134,-0.6983 -0.0079,-0.0249 -0.0283,-0.0209 -0.0426,-0.0428 -0.0273,-0.0421 -0.1195,-0.1677 -0.1423,-0.1995 -0.0438,-0.0614 -0.0824,-0.1171 -0.128,-0.1425 -0.1269,-0.071 -0.2736,-0.1023 -0.4409,-0.1283 -0.0278,-0.0043 -0.0241,-0.0216 -0.0427,-0.0428 -0.0193,-0.0218 -0.0928,-0.1579 -0.0995,-0.171 -0.011,-0.0218 -0.0279,-0.0697 -0.0285,-0.0855 -0.0148,-0.3681 0.436,-0.6028 0.7254,-0.6984 0.0254,-0.0084 0.0801,-0.078 0.0853,-0.0998 0.1277,-0.5373 0.0549,-0.6334 0.4196,-1.0903 0.1114,-0.1397 -0.0324,-0.445 0.0569,-0.6057 0.1238,-0.223 0.6749,-0.4997 0.2062,-0.734 -0.3883,-0.194 -0.4236,-0.4583 -0.704,-0.7554 -0.7289,-0.7725 0.1903,-1.2928 -0.1493,-2.088 -0.0156,-0.0365 -0.0609,-0.0415 -0.0712,-0.0855 -0.0749,-0.3203 -0.3801,-0.5756 -0.5973,-0.7269 -0.4459,-0.3108 0.0228,-0.9687 -0.1707,-1.126 -0.1138,-0.0926 -0.4315,-0.2124 -0.5405,-0.3848 -0.016,-0.0253 -0.0664,-0.0406 -0.0853,-0.057 -0.0214,-0.0184 -0.0204,-0.0255 -0.0427,-0.0428 -0.0338,-0.0264 -0.3151,-0.9712 -0.384,-1.0404 -0.0047,-0.0048 -0.0095,-0.0096 -0.0142,-0.0143 -0.019,-0.019 -0.063,-0.0633 -0.0854,-0.0712 -0.1997,-0.0703 -0.5647,-0.0197 -0.6685,-0.2138 -0.3147,-0.5879 0.1569,-0.8946 0.3272,-1.525 0.0548,-0.2028 0.4408,-1.3976 0.2275,-1.5536l0.0117 -61.2651 -0.1988 -3.8624 0.3722 -19.8069 0.1154 -15.0713 0 0 25.6916 0.0128 0 0 0.0007 39.4272c-0.0091,0.0242 -0.0275,0.0984 -0.0498,0.1205l0 0.0214c-0.2706,0.2725 -0.1358,0.9374 0.1921,1.1117 0.4055,0.2154 0.5925,0.3174 0.7751,0.7554 0.1057,0.2534 0.0604,0.5581 0.1565,0.8124 0.1061,0.281 0.611,0.5247 0.832,0.7625 0.141,0.1516 0.1373,0.3286 0.1849,0.5202 0.0552,0.2227 0.2512,0.4363 0.4125,0.5987 0.3639,0.0819 0.5996,0.7133 0.8107,0.9905 0.1352,0.1774 0.2689,0.3707 0.4836,0.4561 0.1485,0.0591 0.6215,0.2213 0.6969,0.3278 0.6049,0.1507 0.6116,0.7163 0.6116,1.24 0,0.5733 0.1471,1.0129 0.2489,1.5606 0,0.0766 0.0214,0.1564 0.0214,0.2209 0.4329,0.4359 0.8157,-0.1914 1.3298,0.3635 0.2431,0.2625 -0.0119,1.1472 0.3129,1.2471 0.3276,0.1007 0.6555,0.109 0.9743,0.2779 0.6038,0.32 0.4857,1.137 0.2703,1.6533 -0.2804,0.6724 -0.3928,0.9036 0.4124,1.24 0.3404,0.2187 0.3996,0.9616 0.4765,1.3397 0.163,0.8019 -1.0625,1.206 -1.4507,1.7246 -0.3265,0.436 -0.3983,0.6708 0.2346,0.8195l0.697 0.1639c0.2779,0.0653 0.1809,0.1218 0.1635,0.2993 -0.3785,0.2717 -0.0591,0.7459 0.1778,0.9834 0.1894,0.1289 0.1632,0.344 0.3343,0.4348 0.0973,0.0517 0.411,0.0098 0.5404,0.0285 0.1144,0.5159 -0.7338,1.129 -1.1449,1.3397 -0.5485,0.2813 -1.337,0.4479 -1.337,1.2257 0.012,0.006 0.0113,0.0065 0.0142,0.0214 0.3338,0.0656 0.6309,-0.1757 0.9885,0.0143 0.3085,0.164 0.2671,0.3349 0.7112,0.3349 0.5067,0 0.7381,0.3724 0.9316,0.7625 0.2736,0.5518 0.6918,0.4133 1.2303,0.4133 0.2937,0.1274 0.8621,0.499 0.9103,0.8409 0.438,0.294 0.5927,0.4631 0.7965,0.9763 0.2861,0.72 0.606,1.4261 1.2943,1.8386 0.3017,0.1809 0.73,0.0651 1.0027,0.2993 0.3255,0.2797 0.5184,-0.1924 0.7965,-0.1924 0.1672,0.1672 0.1705,0.351 0.1991,0.5844 0.2616,0.4925 0.9483,0.0142 1.3726,0.0997 0.1976,0.0398 0.396,0.1759 0.5974,0.2067 0.2496,0.0383 0.3347,-0.0923 0.5831,0.0499 0.0059,0.0207 0.0031,0.0139 0.0213,0.0285 0.0373,0.1897 0.0078,0.3474 0.0214,0.5416 0.0214,0.3058 0.4976,0.5624 0.64,0.8836 0.1513,0.341 0.1142,0.5057 -0.0498,0.8267 -0.2729,0.5344 0.4464,0.6078 0.7823,0.6627 0.253,0.0413 0.3556,0.1541 0.3556,0.4134 0,0.3771 0.044,0.2806 0.256,0.5629l0.1067 0.0713c0.0739,0.0104 0.1515,0.0691 0.2275,0.0784 0.2612,0.2072 0.6838,0.0712 0.9601,0.3706 0.264,0.2859 0.3183,0.68 0.4836,1.0119 0.2398,0.1502 0.3883,0.3978 0.7111,0.4276 0.3549,0.2816 0.5269,0.5931 0.6899,1.0333 0.2227,0.6012 0.6028,1.1367 0.7822,1.7673 0.2871,0.5752 0.5863,1.3777 1.0028,1.8528 0.0103,0.1048 0.1214,0.2 0.1422,0.3065l0.0427 0.0427 0.0284 0c0.0568,0.0424 0.6968,-0.0464 0.889,0.0214 0.2132,0.0751 0.6776,0.4921 0.704,0.734l0.8676 1.0333c0.2073,0.2468 0.833,0.3394 0.7183,0.7625 -0.2068,0.3628 -0.33,0.502 -0.1351,0.9193 0.1928,0.4131 -0.3627,0.5597 -0.3627,0.9051 0.1812,0.0446 0.4551,0.1234 0.512,0.3349 0.0514,0.1915 -0.0855,0.4993 0.0142,0.6485 0.2637,0.395 0.4921,0.1489 0.6045,0.7411 0.0763,0.4017 0.2022,0.5372 0.6045,0.3065 0.2551,-0.1462 0.4147,-0.3515 0.5832,-0.0143 0.1199,0.2398 0.5039,0.8976 0.768,0.9621 0.3595,0.0879 0.8844,-0.2048 1.0881,0.285 0.3301,0.4208 0.7496,0.552 0.448,1.1758 -0.1688,0.3493 -0.4496,0.7489 -0.4267,1.1545 0.0075,0.1335 0.3495,0.3566 0.4623,0.4347 0.5931,0.4102 0.5651,-0.4124 1.0809,-0.4917 0.6671,-0.1027 0.5304,-0.3965 0.8747,-0.8908 0.0201,-0.0028 0.0472,-0.0185 0.064,-0.0285 0.0992,0.0138 0.1455,0.114 0.2632,0.114 0.6573,0 0.9476,0.1322 1.3085,0.7198 0.1477,0.2404 0.3448,0.3005 0.2631,0.62 -0.062,0.2422 -0.2204,0.2347 -0.2204,0.5344 -0.1792,0.2259 -0.3912,0.315 -0.3912,0.6414l0.3698 0.4062c0.1489,0.1635 -0.0406,0.3298 0.2134,0.4703 0.1531,0.1658 0.6837,0.5797 0.896,0.3492 0.2421,-0.263 0.3672,-0.247 0.7183,-0.2636 0.1602,-0.0076 0.2499,-0.222 0.4267,-0.1497 0.1372,0.0562 0.2369,0.1813 0.384,0.2209 0.2489,0.0671 0.44,-0.0304 0.697,0.0998 0.1522,0.077 0.5013,0.3825 0.6329,0.3991 0.14,0.1962 0.5283,-0.4851 0.5831,-0.5701 0.2274,-0.3521 0.523,-0.6332 0.9388,-0.7198 0.1772,-0.0369 0.3757,0.017 0.5547,-0.0071 0.2526,-0.034 0.529,-0.1853 0.768,-0.1853 0.0634,0.0111 0.0588,0.0142 0.0996,0.0142 0.2192,0.2208 0.9924,0.1798 1.0169,0.6628 0.0308,0.6081 0.1031,1.5614 -0.3342,2.0381 -0.2477,0.2701 0.0415,0.4858 0,0.7768 -0.0683,0.4793 -0.2516,0.9619 -0.3129,1.4537 0.0945,0.5058 0.0669,1.3612 -0.5903,1.3612 -0.0805,-0.054 -0.4184,-0.0916 -0.5262,-0.0856 -0.2211,0.0125 -0.3627,0.6724 -0.3627,0.8338 0,0.5017 0.6672,0.41 0.5333,1.0832 -0.0524,0.2632 0.1182,0.3445 0.1636,0.5701 0.0505,0.2506 -0.1263,0.6167 -0.2418,0.8338 -0.032,0.0912 -0.0617,0.1351 -0.1067,0.2138 -0.0998,0.05 -0.338,0.2454 -0.3982,0.342 -0.0746,0.0376 -0.1297,0.1274 -0.1991,0.1711 -0.2583,0.4644 -0.0813,0.9417 0,1.4324 0.0667,0.4031 0.0086,1.1418 -0.2489,1.4751 -0.046,0.3463 -0.1067,0.6121 -0.1067,0.9834 0.3346,0.4148 -0.2547,0.9151 -0.4836,1.2471 -0.2706,0.3927 -0.094,0.7675 0,1.1687 0.0632,0.2694 -0.1177,0.4844 0,0.7625 0.1899,0.4484 0.3419,0.8179 0.0782,1.3184 -0.1339,0.2543 -0.5525,0.7725 -0.832,0.3777 -0.4451,-0.1112 -0.5291,0.0361 -0.9103,0.2779l-0.0213 0.0784c-0.1196,0.0295 -0.3055,0.2585 -0.2276,0.3991 0.1305,0.2353 0.0569,0.1753 0.0569,0.4276 0,0.5075 0.4708,0.4441 0.8392,0.5915 0.2994,0.1199 0.5515,0.3682 0.6258,0.6841 0.0622,0.2647 -0.1196,0.4665 -0.1778,0.7055 -0.0899,0.3685 0.1821,0.564 -0.2347,0.8338 -0.4439,0.2872 -0.6193,0.3617 -0.7538,0.905l0.0426 0.0855c0.1189,0.0291 0.1493,0.1425 0.3343,0.1425 0.1789,0 0.2794,-0.0868 0.4409,0.0285 0.0506,0.3616 -0.2294,0.6892 -0.1707,1.0904 0.0282,0.1925 0.2519,0.1327 0.3983,0.114 0.2473,-0.0315 0.3763,0.037 0.5974,0.0641 0.196,0.2769 0.6861,0.4038 0.9245,0.6699 0.4972,0.5551 0.2029,0.8306 -0.3272,1.1545 -0.5012,0.3061 0.2215,0.9721 0.4338,1.3183 0.4197,0.4206 0.5742,0.7792 0.3058,1.3184 -0.1302,0.2618 -0.2087,1.0265 -0.6471,0.6984 -0.6292,-0.4711 -0.9749,0.112 -1.6215,0.2351 -0.2173,0.0413 -0.7321,-0.0751 -0.832,0.1853 -0.1103,0.2872 -0.0557,0.4581 -0.2205,0.7483 -0.1986,0.0392 -0.207,0.4424 -0.3627,0.5986 -0.2309,0.2318 -0.3195,0.4808 -0.4978,0.7482 -0.1739,0.1895 -0.435,0.3388 -0.3484,0.6557 0.0759,0.2775 0.4408,0.171 0.6116,0.3848 0,0.2627 -0.0428,0.6742 0.1635,0.8694 0.3719,0.3517 0.8701,0.3249 1.0596,0.8053 0.2541,0.6438 -0.1387,0.5332 -0.4409,0.9121 0,0.1482 0.2717,0.2603 0.3272,0.4205 0.0963,0.2783 -0.0414,0.5199 -0.1992,0.7411 -0.0134,0.0332 -0.0449,0.096 -0.0497,0.1354 -0.1583,0.1127 -0.267,0.1639 -0.4765,0.1639 -0.1917,0 -0.9067,0.5097 -0.8961,0.6984 0.0215,0.38 0.7969,0.6888 0.6472,1.1473 -0.0939,0.2874 -0.4464,0.2259 -0.3414,0.7055 0.0568,0.2599 -0.1707,0.5052 -0.1707,0.7982 0,0.8227 0.6992,-0.5509 0.9459,-0.3207 0.2837,0.2646 0.443,0.7127 0.8534,0.4774 1.0204,-0.5852 0.4279,0.5964 0.7467,0.4989 0.2404,-0.0736 0.4112,-0.3456 0.6258,-0.0214 0.1253,0.1895 0.0709,0.6986 0.0853,0.9335 0.0151,0.0539 0.0165,0.1627 0.0427,0.2067 0,0.0547 0.0302,0.1077 0.0498,0.1568 0.2687,0.1928 0.3179,0.2031 0.6614,0.2637 0.7245,0.1278 0.8812,0.1895 1.1094,0.905 0.1032,0.3239 0.2902,0.7453 0.6827,0.7981 0.3727,0.0502 0.5041,-0.1952 0.7111,-0.4418 0.2562,-0.3054 0.701,-0.1914 0.9317,-0.5131 0.2666,-0.3715 0.442,-0.9334 0.4764,-1.3896 0.0788,-0.2887 0.0572,-1.2546 0.6187,-1.0191 0.2058,0.0862 0.3479,0.2776 0.5476,0.3777 0.2542,0.1273 0.2293,0.1466 0.4552,-0.0142 0.0183,-0.1497 0.0421,-0.7051 0.2987,-0.6414 0.1691,0.042 0.294,0.1853 0.4764,0.1853 0.1607,0 0.2933,-0.1624 0.4054,-0.2566 0.1974,-0.166 0.4551,-0.016 0.4551,-0.3848 0,-0.1432 -0.1411,-0.5159 0.0925,-0.5487 0.2712,0.0699 0.4251,-0.0491 0.6614,-0.1283 0.0794,-0.0796 0.2362,-0.1765 0.3342,-0.2423 0.1119,-0.0753 0.15,-0.2044 0.2133,-0.3135 0.0083,-0.1244 0.0498,-0.2397 0.0498,-0.3706 0,-0.1917 -0.0004,-0.3525 0.0996,-0.5202 0.1215,-0.204 0.3952,-0.2752 0.5618,-0.4418 0.2023,-0.0239 0.5669,-0.2483 0.7396,-0.3706 0.4111,-0.2909 -0.0204,-0.9793 0.0427,-1.3611 0.0483,-0.2928 0.2571,-0.3629 0.4693,-0.5131 0.173,-0.1223 0.3333,-0.3955 0.5761,-0.2922 0.0395,0.2012 0.2941,0.7555 0.576,0.5915 0.2309,-0.1344 0.6487,-0.666 0.7041,-0.0642 0.0761,0.6877 0.3117,1.1128 0.9245,1.4609 0.2392,0.4802 -0.2367,0.9038 0.0782,1.3469 0.0146,0.0054 0.0235,0.007 0.0355,0.0143 0.2564,0 0.8081,-0.6756 0.9743,-0.3421 0.1047,0.0654 0.3049,0.3084 0.3556,0.4204 0.2593,0.1634 0.4598,0.0623 0.7325,0.1354 0.0705,0.0188 0.5122,0.7949 0.4907,0.8766 -0.088,0.3343 -0.6329,0.3212 -0.6329,0.8908 0.0416,0.4893 -0.3172,0.9378 -0.2276,1.3682 0.0779,0.3747 0.4025,0.1879 0.6329,0.0855 0.1564,-0.0694 0.6682,-0.1178 0.8179,-0.0427 0.1288,0.2258 0.0849,0.5789 0.1706,0.848 0.0761,0.2386 0.2276,0.4432 0.2276,0.6984 0,0.2649 -0.4618,0.5656 -0.5689,0.8765 -0.1308,0.3799 -0.013,0.7431 0.1849,1.0832 0.091,0.1317 0.0387,0.2097 -0.064,0.3136 -0.0639,0.5185 0.3765,0.5604 0.7325,0.8124 0.6191,0.4381 0.5367,1.2368 0.2987,1.8956 -0.1304,0.3612 -0.2283,0.5101 -0.0854,0.8836 0.1464,0.3829 0.5408,0.5496 0.8107,0.8195 0.1247,0.1412 0.8036,0.7359 0.8036,0.8409 -0.195,0.263 -0.4069,0.4982 -0.1777,0.8694 0.2099,0.3397 0.3728,0.4983 0.6898,0.7412 0.3818,0.2924 0.4644,0.7505 0.7751,1.0974 0.1644,0.1834 0.3631,0.3278 0.5476,0.4917 0.2333,0.2074 0.305,0.4836 0.4765,0.7341 0.0348,0.1981 -0.1258,0.3135 -0.1138,0.5273 0.0153,0.2711 0.2692,0.2619 0.4267,0.3848 0.2541,0.0208 0.3308,0.2402 0.2489,0.4561 -0.1679,0.443 0.1769,0.7472 0.4836,1.0547 0.2401,0.2409 0.5768,-0.3102 0.8961,-0.2067 0.5457,0.1768 -0.384,0.9407 0.0071,1.1545 0.1972,0.1079 0.4285,0.0245 0.5689,0.2779 0.1273,0.23 0.0564,0.2907 0.2774,0.4846 0.5661,0.0508 1.0076,-0.1214 0.832,0.6271 -0.0976,0.333 0.1028,0.3773 0.1636,0.677 0.0986,0.4852 0.1698,0.8613 0.1066,1.3683 -0.033,0.2644 0.1354,1.0622 -0.0142,1.2328 -0.0798,0.4062 -1.1481,0.0768 -1.3796,0.5986l0 0.2067c0.1198,0.2396 0.2608,0.4094 0.4053,0.6271 0.1681,0.2303 0.215,0.4572 0.2632,0.734 0.1663,0.9546 1.0417,1.2323 1.3369,2.0452 0.0268,0.0192 0.053,0.0533 0.0783,0.0784 0.3932,0.0664 0.597,-0.1806 0.8605,0.1497 0.0558,0.5107 1.4033,0.4225 0.9316,1.2328 -0.0738,0.2363 -0.0852,0.4276 0.128,0.5986 0.4399,0 1.2998,-0.816 1.7352,-1.0618 0.8357,-0.472 1.9475,-0.041 2.3895,0.7839 0.3022,0.5638 0.5084,0.4276 1.0738,0.4276 0.4582,0 0.1494,0.4644 0.1494,0.6912 0.1835,0.2313 0.4537,0.1261 0.6116,0.3421 0.115,0.1575 0.0654,0.5453 0.1351,0.7554 0.0942,0.3311 0.1092,0.6933 0.2418,1.0119 0.0869,0.2091 0.3676,0.4605 0.5191,0.6414 0.3118,0.3726 0.1221,0.784 0.3627,1.1331 0.2635,0.3825 0.4583,0.5813 0.3983,1.0689 -0.2442,0.2795 -1.1392,0.5458 -0.8819,1.0262 0.0581,0.0693 0.3608,0.2139 0.3698,0.2779 0.1668,0.0954 -0.0522,0.4396 0.1565,0.5844 0.1369,0.0949 0.4854,0.09 0.5618,0.2351 0.1934,0.3668 -0.2855,0.7794 0.1494,1.1118 0.1816,0.1389 0.6967,0.4647 0.7467,0.6698 0.1081,0.4434 -0.6045,0.5098 -0.6045,0.9906 0,0.239 0.1928,0.357 0.3413,0.5059 0.2541,0.2549 0.2146,0.2368 0.1921,0.6272 -0.0362,0.1927 -0.0091,0.2742 0.0071,0.456 0.145,0.1251 0.204,0.324 0.3982,0.4419l1.1023 0.6698c0.322,0.1956 0.4847,0.0878 0.7538,0.4276 0.2388,0.3017 0.8238,0.2372 0.9672,0.563 0.1988,0.4513 0.4401,0.7413 0.8392,1.0404 0.0435,0.0666 0.1134,0.1223 0.1493,0.1853 0.386,0.1643 0.6655,-0.568 0.7254,-0.8623 0.1651,-0.8115 -0.9528,-1.0149 -0.2489,-1.81 0.1358,-0.1535 0.1602,-0.4229 0.2773,-0.5987 0.2429,-0.3643 0.9006,-1.3505 1.337,-1.3896 0.2833,-0.2205 0.4687,-0.0718 0.7183,-0.1211 0.0108,-0.0109 0.0145,-0.0135 0.0284,-0.0214l0.1565 -0.2779c0.3531,-0.1502 0.3081,-0.3158 0.7325,-0.278 0.2374,0.2089 0.8451,0.8417 1.1663,0.7626 0.2069,-0.051 0.3785,-0.2423 0.6116,-0.2423 0.2459,0 0.2264,0.3363 0.4693,0.3064 0.7881,-0.6913 0.9694,0.6437 1.6926,0.0071 0.2695,-0.0332 0.4529,0.0648 0.7112,0.114 0.3943,0.075 0.2173,0.421 0.5049,0.5844 0.0296,0.0086 0.0625,0.0115 0.0853,0.0285 0.2657,0 0.5485,-0.3812 0.7396,-0.5487 0.1501,0 0.6147,0.4077 0.7965,0.4988 0.2675,0.1342 0.5197,0.3065 0.8321,0.3065 0.5721,0 0.6421,0.6938 1.1023,-0.1283 0.2591,-0.4627 0.3911,-1.0051 0.3911,-1.5393 0,-0.9885 -0.0586,-1.1795 0.8961,-1.3397 0.8021,-0.1345 0.8733,-1.1465 1.6285,-1.1901 0.0794,0.028 0.0537,0.0285 0.0996,0.0285 0.2401,0.1438 0.4193,-0.0265 0.6471,0.2779 0.3219,0.4299 0.3195,1.1149 1.1023,1.0048 0.197,-0.0277 0.3684,-0.2175 0.5547,-0.228 0.1461,-0.0083 0.2561,0.0944 0.3911,0.1282 0.2851,0.0716 0.4499,-0.1115 0.7325,0.1711 0.1543,0.1543 0.3401,0.399 0.5761,0.399 0.3968,0 0.508,-0.5803 0.9316,-0.4988 0.3628,0.0697 0.378,0.4493 0.8463,0.1568 0.0855,-0.1716 -0.1924,-0.3711 -0.1636,-0.6058 0.0807,-0.1006 0.2398,-0.1223 0.3556,-0.0783 0.2884,0.1023 0.5944,0.2707 0.8605,0.4275 0.6177,0.3638 0.8717,-0.3577 1.3654,-0.5772 0.3956,-0.176 1.4295,-0.5216 1.8348,-0.4703 0.2885,0.2315 0.4509,0.7096 0.6827,1.019 0.2058,0.2746 0.5289,1.1006 0.8392,1.126 0.0271,0.0017 0.0514,0.0041 0.0782,0 0.1989,-0.1596 0.2987,-0.414 0.5476,-0.5131 0.211,-0.0839 0.5328,-0.1567 0.6685,-0.3492 0.3361,-0.4764 0.7106,-0.1842 1.1449,-0.3848 0.2672,-0.1235 0.4017,-0.559 0.6899,-0.62 0.4021,-0.0852 0.8765,0.3064 1.3512,0.3064 0.6229,0 1.1667,-0.3278 1.7778,-0.2138 0.4298,0.042 0.6505,-0.1205 1.0739,0.1426 0.4219,0.2621 1.5642,0.9519 1.9841,0.2993 0.4335,-0.6735 -1.2374,-0.3089 -1.2374,-0.7768 0.012,-0.0151 0.0119,-0.0167 0.0142,-0.0356 0.191,-0.1598 -0.0109,-0.3886 -0.1422,-0.5203 -0.2198,-0.2203 -0.3031,-0.7888 -0.2418,-1.0974 0.0378,-0.1908 0.1925,-0.3428 0.2418,-0.5416 0.045,-0.1819 -0.0458,-0.359 -0.0213,-0.5345 0.5447,-0.2178 1.0302,-0.3433 1.0951,-1.0689 -0.0898,-0.3209 -0.5668,-0.8813 -0.3982,-1.2186 0.3069,-0.1534 0.7703,-0.6628 1.081,-0.6628 0.3237,0 0.374,0.4169 0.704,0.392 0.428,-0.0324 0.4296,-1.2339 0.8107,-1.5535 0.5212,-0.4369 0.6357,0.8789 0.8036,1.0475 0.381,0.0467 0.6447,-0.5061 0.8392,-0.0926 0.1382,0.2937 0.2532,0.6194 0.512,0.8266 0.3704,0.2967 0.6998,0.5494 0.8463,1.0048 0.078,0.2424 -0.4271,1.2057 0.1565,0.9336 0.1931,-0.0185 0.2568,-0.0549 0.448,-0.0071 0.1627,0.228 0.4535,0.346 0.4978,0.6627 0.0468,0.3339 -0.4745,1.1145 -0.1493,1.2756 0.3378,0.1674 0.1198,0.7835 0.4195,0.8409 0.2971,0.057 0.4438,-0.0764 0.7396,0.1497 0.3797,0.2904 0.4462,0.7732 0.8321,0.9976 0.5101,0.2968 0.64,0.4408 0.64,1.0832 -0.085,0.1376 -0.0152,0.1789 0.0071,0.3136 0.0412,0.0527 0.0627,0.1489 0.1209,0.1853 0.1183,0.2353 0.5304,0.296 0.761,0.3349 0.3798,0.0642 0.5909,0.1288 0.8676,0.4062l0.3827 0.0925 0 0z"/>
 </g>
</svg>
