<?xml version="1.0" encoding="UTF-8"?>
<!DOCTYPE svg PUBLIC "-//W3C//DTD SVG 1.1//EN" "http://www.w3.org/Graphics/SVG/1.1/DTD/svg11.dtd">
<!-- Creator: CorelDRAW -->
<svg xmlns="http://www.w3.org/2000/svg" xml:space="preserve" width="210mm" height="297mm" style="shape-rendering:geometricPrecision; text-rendering:geometricPrecision; image-rendering:optimizeQuality; fill-rule:evenodd; clip-rule:evenodd"
viewBox="0 0 210 297"
 xmlns:xlink="http://www.w3.org/1999/xlink">
 <defs>
  <style type="text/css">
   <![CDATA[
    .str2 {stroke:#2F3133;stroke-width:0.1}
    .str1 {stroke:black;stroke-width:0.1;stroke-opacity:0.501961}
    .str0 {stroke:black;stroke-width:0.1}
    .str3 {stroke:black;stroke-width:0.5}
    .fil5 {fill:none}
    .fil0 {fill:white}
    .fil2 {fill:#1F1A17;fill-rule:nonzero}
    .fil3 {fill:#C2C1C1;fill-rule:nonzero}
    .fil4 {fill:white;fill-rule:nonzero}
    .fil6 {fill:black;fill-rule:nonzero}
    .fil1 {fill:white;fill-rule:nonzero;fill-opacity:0.501961}
   ]]>
  </style>
 </defs>
 <g id="Plan_x0020_1">
  <metadata id="CorelCorpID_0Corel-Layer"/>
  <path class="fil0 str0" d="M64.7872 17.8321c-0.056,0.1339 -0.1293,0.2714 -0.2236,0.4136 -0.1917,0.2894 -0.1908,0.548 -0.0142,0.9264 0.3678,0.7876 0.8532,0.7541 1.4507,1.24 0.2895,0.2353 0.9351,0.4192 1.2944,0.5558 0.7143,0.2714 0.2705,1.0806 1.0525,1.3968 0.7432,0.3004 1.4184,0.8337 2.0481,1.3397 0.2296,0.1846 0.9224,0.862 1.1094,1.0262 0.5312,0.4662 1.2341,1.7603 1.1379,2.4514 -0.2918,2.0954 0.2834,2.9024 1.4934,4.5181 0.4332,0.5784 1.4974,0.7276 2.1192,1.0262 0.8112,0.3894 1.4147,0.8772 2.3042,1.1687 0.3417,0.1119 1.1237,0.4076 1.3796,0.6271 0.3597,0.3084 0.2356,0.709 0.4694,1.0975 0.329,0.5464 0.8728,0.1507 1.337,0.4133 0.6647,0.3759 0.0995,1.8485 0.0995,2.4229 0,0.4567 0.0404,1.0315 0.256,1.4395 0.1939,0.3667 0.3477,0.8847 0.569,1.2543 0.0141,0.0237 0.0355,0.0445 0.0426,0.0712 0.0311,0.1169 0.0474,0.2375 0.0712,0.3563 0.0034,0.0189 0.0325,0.2328 0.0594,0.2418 0,0.6542 -0.4567,1.1346 -0.5837,1.7427 -0.083,0.3971 -0.1449,0.7876 -0.0851,1.1943 0.0393,0.267 0.0851,0.5719 0.0851,0.8408 0,0.2521 -0.1824,0.5106 -0.1824,0.7434l0.0665 0.6545c-0.0383,0.1029 -0.0776,0.3285 -0.1137,0.4261 -0.0401,0.1087 -0.2717,0.5092 -0.3413,0.5986 -0.2945,0.3777 -0.1565,1.5108 -0.1565,1.9811 0,1.0579 -0.1666,0.957 -0.7254,1.6961 -0.0244,0.0324 -0.0277,0.0351 -0.0711,0.0427 -0.5008,0.088 -1.2527,0.591 -1.6356,0.8979 -0.775,0.6211 -2.0489,0.7667 -2.5175,1.7674 -0.5115,1.092 0.4764,2.0447 -0.4125,3.0643 -0.8703,0.9984 -0.4983,3.0694 -0.6969,4.3328 -0.0035,0.0227 -0.0161,0.0381 -0.0427,0.0427 -0.5757,0.1 -1.7874,0.5418 -2.2473,0.9407 -0.9355,0.8112 -1.5429,2.4087 -3.001,2.4087 -0.6062,0 -1.0621,-0.4704 -1.6215,-0.4704 -0.3345,0 -1.2855,0.4774 -1.6072,0.5844 -0.3544,0.1178 -0.561,0.2532 -0.5974,0.6129 -0.007,0.0697 -0.0705,0.1326 -0.128,0.171 -0.0142,0.0094 -0.0285,0.019 -0.0427,0.0285 -0.1269,0.0846 -0.1109,0.0257 -0.1706,0.0855 -0.0871,0.0874 -0.1834,0.1559 -0.256,0.2566 -0.0574,0.0798 -0.1193,0.1698 -0.1849,0.2422 -0.046,0.0506 -0.1102,0.0914 -0.1565,0.1426 -0.2263,0.2499 -0.5465,0.5609 -0.7965,0.7269 -0.2089,0.1386 -0.5804,0.2793 -0.8818,0.3278 -0.6453,0.1038 -1.2479,0.355 -1.9059,0.456 -1.1952,0.1835 -2.6101,-0.2423 -3.8545,-0.2423 -0.6264,0 -0.944,0.1573 -1.3654,0.6129 -0.3924,0.4244 -0.8864,0.6516 -1.4508,0.6984 -0.0568,0.0047 -0.1138,0.0095 -0.1707,0.0142 -0.0491,0.004 -0.0573,0.0051 -0.0995,0.0285 -0.575,0.319 -1.9163,-0.2584 -2.5317,-0.285 -0.6609,-0.0285 -1.9079,0.4156 -2.2046,1.0119 -0.1893,0.3807 0.0987,0.8047 0.0142,1.2115 -0.0802,0.386 -0.3826,0.6766 -0.5547,1.0689 -0.1926,0.4387 -0.1896,2.0515 -0.3698,2.5655 -0.116,0.3312 -0.34,0.7642 -0.4694,1.0689 -0.1467,0.3457 -0.3762,0.7747 -0.4551,1.1403 -0.0187,0.0865 -0.1058,0.1392 -0.128,0.228 -0.0759,0.3037 -0.2839,0.462 -0.1423,0.7839 0.0661,0.1501 0.3965,0.4927 0.4979,0.5843 0.3056,0.2758 0.5609,0.608 0.8818,0.8267 0.0393,0.0268 0.0873,0.0991 0.0996,0.1568 0.0959,0.449 0.9767,1.9853 1.4649,2.0096 0.7519,0.0374 0.9507,-0.2763 1.4081,0.4988 0.4936,0.8362 0.8619,1.9103 1.4508,2.6653 0.2493,0.3195 0.093,1.0098 0.128,1.411 0.046,0.5258 0.2306,1.5524 0.128,2.0951 -0.113,0.5971 -0.0992,1.3117 -0.3556,1.8528 -0.1365,0.288 0.0762,1.366 -0.0711,1.7531 -0.0716,0.188 -0.2586,0.546 -0.4694,0.7411 -0.498,0.4612 -0.8739,0.5966 -1.2374,1.2543 -0.2597,0.4698 -0.6286,0.8015 -0.9529,1.1972 -0.3694,0.4505 -0.597,1.2341 -1.0525,1.582 -0.5716,0.4364 -1.0328,0.8105 -1.0525,1.5963 -0.0053,0.2152 -0.1433,0.5013 -0.0285,0.7126 0.0604,0.1111 0.1623,0.3628 0.256,0.4276 0.4851,0.3352 0.4684,1.2076 0.2987,1.6533 -0.2639,0.6935 -0.6141,1.1645 -0.7396,1.9241 -0.0919,0.5563 -0.2036,1.2733 -0.6258,1.6961 -0.3169,0.3175 -0.6597,0.4872 -1.0099,0.7411 -0.6793,0.4923 -0.8924,0.7777 -1.7494,0.9407 -0.774,0.1473 -1.5573,0.1188 -2.3326,0.3135 -0.5311,0.1333 -1.4748,0.604 -1.977,0.7269 -1.3185,0.3226 -4.6129,2.4604 -3.058,3.9337 0.7028,0.666 1.5465,0.97 1.1948,2.1664 -0.3312,1.1268 -0.9022,1.6941 -0.3556,2.9218 0.1563,0.351 0.3348,0.8113 0.3129,1.1972 -0.0027,0.0474 -0.031,0.0593 -0.0427,0.114 -0.0746,0.3479 -0.6517,0.6999 -0.9672,0.7127 -0.4894,0.0198 -0.8786,0.2525 -1.2089,0.5701 -0.0499,0.048 -0.1034,0.1003 -0.1582,0.1549l0 0c-0.1646,0.1638 -0.3427,0.3488 -0.4819,0.5007 -0.6779,0.7392 -1.1486,2.3369 -1.3796,3.3208 -0.1346,0.5732 0.1913,1.0741 0.0569,1.6818 -0.1548,0.7005 -0.6905,1.1952 -0.7112,1.9811 -0.0056,0.2144 -0.0934,0.3756 0,0.5416 0.2865,0.5086 -0.119,1.5675 -0.2987,2.0382 -0.3954,1.0359 0.2402,3.0698 0.569,4.0904 0.1753,0.5439 -0.0195,1.0879 0.3129,1.5963 0.3494,0.5346 0.7305,1.5213 1.0098,2.0952 0.3614,0.7429 0.5881,1.7044 1.2659,2.3231 0.2261,0.2065 0.1621,0.6951 -0.0711,0.9692 -0.2372,0.2786 -0.528,0.5787 -0.7112,0.9407 -0.2213,0.437 -0.1796,0.9756 0,1.3825 0.3906,0.8852 0.7946,1.2611 1.6926,1.8101 0.4003,0.2448 0.6922,0.5791 0.9956,0.9976 0.1966,0.2713 0.4005,0.6552 0.4267,0.9692 0.0317,0.3784 -0.2635,0.73 -0.3414,1.0975 -0.0892,0.4203 -0.1276,0.7003 0.0427,1.0689 0.2597,0.5624 0.3872,0.8984 0.9387,1.3683 0.697,0.5937 1.3939,1.1877 2.0908,1.7815 0.3841,0.3272 1.2432,1.4833 1.6783,1.7816 1.2788,0.877 1.9155,1.3105 2.3184,2.879 0.3935,1.5316 1.6342,0.3685 2.5033,1.1972 1.025,0.9775 1.0977,2.9981 2.0481,4.005 0.6426,0.6809 1.5761,1.0982 2.3184,1.6676 0.3734,0.2863 0.829,0.4625 1.2374,0.6841 0.3859,0.2095 0.6233,0.634 0.9387,0.8694 0.1145,0.0855 1.2014,0.9555 1.2801,0.9834 0.0669,0.0236 0.2689,0.1812 0.3129,0.2281 0.211,0.2244 0.7312,0.531 0.9814,0.7981 0.6667,0.7114 1.3142,0.9575 2.0908,1.4965 0.5093,0.3536 0.5949,0.8916 0.8534,1.411 0.173,0.3474 0.6674,0.4976 0.9103,0.8409 0.3921,0.5544 0.3299,1.6048 0.4267,2.2804 0.1374,0.9597 0.28,1.9188 0.4125,2.8791 0.0097,0.0706 0.0095,0.1426 0.0142,0.2138 0.0478,0.7211 1.1307,1.3203 0.8107,2.1236 -0.2685,0.6743 -0.7965,0.9105 -0.7965,1.7531 0,1.2087 1.0142,1.8453 1.0525,2.993 0.0339,1.0186 0.3251,2.4436 0.9672,3.2781 0.1678,0.218 0.2471,0.4454 0.4267,0.6414 0.1232,0.1346 0.2741,0.3438 0.4125,0.4703 0.2078,0.1897 0.4808,0.4478 0.7396,0.6271 0.3497,0.2421 0.6846,0.3973 1.0809,0.4418 1.2242,0.1376 1.8358,-0.7809 2.4037,-1.81 0.5254,-0.9523 1.1675,-2.0162 2.1193,-2.48 0.8473,-0.413 1.5419,-0.0245 2.3326,0.5131 1.1496,0.7815 1.5532,1.0687 3.0437,1.1972 1.4451,0.1245 2.4501,0.8013 3.4989,1.8529 1.1902,1.1935 4.417,0.9408 3.0722,3.5774 -0.3957,0.7758 -1.0309,1.2719 -1.7352,1.81 -0.3097,0.2365 -0.5117,0.7691 -0.8249,1.0832 -0.2852,0.2859 -0.7009,0.8272 -0.8392,1.126 -0.2233,0.4828 -0.0585,0.6296 0.2987,1.0832 0.1588,0.2018 0.0598,0.0582 0.0995,0.1425 0.063,0.134 0.5547,0.8984 0.5547,1.0547 0,0.019 0,0.038 0,0.057 0,0.7215 -0.0709,3.1211 -0.5973,3.6202 -0.5695,0.5398 -1.228,1.2424 -1.6641,1.9953 -0.5695,0.9835 -1.1494,2.3545 -1.209,3.4919 -0.0272,0.5182 0.066,1.0482 -0.2418,1.4395 -0.3887,0.494 -0.7776,0.9882 -1.1663,1.4823 -1.5801,2.0081 -2.3012,4.4769 -1.6357,7.0408 0.1398,0.5387 0.9043,2.346 1.1948,2.765 0.2381,0.3436 0.8456,0.4089 1.1236,0.5416 0.7775,0.371 1.132,1.0982 1.5219,1.8813 0.3363,0.6756 0.6535,1.0869 1.1378,1.6533 0.3437,0.4018 1.1706,1.0109 1.6357,1.2685 0.5916,0.3278 1.8099,0.0042 2.1192,0.5701 0.319,0.5834 0.0355,1.3395 0.9246,1.6818 0.8619,0.3317 1.8289,0.6864 2.3041,1.411 0.5725,0.8727 1.1404,1.3748 2.105,1.1687 0.3085,-0.0659 0.6778,-0.2629 1.0352,-0.3734 0.3505,-0.0714 0.4909,0.6464 0.3018,0.858 -0.2303,0.2579 -0.8121,0.3583 -0.9529,0.5558 -1.268,0.1807 0.4136,2.3147 0.6969,2.6938 1.1481,1.5357 2.4174,-0.9731 3.7063,-0.8204 0.1275,0.1293 0.2544,0.2713 0.4042,0.4213 0.6106,0.6117 1.0986,0.4515 1.849,0.8837 0.292,0.1682 1.3376,1.3277 1.5219,1.6105 0.2772,0.4255 0.5287,0.58 1.0525,0.8124 0.6266,0.2779 1.242,0.3162 1.4081,1.0832 0.0889,0.4107 -0.2236,1.3114 -0.0712,1.6533 0.3475,0.7798 3.273,2.0279 4.0394,2.2091 0.5629,0.133 1.1196,0.3432 1.2374,0.955 0.0543,0.2821 -0.0294,0.5821 -0.0711,0.8551 -0.065,0.4256 0.0221,0.7573 0.0711,1.1687 0.0317,0.267 0.1139,0.4198 0.3129,0.5701 0.4269,0.3227 -0.3023,1.3833 -0.3982,1.6961 -0.2039,0.6656 0.0424,1.841 0.2845,2.5227 0.2228,0.627 0.4474,1.2536 0.6684,1.8813 0.0065,0.0184 0.0096,0.038 0.0143,0.0571 0.3034,1.2114 2.3868,2.3569 2.4321,3.6486 0.0343,0.9769 0.2338,2.1232 -0.5831,2.7223 -0.2124,0.1557 -1.3066,0.3474 -1.4935,0.5273 -0.365,0.3515 -0.7301,0.7032 -1.0951,1.0547 -0.4717,0.4544 -0.7943,1.5659 -0.5263,2.2662 0.4551,1.1896 2.2844,-0.1737 2.6028,0.7126 0.1549,0.4314 -0.4004,0.9426 -0.4267,1.3825 -0.0448,0.749 0.3265,1.3403 0.6401,1.9953 0.5173,1.0801 0.6604,1.4006 1.5645,2.2377 0.555,0.514 1.2014,0.9569 0.9814,1.8386 -0.1573,0.6308 -0.4909,1.1538 -0.2133,1.7816 0.13,0.294 1.2227,0.5802 1.5361,0.7553 0.5376,0.3003 0.9896,0.5559 1.3796,1.0405 0.6973,0.8667 2.1337,-0.2706 1.4366,-0.9692 -0.4864,-0.4873 -1.1095,-0.6966 -1.6641,-1.0974 -0.9698,-0.7007 0.9821,-3.0636 1.7921,-1.6676 0.2919,0.503 0.2543,1.2416 0.5405,1.7816 0.2935,0.554 0.9689,0.6081 1.3085,1.0689 0.2904,0.3942 0.238,1.2916 0.4409,1.7531 0.3817,0.8677 1.249,0.1097 1.6926,0.0142 0.1252,-0.0269 0.2556,-0.1094 0.3872,-0.1638l0 0c-0.1847,-0.2128 -0.439,-0.3869 -0.6148,-0.6058 -0.137,-0.1706 -0.5473,-0.5701 -0.6258,-0.7411 -0.1292,-0.281 -0.2852,-0.5369 -0.2987,-0.9265 -0.0259,-0.7438 -0.065,-1.2794 0.4124,-1.8955 0.6332,-0.8174 1.5537,-1.1221 2.162,-2.0524 0.6575,-1.0057 0.574,-1.8392 1.7067,-2.7508 2.8735,-2.3129 5.8686,-1.5889 8.7633,0.0825 0.8082,0.4667 1.2871,1.1421 2.0448,1.6472 0.6335,0.4222 3.6535,1.3731 4.4588,1.4484 1.5567,0.1455 3.6191,4.3442 5.9356,1.7608 2.1106,-2.3537 1.1174,-3.8983 0.4828,-6.2764 -0.012,-0.0451 -0.0766,-0.1538 -0.1136,-0.1988 -0.03,-0.0364 -0.0334,-0.0601 -0.0568,-0.1136 -0.0127,-0.0289 -0.1001,-0.2177 -0.142,-0.2556 -0.0577,-0.0524 -0.1338,-0.1871 -0.2272,-0.2556 -0.0612,-0.045 -0.1068,-0.0946 -0.1704,-0.1704 -0.043,-0.0511 -0.3528,-0.2708 -0.426,-0.3124 -0.1977,-0.1122 -0.4363,-0.3711 -0.6248,-0.4544 -0.0518,-0.0228 -0.3208,-0.3291 -0.3408,-0.3692 -0.0094,-0.0189 -0.019,-0.0379 -0.0284,-0.0568 -0.6416,-1.2836 0.45,-2.1707 0.9656,-3.408 0.6555,-1.5733 0.0745,-2.6197 1.7608,-3.55 0.4847,-0.2674 1.5318,0.4423 2.0448,0.8236 0.7611,0.5655 1.1413,-1.2951 1.9596,-1.5904 1.9579,-0.7068 3.9892,-0.8284 5.9924,-1.4484 1.5938,-0.4932 2.8968,-0.0411 2.8968,-2.2436 0,-0.9394 -0.8649,-1.5303 -1.5336,-2.13 -1.286,-1.1531 -1.8682,-3.191 -1.4484,-4.828 0.3183,-1.241 2.8766,-1.9317 3.5784,-3.0956 0.3593,-0.5957 0.2627,-1.6954 0.5396,-2.3004 0.0985,-0.2153 0.1783,-0.3603 0.374,-0.4044l0 0c-0.0135,-0.393 -0.0756,-0.4955 -0.4589,-0.378 -0.3353,0.1028 -0.633,0.4802 -1.0099,0.3135 -0.3286,-0.1452 -0.7768,-0.464 -0.8391,-0.8551 -0.1533,-0.9627 1.0773,-0.0979 1.3654,-0.0856 0.3044,0.0131 1.199,-0.2502 0.7823,-0.6413 -0.2231,-0.2093 -0.6253,-0.254 -0.8961,-0.4419 -0.4174,-0.2898 -0.5931,-0.9148 -0.8392,-1.3397 -0.2957,-0.5108 -1.0804,-0.9122 -0.6969,-1.4253 0.3672,-0.4915 1.104,0.7015 1.6926,0.7269 0.7599,0.0328 1.5786,-0.6179 1.0525,-1.1259 -0.3506,-0.3384 -0.8446,0.1658 -1.3086,-0.0855 -0.1044,-0.0566 -0.2698,-0.1894 -0.256,-0.3136 0.0009,-0.0089 0.7523,-0.1114 0.8392,-0.1425 0.4852,-0.1738 0.2702,-0.6609 0.2702,-1.0262 0,-0.1409 0.1455,-0.217 0.2703,-0.2423 0.2881,-0.0585 0.4544,-0.1146 0.4693,-0.4133 0.0282,-0.5659 -0.384,-1.1826 -0.384,-1.7388 0,-0.4971 0.7451,-1.075 0.4552,-1.2828 -0.2937,-0.2104 -0.7617,0.4006 -1.0952,0.0855 -0.2995,-0.2828 -0.1476,-0.9916 0.3271,-0.9691 0.7352,0.0348 1.2306,0.1561 1.849,-0.2851 0.3088,-0.2204 0.6137,-0.8217 0.6827,-1.183 0.0614,-0.3221 0.0799,-0.406 0.0569,-0.7126 -0.0254,-0.338 0.5017,-0.5746 0.384,-1.1544 -0.0606,-0.2985 0.0637,-0.3498 0.2703,-0.5274 0.3005,-0.2581 0.4677,-0.4192 0.4125,-0.7981 -0.1145,-0.7849 -1.0425,-0.9613 -1.4081,-1.6533 -0.342,-0.6475 -0.4638,-1.2824 -0.1423,-2.0381 0.2209,-0.5194 -0.5651,-1.0198 -0.1564,-1.5393 0.3334,-0.4236 0.6373,0.311 1.1663,-0.3563 0.1847,-0.2329 0.8008,-1.0777 1.0667,-0.8837 0.423,0.3085 -0.5634,1.1982 0.0427,1.3968 0.7658,0.2508 0.7732,-1.6345 1.4365,-1.9099 0.4795,-0.1991 0.4943,0.2231 0.3983,0.5986 -0.12,0.4698 -0.231,0.8898 0.128,1.0262 1.3435,0.5104 0.0693,-4.0905 2.233,-4.0905 1.0624,0 2.9029,-3.5532 2.1335,-4.005 -1.1889,-0.698 -0.4852,-1.5035 0.2275,-1.2827 1.1432,0.3541 1.4027,-1.2051 2.2189,-1.0404 1.5085,0.3046 0.0544,-1.1848 -0.0854,-1.5821 -0.1562,-0.4442 0.4105,-0.4039 0.5832,-0.7411 0.1276,-0.249 -0.1255,-0.5475 0.3413,-0.7554 0.2158,-0.0962 -0.0004,-0.941 0.2845,-0.9122 0.3264,0.0331 0.3548,0.513 0.7965,0.0713 0.2522,-0.2522 -0.2949,-0.4447 -0.384,-0.6129 -0.1342,-0.2535 0.2391,-0.4643 0.3413,-0.6698 0.1018,-0.2049 -0.5098,-1.2615 0.0853,-1.2258 0.3957,0.0237 0.2653,-0.4912 0.5121,-0.7838 0.4161,-0.4931 0.9383,-0.4962 1.5361,-0.5844 0.3605,-0.0532 0.6069,-0.1364 0.896,-0.3706 0.3838,-0.3111 0.3509,-0.712 0.5121,-1.0974 0.1017,-0.243 -0.0507,-0.4241 0.0995,-0.6414 0.2092,-0.3029 0.3414,-0.4447 0.3414,-0.8409 0,-0.3598 0.1603,-0.7168 0.0711,-1.0404 -0.0481,-0.1749 -0.4223,-0.0488 -0.4836,-0.2566 -0.1031,-0.3497 0.4389,-0.3175 0.5689,-0.5843 0.1062,-0.2177 0.0168,-0.2816 -0.1137,-0.4561 -0.0947,-0.1268 -0.1851,-0.2594 -0.2845,-0.3848 -0.0495,-0.0624 -0.118,-0.1198 -0.1707,-0.1853 -0.0521,-0.0646 -0.1058,-0.1376 -0.1564,-0.1995 -0.0317,-0.0387 -0.0782,-0.0503 -0.1138,-0.0856 -0.0282,-0.0278 -0.0515,-0.0468 -0.0569,-0.0855 -0.0603,-0.4316 0.0427,-0.8088 0.0427,-1.2257 0,-0.826 -0.1984,-0.575 -0.7965,-0.8552 -0.2498,-0.1171 -0.352,-0.5631 -0.3414,-0.8123 0.0076,-0.1783 0.4606,-0.2718 0.5405,-0.4134 0.1125,-0.1996 -0.0044,-0.4762 0.0427,-0.6984 0.0906,-0.4272 0.0951,-0.8242 0.3129,-1.2257 0.4263,-0.7855 0.6159,-1.8974 -0.3983,-2.1664 -0.5119,-0.1358 -1.593,-0.7835 -1.593,-1.3682 0,-0.4486 0.516,-0.5131 0.2276,-1.1687 -0.3437,-0.7816 0.7418,-1.0749 -0.2702,-1.7958 -0.3186,-0.227 -0.7168,-0.3452 -0.9957,-0.5702 -0.3797,-0.3062 0.1362,-0.6906 -0.0711,-0.9976 -0.1903,-0.282 -1.3212,0.0317 -1.4507,-0.3706 -0.1078,-0.3347 0.4489,-0.4827 0.4267,-0.7554 -0.0252,-0.3104 -0.6783,-0.1618 -0.5548,-0.6414 0.0859,-0.3333 0.6844,-1.1766 0.953,-1.3112 0.1654,-0.0828 0.3045,0.0551 0.4551,-0.171 0.0991,-0.1487 0.0217,-0.3529 0.2276,-0.4561 0.8427,-0.4223 1.3939,-1.1553 1.3939,-2.1094 0,-0.2092 0.1794,-0.8784 -0.0142,-0.9977 -0.3437,-0.2117 -0.9672,0.4941 -0.9672,-0.5843 0,-0.1963 0.155,-0.2666 -0.0285,-0.3991 -0.4953,-0.3579 -0.1246,-0.5427 0.0712,-0.9122 0.1252,-0.2364 -0.2613,-0.4418 -0.1992,-0.7553 0.0328,-0.1654 0.8165,-1.2454 0.953,-1.3398 0.3315,-0.2292 0.6632,0.2044 0.9529,-0.4418 0.1372,-0.306 0.384,-0.0701 0.656,-0.091l0.4796 -110.598 0 0c-0.0292,-0.0817 -0.0525,-0.1661 -0.0688,-0.2529 -0.0494,-0.2621 0.0232,-0.6542 -0.0996,-0.8837 0,-0.162 -0.0159,-0.3215 -0.0356,-0.4774 -0.1434,-0.1797 -0.476,-0.3717 -0.512,-0.6271 -0.0154,-0.0156 -0.0249,-0.024 -0.0355,-0.0428 -0.0158,-0.009 -0.0229,-0.0158 -0.0356,-0.0285 -0.1055,0 -0.3151,0.0137 -0.3769,-0.0855 -0.2506,-0.1138 -0.5749,-0.6432 -0.6756,-0.8908 -0.1664,-0.4094 -0.1669,-0.8543 -0.3698,-1.2614 -0.1221,-0.2452 -0.3609,-0.4384 -0.4765,-0.6698 -0.1368,-0.4125 -0.2523,-0.7973 -0.3058,-1.2329 -0.0347,-0.282 0.0016,-0.6173 -0.064,-0.8836 -0.7152,-0.1813 0.3894,-1.2631 0.2276,-1.4467 -0.09,-0.1022 -0.3298,0.0275 -0.4481,-0.057 -0.2411,-0.1724 -0.1344,-0.4262 -0.2275,-0.6556 -0.0486,-0.1196 -0.1011,-0.1717 -0.1423,-0.3136 -0.0381,-0.5042 -0.332,-1.009 -0.4551,-1.4893 -0.0911,-0.3559 0.0225,-0.4755 0.2276,-0.7341 -0.0027,-0.0193 -0.0071,-0.0375 -0.0285,-0.0427 -0.0075,-0.0307 -0.29,-0.098 -0.3413,-0.1497 -0.0989,-0.0994 -0.1874,-0.2031 -0.2276,-0.3349 -0.1352,-0.4433 -0.2107,-0.9024 -0.2702,-1.3683 -0.0382,-0.2986 -0.1886,-0.5326 -0.2845,-0.8052 -0.1613,-0.6258 -0.1242,-1.2063 -0.2347,-1.8172 -0.0254,-0.1406 -0.445,-1.072 -0.5191,-1.1046 -0.1607,-0.0709 -0.6498,-0.3445 -0.7396,-0.4703 -0.1431,-0.016 -0.6433,-0.6667 -0.7183,-0.8124 -0.1685,-0.3276 -0.3597,-0.682 -0.4836,-1.0333l-0.9672 -1.7674 -1.0169 -1.7245c-0.1689,-0.2863 -0.2175,-0.8803 -0.3983,-1.1117 -0.0028,-0.0316 -0.0005,-0.0261 -0.0213,-0.0499 -0.0063,-0.0519 -0.0322,-0.1095 -0.0427,-0.1639 -0.0172,-0.2288 -0.164,-0.7444 -0.2844,-0.9407 -0.0525,-0.2502 -0.1949,-0.4796 -0.2632,-0.7197 -0.074,-0.2605 -0.1029,-0.5252 -0.1493,-0.7911 -0.0757,-0.4341 0.0366,-1.0982 -0.1067,-1.4822 0,-0.1027 -0.0029,-0.2543 0.0285,-0.3492l0 -0.0356c0.0213,-0.0574 0.0176,-0.1426 0.0355,-0.2067 0,-0.2804 0.0066,-0.4743 0.1209,-0.734 0.0717,-0.1628 -0.011,-0.4843 0.0854,-0.6058 0.0217,-0.1767 0.3238,-0.4882 0.4124,-0.677 0.1321,-0.2818 0.1856,-0.6318 0.2489,-0.9406 0.1436,-0.7011 0.1768,-1.4172 0.1138,-2.1379 0,-0.4711 0.085,-0.9164 0.1423,-1.3825 0.0612,-0.4984 -0.0108,-0.9808 -0.064,-1.468l-0.0143 -0.0285c-0.0047,-0.0526 -0.0256,-0.1229 -0.0498,-0.1711 -0.0044,-0.0545 -0.0309,-0.1049 -0.0355,-0.1567l0 0 -14.7752 -0.022 -3.3949 0.0718 -1.6854 -0.1354 -8.541 0.1782 -72.7838 -0.5846 0 0z"/>
 </g>
</svg>
