<?xml version="1.0" encoding="UTF-8"?>
<!DOCTYPE svg PUBLIC "-//W3C//DTD SVG 1.1//EN" "http://www.w3.org/Graphics/SVG/1.1/DTD/svg11.dtd">
<!-- Creator: CorelDRAW -->
<svg xmlns="http://www.w3.org/2000/svg" xml:space="preserve" width="210mm" height="297mm" style="shape-rendering:geometricPrecision; text-rendering:geometricPrecision; image-rendering:optimizeQuality; fill-rule:evenodd; clip-rule:evenodd"
viewBox="0 0 210 297"
 xmlns:xlink="http://www.w3.org/1999/xlink">
 <defs>
  <style type="text/css">
   <![CDATA[
    .str2 {stroke:#2F3133;stroke-width:0.1}
    .str1 {stroke:black;stroke-width:0.1;stroke-opacity:0.501961}
    .str0 {stroke:black;stroke-width:0.1}
    .str3 {stroke:black;stroke-width:0.5}
    .fil5 {fill:none}
    .fil0 {fill:white}
    .fil2 {fill:#1F1A17;fill-rule:nonzero}
    .fil3 {fill:#C2C1C1;fill-rule:nonzero}
    .fil4 {fill:white;fill-rule:nonzero}
    .fil6 {fill:black;fill-rule:nonzero}
    .fil1 {fill:white;fill-rule:nonzero;fill-opacity:0.501961}
   ]]>
  </style>
 </defs>
 <g id="Plan_x0020_1">
  <metadata id="CorelCorpID_0Corel-Layer"/>
  <path class="fil0 str0" d="M185.58 19.1203l-0.0673 4.1339 0 0 -0.5297 165.987 0 0c-0.1407,0.0347 -0.2554,0.1083 -0.362,0.1926 -0.6548,0.5184 -1.1466,1.4107 -1.849,1.8528 -0.7697,0.4843 -1.8059,0.5326 -1.2801,1.7246 0.3303,0.7486 1.0882,1.2533 1.6073,1.8671 1.3939,1.6479 1.8657,3.1198 0.1849,4.8031 -0.1898,0.19 -0.8539,0.8466 -0.9245,1.0547 -0.0203,0.0601 -0.1659,0.1776 -0.1849,0.2423 -0.1952,0.6636 -0.3024,0.9328 0.1849,1.297 1.0951,0.8187 4.7505,-0.2161 4.1389,2.1664 -0.1872,0.7293 -0.5788,0.9803 -1.1947,1.24 -0.7188,0.3032 -0.9805,1.3967 -0.5832,2.0096 0.1287,0.1987 0.2521,0.5161 0.3271,0.7554 0.0336,0.107 0.2593,0.402 0.3272,0.4703 0.0094,0.0094 0.019,0.019 0.0284,0.0285 0.9028,0.906 -2.8318,0.256 -3.4278,0.1568 -0.5181,-0.0863 -0.9131,0.004 -1.3085,0.228 -1.1081,0.6276 -1.8734,0.991 -3.0295,0.6841 -0.9282,-0.2465 -1.561,0.4202 -2.2473,0.8267 -0.8441,0.4998 -1.7907,0.7567 -2.6313,1.24 -1.6301,0.9371 -2.7939,2.6123 -4.5229,3.3351 -1.0801,0.4516 -1.6955,-0.0597 -2.6313,-0.2423 -0.085,-0.0166 -0.0734,-0.0383 -0.1707,-0.1141 -0.5505,-0.4293 -0.7062,-1.3198 -1.1947,-1.81 -0.5508,-0.5529 -1.2831,-0.9122 -2.0908,-0.9122 -1.6357,0 -3.6808,1.1909 -5.3053,0.228 -0.5334,-0.3162 -0.9358,-0.344 -1.6072,0.0286 -0.4134,0.2295 -0.9195,1.0068 -1.1663,1.4537 -0.7261,1.315 0.3414,2.3451 0.6259,3.3494 0.1112,0.3924 0.0739,3.131 0.128,3.6486 0.0615,0.5887 0.5195,1.0808 0.8533,1.4966 0.5152,0.642 0.3842,2.2513 -0.0853,2.765 -0.7289,0.7973 -2.5022,1.1792 -2.8019,2.2091 -0.1585,0.5447 -0.6788,1.672 -1.1806,1.9384 -1.0576,0.5613 -1.7078,0.7268 -2.9299,0.7268 -0.686,0 -1.2226,0.0478 -1.721,0.4704 -0.5356,0.454 -0.9886,0.986 -1.2517,1.696 -0.2211,0.5965 -0.3646,1.2337 -0.4836,1.8529 -0.2666,1.3875 -0.5641,2.6122 -0.9956,3.9622 -0.2251,0.7041 -0.7613,1.1747 -1.1805,1.7103 -0.031,0.0397 -0.0283,0.0266 -0.0711,0.057 -0.1073,0.0764 -0.2998,0.2597 -0.3983,0.3421 -0.0703,0.0587 -0.1694,0.0918 -0.256,0.1425 -0.1353,0.0791 -0.2614,0.2438 -0.4125,0.2565 -0.0569,0.0047 -0.1139,0.0096 -0.1706,0.0143 -1.0887,0.0912 -2.8582,2.3082 -3.7265,0.6271 -0.0882,-0.1707 -0.3134,-0.257 -0.4551,-0.3991 -0.3693,-0.3707 -1.3506,0.1532 -1.6499,0.3421 -0.6931,0.4373 -0.6685,1.072 -0.6685,1.8101 0,1.1868 -1.6557,1.9597 -2.1904,2.9788 -0.1079,0.2056 -0.298,0.3613 -0.4267,0.5416 -0.3114,0.4359 -0.6101,0.818 -0.7253,1.3825 -0.1176,0.5766 -0.0571,1.1059 -0.0285,1.6818 0.0426,0.8599 0.2841,1.8117 0.1422,2.6652 -0.1256,0.7549 -0.4833,1.4427 -0.5831,2.1949 -0.068,0.5127 -0.0068,1.0265 -0.0996,1.5393 -0.1286,0.7111 -0.5246,1.242 -1.0667,1.6675 -0.0537,0.0422 -0.2432,0.1141 -0.3129,0.1283 -0.5595,0.114 -1.1189,0.2282 -1.6783,0.3421 -0.4941,0.1007 -1.2511,0.3438 -1.721,0.3705 -0.0549,0.0031 -0.0731,0.0983 -0.1281,0.0998 -1.2508,0.0342 -0.475,1.703 -0.7538,2.2091 -0.022,0.0401 -0.0168,0.035 -0.0569,0.057 -0.5928,0.3248 -1.4453,-0.5664 -1.6356,-1.1117 -0.1073,-0.3078 -0.3322,-1.1276 -0.5974,-1.3825 -0.8084,-0.7773 -1.6286,-0.9155 -2.8304,-0.6841 -0.8664,0.1669 -2.2593,0.406 -2.93,-0.3563 -0.235,-0.2672 -1.1137,-0.8579 -1.3512,-1.0974 -0.6264,-0.6319 -1.5391,-0.887 -2.1334,-1.6818 -0.5146,-0.688 -0.6543,-1.7171 -0.6543,-2.537 0,-0.7787 0.6466,-1.3819 0.256,-2.1664 -0.7591,-1.5246 -2.2111,-2.0869 -3.2855,-3.4206 -0.8009,-0.994 -1.7671,-0.0556 -1.5788,0.9834 0.3132,1.7282 2.4662,0.2271 2.7451,1.8386 0.4517,2.6104 -3.2122,0.285 -3.3994,1.8813 -0.1849,1.5776 -1.1099,0.3612 -1.593,-0.0285 -0.6296,-0.5078 -1.6915,-1.1787 -2.0196,0.0998 -0.229,0.8921 1.1767,1.3358 1.6783,1.8671 0.3938,0.4172 -0.001,0.9789 -0.1157,1.5594 -0.0646,0.3274 -0.6824,0.771 -0.8804,0.852 -0.6527,0.2673 -2.6718,-0.1106 -3.1808,0.0852 -0.814,0.3131 -0.7198,2.3226 -0.568,3.0672 0.0527,0.2587 0.284,2.0539 0.284,2.1584 0,0.0379 0,0.0758 0,0.1136 0,0.1335 0.331,0.939 0.5396,1.0224 0.0347,0.0139 -0.0069,0.0729 0.0284,0.0852 0.3243,0.1132 -0.0799,0.8143 -0.142,0.9372 -0.0182,0.0359 -0.1362,0.1362 -0.1704,0.1704 -0.0345,0.0343 -0.0789,0.075 -0.1136,0.0852 -0.6555,0.1944 -1.0099,0.5637 -1.7608,0.2272 -0.4338,-0.1945 -1.1038,-0.1711 -1.6472,0.2556 -0.8975,0.7046 0.7972,4.2426 -3.4648,4.2316 -0.0116,0 -0.2284,-0.1516 -0.2272,-0.1704 0.0472,-0.7005 0.0947,-1.401 0.142,-2.1016 0.0079,-0.1177 0.6805,-1.2202 0.4544,-1.3632 -0.0642,-0.0405 -0.0916,-0.0953 -0.1136,-0.1704 -0.4736,-1.616 -3.7825,1.6178 -4.118,0.5112 -0.0193,-0.0638 -0.0783,-0.076 -0.142,-0.1136 -0.1593,-0.0942 -0.3915,-0.3466 -0.4544,-0.4828 -0.2627,-0.569 -2.368,-4.9884 -2.6696,-5.112 -2.8763,-1.1794 -3.5662,3.3441 -5.9072,3.4648 -1.5322,0.0789 -4.9642,0.5085 -5.4244,2.2436 -0.5644,2.1283 -0.0875,3.9776 -1.3348,5.9924 -0.2973,0.4802 -2.3123,1.8488 -2.698,0.9088 -0.0282,-0.0687 -0.1052,-0.0516 -0.1704,-0.0852 -0.1072,-0.0551 -0.1189,-0.0291 -0.1988,-0.0852 -0.0438,-0.0308 -0.014,-0.0246 -0.0568,-0.0568 -0.0293,-0.0221 -0.0347,-0.0275 -0.0568,-0.0568 -0.0322,-0.0428 -0.1396,-0.287 -0.142,-0.3124 -0.0233,-0.2479 -0.1084,-0.5684 -0.1704,-0.852 -0.0148,-0.0676 -0.2458,-0.5901 -0.3124,-0.71 -0.0885,-0.1596 -0.2564,-0.5972 -0.3976,-0.6532 -0.9279,-0.3679 -2.9399,-0.5233 -3.8056,-0.9656 -1.4603,-0.746 -2.167,-1.8612 -3.4648,-2.7264 -2.3568,-1.5711 -5.141,-4.1828 -7.9236,-2.5276 -1.7361,1.0328 -2.3433,2.28 -4.6008,1.7892 -1.8168,-0.3949 -1.1459,-2.578 -1.1928,-3.976 -0.0016,-0.0488 -0.0491,-0.04 -0.0852,-0.0568 -0.0624,-0.0289 -0.3954,0.0538 -0.426,0.0568 -0.2862,0.0281 -0.3752,0.6649 -0.4828,0.8804 -0.1354,0.2709 -0.3584,0.8381 -0.5964,0.9372 -1.278,0.5327 0.5445,2.4449 1.1928,2.9536 0.3826,0.3003 0.5341,0.441 0.3692,1.2496 -0.0901,0.4419 -0.5473,1.2888 -0.852,1.6188 -0.7425,0.8044 -1.2375,1.8084 -2.6412,1.4484 -2.1415,-0.5492 -0.9874,-3.1667 -1.0224,-4.6292 -0.0008,-0.0372 -0.0304,-0.0965 -0.0568,-0.142 -0.0201,-0.0345 -0.0454,-0.0835 -0.0852,-0.0852 -0.8356,-0.0372 -1.6227,0.2554 -2.272,0.7668 -0.1888,0.1486 -1.7853,1.3808 -2.2152,1.3348 -3.1024,-0.3322 -3.8943,-1.5373 -5.5948,-3.7204 -0.1589,-0.2039 -0.8491,0.0933 -0.994,0.3976 -0.0371,0.0781 -0.1653,0.0623 -0.1988,0.142 -0.1756,0.4173 -0.8014,0.9918 -1.0508,1.136 -0.6003,0.347 -0.0697,1.9583 0.3408,2.2152 0.183,0.1146 1.082,0.8885 1.2496,1.3916 0.3616,1.0855 -0.5443,2.0059 -1.2496,2.556 -0.6376,0.4974 -1.2775,2.1963 -2.1016,1.562 -0.2844,-0.2188 -1.5707,-1.3402 -1.7608,-1.4768 -0.228,-0.1638 -0.684,-0.3693 -1.0348,-0.3096l0 0c0.0795,-0.2571 -0.0462,-0.2411 -0.1264,-0.4201 -0.0223,-0.0497 -0.1258,-0.0644 -0.1707,-0.114 -0.0827,-0.0916 -0.5675,0.2982 -0.6969,0.3705 -0.7576,0.4232 -1.7329,0.2889 -2.0055,-0.6699 -0.2579,-0.9067 0.256,-1.1624 1.0099,-0.7411 0.5956,0.3327 0.9727,0.5937 1.5503,0.0143 0.4055,-0.4069 0.348,-0.909 -0.2418,-1.0262 -0.3547,-0.0705 -0.9977,0.0314 -1.2232,-0.3278 -0.3852,-0.6138 -0.6009,-1.4308 -0.9245,-2.0809 -0.2181,-0.4381 -0.9595,-0.7655 -0.7823,-1.3968 0.1698,-0.6052 1.7415,0.6664 1.9628,0.7839 0.7861,0.4171 1.8742,0.0855 1.9486,-0.9406 0.0481,-0.6643 -0.3815,-1.4734 -0.6543,-2.0524 -0.2659,-0.5646 0.0534,-0.9997 0.5121,-1.2827 0.9202,-0.5676 0.3054,-1.5643 0.0284,-2.3517 -0.0932,-0.2649 -0.1543,-0.9632 0.0996,-1.1402 0.1634,-0.1138 0.7308,-0.7427 0.4551,-0.8409 -0.3518,-0.1254 -0.6863,0.1762 -1.0952,0.0712 -0.6823,-0.1751 -0.7956,-1.1333 -0.0427,-1.3112 0.3029,-0.0716 0.4362,0.0683 0.7112,0.0998 0.4482,0.0513 0.8782,0.0083 1.2801,-0.2138 0.6181,-0.3417 1.337,-0.8959 1.337,-1.6533 0,-0.7766 -0.0373,-0.875 0.4124,-1.5108 0.2475,-0.3498 0.2276,-0.6339 0.2276,-1.0547 0,-0.6311 1.8144,-2.8483 0.4409,-3.3493 -0.2544,-0.0927 -0.955,-0.3837 -1.2658,-0.7554 -0.5387,-0.6445 -0.8668,-1.2358 -0.9388,-2.0524 -0.035,-0.3971 0.4363,-0.5551 0.3414,-1.0119 -0.1311,-0.6305 -0.816,-1.6691 -0.0996,-2.1664 0.3952,-0.2742 0.8893,0.2634 1.3512,0.057 0.7521,-0.336 0.7227,-1.7958 1.6926,-1.7958 0.6335,0 -0.4245,1.8858 0.1991,2.0808 1.3175,0.4122 1.15,-3.3131 2.4891,-2.9645 0.3434,0.0893 -0.2445,1.3511 -0.1138,1.8528 0.3213,1.233 1.721,0.3452 1.721,-0.6413 0,-0.9909 -0.077,-2.0469 0.4551,-2.9218 0.4272,-0.7022 0.5165,-1.3269 1.3654,-1.5393 1.0783,-0.2697 1.6985,-1.648 2.2046,-2.5654 0.2563,-0.4644 0.5006,-0.9231 0.5263,-1.4681 0.0196,-0.4149 0.7593,-0.8646 0.3982,-1.2257 -0.0047,-0.0047 -0.0095,-0.0095 -0.0142,-0.0142 -0.3049,-0.3051 -1.1548,0.1818 -1.337,-0.3849 -0.2961,-0.9212 1.1578,-1.4252 1.8064,-1.4252 0.4765,0 1.0437,-0.1623 1.4365,-0.4418 0.2976,-0.2119 0.7364,-0.7929 1.0241,-0.8409 0.4345,-0.0726 1.5721,-0.0192 1.4507,-0.7269 -0.0603,-0.3514 -0.4439,-0.4107 -0.64,-0.6129 -0.3633,-0.3744 -1.0355,-1.6038 -0.3983,-1.9811 0.9207,-0.545 -0.3566,-0.814 0.6401,-1.126 0.1516,-0.0475 0.3035,-0.095 0.4551,-0.1425 0.4492,-0.1406 -0.3755,-1.4913 0.4836,-0.8694 0.8071,0.5844 0.8253,-0.1918 0.3983,-0.6414 -0.4054,-0.4267 0.067,-0.7113 0.1564,-1.2684 0.1082,-0.6748 -0.5667,-1.6248 0.5263,-1.6248 0.3807,0 0.3698,-0.5213 0.3698,-0.7982 0,-0.4248 0.4436,-0.6709 0.7965,-0.7696 0.3383,-0.0945 0.6245,-0.203 0.9956,-0.2708 0.6135,-0.112 1.3225,-0.0049 1.7779,-0.5701 0.7281,-0.9038 0.1968,-2.0704 1.0952,-2.9218 0.5061,-0.4795 0.2275,-0.7051 0.2275,-1.2115 0,-0.1828 0.2957,-1.043 0.1565,-1.1687 -0.0667,-0.0601 -0.3712,0.012 -0.4836,-0.057 -0.4411,-0.2707 0.377,-0.5273 0.5689,-0.7839 0.2774,-0.3712 -0.6554,-0.918 -0.8249,-1.2114 -0.1805,-0.3123 -0.3489,-0.4299 -0.6258,-0.6414 -0.288,-0.2199 -0.1963,-0.6409 -0.0996,-0.9407 0.6046,-1.8748 -2.3479,-1.9051 -0.5832,-3.6486 0.1947,-0.1924 -0.0881,-0.7671 0.0996,-0.955 0.5639,-0.5648 0.8231,-0.8799 0.3556,-1.639 -0.4607,-0.7479 1.3582,-0.9635 0.4978,-2.0666 -0.2566,-0.3289 -0.5747,-0.8481 -0.9103,-1.0975 -0.3786,-0.2815 -1.3108,-0.2427 -1.6783,-0.5558 -0.7381,-0.6286 -0.2149,-1.4756 -0.1138,-2.3802 0.0677,-0.6058 -0.5108,-0.8625 -0.0711,-1.5963 0.4467,-0.7453 -0.3661,-1.7338 -1.1094,-1.8671 -0.4321,-0.0775 -0.8514,-0.1001 -1.1521,-0.4561 -0.1693,-0.2003 0.5622,-0.884 0.384,-1.1829 -0.1864,-0.3124 -2.2461,0.6398 -2.0197,-0.4419 0.0855,-0.4085 0.5832,-0.5622 0.5832,-0.9691 0,-0.496 -0.8945,0.0737 -0.8107,-0.7554 0.0631,-0.6241 0.3256,-1.3644 0.8534,-1.7674 0.0995,-0.0759 0.1992,-0.152 0.2987,-0.228 0.7594,-0.5796 0.5071,-0.79 1.1378,-1.0689 0.3499,-0.1548 0.5429,-0.0952 0.8107,-0.4276 0.2362,-0.2933 0.5758,-0.6121 0.7396,-0.9407 0.1762,-0.3537 0.256,-0.7081 0.256,-1.1544 0,-0.4684 0.3055,-1.4103 0.1423,-1.7674 -0.2054,-0.4497 -0.9157,0.5032 -1.2517,0.2708 -0.8343,-0.5773 0.0084,-1.2559 -0.6116,-2.0381 -0.0346,-0.0437 0.0357,-0.1924 0.0854,-0.2423 0.1826,-0.1836 0.3718,-0.4329 0.4836,-0.6698 0.2508,-0.5309 -0.9642,-0.6192 -0.1423,-1.4823 0.4339,-0.4555 0.6152,-1.2392 1.209,-1.354 0.4604,-0.0889 0.8051,0.224 1.1663,-0.1995 0.3723,-0.4363 0.0886,-0.4661 0.6827,-0.3421 0.0862,0.0119 0.1601,0.0154 0.2179,0.0071l0.6456 -151.502 0 0c0.3864,0.6711 1.0235,1.2163 1.6398,1.7145 0.1747,0.1411 0.521,0.496 0.768,0.4276 0.2894,-0.0802 0.5647,-0.5131 0.8108,-0.5131 0.0055,0.0166 0.0469,0.051 0.0711,0.057 0.0555,0.1114 0.6574,0.635 0.7538,0.6271 0.2294,-0.0187 0.1255,-0.819 0.3271,-0.8694 0.0089,-0.0359 0.0387,-0.0489 0.0711,-0.057 0.023,-0.0922 0.6526,0.0295 0.7112,0.057 0.9628,0.4522 -0.2257,1.8741 -0.8249,2.0239 -0.0179,0.0722 -0.0427,0.0974 -0.0427,0.1853 0.0408,0.0136 0.1459,0.0748 0.1849,0.114 0.3282,0.6996 2.4855,1.2669 3.2429,1.411 0.7121,0.1354 1.1619,0.2564 1.7779,0.6271 0.6453,0.3882 0.6214,0.0064 1.152,-0.0997 0.0839,-0.1179 1.8802,-0.0371 2.2188,-0.0856l1.6926 -0.2423c0.3852,-0.0551 1.3807,-0.0486 1.6783,-0.228 0.1362,-0.0041 0.1531,0.014 0.2418,-0.057 0.1817,0 0.7526,-0.2163 0.8961,-0.3421 0.2634,-0.0292 0.8983,-0.4506 1.1805,-0.5843 0.7835,-0.3711 1.6729,-0.5064 2.5033,-0.7412 2.8349,-0.8019 5.1567,-2.3418 7.7374,-3.6344 0.0564,-0.0054 0.1422,0.0143 0.1564,-0.0285 0.1725,-0.0345 0.2174,-0.3346 0.3698,-0.3563 0.9612,-1.2016 2.981,-1.7973 4.4574,-2.6863l0 0 98.7944 0.0263 0 0 -0.0673 4.1339 0.0673 -4.1339z"/>
 </g>
</svg>
