<?xml version="1.0" encoding="UTF-8"?>
<!DOCTYPE svg PUBLIC "-//W3C//DTD SVG 1.1//EN" "http://www.w3.org/Graphics/SVG/1.1/DTD/svg11.dtd">
<!-- Creator: CorelDRAW -->
<svg xmlns="http://www.w3.org/2000/svg" xml:space="preserve" width="297mm" height="210mm" style="shape-rendering:geometricPrecision; text-rendering:geometricPrecision; image-rendering:optimizeQuality; fill-rule:evenodd; clip-rule:evenodd"
viewBox="0 0 297 210"
 xmlns:xlink="http://www.w3.org/1999/xlink">
 <defs>
  <style type="text/css">
   <![CDATA[
    .str1 {stroke:black;stroke-width:0.1;stroke-opacity:0.501961}
    .str0 {stroke:black;stroke-width:0.1}
    .str2 {stroke:black;stroke-width:0.5}
    .fil5 {fill:none}
    .fil0 {fill:white}
    .fil3 {fill:#C2C1C1;fill-rule:nonzero}
    .fil4 {fill:white;fill-rule:nonzero}
    .fil2 {fill:black;fill-rule:nonzero}
    .fil1 {fill:white;fill-rule:nonzero;fill-opacity:0.501961}
   ]]>
  </style>
 </defs>
 <g id="Plan_x0020_1">
  <metadata id="CorelCorpID_0Corel-Layer"/>
  <path class="fil0 str0" d="M56.9331 172.841l57.4923 0.7019 32.379 -0.5307 10.5551 -0.2619 4.982 0.235 15.4395 -0.517 32.5309 -1.1178c0.4054,0.4343 0.7868,0.8702 1.1681,1.3058 0.4359,0.4982 -0.0541,1.2523 0.47,1.7155 0.5884,0.5199 2.6085,0.1052 2.6085,1.2925 0,1.3411 0.7329,1.1838 1.0575,2.2325 0.1401,0.4526 0.4058,0.865 0.861,1.047 0.4871,0.1947 1.1144,-0.3119 1.4859,0.0936 0.2001,0.2183 -0.085,0.3656 -0.1404,0.6435 -0.058,0.2904 0.0599,0.329 0.234,0.5031 0.2902,0.2902 -0.1349,0.8503 0.1287,1.1817 0.1224,0.1538 0.642,0.2262 0.8424,0.351 0.3883,0.2416 0.3423,1.0423 0.7605,1.1466 0.2365,0.059 0.8142,0.0805 1.0764,0.2925 0.1017,0.0822 0.2032,0.165 0.3049,0.2475l-0.0027 0.0021c0.591,-0.4575 1.2975,-0.6942 2.0612,-0.7761 0.0439,-0.0047 0.0421,-0.0141 0.0819,-0.0351 0.0843,-0.0443 0.1675,-0.1311 0.2223,-0.1989 0.046,-0.0568 0.0281,-0.0958 0.0468,-0.1872 0.4601,-0.835 -0.1386,-1.527 -0.2541,-2.3483 -0.122,-0.8682 0.9688,-2.1469 0.4935,-2.9112 -0.0843,-0.7398 -0.3661,-0.7584 -0.717,-1.2969 -0.2394,-0.3672 -0.8643,-0.4638 -0.8845,-0.9891 -0.0397,-1.0335 0.6034,-1.8941 1.4525,-2.4726 0.4946,-0.3369 0.9884,-0.6267 1.555,-0.8585 1.9875,-1.8421 5.3004,-0.669 7.3186,-2.6872l0.2556 -0.2188c0.0975,-0.1521 0.1951,-0.3042 0.2925,-0.4563 0.2203,-0.3437 0.2491,-0.7835 0.3159,-1.17 0.0495,-0.2865 0.0685,-0.7975 -0.0585,-1.0647 -0.0283,-0.0597 -0.022,-0.0762 -0.0234,-0.1638 -0.0146,-0.9163 0.1722,-1.6697 0.8424,-2.3283 0.1222,-0.12 0.3159,-0.3325 0.3159,-0.4797 0,-0.0429 0,-0.0858 0,-0.1287 0,-0.9445 -0.5843,-1.5147 0.2691,-2.2698 0.738,-0.6531 1.1133,-1.3606 1.5327,-2.2347 0.2472,-0.5151 0.7448,-1.0512 1.2285,-1.3689 0.8144,-0.5348 1.7053,-1.5617 2.0475,-2.4219 0.0368,-0.0924 -0.0262,-0.0198 -0.0117,-0.1872 0.0342,-0.3949 0.0234,-0.8096 0.0234,-1.2051 0,-0.3359 0.1389,-0.7044 0.2223,-1.0296 0.186,-0.7257 0.1765,-1.6803 0.1287,-2.4336 -0.0333,-0.5262 -0.2285,-1.0377 -0.2106,-1.5678 0.0247,-0.7319 0.106,-0.874 -0.2808,-1.521 -0.0727,-0.1215 -0.2233,-0.3434 -0.2808,-0.4563 -0.2305,-0.4519 -0.8341,-1.7109 -1.1583,-2.0592 -0.3925,-0.4215 -0.9938,-0.1625 -1.3689,-0.1521 -0.5156,0.0142 -0.7439,-0.7157 -0.9126,-1.1115 -0.4347,-1.0198 -1.3239,-1.7707 -1.9656,-2.6442 -0.4705,-0.6403 -0.1357,-0.9542 0.1404,-1.5444 0.3882,-0.8295 0.7882,-1.7995 0.9945,-2.6793 0.1915,-0.8163 0.0894,-1.6465 0.3393,-2.4336 0.1488,-0.4689 0.6208,-1.0237 0.6435,-1.521 0.0258,-0.5638 0.0384,-1.0398 0.7254,-1.1934 0.2365,-0.0529 0.4256,-0.2362 0.6552,-0.351 0.1638,-0.0818 0.3276,-0.1639 0.4914,-0.2457 0.1574,-0.0787 0.437,-0.1512 0.6201,-0.1989 0.2461,-0.0642 0.478,-0.0538 0.702,0.0351 0.8024,0.3184 1.885,0.6077 2.7027,0.2574 0.8515,-0.3649 1.3563,-1.0647 2.3751,-1.0647 0.4073,0 1.0687,0.0516 1.4625,0 0.949,-0.1246 2.0038,0.3912 2.9367,-0.0234 0.6873,-0.3055 1.8403,-0.2023 2.3634,-0.5733 0.4016,-0.2847 0.6442,-0.9037 1.0764,-1.0764 0.2228,-0.0891 0.402,-0.2172 0.5265,-0.4212 0.3788,-0.6211 0.3945,-0.9518 1.2285,-0.9711 0.028,-0.0006 0.0306,-0.0317 0.0468,-0.0351 0.1741,-0.0363 0.7254,-0.3368 0.9126,-0.3978 1.0527,-0.343 1.7638,0.6482 2.9133,0.3744 1.4265,-0.3397 1.4381,-1.8646 2.4102,-2.5974 0.6694,-0.5047 1.2806,-0.5986 2.0358,-0.8307 0.3173,-0.0975 0.5065,-0.3233 0.6552,-0.5616 0.1351,-0.2163 0.0452,-0.2665 0.0234,-0.5733 -0.0631,-0.8883 -0.0967,-1.6322 0.0819,-2.5038 0.1687,-0.8238 0.1567,-1.0685 0.819,-1.6965 0.6238,-0.5914 0.0569,-1.5579 0.1287,-2.34 0.0622,-0.6769 0.895,-1.0796 1.2168,-1.5795 0.0365,-0.0567 0.1081,-0.1203 0.1638,-0.1404 0.4464,-0.1608 1.517,-0.9009 1.9539,-1.1232 0.4368,-0.2222 0.8736,-0.4447 1.3104,-0.6669 0.4428,-0.2253 0.3616,-0.8943 0.4329,-1.287 0.1758,-0.9672 -0.0062,-2.0442 0.5382,-2.9367 0.114,-0.1868 0.3183,-0.4569 0.3393,-0.6786 0.0037,-0.0401 0.0157,-0.0473 0.0237,-0.1042 0.2344,-0.6907 0.2137,-1.475 0.395,-2.1838 0.1954,-0.7644 0.1862,-1.4775 0.1862,-2.2581l-0.0199 -1.4209c-0.0936,-0.1365 -0.1872,-0.2731 -0.2808,-0.4095 -0.0305,-0.0446 -0.0492,-0.0762 -0.0585,-0.1287 -0.0465,-0.2618 -0.4217,-0.8785 -0.5382,-1.17 -0.1832,-0.4585 -0.0395,-1.0536 -0.0234,-1.5327 0.014,-0.4171 0.3724,-2.1856 -0.2691,-2.3634 -0.2385,-0.066 -0.6369,-0.0334 -0.8658,-0.1638 -0.093,-0.053 -0.2676,-0.0845 -0.3042,-0.1755 -0.2764,-0.6872 -0.2172,-1.4412 -1.1817,-1.7433 -0.6052,-0.1896 -1.5563,-0.4543 -2.1645,-0.8658 -0.4917,-0.3327 -1.1216,-0.7297 -1.6614,-0.9477 -0.5966,-0.2408 -2.0713,-1.1684 -2.4453,-1.6848 -0.5127,-0.7081 -0.7992,-1.5063 -1.0881,-2.2932 -0.1278,-0.348 -0.0893,-0.5799 0.0351,-0.9477 0.103,-0.3049 0.2685,-0.6035 0.1989,-0.936 -0.1353,-0.6462 -0.4956,-1.1794 -0.8775,-1.7082 -0.6583,-0.9118 -1.7362,-2.1473 -2.6559,-2.7963 -0.5966,-0.4209 -1.2692,-0.2737 -1.6497,-0.9243 -0.1098,-0.1876 -0.0013,-0.5292 -0.1053,-0.7254 -0.3039,-0.5728 -1.4597,-0.5572 -1.9773,-0.8775 -0.4964,-0.3073 -1.1522,-0.6075 -1.4274,-1.1583 -0.1301,-0.2602 -0.2105,-0.9374 0,-1.1934 0.0745,-0.0905 0.1158,-0.2607 0.2018,-0.3392l0 0c0.3777,-0.3449 0.4026,-1.4738 0.1258,-1.8604 -0.0256,-0.0357 0.0042,-0.0656 0.0117,-0.1139l-0.2799 -0.2865c-0.0046,-0.0141 -0.1626,-0.1308 -0.1955,-0.168 -0.1184,-0.1334 -0.2388,-0.1689 -0.3259,-0.3545 -0.1571,-0.3345 -0.2649,-0.6516 -0.3166,-1.0171 -0.0354,-0.251 -0.1501,-0.4796 -0.1955,-0.7278 -0.1908,-0.0633 -0.496,-0.8353 -0.5308,-1.0543 -0.0772,-0.4864 -0.3028,-0.7692 -0.6145,-1.1291 -0.7677,-0.8861 -2.7372,-0.8707 -3.8125,-1.1158 -0.7644,-0.1794 -1.5288,-0.3589 -2.2932,-0.5382 -0.416,-0.0976 -0.9914,-0.3788 -1.404,-0.585 -0.5113,-0.2556 -0.8996,-0.2808 -1.4742,-0.2808 -1.5459,0 -1.2336,-1.1582 -2.2581,-1.7316 -0.4529,-0.2535 -1.274,-0.1815 -1.6263,-0.5499 -0.2419,-0.2531 -0.397,-0.2539 -0.7488,-0.3627 -0.3731,-0.1153 -0.4454,-0.3607 -0.5499,-0.6669 -0.2122,-0.6222 -0.1882,-1.3108 -0.1989,-1.989 -0.0003,-0.0216 -0.0206,-0.0253 -0.0234,-0.0468 -0.0085,-0.0657 -0.032,-0.006 -0.0702,-0.1404 -0.1861,-0.6554 -0.0935,-1.1252 0.117,-1.6965 0.1859,-0.5044 0.0452,-0.8003 -0.1872,-1.17 -0.2746,-0.4366 -0.1107,-0.9818 -0.234,-1.4625 -0.2672,-1.0421 -1.6527,-1.0832 -1.8369,-2.0475 -0.0921,-0.4825 -0.0585,-1.1512 -0.0585,-1.6497 0,-0.2763 -0.0781,-1.0988 -0.1989,-1.3923 -0.26,-0.6321 -0.3154,-1.5251 -0.5499,-2.1879 -0.3223,-0.9112 -0.4095,-1.7098 -0.4095,-2.7027 0,-0.5116 0.2142,-1.2308 0.117,-1.7199 -0.0757,-0.3808 -0.2397,-1.5968 0.0702,-1.8486 0.4072,-0.331 0.7239,-0.2773 1.0647,-0.7722 0.3819,-0.5548 0.8731,-3.064 1.4742,-3.2058 0.0241,-0.0057 0.0337,-0.0153 0.0468,-0.0351 0.0263,-0.0394 0.0533,-0.1269 0.0724,-0.1792l0.1952 -0.9474c0.2292,-0.9318 0.679,-2.1045 0.5401,-3.0792 -0.0549,-0.3851 -0.3315,-0.5266 -0.5587,-0.7837 -0.1562,-0.1766 -0.4153,-0.2542 -0.5148,-0.3595 -0.2195,-0.1631 -0.4303,-0.3388 -0.6585,-0.4893 -0.3506,-0.2313 -0.7176,-0.4369 -1.0764,-0.6552 -0.3693,-0.2248 -0.7598,-0.2415 -1.1349,-0.4095 -0.1265,-0.0567 -0.4078,-0.1225 -0.4914,-0.2106 -0.374,-0.3937 -0.5606,-1.1771 -0.2223,-1.6848 0.32,-0.48 0.3547,-1.2652 0.1521,-1.8018 -0.3463,-0.9167 -1.5942,-1.6024 -0.7254,-2.8431 0.3465,-0.4947 0.3338,-1.0184 0.1481,-1.562l0 0 -43.7627 -0.2006 -6.3063 0.1177 -17.343 0.188 -7.9195 -0.1645 -52.1802 -0.1176 -1.9638 -0.0939 -2.679 0.235 -66.5228 -0.1354 0 0 -5.4603 -0.0024c0.0205,0.1165 0.0578,0.24 0.1201,0.3728 0.3574,0.7619 0.1081,1.2404 -0.517,2.35 -0.7128,1.265 1.2514,0.6447 1.363,1.2925 0.1572,0.9132 0.7659,0.8654 1.5275,1.4805 0.5326,0.4302 0.2584,1.1521 -0.047,1.8565 -0.1403,0.3234 -0.2115,2.0929 -0.2115,2.585 0,1.1685 -0.7204,0.8251 -1.4335,0.752 -0.9287,-0.0953 -0.2398,0.3591 -0.3995,0.8225 -0.0393,0.114 -0.0906,0.5849 0.047,0.6815 0.0756,0.053 0.4893,0.1466 0.5875,0.188 0.0262,0.0111 0.1582,0.1112 0.188,0.141 0.0078,0.0079 0.0158,0.0157 0.0235,0.0235 0.213,0.213 0.2851,0.9667 -0.2115,1.175 -0.0822,0.0345 -0.0261,0.1656 0.047,0.188 1.1719,0.3592 1.5415,1.2258 2.8435,0.799 0.1088,-0.0357 0.0969,-0.2175 0.188,-0.2585 0.1745,-0.0785 0.6435,2.8196 0.752,3.29 0.2832,1.2281 1.0551,1.5502 0.423,2.7495 -0.3358,0.637 -0.0068,1.7512 -0.329,2.256 -0.0731,0.1147 -2.209,0.8549 -2.209,1.1515 0,0.0392 -0.0189,0.0834 0,0.1175 0.1013,0.1823 0.2351,0.3447 0.3525,0.517 0.3066,0.4497 0.6815,0.5481 0.6815,1.081 0,0.7173 -0.6269,0.5634 -0.799,1.081 -0.0465,0.1398 -0.1887,0.8419 0.0235,0.9635 0.0803,0.0461 0.093,0.0938 0.141,0.1645 0.0248,0.0367 0.005,0.0332 0.047,0.047 0.4843,0.1591 -0.1505,1.7074 -0.3995,1.7625 -0.8953,0.198 -1.0903,1.1557 -0.705,1.8095 0.4334,0.7353 -0.4697,1.0998 -0.3995,1.9505 0.0498,0.6037 -0.2022,0.6998 -0.4465,1.2455 -0.2897,0.6473 -1.161,-0.1144 -1.222,1.222 -0.0447,0.9789 -0.6734,1.4912 -1.4335,2.021 -0.3707,0.2585 0.145,1.4552 -0.0705,1.739 -0.381,0.5015 0.0433,1.4042 0.4935,1.8095 0.4237,0.3816 0.6562,0.2313 0.987,0.4935 0.1723,0.1367 0.4805,0.7102 0.5875,0.799 0.0783,0.0651 0.2752,0.0173 0.3525,0.047 0.1926,0.0739 0.1754,0.1779 0.2585,0.3525 0.2739,0.5756 0.0433,0.3865 0.5875,0.658 0.4754,0.2373 0.6769,1.5723 0.94,1.9975 0.2412,0.3897 0.8301,0.9009 0.94,1.316 0.1746,0.6597 -0.3835,1.3333 0.235,1.88 0.7736,0.6836 0.2585,1.4223 0.2585,2.35 0,0.5659 0.6505,0.8953 0.8049,1.4444l0 0c0.0784,-0.0258 0.1565,-0.0459 0.2291,-0.0579 0.4242,-0.0704 0.8063,-0.235 1.269,-0.235 0.5549,0 1.0848,-0.0214 1.5275,0.2585 0.4208,0.2659 0.376,0.5476 0.376,1.081 0,0.4716 -0.0542,0.8971 -0.188,1.3395 -0.0854,0.2827 -0.064,0.6327 -0.2831,0.7788 -0.0117,0.0077 -0.0234,0.0157 -0.0351,0.0234 -0.1243,0.0829 -0.4315,0.3271 -0.5265,0.4914 -0.3873,0.6704 0.125,1.0808 0.0819,1.7316 -0.0272,0.4103 -0.4334,0.8069 -0.5031,1.2636 -0.1314,0.8611 0.5238,1.1317 1.1232,1.5093 0.7631,0.4809 0.914,0.9165 0.8775,1.8135 -0.0148,0.3638 0.3544,0.868 0.6552,1.053 0.4645,0.2856 0.8661,1.0287 0.585,1.5912 -0.2927,0.5855 -1.3219,0.7811 -0.9243,1.4157 0.5184,0.8276 -0.0402,1.8216 0.4446,2.5623 0.2291,0.35 0.5829,0.4418 0.8775,0.7137 0.3186,0.2942 0.343,0.5612 0.702,0.9243 0.6844,0.6924 1.668,-0.1841 1.4157,1.3806 -0.1286,0.7975 -0.498,1.2608 -0.3627,2.1411 0.0927,0.6028 0.1568,1.0656 0.7956,1.1817 0.9982,0.1814 0.3791,1.2657 0.5967,1.9188 0.124,0.3725 0.6939,0.2102 0.9477,0.2223 0.4887,0.0234 0.7417,0.1257 0.936,0.4914 0.3042,0.5722 1.755,-0.0718 1.9188,1.1232 0.0642,0.469 -0.2582,0.7542 -0.1521,1.2285 0.0457,0.2041 0.2911,0.9703 0.2106,1.1583 -0.1146,0.2673 -0.4867,0.2042 -0.702,0.3627 -0.5116,0.3768 0.0123,0.9379 0.1872,1.2519 0.114,0.2045 0.1395,0.3802 0.1872,0.6084 0.063,0.3014 0.1993,0.4655 0.4563,0.5499 1.179,0.3871 0.6661,1.4575 0.9243,2.2464 0.0998,0.3048 0.5138,0.2955 0.819,0.3627 0.5936,0.1307 1.1864,0.699 0.9828,1.3572 -0.15,0.4848 -0.5751,0.6423 -0.819,1.0296 -0.4202,0.6669 -0.6164,1.3525 -0.3861,2.1879 0.2622,0.9515 -0.4589,0.8468 -0.8658,1.4859 -0.3377,0.5306 -0.218,0.9517 0.4212,1.3689 0.5328,0.3476 0.6155,0.9609 0.2457,1.5093 -0.1986,0.2944 -0.659,0.5686 -0.7137,0.9243 -0.0794,0.5171 0.0721,0.6825 0.3744,0.9945 0.2253,0.2327 0.8712,0.5724 0.9594,0.9243 0.0556,0.2217 -0.2878,0.6065 -0.3393,0.7839 -0.3682,1.2667 0.1537,2.1395 1.5093,2.3868 0.1868,0.0341 0.4151,0.1609 0.585,0.2457 0.2049,0.1024 0.4079,0.1806 0.4563,0.3744 0.0039,0.0155 0.0079,0.0313 0.0117,0.0468 0.1137,0.4551 0.0509,0.8566 0.4212,1.2402 0.4016,0.4161 1.0738,0.6685 1.6263,0.702 0.4653,0.0283 1.1368,-0.1465 1.5444,0.2574 0.1824,0.1806 0.3401,0.5509 0.2574,0.7371 -0.1633,0.368 -0.45,0.4916 -0.468,0.9477 -0.0132,0.3344 0.0892,0.6267 0.0702,0.9594 -0.0372,0.6502 -0.2248,0.7969 0.0351,1.4976 0.4845,1.3063 -1.0558,0.8912 -0.8424,1.6965 0.0896,0.3382 0.4969,0.7373 0.7722,0.936 0.3799,0.2743 0.7781,0.1402 1.1817,0.3276 0.5895,0.2739 0.8849,0.1014 1.17,0.8424 0.4143,1.0768 -0.9377,1.2997 -1.5678,1.6146 -0.8479,0.4239 0.2864,1.8226 -0.1287,2.4453 -0.0077,0.0117 -0.0157,0.0234 -0.0234,0.0351 -0.2069,0.3104 -0.3102,1.3841 -0.1989,1.6497 0.1958,0.4674 0.7504,0.2549 1.1232,0.1755 0.5591,-0.119 1.755,-0.2815 1.989,0.4797 0.2221,0.7226 -1.2607,0.373 -1.5444,0.7722 -0.2353,0.3313 0.111,1.1511 0.3276,1.4976 0.1605,0.2566 0.2982,0.6568 0.3393,0.9945 0.075,0.6162 0.2492,1.1973 -0.1989,1.7199 -0.2729,0.3184 -0.468,0.7263 -0.468,1.1583 0,0.4529 0.9243,0.5476 0.9243,1.1934 0,0.1673 -0.2556,0.4859 -0.3159,0.6669 -0.1247,0.3747 0.042,0.6751 0.1755,1.0179 0.0189,0.0486 0.0145,0.1366 0.0468,0.1755 0.1823,0.22 0.679,0.4053 0.936,0.5148 0.1415,0.0602 0.2205,0.1619 0.234,0.3042 0.0743,0.7803 -0.4329,1.4362 -0.4329,2.1762 0,0.5783 0.2116,0.8917 0.6318,1.2519 0.7074,0.6066 0.7853,1.6406 -0.2574,1.872 -1.331,0.2955 -0.365,1.5241 -0.2574,2.2698 0.0136,0.0945 -0.1311,0.1513 -0.1521,0.2457 -0.1446,0.651 0.0231,0.9048 0.2925,1.5678 0.3503,0.8623 -0.2663,0.9467 -0.7605,1.3221 -0.0658,0.0499 -0.151,0.0901 -0.234,0.1053 -0.8064,0.1481 -1.0062,0.7786 -1.0062,1.4859 0,1.0686 1.4391,0.797 1.4391,2.0241 0,0.3991 0.164,0.9552 0.5967,1.0881 0.3321,0.1021 1.0058,0.2017 1.3104,0.3159 0.1721,0.0646 0.1987,0.2966 0.3276,0.4212 0.4119,0.3979 0.624,0.6423 0.702,1.2051 0.0713,0.5137 0.3537,0.562 0.6903,0.9594 0.2792,0.3298 0.274,0.5005 0.0234,0.9243 -0.1706,0.2882 -0.491,0.3189 -0.6345,0.6247l0 0z"/>
 </g>
</svg>
