<?xml version="1.0" encoding="UTF-8"?>
<!DOCTYPE svg PUBLIC "-//W3C//DTD SVG 1.1//EN" "http://www.w3.org/Graphics/SVG/1.1/DTD/svg11.dtd">
<!-- Creator: CorelDRAW -->
<svg xmlns="http://www.w3.org/2000/svg" xml:space="preserve" width="297mm" height="210mm" style="shape-rendering:geometricPrecision; text-rendering:geometricPrecision; image-rendering:optimizeQuality; fill-rule:evenodd; clip-rule:evenodd"
viewBox="0 0 297 210"
 xmlns:xlink="http://www.w3.org/1999/xlink">
 <defs>
  <style type="text/css">
   <![CDATA[
    .str2 {stroke:#2F3133;stroke-width:0.1}
    .str1 {stroke:black;stroke-width:0.1;stroke-opacity:0.501961}
    .str0 {stroke:black;stroke-width:0.1}
    .str3 {stroke:black;stroke-width:0.5}
    .fil5 {fill:none}
    .fil0 {fill:white}
    .fil2 {fill:#1F1A17;fill-rule:nonzero}
    .fil3 {fill:#C2C1C1;fill-rule:nonzero}
    .fil4 {fill:white;fill-rule:nonzero}
    .fil6 {fill:black;fill-rule:nonzero}
    .fil1 {fill:white;fill-rule:nonzero;fill-opacity:0.501961}
   ]]>
  </style>
 </defs>
 <g id="Plan_x0020_1">
  <metadata id="CorelCorpID_0Corel-Layer"/>
  <path class="fil0 str0" d="M268.993 160.149l-0.0359 -15.1345 -0.1302 -8.1158 0 -4.8391 0.1251 -5.5955 0.1628 -20.4384 0.0108 -3.9528 0.1404 -3.3048 -0.0919 -1.6672 -0.0917 -5.1077 0.2052 -17.4819c0,-0.238 0.091,-1.4879 0.0621,-2.314 0.0098,-0.1755 -0.1109,-0.3417 -0.1755,-0.6245 -0.0654,-0.2862 -0.1608,-0.6473 0.2753,-0.6498 0.0993,-0.47 0.5826,-1.2466 0.3916,-1.5849 -0.4871,-0.863 -0.99,0.0702 -1.8603,0.0702 -0.7348,0 -0.2378,-1.1672 -0.7722,-1.3572 -0.685,-0.2434 -0.8249,0.4052 -1.4625,0.6318 -0.6627,0.2354 -1.2569,-0.1161 -1.7433,-0.5499 -0.3333,-0.2971 -0.1073,-1.076 -0.7254,-1.1232 -0.4447,-0.034 -1.1309,0.1743 -1.3923,-0.2691 -0.1978,-0.3353 -0.1387,-0.5078 0.0351,-0.7722 0.245,-0.373 -0.0003,-1.0883 -0.1287,-1.2636 -0.1486,-0.2031 -0.3785,-0.3361 -0.6435,-0.4446 -0.2349,-0.0963 -0.5208,-0.1483 -0.7371,-0.2925 -0.4683,-0.312 -0.7238,-0.7439 -0.9009,-1.2753 -0.274,-0.8226 -0.6656,-1.9533 0.3978,-2.3283 0.5236,-0.1847 0.432,-0.7393 0.1638,-1.0647 -0.027,-0.0327 -0.0177,-0.0266 -0.0585,-0.0351 -0.3367,-0.0701 -0.5511,-0.1284 -0.9009,0.0351 -0.2214,0.1034 -0.6372,0.4651 -0.8892,0.234 -0.4642,-0.4255 0.0118,-0.9078 -0.702,-1.2987 -0.3981,-0.2181 -0.4433,-0.3307 -0.5967,-0.7722 -0.1753,-0.5049 -0.8279,-0.6551 -1.2519,-0.8541 -0.5899,-0.2768 -0.9771,-0.6586 -1.0296,-1.3455 -0.0475,-0.621 -0.7307,-1.2661 -1.3104,-1.6029 -0.4991,-0.2899 -0.7805,-0.4663 -0.8541,-1.1934 -0.0479,-0.4742 -0.0425,-0.9221 0.3978,-1.2051 0.4094,-0.263 0.8199,0.0444 1.2519,-0.0585 1.1138,-0.2652 0.0374,-1.6426 0.3159,-2.2698 0.1741,-0.3923 0.4929,-1.1247 0.8073,-1.4391 0.653,-0.653 0.8801,-0.435 1.6731,-0.6552 0.1711,-0.0475 0.2768,-0.1687 0.3042,-0.2457 0.2193,-0.6165 -0.0234,-1.1549 -0.0234,-1.7784 0,-1.2521 1.7543,-0.1503 2.4336,-0.0117 1.2198,0.2488 1.3005,-1.0922 0.9594,-1.8603 -0.2947,-0.6638 -0.676,-0.8193 -0.351,-1.6731 0.4152,-1.0904 -0.688,-1.2005 -1.3689,-1.4274 -1.6133,-0.5376 0.3205,-1.9719 -0.7488,-2.4102 -0.6019,-0.2468 -1.2396,0.1015 -1.8954,-0.117 -1.0769,-0.3588 -0.7078,1.0657 -0.936,1.1583 -0.0185,0.0075 -0.0281,0.0338 -0.0351,0.0468 -0.0191,0.0349 -0.0171,0.0661 -0.0468,0.0702 -0.201,0.0279 -0.3617,0.2464 -0.6669,0.234 -0.4078,-0.0167 -0.865,0.4431 -1.2636,0.1053 -0.3849,-0.3263 -0.7092,-0.2821 -1.17,-0.4329 -0.9743,-0.3188 -0.266,-1.0918 -0.8307,-1.5093 -0.1405,-0.1039 -0.4107,0.1054 -0.5967,0.1638 -0.7179,0.2253 -1.4093,0.5479 -1.3221,-0.6786 0.0674,-0.9476 0.3178,-1.0764 -0.8307,-1.0764 -0.8059,0 -0.6154,-0.2063 -1.0179,-0.7137 -0.4626,-0.583 -0.5496,-0.7518 -1.3338,-0.9828 -0.0469,-0.0138 -0.067,-0.0158 -0.0819,-0.0585 -0.1115,-0.3186 -0.3383,-0.2658 -0.1657,-0.702l0 0 -224.444 -0.012 0 0 0.3718 127.914 0 0 30.7316 -0.0861 3.1123 0.0767 2.106 -0.2457 5.6167 -0.1267 11.374 -0.0705 13.677 0.0705 7.238 -0.094 11.468 -0.0235 2.6328 0.0102 1.4508 0.0468 8.2304 -0.104 1.0594 0.0806 11.1136 -0.0571 6.53 0.0103 8.04 0.0367 3.8238 0.1154 4.4109 -0.0117 6.5988 -0.0702 8.0085 -0.01 6.2187 -0.0134 7.5523 0.0134 0.9887 -0.0368 1.5093 0.0468 7.137 0.0117 10.8335 -0.0217 3.3235 0.0217 1.0647 0.0936 1.053 -0.0819 1.8837 0.0702 8.2321 -0.1271 1.0694 -0.1186 8.2366 -0.0224 4.0055 -0.0264 8.4807 0.0026 3.9876 0.1047 7.6842 -0.0339 6.627 -0.0235 4.0461 -0.0479 2.0475 0.0702 3.9255 -0.1215 0 0z"/>
 </g>
</svg>
