<?xml version="1.0" encoding="UTF-8"?>
<!DOCTYPE svg PUBLIC "-//W3C//DTD SVG 1.1//EN" "http://www.w3.org/Graphics/SVG/1.1/DTD/svg11.dtd">
<!-- Creator: CorelDRAW -->
<svg xmlns="http://www.w3.org/2000/svg" xml:space="preserve" width="297mm" height="210mm" style="shape-rendering:geometricPrecision; text-rendering:geometricPrecision; image-rendering:optimizeQuality; fill-rule:evenodd; clip-rule:evenodd"
viewBox="0 0 297 210"
 xmlns:xlink="http://www.w3.org/1999/xlink">
 <defs>
  <style type="text/css">
   <![CDATA[
    .str2 {stroke:#2F3133;stroke-width:0.1}
    .str1 {stroke:black;stroke-width:0.1;stroke-opacity:0.501961}
    .str0 {stroke:black;stroke-width:0.1}
    .str3 {stroke:black;stroke-width:0.5}
    .fil5 {fill:none}
    .fil0 {fill:white}
    .fil2 {fill:#1F1A17;fill-rule:nonzero}
    .fil3 {fill:#C2C1C1;fill-rule:nonzero}
    .fil4 {fill:white;fill-rule:nonzero}
    .fil6 {fill:black;fill-rule:nonzero}
    .fil1 {fill:white;fill-rule:nonzero;fill-opacity:0.501961}
   ]]>
  </style>
 </defs>
 <g id="Plan_x0020_1">
  <metadata id="CorelCorpID_0Corel-Layer"/>
  <path class="fil0 str0" d="M16.7425 153.406l1.8765 -0.0294 0 0c0.215,-0.7498 0.6165,-1.4728 0.5139,-2.2036 -0.1974,-1.4056 -2.2512,-1.6972 -3.1561,-0.7907 -0.5851,0.586 0.0225,1.8891 0.3597,2.4534 0.1093,0.1828 0.2553,0.3724 0.406,0.5703l0 0zm4.5528 -0.161l2.7671 -0.3361 30.8256 0.2457 12.7578 0.128 1.2582 -0.9461 -0.3468 -3.0684 -0.868 -3.7324 7.5328 0.58 0.0622 1.373 16.7958 -0.434 6.8355 0.0651 3.1769 0.0543 5.454 -0.27 3.2184 -0.1728 8.2232 -0.1106 3.1685 0.1435 5.2511 -0.0567 2.2572 0.3802 5.4324 0.2376 6.9768 0.3564 0.5724 0.1836 4.3416 -0.0216 1.7064 0.0756 11.784 0.1987 3.5736 0.1037 3.3264 -0.0216 1.4688 0.162 2.3868 -0.0972 2.0628 0.1836 1.1873 -0.0746 1.2306 0.131 5.4013 0.4296 2.0736 0.2268 5.184 0 13.5518 0.2587 5.5534 0.1733 0.8631 0.1556 2.3959 -0.0491 8.3078 0.1203 0.6735 -0.7423 0 0 0.2985 -0.3701c0.1873,-0.2409 0.4829,-0.7293 0.8208,-0.7668 0.268,-0.2085 1.1084,-0.4504 1.4364,-0.5832l1.6524 -0.6696c1.0668,-0.4322 1.7816,-0.7119 2.9484,-0.54 0.6197,0.0912 1.0526,-0.0216 1.6416,-0.0216 0.0253,-0.0152 0.0503,-0.0172 0.0756,-0.0324l0.0324 0c0.0432,-0.0259 0.1266,-0.0539 0.1728,-0.0756 0.6917,-0.3842 1.2076,-0.9345 1.8684,-1.3608 0.6431,-0.415 1.4573,-0.4859 2.1816,-0.702l4.1256 -1.2312c0.7835,-0.2337 1.0073,0.088 1.7064,-0.378 0.1073,-0.7517 0.1152,-1.3032 0.6696,-1.8576 0.3174,-0.5713 0.633,-1.7169 1.1016,-2.0952 0.5858,-0.4731 1.5006,-0.5177 2.2032,-0.3456 0.5998,0.1468 0.9238,-0.304 1.5012,-0.378 0.907,-0.1162 1.4398,-0.4336 2.2788,-0.7236 0.9889,-0.3417 0.9492,-1.0063 1.0692,-1.8468l0.3024 -0.2808 0.0108 -0.0324c0.3647,-0.2084 -0.108,-1.3059 -0.108,-1.6308 0,-0.2412 0.1598,-0.8284 0.432,-0.8964 0.0976,-0.1709 0.4594,-0.3516 0.594,-0.54 0.2848,-0.0356 0.4761,-0.3487 0.864,-0.3672 0.4961,-0.0236 0.7212,-0.0824 1.1664,-0.2808 0.6428,-0.2866 1.0391,-1.1407 1.5768,-1.3068 0.5041,-0.1558 0.0688,-2.6774 0.3564,-3.3264 0.2357,-0.5316 1.9345,-0.5316 2.4516,-0.864l1.7388 -1.1664c0.5733,-0.3846 1.0883,-1.0109 1.7064,-1.296 1.1056,-0.5099 2.3329,-1.6937 3.5424,-1.8468 0.7573,-0.0958 1.5361,-0.481 2.268,-0.5724 0.1239,-0.0991 0.3357,-0.1021 0.4536,-0.2052 0.0778,-0.0111 0.1472,-0.0657 0.2268,-0.0756 0.1098,-0.0878 0.2635,-0.1112 0.3888,-0.2052l4.4632 -3.7845 8.7236 -7.8471 0 0c-0.1535,-0.0756 -0.2913,-0.1563 -0.4339,-0.2028 -0.8327,-0.2714 -0.803,0.3074 -1.6477,-0.2326 -0.3875,-0.2478 -0.7016,0.3789 -1.1371,0.1861 -0.5176,-0.229 -0.7928,-0.7907 -1.3692,-0.7907 -1.6537,0 -0.5823,-0.217 -1.0212,-1.3023 -0.3396,-0.8396 -1.489,-0.9193 -1.7869,-2.1162 -0.2961,-1.19 -0.5281,0.1338 -0.8123,0.4186 -0.3879,0.3888 -0.7523,-1.3391 -1.0907,-1.6046 -0.5148,-0.4037 -1.5879,-0.0221 -1.8566,-0.6744 -0.3481,-0.8449 -0.6962,-1.69 -1.0443,-2.5348 -0.1462,-0.3549 -0.6686,-2.0165 -0.8586,-2.2325 -0.1999,-0.2271 -0.9496,-0.3103 -1.1372,-0.6511 -0.3193,-0.5804 -0.3294,-0.0853 -0.673,-0.3721 -0.4183,-0.3493 -0.9397,-3.3083 -1.2532,-3.7441 -0.5728,-0.796 -1.4912,-0.6722 -1.5316,-0.6976 -0.288,-0.1806 -1.0913,-1.5407 -0.3249,-1.7906 0.2218,-0.0723 0.5354,-1.4645 0.4177,-1.5116 -0.2414,-0.0968 -1.6145,-1.1315 -1.7638,-1.3256 -0.0929,-0.1206 -0.9006,-1.9726 -1.2763,-2.3487 -0.8071,-0.8081 -1.4708,-1.39 -2.1815,-2.372 -0.4936,-0.6822 -0.9274,-1.6944 0.0232,-2.2558 0.7066,-0.4174 1.488,-0.4198 1.1371,-1.5581 -0.1162,-0.3771 -0.8323,-0.997 -0.789,-1.186 0.0182,-0.0792 0.7638,-0.6511 0.9747,-0.7674 0.3623,-0.2 0.4698,-0.7695 0.3945,-1.1627 -0.1796,-0.9369 0.0608,-1.8775 -0.3713,-2.7441 -0.2617,-0.5251 -0.5338,-0.9444 -0.5338,-1.6046 0,-0.5262 0.5213,-1.8603 0.3908,-2.197l0 0c-0.099,-0.2033 -0.1465,-0.4312 -0.1363,-0.6867 0.0273,-0.6817 -0.0031,-1.0349 -0.5569,-1.4766 -0.5191,-0.4139 -0.9763,-0.4869 -1.4737,-1.0465 -0.6937,-0.7802 -1.0733,-2.2605 -2.2394,-2.4999 -1.0108,-0.2076 -1.9183,0.0274 -2.8545,-0.5349 -1.0846,-0.6516 -2.0636,-1.0876 -1.7521,-2.2325 0.0115,-0.0426 0.0232,-0.0853 0.0348,-0.1279 0.2807,-1.0324 0.14,-1.5926 -0.4757,-2.4999 -0.6437,-0.9488 0.5935,-1.7606 0.2436,-2.686 -0.3144,-0.8312 -1.0574,-0.6474 -1.7173,-0.4069 -0.5949,0.2169 -2.0006,1.3455 -2.576,1.0464 -0.4386,-0.2281 -0.8205,-0.3903 -1.2183,-0.1627 -0.3672,0.2102 -0.7854,1.3015 -1.0791,1.5232 -0.5094,0.3843 -0.8234,0.5068 -1.3692,0.6279 -1.0049,0.2229 -0.8841,1.7346 -1.4621,2.3138 -0.2737,0.2744 -2.2013,0.6444 -2.5179,0.5116 -0.4352,-0.1827 -0.6868,-0.8825 -1.1836,-0.7557 -0.4299,0.1098 -0.6939,0.4066 -0.9747,0.7906 -0.2522,0.3447 -0.4721,0.8806 -0.8354,1.1046 -0.8289,0.5113 -0.7462,-0.935 -0.8123,-1.465 -0.2551,-2.0448 -2.7571,-1.883 -4.4789,-2.1395 -0.6863,-0.1022 -0.8606,-0.3783 -1.3692,-0.7674 -0.2631,-0.2014 -0.4791,-0.3461 -0.7775,-0.4302 -0.3601,-0.1014 -0.7086,-0.157 -1.0907,-0.0698 -0.5335,0.1217 -0.865,0.604 -1.4272,0.6977 -0.3552,0.0592 -0.7606,0.0527 -1.0675,0.2558 -0.8066,0.5337 -0.7017,1.9246 -1.3924,2.1743 -0.366,0.1322 -1.1535,-0.0687 -1.4969,-0.3372 -0.3801,-0.2971 -0.6622,-0.4645 -1.2068,-0.5581 -0.4337,-0.0746 -0.9129,-0.0607 -1.2067,-0.4535 -0.5102,-0.6818 -0.3138,-1.3853 -0.9979,-1.9185 -0.3777,-0.2945 -1.2372,-0.0761 -1.5549,-0.5814 -0.4437,-0.7054 -0.1637,-1.8385 -1.288,-2.0232 -0.9476,-0.1557 -1.3396,-0.5359 -2.251,-0.9069 -1.3523,-0.5504 -2.5555,0.84 -3.8524,0.6976 -0.8613,-0.0946 -2.0636,-0.7019 -2.9125,-0.9302 -0.5763,-0.1549 -1.1526,-0.3102 -1.7289,-0.4651 -0.393,-0.1057 -0.9577,-0.2069 -1.1951,-0.4651 -0.7101,-0.772 -0.2785,-1.6046 -0.2785,-2.5929 0,-1.2092 -0.2783,-1.5482 -1.0791,-2.3953 -0.4457,-0.4716 -0.8068,-1.1416 -1.1256,-1.7092 -0.331,-0.5895 -0.1366,-1.3619 -0.4525,-2.0349 -0.284,-0.6049 -0.802,-0.8928 -1.288,-1.279 -0.7201,-0.5721 -2.7054,-0.1871 -2.9357,-1.4185 -0.0866,-0.4632 -0.109,-1.6901 -0.4177,-2 -1.3079,-1.3125 -1.5401,0.856 -2.6804,0.8023 -0.5292,-0.0249 -0.8666,-0.492 -1.3576,-0.2093 -0.4381,0.2521 -0.7692,0.9856 -1.2648,1.0814 -0.5814,0.1125 -0.9661,0.03 -1.462,-0.3488 -0.3837,-0.293 -0.5183,-0.6102 -1.0559,-0.7326 -1.3444,-0.3061 -0.9171,-1.5417 -1.9726,-2.0348 -0.7118,-0.3326 -1.4092,0.4374 -1.8218,0.9302 -0.4221,0.504 -0.8937,0.649 -1.3815,0.842l0 0c-0.3024,0.1197 -0.6139,0.2517 -0.916,0.5184 -0.4175,0.3687 -0.8003,0.6696 -1.288,0.9884 -0.4413,0.2886 -0.5371,0.4191 -0.2088,1.0697 0.2108,0.4176 0.4725,0.7159 0.7426,1.0814 0.508,0.6871 1.3147,1.3769 1.2068,2.3022 -0.0088,0.0756 -0.273,0.591 -0.3945,0.7326 -0.1719,0.2005 -0.3501,0.443 -0.557,0.6162 -0.3431,0.2873 -0.7194,0.5214 -0.7194,1 0,1.2061 2.2981,0.7089 2.9124,1.1395 0.0857,0.0601 0.233,0.0905 0.2553,0.186 0.1331,0.5678 0.2883,0.9251 -0.2785,1.3837 -0.3414,0.2763 -0.7316,0.5216 -0.9166,0.9418 -0.2919,0.6633 1.3833,2.4619 -0.499,2.2325 -0.7462,-0.0909 -1.1546,-0.4641 -1.9494,-0.2907 -0.4348,0.0949 -0.6163,0.5797 -1.0675,0.686 -0.4792,0.113 -0.7755,0.0777 -1.2416,0 -1.1451,-0.1908 -1.3933,0.2118 -2.3207,0.7907 -0.4984,0.3112 -1.0255,0.4833 -1.5316,0.8023 -0.2279,0.1437 -1.0747,0.725 -1.2648,0.9302 -0.6169,0.6655 -2.0676,1.6017 -3.0053,1.4186 -0.3966,-0.0775 -0.667,-0.1218 -0.8354,-0.4186 -0.5221,-0.9205 -0.7498,-1.7788 -1.8798,-2.0232 -1.251,-0.2707 -2.5152,0.7982 -3.7247,0.5 -0.674,-0.1662 -1.0132,-0.5206 -1.7057,-0.1047 -0.7317,0.4396 -0.9287,1.7267 -0.6266,2.4534 0.4842,1.1651 0.4267,2.0925 0.4525,3.3953 0.008,0.4055 0.3545,0.9188 0.6962,1.1743 0.0632,0.0473 0.0478,0.1287 0.0929,0.1977 0.3403,0.5196 -0.1419,1.5968 -0.5454,1.9418 -0.6313,0.54 -1.2071,0.7037 -1.7173,1.4418 -0.2762,0.3994 -0.3335,0.7531 -0.7078,1.1279 -0.5716,0.5726 -1.1102,0.5548 -1.845,0.6744 -1.255,0.2042 -1.636,0.2144 -2.2859,1.3255 -0.8561,1.4639 -0.7064,3.4166 -1.7521,4.8371 -0.4464,0.6063 -2.7754,2.5928 -3.3998,2.1278 -0.1974,-0.1471 -0.6198,-0.7054 -0.8355,-0.8372 -0.7574,-0.4626 -1.5586,0.7333 -1.6361,1.3372 -0.0539,0.4196 0.0215,0.86 -0.3481,1.186 -0.3235,0.2852 -0.6952,0.4999 -0.9746,0.8372 -0.6679,0.8066 -1.1736,1.437 -1.1024,2.6045 0.0738,1.2089 0.3035,2.1293 -0.1856,3.2906 -0.2338,0.5554 -0.0788,0.9842 -0.1857,1.5232 -0.087,0.4385 -0.174,0.7745 -0.4989,1.0698 -0.4952,0.4503 -0.9963,0.6185 -1.7057,0.6395 -0.5965,0.0177 -1.5364,0.0719 -1.787,0.6395 -0.1139,0.2579 0.0018,0.9525 -0.1508,1.1744 -0.0623,0.0905 -0.1198,0.1473 -0.2437,0.1162 -0.1125,-0.0283 -0.1644,-0.1497 -0.2437,-0.2209 -0.0427,-0.0382 -0.1141,-0.1276 -0.1392,-0.1744 -0.2166,-0.403 -0.4332,-0.8063 -0.6498,-1.2093 -0.2214,-0.4121 -0.3573,-0.558 -0.9283,-0.7557 -0.418,-0.1448 -0.8404,-0.0582 -1.2648,-0.0582 -0.832,0 -1.4259,0.3858 -2.1698,-0.2325 -0.0675,-0.056 -0.1724,-0.1337 -0.2553,-0.1744 -0.1044,-0.0514 -0.3401,-0.1369 -0.4293,-0.2326 -0.6831,-0.7321 -1.5499,-0.8569 -1.9494,-1.9069 -0.3898,-1.0248 0.302,-1.7718 0.116,-2.7092 -0.114,-0.5745 -0.5548,-0.9082 -0.9747,-1.279 -0.5574,-0.4921 -0.9318,-1.1593 -1.462,-1.6046 -1.039,-0.8729 -1.7809,1.1673 -0.4757,1.5697 0.2963,0.0913 1.2362,0.0719 1.3228,0.3721 0.2567,0.8898 -0.694,1.1979 -1.3576,1.1162 -0.9826,-0.1211 -0.8866,0.3785 -1.4621,0.9535 -0.0771,0.0771 -0.1737,0.1477 -0.2785,0.0813 -0.5139,-0.326 -0.9579,-1.5298 -1.7057,-1.0115 -0.654,0.4534 0.0325,1.6477 0.731,1.6627 0.0458,0.0009 0.1675,-0.0107 0.1973,0.0349 0.3501,0.5343 -0.2312,1.289 -0.6962,1.6046 -0.6808,0.4619 -1.2399,0.1295 -1.8798,0.3837 -0.9076,0.3604 -0.7908,3.5099 -0.4293,4.2789 0.121,0.2574 0.4028,0.5024 0.2553,0.8256 -0.3748,0.8217 -1.7786,0.5162 -2.3671,0.2093 -0.0755,-0.0394 -0.1613,-0.055 -0.2205,0 -0.9683,0.9013 0.3122,3.2401 -1.8682,3.4417 -1.7039,0.1576 0.0292,-2.0937 -0.3713,-2.6627 -1.0634,-1.5104 -2.2292,1.2346 -3.1213,0.5232 -1.1265,-0.8984 -1.3168,-2.7379 -1.9378,-3.9301 -0.4626,-0.888 -1.4432,-0.5717 -2.1118,-0.1395 -0.8037,0.5194 -1.0644,1.7395 -1.8218,2.1743 -0.6101,0.3501 -2.1145,0.1321 -2.75,0.4884 -0.3249,0.1821 -0.6499,0.3644 -0.9747,0.5465 -1.5356,0.8609 -0.7484,3.4992 -1.7289,4.8719 -0.7248,1.0146 -1.6828,1.405 -2.3323,0.6047 -0.9684,-1.1935 -0.2458,-2.4572 -2.3671,-2.3953 -0.7112,0.0207 -0.9239,-0.2288 -1.4272,-0.6744 -0.5389,-0.4773 -0.8758,-1.0843 -1.4969,-1.5232 -0.8197,-0.5794 -1.8885,-0.8284 -2.6224,-1.5116 -0.5392,-0.5018 -1.4139,-0.7345 -2.1234,-0.6395 -0.8957,0.1199 -1.2777,0.6461 -1.9726,1.093 -0.9886,0.6359 -2.7615,0.8864 -3.3534,-0.4651 -0.2448,-0.5589 0.4235,-1.3564 0.058,-1.8488 -0.5865,-0.7899 -0.9781,0.681 -1.2067,1.3023 -0.0128,0.0347 -0.0162,0.0346 -0.0464,0.0581 -0.0944,0.0732 -0.2454,0.1458 -0.2901,0.2558 -0.3549,0.8738 0.2836,1.2627 0.8354,1.6744 0.5859,0.437 0.7401,1.2326 0.3249,1.7558 -0.6793,0.8561 -1.3523,1.1832 -2.3439,1.3255 -0.64,0.0919 -1.2776,-0.6904 -0.9747,-1.3488 0.2322,-0.5046 0.8711,-1.3998 0.3365,-1.7674 -0.5228,-0.3596 -0.6746,-0.0862 -1.288,0.0582 -0.6668,0.1571 -0.7813,-0.0174 -1.346,-0.0466 -0.3906,-0.0201 -0.7291,0.2841 -1.0211,0.5 -0.527,0.3899 -0.7164,0.4847 -1.346,0.2326 -0.7033,-0.2815 -1.0983,-0.5178 -1.5316,-1.1628 -0.5995,-0.8921 -0.8623,-1.5104 -1.7754,-0.4186 -0.9143,1.0934 -1.022,1.6522 0.1393,2.7325 0.3888,0.3618 0.4118,1.1529 0.2204,1.7092 -0.1816,0.5281 -0.3586,0.4971 -0.8006,0.6047 -0.4961,0.1209 -0.2556,0.9063 -0.8006,1.1627 -0.4439,0.2087 -0.9435,-0.8175 -1.5433,-0.6744 -0.4584,0.1093 -0.7624,0.5225 -1.1255,0.8488 -0.1114,0.1002 -0.2808,0.2584 -0.4284,0.4086l0 0c-0.1673,0.1704 -0.3109,0.3342 -0.3839,0.4519 -0.6614,1.0666 -1.2058,1.35 -2.2162,1.9301 -1.073,0.6159 -1.2451,2.0066 -1.172,3.1278 0.0694,1.0636 0.75,2.4111 1.4504,3.1976 0.6974,0.7833 1.7318,1.5342 1.4737,2.7209 -0.2356,1.0835 -1.3683,1.0904 -2.2163,1.2557 -0.4063,0.0792 -0.9187,0.2163 -1.2996,0.3023 -0.1182,0.0267 -0.2529,0.1498 -0.3713,0.1745 -1.0712,0.2242 -1.8069,0.1627 -2.866,0.1627 -0.9016,0 -1.3639,0.3415 -2.0654,0.7791 -0.241,0.1504 -0.4813,0.3928 -0.6498,0.6628 -0.0581,0.0932 -0.2826,0.2746 -0.3598,0.3371 -0.1468,0.1187 -0.2979,0.2919 -0.4641,0.3838 -0.1246,0.069 -0.1915,0.1308 -0.3249,0.0581 -0.0425,-0.0232 -0.0851,-0.0466 -0.1276,-0.0698 -0.3039,-0.1662 -0.6941,-0.8261 -1.0211,-0.9418 -0.4483,-0.1585 -1.8725,0.7452 -2.019,1.1395 -0.1905,0.513 -0.3459,0.952 -0.3829,1.5232 -0.0297,0.4574 -0.1314,0.9384 -0.2901,1.372 -0.2818,0.7702 -0.8921,1.3574 -1.0211,2.1977 -0.1968,1.2827 2.0759,2.0677 2.0538,3.1161 -0.0004,0.0231 0.7536,1.3469 0.9631,1.6976 0.6283,1.0521 -0.9284,4.2473 -1.9494,4.6394 -1.8514,0.7109 -3.136,-0.8664 -4.4906,-1.779 -0.3947,-0.2658 -1.5199,-0.6467 -2.0074,-0.8604 -0.6869,-0.301 -1.3941,-0.4777 -2.135,-0.6163 -0.164,-0.0307 -0.4132,-0.1136 -0.5454,-0.2209 -0.9342,-0.7576 -1.9767,-1.5795 -3.0749,-2.1278 -0.5693,-0.2843 -2.0013,-0.4938 -2.5411,-0.8721 -0.0386,-0.0271 -0.0774,-0.0543 -0.1161,-0.0814 -1.0005,-0.7014 -2.4228,-0.4117 -3.4926,0.2442 -0.7782,0.4772 -1.9665,1.1668 -2.4368,1.965 -0.3526,0.5983 -0.6762,1.3477 -0.963,1.9535 -0.443,0.936 -1.6013,1.4052 -2.019,2.4185 -0.0561,0.136 -0.1746,0.3098 -0.2089,0.4535 -0.017,0.071 -0.008,0.0698 -0.0464,0.1627 -0.3476,0.841 0.0871,1.3151 0.4873,1.9302 0.274,0.4211 0.6961,0.7267 1.1046,0.906l0 0c0.0712,0.0312 0.1492,0.0588 0.2182,0.0823 1.3393,0.4559 0.6634,2.3505 0.3597,3.1162 -0.2028,0.5113 -0.2394,1.0956 -0.4293,1.6046 -0.0996,0.2668 -0.2111,0.5446 -0.323,0.8425 -0.0537,0.0681 -0.099,0.1203 -0.1483,0.1734 -0.5226,0.5626 -1.4197,0.691 -1.2636,1.7064 0.1417,0.9211 0.4691,1.0584 1.3716,1.0584 0.1555,-0.1244 0.2898,-0.1322 0.3983,-0.0629 0.1471,0.2878 0.2667,0.6043 0.2667,0.8402 0,0.3459 -0.0917,0.65 -0.2204,0.946 -0.2864,0.013 -0.6317,-0.2049 -0.8658,-0.2437 -0.4585,-0.0762 -0.9679,0.1308 -1.3068,0.432 -1.094,1.2691 0.9128,2.2993 0.9406,3.5071 -0.2552,0.3774 -0.5842,0.6886 -0.9843,1.0212 -0.3637,0.3024 -0.6287,1.1541 -0.673,1.5 -0.0695,0.5435 -0.3727,1.2107 -0.8703,1.4999 -0.8724,0.5071 -1.8608,-0.6328 -2.4626,-1.2358 -0.3607,-0.54 -0.7247,-1.0525 -1.1452,-1.2704 -1.508,-0.7815 -1.4332,1.3765 -1.7298,2.4946 -0.2446,0.4518 -0.4646,1.1443 -0.5686,1.7092 -0.072,0.3913 -0.1451,0.7893 -0.2743,1.1651l0 0z"/>
 </g>
</svg>
