<?xml version="1.0" encoding="UTF-8"?>
<!DOCTYPE svg PUBLIC "-//W3C//DTD SVG 1.1//EN" "http://www.w3.org/Graphics/SVG/1.1/DTD/svg11.dtd">
<!-- Creator: CorelDRAW -->
<svg xmlns="http://www.w3.org/2000/svg" xml:space="preserve" width="297mm" height="210mm" style="shape-rendering:geometricPrecision; text-rendering:geometricPrecision; image-rendering:optimizeQuality; fill-rule:evenodd; clip-rule:evenodd"
viewBox="0 0 297 210"
 xmlns:xlink="http://www.w3.org/1999/xlink">
 <defs>
  <style type="text/css">
   <![CDATA[
    .str2 {stroke:#2F3133;stroke-width:0.1}
    .str1 {stroke:black;stroke-width:0.1;stroke-opacity:0.501961}
    .str0 {stroke:black;stroke-width:0.1}
    .str3 {stroke:black;stroke-width:0.5}
    .fil5 {fill:none}
    .fil0 {fill:white}
    .fil4 {fill:#1F1A17;fill-rule:nonzero}
    .fil2 {fill:#C2C1C1;fill-rule:nonzero}
    .fil3 {fill:white;fill-rule:nonzero}
    .fil6 {fill:black;fill-rule:nonzero}
    .fil1 {fill:white;fill-rule:nonzero;fill-opacity:0.501961}
   ]]>
  </style>
 </defs>
 <g id="Plan_x0020_1">
  <metadata id="CorelCorpID_0Corel-Layer"/>
  <path class="fil0 str0" d="M113.574 170.033c-0.0918,0.3673 -0.2669,0.5321 -0.2669,0.9651 0,0.3438 0.0885,0.409 -0.2669,0.5814 -0.6008,0.2916 -0.8879,-0.217 -1.5201,0.3255 -0.4154,0.3566 -0.3362,0.1465 -0.7426,-0.1046 -0.0736,-0.0455 -0.3482,-0.0817 -0.3713,-0.1279 -0.1632,-0.0408 -0.1136,-0.8721 -0.8354,-0.8721 -0.6538,0 -0.6983,-0.2313 -1.2068,-0.5465 -0.2387,-0.148 -0.5269,-0.0907 -0.7774,-0.2093 -0.4151,-0.1964 -0.6523,-0.5994 -1.0908,-0.7092 -0.1681,-0.042 -0.404,0.0486 -0.5453,-0.0349 -0.1906,-0.1125 -0.335,-0.3356 -0.557,-0.4651 -0.2293,-0.1336 -0.733,-0.3726 -0.9863,-0.3488 -0.2024,-0.244 -0.8301,-0.537 -0.9051,-0.8372 0.3294,-0.1098 0.6206,-0.6322 0.9399,-0.8721 0.3379,-0.2537 0.3139,-0.7558 0.8007,-0.7558 0.6044,0 1.31,0.3352 1.8913,0 0.1195,-0.0688 0.2257,-0.1766 0.3133,-0.279 0.1228,-0.1438 0.0002,-0.4647 0.2089,-0.4303 0.2391,0.0395 0.3915,-0.1148 0.6034,-0.2093 0.234,0.0529 0.3742,0.2429 0.6382,0.2907 0.1502,0.0272 0.3543,0 0.5105,0 0.2985,0 0.5474,0.3146 0.8355,0.2093 0.083,-0.0304 0.5105,-0.4221 0.5105,-0.093 0,0.5747 0.5939,0.9543 1.1023,1.0814l0.0116 0.0116c0.0368,0.1474 -0.0644,0.2143 -0.0812,0.3488 -0.117,0.0292 -0.2689,0.3663 -0.2321,0.4767 0.4668,0 0.6167,-0.3311 1.0328,-0.4185 0.4814,-0.101 0.4718,0.4254 0.5569,0.7674 0.1502,0.0214 0.4148,-0.0582 0.615,-0.0582 0.0333,0.1339 -0.0279,0.2656 0.0348,0.407 0.3076,0.2976 0.5532,0.0349 0.9167,0.0349 0.2671,0 0.3181,-0.0612 0.5454,-0.1861 0.1195,-0.0656 0.2789,-0.2441 0.4061,-0.2441 0.2066,0.2066 0.0806,0.4666 -0.058,0.6627 -0.1226,0.1733 -0.2117,0.237 -0.383,0.3605 -0.2423,0.1749 -0.4311,0.3891 -0.7078,0.5116 -0.2778,0.1229 -0.5233,0.2403 -0.789,0.3953l-0.1508 0.3721zm37.0846 20.2145c0.4811,0 0.9455,-0.171 1.4214,-0.2268 0.243,-0.0285 0.5256,-0.0938 0.76,-0.1686 0.1477,-0.0472 0.3983,-0.1744 0.5396,-0.1744 0,0.2751 -0.916,0.5608 -1.1313,0.6046 -0.3044,0.0618 -0.6267,0.0756 -0.9341,0.1279 -0.2287,0.039 -0.6076,0.1169 -0.7658,-0.1046l0.1102 -0.0581zm-3.0691 -0.1803c0.2974,0.0637 0.6447,0.148 0.9515,0.0989 0.2172,-0.0348 0.4016,-0.0677 0.6092,-0.1454 0.1027,-0.0385 0.2934,-0.1802 0.3945,-0.1802 0.0735,0.0919 -0.1515,0.3088 -0.2089,0.3663 -0.2096,0.2103 -0.6218,0.1976 -0.8992,0.1976 -0.2038,0 -0.4025,-0.0142 -0.6034,-0.029 -0.0784,-0.0058 -0.2182,-0.0245 -0.2843,-0.064 -0.0824,-0.0494 -0.0705,-0.177 -0.1102,-0.25l0.1508 0.0058zm-3.2721 -0.3314c-0.071,0.0165 -0.2599,-0.0741 -0.3249,-0.1104 -0.1538,-0.0858 -0.2736,-0.1337 -0.4525,-0.1337 0,0.0628 0.7404,0.5238 0.8354,0.5639 0.1564,0.0659 0.3144,0.1095 0.4758,0.1512 0.0508,0.0131 0.3771,0.1013 0.3771,0.0116 -0.1206,-0.0402 -0.2632,-0.1582 -0.4061,-0.2093 -0.0695,-0.0249 -0.154,-0.0513 -0.2147,-0.0872 -0.0722,-0.0426 -0.1393,-0.0997 -0.2089,-0.1395l-0.0812 -0.0466zm9.3697 -0.1918c0.3217,0.0689 0.7204,0.0241 1.0385,-0.064 0.1815,-0.0502 0.3518,-0.0992 0.5047,-0.2151 0.0927,-0.0704 0.2648,-0.1569 0.3829,-0.1569 0.0706,0.0941 -0.2579,0.3327 -0.3249,0.3662 -0.3014,0.1506 -0.6429,0.2273 -0.9746,0.2616 -0.1413,0.0146 -0.2808,0.0403 -0.4236,0.0233 -0.157,-0.0186 -0.203,-0.0699 -0.3133,-0.1802l0.1103 -0.0349zm5.2332 -1.3139c0.6241,0.4809 1.3147,0.6213 2.0074,0.9883 0.4143,0.2196 0.7938,0.2828 1.2416,0.3605 0.3907,0.0677 0.8028,0.024 1.1719,0.1162 0,0.2667 -0.8133,0.1482 -0.963,0.1396 -0.7368,-0.0425 -1.4495,-0.365 -2.1351,-0.6395 -0.3259,-0.1305 -0.7339,-0.2522 -1.0211,-0.4303 -0.119,-0.0737 -0.2784,-0.1359 -0.3829,-0.2325 -0.057,-0.0528 -0.1814,-0.3651 -0.0696,-0.3837l0.1508 0.0814zm7.7277 1.3662c0.082,0 0.1853,-0.0549 0.261,-0.0872 0.1657,-0.0709 0.3294,-0.1405 0.499,-0.2035 0.1422,-0.0527 0.3357,-0.1453 0.4873,-0.1453 0.0102,0.0102 0.013,0.0188 0.0232,0.029 0,0.0212 -0.0072,0.0286 -0.0116,0.0466 -0.0143,0.0082 -0.0168,0.011 -0.029,0.0232 -0.1186,0.0817 -0.2539,0.1299 -0.3771,0.1977 -0.0816,0.045 -0.1649,0.0793 -0.2553,0.1163 -0.0461,0.0189 -0.1078,0.0532 -0.1508,0.0639 -0.0026,0.0106 -0.001,0.009 -0.0116,0.0116 -0.0037,0.0113 -0.0021,0.0003 -0.0058,0.0117l-0.0116 0.0058c-0.0726,0.029 -0.144,0.0723 -0.2089,0.1163 -0.0356,0.0242 -0.0488,0.0465 -0.0928,0.0581 -0.0463,0.0121 -0.0848,0.0116 -0.1334,0.0116 -0.0533,0 -0.0794,-0.0214 -0.1161,-0.0581 -0.0058,-0.0464 -0.0235,-0.0978 -0.0058,-0.1454l0.1393 -0.0523zm14.5505 -9.1218c0.0985,0.0227 0.2696,-0.1095 0.3423,-0.1686 0.1917,-0.1556 0.4421,-0.2447 0.6382,-0.4069 0.1301,-0.1077 0.3496,-0.2268 0.5163,-0.2268 0.0347,0.1391 -0.1803,0.2432 -0.29,0.3082 -0.2416,0.143 -0.4576,0.3306 -0.7078,0.4476 -0.137,0.0641 -0.4204,0.3359 -0.5628,0.2093l0.0638 -0.1628zm4.7463 -1.6743c0.4464,0.0343 0.9746,-0.0582 1.4504,-0.0582 0.7661,0 1.5427,0.3686 2.2859,0.4884 0.2539,0.0409 1.9554,0.4593 1.9958,0.5814 -1.0251,0 -1.9656,-0.365 -2.9473,-0.5698 -0.5393,-0.1124 -1.0621,-0.2209 -1.6245,-0.2209 -0.2283,0 -0.4603,-0.0422 -0.6846,-0.0582 -0.1885,-0.0135 -0.4742,0.1309 -0.5685,-0.0581l0.0928 -0.1046zm-2.9009 -0.0698c0.1237,0.038 0.238,0.1239 0.3713,0.1512 0.1775,0.0365 0.3582,0.0501 0.5454,0.0348 0.1045,-0.0086 0.1979,-0.0354 0.3017,-0.0465 0.1029,-0.0111 0.1754,0.0117 0.2669,0.0117 0.0046,0.014 0.0271,0.03 0.0464,0.0348 0,0.1618 -0.1167,0.1642 -0.2437,0.1977 -0.1164,0.0306 -0.2143,0.0698 -0.3365,0.0698 -0.1904,0 -0.373,-0.0233 -0.5569,-0.0233 -0.1163,0 -0.1675,-0.0311 -0.2669,-0.0698 -0.0579,-0.0226 -0.1712,-0.1046 -0.2205,-0.1046 -0.0266,-0.0467 -0.0676,-0.0529 -0.0812,-0.1046 -0.0119,-0.0457 -0.0116,-0.081 -0.0116,-0.128l0.1856 -0.0232zm-4.9261 -5.3196c0,-0.0788 0.0025,-0.2709 -0.0522,-0.3256 -0.1285,0 -0.2725,-0.0089 -0.4003,-0.0348 -0.1501,-0.0303 -0.3474,-0.1105 -0.4989,-0.1105 -0.1242,0.1242 0.199,0.5226 0.2494,0.6511 0.0664,0.169 0.07,0.3027 0.1045,0.4768 0.0162,0.0823 0.0469,0.2583 0.1276,0.2965 0.1776,0.084 0.4874,-0.1284 0.5164,-0.314 0.0112,-0.0722 -0.052,-0.1511 -0.0813,-0.2151 -0.0516,-0.1124 -0.058,-0.2204 -0.058,-0.343l0.0928 -0.0814zm1.346 -0.5639c-0.0181,0.0055 -0.0247,0.0094 -0.0406,0.0116 -0.1148,0.1607 -0.3964,0.139 -0.5569,0.1046 -0.2595,-0.0558 -0.2465,0.0617 -0.1277,0.25 0.0906,0.1437 0.2115,0.2485 0.3423,0.3489 0.141,0.1081 0.0986,0.1839 0.0464,0.3372 -0.0236,0.0692 -0.0556,0.2218 -0.0116,0.2906 0.0288,0.0452 0.1896,0.0555 0.2495,0.1047 0.174,0.1426 0.1276,0.399 0.2669,0.5116 0.1462,0.118 0.2378,-0.2382 0.2378,-0.3256 0,-0.1094 -0.0881,-0.2898 -0.1508,-0.3779 -0.0711,-0.0997 -0.183,-0.3496 -0.1799,-0.4709 0.0046,-0.1838 0.0439,-0.3666 -0.0232,-0.5465l-0.0522 -0.2383zm14.8355 8.4067c0.4558,0.2454 1.0344,0.245 1.5085,0.4534 0.2842,0.125 0.6311,0.1921 0.9282,0.3024 0.2219,0.0823 0.5267,0.1104 0.7194,0.2558l0 0.0232c-0.1405,-0.0152 -0.2851,-0.0173 -0.4177,-0.0581 -0.0746,-0.023 -0.1575,-0.0306 -0.232,-0.0582 -0.0812,-0.03 -0.1889,-0.0515 -0.2553,-0.1046 -0.0484,-0.006 -0.1224,-0.0224 -0.1625,-0.0465 -0.0306,0 -0.0442,0.0036 -0.0696,-0.0116 -0.3719,0.0719 -0.7822,-0.1532 -1.1255,-0.2907 -0.1605,-0.0642 -0.3003,-0.1239 -0.4642,-0.1744 -0.0737,-0.0226 -0.1445,-0.0705 -0.2088,-0.1047 -0.0675,-0.0358 -0.1857,-0.035 -0.2437,-0.093 -0.0477,0 -0.0713,-0.0233 -0.116,-0.0233l-0.0232 -0.0232 -0.0233 0c-0.0258,-0.0259 -0.0826,-0.0615 -0.116,-0.0698l0.3017 0.0233zm8.3363 3.7324c0.0814,-0.0407 0.1967,-0.4177 -0.0116,-0.3081 -0.0484,0.0255 -0.0793,0.0801 -0.1044,0.1279 -0.0477,0.0911 -0.1478,0.1508 -0.2321,0.1976 -0.0822,0.0455 -0.1532,0.0902 -0.2088,0.1686 -0.1328,0.1876 -0.5338,0.2059 -0.5338,0.5175 0.0785,0.0471 0.1921,-0.0361 0.2495,-0.0872 0.0708,-0.0632 0.175,-0.0955 0.2495,-0.157 0.1561,-0.1288 0.2958,-0.2706 0.4757,-0.3605l0.116 -0.0988zm20.4635 -30.0223c0,-0.4621 0.1699,-0.9727 0.1741,-1.465l0.0116 -1.3256c0.0077,-0.8881 -0.2253,-1.8107 -0.615,-2.5929 -0.1789,-0.359 -0.3796,-1.0766 -0.7542,-1.2906 -0.0416,-0.2087 -0.4572,-0.71 -0.6498,-0.7326 0.064,0.0834 0.1839,0.2068 0.1972,0.314 0.2957,0.2957 0.6569,1.1082 0.8703,1.4999 0.3497,0.6416 0.6584,2.0263 0.7194,2.7557 0.0892,1.0679 -0.0793,2.0652 -0.1973,3.1278 -0.1523,0.8907 -0.3392,1.8532 -0.7426,2.6627 -0.2203,0.4423 -0.4991,0.8483 -0.7194,1.2907 -0.0721,0.1447 -0.6464,1.0667 -0.5918,1.1395 0.1501,-0.0375 0.5714,-0.6026 0.6382,-0.7791 0.1366,-0.3604 0.3803,-0.6609 0.5454,-1.0116 0.2548,-0.5409 0.5656,-1.1076 0.7426,-1.6859 0.1608,-0.5251 0.1489,-1.0389 0.2785,-1.5581l0.0928 -0.3489zm-14.3601 17.4239c0.1007,-0.0932 0.2793,-0.1971 0.4003,-0.2791 0.2272,-0.1541 0.4229,-0.3552 0.5975,-0.5639 0.105,-0.1256 0.2103,-0.6337 0.412,-0.6337 0.1432,0.1432 0.0094,0.4277 -0.1045,0.5465 -0.0635,0.0661 -0.1396,0.111 -0.203,0.1744 -0.0976,0.0976 -0.239,0.2175 -0.3133,0.3314 -0.1039,0.1595 -0.1868,0.2683 -0.3481,0.3779 -0.0427,0.0289 -0.1501,0.1016 -0.1973,0.1162 -0.078,0.024 -0.1516,-0.058 -0.2436,-0.0697zm-4.716 -25.5399c0.229,0.0493 0.5736,-0.2688 0.789,-0.3604 0.1186,-0.0505 0.524,-0.37 0.6382,-0.2558 0.2197,0.2197 0.4969,0.1802 0.7891,0.1511 0.1293,-0.0129 0.8934,-0.0283 0.8934,0.1279 -0.6157,0.1539 -1.3157,0.0092 -1.9377,0.1396 -0.2207,0.0462 -0.5029,0.2593 -0.6382,0.4418 -0.085,0.1145 -0.2205,0.4512 -0.3481,0.4767 -0.0874,-0.0874 -0.1686,-0.3612 -0.2321,-0.4883l0.0464 -0.2326zm1.961 -1.686c0.1362,0 0.2407,-0.0311 0.3481,-0.1162 0.0424,-0.0335 0.0762,-0.0681 0.116,-0.1047 0.0754,-0.0692 0.1904,-0.1272 0.2785,-0.186 0.1162,-0.0777 0.2283,-0.1585 0.3365,-0.2442 0.0472,-0.0373 0.1737,-0.1512 0.2321,-0.1512 0,0.0851 0.0084,0.1095 -0.0348,0.1977 -0.1001,0.2046 -0.25,0.4471 -0.4061,0.6163 -0.0841,0.0911 -0.1866,0.187 -0.2785,0.279 -0.1126,0.1129 -0.1779,0.1754 -0.3365,0.1512 -0.1298,-0.0197 -0.1709,-0.1233 -0.2321,-0.2209 -0.0348,-0.0556 -0.1412,-0.1105 -0.1508,-0.1396l0.1276 -0.0814zm2.135 1.8139c-0.0895,-0.1141 -0.1202,-0.1756 -0.2552,-0.2093 -0.0433,0.058 -0.0124,0.1269 -0.0232,0.1977 -0.0104,0.0675 -0.0217,0.131 -0.0349,0.1977 -0.0194,0.0982 -0.0507,0.2078 -0.0812,0.3023 -0.0167,0.0515 -0.0847,0.1464 -0.0464,0.1977 0.1281,0 0.1815,-0.0392 0.3017,0.0116 0.0414,0.0174 0.0553,0.048 0.1044,0.0581 0.0212,0.0044 0.1081,0.0065 0.1277,0 0.0405,-0.0133 0.0638,-0.0436 0.0928,-0.0581 0.0128,-0.0903 -0.0038,-0.1084 -0.0464,-0.1977 -0.0489,-0.1023 -0.1161,-0.2335 -0.1161,-0.3488 -0.0178,-0.0059 -0.0116,0.0002 -0.0116,-0.0233l-0.0116 -0.1279zm-2.7732 4.9301c0.1279,-0.2178 0.2043,-0.4696 0.3365,-0.6744 0.2376,-0.3684 0.2863,-0.7907 0.5338,-1.1627 0.0694,-0.1042 0.1951,-0.3433 0.3017,-0.1512 0.082,0.1476 0.1612,0.1163 0.3016,0.1163 0,0.0767 -0.0927,0.1786 -0.1392,0.2325 -0.1753,0.2027 -0.2736,0.4063 -0.4061,0.6279 -0.2125,0.3555 -0.3747,0.6435 -0.6614,0.9302l-0.2669 0.0814zm1.2001 25.6561c-0.1708,0 -0.2525,-0.352 -0.4061,-0.1976 -0.0124,0.1367 -0.0537,0.3159 -0.1798,0.3837 -0.3144,0.1689 -0.1887,0.4226 -0.1567,0.7151 0.0263,0.2402 -0.1759,0.4895 -0.1218,0.7209 0.0499,0.2132 0.4046,-0.2059 0.4409,-0.2558 0.0892,-0.1229 0.3613,-0.2886 0.5048,-0.3489 0.1099,-0.0461 0.5094,-0.0588 0.4409,-0.25 -0.032,-0.0891 -0.1202,-0.1798 -0.1625,-0.2732 -0.0448,-0.0987 -0.0822,-0.2448 -0.1856,-0.2965l-0.1741 -0.1977zm-14.196 -10.3078c-0.0702,-0.0378 -0.1761,-0.2093 -0.2437,-0.2093 -0.0066,-0.02 -0.045,-0.0116 -0.0696,-0.0116 -0.0053,0.0213 -0.0019,0.018 -0.0232,0.0233 -0.0072,0.0291 -0.042,0.0563 -0.0696,0.0697 -0.0293,0.0142 -0.0642,0.0481 -0.0928,0.0698 -0.046,0.0351 -0.0838,0.0607 -0.1277,0.1046 -0.0443,0.0445 -0.0426,0.0713 -0.0696,0.1163 0.0159,0.0212 0.0133,0.0528 0.0348,0.0698 0.0273,0.0214 0.063,0.0459 0.0928,0.0581 0.1305,0.0532 0.228,0.2711 0.3714,0.2791 0.2463,0.0137 0.2773,-0.1771 0.3016,-0.3721l-0.1044 -0.1977zm2.6688 1.593c-0.1458,-0.0602 -0.2437,-0.1332 -0.4061,-0.1395 -0.315,-0.0122 -0.3832,0.1175 -0.4409,0.3953 -0.0184,0.0886 -0.0952,0.411 0,0.4535 0.1774,0.0791 0.3918,-0.2326 0.5917,-0.2326 0.105,0 0.1649,0.0279 0.2669,-0.0232 0.0926,-0.0463 0.2553,-0.1639 0.2553,-0.2791l-0.0232 -0.0116 -0.2437 -0.1628zm2.5644 -4.2906c-0.2813,-0.2164 -0.4948,-0.4913 -0.6498,-0.8022 -0.0637,-0.128 -0.0612,-0.2562 -0.1741,-0.3605 -0.1308,-0.121 -0.2568,-0.1628 -0.4293,-0.1628 -0.0511,0.2047 0.1404,0.4334 0.2553,0.593 0.1029,0.1428 0.2526,0.2675 0.3365,0.4186 0.0359,0.0645 0.0773,0.1717 0.1392,0.2209 0.0452,0.0358 0.1167,0.047 0.1625,0.093 0.1229,0.1231 0.2199,0.3489 0.4177,0.3489 0.0126,-0.0637 0.0348,-0.1055 0.0348,-0.1744l-0.0928 -0.1745zm-61.5448 -146.693c-0.3849,0.5013 -0.784,1.3847 -1.2416,1.7674 -0.0613,0.491 -0.1622,0.7747 -0.4525,1.1627 -0.5346,0.7143 -0.3465,1.5229 0.3249,1.9883 0.4787,0.3317 1.2639,0.2807 1.7057,-0.1163 0.4602,-0.4137 0.5154,-0.5884 0.4873,-1.2441 -0.0174,-0.4082 -0.0955,-0.6089 0.1161,-0.9883 0.2171,-0.389 -0.2505,-0.9472 -0.0117,-1.186 0.1589,-0.1589 1.1582,-0.5631 1.3112,-0.3489 0.5119,0.0731 0.4453,1.7882 0.557,2.1744 0.0978,0.3378 0.3481,0.4947 0.3481,0.872 0,0.4109 -0.1161,0.7541 -0.0812,1.1744 0.1759,0.647 -0.1431,1.0028 -0.2205,1.5465 -0.5448,0.3113 -1.9866,0.3201 -2.1814,0.8837 -0.232,0.6716 -0.3133,1.4842 -0.4526,2.1859 -0.1705,0.8582 -0.7333,2.0354 0.5454,2.3372 1.3227,0.3121 2.3452,-0.4651 3.3186,0.7558 0,0.4838 -0.1902,0.5856 -0.5338,0.9302 -0.2884,0.4259 -1.3847,0.7247 -1.8333,1.1046 -0.7357,0.6229 -2.0421,2.2335 -1.0327,3.1859 0.7003,0.6609 1.6298,0.3686 2.4135,0.0582 0.9545,-0.3782 0.8369,-0.7184 1.3228,-1.5233 0.7025,-1.164 1.479,-0.111 1.288,0.8256 -0.1535,0.7531 -1.2373,1.594 -1.8682,1.9883 -0.0461,0.0923 -0.2003,0.2137 -0.2901,0.2791 -0.039,0.0281 -0.3791,0.188 -0.4177,0.1976 0,0.7554 1.1478,1.2811 1.6941,1.6163 0.4167,0.2558 0.8497,0.3079 1.1604,0.7209 0.6248,0.8307 -0.1812,1.2902 -0.9515,1.0116 -1.1079,-0.4006 -1.7754,-1.9536 -2.2047,-2.9185 -0.1228,-0.276 -0.5767,-0.6319 -0.6382,-0.0931 -0.0457,0.4009 0.0414,0.7785 -0.0348,1.186 -0.1585,0.8468 -0.7237,1.6638 -0.2437,2.5232 0.4222,0.7561 2.4071,1.8999 3.2722,1.5 0.8982,-0.4153 2.7709,-0.5733 1.787,0.9069 -0.6457,0.4917 -1.9511,1.7071 -1.1488,2.5116 0.5818,0.5835 0.9355,0.6162 1.7405,0.6162 0.5406,0 1.0924,0.1208 1.6129,0.0465 0.1477,-0.2215 0.5494,-0.9157 0.7426,-1.0697 0.3701,-0.2952 0.3627,0.2146 0.2669,0.4418 -0.2773,0.6579 -0.6333,1.4063 -0.9863,2.0232 -0.1363,0.2384 -0.7864,1.181 -1.0095,1.1977 -0.4447,0.0333 -1.7539,-1.3943 -1.6709,0.0814 0.0214,0.3822 0.3829,0.6611 0.3829,1.0581 0,0.1927 -0.1719,0.356 -0.2552,0.5232 -0.1134,0.2278 -0.0929,0.4968 -0.0929,0.7442 0.0341,0.3988 0.0548,1.6162 -0.5337,1.6162 -0.4037,-0.3229 -0.3459,-1.2988 -0.6034,-1.8139 -0.3704,-0.1852 -0.8677,-0.5756 -1.2996,-0.4186 -0.2157,0.3459 -0.1751,1.319 -0.8587,0.9767 -0.4529,-0.2267 -0.6415,-0.2641 -1.0327,0.1279 -0.6975,0.6991 -1.9691,0.317 -2.4715,0.9883 -0.3646,0.4873 -0.5222,1.4253 -0.5222,2.0232 0,0.5271 0.3264,0.9588 0.8703,0.9767 0.4536,0.015 0.8131,0.0147 1.2532,0.1047 0.8045,0.1645 0.6565,-0.442 1.3228,-0.5232 0.4767,-0.058 0.8207,0.6833 1.2647,0.1627 0.0684,-0.6159 -0.4946,-1.7531 0.1045,-2.2324 0.3576,0 1.2022,0.7943 1.462,1.0697 0.9985,1.058 -0.8025,1.653 -1.2416,2.3022 -0.2664,0.394 -0.8112,0.4418 -1.2183,0.5465 -0.5239,0.1347 -0.2808,0.3747 -0.1857,0.7558 0.265,0.2442 0.3835,0.8796 -0.0348,1.0349 -0.5215,0.1935 -1.3333,-0.8029 -1.8914,-0.9302 -0.3266,-0.0744 -0.7966,-0.0401 -1.0095,0.2674 -0.2605,0.3761 0.0794,0.5398 0.2089,0.8256 0.8206,0.5968 3.2513,0.3458 2.8661,1.8487 -0.301,1.1741 -2.696,0.6565 -3.3534,1.5349 -0.6715,0.3052 -0.5619,1.297 -0.5454,1.872 0.0259,0.8975 -0.6003,1.1197 -1.0675,1.7441 -0.3333,0.51 -0.7603,0.9613 -1.3924,1.1163 -1.1648,0.2858 0.7311,1.2637 0.2901,1.9999 -0.2475,0.413 -0.9551,0.1605 -1.2068,-0.1163 -0.3936,-0.4331 -0.4404,-1.0889 -0.7774,-1.5116 -0.1342,-0.0191 -1.2258,0.5119 -1.3576,0.6163 -0.6983,0.5527 -1.2136,2.3526 -1.0328,3.2208 0.2166,1.0405 1.8756,0.0378 2.4832,-0.0581 0.5703,-0.0901 1.4292,-0.143 1.1951,0.6976 -0.2642,0.9491 -2.148,0.5302 -2.9008,0.4884 -1.3401,-0.0744 -1.4353,0.7043 -1.9146,1.8023 -0.1041,1.357 0.3554,3.0544 -0.9863,3.837 -0.6808,0.0567 -1.1547,0.0077 -1.7405,-0.3837 -0.2268,-0.0302 -0.8191,-0.3518 -1.0327,-0.4767 -0.621,-0.0517 -1.1393,-0.1183 -1.0095,0.7558 0.1122,0.7549 0.9349,1.6278 1.7289,1.6278 0.4589,0 2.2011,-0.7723 2.4367,-0.3953 0.5206,0.3253 -0.4192,1.5706 -0.673,1.8372 -0.6411,0.6731 -1.5502,0.7909 -2.4135,1.0232 -0.0297,0.0357 -0.0542,0.0672 -0.0928,0.093 -0.7733,0 -0.7835,0.621 -0.8587,1.2093 -0.2092,1.6345 1.1184,2.5344 1.5781,3.9184 0.2903,0.8739 -0.5384,2.0761 -1.404,1.2791 -0.5673,-0.5222 -0.7051,-1.8535 -1.3228,-2.1628 -0.8608,-0.4311 -1.4897,2.3451 -0.615,2.1395 0.5428,-0.1275 0.7611,-0.291 0.731,0.4535 -0.0185,0.4566 -0.2128,1.0905 0.1625,1.465 0.4423,0.048 0.8295,0.6326 1.0791,0.9535 0.049,0.5399 0.0455,0.7461 -0.1277,1.2674 -1.5402,1.1225 -2.9915,-0.328 -4.4093,0.5116 -0.5304,0.314 -1.0705,1.191 -0.3133,1.6279 0.7374,0.4256 1.1143,0.6695 1.6245,1.3255 0.0943,1.1352 -0.1373,1.5622 -0.7426,2.5232 -0.2657,0.2657 -0.064,1.0585 0.0696,1.3604 0.4382,0.9902 1.9262,1.4196 1.9262,2.6162 0,0.4982 -0.2883,0.8971 -0.731,1.1162 -0.3949,0.1953 -1.1021,0.3406 -1.3692,0.6977l-0.2785 0.4651 70.4364 -0.0961c0.2576,0.3186 0.3301,0.9517 0.1475,1.3169 -0.2732,0.1561 -0.7135,0.8456 -0.7774,1.1627 -0.1548,0.7686 0.1223,1.3284 -0.3714,2.0116 -0.2234,0.3093 -0.1954,0.5717 -0.3481,0.8953l-0.5105 1.0813c-0.2292,0.3572 0.0696,0.7107 0.0696,1.093 0,0.7478 -0.631,1.0598 -1.0327,1.6278 -0.3579,0.5059 -0.5487,0.9873 -0.4641,1.5813 0.2189,0.1751 0.578,0.6681 0.2436,0.9069 -0.0729,0.2925 -0.9919,0.8048 -0.789,1.1744 0.1279,0.2332 0.1824,0.3767 0.0812,0.6511 -0.1255,0.3404 -0.0177,0.5203 0.0116,0.872 -0.1435,0.2878 -0.1519,0.3236 -0.0116,0.5698 1.4115,0.1764 0.2165,1.2913 0.441,1.8022 0.2124,0.4836 0.4444,1.1314 0.5453,1.6395 0.1094,0.5512 0.9072,0.0371 0.8007,0.4534 -0.0696,0.2718 -0.5296,0.4687 -0.2785,0.779 0.5072,0.627 1.0706,0.2547 1.6593,0.6628 0.2053,0.1422 0.3294,0.5385 0.3829,0.7674 0.0895,0.3833 0.364,0.6476 0.4757,1.0116 0.1879,0.2478 0.4847,0.6153 0.7775,0.7325 0.2373,0.095 0.7545,0.1867 0.9282,0.3604 0.103,0.7233 -0.0591,1.4819 0.0232,2.2092 0.0696,0.6143 0.2183,0.9612 0.5222,1.5116 0.392,0.7097 0.9741,1.2884 1.346,2.0347 0.4031,0.8091 -0.5638,1.2276 -0.3945,1.9069 0.063,0.2796 0.3017,0.3507 0.3481,0.686 0.0319,0.2302 0.0187,0.579 0.1276,0.779 0.1101,0.202 0.2449,0.1591 0.3481,0.3024 0.1836,0.2551 0.3049,0.7683 0.4294,1.0813 0.1945,0.4885 0.5965,1.4701 1.1487,1.6394 0.4938,0.1515 0.9454,-0.5737 1.5433,-0.4883 0.0093,0.0187 0.0244,0.0294 0.0464,0.0349 0.0657,0.1315 0.3103,0.3597 0.3713,0.5123l0 0c-0.2807,0.0373 -0.4736,0.1463 -0.7542,0.1279 -0.8349,-0.0547 -0.9924,1.0923 -1.7057,1.2442 -0.3677,0.0783 -0.7475,-0.3605 -1.1372,-0.3605 0.0314,-0.1258 1.4227,-0.0302 1.3692,-0.7441 -0.0194,-0.2598 -0.9708,-0.1544 -1.1371,0.1163 -0.3247,0.5288 -0.1891,0.2741 -0.6846,0.4534 -0.1806,0.0654 -0.0608,0.4923 -0.0232,0.6395 0.1797,0.7019 -0.6835,1.1705 -1.2184,1.4767 -0.1199,0.0902 -0.5008,0.5051 -0.5338,0.6628 -0.0574,0.2747 0.1313,0.7774 -0.0928,0.9767 -0.4585,0.408 -1.5136,0.0051 -1.7289,0.8139 -0.1407,0.5283 0.4757,1.0298 0.4757,1.4884 -0.5943,0.4457 -0.8639,-0.2967 -1.1835,-0.5349 -0.564,-0.4206 -1.3239,-0.6508 -2.0306,-0.5116 -1.2347,0.2431 -2.2099,1.7103 -1.8566,2.9301 0,0.8549 0.7713,1.5816 1.4969,1.8721 0.8404,0.3366 1.4448,-0.1147 2.2162,-0.3721 0.2155,-0.0718 1.0444,-0.5872 1.0676,-0.5698 0,0.301 0.3057,0.5376 0.0348,0.7326 -0.1967,0.1415 -0.5107,0.2309 -0.6498,0.4185 -0.4945,0.6666 -0.3106,1.0684 0.3249,1.6395 1.255,1.1281 2.8028,1.8746 4.5253,1.1512 0.8195,-0.3442 0.813,-1.6042 0.7659,-2.3604 0.3247,-0.3719 0.5513,-0.5648 0.4757,-1.0814 -0.0736,-0.5024 0.3154,-0.7766 0.2437,-1.2441 -0.0289,-0.1881 -0.3272,-0.6419 -0.3017,-0.7442 1.5649,-0.3912 2.8738,-1.247 3.4346,-2.8371 0.0775,-0.2197 0.0459,-1.2832 0.3133,-1l1.4388 1.5232c0.5348,0.5663 1.8759,-0.3574 2.1351,-0.2093 0.0527,0.4232 -0.1809,0.7811 -0.557,0.9419 -0.2612,0.1116 -0.4915,0.5686 -0.5338,0.5581 -0.1363,-0.0337 -0.4267,-0.261 -0.5337,-0.3605 -0.2531,-0.2355 -0.2621,0.154 -0.4293,0.3372 -0.2602,0.2849 -0.8198,0.3888 -0.3481,0.8605 0.748,0.748 -0.536,0.495 -0.9747,0.6046 0,0.2303 0.7505,1.0201 1.0327,0.9767 0.2945,-0.0452 0.7015,-0.5958 0.8702,-0.3372 0.1438,0.2203 0.163,0.753 0.1161,1.0116 -0.239,0.3196 -0.9635,0.4666 -0.7311,0.9069 0.2462,0.4667 0.658,0.8049 0.8703,1.2558 0.1241,0.2635 0.0151,0.4577 0.3713,0.4186 0.3624,-0.0397 0.7168,-0.159 1.0559,-0.2791 0.6854,-0.2426 0.2186,0.6848 0.3249,1.0582 0.0772,0.2716 0.4126,0.3906 0.058,0.6743 -0.3176,0.254 -0.6519,0.5193 -1.0559,0.6396 -1.7227,0.5134 -0.1032,1.5151 0.8587,1.7092 0.9395,0.1895 0.1673,0.6637 -0.0116,0.5349 -0.376,-0.2705 -0.6942,-0.72 -1.1023,-0.2093 -0.0766,0.096 -0.38,0.758 -0.3946,0.8837 -0.1654,-0.2856 -0.0683,-0.4995 -0.232,-0.7209 -0.2168,-0.272 -1.6723,-1.7743 -1.8798,-1.5814 -0.2102,0.1956 -0.307,0.5047 -0.1624,0.7674 0.0457,0.0832 0.3488,0.7815 0.3365,0.8372 -0.0773,0.3491 -0.3015,0.7776 -0.441,1.1279 -0.2055,0.5164 0.9122,1.4444 1.288,1.7325 0.289,0.2214 1.057,0.4947 0.3829,0.7558 -0.127,0.0491 -0.232,0.3184 -0.3017,0.2674 -0.1096,-0.08 -0.2525,-0.4643 -0.3713,-0.6046 -0.2475,-0.2925 -0.6956,-0.4274 -0.9863,-0.6977 -0.4632,-0.4309 -0.6886,-0.3822 -1.2183,-0.6046 -0.2731,-0.1147 -0.3322,-0.3605 -0.6614,-0.3605 -0.3744,0 -0.571,0.2759 -0.8819,0.3489 -0.3105,0.0728 -0.6783,-0.436 -0.9747,-0.5465 -0.4907,-0.1828 -0.6672,0.1626 -0.9747,0.4418 -0.0739,0.0672 -0.5837,-0.6236 -0.9399,-0.7325 -1.1352,-0.3469 -1.079,2.2906 0.4874,2.2906 0.8449,0 0.071,0.683 0.4061,0.907 0.2674,0.1786 0.5086,0.307 0.8006,0.4418 0.3968,0.1833 1.2184,0.1361 1.2184,0.7325 -0.0228,0 -0.04,0.0077 -0.0464,-0.0116 -0.5048,0.1262 -1.1365,-0.2626 -1.7057,-0.2093 -0.4362,-0.1342 -0.7181,0.1292 -1.0559,-0.3139 -0.2391,-0.3138 -0.549,-0.1796 -0.8587,-0.3721 -0.1804,-0.1122 -0.394,-0.2432 -0.5337,0.0116 -0.1624,0.2963 0.2712,0.514 0.4757,0.6163 0.2254,0.1129 0.1272,0.5046 0.5338,0.686 0.7358,0.3284 -0.4048,0.045 -0.5802,0 -0.6451,-0.1654 0.7278,1.5552 0.8702,1.6976 -0.3285,-0.2464 -1.535,-1.2444 -1.9377,-1.0348 -0.3142,0.1636 -0.1688,0.6493 -0.0348,0.8837 0.1781,0.3118 0.4936,0.5113 -0.0697,0.7209 -0.2509,0.0934 -0.3226,-0.8799 -0.3597,-1.1047 -0.0281,-0.1698 -0.4085,0.3219 -0.5801,0.3954 -0.3253,0.1395 -0.4616,0.3892 -0.1277,0.686 0.3905,0.347 0.3956,0.3527 0.4642,0.8372 0.0488,0.3441 0.507,0.4213 0.6613,0.7674 0.2053,0.4608 0.0958,1.0161 0.5918,1.3604 0.4772,0.3313 0.5697,0.8646 0.9515,1.2325 0.4188,0.3877 0.8736,0.5496 1.4156,0.6047 0.229,0.0233 0.7511,-0.0661 0.9283,0.0465 0.5481,0.348 0.8087,1.5961 1.2068,2.1394 0.3337,0.4553 -1.0221,0.3743 -0.9399,0.6861 0.1008,0.3828 0.3759,0.6494 0.6846,0.8604 0.8568,0.5854 1.7531,0.2808 2.576,-0.1628 0.4742,-0.2557 0.5853,-0.2328 0.847,0.2907 -0.3522,0.0503 -0.6918,0.3205 -1.0675,0.3721 -0.1366,0.0188 -0.6141,0.076 -0.5918,0.2325 0.4618,0.1319 0.774,0.7827 1.1836,0.3721 0.1016,-0.1018 0.9249,-0.7211 0.9747,-0.7093 0.2655,0.0631 0.5361,0.4297 0.7658,0.6047 0.4454,0.4454 1.2021,0.811 1.5549,1.3023l1.1023 1.5348c0.2924,0.4072 1.1924,-2.279 1.6941,-2.279l0.3249 1.279c0.1401,0.5521 0.2683,0.2384 -0.2205,0.7093 -0.8974,0.8648 -1.1863,0.7827 -0.2668,1.8371l1.2067 1.3837c0.2343,0.2688 0.2682,0.5943 0.4409,0.8256 0.3753,-0.5026 0.4268,-1.6917 0.7543,-2.3488 0.3176,-0.6375 0.357,-1.8755 1.0791,-2.0581 0.4548,-0.1149 0.868,-0.9486 0.9283,-0.9302 0.6125,0.1879 0.8197,0.5843 0.9631,1.1628 0.1189,0.4801 0.3934,0.771 0.7426,1.093 0.8994,0 0.3264,0.4583 0.5569,1.0348 0.184,0.46 0.7135,0.3836 0.441,0.9535 -0.2027,0.4242 -0.3124,0.3971 -0.1045,0.8372 0.1422,0.3008 0.1683,0.9398 0.3249,1.1511 0.0978,0.1318 0.2381,-0.1331 0.3481,-0.1047 0.2505,0.0646 0.2449,0.5158 0.615,0.407 0.3524,-0.1035 0.709,-0.3449 1.0676,-0.407 0.1892,-0.0327 0.8111,-0.395 0.8702,-0.372 0.2406,0.0934 0.2126,1.0999 0.4177,1.1511 -0.2752,0 -0.7627,-0.1867 -1.0095,-0.1279 -0.4316,0.1027 -0.7039,0.3642 -1.1371,0.186 -0.3013,-0.124 -0.2999,0.1158 -0.3597,0.3489 -0.0918,0.3572 -0.8425,0.4227 -0.6846,0.8023 0.145,0.3483 1.2659,0.9069 1.6361,0.9069 0.4093,0 0.4842,0.2699 0.3249,0.6744 -0.0859,0.2179 -0.3032,0.9534 -0.4758,0.6744 -0.2166,-0.3503 -0.3923,-0.6483 -0.8586,-0.6628 -0.6443,0 -0.9734,0.2127 -0.6382,0.8488 0.4161,0.7893 -0.5542,0.685 -0.9747,0.8954 -0.5089,0.2548 -0.3328,0.5459 -0.499,0.9767 -0.2252,0.5841 -0.5017,0.4977 -0.3133,1.2325 0.0622,0.2425 1.133,1.9156 0.5686,1.5464 -0.3194,-0.2088 -0.5723,-0.4501 -0.847,-0.686 -0.0624,-0.0535 -1.1382,-0.3489 -0.5454,-0.5465 0,-0.4277 -1.0463,-0.8877 -1.1952,-1.279 -0.24,-0.6311 -0.3199,-0.9834 -0.789,-1.4534 -0.1304,-0.1307 -0.7404,-0.8987 -0.847,-0.7442 -0.1979,0.2865 0.1044,0.5884 0.1044,0.8837 0,0.9381 -1.2417,0.7172 -1.6825,1.186 -0.3064,0.3258 -0.0577,0.8428 -0.5106,1.2093 -0.2859,0.0714 -0.9442,0.8982 -1.1603,1.1627 -0.2816,0.3445 -0.4923,0.6956 -0.7426,1.0581 -0.379,0.5491 -1.5281,1.8488 -2.2279,1.8488 -0.0573,-0.2292 0.3268,-0.822 0.5105,-0.9535 0.1537,-0.2632 0.3074,-0.5771 0.383,-0.872 0.0719,-0.28 0.3408,-0.5043 0.5221,-0.7093 0.222,-0.2508 0.245,-0.4208 0.3829,-0.7093 0.1326,-0.2772 0.303,-0.5498 0.5222,-0.7558 0.2571,-0.2418 0.51,-0.6479 0.5686,-0.9999 0.0724,-0.435 -0.0288,-0.8023 0.5917,-0.8023l0.1161 -0.0814c0.3017,0 0.5362,-0.1678 0.6498,-0.4535 0.0423,-0.1062 0.1094,-0.3166 0.0928,-0.4302 -0.0165,-0.1136 -0.0928,-0.2557 0,-0.3489 0.1287,0 0.2034,-0.0105 0.2901,-0.1046 0.0991,-0.1077 -0.004,-0.3095 -0.0348,-0.4302 0.1835,-0.4906 -0.3632,-0.8862 0.2668,-1.2674 0.3145,-0.1904 0.6223,-0.5882 0.6847,-1.0116 0.0779,-0.5281 -0.6342,-2.373 -1.056,-2.6743 -0.044,-0.3981 -0.8951,0.5279 -0.9398,0.6627 -0.1264,0.3813 -0.3836,2 -0.8587,2 -0.2824,-0.5673 0.4042,-1.5428 0.1392,-2.1628 -0.2053,0 -0.4628,1.0657 -0.6498,0.9535 0,-0.1668 0.1893,-0.7107 0.2437,-0.9302 0.0355,-0.1431 -0.0167,-0.8189 -0.1044,-0.907 -0.6732,0 -1.1124,1.1163 -1.9494,1.1163 -0.6736,0 -1.8841,0.8988 -1.6593,-0.4535 0.4054,-0.5067 1.808,0.0909 2.077,-0.8255 0.2707,-0.9225 -2.4053,0.0516 -2.6456,-0.9419 -0.0916,-0.3787 -0.0586,-0.5637 0.2785,-0.4069 0.4072,0.1893 0.7748,0.2531 1.2184,0.1976 0.2333,-0.0291 0.6903,-0.1805 0.9051,-0.1395 0.4224,0.0808 0.6744,0.7796 0.9514,0.8488 0,-0.6973 0.4471,-1.1453 -0.1508,-1.7441 -0.4244,-0.4252 -0.2535,-1.1252 -0.5454,-1.4883 -0.1786,-0.2223 -0.5627,-0.1987 -0.8238,-0.314 -0.1408,-0.0621 -0.1893,-0.2185 -0.3249,-0.279 -0.5216,-0.2326 -0.8787,0.2175 -1.3808,0.3953 -0.5405,0.1913 -1.6535,-0.5351 -2.1003,-0.8372 -0.4438,-0.3002 -0.7214,-0.2769 -1.1951,-0.4535 -0.2198,-0.3517 -0.5861,-0.259 -0.9283,-0.3139 -0.348,-0.0559 -0.4095,-0.343 -0.5454,-0.6046 -0.2805,-0.5401 -0.9683,-0.5917 -1.3576,-1.0465 -0.1744,-0.2039 -0.3411,-0.6279 -0.6381,-0.6279 -0.2764,0.2204 -0.4283,0.7769 -0.8355,0.8139 -0.739,0.6482 -2.6787,-0.7017 -3.1561,-1.2209 -0.2803,0 -0.6507,0.4282 -1.0211,0.4884 -0.3354,0.0544 -0.7311,-0.1155 -0.9977,-0.0465 0,-0.6611 -0.9642,-0.6252 -0.9979,-0.8139 -0.1093,-0.6118 0.7301,-0.8585 0.7659,-1.2093 0.1079,-1.0569 -1.555,-0.9552 -1.9727,0.0698 -0.4721,1.1582 -0.6498,-0.4753 -0.6498,-0.8605 0,-1.1557 -1.5566,-0.1233 -1.5084,0.3023 0.1479,1.3054 -0.1704,0.9393 -0.8123,0.3954 -0.1631,-0.1383 -0.5735,0.1984 -0.6498,-0.0233 -0.085,-0.2472 0.1386,-0.5898 0.1625,-0.8139 0.0687,-0.6445 -0.2553,-1.0589 -0.2553,-1.7674 0,-0.4772 -1.4762,-0.0194 -1.1836,0.6977 0.1622,0.3973 0.6382,0.6302 0.1857,1.0232 -0.3,0.2607 -0.0557,1.163 -0.3249,1.0697 -0.5667,-0.1964 -0.4433,-1.1646 -0.7658,-1.3255 -0.3439,-0.1717 -0.3526,0.9302 -0.6962,0.9302 -0.5145,0 -0.0155,-1.0232 -0.4178,-1.0232 -0.5651,0 -1.2216,0.5116 -1.6013,0.5116 0,-0.3132 -0.1305,-0.8722 -0.0696,-1.1163 0.4612,0 1.3002,0.174 1.7173,0.0698 0,-0.5814 -2.0737,-1.5051 -2.5527,-1.7441 -0.2893,-0.1444 -1.1993,0.2109 -1.2532,0 -0.1524,-0.5953 0.2983,-1.0562 0.4177,-1.5349 1.0693,0 1.2986,-0.3513 1.3924,-1.4185 0.0461,-0.5256 -0.1863,-2.1478 -0.6266,-2.4418l-1.3924 -0.9302c-0.1311,-0.0875 -0.4467,1.5678 -0.4641,1.8139 -0.0483,0.6847 0.3126,0.8608 0.3713,1.372 0.2232,1.9439 -0.1263,1.4162 -1.6477,2.0465 -0.2464,0.102 -0.3481,1.8531 -0.3481,2.186 0,1.6004 0.8485,0.6201 1.3924,1.6278 0.1769,0.3279 0.687,0.5952 0.8122,0.093 0.345,0 0.8035,0.661 1.0676,0.907 0.3457,0.3218 0.9826,0.348 1.462,0.3721 1.5631,0.0786 1.2504,-0.2958 1.3692,1.372 -1.2102,1.6171 1.5797,2.2627 1.3925,2.5813 -0.2806,0.4777 -0.8176,0.6626 -1.114,1.093 -0.0846,0.1228 0.0329,1.4573 -0.5105,0.6744 -0.7346,-1.0584 -1.0549,-0.186 -1.6477,-0.186l-0.0232 -0.0233c0,-0.8067 -0.0184,-1.6706 -0.6266,-2.2325 -0.5909,-0.5458 -0.62,-1.6651 -1.5085,-1.8836 -0.3008,-0.074 -1.2184,-0.3028 -1.2996,-0.6279 -0.2041,0 -0.9276,0.9018 -0.7658,1.0697 0.304,0.3152 1.011,0.5109 1.3924,0.7442 0.6415,0.3926 1.5518,1.3628 1.7637,2.0929 0.2474,0.8528 0.1818,0.9033 -0.0464,1.7907 -0.0718,0.279 0.149,0.7148 0,0.8836 -0.2726,0.309 -1.0827,0.2283 -1.1139,0.2791 -0.236,0.3845 0.1348,0.8081 -0.1625,1.2093 -0.4229,0.5709 -0.6728,0.7223 -0.4177,1.4418 0.2664,0.7512 -0.1649,1.5946 -0.0232,2.1627 1.5106,-0.5035 3.3813,-0.9133 4.6878,-1.9767 0.7093,-0.5774 3.0239,-2.5813 3.8524,-2.5813l0.0232 0.0233c0,0.1036 -0.049,0.1985 -0.0696,0.3023 -1.4038,0.3509 -3.2845,2.5879 -4.5022,3.5348 -0.7594,0.5906 -4.7468,3.7579 -5.4536,3.5812 -0.0097,-0.0388 -0.0156,-0.0594 -0.0465,-0.0697 0,-1.9883 0.0649,-3.8127 -0.8818,-5.651 -0.0894,-0.4489 -0.1311,-0.7087 -0.0232,-1.1628 0.1142,-0.4809 -0.3262,-0.3925 -0.557,-0.5348 -0.1768,-0.1091 -0.1452,-0.3678 -0.3945,-0.2558 -0.2628,0.118 -0.5249,0.6688 -0.557,0.9534 -0.0133,0.1179 0.0311,0.6279 -0.116,0.6279 0,-0.3489 0.0227,-1.0748 -0.3481,-1.2558 -0.4286,-0.2093 -0.2588,-0.9106 -0.557,-1.2092 -0.1384,-0.1387 -0.3481,-0.1858 -0.3481,-0.4186 -0.0348,-0.0116 -0.1703,-0.488 -0.2089,-0.5581 -0.0783,-0.3141 0.0239,-0.6277 -0.3017,-0.7907 -0.2455,-0.123 -0.5522,-1.0181 -0.6962,-0.907 -0.2348,0.181 -0.0135,0.4454 -0.1392,0.6977 -0.2662,0.5347 -0.2201,0.8758 -0.3481,1.4186l-0.3017 1.279c-0.0951,0.403 -0.4178,0.9615 -0.4178,0.2093 0,-0.416 0.1615,-1.0128 0.0697,-1.3721 -0.0729,-0.2852 -0.4823,-0.5957 -0.7195,-0.7906 -0.3691,-0.3035 -0.5154,-0.7604 -0.8122,-1.0233 -0.4068,-0.3602 -1.0494,0.5167 -1.2764,0.7442 0,-0.2004 0.1541,-0.9785 0.3481,-1.0232 0.3398,-0.0782 0.6885,-0.023 0.4641,-0.3256 -0.1069,-0.144 -0.2754,-0.4559 -0.4177,-0.5814 -0.0855,-0.0753 -0.6039,-0.7435 -0.5337,-0.8139 0.1154,-0.1159 1.0714,0.6324 1.2299,0.7209 0.2002,0.1119 0.4638,0.0814 0.673,0.186 0.3263,0.163 0.3744,0.4448 0.6498,0.721 0.0925,0.0929 0.6558,0.8738 0.7659,0.6046 0.1712,-0.4189 -0.1096,-0.738 -0.3713,-1 -0.2691,-0.2696 0.0075,-0.9158 -0.5338,-1.093 -0.5384,-0.1762 -0.8871,-0.5598 -1.2532,-0.9767 -0.2558,-0.2558 -0.6391,-0.303 -0.9051,-0.6046 -0.3484,-0.3948 -0.4248,-1.1471 -0.673,-1.3953 -0.023,-0.023 -0.7448,-0.2604 -0.789,-0.2326 -0.0017,0.001 0.0614,1.5614 0,1.4651 -0.128,-0.2011 -0.1559,-0.4761 -0.2321,-0.6976 -0.0834,-0.2426 -0.1513,-0.3948 -0.2553,-0.6279 -0.2574,-0.5763 -1.7787,-0.222 -1.6013,0.4883 0.3202,1.2826 -1.003,2.0207 -1.5084,3.0929 -0.2117,0.4491 -1.0412,1.8835 -0.9515,2.2325 0.1147,0.4459 0.7008,0.6715 0.2089,1.0698 -0.3014,0.2439 -0.7195,0.4027 -0.7195,0.8371 0,0.403 0.3387,1.0095 0.4642,1.4186 0.2054,0.669 0.7291,1.3024 -0.0464,0.4651 -0.548,-0.5915 -0.4711,-0.6466 -0.673,0.1628 0,-0.2182 -0.0465,-0.4608 -0.0465,-0.6977 0,-0.075 0.0283,-0.5091 -0.0232,-0.5348 -0.0117,-0.0058 -0.4569,0.8274 -0.5105,0.9767 -0.4519,1.2567 -0.2785,-0.5466 -0.2785,-0.8837 0,-0.6061 0.1806,-0.9402 0.0348,-1.593l0 -0.0232c-0.5334,-0.5357 0.439,-0.9233 0.6266,-1.3837 0.2288,-0.5612 0.3088,-1.1381 0.8354,-1.5581 0.5408,-0.4312 0.137,-0.8678 0,-1.3953 -0.1008,-0.3878 0.0003,-0.5483 -0.3133,-0.8488 -0.2632,-0.2521 -0.7073,-0.3546 -1.0211,-0.5349 -0.4654,-0.2676 -0.6525,-0.7299 -0.9283,0.0698 -0.2057,0.5968 0.0893,1.1878 -0.174,1.8371 0.0659,0.1321 0.2931,0.7896 0.2785,0.9186 -0.0393,0.3482 -0.3378,0.6225 -0.3017,0.9883 0.0683,0.6927 0.428,1.0987 0.1508,1.8023 -0.1529,0.388 -0.3103,0.931 -0.5453,1.2674 -0.0207,0.3127 -0.0763,0.5395 -0.0233,0.8604 0.065,0.3929 0.1285,0.744 0.0233,1.1395 -0.1687,0.2813 -0.1317,0.628 -0.2205,0.9302 -0.1294,0.44 -0.5383,-0.0853 -0.8007,-0.093 -0.3669,0 -0.774,0.131 -1.0211,-0.1976 -0.1232,-0.1637 -0.4114,-1.0594 -0.5221,-0.8372 -0.2135,0.4287 -0.2358,0.7439 -0.1509,1.1976 0.0947,0.5067 -0.2689,0.3478 -0.5685,0.4535 -0.2316,0.0816 -0.4166,0.205 -0.5918,0.3488 -0.2294,0.1882 -0.0969,0.4439 -0.499,0.6163 -1.0827,0.4645 -1.0839,-0.9579 -1.5664,0.6162 -0.1603,0.5228 -0.3405,0.8344 -0.6498,1.2674l-0.0696 0c-0.6561,-0.9842 -1.4754,-1.713 -2.3904,-2.4534 -0.3368,-0.2726 -0.1712,-0.833 -0.3133,-1.2325 -0.0534,-0.15 -0.2427,-0.537 -0.1972,-0.6744 0.0412,-0.1248 0.5278,0.1648 0.6266,0.186 0.3529,0.0761 0.5476,0.0721 0.8702,-0.0581 0.4106,-0.1656 0.3188,-0.0918 0.7195,0.2442 0.1998,0.1676 0.6554,0.1486 0.9282,0.2209 0.0662,0 0.4427,0.2559 0.4758,0.314 0.4672,0.0667 0.6884,-0.2411 0.9747,-0.5582 0.301,-0.3332 1.0907,-0.3837 1.0907,-0.8255 -0.5596,-0.3997 -1.3769,-0.1117 -1.7289,-0.6512 -0.461,-0.7064 -1.027,0.1299 -1.5549,-0.5348 -0.1183,-0.1489 -0.326,-0.0774 -0.4873,-0.1396 -0.2213,-0.0852 -0.982,0.0946 -0.7775,-0.5232 0.0624,-0.1885 1.6232,-0.35 1.1488,-0.8255 -0.2715,-0.272 -0.9178,0.1751 -1.1836,0.0232 0,-0.4164 0.5887,-0.7684 0.6962,-1.2209 0.1926,-0.8107 -0.847,0.2106 -0.847,-0.6744 0,-0.3725 0.0686,-0.6909 0.1392,-1.0465 0.117,-0.5894 -1.1577,0.1489 -1.346,0.2326 -0.743,0.3307 -1.4369,0.2028 -1.0907,1.2209 0.2429,0.7146 -0.0604,0.5498 -0.499,0.9651 -0.6583,0.6231 0.9093,0.4342 1.0444,0.4302 0.1266,0.0633 0.3698,0.0441 0.4061,0.2209 0.0421,0.2055 -0.0762,0.4785 -0.0232,0.6511 0.1994,0.6492 0.7376,0.5317 1.2647,0.5582 0.3872,0.0195 -0.2745,0.5308 -0.3481,0.5697 -0.3228,0.1711 -0.3416,0.5918 -0.6962,0.8372 -0.6368,0.4406 -0.7465,-0.9983 -1.0791,-1.0814 0,0.4 -0.0471,0.7547 0.1392,1.1279 0.2189,0.4383 0.2091,0.4247 0.0813,0.8604 -0.0789,0.2687 0.1835,0.3881 0.3017,0.5814 0.145,0.2373 0.2901,0.5482 0.2901,0.8256 -0.1318,0 -0.2571,-0.036 -0.383,-0.0233 -0.3114,0.0314 -0.4505,0.2478 -0.8238,0.1396 -0.2597,-0.0752 -0.1329,-0.3337 -0.2901,-0.4303 -0.1679,-0.1031 -0.1765,-0.3118 -0.0116,-0.4767 0.0931,-0.0931 0.7463,-0.2554 0.6614,-0.4767 -0.2087,-0.5433 -0.3513,-0.545 -0.8819,-0.2675 -0.4157,0.2173 -0.1582,-0.2485 -0.0232,-0.3837 0.1412,-0.1416 0.4823,-0.1936 0.4294,-0.4534 -0.0492,-0.2421 -0.0011,-0.4928 -0.0581,-0.7209 -0.1145,-0.0286 -0.4484,-0.0781 -0.5569,-0.1396 -0.1654,-0.0936 -0.0648,-0.3913 -0.2205,-0.4302 -0.0037,-0.0149 -0.0079,-0.02 -0.0116,-0.0349 -0.1724,0 -0.2602,-0.0886 -0.4177,0.0465 -0.159,0.1365 -0.2833,0.5216 -0.4758,0.5698 -0.4502,0.1126 -0.692,1.0806 -0.4757,1.4651 0.1406,0.2498 0.6648,0.1021 0.8122,-0.0814 0.0643,-0.0799 0.1057,-0.2558 0.2205,-0.2558 0,0.41 -0.5273,1.166 -0.8006,1.4999 -0.1988,0.2427 -1.4783,-0.3757 -1.665,-0.5814l-0.4989 -0.4709c-0.0355,-0.0136 -0.0631,-0.0347 -0.0987,-0.0465 -0.3735,-0.332 -1.3928,-0.227 -1.8739,-0.2384 -0.6541,-0.0154 -1.3725,-0.0737 -1.9435,-0.4127 -0.5517,-0.2872 -1.3346,-0.347 -1.8508,-0.6919 -0.4962,-0.3314 -0.7626,-0.8229 -1.1719,-1.2267l-0.7658 -0.7558c-0.1944,-0.1917 -0.7774,-0.7108 -0.7774,-0.9941 0.1672,-0.0418 0.4235,0.1423 0.6323,0.1221 0.4515,0.1505 0.8324,0.3298 1.288,0.0349 0.2276,-0.1472 0.7277,-0.8369 0.7542,-1.1047 0.0261,-0.2629 0.0964,-0.748 0.2959,-0.9302 0.3108,-0.284 0.7208,-0.3665 1.0501,-0.5872 0.2048,0 0.0975,0.75 0.174,0.9419 0.283,0.2011 0.4373,0.6628 0.6672,0.9302 0.1833,0.2852 0.4597,0.7713 0.7775,0.9302 0.4224,-0.0528 0.5734,-0.6857 0.9282,-0.9012 0.6732,-0.4091 0.1188,0.8704 0.1045,0.9535 -0.0498,0.2898 0.0923,0.5836 0.0232,0.9069 -0.1123,0.526 -0.2472,0.5849 0.116,1 0.0045,0.0276 0.0173,0.0531 0.0348,0.0756 0.019,0.21 -0.3051,0.7064 0.029,0.6976 0.202,-0.0053 0.629,-0.2793 0.789,-0.4127 0.176,-0.0146 0.8695,0.2122 0.7601,-0.2268 -0.018,-0.108 -0.0774,-0.2235 -0.0871,-0.3314 -0.1378,-0.1838 -0.3062,-0.4344 -0.2959,-0.6743 0.0123,-0.2882 0.2405,-0.5112 0.3307,-0.7791 0.1931,-0.5738 0.0758,-1.5046 -0.4815,-1.8546 -0.1607,-0.101 -0.3537,-0.0752 -0.5163,-0.1977 -0.1348,-0.1017 -0.1424,-0.2482 -0.2611,-0.3837l-1.0965 -0.5523c-0.4398,-0.2214 -0.3728,-0.4005 -0.6092,-0.7674 -0.1518,-0.2354 -0.2788,-0.2354 -0.5164,-0.343 -0.2347,-0.3755 0.0407,-0.7671 0.0407,-1.1627 0,-0.5288 -0.4523,-0.5494 -0.8587,-0.6396 -0.2166,-0.0481 -0.431,-0.2912 -0.5976,-0.2965 -0.4164,0 -0.3386,1.2461 -0.6497,1.436 -0.2271,0.1385 -0.2779,-0.0116 -0.4874,-0.0116 -0.2177,0 -0.3475,0.1816 -0.4873,-0.0872 -0.0815,-0.1569 -0.2433,-0.7356 -0.4583,-0.343 -0.0995,0.1816 -0.7,1.2624 -0.8529,1.186 -0.0793,-0.1269 -0.1755,-0.4314 -0.1218,-0.5697 -0.0689,-0.2765 -0.1329,-0.4603 0.058,-0.6977 0.1149,-0.143 0.3114,-0.2813 0.2611,-0.4825 -0.1624,-0.1311 -0.7098,0.5372 -0.9167,0.4069 -0.2572,-0.1618 -0.1481,-0.841 -0.116,-1.093 0.0272,-0.2128 0.4288,-0.2654 0.5511,-0.4069 0.1957,-0.2262 0.2608,-0.5606 0.3945,-0.8372 0.2666,-0.5511 -0.2663,-0.4274 -0.6149,-0.5523 -0.1588,-0.0568 -0.3107,-0.2929 -0.3307,-0.4535 -0.1436,-0.1215 -0.3275,-0.1975 -0.4874,-0.2907 -0.5185,-0.0432 -0.7006,0.2756 -1.0907,0.564 -0.3631,0.2683 -0.8018,0.198 -1.1429,0.5116 -0.0647,0.0215 -0.1636,0.0762 -0.2263,0.1104 -0.3193,0.0212 -0.6211,0.3143 -0.9863,0.2035 -0.185,-0.0562 -0.4126,-0.5968 -0.5453,-0.7674l-0.0058 -0.0407c-0.0661,-0.1134 -0.2071,-0.4392 -0.2437,-0.5639 0,-0.1946 -0.0214,-0.6071 -0.1392,-0.7558 -0.0731,-0.0921 -0.2084,-0.4897 -0.3017,-0.4651 -0.6386,0.1685 -1.1223,0.6128 -1.8391,0.5232 0,-0.2568 0.7687,-0.5102 0.789,-0.9651 0.0215,-0.4796 -0.528,-0.6276 -0.528,-1.0639 0,-0.3524 -0.0086,-0.6432 -0.145,-0.9709 -0.0581,-0.1395 -0.2341,-0.2581 -0.2495,-0.3895 0,-0.2315 -0.1609,-0.5685 -0.2204,-0.8081 -0.064,-0.2582 -0.1038,-0.4469 -0.2959,-0.6395 -0.3953,-0.3964 -1.452,0.0844 -1.9088,0.2034 -0.289,0.0752 -0.711,0.2898 -0.9862,0.0873 -0.2973,-0.2186 -0.0028,-0.7015 0.203,-0.8779 0.0023,-0.0162 0.0001,-0.0118 0.0116,-0.0233 0.0049,-0.0215 0.0051,-0.0419 0.0058,-0.0639l0.3771 -1.9593c0.1046,-0.5441 0.3069,-1.413 0.1509,-1.9592 -0.0166,-0.0095 -0.0174,-0.0146 -0.029,-0.0291 -0.2708,0 -0.5213,0.1314 -0.8065,0.0989 -0.482,0 -0.9544,-0.0871 -1.433,0 -0.4422,0.0804 -0.9054,0.4202 -1.3634,0.3023 -0.2094,-0.0539 -0.354,-0.2998 -0.5685,-0.4012 -0.273,-0.1289 -0.6848,-0.1885 -0.9689,-0.0465 -0.0247,0.0016 -0.041,0.0088 -0.0638,0.0116l-0.0696 0.0466 -1.8508 0.8488c-0.6192,0.284 -1.1117,0.6626 -1.8159,0.7325 -0.3586,0.0356 -0.5876,-0.1025 -0.905,-0.1977l-0.0116 -0.0174 0 -0.0291c0.2181,-0.2727 1.1429,-0.4738 1.1429,-0.9302 0,-0.5153 -0.9399,-0.3155 -0.9399,-0.872 0,-0.2598 0.3289,-0.4418 0.4525,-0.657 0.0663,-0.146 0.4948,-1.0004 0.5686,-1.0465 0.3413,0 0.1238,0.9282 0.8006,0.6744 0.1858,-0.3716 0.0383,-1.2559 -0.0174,-1.6627 -0.0931,-0.6804 -0.8243,-0.2035 -1.3111,-0.2035 -0.4224,0 -0.4753,-0.2901 -0.8007,-0.3663 -0.5022,-0.1175 -0.7291,0.5928 -1.1487,0.75 -0.4605,0.1725 -1.0944,-0.2313 -1.5258,-0.3895 -0.3536,-0.2601 -0.8509,-0.43 -0.8993,0.186 -0.0324,0.4135 0.2369,1.0024 -0.2727,1.1977 -1.0586,0.4059 -2.3026,0.4405 -3.1677,1.3081 -0.086,0.0286 -0.1477,0.1148 -0.232,0.1569 -0.2544,0.2399 -0.6004,0.4927 -0.8877,0.6977 -0.2768,0.1976 -0.5026,0.4525 -0.7716,0.6569 -0.2359,0.1794 -0.7976,0.7094 -0.9805,0.2442 -0.1259,-0.3205 0.0081,-0.269 0.2495,-0.436 0.223,-0.1544 0.5521,-0.4783 0.6382,-0.7384 0.1097,-0.3317 0.0231,-0.9646 -0.47,-0.7441 -0.192,0.0859 -0.3614,0.5491 -0.4757,0.5348 -0.2229,-0.0278 -0.2928,-0.3837 -0.5163,-0.3837 -0.1802,0.2233 0.1435,0.6386 0.0058,0.8314 -0.3561,0.1526 -0.7291,-0.2037 -1.0211,-0.3837 -0.6334,-0.3907 -0.303,0.7069 -0.1857,0.9418 0.5719,0.7054 1.1209,1.0986 2.0306,1.2151 0.5026,0.0644 1.1371,-0.2628 1.5838,-0.1512 0.0073,0.0128 0.0129,0.0188 0.0232,0.0291 0,0.374 0.0487,0.4628 -0.2958,0.6918 -0.2574,0.1712 -0.4779,0.4047 -0.7427,0.5756 -0.6231,0.4024 0.4155,0.8949 0.2785,1.3837 0.1819,0.3638 0.4976,1.1378 1.0211,0.9709 0.5625,-0.1792 1.0915,-0.19 1.6419,-0.4244 0.2541,-0.1081 0.6083,-0.3175 0.876,-0.157 0.1191,0.0713 0.6092,0.7837 0.6092,0.9011 -0.2812,0 -0.4969,-0.4504 -0.8934,-0.3604 -0.4573,0.1037 -0.7827,0.5362 -1.23,0.7034 -0.4423,0.1652 0.3179,0.3491 0.4061,0.3721 0.1517,0.0395 0.9695,0.1662 0.5454,0.4593 -0.2405,0.1661 -1.1948,-0.0523 -1.5381,-0.0523 -0.8451,0 -1.6642,0.2093 -2.4832,0.2093 -0.5225,0.3135 -1.3555,0.1652 -1.9261,0.593 -0.4105,0.3079 -1.366,0.679 -1.6361,1.0581 -0.4688,0.1758 -0.9581,0.4439 -1.4853,0.3256 -0.4279,-0.0961 -1.345,-0.0693 -1.7753,0.0116 -1.2606,0 -2.5409,-0.6046 -3.7363,-0.907 -0.9987,-0.2527 -2.2251,-0.476 -3.249,-0.5697 -0.4983,-0.0455 -0.9791,-0.3081 -1.4272,-0.3721 -0.0089,-0.0359 -0.0738,-0.1197 -0.0929,-0.1628 -0.018,-0.0404 -0.0075,-0.1382 -0.0464,-0.1511 -0.0202,-0.0811 -0.1677,-0.0102 -0.2088,0 -0.0333,0.1332 -0.0459,0.3 -0.0813,0.4418 -0.1167,0 -0.1268,0.0128 -0.2668,-0.0232 -0.4404,0 -1.506,-0.3238 -1.8334,-0.6512 -0.0734,-0.0104 -0.1321,-0.0768 -0.1972,-0.093 -0.0111,-0.0223 -0.0355,-0.0285 -0.0581,-0.0465 -1.3416,0 -2.5974,-0.7192 -3.8407,-1.2674l-4.1657 -1.8372c-1.301,-0.5003 -2.4755,-1.5199 -3.7827,-1.8952l-3.9684 -1.1395c-0.468,-0.1343 -1.4304,-0.6163 -1.8681,-0.6163 -0.1752,-0.0876 -0.4314,-0.1577 -0.6266,-0.1744 -0.5951,-0.3306 -1.6449,-0.5391 -2.3207,-0.7325 -0.8289,-0.2371 -1.6304,-0.1875 -2.4832,-0.1628 -1.2979,0.0375 -2.5585,0.5813 -3.8523,0.5813 -0.0185,-0.0111 -0.0279,-0.0121 -0.0464,-0.0232l-0.0464 0 -0.0349 -0.0116c-0.04,-0.0321 -0.2103,-0.0787 -0.2436,-0.0931 -1.029,-0.343 -2.7573,-0.2241 -3.8408,-0.1162l-3.9684 0.3953c-0.6548,0.0652 -1.2701,0.3139 -1.9261,0.3139l-0.1277 0.0582c-1.5121,0 -3.6095,0.2203 -4.9547,0.9186 -0.4638,0.2408 -1.1262,0.3431 -1.5432,0.6162 -0.2541,0.1665 -1.0325,0.9186 -1.2532,0.9186 -0.0075,0.0225 -0.0041,0.0007 -0.0116,0.0232l0 0c-0.1161,-0.1551 -0.2322,-0.3103 -0.3481,-0.4651 -0.0627,-0.0838 -0.1131,-0.1664 -0.1624,-0.2558 -0.0392,-0.0709 -0.1124,-0.1457 -0.1393,-0.2209 -0.045,-0.1253 -0.1321,-0.3509 -0.174,-0.4883 -0.0446,-0.1466 -0.1241,-0.2402 -0.2205,-0.3489 -0.2207,-0.2492 -0.5393,-0.3594 -0.7542,-0.6162l-0.531 -1.3879c-0.1029,-0.4161 -0.3981,-0.916 -0.149,-1.3716 0.2915,-0.533 0.595,-0.9197 1.0056,-1.3903 0.46,-0.5273 1.1646,-0.7791 1.4433,-1.4369 0.1678,-0.6788 0.7816,-1.3601 1.1173,-1.9967 0.2125,-0.4028 0.6803,-1.0727 0.7449,-1.5303 0.046,-0.3254 0.2352,-0.6437 0.256,-0.9441 0.388,-1.0401 1.313,-1.3866 1.7978,-2.2674 0.5175,-0.9404 0.4204,-1.5747 0.6034,-2.6278 0.0545,-0.3138 0.9086,-1.257 0.8122,-1.6046 -0.154,-0.5557 -0.5812,-1.0435 0,-1.6279 0.1607,-0.1615 0.2071,-0.4401 0.3945,-0.6278 0.0154,-0.0155 0.031,-0.0311 0.0465,-0.0466 0.4306,-0.4317 0.3945,-1.2765 0,-1.9534 -0.1811,-0.3109 -0.7152,-0.8308 -0.7659,-1.1627 -0.028,-0.1834 0.0522,-0.799 -0.116,-0.907 -0.3016,-0.1938 -0.6035,-0.3876 -0.9051,-0.5814 -0.3897,-0.2503 -0.3278,-0.6676 -0.4409,-1.0697 -0.0172,-0.0612 -0.0335,-0.0451 -0.0696,-0.093 -0.0279,-0.0369 -0.0248,-0.0595 -0.0697,-0.0698 -1.3751,-0.3169 -0.3071,-1.5019 -0.2552,-2.1859 0.0773,-1.0199 0.8204,-1.3265 1.0675,-2.2093 0.008,-0.0289 0.0948,-0.1158 0.116,-0.1162 0.8513,-0.02 1.6775,-0.5906 0.9979,-0.9303 -0.0154,-0.0077 -0.031,-0.0155 -0.0464,-0.0232 -0.2734,-0.1368 -0.6195,-0.9109 -0.6498,-1.279 -0.0496,-0.6035 0.4198,-1.0812 0.2553,-1.6279 -0.0096,-0.0319 -0.216,-0.1823 -0.2553,-0.186 -0.3552,-0.0334 -0.6422,-0.1597 -0.673,-0.5349 -0.0528,-0.6428 0.3481,-0.6096 0.3481,-1.3023 0,-0.5141 0.5661,-1.3228 1.0675,-1.279 0.0475,0.0041 -0.0197,0.0263 0.0232,0.0465 0.1603,0.0754 0.2617,0.3195 0.4178,0.1628 0.0076,-0.0077 0.0155,-0.0155 0.0232,-0.0233 0.3379,-0.3393 -0.0297,-0.9893 -0.1393,-1.4185 -0.1701,-0.6655 0.5004,-1.5634 1.0676,-1.7209 1.492,-0.4143 1.097,-1.9788 1.8333,-2.9999 0.3701,-0.5131 -0.0915,-0.787 0.4642,-1.279 0.3546,-0.3141 0.4977,-1.0212 0.6034,-1.4651 0.0046,-0.0193 0.0732,-0.0899 0.0928,-0.093 0.1116,-0.0176 0.3999,-0.1506 0.4873,-0.2326 0.1137,-0.1065 0.0176,-0.7605 -0.0232,-0.8836 -0.2081,-0.6276 0.1857,-0.9395 0.1857,-1.4884 0,-0.5029 -0.5888,-0.9382 -0.5106,-1.5581 0.0105,-0.0833 0.2033,-0.0561 0.2553,-0.1395 0.1176,-0.1884 0.5557,-0.1851 0.5106,-0.5814 -0.0837,-0.7351 -0.2431,-0.4831 0.3945,-0.8604 0.5475,-0.3239 0.7725,-0.6937 0.4641,-1.186 -0.2576,-0.411 -0.6582,-0.3158 -1.0211,-0.7209 -0.2431,-0.2712 -0.8219,-1.427 -0.3017,-1.6279 0.3293,-0.1271 0.5772,0.2578 0.9283,0.0233 0.3684,-0.2462 1.3698,-0.5502 1.1372,-1.0697 -0.1181,-0.2637 -0.3995,-0.3585 -0.5106,-0.6512 -0.1312,-0.3453 0.2331,-0.7228 -0.0232,-0.9534 -0.3055,-0.275 -1.1748,-0.4075 -1.2764,-0.907 -0.1273,-0.626 0.3555,-0.6239 0.6962,-0.9302 0.3017,-0.2711 0.5925,-1.3287 0.2553,-1.6976 -0.1511,-0.1654 -0.3848,-0.186 -0.6266,-0.186 -0.3008,0 -0.4346,-0.2239 -0.673,-0.2791 -0.3324,-0.0771 -0.6649,-0.1542 -0.9973,-0.2313l0.2055 -0.7243c0,-0.3456 -0.4239,-0.9515 -0.568,-1.2783l-0.6704 -1.5209c-0.6012,-1.3637 -1.1195,-2.6951 -0.9777,-4.2174 0,-0.3853 -0.4681,-1.3848 -0.6611,-1.7449 -0.3812,-0.7116 -1.0363,-1.058 -1.4898,-1.6515 -0.3089,-0.4041 -0.4856,-0.896 -0.7076,-1.3623 -0.2201,-0.4626 -0.5254,-1.5383 -0.5121,-2.0154 -0.074,-0.3752 -0.4897,-0.9669 -0.6891,-1.3156 -0.3559,-0.6222 -1.0429,-1.1087 -1.3315,-1.7075 -0.519,-1.0764 -0.3026,-2.4044 -0.0744,-3.5177 0,-0.6526 -0.298,-1.3318 -0.298,-2.0061 0,-0.7016 0.0522,-1.4579 -0.0745,-2.1367 -0.0792,-0.424 -0.3034,-0.7916 -0.3818,-1.1944 0,-0.236 -0.671,-0.7284 -0.8659,-0.9237 -0.3703,-0.3709 -0.8748,-0.6299 -1.1639,-1.073 -0.4056,-0.6215 -0.8605,-1.7263 -0.8017,-2.4918 -0.4086,-0.1021 -1.7826,-0.8824 -2.0042,-1.235 -0.381,-0.6062 -0.7112,-1.1226 -1.0443,-1.7906 -0.3652,-0.7326 -0.8493,-2.4016 -1.6245,-2.6976 -0.328,-0.1251 -0.7395,-0.1381 -1.117,-0.1394l0.1315 -45.0666 0 0 107.483 0.6959 0 0z"/>
  </g>
</svg>
