<?xml version="1.0" encoding="UTF-8"?>
<!DOCTYPE svg PUBLIC "-//W3C//DTD SVG 1.1//EN" "http://www.w3.org/Graphics/SVG/1.1/DTD/svg11.dtd">
<!-- Creator: CorelDRAW -->
<svg xmlns="http://www.w3.org/2000/svg" xml:space="preserve" width="210mm" height="297mm" style="shape-rendering:geometricPrecision; text-rendering:geometricPrecision; image-rendering:optimizeQuality; fill-rule:evenodd; clip-rule:evenodd"
viewBox="0 0 210 297"
 xmlns:xlink="http://www.w3.org/1999/xlink">
 <defs>
  <style type="text/css">
   <![CDATA[
    .str2 {stroke:#2F3133;stroke-width:0.1}
    .str1 {stroke:black;stroke-width:0.1;stroke-opacity:0.501961}
    .str0 {stroke:black;stroke-width:0.1}
    .str3 {stroke:black;stroke-width:0.5}
    .fil5 {fill:none}
    .fil0 {fill:white}
    .fil4 {fill:#1F1A17;fill-rule:nonzero}
    .fil2 {fill:#C2C1C1;fill-rule:nonzero}
    .fil3 {fill:white;fill-rule:nonzero}
    .fil6 {fill:black;fill-rule:nonzero}
    .fil1 {fill:white;fill-rule:nonzero;fill-opacity:0.501961}
   ]]>
  </style>
 </defs>
 <g id="Plan_x0020_1">
  <metadata id="CorelCorpID_0Corel-Layer"/>
  <path class="fil0 str0" d="M54.4154 245.425c-0.0326,0.0074 -0.0953,-0.0033 -0.1209,0.0071 -0.0365,0.0147 -0.0787,0.0575 -0.1067,0.0855 -0.058,0.058 -0.1524,0.0958 -0.1991,0.1639 -0.0175,0.0256 -0.0298,0.0772 -0.0213,0.1069 0.0092,0.0326 0.0461,0.0462 0.064,0.0713 0.0451,0.0055 0.0781,0.0356 0.128,0.0356 0.0689,0 0.1456,-0.0123 0.2133,-0.0214 0.125,-0.0167 0.2334,-0.0699 0.2774,-0.1924 0.0187,-0.0523 0.0284,-0.1174 0.0284,-0.1781 0,-0.0763 -0.0336,-0.1177 -0.0711,-0.1782l-0.192 0.0998zm1.593 -5.5229c-0.0804,0.037 -0.1834,-0.0143 -0.2702,-0.0143 -0.1332,0 -0.2946,-0.0417 -0.3485,0.1212 -0.0218,0.0662 -0.0176,0.129 -0.0213,0.1995 -0.0041,0.0794 -0.011,0.1582 0,0.2352 0.0301,0.0301 0.0407,0.0419 0.0782,0.0641 0.0551,0.0325 0.071,0.0142 0.128,0.0072 0.0826,-0.0727 0.1908,-0.14 0.2987,-0.1711 0.0475,-0.0137 0.0866,-0.046 0.1138,-0.0855 0.0326,-0.0471 0.0474,-0.1878 0.0853,-0.2067l-0.064 -0.1496zm0.6258 -0.9549c-0.0122,-0.0066 -0.0242,-0.0133 -0.0355,-0.0214 -0.0411,-0.2033 -0.0979,-0.447 -0.1921,-0.6342 -0.0132,-0.0033 -0.0183,-0.0113 -0.0284,-0.0214 -0.1039,0 -0.1377,0.0944 -0.1849,0.171 -0.1076,0.1742 -0.1803,0.3828 -0.3058,0.5416 -0.0878,0.111 -0.175,0.1861 -0.2347,0.3207 -0.2414,0.5444 0.5902,0.2936 0.8463,0.2565 0.1027,-0.1439 0.1636,-0.3161 0.1636,-0.4988l-0.0285 -0.114zm-0.4622 -0.9763c0.0138,-0.0747 -0.0072,-0.1283 -0.0072,-0.1996 0,-0.0798 -0.0331,-0.1388 -0.0426,-0.2066 -0.0545,-0.0078 -0.0823,-0.0707 -0.1565,-0.0357 -0.1445,0.068 -0.344,0.1575 -0.4267,0.2922 -0.0658,0.1074 -0.0936,0.2309 -0.0995,0.3563 -0.0062,0.1337 -0.0897,0.4465 0.1422,0.3991 0.0773,-0.0157 0.1895,-0.0965 0.2489,-0.1496 0.0462,-0.0414 0.0921,-0.0678 0.128,-0.1212 0.0299,-0.0443 0.0537,-0.0892 0.0925,-0.1283l0.1209 -0.2066zm1.4863 -0.3492c0.1324,-0.0408 0.394,-0.3362 0.4836,-0.449 0.2095,-0.2641 0.1958,-0.472 -0.064,-0.7055 -0.2318,0.1967 -0.4806,0.3955 -0.7254,0.5701 -0.2477,0.1768 -0.5829,0.7065 -0.5974,1.012 -0.0265,0.56 0.6234,-0.1258 0.7467,-0.2495l0.1565 -0.1781zm1.8561 -3.6487c-0.0282,0.1228 -0.1214,0.1512 -0.1422,0.2138 -0.0965,0 -0.1948,0.0143 -0.2987,0.0143 -0.0466,0 -0.0929,-0.0281 -0.1423,-0.0143 -0.063,0.0175 -0.1015,0.0897 -0.1422,0.0998 -0.0099,0.0399 -0.0427,0.0525 -0.0427,0.0997 -0.0786,0.0527 -0.2693,0.5802 -0.3413,0.7127 -0.0704,0.1294 -0.1454,0.2676 -0.1991,0.399 -0.0168,0.041 -0.2232,0.2827 -0.0996,0.3136 0.0256,0.1028 0.1891,0.0777 0.256,0.057 0.1297,-0.04 0.1785,-0.0442 0.2987,-0.0142l0.0142 0.0142 0 0.0285c0.037,0.0245 0.0396,0.287 0.0569,0.3563 0.4118,0 0.2788,-0.4016 0.5121,-0.5701 0.2075,-0.15 0.3153,-0.2155 0.3698,-0.4988 0.0613,-0.318 0.1015,-0.5555 0.2418,-0.8552 0.0732,-0.1562 0.128,-0.3674 0.128,-0.5416 0,-0.0711 -0.0063,-0.1234 -0.0285,-0.1852 -0.0191,-0.0535 -0.1065,-0.0635 -0.1138,-0.0856 -0.1986,0 -0.2702,0.2212 -0.2702,0.3991l-0.0569 0.057zm-1.209 -1.24c-0.0898,0.0278 -0.1631,0.0608 -0.256,0.0713 -0.0852,0.0096 -0.1185,0.0868 -0.1707,0.0998 0,0.2396 0.0897,0.4874 -0.0711,0.6698 -0.0541,0.0615 -0.112,0.1026 -0.1422,0.1711 -0.0443,0.1002 -0.1646,0.38 -0.0142,0.4418 0.1769,0.0728 0.2932,-0.0491 0.4267,-0.1568 0.0797,-0.0642 0.0937,-0.182 0.0711,-0.2708 -0.0349,-0.1366 0.0505,-0.3358 0.128,-0.4418 0.0713,-0.0973 0.2064,-0.2638 0.2276,-0.3706 0.0337,-0.0084 0.128,-0.1119 0.128,-0.1567 0,-0.1146 -0.1229,-0.1258 -0.1849,-0.0428l-0.1423 -0.0143zm5.3053 -2.879c-0.0456,0.066 -0.0427,0.0361 -0.0427,0.0855l-0.0285 0.0143c-0.0089,0.0359 -0.0313,0.0899 -0.0711,0.0998 -0.0242,0.0323 -0.0038,0.0169 -0.0426,0.0427l-0.0143 0.0428c-0.0285,0.0071 -0.0506,0.0379 -0.0569,0.057 -0.0301,0.0075 -0.1645,0.132 -0.1706,0.1568 -0.0291,0.0072 -0.0497,0.0279 -0.0569,0.057l-0.0285 0.0142 0 0.0713c0.0262,0.0347 0.0753,0.1021 0.0854,0.1425 0.0343,0.0049 0.0444,0.0085 0.0711,0.0285 0.0242,0 0.063,0.0048 0.0853,0 0.0431,-0.0092 0.0738,-0.047 0.1138,-0.057 0.0255,-0.0448 0.06,-0.0728 0.0853,-0.114 0.0233,-0.0381 0.0371,-0.08 0.0712,-0.114l0 -0.0285c0.0249,-0.0083 0.0177,-0.0345 0.0426,-0.0428l0 -0.0285c0.0326,-0.0433 0.0427,-0.0845 0.0427,-0.1425 0.0204,-0.0136 0.0142,-0.0107 0.0142,-0.0428 0.0169,-0.0225 0.0142,-0.0146 0.0142,-0.0427 0.017,-0.0226 0.0143,-0.0145 0.0143,-0.0428l0.0284 -0.0285c0,-0.0281 -0.0027,-0.0202 0.0142,-0.0428l0 -0.0427c0.02,-0.0266 0.0143,-0.036 0.0143,-0.0713 0.0169,-0.0225 0.0142,-0.0146 0.0142,-0.0427 -0.0269,-0.0202 -0.0353,-0.0143 -0.0711,-0.0143l-0.128 0.0855zm3.8544 -1.7245c-0.6586,0.3549 -0.7746,1.4889 -0.9956,2.1521 -0.1602,-0.032 -0.0016,-1.1664 -0.3556,-0.8124 -0.603,0.603 0.0666,1.0956 -0.1991,1.6961 -0.376,0.85 -1.1158,1.6266 -1.5076,2.5084 -0.2735,0.6154 -0.7823,1.6396 -0.7823,2.3517 0.1652,-0.0413 0.4677,-1.1852 0.5831,-1.3968 0.1358,-0.2488 0.0738,-0.4988 0.3414,-0.6841 0.4854,-0.3363 0.5885,-0.581 0.8392,-1.1117 0.093,-0.1967 0.5139,-1.2115 0.6827,-1.2115 0.0682,0.2747 -0.0854,0.6507 -0.0854,0.955 0,0.7651 0.6553,-1.2678 0.6827,-1.3398 0.0733,-0.193 0.512,-1.2175 0.6401,-1.2257 0.4874,-0.0312 0.4693,0.0246 0.4693,0.4988 0,0.6257 -0.3616,0.1966 -0.5973,0.6699 -0.1318,0.2649 0.2742,0.4034 0.4124,0.5416 0.126,0.126 0.0181,0.5688 0.0569,0.7554 0.1874,0.9011 0.569,-0.7897 0.569,-1.0547 0,-0.373 0.1913,-0.708 0.2133,-1.0974 0.0202,-0.3589 -0.1547,-2.4168 -0.7112,-2.1949l-0.256 0zm11.9759 5.8578c0.0115,-0.1509 0.0966,-0.2799 0.0854,-0.4419 -0.0065,-0.0932 -0.0521,-0.1827 -0.0427,-0.285 0.0146,-0.1598 0.1263,-0.2558 0.1849,-0.3991 0.0352,-0.0863 0.0569,-0.1757 0.0569,-0.2708 0,-0.1088 -0.0334,-0.1288 -0.0569,-0.1995 -0.2032,0 -0.3414,0.1242 -0.3414,0.342 0,0.1565 -0.0309,0.3601 -0.0711,0.5131 -0.0196,0.0745 -0.0771,0.1983 -0.0853,0.2708 -0.0101,0.0899 -0.0142,0.2159 -0.0142,0.2993 0,0.163 -0.0059,0.2225 0.1137,0.3421l0.1707 -0.171zm12.1324 -1.1687c-0.0686,0.0528 -0.142,0.1496 -0.2134,0.1852 -0.1165,0.058 -0.3231,0.0714 -0.4125,0.1711 -0.0968,0.1081 -0.1818,0.6184 0,0.6841 0.1666,0.0601 0.2911,-0.0857 0.3983,-0.2138 0.0674,-0.0807 0.1414,-0.1393 0.1991,-0.228 0.0173,-0.0265 0.0867,-0.1216 0.1138,-0.1283 0.0064,-0.0258 0.022,-0.0312 0.0284,-0.057 0.0319,-0.0079 0.0393,-0.0349 0.0712,-0.0428 0.0168,-0.0674 0.1529,-0.1317 0.1849,-0.228 0.0406,-0.1218 0.0376,-0.2566 -0.1138,-0.2566l-0.256 0.1141zm0.0497 -5.2165c0.0322,-0.1409 0.1004,-0.3178 0.064,-0.4632 -0.0203,-0.0808 -0.079,-0.1301 -0.1137,-0.1995 -0.0423,-0.0849 -0.0764,-0.2039 -0.1352,-0.278 -0.1372,-0.0271 -0.1082,0.2264 -0.1209,0.3136 -0.0173,0.1179 -0.0336,0.2729 -0.0711,0.3848 -0.0513,0.1527 -0.1038,0.2767 -0.1351,0.4347 -0.0161,0.0812 -0.0554,0.3366 0.0071,0.3991 0.2112,0 0.2668,-0.2679 0.3912,-0.3919l0.1137 -0.1996zm0.9957 -0.2993c-0.0855,0 -0.1147,-0.0465 -0.1849,-0.0855 -0.1242,-0.0692 -0.2053,-0.0447 -0.2632,0.0855 -0.0473,0.1061 -0.0554,0.2292 -0.0853,0.3421 -0.0155,0.0584 -0.0201,0.1362 0.0427,0.1639 0.1026,0.0451 0.1857,0.0854 0.2986,0.0356 0.0465,-0.0204 0.106,-0.05 0.1281,-0.0998 0.0414,-0.0928 0.0497,-0.2137 0.0497,-0.3135l-0.0142 -0.0071 0.0285 -0.1212zm-6.116 -2.202c0.0998,-0.1404 0.174,-0.4296 0.2276,-0.5986 0.0739,-0.2326 0.3399,-0.5268 0.3271,-0.7554 -0.0044,-0.0779 -0.1228,-0.2599 -0.1493,-0.3563 -0.0422,-0.1536 -0.0414,-0.4265 -0.1565,-0.5416 -0.3677,0 -0.4269,1.3812 -0.4694,1.6818 -0.0318,0.2243 -0.1137,0.436 -0.1137,0.6627 0,0.0827 -0.0068,0.2002 0.0497,0.2637 0.0935,0.1048 0.1759,-0.1239 0.2134,-0.171l0.0711 -0.1853zm4.2456 -2.651l-0.0355 0c-0.0814,-0.1617 -0.3256,-0.4878 -0.4694,-0.1781 -0.0429,0.0923 -0.0885,0.2541 -0.1707,0.3206 -0.0824,0.0668 -0.18,0.0596 -0.2702,0.0998 -0.1642,0.0731 -0.3041,0.332 -0.3627,0.4988 -0.029,0.0824 -0.026,0.1172 0.0071,0.1925 0.0521,0.1182 -0.0721,0.4097 -0.1422,0.513 -0.0416,0.0612 -0.2584,0.3814 -0.0996,0.4348 0.1042,0.0351 0.2409,-0.1681 0.3342,-0.1996 0.2015,-0.0679 0.3777,0.5737 0.5121,0.2922 0.1634,-0.3425 -0.5526,-0.6191 -0.1494,-1.0048 0.1364,-0.1306 0.2834,-0.2669 0.3983,-0.4205 0.0882,-0.1178 0.2063,-0.3353 0.3556,-0.3777l0.0924 -0.171zm-1.9486 -1.4965c0,-0.3044 0.1778,-0.8587 -0.0782,-1.0832 -0.1723,-0.0212 -0.202,0.0413 -0.3058,0.171 -0.0858,0.1071 -0.2209,0.1459 -0.2987,0.2779 -0.3045,0.517 -0.026,0.9696 -0.0426,1.5037 -0.0041,0.1314 -0.0425,0.2994 0,0.4276 0.0944,0.2852 0.3146,-0.088 0.3555,-0.1996 0.0838,-0.2289 0.0848,-0.5841 0.2489,-0.7696l0.1209 -0.3278zm0.313 -3.8696c-0.1046,-0.1255 -0.3063,-0.5487 -0.4765,-0.5487 -0.1877,0.1877 -0.0468,0.5237 -0.0925,0.7696 -0.033,0.1772 -0.3179,1.1449 -0.0355,1.2044 0.2255,0.0474 0.3984,-0.3301 0.4693,-0.4846 0.0501,-0.109 0.084,-0.2302 0.1067,-0.3492 0.0287,-0.1509 0.0105,-0.3026 0.064,-0.449l-0.0355 -0.1425zm9.7997 10.497c0.0579,-0.2721 0.1351,-0.5423 0.2418,-0.7981 0.0624,-0.1498 0.1487,-0.6593 0.0569,-0.7981 -0.0377,-0.0569 -0.1245,-0.0481 -0.1778,-0.0214 -0.1827,0.0915 -0.2205,0.7729 -0.2205,0.9691 0,0.0719 0.0108,0.2332 -0.0142,0.2994 -0.0482,0.1279 -0.1067,0.2036 -0.1067,0.3491 0.0324,0.0326 0.0674,0.0499 0.1138,0.0499l0.1067 -0.0499zm9.4868 0.955c0.1288,-0.03 0.2359,-0.1644 0.3485,-0.2352 0.0986,-0.0621 0.2067,-0.1155 0.1991,-0.2423 -0.0056,-0.0951 -0.0695,-0.2261 -0.0995,-0.3207 -0.0462,-0.1461 -0.1126,-0.697 -0.2987,-0.734 -0.37,-0.0735 -0.4201,0.5066 -0.4978,0.7411 -0.083,0.2506 -0.2293,0.5265 -0.192,0.7839 0.0962,0.0694 0.181,0.0713 0.2986,0.0856l0.2418 -0.0784zm0.6258 0.8052c0,-0.0792 -0.0279,-0.1177 -0.0711,-0.1781 -0.0449,-0.0056 -0.0701,-0.0214 -0.1209,-0.0214 -0.08,0 -0.1908,0.0585 -0.2631,0.0926 -0.1545,0.0727 -0.3613,0.1238 -0.3698,0.3421 -0.0065,0.168 0.0149,0.3194 0.0498,0.4846 0.0243,0.1155 0.1431,0.1248 0.2418,0.1211 0.2143,-0.008 0.1735,-0.2803 0.192,-0.4204 0.0093,-0.0703 0.0768,-0.1519 0.1209,-0.2067 0.058,-0.0723 0.1261,-0.155 0.2204,-0.2138zm2.2615 -0.7554c0.0453,-0.0589 0.1056,-0.085 0.1636,-0.1282 0.1188,-0.0887 0.2119,-0.2688 0.2062,-0.4205 -0.0035,-0.0954 -0.0668,-0.2132 -0.1778,-0.1853 -0.1651,0.0414 -0.2573,0.3301 -0.3271,0.4704 -0.065,0.1309 -0.1663,0.3329 -0.1138,0.4774 0.0185,0.0023 0.0305,0.0055 0.0498,0.0072l0.1991 -0.221zm0.256 -15.1647c-0.2584,0 -0.3967,0.3102 -0.6116,0.3278 -0.1085,0.0088 -0.4117,-1.2515 -0.64,-0.8409 -0.155,0.2789 0.0622,1.3683 -0.6116,1.3683 -0.2689,-0.5397 -0.5277,-1.6186 -1.4223,-0.9977 -0.3918,0.272 -0.6566,1.3829 -0.4836,1.8386 0.0571,0.1507 0.3941,0.0936 0.5263,0.2565 0.1315,0.1622 0.0676,0.4577 0.0995,0.6556 0.0721,0.446 0.5286,0.6939 0.7681,1.0547 0.2603,0.3923 -0.0779,0.6055 0,0.9977 0.0868,0.4374 0.5895,0.8877 0.768,0.2138 0.1101,-0.4156 0.1779,-0.3971 0.4978,-0.1568 0.2932,0.2201 0.6429,0.2433 0.9957,0.114 0.3817,-0.14 0.2289,-0.3723 0.4267,-0.5701 0.1596,-0.1596 0.3591,-0.182 0.5262,-0.4133 0.4795,-0.6633 1.1772,-1.6559 0.3414,-2.3944 -0.2232,-0.1973 -0.7545,-0.1785 -0.8108,-0.2423 -0.1618,-0.183 0.28,-1.0262 -0.1849,-1.0262l-0.1849 -0.1853zm-2.1619 -2.9218c-0.1516,0.1519 -0.343,0.2748 -0.4836,0.4276 -0.3465,0.3762 -0.1625,0.4846 -0.6827,0.4846 -0.4929,0 -0.7578,0.4017 -0.9529,0.8124 -0.1195,0.2518 -0.1831,0.2669 -0.4125,0.4133 -0.11,0.0703 -0.3282,0.2516 -0.0996,0.3278 0,0.3524 -0.4124,0.6592 -0.4124,1.0975 0.1302,0 0.4536,-0.6366 0.512,-0.7697 0.0803,-0.1833 0.7028,-0.5412 0.8818,-0.6841 0.3103,-0.2479 0.5723,-0.6271 0.9814,-0.6271 0.081,0.3243 -0.4683,0.6 -0.3129,0.7554 0.1076,0.1076 0.591,0.0881 0.7823,0.1995 0.8356,0.4864 0.3283,-0.4264 0.6258,-0.6414 0.1208,-0.0872 0.3997,-0.0479 0.5689,-0.1425 0.2145,-0.1198 0.3421,-0.3705 0.6116,-0.3705 0.0488,0.1955 0.0712,0.373 0.0712,0.5986 0,0.0796 1.1639,-0.0263 1.152,-0.1853 -0.0111,-0.147 -0.3233,-0.2884 -0.4124,-0.3991 -0.2364,-0.2934 -0.373,-0.5287 -0.3556,-0.8979 0.0067,-0.1416 -0.3234,-1.0795 -0.4409,-1.0975 -0.2783,-0.0426 -0.8521,0.3262 -1.0525,0.5274l-0.569 0.171zm-1.024 -7.5396c-0.2082,0.0481 -0.4655,-0.2557 -0.6543,-0.3278 -0.2635,-0.1005 -0.5389,0.6004 -0.6827,0.7554 -0.1196,0.1288 -0.8014,0.8199 -0.7112,0.9407 0.2008,0 0.6582,-0.2 0.8107,-0.0856 0,0.4891 0.0781,0.9795 0.0285,1.4681 -0.0381,0.3756 -0.1159,0.705 -0.2276,1.0689 -0.0449,0.1463 0.0029,0.2579 0.1565,0.2423 0.5743,-0.0584 0.6061,-1.7382 0.7538,-2.1664 0.0793,-0.2297 0.9949,-1.6326 0.6685,-1.7958l-0.1422 -0.0998zm-2.0482 1.6676c-0.2064,0.0475 -0.2637,0.1793 -0.3271,0.3705 -0.0526,0.1589 -0.0096,0.336 -0.0427,0.4989 -0.0696,0.3428 -0.2902,0.0997 -0.4978,0.228 -0.2235,0.138 0.0901,0.5081 0.128,0.6414 0.2453,0.1049 0.4032,-0.1227 0.5832,-0.2566 0.1311,-0.0974 0.4836,-0.1773 0.4836,-0.3563 -0.1828,-0.1458 -0.2946,-0.2924 -0.0854,-0.4561 0.1842,-0.1443 0.0683,-0.4217 -0.0426,-0.5701l-0.1992 -0.0997zm2.9015 -5.8436c-0.1485,-0.1614 -0.0774,-0.4676 -0.2702,-0.6129l-0.0284 0.0143c-0.0894,0.3578 -0.0708,0.811 -0.5547,0.6271 -0.481,-0.1829 -0.4665,0.1355 -0.4836,0.4988 -0.0156,0.3298 -0.0827,0.6762 -0.0996,1.012 -0.0167,0.33 -0.1879,0.4343 -0.3413,0.6984 -0.0619,0.1065 -0.2798,0.4786 -0.1281,0.5843 0.1456,0.1016 0.2827,-0.2055 0.3699,0.057 0.0486,0.1462 -0.0277,0.9387 0.2133,0.8694 0.2906,-0.0837 0.369,-0.86 0.3982,-1.0974 0.1036,-0.8432 0.3805,-0.0143 0.697,-0.5274 0.2149,-0.3482 -0.2542,-0.7452 0.2702,-0.9549 0.0575,-0.2302 0.0996,-0.3406 0.0996,-0.6128l-0.1423 -0.5559zm7.5241 5.1594c-0.2688,0.0416 -0.7196,-0.3061 -0.9387,-0.4418 -0.2019,-0.1252 -0.3355,-0.1936 -0.5121,-0.3706 -0.0944,-0.0945 -0.324,-0.399 -0.4551,-0.399 -0.0111,-0.0334 -0.0457,-0.0063 -0.0711,0 -0.0334,0.1337 -0.1212,0.2849 -0.2134,0.3848 -0.1377,0.1494 -0.12,0.1822 0.0569,0.2565 0.246,0.1032 0.4078,0.2983 0.4267,0.5701 0.0129,0.1846 0.0472,0.3657 0.1565,0.5131 0.1142,0.1538 0.2504,0.1237 0.4124,0.1996 0.191,0.0896 0.4028,0.3671 0.6116,0.228 0.1756,-0.1171 0.3485,-0.3701 0.3983,-0.5701l0.128 -0.3706zm2.3326 1.7531c-0.1491,-0.0114 -0.7141,-0.3467 -0.953,-0.4133 -0.215,-0.06 -0.8867,-0.9427 -1.0951,-0.8124 -0.0177,0.0111 -0.0285,0.3613 -0.0285,0.4133 0,0.6222 -0.5725,0.8849 -0.7396,1.3683 -0.097,0.2805 0.2994,1.1357 0.2134,1.1117 -0.4776,-0.1332 -0.4703,-0.3693 -0.9814,0 -0.1884,0.1362 -0.9703,0.2711 -0.3841,0.5986 0.7572,0.4232 0.2596,1.1973 0.2276,1.7958 -0.0078,0.1463 -0.1354,0.8333 0.0284,0.8979 0.5362,0.2114 0.4465,0.0842 0.6543,0.6841 0.0929,0.2681 0.6328,0.1704 0.7396,0.4989 0.0665,0.2049 0.2446,0.5787 0.5263,0.4846 0.1976,-0.0659 0.0827,-0.4129 0.1706,-0.5559 0.3666,-0.5967 0.9672,0.0043 0.9672,-0.9977 0.4168,-0.1042 0.5721,-0.0282 0.8961,-0.4703 0.4288,-0.5852 -0.4363,-0.7509 -0.7965,-0.7839 -0.5439,-0.0499 -0.5263,-0.7421 -0.5263,-1.1687 0.483,0.1203 0.7879,0.7945 1.4081,0.5701 0.3539,-0.1281 0.3836,-0.3706 0.8819,-0.3706 0.0449,0.1802 0.4902,0.6115 0.0284,0.7269 0,0.2116 0.5821,0.5401 0.7965,0.5273 0.2664,-0.016 0.1374,-1.7815 -0.7965,-1.7815 -0.3168,0 -0.5994,-0.0795 -0.8676,0.0997 -0.191,0.1275 -0.5039,0.1124 -0.7254,0.0571 0,-0.1982 0.6182,-0.3932 0.7396,-0.5844 0.1862,-0.293 0.7525,0.0231 0.4267,-0.5273 -0.0949,-0.1603 -0.0888,-0.3137 -0.128,-0.4846 -0.0471,-0.2058 -0.3057,-0.3839 -0.3556,-0.5844l-0.3271 -0.2993zm1.0809 11.0315c0.0665,-0.3545 -0.0316,-0.8713 -0.0426,-1.24 -0.0114,-0.3845 -0.0635,-0.4848 -0.4267,-0.399 -0.4098,0.0969 -0.6217,0.3427 -0.9103,0.513 -0.3028,0.1788 -0.5516,0.213 -0.8534,0.3136 0,0.3028 0.4544,0.2075 0.2703,0.6556 -0.1201,0.2925 -0.1992,0.4469 -0.1992,0.7839 0,0.2142 0.039,0.3946 -0.0426,0.5986 -0.1254,0.3139 -0.1622,0.5368 -0.1423,0.8694 0.0121,0.2014 0.0116,0.9237 0.128,1.0405 0.0292,-0.0072 0.2172,-0.3237 0.2987,-0.3991 0.2546,-0.2359 0.5262,-0.2226 0.8392,-0.1425 0.1082,0.0277 0.3831,0.2146 0.4978,0.0997 0.1339,-0.1343 0.1,-0.4525 0.128,-0.6271 0.0444,-0.277 0.2119,-0.5469 0.2702,-0.8266 0.0237,-0.1142 0.0291,-0.808 0.0854,-0.8267l0.0995 -0.4133zm4.1674 -2.765c0.1185,-0.064 0.263,-0.1906 0.3129,-0.3136 0.0503,-0.1242 -0.0094,-0.2308 -0.0853,-0.3278 -0.1415,-0.1806 -0.1212,-0.411 -0.4125,-0.4275 -0.4528,-0.0256 -0.326,0.5328 -0.4551,0.8266 -0.0594,0.135 -0.1565,0.3872 -0.1565,0.5274 0,0.073 -0.0144,0.285 0.1138,0.285 0.0488,0.1962 0.5942,-0.1723 0.6258,-0.2993l0.0569 -0.2708zm0.256 -13.7965c-0.3539,-0.3842 -0.3223,-1.1337 -0.5262,-1.6105 -0.309,-0.0772 -0.5121,-0.1676 -0.6685,0.2565 -0.1273,0.3455 -0.0996,0.7096 -0.0996,1.0832 0,0.2242 -0.1615,0.5669 -0.1991,0.8124 -0.0404,0.2645 -0.3403,1.2546 0.1565,1.2827 0.2996,0.017 0.7019,-0.3902 0.896,0.0855 0.0934,0.2287 0.0734,0.3706 0.3272,0.4419 0.2069,0.0582 0.3341,-0.0016 0.512,-0.114 0.4453,-0.2811 -0.2987,-1.3326 -0.2987,-1.7104l-0.0996 -0.5273zm2.4606 0.5559c0.037,-0.1205 0.2674,-0.3805 0.3983,-0.3991 0.0209,-0.0351 0.0463,-0.043 0.0569,-0.0855 0.0703,-0.0234 0.0142,-0.2432 0.0142,-0.2993 0,-0.1991 -0.0903,-0.3618 -0.1138,-0.5274 -0.0789,-0.0112 -0.102,-0.0551 -0.1991,-0.0427 -0.207,0.0264 -0.3295,0.2199 -0.4409,0.3848 -0.1607,0.2376 -0.3583,0.4317 -0.5121,0.6984 -0.1128,0.1954 -0.2316,0.4628 -0.2844,0.6698 -0.0258,0.1009 0.3517,0.5687 0.4551,0.5844 0.1263,0.0193 0.218,0.0536 0.3414,-0.0143 0.1469,-0.081 0.1111,-0.3114 0.2276,-0.4275l0.0568 -0.5416zm-1.8916 4.1189c-0.0845,-0.1185 -0.1924,-0.3138 -0.3129,-0.3848 -0.0494,-0.0292 -0.0945,-0.0269 -0.1423,-0.0427 -0.0366,-0.0122 -0.0514,-0.0392 -0.0995,-0.0428 -0.1452,-0.0109 -0.1916,0.0761 -0.1423,0.2138 0.0208,0.0579 0.0631,0.1345 0.0996,0.1853 0.0235,0.0326 0.0323,0.0684 0.0569,0.0998 0.0211,0.0268 0.0461,0.0137 0.0569,0.057 0.0537,0.0107 0.0848,0.0446 0.128,0.0712 0.0231,0.0141 0.0475,0.0099 0.0711,0.0285 0.0283,0.0225 0.0317,0.035 0.0711,0.0428 0.0243,0.0975 0.1342,0.1215 0.2134,0.1568 0.0546,0.0244 0.1527,0.0712 0.2133,0.0712 0.0348,0.1048 0.1422,-0.1232 0.1422,-0.1853 0,-0.1384 -0.0602,-0.17 -0.1564,-0.2422l-0.1991 -0.0286zm12.0754 -3.7056l-0.2987 -1.2542c-0.114,-0.4787 -0.1945,-0.6263 -0.4836,-1.0262 -0.1282,-0.1775 -0.2124,-0.4165 -0.3129,-0.5986 -0.1333,-0.2416 -0.5427,-0.129 -0.768,-0.1853 -0.0351,-0.1411 -0.4038,-0.6842 -0.5263,-0.7982 -0.3246,-0.3024 -0.5518,-0.3692 -0.4551,-0.8694 0.0416,-0.4595 -0.2101,-0.683 -0.6401,-0.8266 -0.4546,-0.1517 -0.833,0.4339 -1.2943,0.1425 -0.2509,-0.1584 -0.3682,-0.417 -0.6969,-0.4418 -0.4469,-0.0337 -0.558,0.4463 -0.7396,0.7411 -0.4182,0.6791 -0.7261,0.0397 -1.1947,0.1568 -0.0618,0.2472 -0.1567,1.525 0.256,1.525 0.1537,0.6173 -0.8675,0.5158 -1.1379,0.8979 -0.2871,0.4059 -0.3595,1.6475 -0.6969,1.8243 -0.3996,0.2095 -0.6401,0.2715 -0.6401,0.8837 0,0.1635 0.3052,-0.0142 0.3983,-0.0142 0,0.4111 -0.5258,1.0144 -0.7823,1.3112 -0.7028,0.6478 0.0308,1.5117 0.7112,1.6818 0,0.5845 -0.6098,0.1501 -0.128,0.9692 0.2267,0.3856 0.0967,0.6462 0.5689,0.4988 0.2515,-0.0784 0.15,0.4682 0.384,0.4846 0.548,0.0384 0.4694,0.5042 0.5974,0.8979 0.2155,0.663 0.6166,-0.5416 0.8107,-0.5416 0.2275,0.9135 0.3812,1.2333 1.4223,0.9122 0.2017,-0.0622 0.7639,-0.7393 0.825,-0.9264 0.1948,-0.5967 -0.0515,-0.8745 -0.128,-1.411 -0.1166,-0.0166 -0.8392,-0.2898 -0.8392,-0.3706 0.406,-0.2447 0.2482,-0.331 -0.0142,-0.6414 -0.1851,-0.2191 0.2185,-0.5222 0.2987,-0.7554 0.1042,-0.3033 0.013,-1.4165 -0.0427,-1.753 -0.0503,-0.3042 -0.6325,-1.1596 -0.2845,-1.411 0.5768,-0.4169 0.4902,-0.0656 0.5832,0.5416 0.1293,0.8433 -0.1819,2.1284 0.1564,2.8505 0.4199,0.8965 0.6432,0.3136 1.2517,0.3563 0.4556,0.032 0.8685,-0.2603 1.2658,-0.0428 0.3994,0.2188 0.7505,-0.1889 1.0668,-0.3848 0.1312,-0.0813 0.3443,-0.5601 0.4978,-0.4418 0.3613,0.2782 1.024,-1.339 1.024,-1.5535l-0.0142 -0.4276zm-3.4278 4.5038c-0.1166,0.0268 -0.2352,0.006 -0.3413,0.0428 -0.0539,0.0186 -0.1847,0.0849 -0.2134,0.1425 -0.0187,0.0374 0.0108,0.1396 0.0143,0.171 0.0159,0.1414 -0.0285,0.2699 -0.0285,0.4133 0,0.1474 0.0247,0.5701 0.2276,0.5701 0.0833,0 0.1931,-0.0088 0.2844,-0.0142 0.1695,-0.0102 0.4979,0.0272 0.6116,-0.114 0.0899,-0.1118 0.1565,-0.2646 0.1565,-0.4134 0,-0.0877 -0.1272,-0.0838 -0.1849,-0.0997 -0.1846,-0.0512 -0.3539,0.0039 -0.4551,-0.1996 -0.0283,-0.0571 0.0506,-0.1362 0.0853,-0.171 0.0601,-0.0605 0.0853,-0.0859 0.0853,-0.171 -0.0312,-0.0104 0.0037,-0.0313 -0.0426,-0.0428 -0.0065,-0.026 -0.0025,-0.022 -0.0285,-0.0285l-0.1707 -0.0855zm1.7637 -0.2708l-0.3271 0c-0.1741,0 -0.3139,-0.1332 -0.4836,-0.114 -0.0927,0.0105 -0.0711,0.3129 -0.0711,0.3848 0,0.1091 0.0141,0.1853 0.128,0.1853 0.0885,0 0.1582,-0.0378 0.2418,-0.0428 0.1288,-0.0076 0.2555,-0.0462 0.384,-0.0142 0.0486,0.012 0.1181,0.0255 0.1707,0.0142 0.0495,-0.0107 0.098,-0.057 0.1422,-0.057 0,-0.0532 0.0016,-0.131 -0.0284,-0.171l-0.1565 -0.1853zm-6.9836 6.4279c0,-0.1161 0.0712,-0.1817 0.0712,-0.2708 0.2773,-0.0924 -0.324,-0.9963 -0.4125,-1.1402 -0.1041,-0.169 -0.2372,-0.329 -0.3414,-0.4988 -0.0813,-0.1326 -0.3919,-0.3232 -0.4267,-0.4276 -0.0336,0 -0.0438,0.0074 -0.0711,0.0142 0,0.2479 0.224,0.77 -0.0284,0.9692 -0.103,0.0812 -0.5,0.163 -0.5405,0.2851 -0.4982,0 -0.4302,-0.5221 -0.7112,-0.8267 -0.3321,-0.3601 -0.3947,-0.166 -0.4693,0.2138 -0.0795,0.405 -0.4203,0.9756 -0.8676,0.6984 -0.2701,-0.1673 -0.2794,0.0552 -0.2987,0.2565 -0.0232,0.2429 -0.2652,0.59 -0.2134,0.7982 0.3327,0.0663 1.0603,-0.3179 1.3655,-0.4704 0.3792,-0.1896 0.2143,0.7737 0.3698,0.8124 0.0021,0.0087 0.4815,-0.0156 0.6116,0.0428 0.2513,0.1127 -0.0427,0.3505 -0.0427,0.5558 0,0.5619 0.5876,0.0764 0.8818,0.0571 0.3897,-0.0255 0.6359,-0.3157 0.8107,-0.6414l0 0.0285 0.3129 -0.4561zm2.0624 1.7103c0,-0.099 -0.073,-0.4561 -0.1707,-0.4561 -0.0424,-0.1274 -0.379,0.0867 -0.4409,0.1141 -0.1933,0.0854 -0.955,0.0114 -0.7965,0.399 0.0276,0.0677 0.063,0.1565 0.0996,0.2138 0.0717,0.1124 0.1505,0.124 0.1849,0.2708 0.0297,0.1264 0.0142,0.2796 0.0142,0.4133 0.1137,0 0.1512,-0.0911 0.2418,-0.1282 0.1001,-0.0409 0.3561,0.0374 0.4694,0.0427 0.0864,0.0041 0.1803,0.0423 0.2702,0.0285 0.0788,-0.012 0.164,-0.0427 0.2418,-0.0427 0.0329,-0.0992 0.0008,-0.1262 -0.0569,-0.2423 -0.0205,-0.0411 -0.1061,-0.1944 -0.0285,-0.2138l-0.0284 -0.3991zm-0.4978 -4.3613c-0.0883,-0.0958 -0.1781,-0.1762 -0.3129,-0.0997 -0.0596,0.0337 -0.0838,0.1042 -0.128,0.1567 -0.0399,0.0472 -0.1006,0.099 -0.1423,0.1568 -0.0317,0.044 -0.0618,0.0715 -0.0853,0.114 -0.0159,0.0286 -0.0326,0.0714 -0.0427,0.0998 -0.0402,0.1119 -0.128,0.1445 -0.128,0.2708 0.0374,0.0124 0.0688,0.0428 0.128,0.0428 0.0947,0 0.1638,-0.0834 0.256,-0.1141 0.0696,-0.0232 0.1156,-0.065 0.1707,-0.114 0.0179,-0.0158 0.0406,-0.0253 0.0569,-0.0427 0.0391,-0.0414 0.024,-0.0558 0.0711,-0.0856 0.0267,-0.0168 0.035,-0.0208 0.0569,-0.0427l0.0996 -0.3421zm0.9672 0.1283c0.1095,-0.048 0.2224,-0.0903 0.3413,-0.114 0.0834,-0.0167 0.1631,-0.0227 0.2276,-0.0713 0,-0.0476 -0.0596,-0.1395 -0.0854,-0.1853 -0.0429,-0.076 -0.0925,-0.1558 -0.1422,-0.228 -0.0635,-0.092 -0.1106,-0.2043 -0.2276,-0.2138 -0.0203,-0.0016 -0.1108,-0.0085 -0.128,0 -0.0386,0.0193 -0.0664,0.0833 -0.0995,0.0998 -0.0122,0.0857 -0.0581,0.1708 -0.0711,0.2565 -0.0069,0.0451 -0.0237,0.0854 -0.0285,0.1283 -0.0076,0.068 -0.0711,0.1162 -0.0711,0.1995 0,0.0792 -0.0142,0.1371 -0.0142,0.2138l0.2987 -0.0855zm-0.3983 0.5559c-0.0959,0.0179 -0.1872,0.0142 -0.2844,0.0142 -0.0351,0 -0.0684,-0.0012 -0.0996,0.0143 -0.0302,0.0151 -0.0538,0.0492 -0.0853,0.057 -0.0104,0.073 -0.0291,0.1523 -0.0427,0.228 -0.014,0.0774 -0.0057,0.1632 -0.0142,0.2423 -0.0117,0.1077 -0.0285,0.2188 -0.0285,0.3278 0,0.0727 0.1235,0.029 0.1565,0.0143 0.0572,-0.0254 0.1216,-0.0609 0.1706,-0.0998 0.0345,-0.0273 0.0641,-0.0255 0.0996,-0.057 0.046,-0.0407 0.108,-0.0877 0.128,-0.1568 0.0218,-0.0755 0.0427,-0.1919 0.0427,-0.2708l-0.0427 -0.3135zm8.605 -11.7869c0,-0.1117 -0.0608,-0.5009 -0.1422,-0.5416 -0.0077,-0.0312 -0.0359,-0.0507 -0.0427,-0.0713 -0.0485,0 -0.0434,-0.0112 -0.0995,0 -0.0113,0.0453 -0.1435,0.0953 -0.1707,0.1568 -0.072,0.1629 -0.1344,0.3059 -0.2703,0.4418 -0.1114,0.1114 -0.0899,0.2165 -0.0569,0.3563 0.0176,0.0744 0.0116,0.4876 0.0569,0.5131 0.178,0.1001 0.4771,-0.3694 0.6259,-0.399l0.0995 -0.4561zm-0.1991 -2.2947c0.0216,-0.0704 0.0615,-0.1321 0.0711,-0.1995 0.0845,-0.0422 0.0853,-0.2503 0.0853,-0.3421 0,-0.0616 -0.0197,-0.1192 -0.0426,-0.171 -0.0206,-0.0467 -0.1121,-0.1043 -0.128,-0.1283 -0.216,0 -0.2168,0.1984 -0.256,0.3563 -0.0565,0.2281 -0.1281,0.4588 -0.1281,0.6984 0,0.0643 -0.0393,0.2345 -0.0142,0.285 0.0648,0.1305 0.2615,-0.1234 0.2703,-0.1852l0.1422 -0.3136zm0.2845 1.0119c-0.04,-0.0308 -0.0778,-0.0584 -0.1138,-0.0855l-0.0854 0c-0.0274,0.0275 -0.0399,0.0548 -0.0569,0.0855 -0.0165,0.0296 -0.0115,0.0323 -0.0284,0.057 -0.0385,0.0559 -0.0285,0.1281 -0.0285,0.1996 0.022,0.0073 0.0143,-0.0006 0.0143,0.0285l0.0284 0.0142 0 0.0285c0.0299,0.0099 0.0427,0.0624 0.0427,0.0998 0.0167,0.0055 0.0228,0.0345 0.0284,0.057l0.0285 0.0143 0.0142 0.0285 0.0284 0c0.0213,0.0212 0.0352,0.0265 0.0569,0.0427l0.0569 0c0.0259,0.0194 0.0385,0.0143 0.0711,0.0143 0.0343,-0.0456 0.0323,-0.108 0.0712,-0.1568 0,-0.0462 0.0041,-0.0736 0.0142,-0.114l-0.1422 -0.3136zm10.7171 -1.1402c-0.0678,-0.364 -0.113,-0.8918 -0.4054,-1.1473 -0.0346,0 -0.0646,-0.0071 -0.0995,-0.0071 -0.1648,0.1273 -0.1706,0.1209 -0.192,0.342 -0.0263,0.2721 0.0057,0.529 0.0426,0.7982 0.0491,0.3587 0.0259,0.6575 0.3627,0.8694 0.1174,0.0739 0.3355,0.1096 0.3912,-0.057 0.0533,-0.1596 -0.0854,-0.4103 -0.0854,-0.5844l-0.0142 -0.2138zm2.3184 -3.3137c-0.1455,-0.1118 -0.148,-0.5428 -0.2418,-0.7126 -0.0642,-0.1161 -0.2953,-0.3605 -0.4409,-0.3136 -0.15,0.0484 -0.0977,0.2917 -0.0569,0.4062 0.0383,0.1073 0.0674,0.2169 0.128,0.3136 0.0889,0.142 0.1956,0.2996 0.2418,0.4561 0.0438,0.1488 0.0523,0.3004 0.0924,0.4489 0.0946,0.0679 0.2137,0.1689 0.3485,0.1354 0.1742,-0.0434 0.123,-0.3333 0.0995,-0.4489l-0.1706 -0.2851zm9.2308 1.3397c0.1026,0.0441 0.1271,-0.0067 0.1991,-0.0427 0,-0.3637 -0.5602,-0.8641 -0.7894,-1.1188 -0.1784,-0.1981 -0.2702,-0.3973 -0.0782,-0.6414 0.0871,-0.1106 0.1946,-0.6895 0.0924,-0.791 -0.1224,0 -0.2595,0.3055 -0.384,0.3919 -0.2922,0.2026 -0.3888,-0.5 -0.6045,-0.62 -0.2618,-0.1458 -0.3096,0.304 -0.3555,0.4419 -0.037,0.111 -0.1891,0.5273 0.0284,0.5273 0.5987,0 0.1967,0.0732 0.4338,0.4062 0.2118,0.2973 0.0805,0.3797 -0.1778,0.5416 -0.0212,0.2382 0.2544,0.2295 0.4125,0.3563 0.2384,0.1914 0.2691,1.9669 0.5689,1.9669 0.1186,-0.1186 0.1716,-0.2423 0.3556,-0.2779 0.6981,-0.1351 0.2702,-0.4419 0.2702,-0.8695l0.0285 -0.2708zm1.5147 -0.3848c0.0065,0.0112 0.0113,0.0204 0.0214,0.0285 0.2447,-0.1046 0.0644,-0.4852 0.192,-0.6128 0.1106,0 0.1779,0.1131 0.32,0.0499 0.312,-0.1389 0.3704,-0.3757 0.3058,-0.7055 -0.0541,-0.2757 -0.2585,-0.3513 -0.3911,-0.563 -0.0953,-0.152 -0.2151,-0.4846 -0.4267,-0.4846 -0.148,0 -0.3233,0.1393 -0.4907,0.1639 -0.2075,0.0304 -0.9874,-0.0551 -0.5192,0.3421 0.1609,0.1366 0.5084,0.4135 0.569,0.6199 0.0835,0.2847 -0.1423,0.5859 -0.1423,0.8908 0,0.2058 -0.0505,0.6721 0.2489,0.6129 0.0333,-0.0417 0.0772,-0.0917 0.1138,-0.1283l0.1991 -0.2138zm1.3655 -6.3067c-0.0819,0.0188 -0.0438,0.0139 -0.0996,0 -0.0155,-0.0624 -0.155,-0.2622 -0.1991,-0.3136 -0.0929,-0.1086 -0.1316,-0.0382 -0.2276,-0.0142 -0.0319,0.1919 -0.2476,0.4809 -0.4836,0.4988 -0.1266,0.0095 -0.2532,-0.1056 -0.3556,-0.171 -0.0677,-0.0431 -0.1311,-0.057 -0.2133,-0.057 -0.1065,0 -0.1081,0.052 -0.1849,0.0712 -0.048,0.3377 0.1595,0.6068 0.2702,0.9264 0.1588,0.4588 0.4444,1.1545 1.0099,1.1545 0.226,0 0.428,0.0819 0.6542,0.0713 0.1227,-0.0058 0.3431,-0.1669 0.1849,-0.2851 -0.3329,-0.2487 -0.6142,-0.3542 -0.8676,-0.7126 -0.0836,-0.1184 -0.3567,-0.4402 -0.256,-0.5986 0.0681,-0.1073 0.6791,0.1651 0.825,0.1995 0.3856,0.0912 0.6287,-0.1696 0.2986,-0.4988l-0.3555 -0.2708zm8.7472 -1.4538c-0.1908,0 -0.2554,-0.1606 -0.384,-0.2565 -0.1102,-0.0821 -0.2393,-0.1827 -0.3414,-0.2851l-0.0284 0c-0.0546,0.0546 -0.0756,0.1697 -0.128,0.2423 -0.0771,0.1066 -0.192,0.2372 -0.3129,0.2708 -0.0936,0.0261 -0.2047,0.0094 -0.2987,0.0427 -0.1164,0.0411 -0.1809,0.0974 -0.2703,0.1568 -0.0175,0.123 -0.049,0.1474 0.0285,0.2708 0.0808,0.1284 0.145,0.1793 0.1849,0.3421 0.0511,0.209 0.149,0.4406 0.4124,0.3706 0.17,-0.0451 0.321,-0.2136 0.4979,-0.2708 0.3214,-0.1038 1.3381,-0.1226 1.0098,-0.6699l-0.3698 -0.2138zm10.6389 -18.3288c-0.3301,-0.0764 -0.3356,0.5244 -0.7538,0.3848 -0.1533,-0.0511 -0.847,-0.3943 -0.5121,0.057 0.1523,0.2051 0.5685,0.2993 0.825,0.2993 0.2485,0 0.5547,0.0268 0.5547,0.3278 0,0.2162 -0.3461,0.0388 -0.4125,0.2993 -0.0467,0.1831 0.2408,0.3427 0.3698,0.4134 0.1331,0.0728 0.3013,0.0143 0.4267,0.1567 0.1542,0.175 0.0161,0.7903 0.5263,0.5131 0.2461,-0.1338 0.5737,-0.4468 0.3271,-0.7126 -0.2071,-0.2231 -0.4772,-0.4043 -0.6543,-0.6699 -0.1737,-0.2607 -0.4031,-0.4726 -0.5831,-0.7126l0 0.0285 -0.1138 -0.3848zm-163.714 -21.203l4.37 96.9783c-0.1089,0.6263 -0.4221,1.0914 0.1299,1.6447 0.2249,0.2255 0.3873,0.6256 0.1564,0.9264 -0.3515,0.4581 -0.9226,1.2786 -0.384,1.8814 0.244,0.2732 0.2725,0.6077 0.2987,0.9549 0.027,0.3587 0.0796,0.5323 0.1564,0.8409 0.0552,0.0137 0.0746,0.0722 0.1281,0.0855 0.0728,0.2915 -0.0793,0.4219 -0.1707,0.6984 -0.109,0.3293 -0.1423,0.6893 -0.1423,1.0547 0.0287,0.2967 -0.3298,0.8833 -0.5689,1.0547 -0.023,0.0924 -0.1663,0.4219 -0.2276,0.4988 0,0.6042 -0.1467,1.1929 -0.1137,1.8101 0.0172,0.3217 0.4075,1.8151 0.5973,2.0523 0,0.0485 -0.0025,0.061 0.0285,0.0998 0,0.6277 0.5753,0.7047 1.0809,0.6271 0.5303,-0.0815 1.3143,0.9429 1.6073,1.3825 0.2353,0.3529 -0.1266,0.4608 -0.0569,0.7127 0.0732,0.265 0.5391,0.6217 0.7111,0.8979 0.2377,0.2666 0.4629,0.2999 0.7396,0.4846 0.2624,0.1753 0.3335,0.5609 0.5263,0.6983 0.0614,0.4317 0.5536,0.9692 0.9956,0.9692 0.3508,0.3521 0.6024,0.4031 0.7396,0.9407 0.1482,0.5804 -0.5481,1.5057 -0.6827,2.0808 -0.1523,0.6507 -0.1413,2.1246 0.1707,2.7508l0 0c0.0898,0.0224 0.3884,0.643 0.5262,0.7554l1.9201 1.5678c0.1908,0 0.5248,0.4059 0.6259,0.5701 0.1921,0.3117 0.6475,0.645 1.0525,0.4988 0.2984,-0.1078 0.1707,-0.9435 0.1707,-1.2542 0.2307,0 0.2182,0.8 0.2702,0.9692 0.088,0.2866 0.7726,-0.0674 0.8249,0.1425l0.0285 0 0.0284 0.7696c0.0134,0.3642 0.7784,-0.2138 0.7965,-0.2138 0.6371,-0.5869 0.8,-1.4997 1.3086,-2.2091 0.2162,-0.3015 0.2752,-1.2802 0.4978,-1.297 0.65,-0.0491 0.0428,-1.7701 0.896,-1.8671 0.2121,-0.0241 0.8866,0.2034 0.4552,-0.228 -0.543,-0.543 -0.1849,-0.3603 -0.1849,-0.9407 0.443,0.1107 0.4248,-0.3373 0.6116,-0.7981 0.0907,-0.2236 0.2766,-0.4084 0.3555,-0.6272 0.0962,-0.2664 -0.0569,-0.5209 -0.0569,-0.7838 -0.4211,-0.7393 -0.4038,-1.4556 -0.1991,-2.2805 0.0754,-0.3037 0.2763,-0.4603 0.4409,-0.7268 0.2404,-0.3893 0.2594,-1.0524 0.441,-1.4966 0.7295,-1.7835 1.6022,-2.0381 3.3282,-2.0381 0.0733,0.2212 0.448,0.2725 0.6258,0.2281 0.0475,-0.191 0.7731,-0.7399 0.9529,-0.9407 0.3457,-0.3858 0.5064,-1.0309 0.7112,-1.5108 0.0703,-0.2398 0.4467,-0.8079 0.7396,-0.7839 0.0902,0.0073 0.122,0.1951 0.2133,0.2281 0.2481,0.0895 0.6195,-1.3515 0.8108,-1.5963 0.2237,-0.2861 0.3358,-0.7574 0.7538,-0.8267 0.1837,-0.0305 0.5848,-0.0627 0.7254,-0.171 0.4955,-0.3816 -0.1297,-0.3833 -0.4125,-0.2851 -0.2653,0.092 -0.4247,0.4846 -0.7823,0.4846 0,-0.1421 0.0906,-0.9247 -0.0426,-0.9691 0,-0.321 -0.3062,-0.6255 -0.3272,-0.9265 -0.0594,-0.848 -0.0982,-1.4621 0.3129,-2.2376 0.2535,-0.4784 0.8583,-1.4395 1.4366,-1.4395 0.235,-0.0455 0.4718,-0.3509 0.1849,-0.2851 -0.2115,0.0486 -0.5067,0.0084 -0.569,-0.2138 -0.085,-0.3027 -0.1871,-0.3515 -0.4409,-0.456 -0.1766,-0.0726 -0.4398,-0.6414 -0.1422,-0.6414 0.1809,0 0.3907,0.3706 0.6258,0.3706 0.1755,0 0.5755,-0.4027 0.5832,-0.3421 0.0216,0.1694 -0.1741,0.443 0.0426,0.4988 0.2698,0.0696 0.5794,-0.1077 0.8392,-0.0142 0.2034,0.0731 -0.4864,0.4711 -0.5547,0.6698 -0.1393,0.4056 0.307,0.3123 0.0427,0.7412 -0.2993,0.4859 0.3306,0.4273 0.3698,0.171 0.1239,-0.8097 0.9936,-1.2312 1.5503,-1.7245 0.0955,-0.0847 0.2657,0.3248 0.3982,0.4418 0.4057,0.3586 1.1744,-0.2413 1.465,-0.4989 0.0668,-0.0591 0.6281,0.3687 1.081,0.1853 0.4309,-0.1746 -0.2823,-0.7199 -0.256,-1.0689 0.0128,-0.171 0.2319,-0.3345 0.1137,-0.5274 -0.1828,-0.298 -0.6071,-0.4414 -0.3129,-0.9121 0.5231,-0.8372 0.3075,-1.0054 -0.2275,-1.6106 -0.2187,-0.2475 -0.2317,-0.9558 -0.5547,-1.0832 -0.3819,-0.1505 -0.7267,0.7688 -1.2374,0.8267 -0.5009,0.0567 -1.5077,-0.124 -1.5077,-0.8552 0.2968,0.3972 0.9953,0.8772 1.5219,0.6129 0.3656,-0.1836 0.5863,-1.094 0.896,-1.1972 0.0404,-0.0422 0.0795,-0.081 0.1138,-0.1283 -0.0161,-0.0215 -0.0427,-0.183 -0.0427,-0.2138 -0.0229,-0.0076 -0.0142,-0.0155 -0.0142,-0.0427 -0.0156,-0.0052 -0.0512,-0.0767 -0.0569,-0.0998 -0.0449,-0.0112 -0.0319,-0.0472 -0.0711,-0.057 -0.0596,-0.1797 -0.4296,-0.0064 -0.512,0.0142 -0.1036,0.4161 -0.6406,0.4408 -0.9103,0.1711 -0.4048,-0.4048 0.2449,-0.4591 0.4551,-0.4419 0.4799,0.0392 0.7219,-0.1214 0.5405,-0.6271 -0.2527,-0.7048 0.0867,-1.0856 0.2845,-1.6818 0.1435,0 0.0215,1.166 0.0427,1.3968 0.0298,0.3256 0.3711,-0.3789 0.4978,-0.4704 0.1956,-0.1414 0.4861,-0.1255 0.6827,-0.2565 0,-0.3798 -0.4554,-0.6238 -0.0142,-0.8694 0.2506,-0.1394 0.8249,-0.9946 0.8249,-1.3113 0,-0.2598 0.0035,-0.5038 0.0427,-0.7411 0.045,-0.2719 0.176,-0.478 0.2275,-0.6841 0.1878,-0.0468 0.3577,-0.3071 0.4978,-0.3421 0.1249,0.1664 0.0143,0.5683 0.0143,0.7554 0.3471,0.0867 0.9928,-1.0684 1.2801,-1.2115 0.0081,-0.0406 0.0616,-0.182 0.0853,-0.2138 0.0454,-0.4863 1.2406,-0.5677 1.209,-0.9549 -0.0458,-0.5603 0.6173,-0.8854 0.7822,-1.3825l0.0285 0c0,0.3711 -0.3556,0.7956 -0.3556,1.1545 0.0176,0.0058 0.0226,0.0109 0.0284,0.0285 0.2814,0 0.6528,-0.8356 1.0668,-0.8694 0.3336,-0.0273 -0.1273,0.7554 0.1564,0.7554 0.3988,0 0.9258,-1.3845 1.2374,-1.6961 0.3251,-0.3251 0.4391,-0.8837 0.9672,-0.8837 0.3507,0 0.611,-0.3705 0.9814,-0.3705 0.4282,0 -0.5063,1.1086 -0.64,1.2542 -0.1867,0.2031 -0.9388,0.9625 -0.9388,1.1402 0.3091,0.077 1.3279,-1.0314 1.5646,-1.2685 0.2986,-0.2993 0.3569,-0.2582 0.7396,-0.3563 0.3086,-0.079 0.595,-0.4133 0.8818,-0.4133 0,0.4501 -0.465,0.9131 -0.6685,1.297 -0.167,0.3152 -0.2417,0.8142 -0.4693,1.0689 -0.2082,0.2331 -0.5995,0.3118 -0.7112,0.6556 -0.1285,0.3952 -0.3217,0.7441 -0.5831,1.069 -0.3411,0.4238 -0.1586,0.6491 -0.3698,1.1259 -0.1457,0.1921 -0.312,0.3215 -0.4694,0.5416 -0.1032,0.1445 -0.2292,0.3688 -0.2702,0.5416 -0.0527,0.2224 0.5664,-0.3541 0.7111,-0.3705 0.2391,-0.027 0,0.6821 0,0.8266 0.2748,0 0.7664,-0.4953 0.6543,-0.7696 -0.3489,-0.8529 0.2901,-0.9262 0.6969,-1.5393 0.3202,-0.4824 0.1646,-0.9428 0.3983,-1.3682 0.0637,-0.1159 0.1967,0.0702 0.3129,0.057 0.2504,-0.0284 0.7132,-1.2279 0.7823,-1.4966 0.0561,-0.2179 0.4161,-1.6248 0.5973,-1.6248 0.0282,0.1139 0.0392,0.5702 0.1849,0.5702 0.0493,-0.1988 0.8648,-1.1185 1.0668,-1.1688 0.0974,-0.1892 0.6699,-1.2399 0.7253,-1.2399 0.2051,0.8204 -0.9666,1.7958 0.4552,1.7958 0.4671,0 -0.0697,1.1425 0.0142,1.4965 0.1321,0.5578 0.9978,-0.6419 0.8534,0.2566 -0.0665,0.4139 0.0039,0.626 -0.2418,0.9834 -0.3232,0.4699 -0.8019,0.6138 -0.5263,1.2827 0.0929,0.2253 0.3033,0.3747 0.3698,0.6556 0.0703,0.2968 -0.003,0.5984 0.0569,0.8979 -0.1776,0.272 -0.3892,0.666 -0.3555,0.9977 0.0217,0.2146 0.6435,-0.5273 0.8249,-0.5273 0,0.328 -0.0599,0.7682 -0.1707,1.0832 -0.1162,0.3302 0.03,1.2582 0.3129,1.4252 0.6276,0.3703 0.4373,-0.4635 0.9103,-0.8694 0.4141,-0.3552 0.8584,-0.5453 1.337,-0.7981 0.2834,-0.1496 0.9014,-1.0861 0.1422,-0.7269 -0.6411,0.3032 -0.3984,-0.3367 -0.256,-0.6271 0.2563,-0.5228 0.1295,-0.2823 -0.0996,-0.7411 -0.2408,-0.4824 0.4253,-0.541 0.0143,-1.2685 -0.3383,-0.599 -0.8954,-1.7863 -0.2845,-2.3802 0.5072,-0.4932 0.2629,-1.5109 0.1138,-2.1094 -0.2781,-0.0695 -0.6477,0.3631 -0.8961,0.2138 0.0659,-0.2638 0.256,-0.3991 0.256,-0.7411 0.0727,-0.4516 0.2703,-0.9327 0.2703,-1.3968 0,-0.2786 -0.0576,-0.8542 -0.1565,-1.1117 -0.0673,-0.175 0.0412,-0.7947 -0.0853,-0.8979 -0.0068,-0.0055 -0.3389,0.311 -0.5689,0.0998 -0.1974,-0.1811 -0.0957,-0.6708 -0.0854,-0.9122 0.0083,-0.1928 0.1223,-0.6844 0.0285,-0.8551 -0.045,-0.082 -0.594,0.3814 -0.697,0.4845 -0.2106,0.2111 -0.3887,0.4767 -0.5831,0.6984 -0.2045,0.2334 -0.5725,0.5239 -0.7823,0.7269 -0.2692,0.2603 -0.4363,0.6123 -0.7396,0.8409 0,-0.3003 0.3417,-0.903 0.4552,-1.1972 0.262,-0.6796 0.2603,-1.2771 0.4267,-1.9526 0.0415,-0.1685 0.1076,-0.5314 0.3271,-0.3563 0.472,0.3764 0.3969,-0.0117 0.5974,-0.4134 0.2392,-0.4791 0.9885,-0.1266 1.28,-0.5986 0.146,-0.2364 -0.0311,-0.4164 -0.0142,-0.6413 0.0146,-0.1931 0.1991,-0.3721 0.1991,-0.5844 0.419,-0.131 0.6671,-0.3698 0.8961,-0.7411 0.1417,-0.2296 0.4134,-0.7165 0.4694,-0.9977 0.0182,-0.0045 0.0244,-0.0098 0.0426,-0.0143 0.0674,0.2706 0.3705,0.4754 0.2418,0.7839 -0.1405,0.3365 -0.313,0.5448 -0.6542,0.6699 -0.2168,0.0794 -0.3479,0.4596 -0.441,0.6414 -0.0956,0.1864 -0.4743,0.3152 -0.4835,0.4703 -0.0099,0.1659 0.183,0.3087 0.128,0.4988 -0.0911,0.3143 -0.4523,0.5094 -0.5405,0.8552 -0.0609,0.2387 0.1161,0.3192 0.1849,0.4988 0.0885,0.2306 -0.0761,0.6515 0,0.9265 0.0354,0.1282 0.0856,0.3046 0.0995,0.4275 0.0214,0.1901 0.2035,0.1471 0.313,0.2566 0.6209,0.3552 0.2986,1.7487 0.2986,2.3802 0,0.3812 0.0019,0.7691 -0.0284,1.1402 -0.0351,0.4299 0.0016,0.5209 0.4267,0.6271 0,0.5398 0.4836,2.186 -0.0427,2.5369 0,0.0909 -0.0711,0.1591 -0.0711,0.2566 -0.1557,0.1038 0.0794,0.8716 0.1422,0.9977 0.2762,0.0623 0.441,0.4525 0.441,-0.0428 0,-0.173 0.0678,-0.7981 0.2986,-0.7981 0.1576,0.2092 0.02,1.1035 -0.0569,1.354 -0.0718,0.2335 -0.2685,0.6142 -0.2133,0.8694 0.0472,0.218 0.1707,0.3509 0.1707,0.6128 0,0.3022 -0.1276,0.6073 -0.0569,0.8837 0.0227,0.0891 0.0579,0.3135 0.1849,0.3135 0.1753,0 0.2474,-0.2565 0.4125,-0.2565 0.0069,0.0208 0.0048,0.0108 0.0284,0.0285 0,0.2253 -0.0013,0.7782 0.128,0.9407 0.1042,0 0.6929,-1.1142 0.8534,-1.3255 0.4883,-0.643 0.8534,-0.7374 0.8534,-1.6391 0,-0.7241 0.3982,-1.3017 0.3982,-1.9811 -0.0036,-0.1494 -0.325,-0.9937 -0.4551,-1.0262 -0.0678,0.2045 -0.3513,0.4921 -0.4409,0.7839 -0.0969,0.3158 -0.3142,0.6745 -0.384,0.955l-0.0285 0c-0.1067,-0.4284 0.3472,-1.5103 0.4551,-1.9954 0.0445,-0.1999 -0.1129,-1.411 -0.256,-1.411l0 0.0285c-0.0625,0.0156 -0.1867,0.2271 -0.2702,0.1853 -0.0937,-0.047 -0.0834,-0.2336 -0.2134,-0.3136 -0.2584,-0.1592 -0.2995,-0.1018 -0.512,-0.399 -0.1155,-0.1617 -0.3461,-0.3991 -0.0569,-0.3991 0.3162,0 0.3983,-0.3205 0.3983,-0.5844 0,-0.1374 0.0146,-0.7057 0.128,-0.7696 0.1018,-0.0575 0.1342,0.4968 0.1849,0.6699 0.138,0.4714 0.4768,0.1042 0.6116,-0.1568 0.1444,-0.2794 -0.058,-1.2542 0.3982,-1.2542 0.6669,0 0.8033,-0.9148 1.3085,-1.0832 0,0.4004 -0.7528,2.3379 -1.1236,2.4657 -0.6139,0.2115 -0.8091,0.7944 -0.6116,1.4395 0.1039,0.3392 0.2151,1.0711 0.4409,1.2969 0.3329,0.3329 0.4001,0.4289 0.6116,-0.1425 0.1614,-0.4359 0.3766,-0.926 0.4552,-1.3825 0.0899,-0.5226 0.2671,-2.4746 0.8391,-2.6652 0,0.5104 -0.1099,0.8653 -0.3129,1.3255 -0.2322,0.5262 -0.2423,1.2198 -0.1706,1.7958 0.1535,0.2693 0.7075,0.7304 0.7538,0.9122 0.0633,0.248 0.0424,0.8781 0.0284,1.1402 -0.0328,0.614 -0.2184,0.3444 -0.5262,0.2423 -0.4439,-0.1474 -0.3645,1.2248 -0.2276,1.468 0.2419,0.4294 0.5778,0.769 0.7823,1.1687 0.068,0.1331 0.3277,0.8495 0.4836,0.5844 0.2122,-0.361 0.1193,-1.627 0.1422,-2.0809 0.0166,-0.3276 0.3768,-1.9811 0.7823,-1.9811l0.2702 1.297c0.0427,0 0.0569,0.0285 0.0996,0.0285 0.2241,-0.4497 0.5799,-1.6676 1.0952,-1.6676 0,0.4382 0.1166,0.883 0,1.3255 -0.0658,0.25 -0.4857,0.5781 -0.4979,0.7696 -0.0164,0.2577 0.0141,0.657 0.3841,0.4276 0.6187,-0.3834 0.8676,-1.5481 0.8676,-2.2376 0,-0.4554 -0.3228,-0.7576 -0.3556,-1.2258 -0.0263,-0.3766 -0.1313,-0.5719 0.0569,-0.9406 0.1942,-0.3802 0.2656,-0.9245 0.128,-1.3398 -0.0687,-0.2071 -0.2714,-0.2839 -0.3129,-0.5558 -0.038,-0.2486 0.1422,-0.4658 0.1422,-0.7127 0.0733,-0.2611 -0.0168,-0.502 0.0427,-0.7553 0.0878,-0.3743 0.1859,-0.9945 0.3698,-1.3255 0.1727,-0.3106 0.4881,-0.4203 0.6685,-0.7127 0.2162,-0.3506 0.2702,-0.7902 0.2702,-1.2114 0,-0.3774 0.3671,-0.7762 0.4694,-1.0832l0.0284 0c0.3708,1.4833 -0.5177,2.252 -1.1947,3.3493 -0.1825,0.2957 -0.0546,0.5814 -0.1707,0.8694 -0.2541,0.6297 -0.4532,1.5821 0.512,1.5821 0.0076,0.0229 0.0155,0.0142 0.0427,0.0142 0.0073,0.022 -0.0006,0.0143 0.0285,0.0143 0.0456,0.1824 -0.1428,0.7011 -0.2418,0.8694 -0.254,0.4321 -0.2142,0.9305 -0.1707,1.411 -0.1797,0.5105 -0.0142,1.1676 -0.0142,1.7103 0,0.171 0.5924,1.1354 0.6542,1.1117 0.1651,-0.0632 0.1271,-1.294 0.1565,-1.525 0.048,-0.3761 -0.0545,-0.5168 -0.1991,-0.8267 -0.1424,-0.3054 0.0711,-0.9085 0.0711,-1.2827 0,-0.1501 0.7257,-0.8409 0.8107,-0.8409 0.1036,0.4146 -0.1457,0.8786 -0.1991,1.297 -0.0611,0.4794 0.1072,0.4746 0.3129,0.7839 0.2237,0.3366 0.384,0.9871 0.384,1.411 0,0.4364 0.0996,0.7907 0.0996,1.1972l0.0711 0c0.0291,-0.1171 0.276,-0.3381 0.3556,-0.4276 0.3148,-0.3536 0.4254,-0.8715 0.5547,-1.3112 0.2119,-0.721 0.5316,-1.0935 0.9245,-1.6961 0.1513,-0.2322 0.353,-0.4914 0.4124,-0.7696 0.0732,-0.3433 0.0442,-0.859 0.2561,-1.1402 0.1678,-0.4493 0.1901,-1.0216 0.2844,-1.4965 0.095,-0.4788 0.2945,-0.9055 0.4409,-1.354 0.2438,-0.7463 0.1794,0.0216 0.6685,-0.3279 0.3467,-0.2478 1.361,-1.6504 0.825,-1.9668 -0.8129,-0.4797 0.0227,-0.9217 0.128,-1.4395 0.1243,-0.6117 0.3555,-1.0567 0.3555,-1.7103 0,-0.2129 0.5629,0.2993 0.8392,0.3848 0.5845,0.1811 0.9145,1.2896 0.5689,1.8528 -0.0821,0.1339 -0.512,0.2371 -0.512,0.3706 0,0.3173 0.3271,0.5213 0.3271,0.9549 0,0.2789 -0.2133,0.4353 -0.2133,0.6699 0,0.3 0.0478,0.4756 -0.0853,0.7554 -0.1125,0.2366 -0.3724,1.2013 0.1564,0.6271 0.2872,-0.312 0.3567,-0.2799 0.4551,0.114 0.9034,0 1.0974,-1.1687 1.6215,-1.1687 0,0.2508 -0.2509,1.0166 -0.1138,1.24 0.3184,0.5192 0.0142,0.5294 0.0142,1.0689l0.8676 -0.8124c0.21,-0.1966 -0.0091,-0.7244 0.2987,-0.8266 1.1062,-0.3673 0.8644,-1.1243 1.6784,-1.6676 0.7117,-0.0666 0.7855,-0.1673 1.0667,-0.7696 0.1272,-0.2723 0.371,-0.559 0.4409,-0.8409 0.0283,-0.1141 -0.0003,-0.4947 0.0285,-0.5416 0.0557,-0.0909 0.2651,-0.2506 0.3555,-0.3563 0.3074,-0.3597 0.2153,-0.9835 0.8534,-0.9835 0.092,0.3696 -0.1294,0.6802 -0.3698,0.9407 -0.2288,0.2481 -0.3031,0.6584 -0.4978,0.9407 -0.3076,0.4462 -0.5328,0.9252 -0.8249,1.3825 -0.2645,0.4143 -0.352,0.2596 -0.2276,0.7839 0.0521,0.2196 -0.4215,0.1627 -0.5405,0.456 -0.0644,0.1586 -0.1149,0.5131 -0.3271,0.5131 -0.3486,0 -0.6116,-0.1665 -0.6116,0.3849 0,0.3286 -0.1636,0.6671 -0.3698,0.9264 -0.1994,0.1517 -0.604,0.4205 -0.3556,0.6984 0.2727,0.3053 0.0711,0.327 0.0711,0.6556 0.467,0.1556 -0.011,1.727 0.6685,0.8836 0.3953,-0.4908 0.6067,-0.6206 1.1948,-0.7268 0.3532,-0.0637 0.7884,-0.5732 0.9529,-0.8695 0.3126,-0.5631 -0.137,-0.8215 0.1138,-1.3254 0.1655,-0.3323 0.0928,-0.4811 0.128,-0.8267 0.0268,-0.2623 0.3017,-0.2123 0.512,-0.2423 0.173,-0.6923 0.7307,-0.2063 1.0383,-0.3135 0.3612,-0.1258 0.9057,-0.988 1.2374,-1.2543 0.3537,-0.2285 0.3983,-0.5524 0.3983,-0.9406 0.182,0 0.2566,0.1373 0.4551,0.0142 0.1819,-0.1129 0.2576,-0.2573 0.4694,-0.3278 0.2785,-0.0928 0.7441,0.0649 0.6969,-0.3706 -0.0907,-0.8368 0.2552,-0.6913 0.5547,-1.3682 0.1674,-0.3786 0.6401,-1.0028 0.6401,-1.411 -0.6882,0.2283 -1.4871,0.6482 -2.1762,0.8409 -0.3182,0.089 -0.024,-1.5961 0.0285,-1.8529 0.1107,-0.542 0.3882,0.2817 0.64,0 0.0932,-0.1044 0.326,-0.7952 0.2134,-0.8266 -0.8132,-0.227 0.1466,-0.9458 0.1706,-1.4538 0.0208,-0.4385 -0.0536,-1.2485 0.0712,-1.6248 0.1546,0.0386 0.2865,0.7456 0.5547,0.8124 0.0596,-0.179 0.0142,-0.3426 0.0142,-0.5843 0.1747,-0.6838 0.059,-1.3191 0.2275,-1.9954 0.0735,0 0.2936,0.6321 0.313,0.2423 0.0619,-1.2405 0.9531,-2.0688 1.3796,-3.1926 0.1377,-0.3627 0.1355,-1.4111 0.5547,-1.5107 0.3708,-0.0882 0.7723,0.2085 0.8818,-0.3421 0.9318,-0.2321 0.7101,-1.636 1.0383,-2.2947 0.0727,-0.8963 -0.3151,-1.8109 -1.024,-2.3231 -0.11,-0.0795 -0.6686,-0.3278 -0.4836,-0.5131 0.234,-0.2346 -0.2101,-1.4177 -0.3414,-1.7388 -0.0968,-0.237 -0.7324,-0.705 -0.4836,-0.6129l1.3086 0.4846c1.2425,0.46 1.7089,-0.873 2.2188,-1.6391 0.2254,-0.3388 0.6109,0.9164 0.9387,-0.3278 0.1139,-0.4322 0.5315,0.1631 0.4267,0.3991 -0.1515,0.3408 -0.1439,0.5605 -0.0711,0.9407 0.2117,1.1054 0.6614,-0.1472 0.5262,-0.5559 -0.1451,-0.4388 -0.3271,-0.3805 -0.3271,-0.9264 0.1303,0 0.9138,-0.9204 1.337,-1.0262 0,0.6789 -0.4836,1.2254 -0.4836,1.9526 0,0.3004 1.4269,-0.9139 1.721,-1.0119 -0.0401,-0.161 -1.3063,-0.8475 -0.6116,-1.3825 0.3596,-0.277 1.0098,-0.231 1.0098,-0.8979 0.1683,-0.7682 0.0685,-1.7635 0.1139,-2.5655 0.0466,-0.8243 0.1194,-0.6103 -0.3271,-1.1972 -0.24,-0.3154 -0.8844,-2.0175 -1.5077,-1.5108 -0.3865,0.3143 -0.2682,-0.6409 -0.2418,-0.8836 0.0263,-0.2408 0.4908,-1.1619 0.6827,-1.2258 0,0.2945 -0.2149,0.6093 -0.0284,0.9122 0.1492,0.2421 0.6055,0.4141 0.8107,0.7126 0.2167,0.315 0.3975,1.2565 0.4409,1.6391 0.0828,0.731 1.3729,0.2142 1.4792,0.8551 0.0482,0.2904 0.1439,0.7482 0.2561,1.0262 0.1661,0.4119 0.0153,0.4704 0.5262,0.4704 0.1299,0.5196 -0.0944,1.5204 -0.4551,1.9241 -0.5143,0.5758 -0.5119,0.6683 -0.7681,1.3539 0,0.2406 0.0845,1.7286 -0.1564,1.7531 -0.1394,0.0141 -0.376,-0.1819 -0.4552,0.057 -0.2036,0.6146 -0.1895,0.5314 -0.6258,0.9692 -0.6928,0.695 -0.0426,1.1912 -0.1565,1.8956 -0.2613,1.616 1.6167,-0.3054 1.7922,-0.9549 0.2808,-1.0395 0.3744,-0.3317 0.9672,-0.8837 0.2878,-0.2681 0.4876,-0.5421 0.6969,-0.8836 0.1109,-0.1808 0.1924,-0.7254 0.3698,-0.7697 0.1047,0.1051 -0.0711,1.3936 -0.0711,1.6533 0,0.132 0.1136,1.6832 -0.1991,1.1972 -0.1588,-0.2467 -0.4806,-0.8576 -0.825,-0.7696 -0.4352,0.1113 -0.6088,0.091 -0.5831,0.5701 0.0205,0.384 -0.7975,1.0353 -0.4267,1.3682 0.4951,0.4447 0.3698,0.4319 0.3698,1.126 0,0.6612 -0.3851,0.084 -0.6401,-0.1568 -0.2603,-0.246 -0.3658,0.3002 -0.4694,0.4418 -0.2903,0.3963 -0.7586,0.1906 -1.024,0.3849 -0.3205,0.2348 -0.1274,0.9235 -0.2134,1.2684 -0.0836,0.3639 -0.3426,1.0262 0.2134,1.0262 0.3642,0 0.5486,0.4209 0.8249,0.4846 0.1818,0.042 1.0158,-0.7621 1.1806,-0.9549 0.1936,-0.2263 0.3915,-1.3112 0.6969,-1.3112 0.0436,0.1744 -0.0468,0.6268 0.1707,0.6841 0.6798,0.1794 0.4831,0.4374 0.9956,0.7411 0.3179,0.1883 1.3967,1.2217 1.4935,1.1687 0.2791,-0.1528 1.0311,0.6419 1.3796,0.7554 0.4544,0.1479 0.6255,-0.1005 1.0383,0.3136 0.4841,0.4858 1.1939,0.7109 1.6926,1.2114 0.471,0.4727 1.2241,0.5853 1.5219,1.183 0.1857,0.2418 0.6865,0.7174 0.9956,0.6556 0.0291,-0.1165 -0.4297,-1.4974 -0.5405,-1.525 -0.0699,-0.2806 -0.7396,-0.3446 -0.7396,-0.9692 0.265,0 0.8421,0.7274 1.3086,0.7554 0.3361,0.0202 -0.1692,-0.976 -0.2561,-1.1402 -0.1797,-0.3397 -0.041,-0.8413 -0.1422,-1.2257 -0.0707,-0.2684 -0.1796,0.4499 -0.4836,0.3563 -1.4616,-0.4505 -0.6916,-2.2181 -0.2418,-3.1213 0.2619,-0.5261 0.1312,-1.0338 -0.128,-1.525 -0.1,-0.1894 -0.272,-0.2512 -0.384,-0.4419 -0.125,-0.213 -0.0285,-0.5439 -0.0285,-0.7839 -0.0216,-0.1685 -0.3429,-0.4947 -0.2275,-0.5416 0.4675,-0.1899 1.3137,1.0039 1.721,0.1853 0.1353,-0.2718 0.0957,-0.5876 0.5262,-0.4846 0.7024,0.1682 0.7526,-0.8934 0.9815,-1.2827 0.1706,-0.29 0.073,-0.6577 0.1991,-0.9407 0.084,-0.1887 0.3745,0.0249 0.3698,0.0713 -0.0542,0.5348 -0.1881,0.9946 -0.1565,1.5535 0.0149,0.265 0.2084,1.0207 0.128,1.2257 -0.1516,0.3867 -0.2966,0.4735 -0.2702,0.9407 0.0129,0.2297 0.0825,0.6991 0.4409,0.4703 0.3919,-0.2503 0.4694,-1.8157 0.4694,-2.2946 0,-0.2614 -0.2686,-1.582 -0.2276,-1.6106 0.7959,-0.5541 -0.5919,-2.3911 -1.1094,-2.7792 0.3108,0 1.0193,0.1526 1.3228,0.2708 0.1943,0.0757 0.65,0.4331 0.8249,0.4133 0.0981,-0.0111 0.0013,-0.6577 0.1991,-0.7696 0.6657,-0.3765 0.4127,0.989 0.3414,1.3825 -0.1529,0.8441 -0.4471,2.6238 -0.1991,3.4206 0.0555,0.1783 -0.1666,0.6458 -0.0285,0.7839 0.2654,0.2654 1.4072,-1.02 1.5219,-1.3113 0.0338,-0.0858 0.1027,-0.8597 0.3129,-0.7553 0.2936,0.146 0.3501,0.6499 0.6543,0.1567 0.178,-0.2884 0.6436,-0.5729 0.7254,-0.8836 0.0152,-0.0577 0.004,-0.7793 0.1565,-0.5986 0.8864,1.0496 0.6304,-0.9536 1.5787,0 0.6858,0.7805 0.661,0.2543 1.5077,0.0427 0,-0.0288 -0.0077,-0.0212 0.0142,-0.0285 -0.0587,-0.1763 -0.9879,-0.7957 -0.4124,-0.7696 0.762,0.0345 0.5766,-1.1196 0.2133,-1.4538 -0.3001,-0.2759 -1.0952,-0.797 -1.0952,-1.2114 0.518,0 1.3368,-0.095 1.465,0.4275 0.1575,0.6424 0.0951,1.1824 0.6258,1.6676 0.2743,0.2509 0.4523,0.9692 0.953,0.9692 0.1961,0 0.1333,-1.2206 0.2134,-1.5251 0.0904,-0.3439 0.5245,-1.2949 0.2417,-1.6105 -0.489,-0.5459 -1.5,-0.6068 -2.0766,-1.0405 -0.2175,-0.1637 -0.856,-0.5473 -0.7253,-0.9121 0.07,-0.1953 0.4605,0.0381 0.5831,-0.4561 0.1651,-0.6649 1.2055,-1.6 0.825,-0.4133 -0.6463,2.0161 0.6545,1.9353 1.9059,2.8077 0.3532,0.2463 0.1707,0.712 0.1707,1.0547 0,0.4292 0.1773,0.5844 0.4409,0.8837 0.2014,0.2285 -0.2671,0.5895 -0.1422,0.7696 0.0601,0.0865 0.6493,0.0218 0.7965,0.057 0.4316,0.1032 0.2574,-1.2574 0.3555,-1.639 0.1909,-0.7431 0.4458,0.0524 0.5121,0.3706 0.1678,0.8059 0.353,0.5702 1.0525,0.6698 0.177,0.0251 0.8641,0.6127 0.825,0.7697 -1.1541,0 -0.6828,0.531 -0.6828,1.3397 0,0.724 0.2561,1.1776 0.2561,1.8528 -0.0897,0.1737 -0.0427,0.2545 -0.0427,0.4419 0,0.2153 0.1069,0.3179 0.2276,0.4703 0.18,0.2275 0.138,0.4697 0.2133,0.7554 0.0432,0.1643 0.2973,0.6843 0.4694,0.6414 0.0139,-0.1116 0.0785,-0.2143 0.0853,-0.3421 0.0106,-0.2005 -0.083,-0.585 0.0569,-0.7411 0.0813,-0.0908 0.3174,-0.0994 0.3556,-0.1568 0.1915,1.0252 -0.2599,1.9125 0.4409,2.8077 1.0504,1.3415 0.8305,-0.0859 1.0525,-1.0261 0.1519,-0.6431 0.3681,0.0627 0.569,0.0855 0.219,0.0248 0.1329,-0.7807 0.1564,-0.9264 0.0513,-0.3168 0.3129,-0.5329 0.3129,-0.8552 0,-0.353 -0.257,-0.6551 0.0285,-0.7981 0.088,-0.0441 0.3518,-0.6939 0.3982,-0.5131 0.1484,0.5772 0.213,1.0242 0.6685,1.4252 0.4118,0.3627 0.6121,-0.161 0.9246,-0.4988 0.2556,-0.2764 -0.2236,-0.8527 -0.2987,-1.2115 -0.0723,-0.3456 -0.2959,-2.4984 -1.1237,-1.6675 -0.4741,0.476 -0.5961,-0.2622 -0.7823,-0.6842 -0.133,-0.3016 0.0804,-1.4344 0.2134,-1.0689 0.2616,0.7192 0.9266,1.1531 1.3228,0.2423 0.2004,-0.4606 -0.1715,-1.5393 0.5973,-1.5393 0,0.9345 -0.2167,1.7562 0.1992,2.6367 0.277,0.5862 0.1768,1.7232 0.7111,2.1094 0.1389,0.1003 0.3017,0.5287 0.4552,0.5131 0.2619,-0.0266 0.1888,-1.9095 0.2418,-2.2376 0.0891,-0.5516 0.0699,-0.9935 0.3271,-1.4823 0.1269,-0.2414 0.1559,-0.5271 0.2845,-0.7554 0.1176,-0.209 0.1138,1.0992 0.1138,1.2542 0,0.5245 -0.3883,4.005 0.512,4.005 0.223,0 0.5632,-2.3716 0.5832,-2.7935 0.04,-0.8456 -0.1138,-1.5523 -0.1138,-2.3517 0.1209,0 0.4792,0.6186 0.5405,0.7412 0.2415,0.4842 0.4609,-0.0161 0.6827,-0.2993 0.2615,-0.3341 0.0097,-1.2976 -0.0285,-1.6961 -0.0727,-0.7565 -0.9103,-1.1919 -0.9103,-1.8386 0,-0.0937 0.7172,0.4601 0.7965,0.5131 0.5588,0.3731 0.4165,-0.4786 0.7254,-0.5558 0.0707,-0.284 -0.26,-0.7813 -0.1564,-1.1973 0.0176,-0.0058 0.0226,-0.0109 0.0284,-0.0285 0.3884,0 1.3857,1.519 1.0241,0.4704 -0.1038,-0.3013 -0.4988,-0.4475 -0.5974,-0.7697 -0.0763,-0.249 0.2089,-1.6439 0.5547,-0.7269 0.0661,0.1752 0.297,1.2596 0.5405,1.0832 0.1995,-0.1444 0.2349,-0.956 0.256,-1.2114 0.0222,-0.2697 0.1825,-0.2975 0.4125,-0.3136 0.2076,-0.0145 0.0569,0.9683 0.0569,1.1687 0,0.3195 0.1898,0.7066 0.1138,1.012 -0.9496,0 -0.6834,0.6441 -0.6401,1.411 0.0227,0.4018 0.2459,0.3781 0.569,0.2708 0.4279,-0.142 0.0629,-0.8155 0.2275,-1.126 0.1553,-0.2931 0.4529,-0.3226 0.5974,-0.7411 0.2014,-0.5828 0.1353,-0.9519 0.4409,-1.4965 0.245,-0.4368 0.0956,-1.1132 0.3699,-1.411 0.343,-0.3726 0.2133,0.805 0.2133,1.0404 0,0.3951 -0.4071,0.7076 -0.3414,0.9834 0.0542,0.2271 0.2256,0.5839 0.0854,0.8124 -0.1067,0.1741 -0.538,0.2391 -0.3272,0.5559 0.2268,0.341 0.5908,0.7523 0.7254,1.1259 0.0731,0.2027 -0.2419,0.4629 -0.1564,0.7982 0.034,0.1334 -0.0549,0.7411 0.0569,0.7411 0.1392,0 0.2646,-0.395 0.3129,-0.4988 0.1037,-0.2224 0.4697,-0.7134 0.3129,-0.0998 -0.0666,0.261 -0.1304,0.7513 0.3129,0.5843 0.4771,-0.3131 0.6935,-0.4995 0.825,-1.0546 0.064,-0.2699 -0.0275,-0.6839 0.0569,-0.9122 0.1429,-0.3868 0.6424,-0.1305 1.0098,-0.5416 0.1901,-0.2128 0.2107,-0.4184 0.2703,-0.6699 0.1704,-0.7195 0.0859,0.7081 0.256,0.8979 0.4675,0.5219 0.4165,-1.3276 0.4551,-1.4822 0.7219,0 -0.0965,2.0687 0.3698,2.0951 0.4001,0.0227 0.7947,-0.0583 1.1806,-0.1283 0.5655,-0.1025 1.6306,0.2577 1.7494,-0.3991 0.0978,-0.5402 -0.4265,-0.8214 -0.4551,-1.2969 -0.0384,-0.6402 0.5663,-1.6175 0.6258,-2.366 0.0397,-0.5003 0.0891,-0.4819 -0.3414,-0.5843 -0.3427,-0.0814 -0.4626,-0.454 -0.64,-0.5131l0 -0.057c0.6927,0 0.8477,0.0917 1.465,-0.114l0 -0.0428c0.0919,-0.0306 -0.1707,-0.6721 -0.1707,-1.0119l0.0142 -0.0143c1.1853,0 0.461,0.4209 0.697,1.3683 0.4117,0 0.9214,-1.3636 1.4081,-0.6557 0.207,0.301 0.3228,1.126 0.4409,1.126 0.9782,0 1.1376,0.7467 2.0908,0.3563 0.4474,-0.1833 -0.5898,-1.3767 -0.512,-1.9241 0.448,-0.5301 0.1991,-0.5311 0.1991,-1.0974 0,-0.4514 0.5001,-0.652 0.4836,-0.2281 -0.0116,0.2971 -0.1702,0.6837 -0.0427,0.9692 0.1075,0.2406 0.4452,0.0415 0.4267,0.3706 -0.0116,0.2061 -0.2179,0.3829 -0.1991,0.6128 0.0228,0.2797 0.3983,0.4477 0.3983,0.8837 0,0.1793 0.0175,0.5017 0.128,0.6128 0.0397,0.0398 0.2411,0.4266 0.3413,0.2994 0.2506,-0.3184 0.4059,-0.5987 0.5263,-0.9692 0.0532,-0.1635 0.0729,-0.7412 0.2418,-0.7412 0.2248,0.9027 1.0447,-0.0514 0.6827,-0.3278 -0.6375,-0.487 0.4199,-0.903 -0.0142,-1.411 -0.1393,-0.1629 -0.3153,-0.2847 -0.4409,-0.4561 -0.166,-0.2263 0.4056,-0.6841 -0.1138,-0.6841 -1.0637,0 -0.3414,-0.4552 -0.3414,-0.8409 0,-0.4232 -0.0569,-0.807 -0.0569,-1.1972 0.114,0.0284 0.3115,0.887 0.3698,1.0404 0.0678,0.1781 0.5267,0.258 0.697,0.2708 0.2704,0.0203 0.1061,-0.5095 0.3413,-0.6271 0.163,-0.0815 0.4063,0.065 0.5832,0.057 0.4674,-0.0211 1.2144,-0.5253 1.6783,-0.3705 0.4114,0.1374 -0.3043,1.4079 -0.0284,1.9098 0.2543,0.4628 -0.2694,0.3537 -0.3983,0.6129 -0.0582,0.1172 0.6828,0.167 0.6828,0.5131l0.4693 1.6105c0.2458,0 0.3063,-0.2391 0.569,-0.2993 0.1792,-0.0411 0.4841,0.0428 0.6827,0.0428l0.0142 -0.0143c0.0687,-0.2751 -0.7097,-0.6523 -0.5547,-1.3967 0.0371,-0.178 -0.1585,-0.6272 0.0711,-0.6272 0.2483,0 0.6476,-0.1582 0.825,-0.114 0.116,0.4658 -0.4045,1.8028 0.6116,1.5678l1.2943 -0.2993c0.4545,-0.1051 -0.0996,-0.3452 -0.0996,-0.6699 0.2079,-0.0689 0.5295,-0.1896 0.7396,-0.3135 0.3686,-0.2176 0.8243,0.3084 1.1237,-0.4276 0.4031,-0.9906 0.8305,-1.2622 1.4792,-1.9669 0.2737,-0.2972 1.1885,-1.7408 0.3983,-1.9383 0,-0.3586 1.4224,0.2399 1.4792,-0.5131 0.0275,-0.3657 0.4551,-0.337 0.4551,-0.6414 0,-0.3417 -0.0639,-0.7126 0.3983,-0.7126 0.1794,0.7201 0.1401,0.2796 0.7823,0.1995 0.2248,-0.0508 1.1955,-0.9489 1.337,-1.1544 0.1569,-0.2277 0.2369,-0.4682 0.3698,-0.6841 0.0801,-0.13 0.4338,-0.3778 0.4409,-0.3991 0.4415,0 1.0952,0.0019 1.0952,-0.5844l-0.0142 -0.0142c-0.3645,0 -0.7463,0.2247 -1.1664,0.1995 -0.4001,-0.0241 -0.1715,-1.0769 -0.4836,-1.4252 -0.3089,-0.3449 0.5099,-0.6919 0.3556,-1.3113 -0.028,0 -0.0325,0.0083 -0.0569,0.0143 -0.0999,0.3996 -0.6065,0.6689 -0.9529,0.7839 -0.2972,0.0986 -0.2775,-1.415 -0.3129,-1.7246 -0.0516,-0.4505 -0.2392,-0.3094 -0.4267,-0.5701l-0.441 -0.6129c-0.0359,-0.1438 -0.9405,-0.3557 -1.1094,-0.3135 0,0.1256 0.4498,0.6977 0.5405,0.8694 0.2315,0.4378 0.4999,1.0856 0.6258,1.5535 0.0717,0.2663 0.1946,1.0547 -0.3555,1.0547 0,-0.5024 -0.0933,-0.9333 -0.5405,-1.1972 -0.1949,-0.1151 -0.7135,-0.4506 -0.7681,-0.6699 -0.2174,-0.1916 -0.7199,-0.6893 -0.7823,-0.9407l-0.0426 0c-0.0586,0.1769 -0.1984,0.65 -0.1423,0.8124 0.2132,0.616 0.1448,0.9027 -0.0569,1.4823 -0.3893,1.1188 -0.6579,-0.9129 -0.6969,-1.0689 -0.1619,0 -0.7965,-0.189 -0.7965,0.057 0,0.7582 0.128,1.5581 0.128,2.3232 0,0.5945 0.0925,0.8573 -0.512,0.8266 -0.3105,-0.0157 0.0284,-1.0331 0.0284,-1.354 0,-0.6853 -0.1337,-1.5682 -0.4694,-2.1664 -0.133,-0.2372 -0.5642,-0.2633 -0.768,-0.4276 -0.1724,-0.1391 0.0711,-0.6292 0.0711,-0.8266 -0.4997,-0.1249 -0.953,-0.3534 -0.953,-0.9834 0.5182,0 1.9568,0.9369 2.3469,1.2827 0.4623,0.4096 0.6664,1.1483 0.7254,-0.0143 0.025,-0.4923 0.7196,0.2639 0.6116,-0.1567 -0.0836,-0.3252 -0.715,-1.2015 -1.0526,-1.297 -0.466,-0.1317 -1.0383,-0.7673 -1.0383,-1.2543 0.1538,0 1.4805,1.0559 1.6642,1.24 0.6535,0.6545 0.2356,-0.5884 0.2133,-0.7411 -0.0643,-0.4396 -0.1388,-0.5503 0.3272,-0.7411 0.3034,-0.1243 0.5055,1.1084 0.6258,1.3967 0.2539,0.6086 0.8717,-0.1396 0.9672,-0.4276 0.1385,0 0.2604,-0.057 0.384,-0.057 0.0073,-0.0219 -0.0004,-0.0142 0.0284,-0.0142 0.0073,-0.022 -0.0004,-0.0143 0.0285,-0.0143l0.0142 -0.0142c0,-0.2339 0.1991,-0.3246 0.1991,-0.5274 0,-0.3608 -0.256,-0.6243 -0.256,-0.9692 0.1475,0 0.2745,0.0285 0.4125,0.0285 0.0768,0.2315 0.227,0.5536 0.2845,0.7839 0.0634,0 0.1103,-0.0285 0.1564,-0.0285 0,-0.1306 0.0137,-0.402 -0.0142,-0.5558 -0.0264,-0.1461 -0.0139,-0.2428 -0.1138,-0.3563 -0.055,-0.0624 -0.1793,-0.0491 -0.1991,-0.1283 -0.0673,-0.0168 -0.0693,-0.0855 -0.1565,-0.0855 -0.056,0 -0.1564,-0.0568 -0.1707,-0.114 -0.0395,-0.0056 -0.0704,-0.0278 -0.0995,-0.0571 -0.0018,-0.0032 -0.0815,-0.1745 -0.1138,-0.1852l0 -0.0428c0.761,-0.1902 -0.3234,-1.8561 -0.5547,-2.2804 -0.198,-0.3634 -0.211,-0.8294 -0.4267,-1.2257 -0.1457,-0.2679 -0.3422,-0.1853 -0.6116,-0.1853 -0.3043,0 0.0574,-0.4069 -0.0142,-0.6129 -0.0569,-0.1635 -0.398,-0.2428 -0.5121,-0.3848 -0.2056,-0.2561 0.2622,-0.4741 0.2276,-0.8979 -0.0373,-0.4566 -0.1871,-1.4585 -0.4978,-1.7958 -0.3855,-0.4187 -1.1379,-1.153 -1.1379,-1.7531 -0.3931,-0.5715 -0.3221,-1.2542 -1.0098,-1.4253 -0.45,-0.112 -0.6135,-0.3017 -0.9672,-0.5558 -0.3069,-0.2206 -0.9998,0.2754 -1.5361,0.0998 -0.3931,-0.1288 -1.0952,-1.1681 -1.0952,-1.5963l0 0c-1.3388,0.0557 -1.2177,1.4232 -1.4801,2.1806 -0.2851,0.8229 -1.5171,0.9062 -1.7067,1.6676 -0.0262,0.0065 -0.022,0.0023 -0.0285,0.0285 -0.1181,0 -0.5783,-0.4933 -0.5973,-0.6271 -0.2526,-0.072 -1.6323,-1.8699 -1.8348,-2.1807 -0.5881,-0.9021 -0.9764,-1.5482 -1.3939,-2.5512 -0.2961,-0.7113 -0.5171,-0.9455 -1.0383,-1.468 -0.5084,-0.5098 -0.781,-1.6498 -1.1521,-2.3232 0.1706,-0.6242 0.4418,-0.5523 0.8819,-0.9264 0.3744,-0.3183 0.494,-0.7632 0.5262,-1.2542 0.0199,-0.3048 0.2031,-0.5033 0.256,-0.7697 0.7271,-0.4146 0.714,-2.4077 0.5405,-3.107 -0.2458,-0.9901 -1.541,-1.9272 -1.8927,-2.6649 -0.3103,-0.727 -0.3972,-1.4974 -0.3972,-2.295 0,-1.1769 0.9415,-0.6574 1.5503,-1.2685 0.4502,-0.4518 0.3424,-1.0255 0.4694,-1.5963 0.1459,-0.6552 0.8228,-0.7492 1.1663,-1.2257 0.4808,-0.6672 0.0428,-1.7293 -0.5689,-2.2092 -0.3323,-0.2606 -0.8767,-0.6932 -1.081,-1.0689 -0.146,-0.2683 -0.991,0.1882 -1.3228,0.2708 -0.3348,1.6741 -1.679,0.165 -2.5743,-0.1283 -0.3837,-0.1256 -0.7795,0.0376 -1.1663,-0.0712 -0.4885,-0.2805 -1.6058,-0.2545 -1.8633,-0.6414 -0.3408,-0.5123 -0.5409,-0.5848 -0.768,0.0998 -0.5588,0 -1.6858,-1.4511 -1.9913,-1.8814 -0.3044,-0.4289 -0.7988,-3.2913 -1.6214,-2.6225 -0.4782,0.3889 0.8924,1.5882 0.5831,1.7389 -0.8138,0.3965 -1.758,-0.7075 -2.4179,-1.069 -0.381,-0.2086 -0.8268,0.0889 -1.2232,-0.0427 -0.7181,-0.2384 0.0815,-1.1283 0.0996,-1.5108 0.0303,-0.6414 -0.2313,-0.995 0.2702,-1.4965 0.5339,-0.5339 0.2125,-1.0275 -0.2987,-1.3968 -0.3146,-0.2274 -0.1212,-0.5318 -0.1422,-0.8694 0,-0.354 -0.0492,-0.6477 -0.0142,-1.0119 0.0278,-0.2902 0.2767,-0.5148 0.3129,-0.7697 0.3215,-0.1607 0.5715,-0.6333 1.0098,-0.8266 0.2696,-0.1188 0.7405,-0.2049 0.6259,-0.6129 -0.2766,-0.9852 -1.6526,-1.5054 -1.8348,-2.4657 -0.1289,-0.679 0.0271,-1.2053 0.6969,-1.411 0.7485,-0.2298 1.5214,-0.8121 1.3939,-1.7103 -0.0276,-0.1947 -0.8139,-0.6116 -0.9887,-0.9491l-0.4829 -60.724 0.2342 -3.2474c0.041,-0.5356 0.2314,-1.5368 -0.0854,-1.9954 -0.3628,-0.5251 -1.3544,-0.8932 -1.9201,-1.1544 -1.2652,-0.584 -2.3015,-1.9689 -2.802,-3.2211 -0.2175,-0.1562 -0.2843,-0.6253 -0.5262,-0.7981 -0.1766,-0.4434 -0.5747,-0.8864 -0.8534,-1.2685 -0.0773,-0.1033 -0.258,-0.3935 -0.2845,-0.5131 -0.3779,-0.2714 -0.7643,-0.8269 -1.1805,-1.1545 -0.4294,-0.3381 -0.7486,-0.6474 -1.0809,-1.0832 -0.5113,-0.6708 -1.3786,-1.8087 -2.1051,-2.1949 -0.5636,-0.2995 -0.9774,-0.7293 -1.4934,-1.0262 -0.056,-0.2241 -0.7358,-0.6904 -0.9387,-0.7411 -0.3417,-0.478 -0.9124,-0.7403 -1.2517,-1.3255 -0.1773,-1.4234 -2.1903,-1.609 -3.2144,-2.3231 -1.1846,-0.8259 -2.6572,-0.9155 -4.1105,-0.7127 -0.8935,0.1247 -1.7908,-0.0765 -2.2046,0.9122 -0.2869,0.6858 0.2565,3.2149 -0.128,3.4349l-0.0142 0.0427c-0.5667,0.0809 -0.8717,-0.212 -1.5503,-0.0142 -0.576,0.1678 -1.0855,0.0625 -1.593,-0.2281 -1.2561,-0.8384 -2.1165,-0.6785 -3.1149,0.3991 -0.6988,0.7544 -2.7993,-0.1775 -2.3184,1.183 0.2501,0.7078 -0.1328,1.0593 -0.768,1.2114 -0.674,0.1613 -1.8755,0.7298 -2.4891,0.114 -0.5439,0 -0.5187,0.4135 -1.2089,0.1996 -0.6915,-0.2142 -0.5819,0.1532 -1.0525,0.2708 -0.048,0.0839 -0.1315,0.1601 -0.1992,0.228 -0.3651,0.2751 -0.5984,0.4468 -1.0667,0.3563 -0.4791,-0.0927 -0.7096,0.2285 -1.0952,0.3991 -0.7732,0.342 -1.5504,0.7972 -2.1903,1.4395 -0.2298,0.2306 -1.1361,0.3062 -1.1521,0.3706 -0.0746,0.0186 -0.4219,1.0156 -0.7681,0.4846 -0.1983,-0.3043 -0.6428,-0.5877 -0.896,-0.8837 -0.6816,-0.797 -1.6103,-0.2622 -2.1619,-1.2542 -0.3324,-0.598 -0.6423,-0.8429 -1.2943,-1.069 -0.556,-0.1929 -1.358,-0.6766 -1.7619,-1.0805 -0.0601,-0.0369 -0.0855,-0.0814 -0.0884,-0.0819l-0.0271 -3.2273 -0.057 -4.0763c-0.006,-0.4306 0.4836,-0.5217 0.4836,-0.8694 0,-0.2672 0.0409,-0.3841 0.0711,-0.6271 0.0584,-0.0419 0.168,-0.1704 0.2276,-0.1853 0.1773,-0.7092 -0.8528,-2.139 -1.5788,-1.411 -0.2507,0.2513 -0.5234,0.0838 -0.7965,0 -0.4429,-0.136 -1.0263,-0.707 -1.3654,-0.7554 -0.2925,-0.4103 -1.1021,-0.1293 -1.4223,-0.5273 -0.386,-0.4796 -1.0301,-0.3685 -1.5646,-0.1568 -0.4282,0.1697 -0.6854,-0.0703 -1.0447,-0.1466l-30.9189 45.2623 -2.4153 15.117c-0.0899,0.1549 -0.4205,0.7261 -0.5389,0.855 -0.3864,0.4204 -0.8283,0.273 -1.3085,0.5131 -0.0279,0.196 -0.4312,0.8276 -0.5405,1.0262 -0.4184,0.2391 -0.565,0.6054 -0.7965,0.9691 -0.1677,0.2633 -0.6429,0.1771 -0.7111,0.6556 -0.0152,0.0087 -0.1423,0.0784 -0.1565,0.0998 -0.7086,0 -1.1644,-0.0314 -1.6214,0.5701 -0.4175,0.5497 -0.8787,1.3456 -0.8107,2.0523 0.0416,0.4333 0.231,0.7531 -0.2418,1.0689 -0.7086,0.4731 -0.813,0.7672 -1.1663,1.5678 -0.3614,0.8192 -1.0096,2.0236 -0.8392,2.936 -0.2677,0.5373 -0.501,1.4584 -1.1094,1.6105 -0.0065,0.0261 -0.0024,0.022 -0.0285,0.0285 0,0.5389 1.1614,1.6347 1.5788,2.0096 1.1042,0.9916 0.4194,1.0238 0.1565,2.2803 -0.1366,0.6532 0.1791,1.2569 -0.6401,1.0405 -0.4276,-0.113 -0.5064,0.1881 -0.6258,0.5273 -0.339,0.9634 -1.5038,1.7245 0.2418,1.7245 0.5476,0 0.2265,0.9889 -0.3556,0.8979 -0.3234,0.1623 -0.4128,0.9622 -0.4978,0.9834 -0.0283,0.1139 -0.3421,0.1702 -0.3556,0.4561 -0.0165,0.35 0.1413,0.4949 0.2418,0.7839 0.1232,0.354 0.758,0.4324 0.6401,0.8551 -0.0401,0.1437 -0.5001,0.7855 -0.6401,0.8552 0,1.051 0.6621,0.6796 1.1948,0.3848 0.7863,-0.435 0.6445,0.8904 1.0098,1.1544 0.155,0.1119 0.7,0.4606 0.8534,0.4989 0.116,0.464 -0.4623,0.5199 -0.7254,0.7838 -0.3369,0.3377 -0.2418,0.7948 -0.2418,1.24 0,0.8993 -0.9822,1.9083 -1.6499,2.4229 -1.0229,0.5683 -3.1864,1.505 -3.4846,2.7222 -0.0858,0.3501 -0.303,0.8291 -0.6116,1.0262 -1.2801,0.8175 0.821,3.0095 0.0995,4.3327 -0.73,1.3386 -1.6473,1.1744 -2.9015,1.4252 -0.1185,0.2082 -0.3793,0.5319 -0.6116,0.5843 -0.4971,0.0994 -1.1169,0.5608 -1.3227,1.0262 -0.1841,0.4161 -0.9162,0.3102 -1.2801,0.3848 -0.8226,0.1686 -1.8478,2.1654 -2.4606,2.7792 -0.3234,0.3238 -1.5658,0.8202 -1.6214,1.2115 -0.4258,0.2121 -0.8196,1.625 -0.9388,2.0666 -0.1408,0.522 -0.6754,1.4155 -0.9956,1.8385 -1.1629,1.1694 -1.0667,1.8153 -0.0427,3.0643 0.6224,0.7593 0.9698,1.725 2.0055,1.81 0.3364,0.0276 -0.0512,1.0744 0.7254,1.2685l0 0.0285c0.0209,0.0139 0.0075,0.0146 0.0284,0.0285 0,0.2896 -0.2754,0.6876 -0.1138,0.9406 0.2155,0.3376 0.2772,0.4447 0.0569,0.8409 -0.3572,0.6426 -0.7155,1.4809 -1.2943,0.4561 -0.2757,-0.488 -0.7274,-0.6271 -1.2658,-0.6271 -0.7328,0 -1.0732,0.4403 -1.5219,-0.3563 -0.4834,-0.858 -0.4286,-1.5535 -1.6357,-1.5535 -0.7165,0 -0.6971,0.5345 -1.1663,0.8124 -0.7962,0.4718 -0.3936,0.3024 -0.6116,1.0546 0,0.5571 0.489,0.8608 0.5405,1.3968 0.0535,0.5574 -0.083,0.6655 -0.2987,1.1259 -0.4328,0.9241 0.5765,1.769 0.0427,2.6794 -0.2641,0.4503 -1.0933,0.1434 -1.0525,0.6842 0.0546,0.7251 0.5808,1.2305 -0.6543,1.5392 -0.128,0.5139 0.4166,0.7941 0.5263,1.2115 0.1275,0.4846 -0.8327,0.7369 -1.209,0.6698 -1.2805,-0.2283 -1.0818,-1.3691 -1.6783,-2.2661 -0.3341,-0.5026 -0.4598,-1.2327 -0.3129,-1.8528 0.1457,-0.6147 -0.9081,-1.4524 -1.4366,-1.6533 -0.4529,-0.1721 -1.2375,-0.1632 -1.5076,-0.5701 -0.4477,-0.6747 -0.7112,-0.6587 -0.7112,0.3136 0,0.6963 0.2512,1.4965 -0.8534,1.4965 -0.7612,0 -1.4892,-0.0945 -2.0819,0.0903l0 0z"/>
 </g>
</svg>
