<?xml version="1.0" encoding="UTF-8"?>
<!DOCTYPE svg PUBLIC "-//W3C//DTD SVG 1.1//EN" "http://www.w3.org/Graphics/SVG/1.1/DTD/svg11.dtd">
<!-- Creator: CorelDRAW -->
<svg xmlns="http://www.w3.org/2000/svg" xml:space="preserve" width="297mm" height="210mm" style="shape-rendering:geometricPrecision; text-rendering:geometricPrecision; image-rendering:optimizeQuality; fill-rule:evenodd; clip-rule:evenodd"
viewBox="0 0 297 210"
 xmlns:xlink="http://www.w3.org/1999/xlink">
 <defs>
  <style type="text/css">
   <![CDATA[
    .str2 {stroke:#2F3133;stroke-width:0.1}
    .str1 {stroke:black;stroke-width:0.1;stroke-opacity:0.501961}
    .str0 {stroke:black;stroke-width:0.1}
    .str3 {stroke:black;stroke-width:0.5}
    .fil5 {fill:none}
    .fil0 {fill:white}
    .fil2 {fill:#1F1A17;fill-rule:nonzero}
    .fil3 {fill:#C2C1C1;fill-rule:nonzero}
    .fil4 {fill:white;fill-rule:nonzero}
    .fil6 {fill:black;fill-rule:nonzero}
    .fil1 {fill:white;fill-rule:nonzero;fill-opacity:0.501961}
   ]]>
  </style>
 </defs>
 <g id="Plan_x0020_1">
  <metadata id="CorelCorpID_0Corel-Layer"/>
  <path class="fil0 str0" d="M280.168 119.069c-0.0074,-0.0119 -0.0148,-0.0237 -0.0232,-0.0349 -0.0136,-0.0958 -0.1259,-0.27 -0.1973,-0.3372 -0.1563,-0.1469 -0.3071,-0.0345 -0.4873,-0.0465 -0.1216,-0.008 -0.2101,-0.0502 -0.2669,0.093 -0.0308,0.0779 -0.0285,0.2605 0.0464,0.314 0.0378,0.0833 0.0851,0.1879 0.1335,0.2674 0.0584,0.0962 0.2105,0.1153 0.3133,0.0988 0.0514,-0.0083 0.1071,-0.0204 0.1566,-0.0348 0.0975,-0.0283 0.1335,-0.0581 0.2089,-0.1338l0.116 -0.186zm-54.7143 27.7084c0.2316,0.2977 0.3333,0.1533 0.557,0.3023 0.1733,0.1153 0.1364,0.4007 0.3365,0.4767 0.3851,0.1462 0.3513,-0.8649 0.6266,-0.4186 0.0823,0.1336 0.1158,0.6137 0.1624,0.7907 0.0443,0.1687 0.2592,0.6678 -0.0464,0.7442 0,0.3223 0.2669,0.556 0.2669,0.9302 -0.2753,0.1376 -0.5619,-0.0926 -0.7078,0.3837 -0.0563,0.1841 -0.0152,1.0681 -0.2089,0.9651 -0.172,-0.0914 -0.4307,-0.4303 -0.5802,-0.4303 -0.0375,0.1508 0.6541,0.9383 0.7775,1.1279 0.3119,0.4793 -0.0706,0.9768 -0.4294,1.3372 -0.1161,-0.029 -0.1822,-0.431 -0.2784,-0.5465 -0.1904,-0.2288 0.038,-0.3907 0.1508,-0.5814 0,-0.0489 -0.0116,-0.0981 -0.0116,-0.1395 -0.2033,-0.0508 -0.3291,0.1395 -0.5454,0.1395 -0.1941,0 -0.1376,-0.3372 -0.3481,-0.3372 -0.1408,0 -0.3376,0.0622 -0.4293,-0.0698 -0.087,-0.1254 0.0597,-0.3908 0.0928,-0.5232 -0.1178,0 -0.1652,0.1968 -0.3481,0.1628 -0.1587,-0.0294 -0.1473,0.0337 -0.116,0.2093 0.0444,0.2495 0.1896,0.4256 0.3133,0.6511 0.0828,0.1508 0.234,0.2591 0.3597,0.3721 0.229,0.2057 0.0232,0.5009 0.0232,0.7558 0,0.4179 -0.1456,0.7487 0.1392,1.0697 0.1643,0.1853 -0.3565,0.2056 -0.4061,0.2209 -0.125,0.0384 -0.2016,0.1249 -0.2785,0.2326 -0.7063,-0.3905 -0.3858,-0.5343 -0.1044,-1.0116 0.3931,-0.667 -0.2104,-1.4708 -0.4293,-2.0813 -0.0252,-0.0702 -0.3597,-0.8165 -0.3597,-0.5581 0,0.2408 0.3667,1.8242 0.232,1.9069 -0.4111,0.2527 -0.4885,-1.5668 -0.4525,-1.8488 0.0777,-0.6084 -0.0958,-1.3071 -0.0696,-1.9534 0.0179,-0.4435 0.3476,0.0972 0.7542,-0.1744 0.2866,-0.1915 0.6053,0.2305 0.731,0.4534 0.0485,0.0862 0.2372,0.8055 0.2553,0.7907 0.1875,-0.1529 0.0354,-0.4493 0.3829,-0.1977 0.1494,0.1082 0.2926,0.4945 0.3365,0.0349 0.0126,-0.1316 0.1276,-0.5197 0.058,-0.593 -0.4047,-0.4268 -0.3829,-0.1142 -0.3829,-0.7674 0,-0.4473 -0.7036,-0.6337 -0.9515,-1.0232 -0.1815,-0.2853 -0.1518,0.1209 -0.3713,0 -0.0848,-0.0466 -0.144,-0.1191 -0.232,-0.1628 -0.0566,-0.0282 -0.2266,-0.0183 -0.2437,-0.0698 0,0.0581 0.039,1.381 -0.116,1.0698 -0.271,-0.5442 0,-0.9877 0,-1.5116 0.0905,-0.2513 0.1995,-0.489 0.4757,-0.5581 0.1474,-0.0368 0.2979,-0.0723 0.4409,-0.1163 0.1081,-0.0332 0.2038,-0.0858 0.3017,-0.1512 0.2572,-0.1718 0.5201,-0.186 0.8239,-0.186 0,0.0736 -0.2449,0.2105 -0.3133,0.279 -0.0997,0.1 -0.1019,0.2942 -0.0116,0.407l0.174 0.1977zm-1.288 -5.6743c0.074,0.1381 0.1919,1.1832 -0.0116,1.0581 -0.27,-0.1658 -0.4156,-0.0356 -0.6498,-0.1395 -0.2493,-0.1105 -0.3886,-0.2442 -0.6846,-0.2442 0,0.1351 0.6488,0.7041 0.7659,0.8954 0.1239,0.2022 0.3662,0.3837 0.6149,0.3837 0.0391,-0.1571 0.0121,-0.4185 0.2437,-0.4419 0.3344,-0.0337 0.6534,0.0971 0.7426,0.4186 0.1043,0.3764 0.0861,0.4175 0.3017,0.093 0.1738,-0.2618 0.3517,-0.4089 0.2901,-0.7674 -0.0691,-0.4024 -0.2137,-0.8906 -0.4409,-1.2325 -0.136,-0.2048 -0.627,-0.3847 -0.6846,-0.6163 0.2704,0 0.2999,-0.0275 0.3365,-0.3488 0.022,-0.1931 0.1972,-0.4628 0.1972,-0.6279 0.0232,0 0.2347,0.5262 0.3133,0.1163 0.0701,-0.3661 -0.1374,-1.5158 -0.4525,-0.6395 -0.0583,0.1624 -0.4359,0.8484 -0.6614,0.7674 -0.3437,-0.1236 -0.1085,-0.25 -0.4177,-0.0116 -0.0617,0.0475 -0.3702,0.153 -0.2901,0.279 0.2747,0.4316 -0.0311,0.2254 -0.1509,0.4651 -0.0621,0.1243 0.0548,0.3356 0.0813,0.4419 0.0397,0 0.035,0.0173 0.0812,0l0.4757 0.1511zm-3.0169 -6.0928c-0.1216,-0.2262 -0.229,-0.4498 -0.2785,-0.7093 -0.0621,-0.325 0.5079,0.079 0.6847,0.1512 0.4583,0.187 1.0011,0.2 1.3227,-0.2325 0.1943,-0.2612 -0.1434,-0.3414 -0.3132,-0.3838 -0.17,-0.0424 -0.4642,-0.3341 -0.4642,-0.5232 0.1861,0 0.3636,0.0706 0.557,0.0814 0.2927,0.0165 0.6521,0.0007 0.8935,0.1744 0.1605,0.1156 0.3191,0.5438 0.4873,0.6279 0,0.0222 -0.0071,0.0287 0.0116,0.0349 -0.0287,0.1149 -0.358,0.104 -0.3133,0.279 0.156,0.6094 0.2531,0.0254 0.6034,0.221 0.1789,0.1 0.7707,0.7322 0.4641,0.9534 -0.1727,0.1247 -0.1211,0.4186 -0.3249,0.4186 -0.2231,0 -0.3922,0.1395 -0.5337,0.1395 -0.0266,0.1069 0.1275,0.2971 0.1392,0.4419 0.0113,0.1411 0.2204,0.2239 0.3481,0.2558 0,0.204 0.0051,0.6163 -0.3017,0.6163 -0.3186,0 -0.63,0.093 -0.9399,0.093 -0.3279,0 -0.4885,-0.9951 -0.5569,-1.3023 -0.0158,-0.0714 -0.0703,-0.6161 -0.2205,-0.5116 -0.1068,0.0742 -0.2236,0.2674 -0.3713,0.2674 -0.0649,0.1948 0.116,0.3728 -0.1276,0.5349 -0.0989,0.0659 -0.6769,0.2209 -0.7891,0.2209 -0.2778,0 -0.3133,-0.7807 -0.3133,-0.9883 0.1219,-0.0304 0.2573,-0.1517 0.3713,-0.1745 0.0079,-0.0555 0.0971,-0.3647 0.1277,-0.3953l-0.1625 -0.2907zm-5.7321 -7.4532c0.1838,-0.1449 0.4682,-0.2533 0.2205,-0.4535 -0.1549,-0.1251 0.2845,-0.4239 0.2321,-0.686l-0.0117 -0.0116c-0.1588,0 -0.2932,0.1284 -0.5221,0.1162 -0.1895,-0.01 -0.4667,-0.0893 -0.6382,-0.0465 -0.0052,0.0211 -0.018,0.0254 -0.0232,0.0465 -0.1259,0.0314 -0.607,0.4038 -0.4409,0.5582 0.4328,0.4026 0.4716,0.8576 0.7194,1.3836 0.1837,0.3902 0.6598,1.4547 1.0443,1.593 0.271,0.0974 0.4213,0.349 0.731,0.3721 0.0939,0.007 0.6493,-0.4211 0.7194,-0.1395 0.1451,0.0725 -0.1662,0.4063 -0.174,0.5116 -0.0182,0.2433 0.1637,0.186 0.3365,0.186 0.2685,0 0.4924,0.2887 0.7658,0.1279 0.3971,-0.2337 0.291,-0.4675 0.2089,-0.7558 -0.3622,-0.1448 -0.6471,-0.4767 -1.1024,-0.4767 -0.2874,0 -0.5696,0.0349 -0.847,0.0349 -0.2005,0 -0.2529,-0.3736 -0.3829,-0.4535 -0.3398,-0.2087 -0.5285,-0.0523 -0.6382,-0.5581 -0.0377,-0.1736 -0.1738,-0.6194 0,-0.6628 0.0328,-0.1314 -0.1585,-0.3212 -0.1973,-0.4767l0 -0.2093zm-10.6868 -75.1719c-0.2048,0.142 -0.4444,0.284 -0.6382,0.4418 -0.1348,0.1097 -0.2987,0.173 -0.4409,0.2791 -0.0446,0.0332 -0.2763,0.1817 -0.2901,0.2093 -0.1972,0.0246 -0.315,0.1545 -0.2437,0.3604 0.2882,0.8324 1.2076,0.2533 1.729,-0.093 0.2462,-0.1636 0.7689,-0.4281 0.789,-0.7674 0.0114,-0.1914 -0.0548,-0.2047 -0.1509,-0.3605 -0.0369,-0.06 -0.106,-0.1834 -0.174,-0.2093 -0.0765,-0.0292 -0.2238,0.0058 -0.2669,-0.0697l-0.3133 0.2093zm6.0155 -1.9883c0.0246,-0.0865 0.0512,-0.1662 0.0348,-0.2616 -0.0085,-0.0493 -0.0208,-0.1183 -0.0464,-0.1628 -0.021,-0.0364 -0.0605,-0.0466 -0.0812,-0.0756 -0.2761,-0.0306 -0.3693,0.1087 -0.4061,0.3604 -0.0238,0.1623 -0.0546,0.3433 -0.1044,0.5 -0.0305,0.0957 -0.2967,0.7417 -0.0523,0.6047 0.1305,-0.0732 0.1196,-0.2194 0.1915,-0.3314 0.0825,-0.1283 0.1724,-0.2853 0.2959,-0.3779l0.1682 -0.2558zm11.645 -13.3019c-0.0664,-0.1829 -0.1612,-0.3525 -0.2205,-0.5349 -0.0553,-0.1704 -0.1189,-0.4398 -0.2088,-0.593 -0.1712,-0.2915 -0.5082,-0.1873 -0.7426,-0.3255 -0.143,-0.0842 -0.3594,-0.1512 -0.5338,-0.1512 -0.2342,0.2928 0.2595,0.7442 0.2321,1.0814 -0.0341,0.4207 -0.4163,0.9919 -0.3365,1.4185 0.2035,0.2541 0.3191,-0.1105 0.5443,-0.1105l0.0116 0.0059c0.0411,0.0514 0.0506,0.2657 0.0638,0.343 0.0198,0.1151 0.0715,0.24 0.087,0.3488 0.0117,0.0117 0.0233,0.0146 0.0348,0.0233 0.1026,0 0.3746,-0.2259 0.4468,-0.3024 0.1652,-0.1753 0.4547,-0.2731 0.6382,-0.4302 0.0652,-0.0557 0.1143,-0.1203 0.1102,-0.2093 -0.0028,-0.0597 -0.0376,-0.1312 -0.0522,-0.1918 -0.0052,-0.0219 -0.0209,-0.1408 -0.0348,-0.1454l-0.0396 -0.2267zm-1.115 -8.1567c0,-0.1056 -0.0348,-0.2138 -0.0348,-0.3256 0,-0.12 0.0164,-0.251 0,-0.3662 -0.1261,-0.0504 -0.2781,-0.1091 -0.4061,-0.0291 -0.002,0.0143 -0.0102,0.0344 -0.0174,0.0465 0.0099,0.0165 0.0304,0.0944 0.0348,0.1163 0.0406,0.2004 0.0174,0.4156 0.0174,0.622 0,0.0636 -0.0139,0.1497 0.0232,0.2035 0.0627,0.0906 0.2011,-0.0347 0.2669,-0.0639l0.116 -0.2035zm-7.3207 42.0974c-0.0223,-0.0372 -0.051,-0.2062 -0.058,-0.2558 -0.0238,-0.0119 -0.1155,-0.1438 -0.1277,-0.1744 -0.2166,-0.0619 -0.3225,-0.6345 -0.0232,-0.7093l0.0116 -0.0116c0,-0.2093 -0.0914,-0.3825 -0.1044,-0.5698 -0.0159,-0.23 0.0232,-0.4535 0.0232,-0.6744 -0.0213,-0.0053 -0.0179,-0.0019 -0.0232,-0.0232 -0.0823,-0.0205 -0.1596,0.0089 -0.2437,0.0349 -0.1178,0.0363 -0.2613,0.025 -0.3829,0 -0.1812,-0.0372 -0.1922,0.0167 -0.3249,0.1395 -0.0786,0.0726 -0.2498,0.1143 -0.3481,0.1395 -0.1029,0.0263 -0.2344,-0.0581 -0.3481,-0.0581 -0.303,0.606 -0.348,1.0819 -0.0348,1.7092 0.1298,0.0798 0.1621,0.1274 0.2553,0.221 0.0459,0.046 0.0524,0.1266 0.1044,0.1744 0.1011,0.0927 0.3118,0.0586 0.4293,0.1279 0.0889,0.0525 0.1315,0.0936 0.1857,0.186 0.0651,0.1109 0.2212,0.2181 0.3481,0.2675 0.1484,0.0579 0.2548,0.1744 0.4293,0.1744 0,-0.2115 -0.1904,-0.365 -0.1392,-0.5698 0.1856,0 0.2516,0.2326 0.4757,0.2326 0.0215,-0.0865 0.0665,-0.1596 0.0116,-0.2558l-0.116 -0.1047zm69.2555 43.319l-0.6155 -0.0076 0 0c-0.0823,0.0664 -0.2241,0.0028 -0.2956,0.0476 -0.1093,0.0684 -0.177,0.1625 -0.2901,0.2442 -0.1887,0.1361 0.1242,0.1047 0.1741,0.1861 0.1317,0.2151 -0.3575,0.3604 -0.3365,0.5813 0.027,0.2826 0.6067,0.5396 0.5802,0.5698 -0.1238,0.1405 -0.31,0.2127 -0.4758,0.279 0,0.2124 0.0928,0.4033 0.0928,0.593 0.0489,0.0121 -0.0674,0.2693 -0.0464,0.3721 0.03,0.1461 0.0542,0.3488 -0.1508,0.3488 0,0.4206 0.4382,0.1865 0.3249,0.6279 -0.091,0.3542 -0.0419,0.6512 -0.4409,0.6512 0,0.8141 -0.0514,1.6491 -0.2553,2.465 -0.2052,0 -0.3347,-0.0433 -0.5338,-0.093 0,0.5089 0.4757,0.5527 0.0928,1.0232 -0.2619,0.3217 -0.2796,1.1061 -0.4641,1.5232 -0.1117,0.2524 0.3945,0.3296 0.3945,0.4884l0.0348 0c0.0777,-0.3121 0.2691,-0.6552 0.3597,-1 0.1299,-0.4938 0.2442,-0.9887 0.4294,-1.4883 0.2294,-0.5182 0.2029,-1.1277 0.3713,-1.6511 0.1174,-0.3652 0.3371,-0.984 0.3713,-1.3604 0.2317,-0.3103 0.3388,-1.3739 0.4177,-1.7907 0.1034,-0.5455 0.3144,-1.3567 0.2437,-1.8953 0,-0.2297 0.0085,-0.4699 0.0176,-0.7144l0 0zm-12.2394 32.5061l0.7335 -0.0827 0 0c0.0924,-0.1543 0.182,-0.3223 0.3141,-0.4309 0.3395,-0.5519 0.6196,-1.3361 1.0096,-1.8372 0.0603,-0.6646 0.9247,-1.4359 1.0095,-2.1162 0.1883,-0.1345 0.9656,-1.7987 0.9979,-2.0581 0.2866,-0.3276 0.4229,-1.2955 0.5917,-1.7325 0.1781,-0.4906 0.1815,-1.0495 0.3713,-1.5581 0.1571,-0.4208 0.2383,-0.8629 0.3481,-1.2906 0.0973,-0.3788 0.5044,-2.1844 0.7427,-2.3837 0.0618,-0.4947 0.4264,-0.991 0.5453,-1.4766 0.1081,-0.4412 0.3575,-1.0541 0.6034,-1.4302 0.2533,-0.9522 0.676,-1.8118 0.8819,-2.7441 0.1624,-0.7349 0.41,-1.5677 0.7078,-2.2441 0.1843,-0.4186 0.478,-0.8087 0.6614,-1.2209 0.055,-0.1235 -0.0596,-0.0878 -0.0812,-0.1744 -0.2209,-0.0552 -0.6636,0.9403 -0.8007,1.1627 -0.366,0.5933 -0.4472,1.2951 -0.6846,1.9302 -0.0979,0.1496 -0.1379,0.3328 -0.1972,0.5l-0.1857 0.5232c-0.0271,0.0767 -0.1176,0.3043 -0.1624,0.3605 0,0.6546 -0.3177,1.1781 -0.3714,1.8255 -0.3889,0.2307 -0.5656,1.217 -0.789,1.6395 -0.3841,0.7261 -0.125,0.8488 -0.9631,0.8488 0.2571,0.3213 0.0989,0.8457 0.0232,1.2092 -0.0763,0.3669 -0.2483,0.7546 -0.5221,1 -0.1346,0.1205 -0.3226,1.2142 -0.3946,1.4767 -0.0705,0.2574 -0.1475,0.6339 -0.2552,0.8604 -0.1509,0.3177 -0.0071,0.7466 -0.1509,1.0349 -0.3532,0.7075 -0.3104,1.5288 -0.8006,2.1976 -0.1711,0.2336 -0.214,0.3293 -0.4642,0.4767 -0.3389,0.1998 -0.34,0.5011 -0.8122,0.7093 -0.3663,0.1616 0.7903,1.1387 -0.0464,1.5581 -0.5099,0.2556 -0.9603,0.1116 -1.4388,0.4534 -0.0575,0.4038 0.1202,0.7182 0.0696,1.1628 -0.0431,0.3779 -0.0964,0.8313 -0.2437,1.186 -0.075,0.2026 -0.1422,0.4673 -0.247,0.6648l0 0zm9.7167 -32.3922l-19.9719 0 -16.0813 -0.6669 -5.8868 -91.9508 0.0723 -5.3017 0 0 -26.0603 0.1046 0 0c-0.2084,0.8398 0.8177,1.5758 1.1024,2.2441 0.2767,0.6497 1.1188,1.615 1.8217,1.7907 0.0062,0.0187 0.0278,0.0181 0.0348,0.0465 0.2458,0.0819 -0.3378,0.872 0.3017,0.872 0.1339,0.269 0.3204,0.1628 0.5802,0.1628 0.006,0.0243 0.0606,0.0788 0.0812,0.1047l0.4641 1.5464c0.2381,0.7932 1.4993,1.7696 2.0887,2.3604 0.2694,0.2699 0.4993,0.6556 0.7542,0.9535 0.3752,0.4383 0.9523,0.759 1.2764,1.2092 0.5214,0.724 -0.288,1.2866 0.6846,2.0116 0.352,0.2625 0.7021,0.2298 1.1139,0.3139 0.5681,0.1159 -0.0222,-0.6007 -0.0696,-0.7906 0.4117,0.1372 0.3162,0.5186 0.673,0.0232 0.0916,-0.1273 0.3135,-0.7558 0.3945,-0.7558 0.3819,0 0.2667,0.5612 0.1857,0.7442 -0.2011,0.4548 -0.0818,0.4756 0.3945,0.5814 0.5215,0.1009 0.9747,0.1489 0.9747,0.7906l0.0232 0c0.0071,0.0216 0.4201,0.152 0.3249,-0.0814 -0.1636,-0.4007 -0.113,-1.1156 0.1856,-1.465 0.2803,-0.3281 0.3193,-0.4865 0.7891,-0.5581 0.3672,-0.056 0.507,-0.3753 0.8122,-0.4535 0.2721,-0.0698 0.4177,0.0889 0.4177,-0.3256 0,-0.3978 0.2239,-1.0722 0.5802,-1.2558 0.1094,-0.0564 0.7078,-0.2277 0.7078,-0.0697 0,0.4987 -0.2171,1.0968 -0.5453,1.4534 -0.1603,0.1741 -0.1746,1.1163 -0.4874,1.1163 -0.0059,0.0178 0.0003,0.0116 -0.0232,0.0116 -0.0571,-0.2286 -0.4519,-0.2085 -0.3945,-0.0349 0.1432,0.4325 0.2052,0.9043 0.0348,1.3139 -0.165,0.3964 0.5144,0.3525 0.4177,0.5465 -0.2229,0.4475 -1.1639,0.0788 -1.0327,0.8023 0.1205,0.664 -0.4293,1.2045 -0.4293,1.8837 -0.119,0.3211 -0.3112,0.6435 -0.4061,0.9534 -0.1776,0.5803 0.2126,1.2911 -0.2553,1.7907 -0.2543,0.2714 -0.4954,0.428 -0.6614,0.7325 -0.4461,0.8186 0.4014,0.6603 0.673,0.1977 0.1751,-0.2984 0.2987,-0.1489 0.4873,-0.3837 0.1715,-0.2133 0.2012,-0.5394 0.2669,-0.8023 0.0966,-0.0241 0.2458,-0.0177 0.3365,-0.0582 0.1275,-0.0568 0.179,-0.2775 0.2785,-0.3023 0.0306,-0.092 0.299,-0.1048 0.3481,-0.3605 0.0564,-0.2942 0.0648,-0.2209 0.3249,-0.2209 0.0055,-0.0223 0.0125,-0.0294 0.0348,-0.0349 0.0646,-0.323 0.6331,-0.7197 0.9167,-0.7906 0.0742,-0.5211 0.5172,-0.4743 0.8935,-0.6279 0.6211,-0.2537 0.0824,-0.8877 0.1508,-1.1628 0.2493,-0.0623 0.1972,-0.0857 0.4641,-0.0116 0.1708,0.0475 0.3391,-0.2579 0.6962,-0.1395 0.455,0.151 0.3229,0.1629 0.8123,0.093 0.3545,-0.4674 0.4982,-1.1477 0.789,-1.6744 0.209,-0.3784 0.5729,-0.617 0.7891,-0.9534 0.2037,-0.3172 0.1023,-0.4334 0.4641,-0.5814 0.5597,-0.2291 0.4091,-0.4734 0.5454,-0.9186 0.0684,-0.2237 0.288,-0.3913 0.3829,-0.593 0.0731,-0.1552 0.2102,-0.4344 0.2553,-0.5697 0.1537,0 0.1007,0.3226 0.1276,0.4302 0.1887,0.0269 0.547,0.4053 0.4177,0.6163 -0.1191,0.1946 -0.6867,0.2855 -0.8935,0.3372l-0.0116 0.0116c0,0.1108 0.0929,0.1845 0.0929,0.3139 0.0057,0.1365 0.028,0.2294 0,0.3488 -0.0304,0.13 -0.0485,0.3256 -0.2205,0.3256 -0.0498,0 -0.1054,-0.0414 -0.1624,-0.0349 -0.044,0.0051 -0.1061,0.0233 -0.1509,0.0233 -0.0051,0.0154 -0.0154,0.0184 -0.0348,0.0232 -0.0123,0.1443 0.1355,0.6212 0.058,0.7093 -0.1466,0.1664 -0.1892,0.1318 -0.3713,0.2326 -0.182,0.1007 -0.1893,0.4015 -0.4293,0.4883 -0.1463,0.053 -0.4012,0.0771 -0.4874,0.2326 -0.2818,0.5077 0.1267,0.6826 0.5106,0.3256 0.2603,-0.2422 0.4158,-0.3838 0.7658,-0.3838 -0.0713,0.2866 -0.8898,0.4249 -0.8586,0.7675 0.015,0.1641 0.1044,0.3083 0.1044,0.4999 0,0.1303 -0.1681,0.0785 -0.2669,0.1279 -0.1337,0.067 -0.241,0.2433 -0.3481,0.2907 -0.1319,0.0585 -0.3339,-0.2956 -0.3597,0.0233 -0.013,0.1605 -0.6124,0.3427 -0.7774,0.3837 -0.156,0.0387 -0.3272,0.0532 -0.4874,0.093 -0.1622,0.0402 -0.3077,0.1572 -0.4525,0.1861 -0.3044,0.1633 -0.205,0.2281 -0.3597,0.6162 -0.2919,0.7325 -0.4125,0.6279 0.4641,0.6279 0.6014,0 0.8539,0.0336 1.3692,0.3256 0.2195,0.1243 0.3649,0.3617 0.5106,0.5581 0.2867,0.3867 0.615,0.0216 0.615,0.6511 0,0.37 0.4823,0.3023 0.7774,0.3023l0 0.0698c0.0801,0.02 0.1382,0.0465 0.2321,0.0465 0.0449,0.1803 -0.1045,0.3275 -0.1045,0.5116 -0.1678,0 -0.7477,-0.3154 -0.847,-0.4534 -0.1646,-0.2285 -0.4878,-0.0239 -0.6034,-0.3372 -0.1058,-0.2864 -0.3735,-0.469 -0.6614,-0.5582 -0.2984,-0.0924 -0.5433,-0.1845 -0.789,-0.3953 -0.2611,-0.2242 -0.381,1.0513 -0.9863,0.4884 -0.3746,-0.3485 -0.2922,-0.1396 -0.7078,-0.1396 -0.7925,0 -0.4917,-0.5635 -1.1952,0.2675 -0.5796,0.6848 0.2715,0.4499 0.4293,1.0813 -0.2166,0 -0.6941,-0.4844 -0.8818,-0.6279 -0.2822,-0.2159 -0.3264,-0.4109 -0.4526,0 -0.1256,0.4088 -0.7507,2.0302 -1.1023,2.1628 -0.263,0.1726 -0.6369,0.1335 -0.731,0.4999 -0.0645,0.2516 -0.3886,0.7018 -0.2205,0.814 0.2653,0.1773 0.5415,0.2895 0.4409,0.593 -0.3091,0.0441 -0.464,-0.401 -0.7194,-0.3372 -0.0053,0.0213 -0.0019,0.0179 -0.0232,0.0232 -0.0053,0.0213 -0.0391,0.0651 -0.058,0.0698 -0.0746,0.2984 -1.5989,0.6842 -1.8565,1.1279 -1.0945,1.8855 2.3893,0.5932 3.0053,1.2092 0.1379,0.1379 0.2438,0.7293 0.4641,0.6512 0.2218,-0.0785 0.2462,-0.314 0.5454,-0.314 0.2835,0 0.6616,0.1174 0.8702,-0.1163 0.1051,-0.1176 0.4889,-0.3139 0.6498,-0.3139l0.0116 0.0116c0.0078,0.0315 0.0352,0.0961 0.0696,0.1047 0.0725,0.5075 0.6342,0.0872 0.7543,-0.093 0.1704,-0.123 0.3247,-0.2617 0.4873,-0.3837 0,0.2984 0.2642,0.3792 -0.116,0.4883 -0.1349,0.0387 -0.263,0.3155 -0.4178,0.4186 -0.2404,0.1603 -0.191,0.062 -0.3945,-0.0581 -0.2598,-0.1535 -0.1357,-0.0003 -0.1856,0.1627 -0.067,0.2192 -0.116,0.3254 0.1856,0.2675 0.4661,-0.0896 0.7066,-0.1883 1.1488,-0.0349 0.2238,0.0777 0.2948,0.2847 0.5685,0.3372 0.3975,0.0764 0.7387,-0.0152 1.1024,0.186 0.0908,0.0503 0.1728,0.1148 0.232,0.1628 0.0389,0.0315 0.2313,0.1021 0.2321,0.1047 -0.2201,0.1941 -0.3442,-0.0582 -0.615,-0.0582 -0.3297,0 -0.7261,0.1752 -1.0443,0.0349 -0.3631,-0.1602 -0.3655,0.2723 -0.4641,0.5698l-0.0232 0c0,-0.1811 -0.3324,-1.206 -0.5802,-1.1163 -0.3406,0.1232 -0.3626,0.3488 -0.8123,0.3488 -0.385,0 -0.49,-0.6916 -1.1255,-0.5116 -0.3431,0.0971 -0.6743,0.6325 -1.0095,0.7442 0,0.1461 0.3871,0.491 0.2321,0.6976 -0.3455,-0.3455 -0.4642,-0.2092 -0.4642,-0.8371 0,-0.1685 -0.4884,-0.7675 -0.6382,-0.7675 -0.0066,0.0267 -0.0116,0.0384 -0.0116,0.0698 -0.1829,0.0609 -0.5713,0.4984 -0.8354,0.6163 -0.3041,0.1631 -0.6382,-0.0812 -0.9051,0.2209 -0.1162,0.1314 0.0256,0.4697 0,0.6511 -0.0785,0.5563 -0.4287,-0.5151 -0.6034,-0.5813 -0.1496,-0.0568 -0.6587,-0.1873 -0.5453,-0.4768 0.0149,-0.0383 0.4918,0.0349 0.5337,0.0349 0,-0.1979 -0.7921,-0.1977 -0.9166,-0.1977 -0.8744,0 -1.7252,-0.2325 -2.5992,-0.2325 -0.2051,0 -1.2972,-0.1691 -1.2416,0.0814 0.2009,0.9045 -0.6499,1.3082 -1.2416,1.6744 -0.5593,0.346 0.2206,1.0583 0.6382,1.1627 0.2027,0.8109 0.7883,0.7907 1.5549,0.7907 0.0107,0.0321 0.058,0.0232 0.058,0.0697l-1.2416 0.0349c-0.3963,0.011 -0.3816,-0.2522 -0.5453,-0.5465 -0.1207,-0.2171 -0.6961,-0.2322 -0.789,-0.0232 -0.0544,0.1223 -0.2604,0.1961 -0.1973,0.3721 0.0469,0.131 0.3945,0.0326 0.3945,0.2209 -0.1507,0.0376 -0.6929,0.3597 -0.615,-0.0233 0.0306,-0.1503 0.3121,-0.7911 0.0348,-0.8604 -0.0204,-0.0817 -0.6901,-0.1485 -0.8006,-0.093 -0.4235,0.1229 -0.6025,0.2047 -0.7426,0.6279 -0.1914,0.5785 -0.8082,0.1445 -0.8471,0.9185 -0.0254,0.5043 0.1967,0.2964 0.441,0.6047 0.1661,0.2098 -0.0233,0.3739 -0.0233,0.5813 0.179,0.0596 0.5024,0.1072 0.5222,0.3721 0.0141,0.1898 0.116,0.4793 0.116,0.593 0.0615,0.0205 -0.0731,0.6123 -0.1044,0.6279 -0.1204,-0.1605 -0.0574,-0.468 -0.2437,-0.6279 -0.1124,-0.0964 -0.442,-0.2951 -0.4757,-0.4302l-0.0232 0c-0.0058,-0.0174 -0.293,0.6001 -0.5222,0.8604 -0.0696,0.079 -0.0051,0.2697 -0.1276,0.314 -0.1023,0.0369 -0.5112,-0.2094 -0.5338,0.093 -0.0121,0.1623 0.1055,0.2812 0,0.4535 -0.2298,0.375 -0.2003,0.3111 -0.1392,0.7441 0.0425,0.3006 0.2938,0.433 0.3365,0.6047 0.086,0.0122 0.2116,0.22 0.2321,0.3023 -0.1157,0.0496 -0.7252,-0.319 -0.8123,-0.4302 -0.1302,-0.1665 -0.068,-0.8078 -0.1276,-1.0465 -0.0228,0 -0.0266,0.0067 -0.0464,0.0116 -0.0039,0.0117 -0.0294,0.0423 -0.0465,0.0465 -0.0994,0.2982 -0.4744,0.7761 -0.6381,1.1046 -0.2339,0.4696 -0.2722,0.9681 -0.4526,1.4651 -0.0368,0.174 -0.0995,0.3054 -0.174,0.4651 -0.0173,0.0373 -0.0403,0.0691 -0.058,0.1047 -0.0207,0.0414 -0.0146,0.0879 -0.0465,0.1279 0,0.0714 -0.0647,0.1795 -0.1044,0.2325 -0.2769,0.7257 -0.5787,1.5388 -0.9515,2.2092 -0.2298,0.4131 -0.7233,0.8742 -0.8586,1.2907 -0.154,0.4737 -0.8894,1.8516 -0.5338,2.3022 0.5849,0.7409 1.1425,-0.4448 1.2764,-0.8488 0.0631,0.2535 0.0967,0.2614 0.2321,0.4768 0.0954,0.1516 0.1276,0.3313 0.1276,0.5232 0,0.1186 -0.4607,-0.5011 -0.6034,-0.0698 -0.0642,0.1939 -0.342,0.2948 -0.0696,0.4768 0.123,0.0821 0.622,0.6554 0.7194,0.593 0.2541,-0.1626 0.2321,0.4975 0.2321,0.7092 0.0068,0.2113 0.174,0.3154 0.174,0.5 -0.1065,0 -0.1727,-0.1108 -0.2785,-0.1163 -0.2558,-0.0132 0.0242,0.2049 0.0697,0.314 0.3749,0.8984 0.7058,1.6614 0.7774,2.6394l0.0928 1.2674c0.0076,0.1043 -0.0158,0.3265 0.0348,0.4186 0.0481,0.0878 0.251,0.173 0.2669,0.2209 0.2278,0 0.1743,-0.1658 0.3017,-0.1976 0.0255,-0.1022 0.3627,0.1029 0.4641,0.0581 0.0488,-0.0216 -0.0713,-0.4782 0.0117,-0.686 0.1649,-0.4131 0.4709,-0.6635 0.4525,-1.1395 -0.0121,-0.3117 -0.0579,-0.7154 -0.1741,-1 -0.1317,-0.3229 -0.481,-0.057 -0.5801,-0.6046 -0.0277,-0.1529 0.02,-0.3789 -0.0465,-0.5116 -0.089,-0.1774 -0.2668,-0.1973 -0.2668,-0.4651l0.0116 -0.0116c0.4736,0 0.5979,0.9185 0.8122,1.1627 0.1311,0.1495 0.3021,-0.1434 0.4409,-0.0581 0.171,0.105 0.2219,0.7007 0.4062,0.7674 0.1022,0.0369 0.5,-0.5543 0.5453,-0.6628 0.1347,-0.323 -0.2509,-0.9534 0.1625,-0.9534 0.4285,0 0.5445,-0.1552 0.4409,-0.5698 -0.1344,-0.0336 -0.4153,-0.0329 -0.4293,-0.2209 -0.0207,-0.2767 0.5802,0.0797 0.5802,-0.2558 0,-0.3524 -0.2361,-0.462 -0.2669,-0.7093 -0.0733,-0.3672 -0.2589,-0.6458 -0.3249,-1.0465 -0.0339,-0.2058 -0.2437,-0.7777 -0.2437,-0.8837 0.3923,0 0.4966,-0.8255 0.5918,-0.8255 0,0.3412 -0.0972,0.5428 -0.1625,0.8721 -0.1197,0.6028 0.6085,2.6179 1.3344,2.2557 0.5883,-0.2936 0.8597,-0.7527 0.4062,-1.3255 -0.3654,-0.4617 0.1685,-1.0716 0.2552,-1.4186 0.0962,0 0.1741,-0.0465 0.2785,-0.0465 0.0957,0.2873 0.624,0.0465 0.8123,0.0465l0 0.0349c-0.169,0.0422 -1.1952,0.3246 -1.1952,0.4767 0,0.4181 -0.0134,1.0966 0.4873,0.9418 0.5686,-0.1759 -0.0422,0.5525 -0.1044,0.7675 -0.1556,0.5381 -0.2303,0.912 -0.789,1.0929 -0.2552,0.0827 -0.6517,0.1692 -0.5918,0.5 0.0344,0.1898 -0.5321,1.9582 0.2089,1 0.1767,-0.2286 0.425,-0.5953 0.731,-0.4535 0.6311,0.2927 0.408,0.0393 0.8818,-0.5116 1.0127,-1.1772 0.3642,1.1451 1.2648,-0.0349 0.1851,-0.2424 0.9891,-1.3148 1.2648,-1.3837 0.0376,-0.1505 0.6754,-0.3604 0.8471,-0.3604 0.0053,-0.0213 0.0203,-0.0301 0.0348,-0.0349 0,-0.3321 -1.0981,-1.4418 0.0464,-1.4418 0.522,0 1.8913,-0.3231 1.8913,-1.0232 0,-1.1572 -1.1439,-0.4265 -1.6244,-1.2674 0.1772,-0.2198 0.0893,-0.5917 0.2668,-0.8488 0.2522,-0.3655 0.3417,-0.9344 0.7195,-1.2093l1.6941 -1.2325c0.2512,-0.1828 0.4096,0.0639 0.6382,-0.2674 0.1934,-0.2801 0.2074,-0.6502 0.4409,-0.8837 0.3753,0 0.7769,0.372 1.1603,0.2441 0.3321,-0.1109 0.1994,-0.628 0.8123,-0.4651 0.2438,0.0647 0.5202,0.0162 0.7658,0.0814 0.4751,0.1263 0.5227,0.2929 1.1139,0.1977 0.1799,-0.029 0.3838,-0.0232 0.5686,-0.0232 0.2283,0 0.3901,-0.128 0.5918,-0.128 0.5784,-0.1051 1.2067,-0.2674 1.7869,-0.2674 -0.0356,0.1427 -0.637,0.4796 -0.7774,0.5465 -0.3219,0.1532 -0.8765,-0.2264 -1.0559,-0.0465 -0.1939,0.1946 -0.4276,0.6297 -0.7659,0.5349 -0.275,-0.0771 -0.4472,-0.1958 -0.6846,-0.3024 -0.0868,-0.039 -0.4074,-0.0152 -0.5221,-0.0232 -0.2709,-0.0188 -0.4088,-0.2424 -0.6498,-0.3256 -0.2758,-0.0951 -0.4078,0.0698 -0.6382,0.0698 -0.1842,0.7369 -1.2615,0.3871 -1.7521,0.6046 -0.0424,0.0188 -0.5059,0.5204 -0.5222,0.5698 -0.0316,0.0958 -0.0242,0.346 -0.1044,0.3953 -0.0941,0.0577 -0.3008,-0.1108 -0.4758,-0.0233 -0.7786,0.5933 -1.62,0.7768 -1.9377,1.7558 -0.1589,0.49 -0.4764,1.1511 0.3597,1.1511 0.4369,0 0.8804,0.1719 1.0211,0.6047 0.2173,0.6688 -0.6412,1.2441 0.3249,1.2441 0.3558,0 0.6311,0.1395 1.0327,0.1395 0.2595,0 0.5302,-0.0452 0.615,0.2093l-0.9515 -0.0349c-0.364,-0.0134 -0.5619,0.1273 -0.8355,0.3024 -0.0532,0.0341 -0.1837,-0.3489 -0.4989,-0.3489 -0.5239,0 -0.8269,0.3929 -1.288,0.5349 -0.3731,0.1148 -0.8371,-0.0868 -0.5454,0.3605 0.2815,0.4319 0.594,1.1714 -0.1972,1.3022 -0.5441,0.09 -0.8027,0.5048 -1.2416,0.7791 -0.3063,0.3878 -0.4891,0.6253 -0.7426,1.0813 -0.1694,0.3045 -0.5007,0.8347 -0.8819,0.6977 -0.1229,-0.0442 -0.7097,-0.2752 -0.7542,-0.1512 -0.2347,0.6544 -0.73,0.7892 0.4061,1.0814 0.1369,0.0352 0.7005,0.2679 0.7774,0.2442 0.7324,-0.2266 0.7936,-0.1626 1.4737,0.2674 0.3587,0.2267 0.6092,0.7186 0.7194,1.1162 0.0649,0.234 0.3836,1.0475 -0.0116,0.3372 -0.124,-0.223 -1.2845,-2.0966 -1.6825,-1.7673 -0.1195,0.0988 -0.2734,0.431 -0.4061,0.5813 -0.2966,0.3362 -0.2003,0.1569 -0.4874,-0.0348 -0.337,-0.2252 -0.4638,0.0437 -0.8818,-0.3256 -0.045,-0.0398 -0.7454,0.0694 -0.8239,0.1046 -0.1807,0.0812 -0.3154,1.1126 -0.174,1.3256 0.0299,0.045 0.3709,0.6743 0.116,0.4186 -0.1233,-0.1238 -0.4598,-0.2093 -0.6382,-0.2093 0.1879,0.2506 0.7516,0.6707 0.7774,0.9883 0.0033,0.0418 -0.5386,-0.2738 -0.8122,-0.1977 -0.2653,0.0737 -0.1666,-1.6106 -0.3365,-1.3953 -0.1746,0.2211 -0.6382,0.9156 -0.6382,1.186 0,0.3959 0.09,0.4435 0.3481,0.7326 0.146,0.1634 -0.2901,0.9531 0.0812,1.0813 0.2013,0.0694 0.2325,-0.1301 0.2553,0.1977 0.0163,0.2357 0.1929,0.4481 0.2205,0.6977 0.04,0.4682 0.1856,0.9034 0.1856,1.3487 0.1742,0 0.322,-0.4674 0.499,-0.5116 0,0.1572 -0.2967,1.0465 -0.4526,1.0465 -0.1921,-0.7687 -0.5448,-0.3154 -0.8586,0.0233 -0.3405,0.3677 -1.1602,1.2752 -1.6825,1.2441 -0.2294,-0.0137 -0.6994,0.3039 -0.9051,0.407 -0.3677,0.1845 -0.3286,-0.7069 -0.5802,-0.7907 0,0.1735 -0.0069,1.1287 -0.3016,0.7209 -0.2132,-0.2952 -0.2419,-0.3837 -0.5686,-0.3837 0,-0.0799 -0.0987,-0.7852 -0.2669,-0.4767 -0.2172,0.3986 -0.1496,0.7693 -0.6382,0.279 -0.1194,-0.1197 -0.0297,-0.4683 -0.0928,-0.5 -0.0301,-0.015 -0.3898,0.123 -0.5918,0.1047 -0.3783,-0.2607 -0.6104,-0.1449 -0.8354,-0.6046l-0.615 -1.2558c-0.0925,-0.1891 -0.2652,-1.3574 -0.4178,-1.3953 -0.0053,-0.0213 -0.0019,-0.018 -0.0232,-0.0233 -0.0383,-0.1533 -0.116,-0.2432 -0.116,-0.4302 0.0348,0 0.0464,-0.0232 0.0812,-0.0232 0.0059,-0.0179 -0.0005,-0.0117 0.0232,-0.0117 0.0048,-0.0194 0.0078,-0.0297 0.0232,-0.0348l-0.0348 -0.7558 -0.0116 -0.0117c-0.298,0 -0.7682,0.8617 -0.8818,1.1047 -0.3914,0.8375 -0.003,1.9711 -0.5918,2.6394 -0.3682,0.418 -0.3861,0.7134 -0.499,1.2209 -0.0742,0.334 -0.1797,0.159 -0.3829,0.2325 -0.1459,0.0528 -0.2078,0.3952 -0.3017,0.4186 -0.1418,0.57 -0.6517,1.1267 -0.7078,1.8023 -0.2175,0.751 -0.2434,1.8176 -0.3481,2.6046 -0.1479,1.1106 0.5207,2.9447 -0.2901,3.8254 -0.3084,0.3351 -0.649,1.9651 0.0232,1.9651 0.1142,-0.4588 0.302,-1.2496 0.7659,-1.5116 0.663,-0.3743 1.2558,0.287 1.462,-0.8488 0.0825,-0.455 -0.0398,-0.9293 -0.1276,-1.3721 -0.0574,-0.2898 -0.3365,-0.6721 -0.3365,-0.9302 0.2153,-0.1435 0.2425,-0.8536 0.0116,-1.0232 -0.142,-0.1042 0.3064,-0.8372 0.3945,-0.8372 0.0784,0.2366 0.3807,-0.1046 0.4989,-0.1046 0.0518,0.2073 -0.0601,0.4803 0,0.7209 0.7979,0.1994 0.4758,-0.5859 0.4758,-1.0581 0,-0.6763 0.3256,-0.7446 -0.3713,-1.093 -0.1935,-0.0998 -0.9314,-0.9238 -0.557,-0.8837 0.2919,0.0313 0.7616,0.3583 1.0211,0.5 0.368,0.2009 0.1119,-0.1698 0.0116,-0.3954 -0.097,-0.218 -0.1557,-0.3314 -0.0812,-0.5464 0.0441,-0.1276 0.0255,-0.3679 0.0928,-0.4651 0.032,-0.0461 0.1648,0.5902 0.1857,0.6627 0.1223,0.4223 0.4143,-0.351 0.4989,-0.3721 0,0.3578 -0.3398,0.7741 -0.2204,1.1628 0.1129,0.3674 0.3879,0.1393 0.2204,0.5814 -0.1019,0.2689 -0.4989,0.3139 -0.4989,0.4767 0,0.302 0.2801,0.3975 0.4177,0.6046 0.1943,0.2926 0.2479,1.0181 0.3017,1.3721 0.0246,0.1615 0.0759,0.384 0.2901,0.2093 0.1346,-0.1099 -0.4173,-1.3932 -0.1509,-1.8023 0.1278,-0.1961 0.2375,-0.3807 0.3017,-0.6046 0.1342,-0.4685 0.297,-0.1503 0.7542,-0.2907 0.1981,-0.0609 0.4724,-0.605 0.6034,-0.2093 0.0972,0.2938 0.1608,0.6074 0.2205,0.9186 0.1113,0.5802 0.0107,0.7335 0.6498,0.5813 0.6075,-0.1446 0.2613,-0.2518 -0.058,-0.5232 -0.8884,-0.7549 0.0692,-0.5229 0.174,-1.1744 0.0327,-0.203 0.1127,-0.8198 0.0116,-0.9999 -0.0295,-0.0525 -0.2012,0.1306 -0.2553,0.1511 -0.0902,0.0341 -0.2187,0.0698 -0.3132,0.0698 0.2641,-0.3521 -0.0518,-0.7219 0.3597,-0.6163 0.3196,0.0819 0.3792,-0.6071 0.7194,-0.3023 0.4512,0.4041 0.8528,-0.1598 1.1139,0.4302 0.1694,0.383 0.5106,0.8741 -0.1973,0.6163 -0.4533,-0.165 -0.5337,-0.9029 -0.5337,-0.1395 0,0.1993 -0.0597,0.8187 0.1624,0.8953 0.1295,0.0447 0.4901,-0.196 0.6382,-0.2442 0.2208,-0.0718 0.4849,0.0238 0.6846,0.093 0.3728,0.1294 0.0317,0.3835 0.1277,0.6395 0.1589,0.2887 0.2199,0.3111 0.5105,0.3837 0.0945,0.4743 -0.0496,1.1235 -0.0696,1.6163 -0.0078,0.1945 -0.0112,0.4793 -0.058,0.6627 -0.0196,0.0767 0,0.2071 0,0.2907 0,0.05 0.093,0.1737 0.116,0.1047 0.183,0 0.3964,-0.3256 0.557,-0.3256 0,0.2529 -0.2715,0.6449 -0.3249,0.9069 -0.0907,0.4456 -0.1576,1.0691 -0.1857,1.5116 -0.0261,0.4117 -0.174,0.7182 -0.174,1.1395l0.0116 0.0116c0.2005,0 0.5454,-1.3402 0.5454,-1.5232 0,-0.2311 0.2306,-0.2396 0.0348,-0.5116 -0.2345,-0.3255 0.5,-0.811 0.7426,-0.9185 0.2996,-0.1329 0.4968,-0.3224 0.4293,-0.6744 -0.0511,-0.2661 0.1925,-0.1987 0.2321,-0.5 0.0455,-0.3453 -0.0084,-0.7642 0.0696,-1.093 0.0328,-0.138 0.1383,-0.9302 0.2205,-0.9302 0.0028,-0.0086 0.436,-0.0493 0.3713,-0.3023 -0.0618,-0.2414 0.1508,-0.4241 0.1508,-0.6744l0.0348 -0.0117c0.1845,0.3571 -0.0464,0.592 -0.0464,0.9186 0,0.3116 -0.0801,0.2993 -0.3249,0.3605l-0.0116 0.0116 -0.0116 0.0116c0,0.2104 0.0291,0.3493 0.1161,0.5233 0.0921,0.1845 -0.1058,0.1967 -0.1625,0.3372 -0.0427,0.1061 -0.0456,0.6807 0,0.7325 0.1998,0.2267 0.5755,-0.1345 0.6498,0.1628 0.1264,0.0252 0.2387,0.0255 0.3713,0 0.1098,-0.021 0.2228,-0.115 0.3133,-0.1279 0.0889,-0.1778 0.3284,-0.2875 0.4757,-0.1396 0.0809,0.0811 0.2894,0.2644 0.3946,0.2907 0.0035,0.0106 0.0687,0.1016 0.0812,0.1047l0.0116 0.0116c0,0.0231 0.1168,0.1825 0.1276,0.1861l0 0.0232c0.0217,0.0072 0.0183,0.0605 0.0464,0.0698 0,0.0597 0.0232,0.1163 0.0232,0.1744 0.0213,0.007 0.0077,0.0368 0.0465,0.0465 0.0062,0.0249 0.0264,0.0265 0.0464,0.0465 -0.0348,-0.0116 -0.2205,0.2261 -0.2205,-0.0349 0,-0.1891 -0.2891,-0.6559 -0.4873,-0.6046 -0.1754,0.0455 -0.2275,0.1857 -0.3597,0.2674 -0.2045,0.1263 -0.8222,0.093 -1.0908,0.093 -0.1441,0 -0.2484,-0.0547 -0.3829,-0.0697 -0.1229,-0.0138 -0.2867,0.48 -0.1856,0.6046 0.2086,0.2573 -0.2229,0.3264 -0.2437,0.6046 -0.0122,0.1641 -0.2805,0.5971 -0.4525,0.5 -0.053,-0.03 -0.4317,-0.4904 -0.499,-0.4069 -0.1146,0.142 0.1888,0.4596 0.116,0.6627 -0.0558,0.1554 -0.2213,0.2761 -0.2784,0.4419 -0.0397,0.1156 0.1855,0.3703 0.232,0.5 0.0454,0.1268 0.3362,-0.349 0.3945,-0.3954 0.1711,-0.1359 0.2853,-0.0427 0.441,0.0349 0.0977,0.0486 0.1983,-0.3464 0.2204,-0.4186 0.0573,-0.1875 0.3315,-1.0439 0.5918,-0.8139 0.1695,0.1499 0.5711,-0.0767 0.8471,0.0465 0.2556,0.114 0.3525,0.2029 0.6498,0.2791 0.3463,0.0889 0.2451,-0.1014 0.5105,-0.2093 0.2195,-0.0893 0.9289,0.1505 1.0675,-0.0233 0.1407,-0.1766 -0.4873,-0.2736 -0.4873,-0.5814 0,-0.0542 0.2786,0.051 0.3597,0.0465 0.2984,-0.0167 0.0056,-0.3709 -0.0812,-0.4651 -0.0838,-0.0911 -0.2835,-0.2402 -0.2437,-0.3837 0.0952,-0.3434 0.1003,-0.2668 -0.0232,-0.593 -0.0898,-0.2369 -0.0219,-0.6118 0.1856,-0.7674 0,0.2147 0.0419,0.3856 0.0581,0.5814 0.1725,0.4611 0.2468,0.9526 0.3945,1.4069 0.1936,0.5957 0.1664,0.3837 0.6382,0.3837 0,0.2764 -0.4691,0.4396 -0.6614,0.6047 -0.3708,0.3182 -0.7416,0.183 -1.1256,0.279 0,0.0902 0.1055,0.1741 0.1277,0.2675 0.0835,0.352 -0.3296,-0.0831 -0.3945,-0.1279 -0.1523,-0.105 -1.0674,-0.5004 -1.1952,-0.3256 -0.0972,0.1331 -0.0479,0.333 -0.2901,0.1744 -0.3187,-0.2088 -0.673,-0.1948 -0.673,0.2442 0,0.0573 0.5362,1.8663 0.2785,1.5813 -0.2152,-0.2381 -0.46,-0.4134 -0.6962,-0.6162 -0.2096,-0.1798 -0.2871,0.5775 -0.673,0.686 -0.2957,0.0832 -0.396,-0.7907 -0.5106,-0.4884 -0.1121,0.296 -0.054,0.3602 -0.2552,0.6395 -0.2472,0.3434 -0.1565,0.6393 0.0116,0.9767 0.073,0.1467 0.2668,0.1646 0.2668,0.1745 0,0.1447 -0.1276,0.299 -0.1276,0.4767 -0.2496,0.7757 -0.5455,1.6751 -0.3481,2.465 0.1761,0 0.7597,-1.431 0.9863,-1.3023 0.1902,0.1079 -0.4735,1.0622 -0.557,1.1977 -0.1131,0.1833 -0.2544,0.5964 0.0697,0.6627 0.1809,0.0369 0.2244,0.4248 0.3597,0.5465 0.2038,0.1831 0.1672,-0.374 0.5221,0.0233 0.2632,0.2948 0.3075,0.2044 0.3945,0.6395 0.7759,0.1108 1.0815,-0.756 1.5201,-1.2325 0.1542,-0.1674 0.443,-0.1624 0.6498,-0.2209 0.3254,-0.0922 0.3546,-0.3633 0.4989,-0.6047 -0.1656,-0.2761 -0.0814,-0.7489 -0.1044,-1.0813 -0.0085,-0.1227 -0.1409,-0.6933 -0.058,-0.7209l0 -0.0233c0.0198,-0.0049 0.0236,-0.0116 0.0464,-0.0116 0.0856,0.257 0.1427,0.592 0.174,0.8837 0.0125,0.1163 0.0268,0.8772 0.0813,0.8953l0 0.0233c0.0789,0.0197 0.1002,-0.0117 0.174,-0.0117 0,0.8486 -1.4838,1.3963 -1.9726,2.0116 -0.2742,0.3453 -0.543,0.6157 -0.7078,1.0116 -0.4827,1.16 -0.7288,0.7454 -1.2532,-0.1047 -0.2935,-0.4757 -0.8222,-0.6755 -1.1603,-1.1046 -0.2451,-0.3112 -0.631,-0.5308 -0.8354,-0.8139 -0.0652,-0.0902 0.1862,-0.3411 0.116,-0.5698 -0.1061,-0.3451 0.4198,-0.5734 0.1972,-0.8255 -0.2492,-0.282 -0.5274,-0.616 -0.731,-0.9418 -0.0374,-0.0426 -0.2059,-0.2326 -0.2669,-0.2326 -0.0054,-0.0163 -0.078,-0.0232 -0.1044,-0.0232 -0.0229,0.0688 -0.3556,0.3207 -0.4641,0.3372 -0.3961,0.0603 -0.6421,-0.0956 -0.6614,-0.5465 -0.0056,-0.1314 -0.0328,-0.4613 -0.1277,-0.5465 -0.1023,-0.092 -0.2205,0.0116 -0.3249,0.0116 -0.0266,-0.1065 0.0441,-0.2461 0.0581,-0.3605 0.015,-0.122 -0.0116,-0.2145 -0.0116,-0.3255 -0.1531,-0.0382 -0.3113,-0.0582 -0.4874,-0.0582 -0.0622,-0.061 -0.1218,-0.1163 -0.174,-0.186 0,-0.2037 0.1025,-0.4096 0.2668,-0.5232 0.0709,-0.0491 0.1272,-0.1228 0.1857,-0.1861 0.0293,-0.0316 0.1246,-0.1301 0.1624,-0.1395l0.0116 -0.0233c0.0155,-0.0176 0.1224,-0.1134 0.1277,-0.1511 0.2386,-0.1369 0.1624,-0.4099 0.1624,-0.6047 -0.0985,-0.0739 -0.5916,0.6243 -0.6846,0.7326 -0.2768,0.322 -1.0676,1.2611 -0.9515,1.6976 0.116,0.4365 -0.4433,0.7655 -0.8122,0.6511 -0.3776,-0.117 -0.4942,-0.4346 -0.6382,0.0349 -0.1763,0.5747 -0.2514,1.0806 -0.3365,1.686 -0.0861,0.613 -0.4671,0.828 -0.6266,1.3721 -0.0594,0.2382 -0.0937,0.5734 -0.2669,0.7674 -0.1227,0.1373 -0.4129,-0.0814 -0.5801,-0.0814 -0.0143,0.0191 -0.0064,0.0176 -0.0232,0.0232 0,0.1333 0.3295,0.5817 0.4061,0.7558 0.1255,0.2849 -0.1751,0.2604 -0.3365,0.3605 -0.8226,0.51 -0.0704,1.8787 -0.2205,2.558 -0.1014,0.4593 -0.4293,0.7494 -0.4293,1.2674 0,0.2005 0.0352,0.361 0.0812,0.5465 0.0678,0.2736 -0.0219,0.4725 -0.058,0.7442 -0.2036,0.2318 0.0291,1.5975 0.2437,1.6511l0.2088 -1.1279c0.0962,-0.5195 0.1288,0.3181 0.1393,0.3837 0.067,0.417 0.7194,0.3583 0.7194,-0.0116 0,-0.7016 -1.0352,-1.4962 -0.615,-2.2674 0.0784,-0.1438 0.2613,-0.1877 0.3481,-0.3372 0.1807,-0.3115 0.731,-1.2654 0.731,-1.5581 -0.1886,0 -0.4314,-0.0504 -0.4757,-0.2674 -0.0503,-0.2459 0.7563,-0.3103 0.5453,-0.8255 -0.1457,-0.356 -0.2668,-0.9034 -0.2668,-1.2791 0.1062,0 0.2535,0.246 0.3713,0.1279 0.109,-0.1094 -0.0028,-0.7268 0.1392,-0.6395 0.2574,0.1581 0.4842,0.3147 0.7658,0.2209 0,-0.2629 -0.3212,-0.2434 0.0697,-0.3255 0.2952,-0.0619 -0.0713,-0.2707 -0.0348,-0.4535 0.0211,-0.0052 0.0253,-0.0181 0.0464,-0.0233 0.36,-0.0583 0.1619,0.1156 0.4525,-0.1976 0.2131,-0.2295 -0.0305,0.6271 0.3365,0.6976 0.6426,0.1236 0.5662,-0.6457 0.5106,-1.0116 -0.0199,-0.131 -0.5339,-1.0581 -0.0813,-0.6046 0.1933,0.1938 0.26,-0.1183 0.383,-0.1046 0.0553,0.0062 -0.0149,0.4481 -0.0233,0.5116 -0.0831,0.6256 0.0959,1.6046 -0.7542,1.6046 -0.4246,0 -1.1724,0.7233 -1.1951,1.1278 -0.0172,0.3078 0.144,0.5265 0.3017,0.7675 0.2762,0.4223 0.0923,0.9525 -0.0349,1.3371 -0.0495,0.1496 -0.0703,0.3955 -0.0348,0.5581 0.0498,0.2277 0.2056,0.0057 0.3365,-0.0348 0.1586,-0.0492 0.6458,0.5445 0.8587,0.6511 0.5437,0.2722 0.3961,0.019 0.174,-0.3837 -0.0678,-0.1229 -0.656,-0.8434 -0.4873,-0.9186 0.1527,-0.0682 0.5106,0.377 0.7426,0.3605 0.1218,-0.0087 0.014,-0.339 0.2321,-0.3954 0.4173,-0.1079 1.0308,-0.8765 0.3481,-0.6744 -0.4868,0.144 -0.7502,0.1059 -1.1139,-0.2325 -0.2203,-0.2049 -0.3356,-0.3195 -0.4526,-0.6163 -0.1136,-0.2885 0.7072,0.1256 0.9979,0.1628 0.6798,0.0872 0.4549,-0.3591 0.5686,-0.8139 0.327,0 0.2189,0.9678 0.8006,0.4418 0.4278,-0.3867 -0.0182,-0.5986 -0.3249,-0.8255 -0.5171,-0.3827 -0.9385,-2.431 -0.058,-2.6511 0,0.2809 -0.137,0.5767 -0.2088,0.8488 -0.1477,0.559 0.0429,0.2963 0.1508,0.4884 0.1216,0.2166 -0.0508,0.4897 0.1276,0.7558 0.2637,0.3932 0.8184,0.8762 1.114,0.3255 0.2836,-0.5282 0.305,0.2111 0.3481,0.4186 0.0609,0.2935 0.2917,0.5699 0.3829,0.8837 0.0999,0.3434 0.3382,0.3185 0.6034,0.3023 0.1294,-0.0079 0.2167,0.3101 0.3249,0.4186 0.3675,0.3681 0.721,0.3052 1.0211,0.7907 0.2497,0.4041 -0.3562,0.023 -0.499,0 -0.2619,-0.0421 -0.5145,-0.2869 -0.7542,-0.093 -0.4422,0.3579 -0.3583,0.1524 -0.731,-0.221 -0.202,-0.2025 -0.642,-0.3255 -0.9283,-0.3255 0,0.2761 0.4873,0.6685 0.4873,1.0464 0,0.1034 -0.2846,0.0088 -0.3365,0.0117 -0.2118,0.0118 -0.2204,0.3395 -0.2204,0.5 -0.219,0.7556 0.5441,0.9728 0.6846,1.5348 0.0198,0.0049 0.0236,0.0116 0.0464,0.0116 0,-0.1717 -0.1991,-1.3575 0.1973,-1.0348 0.1838,0.1495 0.6634,0.3291 0.8818,0.3837 0.008,0.0321 0.0232,0.0434 0.0232,0.0814 -0.0913,0.0304 -0.5105,0.1267 -0.5105,0.2674 -0.0616,0.0205 0.1404,0.1366 0.1044,0.2093 -0.0564,0.1136 -0.5348,-0.0032 -0.1973,0.3605 0.1751,0.1886 0.1503,0.3827 0.1393,0.6162 -0.0128,0.2738 0.5851,1.0057 0.8122,1.1744 0.2028,0.1508 0.1011,-0.1658 0.1509,-0.2791 0.3703,-0.8407 1.2817,-1.4909 1.1371,-2.5115 -0.0905,-0.6386 -0.1013,-0.464 0.2901,-0.2907 0.3401,0.1505 0.1447,-0.4001 0.2089,-0.5697 0.0423,-0.1116 0.2895,0.4528 0.3597,0.5232 0.1448,0.145 0.8624,0.2193 0.9166,-0.0233 0.102,-0.4568 0.0181,-0.6187 0.2669,-1.0697 0.1511,-0.2741 0.2561,-0.3235 0.3249,-0.6744 0.0097,-0.0494 0.1044,-0.4893 0.2321,-0.3721 0.6751,0.6202 0.6134,-0.133 0.8238,-0.6395 0.0546,-0.1345 0.2521,-0.4714 0.1857,-0.6046 -0.052,-0.1045 -0.1741,-0.2061 -0.1741,-0.3488 0.1081,0 0.1213,0.1011 0.2205,0.1162 0.0736,0.0111 0.1161,0.0349 0.1973,0.0349 0.0997,0 0.1241,-0.0499 0.2088,-0.093 0.1546,-0.0789 0.2873,-0.1558 0.4178,-0.2791 0.0419,-0.0395 0.1374,-0.1109 0.1508,-0.1511l0.0232 0c0,0.1809 -0.2004,0.4093 -0.3365,0.5116 -0.0942,0.0707 -0.2062,0.1445 -0.2901,0.2093 -0.0902,0.0695 -0.1069,0.1236 -0.1624,0.2209 0,0.2951 -0.1096,0.8997 -0.0232,1.1511 0.0859,0.2497 0.5479,0.1163 0.7426,0.1163 0.3065,0 0.3619,0.1274 0.058,0.2442 -0.3114,0.1198 -1.094,-0.1446 -1.288,0.0349 -0.3173,0.2934 -0.6294,0.1709 -0.905,0.3372 0,0.1295 0.1972,0.178 0.1972,0.3255 -0.3042,0.2028 -0.3306,0.5244 -0.2437,0.8721 0.3158,0 0.555,-0.2841 0.9283,-0.2674 0.2406,0.0108 0.3901,0.2071 0.6382,0.2209 0.1239,0.0069 0.5014,-0.0893 0.5802,0 0.2836,0.3209 -0.473,0.323 -0.6034,0.3953 -0.4185,0.2319 -0.4211,0.1674 -0.789,-0.0465 -0.1846,-0.1072 -0.6199,0.1258 -0.7775,0.3023 -0.2704,0.3027 0.4134,0.4367 0.3017,0.8837 -0.1923,0 -0.295,-0.2344 -0.4989,-0.093 -0.4485,0.3108 -0.5179,-0.3302 -0.8587,-0.4535 -0.1818,-0.0658 -0.3184,0.1559 -0.4061,0.2558 -0.0616,0.0703 -0.7629,0.1442 -0.5802,0.3489 0.2386,0.2671 0.2605,0.9435 -0.0348,1.186 -0.0995,0.2659 0.7306,1.1321 0.9747,1.186 0.3949,0.0871 0.5845,-0.2249 0.9399,-0.2791 0.3375,-0.0514 0.4282,-0.4126 0.6846,-0.4767 0,0.9436 -0.8497,0.9225 -1.5781,1.1046 0,0.1415 0.5497,0.9976 0.6266,1.3255 0.1507,0.6426 1.146,-0.2553 1.3808,0.5116 0.2507,0.8184 0.7003,-0.686 0.8819,-0.686 0,0.3577 -0.2669,0.6245 -0.2669,0.9651 0,0.4188 0.0428,0.8218 0.1392,1.2093 0.1506,0 0.3221,-0.7907 0.8007,-0.7907 0.3197,0 0.5849,0.0775 0.9283,0.0116 0.2831,-0.0544 0.0348,0.394 0.0348,0.5349 0,0.2719 1.025,0.572 1.2531,0.6744 0.7362,0.3304 0.513,0.7882 0.9167,1.3488 0.1825,0.2536 0.1772,-0.3753 0.499,-0.5l0.8702 -0.3372c0,0.4871 -0.8997,0.4468 -0.731,1.2906 0.1667,0.1608 0.4251,0.2666 0.499,0.4884 0.0371,0 0.053,-0.0113 0.058,-0.0465 0.2923,-0.1461 0.3014,-1.0757 0.9166,-1.2093 0.4829,-0.1048 0.8237,0.3255 0.9399,-0.4883 0.6915,-0.3457 0.3542,-0.953 0.1741,-1.4651 -0.1826,-0.5191 -0.0712,-0.8086 0.4061,-1.1046 0.2877,-0.1783 1.4135,-0.9868 1.5085,-1.279 0.0939,-0.2892 -0.026,-0.6046 0.0232,-0.8954 0.0479,-0.2838 0.3249,-0.559 0.3249,-0.8604 -0.2612,-0.1959 -0.8643,-0.5292 -1.1952,-0.6395 -0.0647,-0.2006 -0.2085,-0.3314 -0.2205,-0.5465 -0.0087,-0.1553 -0.0811,-0.2788 -0.116,-0.4186 -0.094,0 -0.2291,0.0956 -0.3481,0.1047 -0.2717,0.021 -0.6283,-0.0511 -0.7194,-0.3489 -0.0998,-0.3259 0.0955,-0.3068 0.116,-0.5813 0.0122,-0.1634 -0.3858,-0.4707 -0.4989,-0.6279 -0.2027,-0.2815 -0.5338,-0.4588 -0.5338,-0.8721 0.105,0 0.4854,0.2689 0.615,0.3372 0.345,0.1816 0.614,0.407 0.6962,0.8023 0.051,0.2456 0.0561,0.7442 0.3713,0.7442 0.2498,0.0241 0.5984,-0.036 0.6614,0.279 0.0702,0.0351 0.2517,0.1461 0.3133,0.1977 0.1806,0.151 -0.0219,0.5367 0.116,0.7442 0.1113,0.1676 0.4264,0.168 0.615,0.186 0.4848,0.0465 1.679,0.3338 0.731,0.8604 -0.3563,0.5179 -0.5086,0.6643 -0.3597,1.3953 0.1321,0.6481 -0.6033,0.8458 -0.6033,1.2791 0.162,0.0405 0.2251,0.4509 -0.0349,0.3837 -0.5879,-0.1522 -0.5021,0.0384 -0.6265,0.5465 -0.0591,0.2413 -0.1509,0.4686 -0.1509,0.7209 0,0.1992 0.292,0.1938 0.3133,0.279 0.085,0.0212 -0.1383,0.4243 -0.2089,0.4419 -0.0053,0.0213 -0.0019,0.0179 -0.0232,0.0232l0 0.0233c-0.0313,0.0104 0.0771,0.3852 0.0813,0.4651 0.018,0.3411 -0.1859,0.0937 -0.2089,0.186 -0.2412,0.0482 -0.0629,1.1046 -0.673,1.1046 -0.1935,0 -0.7253,-0.3603 -0.7426,-0.0697 -0.0528,0.8862 -1.3463,1.247 -2.0887,1.3953 -0.2316,0.2053 -0.4757,0.3125 -0.7542,0.093 -0.3448,-0.2719 -0.7038,-0.4417 -1.1023,-0.593 -0.1731,-0.0658 -0.3246,-0.1175 -0.4409,-0.2791 -0.0979,-0.1359 -0.1369,-0.2954 -0.2901,-0.372 -0.0312,-0.1256 -0.0302,-0.2718 -0.058,-0.3838 -0.1104,-0.0276 -0.1653,-0.0232 -0.2901,-0.0232 -0.2667,-0.151 -0.2005,-0.2058 -0.2669,-0.4651 -0.022,-0.0858 -0.0383,-0.1628 -0.1393,-0.1628 -0.0072,0.0218 -0.0497,0.0362 -0.058,0.0698 -0.1664,0.0416 -0.3484,0.2845 -0.4989,0.3953 -0.1609,0.1183 -0.4332,0.1744 -0.6266,0.1744 -0.0152,0.0456 -0.1125,0.0575 -0.0928,0.1744 0.0226,0.1335 0.0702,0.2919 0.0464,0.4303 -0.0575,0.3348 -0.2725,0.0018 -0.3249,-0.1396 -0.1121,-0.3029 -0.2545,-0.5106 -0.4758,-0.7325 -0.0952,-0.0954 -0.1526,-0.1994 -0.2436,-0.2907 -0.1332,-0.1334 -0.2991,-0.2185 -0.4294,-0.3488 -0.1808,-0.4921 -0.1886,-0.9136 -0.5917,-0.4419 -0.6044,0.7074 -0.7454,0.2643 -1.346,0.1047 -0.2088,-0.0554 0.1737,-1.1416 0.0812,-1.5116 -0.5091,-0.1272 -0.074,-0.3796 -0.3945,-0.6395 -0.2715,-0.2203 -1.6322,1.286 -1.845,1.5116 -0.7685,0.8143 -0.375,-0.1237 -1.2764,-0.1744 -0.5519,-0.0311 -0.789,0.2833 -0.789,-0.5931 0,-0.9201 -0.1543,-0.4534 -0.7194,-0.4534 -0.6584,0 0.0915,0.7766 -0.3713,0.9534 -0.1576,0.0601 -0.2198,-0.2314 -0.3829,-0.0349 -0.2638,0.3181 -0.5159,0.4389 -0.5918,-0.0581 -0.0441,-0.2886 -0.3313,-0.7125 -0.5686,-0.8837 -0.1527,-0.1103 0.1983,0.6419 0.2205,0.7209 0.0701,0.2483 0.1299,0.6355 0.3249,0.814 0.1549,0.1419 0.8478,0.2514 0.4061,0.5464 -0.6076,0.406 0.6754,0.9534 -0.1276,1.1512 -0.6791,0.1672 -0.3397,1.07 -1.056,0.6511 -0.0511,-0.0968 -0.2138,-0.6395 -0.3133,-0.6395 -0.0687,0.2749 -1.0139,0.3108 -0.4525,0.7093 0.4318,0.3066 1.3302,1.2017 1.4156,1.7325 0.033,0.2049 0.0583,0.3615 0.0116,0.5581 -0.0666,0.2806 0.1809,0.2241 0.2205,-0.0465 0.0941,-0.6414 -0.1566,-1.2047 0.0696,-1.8604 0.1925,-0.5577 0.1208,-0.6515 0.2785,-0.0349 0.1061,0.4152 0.2559,1.2203 0.499,1.5581 0.2018,0.2802 0.2301,-0.4899 0.232,-0.5465 0.0125,-0.3638 0.3294,-0.6881 0.4294,-0.9883 0.1399,0 0.1581,1.2002 0.3132,1.3953 0.0738,0.093 0.8898,-0.0555 0.9631,-0.1745 0.1508,-0.2444 0.0581,-0.8491 0.0348,-1.1395 -0.0442,-0.5508 0.0833,-0.2527 0.3133,-0.0813 0.3637,0.2712 1.1255,-1.0588 0.9863,-0.5349 -0.0529,0.1989 -0.4119,1.1316 -0.2785,1.1395 0.3585,0.0213 0.5043,-0.0732 0.8935,0.0465 0.804,0.2473 0.2478,-1.7108 1.5433,-1.279 -0.0461,0.1846 -0.5627,0.3691 -0.5802,0.7441 -0.0135,0.288 0.1857,0.6221 0.1857,0.9651 -0.1725,0 -0.2243,-0.2431 -0.4758,-0.0581 -0.3631,0.2673 -2.2345,0.2195 -1.6709,0.9186 0.104,0.1289 0.4423,0.9267 0.4874,0.9418 0.3092,0.1032 0.7253,-0.0233 1.0443,-0.0233 0,0.0626 -0.4779,0.4438 -0.557,0.5116 -0.417,0.358 -1.3295,-0.4849 -1.52,-0.8023 -0.3255,-0.5426 0.0714,0.8598 0.1392,0.9884 0.1174,0.2228 0.2037,0.8118 -0.1741,0.7906 -0.4768,-0.0267 -0.4644,-1.1278 -0.7078,-1.1278 -0.3908,0 -0.4107,0.9186 -0.4641,1.186 -0.0148,0.0037 -0.02,0.0079 -0.0348,0.0116 -0.1307,-0.3921 -0.2338,-1.7262 -0.7542,-0.7093l-0.6963 1.3605c-0.0224,0.0691 0.1161,0.4012 0.1161,0.5813l-0.0116 0.0117c-0.3312,0 -0.2481,-0.3244 -0.6034,0.1162 -0.2481,0.3078 -0.4806,0.5213 -0.6498,0.8605l-0.3945 0.7906c0,-0.4091 0.229,-0.9964 0.3365,-1.3953 0.1208,-0.4487 0.1461,-0.4968 -0.1276,-0.8023 -0.2331,-0.26 -0.2705,-0.1028 -0.5686,0.0465 -0.2898,0.145 -0.6022,0.2283 -0.9283,0.2907 -0.2786,0.0534 -0.4097,-0.1395 -0.673,-0.1395 -0.577,0 -0.0206,0.6033 -0.615,0.9186 -0.4332,0.2297 0.1407,0.7264 0.2901,1.0348 0.682,1.407 1.5388,2.8526 2.4019,4.1511 0.3845,1.0373 -0.0147,1.9222 0.7775,2.8254 0.0078,0.0313 0.0166,0.0407 0.0348,0.0698 0.0043,0.0529 0.0078,0.0582 0.0348,0.1047 0.0142,0.1846 0.0702,0.35 0.1508,0.5116l0.0348 0.0348c0.1548,0.0777 0.3282,0.0349 0.499,0.0349 0.4413,0.2216 0.5488,0.66 0.8354,1.0233 0.3336,0.423 0.6428,0.84 0.8123,1.3487 -0.0382,0.4206 -0.2519,0.6857 -0.1045,1.1163l0.4178 1.2209 0.0464 0c0.1802,-0.5438 0.4289,-1.2742 0.4873,-1.8837 0.0973,-1.0159 -0.6846,-1.6358 -0.6846,-2.5464 0,-0.2736 0.0308,-0.8233 0.1393,-1.0697 0.1312,-0.2982 -0.1698,-0.6522 -0.0116,-0.8721 0.042,-0.0583 0.589,0.1411 0.6382,0.2093 0.3215,0.445 -0.2505,1.75 0.1972,2.1511 0.1496,0.134 0.3894,-0.5575 0.4758,-0.6512 0.1338,-0.1449 0.9205,0.8213 1.1023,0.9535 0.2454,0.1785 0.6452,0.5943 0.7078,0.8953 0.0591,0.2837 -0.0239,1.0586 0.3829,0.7558 0.3131,-0.2329 0.4967,0.5601 0.6034,0.7907 0.1709,0.3697 0.1988,0.6057 -0.2205,0.3255 -0.339,-0.2264 -0.6939,-0.5166 -0.8934,-0.8836 -0.2535,-0.4666 -0.3851,0.4411 -0.8239,0.6162 -0.5163,0.2061 -0.2995,0.4733 0.2089,0.3488 0.8677,-0.2124 1.431,0.3095 1.961,0.8721 0.2071,0.2197 0.6729,0.0465 0.9398,0.0465 0.3581,0 0.2219,0.4509 0.3017,0.6512 -0.1047,0.2986 -0.3427,0.1372 -0.4177,0.4534 -0.0398,0.1676 -0.5444,0.8946 -0.2205,1 0.1751,0.057 0.554,-0.0581 0.7659,-0.0581 0.2207,0 0.389,0.1395 0.5801,0.1395 0.1381,-0.1841 -0.2615,-0.7718 -0.058,-1.1511 0.1113,-0.2073 1.6052,-1.1191 0.9979,-0.1628 -0.4802,0.756 -0.1148,0.686 0.4061,0.686 0.3606,0 0.0879,0.451 0.2785,0.593 0.1452,0.1083 0.4102,-0.067 0.5106,0.0581l0.4757 0.593c0.2166,0.2699 -0.1465,0.2962 -0.3017,0.407 -0.0753,0.6044 -1.3584,0.6288 -1.2067,0.8488 0.5385,0.7805 1.6154,-0.5365 1.9029,0.7558 0.11,0.4944 0.7497,1.3831 1.288,1.4302 0.3851,0.0336 1.2564,0.9035 1.3112,0.6395 0.0621,-0.2987 -0.6584,-1.2374 -0.847,-1.4999 -0.0811,-0.1128 -0.8183,-1.2117 -0.2437,-0.907 0.9427,0.5001 1.1741,-1.0607 0.673,-1.3488 -0.7103,-0.4082 0.674,-0.3246 0.5686,-1.0116 -0.0903,-0.5893 -1.8224,-1.9342 -1.7638,-2.1046 0.0381,-0.1111 0.3441,-0.1611 0.4526,-0.2209 0.2907,-0.1605 0.2804,-0.6379 0.6266,-0.7441 0.4137,-0.1268 0.5993,-0.39 0.9747,-0.6047 0.3789,-0.5314 0.5876,-0.6816 0.6381,-1.4069 0.0149,-0.2153 -0.1003,-0.3175 -0.0116,-0.5349 0.1274,-0.3119 0.3872,-0.6298 0.3365,-0.9883 -0.0348,-0.2455 -0.2597,-0.7231 0.2089,-0.4884 0.2632,0.1317 0.4436,0.2966 0.7194,0.4186 0.7108,0.3147 1.0466,0.0743 1.3112,0.9884 0.2316,0.8004 0.7192,1.9142 -0.0116,2.6162 -0.4736,0.4548 -1.0763,0.3496 -1.6361,0.5581 -0.4438,0.1654 -0.9437,0.3065 -1.3924,0.4186 0,0.0115 0.828,0.4625 0.9631,0.6046 0.2739,0.2879 0.3122,0.7405 0.4293,1.093 0.17,0.2642 0.4085,0.4087 0.5454,0.7209 0.2758,0.6286 -0.0846,0.6788 0.5453,1.1511 0.5649,0.4237 1.0607,0.7255 1.3693,1.3721 0.0587,0.1229 0.0097,0.3258 -0.1277,0.1279 -0.2784,-0.4007 -0.6309,0.284 -0.6962,0.5465 0.4008,0 1.7173,-0.4158 1.7173,-0.9186 -0.5835,-0.1458 -0.8234,-1.0045 -0.731,-1.5232 0.0369,-0.207 0.7811,0.037 0.8471,-0.686 0.0766,-0.8399 -0.1829,-1.7644 0.0464,-2.5581 0.088,-0.3046 0.5006,-0.4476 0.6614,-0.8139 0.0581,-0.1326 0.6122,-0.4703 0.731,-0.5 0,-0.4725 -0.0098,-0.7842 0.2553,-1.2093 0.2424,-0.1648 0.3346,-0.3632 0.6265,-0.4534 0.2886,-0.0893 2.2859,-0.7179 2.2859,-0.9419 -0.4109,0 -0.5512,-1.3551 -0.2436,-1.6627 0.1818,-0.1818 0.3814,-0.435 0.6265,-0.5116 0.275,-0.0859 0.4582,0.1628 0.6847,0.1628 -0.1518,-0.4582 -0.6901,-0.5067 -0.6498,-1.1279 0.0418,-0.6454 0.3487,-2.0561 1.1719,-1.8023 0.4884,0.1506 0.6507,-0.0929 0.6962,-0.593 0.0567,-0.6218 -0.314,-0.2673 -0.673,-0.6279 -0.3389,-0.1532 -0.4373,-1.1949 -0.0348,-1.3604 0.2685,-0.1105 0.8659,-0.063 1.0675,-0.3139 0.1656,-0.2059 -0.951,-0.8337 -0.232,-1.7093 0.3598,-0.4381 0.7593,-0.4039 1.2879,-0.4999 0.334,-0.0607 0.6299,-0.4273 0.8355,-0.6861 0.1578,-0.1988 0.4235,-0.3139 0.6846,-0.3139 0.3147,0 0.9235,-0.5516 1.0095,-0.8488 0.1494,-0.5164 -0.2952,-0.6416 -0.2089,-0.9884 0.2489,-0.0622 0.6372,-0.5232 0.7891,-0.5232l0.0116 0.0116c0,0.5606 -0.1793,1.1095 -0.4642,1.593 -0.1867,0.3167 -0.3485,0.8335 -0.7542,0.9186 -0.7701,0.1617 -0.8703,0.4247 -1.4504,0.8837 -0.2996,0.2371 -1.2227,0.5855 -1.6013,0.6395 -0.0597,0.1045 -0.0976,0.0967 -0.0696,0.2093 0.316,0.0632 0.7465,0.9675 0.5569,1.2906 -0.1864,0.3174 -0.9387,0.5464 -1.2647,0.6279 -0.1308,0.5234 -0.186,0.6942 0.3481,0.8139 0.7151,0.1604 0.5197,0.4415 0.4757,1.1047 -0.1497,0.3575 -0.3101,0.4926 -0.6614,0.6395 -0.2031,0.085 -0.7491,0.0154 -0.8006,0.0465 0,0.3804 -0.1369,0.8032 -0.2901,1.1511 -0.221,0.502 1.2426,1.3329 0.7658,1.7558 -0.1831,0.1625 -0.2582,0.4005 -0.5221,0.3372 -0.3285,-0.0789 -0.8856,-0.1828 -1.2184,-0.0466 -0.0681,0.0278 0.5592,0.814 0.6614,0.9768 0.1418,0.2261 -0.0975,1.1931 -0.2437,1.4301 -0.0265,0.0431 -0.5175,0.2255 -0.6382,0.3372 -0.2646,0.2446 -0.2956,0.3416 -0.3713,0.7209 0.035,0.3867 -0.063,0.5856 -0.3713,0.3024 -0.2504,-0.2299 -0.6088,1.0267 -0.7078,1.1976 -0.33,0.57 -1.0611,1.3956 -0.8006,1.9883 0.1574,0.3579 0.0252,0.7053 -0.0929,1.0465 -0.0876,0.2529 -0.6034,0.5955 -0.6034,0.7558 0.3429,0.1143 0.4117,1.1202 0.5106,1.4185 0.1397,0.4215 0.4363,0.8525 0.5338,1.2442 1.3293,0.3323 0.2383,-0.3907 0.8934,-1 0.2657,-0.2472 0.1938,-0.7879 0.557,-0.8139 0.5297,-0.038 0.1856,0.3161 0.1856,0.779 0.3084,0 0.4466,-0.3156 0.8935,-0.2093 0.4028,0.0959 0.4833,-0.872 0.9979,-0.872 0.7167,0 0.7551,-0.4502 1.4621,-0.0582 0.2087,0.1282 0.5767,0.2668 0.8006,0.1047 0.1314,-0.0952 0.3924,-0.6861 0.4177,-0.6861 0.3045,1.2235 -0.8815,1.2057 -1.6941,1.1395 -0.3903,-0.0317 -0.9225,0.4061 -1.2184,0.6279 -0.1274,0.0956 -0.8825,0.6884 -0.905,0.7791 -0.0395,0.0098 0.1141,0.3891 0.1508,0.4418 0.0608,0.0876 0.3386,-0.0999 0.3945,-0.1395 0.4848,-0.3442 0.9833,-0.0349 1.4853,-0.0349 0.0364,-0.1459 0.3615,-0.8397 0.4293,-0.3139 0.0305,0.2362 -0.0186,0.7054 -0.3133,0.779 -0.0605,0.242 -0.0453,0.721 -0.3597,0.4302 -0.2748,-0.2541 -0.4496,0.122 -0.6382,0.2442l-1.1487 0.7442c-0.1108,0.0717 -0.2916,0.3502 -0.4178,0.3604 -0.1792,0.0144 -0.3353,-0.0632 -0.5337,-0.0349 -0.0259,0.1042 -0.2532,0.5519 -0.3713,0.5814 -0.0819,-0.0819 -0.2078,-0.7411 -0.2553,-0.8837 -0.0717,0 -0.0906,0.0005 -0.1508,0.0349l-1.5549 0.6744c-0.5247,0.2275 -0.7037,0.3372 -1.2996,0.3372 -0.501,0 -0.39,0.0859 -0.6498,0.407 -0.5037,0.6226 -0.6262,0.6117 -0.1044,0.9999l1.1719 0.8721 0 0.0232c-0.3631,0 -0.7619,-0.1819 -1.0095,-0.4302 -0.3209,-0.3216 -0.2639,-0.3167 -0.3133,0.0698 -0.072,0.5642 -0.2362,1.1424 -0.4293,1.6744 -0.2079,0.5731 0.2266,0.6828 0.2785,1.0464 0.1171,0.0167 0.2584,0.1111 0.3597,0.1279 0,0.2966 0.0403,0.8064 0.1276,1.0698 1.0708,0 -0.0464,-0.7555 -0.0464,-1.2907 0.2586,0 0.534,-0.1395 0.7658,-0.1395l0.0117 0.0116c0,0.0774 -0.0605,0.6152 0.0812,0.5349 0.1778,-0.1006 0.3359,-0.3512 0.5569,-0.3954l0 -0.0232c0.0423,-0.0141 -0.4312,-0.598 -0.5105,-0.7209 -0.4678,-0.7255 -0.0988,-0.6415 0.3713,-0.4884 0.654,0.2129 0.466,-0.1744 0.9167,-0.1744 0.0047,0.0142 0.0089,0.0186 0.0232,0.0233 0,0.1139 0.069,0.3703 0.1044,0.4767 0.1122,0 0.7119,-0.3445 0.9051,-0.407 0.5519,-0.1788 0.9475,0.0875 1.0327,0.6047 0.0094,0.0571 0.1747,0.4523 0.1856,0.1976 0.0276,-0.6444 0.2767,-0.3372 0.7659,-0.3372 0.4913,0 0.3035,-1.077 0.4061,-1.4767 0.0967,-0.3764 0.2437,1.1009 0.2437,1.3372 0.3494,0 0.3487,-0.0831 0.4409,-0.3837 0.0276,-0.0899 0.1022,-0.3953 0.2205,-0.3953 0.028,0 0.1444,0.2362 0.3017,0.2558 0.2668,0.2673 0.6181,0.2141 0.9282,0.0348 0.1886,-0.1091 0.5355,-0.1581 0.2089,0.0349 -0.1256,0.0741 -0.59,0.2219 -0.1508,0.2558 0.4415,0.034 0.3565,0.5484 0.963,0.1744 0.1644,-0.1014 0.1038,-0.2422 0.1161,-0.4069 0.008,-0.1083 0.1565,-0.1178 0.232,-0.1512 0.2213,-0.0982 0.1955,-0.5062 0.499,-0.5348 0.7781,-0.0733 0.9658,-0.3979 1.5084,0.3255 -0.2338,0 -0.7055,-0.5201 -0.8238,-0.1628 -0.064,0.1936 -0.71,0.2332 -0.731,0.4419 -0.0736,0.7306 0.0007,0.8707 0.7542,1.0581 0.285,0.0708 0.4817,0.1101 -0.0348,0.186 -0.1833,0.0269 -0.3901,-0.1049 -0.557,-0.0581 -0.2195,0.0615 -0.5142,0.3765 -0.615,0.0465 -0.1083,-0.3542 -0.2521,-0.1951 -0.3481,0.0581 -0.2536,0.6692 -0.4679,0.2796 -0.6033,-0.1627 -0.1323,-0.4325 -0.5208,0.4562 -0.557,0.5813 -0.1515,0.5238 -0.4062,-0.3328 -0.5106,-0.4883 -0.1025,-0.1528 -0.4103,0.3257 -0.5917,0.4302 -0.298,0.1718 0.0464,1.0534 0.0464,1.4418 0,0.1836 -0.1509,0.2592 -0.1509,0.4186 0,0.1501 0.1741,0.1897 0.1741,0.3372 0,0.2253 -0.0176,0.0698 -0.1625,0.0698 -0.0857,0 -0.4471,0.3614 -0.4989,0.1744 -0.051,-0.184 0.1174,-0.5609 0.1508,-0.7558 0.036,-0.2096 0.0337,-0.5231 0,-0.7325 -0.0348,-0.2169 -0.1236,0.159 -0.2436,0.279 -0.2113,0.2113 -0.369,0.3667 -0.5106,0.6512 -0.2493,0.4024 -0.2083,0.2094 -0.5221,0.4185 -0.1809,0.1206 0,0.1944 0,0.3721 0,0.3152 -0.3777,0.0077 -0.1045,0.4535 0.1641,0.2676 0.3945,0.496 0.3945,0.8139l-0.0116 0.0117c-0.0748,0 -0.4556,-0.3534 -0.6614,-0.3954 -0.4896,-0.0999 0.3384,0.7398 0.1277,1.0814 -0.116,0.1882 -0.1138,0.473 0.174,0.4883 0.2515,0.0133 0.5492,-0.2851 0.6962,-0.4651 0.1457,-0.1782 0.945,-0.3396 1.1372,-0.2209 0.4238,0.262 0.6801,-0.2527 0.8818,-0.093 0.2307,0.1826 0.3389,0.4597 0.4758,0.7093 0.0489,0.089 0.2963,-0.3466 0.5337,-0.1744 0.8457,0.6131 -0.3994,-0.7932 0.3714,-0.6628 0.7088,0.12 0.5439,-0.1425 0.4525,-0.5814 -0.0373,-0.1796 0.9543,-1.3766 1.0907,-1.4185 0.1793,-0.0552 0.8703,0.8235 0.8703,1.0464l-0.0464 0c-0.0731,-0.256 -0.7016,-0.5502 -0.7427,-0.6744 -0.0192,0.0048 -0.1947,0.3879 -0.2436,0.4535 -0.0755,0.101 -0.3481,0.462 -0.3481,0.5698l0.731 0.3023c0,0.2236 -1.1387,1.2294 -1.3692,1.3953 -0.1841,0.1324 -0.2362,0.4186 -0.5106,0.4186 -0.6494,0 -0.4774,0.3276 -0.9631,0.5697 -0.1987,0.0991 -0.5589,-0.0492 -0.6962,0.1744 -0.1286,0.2092 0.1625,0.3994 0.1625,0.6279 0,0.2687 -0.4644,0.093 -0.7194,0.3488 -0.1535,0.1541 -0.4488,0.3023 -0.6614,0.3023l-0.0116 -0.0116c0,-0.37 0.1341,-0.6969 -0.3133,-0.8953 -0.4901,-0.2174 -1.2411,0.0817 -0.9515,0.6628 0.2182,0.438 -0.0334,1.2898 -0.3597,1.6627 -0.2954,0.4142 -0.6098,0.8729 -0.7775,1.3604 -0.0664,0.193 -0.4964,1.2594 -0.3945,1.3953 0.228,-0.057 0.3352,-0.9326 0.6382,-0.4534 0.1933,0.3056 0.1683,0.5128 0.557,0.2209 0.5919,-0.4447 0.0617,-1.0497 0.4989,-1.4883 0.1134,-0.1138 0.3026,-0.1002 0.4526,-0.221 0.8074,-0.6497 -0.167,1.1411 -0.2089,1.2907 -0.085,0.3027 0.1336,0.4991 -0.058,0.8255 -0.1047,0.1783 -0.0794,0.5177 0.0464,0.6861 0.2981,0 0.5701,-0.314 0.789,-0.314l0.0116 0.0116c0,0.3635 -0.7016,0.8776 -1.0095,0.9884 -0.2685,0.0965 -0.7148,0.1371 -0.9631,-0.0349 -0.2873,-0.1992 -0.3573,-0.1403 -0.3945,0.1395 -0.0516,0.3883 -0.4503,0.9322 -0.3597,1.3139 0.0397,0.167 0.2073,0.1944 0.2669,0.314 0.0637,0.1281 -0.0451,0.2462 0.0696,0.4535 0.2689,0.4395 1.4659,0.5715 1.845,0.2209 0.2861,-0.2645 0.2544,-0.6641 0.116,-1.0116 -0.1024,-0.2574 0.5501,-0.5581 0.7542,-0.5581 0,0.1384 -0.647,1.4576 0.0116,1.1278 0.1977,-0.0989 0.4663,-0.2232 0.615,-0.3837 0.1168,-0.1262 0.0236,-0.4209 0.0928,-0.4651 0.1608,-0.1026 0.9532,-0.21 0.8355,-0.593 -0.1912,-0.6225 -0.5397,-1.2102 0.174,-1.686 0.3138,-0.2092 0.0804,0.8488 0.441,0.8488 0.8376,0 1.147,-1.2204 1.8913,-1.372 0.2564,-0.0522 1.8447,0.4775 1.9146,0.1977 -0.1961,-0.049 -0.4641,-0.3062 -0.4641,-0.5233 0.5018,0 0.3133,-0.2189 0.3133,-0.6046 0,-0.296 0.3438,0.1395 0.6846,0.1395 0.0693,0.2787 -0.3559,1.3245 -0.0812,1.5 0.523,0.334 0.8327,-1.4795 0.8934,-1.6162 0.2566,-0.1079 0.2575,-0.2675 0.5802,-0.2675 0.1353,0 -0.1156,0.3795 -0.1276,0.4651 -0.0549,0.3886 0.2467,0.5557 0.5569,0.686 0.5315,0.2231 1.0374,0.4858 1.6129,0.5117 0.4375,0.0196 1.0397,0.3895 1.1487,0.8255 0.0291,0 0.0149,0.005 0.0349,0.0116 0,-0.2328 0.6804,-1.465 0.8818,-1.465l0 0 0.502 -0.0309c0.0882,-0.0258 0.1772,-0.051 0.266,-0.0635 0.0758,-0.0106 0.0789,-0.0731 0.1188,-0.0864l0 -0.0756c-0.0195,-0.0065 -0.0544,-0.1495 -0.0648,-0.1836 -0.0457,-0.1495 -0.2484,-0.2586 -0.2484,-0.432 0,-0.1256 0.1171,-0.1209 0.216,-0.1512 0.1786,-0.0546 0.2547,-0.3195 0.3672,-0.432 0.1064,-0.1064 14.6569,-1.5884 14.8082,-1.5884l0 0c-0.0437,-0.4461 -0.1802,-0.8492 -0.1378,-1.3168 0.1535,-0.0959 0.3741,-0.2391 0.5685,-0.2092 0.1261,0.0193 0.4132,0.2876 0.5106,0.2441 0.2748,-0.1226 0.1025,-0.8569 0.2437,-1.1278 0.1794,-0.3444 0.4895,-1.3179 0,-1.5232 -0.7232,-0.3032 -0.2571,-0.6527 -0.0349,-1.1279 0.1066,-0.2282 0.5848,-0.3369 0.8123,-0.4651 0.2835,-0.2525 0.5453,-0.6741 0.5453,-1.0581 0.2348,-0.2338 0.4801,-0.2337 0.8007,-0.1861 0.3193,0.0473 0.6971,-0.1817 0.9631,-0.1046 0.2311,0.0669 0.3028,0.3083 0.4989,0.3604 0.2926,0.0776 0.2901,-0.4603 0.2901,-0.6395 0,-1.1587 0.0784,-2.3567 0.673,-3.3836 0.1576,-0.2721 0.4095,-0.4363 0.557,-0.7209 0.0763,-0.1474 0.2074,-0.9681 0.2204,-0.9767 0.0163,-0.1141 0.0982,-0.1301 0.1973,-0.1511 0.2396,-0.3904 0.3082,-0.7837 0.3249,-1.2326 0.0125,-0.3352 -0.2039,-0.7804 0.1625,-0.9418 0.3289,-0.145 0.3046,-0.2262 0.3597,-0.5465 0.0673,-0.3917 0.3676,-0.5362 0.4873,-0.8604 0.1366,-0.3698 -0.1188,-0.7907 0.4641,-0.7907 0.6022,0 0.7169,-0.6916 1.3809,-0.7674 0.4107,-0.0468 0.5853,-0.5058 0.847,-0.593 0,0.5373 -0.3174,0.993 -0.0348,1.4185 0.2729,0.4107 -0.3801,1.2006 -0.1276,1.6395 0.0554,0.0962 0.5543,0.2907 0.6614,0.2907l-0.0116 -0.9767c-0.0056,-0.4695 0.0668,-0.4017 0.4525,-0.5465 0.3319,-0.3326 0.7422,-0.2205 0.9747,-0.4535 0.2865,-0.2872 0.307,-0.6475 0.6962,-0.9069 0.0712,-0.4999 0.1586,-0.9387 0.4409,-1.3488 0.3468,-0.5037 0.7482,-0.6637 0.6034,-1.4186 -0.0303,-0.1581 0.3192,-0.7602 0.4409,-0.7906 0.0701,-0.2819 0.221,-0.2686 0.4526,-0.3489 0.2405,-0.0835 0.43,-0.5156 0.5105,-0.7441 0.2113,-0.6002 0.4757,-1.1309 1.0095,-1.5 0.195,-0.4557 -0.2379,-0.6756 -0.2088,-1.0348 0.0303,-0.3731 0.2901,-0.7143 0.0696,-1.1163 -0.1038,-0.1891 -0.4781,0.2012 -0.673,0.0814 -0.1839,-0.1129 -0.6313,-1.0431 -0.6614,-1.0464 -0.0619,-0.007 -0.372,0.5888 -0.4293,0.6976 -0.1338,0.2537 -0.1012,1.0418 -0.1161,1.0232 -0.0979,-0.1214 -0.1908,-0.6903 -0.4873,-0.5581 -0.2422,0.1081 0.2388,-0.5247 0.3017,-0.593 0.2394,-0.2601 0.4713,-0.4504 0.4409,-0.8256 -0.0118,-0.1451 -0.3565,-0.0058 -0.4641,0.0117 -0.513,0.0833 0.4982,-0.3863 0.6381,-0.5116 0.0788,-0.0707 -0.4022,-0.9865 -0.5569,-1.1047 -0.3845,-0.2936 -1.4313,-0.9861 -1.8798,-1.0929 -0.3493,-0.0831 -0.5412,0.3525 -1.0211,0.186 -0.599,-0.2079 -0.9814,0.0488 -0.1624,-0.2791 0.0829,-0.0332 0.4656,-0.072 0.4757,-0.1627 0.0122,-0.1086 -0.1946,-0.3367 -0.2901,-0.3605 1.1283,0 2.5493,0.58 3.5507,1.0814 0.5064,0.2536 0.5992,-0.21 0.8935,-0.1396 0.0997,0.0239 0.3907,0.1493 0.4525,0.1047 0.2346,-0.1693 0.0299,-0.4048 -0.1857,-0.4535 -0.9207,-0.5754 -0.742,-2.0134 -1.404,-2.8371 -0.1441,-0.1792 0.6801,0.2943 0.8123,0.3604 0.6523,0.326 0.7799,-0.3803 1.1719,-0.6976 0.0604,-0.0489 0.1039,-0.1226 0.1289,-0.2052l0 0zm-121.449 -36.8744l4.6894 -4.8407 7.9205 7.8988 -6.368 6.4023 0 0c0.0518,0.0411 0.0828,0.1132 0.0828,0.2439 -0.3735,0.0933 -0.5292,-0.0944 -0.5292,0.3996 0,0.1204 -0.2254,0.2268 -0.0756,0.3348 0.1546,0.1116 0.1007,0.1602 0.324,0.216 0.1264,0.5058 0.2299,0.6709 -0.2376,1.1016 -0.2507,0.2311 -0.2396,0.0895 -0.4212,0.4212 -0.1926,0.352 -0.0614,0.4079 -0.0216,0.7668 0.1497,0.4366 0.1308,0.645 0.5508,0.8748 0.2652,0.1452 0.5054,0.204 0.7776,0.2808 0.3169,0.0893 0.0223,0.3456 -0.216,0.3456 -0.4466,0 -1.1772,0.14 -1.1772,0.7236 0,0.3601 0.2202,0.8393 0.0756,1.1664 -0.1028,0.2328 -0.5115,0.3697 -0.3564,0.6804 0.1748,0.3504 0.4856,0.7321 0.8856,0.7776 0.1758,0.02 1.026,0.2234 1.026,0.4536 -0.3042,0.1014 -0.346,0.0925 -0.7128,0 -0.4481,-0.1131 -0.9122,0.193 -1.4364,0.0324 -0.3017,-0.0925 -0.0706,-0.6804 -0.2916,-0.6804 -0.3183,0.4244 -0.1365,0.7454 -0.7992,0.5832 -0.6455,-0.1581 -0.6002,0.3456 -1.1016,0.3456 -0.4481,0.128 -1.3788,0.1715 -1.5552,0.6804 -0.1634,0.4712 -0.3545,0.5413 -0.6264,0.9072 -0.1598,0.2149 0.0143,1.5118 0.0864,1.7928 0.1595,0.6221 -0.1673,0.9288 0.5292,0.9288 0,0.8686 -1.8384,1.4725 -2.3544,2.0196 -0.4651,0.4933 -1.2938,0.1079 -1.89,0.3888 -0.737,0.3474 -0.6705,0.6156 -0.972,1.3392 -0.5583,0.3168 -1.2194,1.0703 -1.0476,1.7388 0.1293,0.5033 1.2092,-0.7007 1.3068,-0.9936l0.0324 0c0.0935,0.2807 0.7568,-0.4831 0.8316,-0.54 0.1228,-0.0936 0.7098,-0.4644 0.81,-0.4644 0.0955,0.3822 -0.1693,0.7134 -0.5292,0.864 -0.3337,0.1395 -0.0969,1.134 -0.4428,1.134 -0.3571,-0.7142 -0.3842,0.1619 -0.756,0.3672 -0.1746,0.0965 -0.3842,-0.0747 -0.4104,-0.054 -0.3895,0.3087 -0.2222,0.4104 -0.8532,0.4104 -0.4329,0 -1.2083,-0.1146 -1.5768,0.162 -0.1202,0.0901 -0.8931,1.0476 -0.5724,1.0476 0.1418,-0.2482 1.0699,-0.8995 0.972,-0.5292 -0.1531,0.5784 -0.1629,1.2852 -0.9936,1.2852 -0.9394,0 -0.5378,0.5633 -1.0152,1.1772 -0.4508,0.3967 -0.3311,1.3289 -0.54,1.8792 -0.074,0.1952 -0.2332,0.5142 -0.216,0.7236 0.0068,0.0839 0.4463,0.3245 0.54,0.378 0.0415,0.1452 0.0534,0.1434 0.0216,0.3024 -0.0678,0.0452 -0.347,0.2645 -0.3996,0.324 -0.0902,0.1018 0.1975,0.535 0.2592,0.6588 0.1404,0.2813 0.1728,0.4802 0.1728,0.7884 -0.0856,0.0856 -0.0864,0.2168 -0.0864,0.3348 0.0967,0.0967 0.2062,0.1397 0.2916,0.2592 0.8023,0.8665 -0.4428,1.2726 -0.2592,2.0088 0.0705,0.2825 0.4179,0.4957 0.5076,0.7884 0.1113,0.3634 -0.0455,0.6025 0.2592,0.9072 0.1971,1.3801 1.1313,0.9073 1.8792,1.7496 0.7135,0.8037 0.9712,0.9194 1.944,0.2916 1.0815,-0.6978 2.3808,-1.4517 3.1536,-2.4732 0.4509,-0.5961 0.4056,-1.1729 0.54,-1.8468 0.1153,-0.5787 0.3456,-1.1974 0.3456,-1.7928 -0.0272,-0.0204 -0.2951,0.1552 -0.378,0.1728 -0.1899,0.0403 -0.8727,-0.0242 -1.0368,-0.1404 -0.1296,-0.0919 -0.3558,-0.6973 -0.2484,-0.8316 0.048,-0.0309 0.8165,-0.9651 0.7884,-0.594 -0.0219,0.2882 -0.3808,0.4127 -0.2376,0.7992 0.1412,0.3809 1.2148,0.0324 1.512,0.0324 0.5153,0 0.8658,-0.4968 1.1988,-0.4968 0.054,0.2162 -0.2443,0.6996 -0.4428,0.7884 -0.5514,0.2465 -0.0644,0.3101 -0.3132,0.756 -0.2842,0.5096 0.0686,0.3238 0.162,0.6264 0.1048,0.3392 -0.1262,1.148 -0.2484,1.4472 -0.1538,0.3767 0.6117,0.1076 0.8424,0.1296 0.3836,0.0366 0.5256,-0.6055 0.7992,-0.864 0.6901,-0.6517 2.268,-1.2176 2.268,-2.3004l-0.0108 -0.0108c-0.4053,0 -1.1499,0.0666 -0.3348,-0.2916 0.5355,-0.2354 0.4719,-0.7545 0.3672,-1.1988 -0.1175,-0.499 0.2179,-0.6358 0.4644,-0.972 0.2788,-0.38 0.6466,-2.0098 0.7992,-0.864 0.0932,0.6993 -0.3603,1.1748 -0.6048,1.7604 -0.3437,0.8234 0.7343,1.7202 1.0044,2.4192 0.3537,0.9155 0.9393,1.6562 1.1232,2.6676 0.6042,0.3776 0.6842,1.57 0.6588,2.214 -0.0218,0.5545 0.037,0.9874 0.432,1.3824 0.2347,0.2347 0.1103,0.5456 0.0216,0.8208 -0.1028,0.3185 0.0119,0.2831 0.2808,0.3348 0.5799,0.1115 0.8627,0.4272 1.3068,0.7344 0.5305,0.3668 0.4585,-0.432 0.8532,-0.432 0,0.7738 -0.3845,0.4903 0.2916,1.1664 0.1215,0.1215 0.2652,0.4816 0.3672,0.5184 0.2385,0.0859 0.5016,0.0679 0.7344,0.216 0.1976,0.1791 0.5508,0.4098 0.5508,0.702 -0.3034,0 -0.8161,-0.6048 -1.1988,-0.6048 0,0.3076 0.042,0.4543 -0.0216,0.7884 -0.0512,0.2687 -0.0972,0.5665 -0.0972,0.8424 1.1251,0 2.628,1.0828 3.6396,1.5876 0.3826,0.191 0.6465,0.4174 0.9072,0.7452 0.1096,0.1377 0.6588,0.4556 0.6588,0.0972 0,-0.149 -0.1043,-0.2903 -0.0324,-0.4428 0.1582,-0.3358 0.4181,-0.5076 0.3024,-0.9504 -0.1602,-0.6134 -0.2892,-0.6691 -0.6912,-1.1016 -0.2331,-0.2509 0.3441,-0.6986 -0.0864,-0.8316 -0.7421,-0.2292 -0.2609,-0.59 -0.378,-1.1988 -0.0898,-0.4667 -0.7468,-0.7388 -0.918,-1.2096 0.2022,-0.3708 0.1918,-0.6806 0.4968,-1.0584 0.2157,-0.2671 0.2324,-0.9382 0.0864,-1.2312 -0.1934,-0.388 -1.615,-0.7553 -2.0088,-0.9612 -0.1586,-0.083 -0.277,-0.2743 -0.4644,-0.2916 -0.5012,-0.0463 -1.0584,-0.108 -1.4256,-0.4752 0.7121,0 1.2111,-0.4006 2.0088,-0.2052 0.7238,0.1772 1.2294,-0.0785 1.782,0.5076 0.4654,0.4935 1.5923,0.8763 1.512,1.6632 -0.0202,0.1978 -0.2469,0.4563 -0.1296,0.6912 0.0773,0.1546 0.44,-0.3521 0.54,-0.4212 0.2558,-0.177 1.0486,-0.1855 1.3392,-0.0864 0.3372,0.1151 -0.6881,0.4223 -0.7344,0.4428 -0.553,0.2443 -0.6706,0.7578 -1.1772,1.026 -0.436,0.2307 -0.1613,0.0915 0.0756,0.3456 0.2698,0.2896 0.207,0.6097 0.3348,0.9612 0.1165,0.2778 0.3462,0.504 0.4536,0.7668 0.1015,0.2487 -0.122,0.3905 -0.162,0.6156 -0.0338,0.1901 0.2575,0.2044 0.3672,0.3024 0.2031,0.1817 0.2997,0.6574 0.3564,0.918 0.0419,0.1929 0.4043,0.2261 0.5292,0.4428 0.2195,0.3811 -0.2636,1.0001 -0.1728,1.08 0.2983,0.2622 0.175,1.0085 0.2268,1.3716 0.549,0 0.823,-0.1274 1.1988,0.2484 0.2333,0.2333 0.9059,0.7276 0.3672,1.1124 0.042,0.491 0.6055,0.3139 0.9936,0.5076 0.8524,0.4253 0.7471,-0.145 1.1988,-0.6588 0.2498,-0.284 0.4494,-0.6204 0.6048,-0.972 0.1592,-0.3605 -0.054,-0.5058 -0.054,-0.8208 0.2722,0 0.6274,0.7948 0.8856,0.0324l0.2268 -0.6696c0.0734,-0.2166 -0.1364,-0.2424 -0.2376,-0.3888 -0.1691,-0.2449 0.0398,-0.7929 -0.0216,-1.1124 -0.0568,-0.295 -0.5329,-0.3063 -0.594,-0.5508 0.5019,-0.2151 0.0765,-1.1366 0.216,-1.5552 0.0791,0 0.4968,0.8683 0.4968,1.026 0,0.4586 0.1327,0.3414 0.486,0.432 0.1708,0.0437 0.2592,0.4374 0.2592,0.6048 0,0.1057 -0.6236,0.2297 -0.3456,0.486 0.225,0.2073 0.1403,0.2265 0.0756,0.486 -0.1004,0.4031 0.4787,0.3277 0.2376,1.0692 -0.0581,0.179 0.0765,0.3346 0.0216,0.5292 -0.0423,0.1503 -0.6515,0.5728 -0.7992,0.756 -0.2528,0.3133 -0.3874,0.1473 -0.108,0.648 0.0475,0.0853 0.9072,-0.0099 0.9936,-0.0756 0.2268,-0.1728 0.3708,-1.4971 0.4752,-1.8576 0.0724,-0.2504 0.7502,-0.0324 1.0044,-0.0324 0.957,0 1.1232,-0.5373 1.89,-0.7344 0.7431,-0.1909 0.7028,-0.8564 0.8424,-1.4148l0.0216 0c0.0114,0.0456 0.0438,0.0999 0.054,0.1512 0.0678,0.1044 0.1126,0.1656 0.162,0.2592 0.0225,0.0425 0.0428,0.0845 0.054,0.1296 0.0122,0.0493 0.0108,0.099 0.0108,0.1512l-0.0216 0.0432c-0.0518,0.1143 -0.1254,0.2954 -0.1944,0.4104l0 0.27c0,0.0474 0.0004,0.1169 -0.0108,0.162 -0.0094,0.0383 -0.0346,0.0733 -0.0432,0.108l-0.0864 0.0864c-0.0174,0.0043 -0.0286,0.0107 -0.0432,0.0216 -0.1836,0.0983 -0.3246,-0.0119 -0.5076,0.054 -0.0787,0.0284 -0.3456,0.3748 -0.3456,0.4644 0,0.4855 -0.4502,0.7406 -0.8856,0.8316 -0.2662,0.0557 -0.8717,-0.3367 -0.972,0.0648 -0.1636,0.0233 -0.3563,0.2808 -0.5292,0.324 0,0.5475 0.1357,0.5616 0.6804,0.5616 0.3951,0 0.8003,0.0223 1.1016,0.3024 0.4902,0.4555 0.7243,0.3348 1.35,0.3348 0.6648,0 1.1369,0.307 1.7388,0.5076 0.6771,0.0995 1.9457,1.1275 2.376,1.674l0.7992 1.0152c0.0562,0.0712 0.2587,-0.0265 0.3456,-0.0216 0.3356,0.019 0.5427,0.1355 0.8964,0.0108 0.327,-0.1154 -0.0068,0.1606 -0.0432,0.3348 -0.0407,0.195 0.0992,0.9063 -0.2052,0.5508 -0.0877,-0.1024 -0.6869,-0.6929 -0.7668,-0.7128 0,0.4033 0.5634,1.6871 0.7344,2.0952l0.3348 0.7992c0.0983,0.2345 -0.0273,0.4954 0.0324,0.7344 0.2352,0 0.5636,-0.8462 1.2204,-0.5184 0.3721,0.1856 0.8563,0.5961 1.0368,0.9828 0.3953,0.4111 1.1696,1.3412 1.3068,1.89 0.4717,-0.1572 0.3476,-1.0933 0.0216,-1.2852 -0.2609,-0.1537 -0.4862,-0.205 -0.756,-0.3996 -0.4371,-0.3155 -0.6413,-0.8432 -0.9396,-1.2744 -0.1843,-0.2666 -0.273,-0.543 -0.5076,-0.7776 -0.2158,-0.2158 -0.6156,-0.727 -0.6156,-1.0476 0.2041,0 1.3477,1.0488 1.3932,1.2852 0.1233,0.6413 0.2595,0.4022 0.7236,0.756 0.4466,0.3406 0.3991,-0.1052 0.6588,-0.0756 0.2172,0.0247 0.5,1.1083 0.5724,0.7668 0.0861,-0.4057 0.0556,-0.728 -0.1404,-1.0908 -0.1148,-0.2127 -0.3564,-0.495 -0.3564,-0.7344 0.6023,0 0.7439,-0.075 1.2636,-0.3348l0 -0.0432c-0.2237,-0.0559 -0.8219,-1.0163 -0.3672,-1.1772 0.2639,-0.0933 1.0076,-1.3068 0.6804,-1.3068 -1.2363,0 -0.2312,-0.4692 -0.7992,-0.81 -0.2088,-0.0632 -0.6579,-0.1362 -0.756,-0.3456 -0.0863,-0.1841 -0.2592,-0.6477 -0.2592,-0.8424 0.2863,0.1431 0.4667,0.5422 0.8424,0.6264 0.2372,0.0532 0.6555,0.221 0.7236,0.486 0.1793,0.698 0.7951,0.0169 1.0908,0.6372 0.0831,0.1742 -0.0489,0.2568 -0.1836,0.324 -0.2997,0.1495 0.0833,0.4613 0.0648,0.8316 -0.0146,0.2916 -0.3007,0.2677 -0.4212,0.4212 -0.0967,0.123 -0.0584,0.3918 0.0108,0.5184 0.0861,0.1572 -0.0315,0.6947 0.1728,0.5724 0.1462,-0.0876 0.378,-0.1818 0.4968,-0.3024 0.0629,-0.0637 0.3091,-0.3824 0.378,-0.3996 0,0.9037 -0.7198,0.8237 -1.1664,1.35 -0.1121,0.132 0.2268,0.4376 0.2268,0.6804 0,0.1376 -0.0607,0.2706 -0.0324,0.3996 0.0404,0.1844 0.272,0.35 0.3564,0.54 0.0086,-0.0602 0.0967,0.5935 0.216,0.7992 0.0968,0.1667 0.7121,1.0443 0.756,0.9612 0.3132,-0.5916 -0.0332,-1.1863 0.1836,-1.62l0.0324 0c0.0584,0.2339 0.1871,0.4744 0.2484,0.7128 0.1275,0.4964 0.4214,-0.0648 0.6156,-0.0648 0,0.4067 -1.174,0.9121 -0.1404,1.1232 0.8465,0.1728 0.3934,0.36 0.6372,0.8208 0.131,0.2474 0.6094,0.345 0.8208,0.5724 0.6016,0.6474 0.4132,2.7102 1.7928,2.4516 0.3645,0.1763 0.7441,0.1419 1.026,0.4752 0.099,0.1172 0.4752,0.5819 0.4752,0.7236 0.0514,-0.0171 -0.0574,-0.6937 -0.108,-0.8208 -0.1948,-0.4883 -0.3616,-0.865 -0.432,-1.3932 -0.1272,-0.9551 0.0134,-1.9973 -0.324,-2.9052 -0.0541,-0.1455 -0.4912,-1.1044 -0.6048,-1.026 -0.2288,0.1578 -0.8901,0.8555 -0.7128,0.2376 0.1381,-0.4811 0.2014,-1.0611 0.4212,-1.5012 0.1472,-0.295 0.4734,0.8506 0.486,1.0476 0.0208,0.3234 0.1912,-0.0311 0.27,-0.1296 0.2376,-0.2974 0.4966,-0.583 0.7668,-0.8532 0.5383,-0.427 0.0863,-0.8339 -0.2052,-1.296 -0.4121,-0.653 -0.8992,-1.3528 -1.4472,-1.9008 -0.4763,-0.4763 -0.7685,-1.4718 -1.1124,-2.0736 -0.361,-0.0515 -1.0875,-1.6639 -1.2312,-1.9872 0.0315,-0.5355 -0.2421,-1.2459 -0.2916,-1.8144 -0.0626,-0.7199 -0.2001,-1.3764 0.27,-2.0088 0.2885,-0.388 1.0833,-1.0499 1.1988,-1.512 -0.4293,0.1073 -1.5815,-0.8401 -1.8144,-0.6696 -0.244,0.1785 -0.4494,0.2479 -0.7236,0.3672 -0.2058,0.0896 -0.5141,-0.0982 -0.5292,0.1836 -0.0145,0.2721 -0.5403,0.799 -0.81,0.8316 -1.3479,0.1629 -1.7926,-1.0302 -2.6784,-1.7388 0.2388,-0.2388 0.274,-0.3943 0.2052,-0.6696l-0.0108 -0.0108c-0.3614,0 -0.6664,0.5922 -0.8748,0.0432 -0.1461,-0.3851 -0.0169,-0.5217 0.1296,-0.8532 0.125,-0.283 -0.2263,-0.3326 -0.2592,-0.4644 -0.2729,-0.0454 -0.2345,0.4752 -0.5184,0.4752 -0.0049,-0.0198 -0.0018,-0.0167 -0.0216,-0.0216 -0.1967,-0.787 0.0158,-0.6317 0.4212,-0.7668 0,-0.2727 -0.2094,-1.0764 -0.3672,-1.296 -0.2351,-0.327 -0.4113,-0.1197 -0.7128,-0.27 -0.2726,-0.1358 -0.3558,-0.4854 -0.5724,-0.702 -0.1309,-0.1309 -0.4372,-0.2115 -0.4968,-0.3348 -0.3336,-0.6907 -0.298,-0.3748 -0.9504,-0.6264 -0.3303,-0.1273 -0.0952,-0.4038 -0.7344,-0.2808 -0.4229,0.0813 -1.3448,-0.3945 -1.6524,-0.6804 -0.6038,-0.5611 -0.7024,-1.0106 -1.4904,-1.3608 -0.328,-0.1947 -0.2447,-0.3825 -0.486,-0.6048 -0.5302,-0.4887 -1.5228,-0.7803 -1.5228,-1.6632 0,-0.2121 -0.1879,-0.2115 -0.3132,-0.3132 -0.1573,-0.1276 -0.4037,-0.6156 -0.54,-0.6156 -0.3112,0 -0.4428,-0.2591 -0.4428,-0.5724 0.1587,0 0.5531,0.1315 0.5076,-0.1512 -0.0425,-0.2637 -0.2056,-1.1311 -0.54,-1.0692 -0.1369,0.0254 -1.1405,0.4756 -1.0476,0.0108 0.8152,-0.163 1.4407,-1.415 0.0756,-0.9612 -0.2748,0.0914 -1.175,0.0136 -0.3348,-0.216 0.6767,-0.185 0.864,-0.4208 0.864,-1.0584 0.0829,-0.2948 0.1628,-1.4722 -0.2268,-1.512 -0.1634,-0.0166 -0.4473,-0.3685 -0.5508,-0.4968 -0.0784,-0.097 -0.579,-0.3982 -0.6804,-0.432l0 -0.0324c0.3994,0 0.8215,0.2852 1.2528,0.2592 0.3908,-0.0235 0.0633,-0.547 0,-0.702 -0.0848,-0.208 -0.2051,-0.4497 -0.216,-0.6804 -0.0191,-0.4011 0.004,-0.6638 -0.0864,-1.0476 -0.0942,-0.4001 -0.189,-0.7668 -0.0864,-1.1772 0.3228,-0.2855 0.6731,-0.8829 0.6912,-1.3176 0.0152,-0.367 0.0186,-0.7468 0.1296,-1.08 0.1127,0.0281 0.162,0.8203 0.162,0.9612 0,0.2141 0.0586,0.4221 0.0432,0.6264 -0.011,0.1454 -0.1414,0.3498 -0.1728,0.5076 -0.1277,0.6408 0.0324,1.2704 0.0324,1.9224 0.0661,0.7054 0.5444,0.2808 0.972,0.2808 0,0.2357 -0.2415,0.5879 -0.324,0.8748 -0.0759,0.2636 -0.4752,0.6676 -0.4752,0.8856 0.4917,0.1229 1.098,0.8148 1.0152,1.3284 -0.0686,0.4252 -0.756,0.6813 -0.756,0.9504 0,0.1743 0.1249,0.8377 0.2376,0.9504 0.4366,0.4366 0.7128,0.1945 0.7128,0.9504 0,0.4357 0.4104,0.3878 0.4104,0.8964 -0.087,0.2698 -0.41,0.2553 -0.108,0.3888 0.5157,0.2278 1.9107,0.3926 1.998,1.0692 0.2103,1.6308 0.7879,-0.9502 1.0044,-1.0584 0,0.6357 -0.4458,1.2232 -0.4752,1.7712 -0.0382,0.7105 0.3846,0.4643 0.8532,0.9612 0.4054,0.43 0.8577,0.6813 1.4148,0.7884 0.4012,0.0772 0.6696,-0.0279 0.6696,0.4968 0,0.0834 -0.1415,1.0219 0,0.8316 0.0969,-0.1305 0.1545,-0.297 0.27,-0.4212 0.0481,-0.0518 0.2377,-0.2392 0.3024,-0.1944 0.0378,0.0262 0.0426,0.2436 0.0972,0.3132 0.081,0.103 0.2238,-0.1557 0.27,-0.1944 1.1646,-0.9767 1.3235,1.4611 1.6308,1.5984 0.1406,0.0629 1.0156,-0.3837 1.1124,-0.5292 0.2387,-0.3591 0.1303,-1.0063 0.2592,-1.3932 0.2432,0.3243 0.1772,1.3787 -0.162,1.6524 -0.1487,0.1199 -0.438,0.2544 -0.5508,0.3672 -0.1355,0.1355 0.2692,0.3314 0.3024,0.4644 0.3183,0.3524 0.3787,0.755 0.5184,1.188 0.0622,0.1928 0.065,0.4071 0.108,0.6048 0.0325,0.1499 0.1498,-0.3669 0.2376,-0.3888 0.0356,0.2497 0.019,0.5972 0.108,0.8316 0.1294,0.3411 0.5564,0.398 0.3132,0.8856 -0.0779,0.1561 -0.6696,0.8844 -0.6696,0.918 0.3451,0 0.6028,-0.2207 0.9288,0.0216 0.2111,0.157 0.2909,0.2854 0.4536,0.486 0.2108,0.2597 1.9737,-0.8208 2.268,0.3564 0.1677,0 0.5948,-1.2272 0.756,-1.4472l0.918 -1.2528c0.4348,-0.5933 0.4004,-0.7139 0.1944,-1.4256 -0.149,-0.5145 0.5421,-0.9093 0.4752,-1.1772 -0.6583,0 -1.3954,-0.671 -1.7388,-1.2204 -0.146,-0.3931 -0.4259,-0.7818 -0.5508,-1.1664 -0.0712,-0.219 -0.4139,-0.4563 -0.4428,-0.6588 -0.3002,-0.2144 -0.5518,-0.6298 -0.864,-0.864 -0.395,-0.2965 -0.5508,-0.4129 -0.5508,-0.9072 -0.0204,-0.0204 -0.021,-0.0273 -0.0324,-0.054 -0.1083,-0.027 -0.2499,-0.3412 -0.432,-0.3672 -0.3154,-0.4415 -0.907,-0.9698 -1.296,-1.3824 -0.5837,-0.619 -0.8499,-0.927 -1.1664,-1.7712 -0.2448,-0.3608 -0.6097,-0.8967 -0.6588,-1.3392 -0.2728,-0.2273 -0.3475,-2.2401 -0.2592,-2.6352 0.2452,-1.0972 0.0216,-2.3778 0.0216,-3.5208 0.2627,-0.8406 0.0949,-1.811 -0.0108,-2.6568 -0.3419,-0.3419 -0.5859,-1.4379 -0.7344,-1.9224 -0.2421,-0.7902 -0.2916,-1.7772 -0.2916,-2.6136 0.0485,-0.5663 -0.0021,-1.117 0.162,-1.6524 0.141,-0.4603 0.2916,-0.8188 0.2916,-1.296l-0.0216 0 0 -0.0216c-0.3395,-0.0848 -0.7345,0.1755 -1.1232,-0.0648 -0.3226,-0.1993 -0.5974,-0.4079 -0.7344,-0.7776 -0.1908,-0.5151 0.3725,-0.8828 0.0972,-1.3284 -0.1347,-0.2179 -0.4101,-0.9836 -0.3456,-1.1772 0.2006,0 0.277,0.263 0.5076,0.0324 0.2337,-0.2337 0.8545,-0.2373 0.9612,-0.5184 0.1118,-0.2948 0.6003,-0.4895 0.6804,-0.81 0.0227,-0.2428 -0.1861,-0.4109 0.1296,-0.5076 0.1958,-0.06 0.3926,-0.2397 0.594,-0.324 0.4877,-0.204 0.1605,-0.6749 0.5292,-0.864 0.4848,-0.2488 0.3011,-0.7511 0.4104,-1.1772 0.1138,-0.444 0.3348,-0.6561 0.3348,-1.1556 -0.017,-0.0056 -0.0216,-0.021 -0.0216,-0.0432 -0.0573,-0.0191 -0.0612,-0.3249 -0.0648,-0.3888 -0.0108,-0.1917 -0.1026,-0.3021 -0.1404,-0.4536 -0.0926,-0.0231 -0.1839,0.3224 -0.3024,0.4104 -0.2521,0.1875 -0.4627,-0.2759 -0.756,-0.2916 -0.2418,-0.013 -0.4814,-0.0864 -0.702,-0.0864 0,0.2269 -0.1462,0.4533 -0.2592,0.6372 -0.225,0.3665 0.0945,0.2886 0.1512,0.5724 0.0035,0.0551 0.0164,0.1572 0.0108,0.2268 -0.0017,0.0207 -0.0108,0.0384 -0.0108,0.0648 -0.0238,-0.0059 -0.0409,-0.0508 -0.054,-0.0756 -0.0189,-0.036 -0.0397,-0.0659 -0.0648,-0.0972 -0.0095,-0.0117 -0.0212,-0.0115 -0.0324,-0.0216 -0.0107,-0.0095 -0.0093,-0.0145 -0.0216,-0.0216 -0.0322,-0.0184 -0.0588,-0.0479 -0.0864,-0.0756l-0.0108 -0.0108c-0.0047,-0.0048 -0.0309,-0.0198 -0.0324,-0.0216 -0.0383,-0.0431 -0.0539,-0.0595 -0.108,-0.0864 -0.032,-0.016 -0.0923,-0.0324 -0.1296,-0.0324 -0.1541,-0.0264 -0.1905,0.0108 -0.3132,0.0108 -0.0618,-0.0824 0.1768,-0.3064 0.216,-0.378 0.1076,-0.1967 0.108,-0.621 0.108,-0.8532 0,-0.2225 -0.4124,-0.3682 -0.2592,-0.5724 0.2714,0 0.406,0.0716 0.4968,-0.2916 0.0217,-0.0054 0.0285,-0.0108 0.054,-0.0108 0.0437,0.3062 0.4081,0.2101 0.594,0.1836 0.1213,-0.2123 0.0223,-0.3114 -0.0324,-0.5184 -0.0332,-0.1254 -0.1169,-0.1322 -0.1728,-0.2268 -0.0684,-0.1155 -0.0108,-0.2316 -0.0108,-0.3456 -0.037,-0.3825 -0.2446,-0.2477 -0.5508,-0.2052 -0.3566,0.0494 -0.7035,0.1728 -1.0692,0.1728 0,-0.155 0.5069,-0.4685 0.6264,-0.594 0.1349,-0.1415 0.2831,-0.6048 0.4536,-0.6048 0.128,0.3841 0.2236,0.3366 0.5724,0.3564 0.1865,0.0106 0.4016,0.8217 0.5184,1.0044 0.2058,0.3221 -0.0524,0.7032 0.4104,0.324 0.4776,-0.3915 1.241,-0.83 1.0908,-1.5012l-0.324 -1.4472c-0.1929,0 -0.2637,0.2444 -0.432,0.3564 -0.2616,0.1739 -0.2778,0.0711 -0.3564,-0.162 -0.0343,-0.1016 -0.2631,-0.3747 -0.1836,-0.432 0.2915,-0.2104 0.1653,-0.5744 -0.1404,-0.6804 -0.1629,-0.0564 -0.3065,-0.4773 -0.432,-0.432 -0.0848,0.0305 -0.2159,0.309 -0.2808,0.0972 -0.0638,-0.2085 -0.0492,-0.7375 -0.3348,-0.3888 -0.0928,0.1132 -0.6158,0.2592 -0.7668,0.2592 0,-0.297 0.5832,-0.5651 0.5832,-0.756 0,-0.5347 -0.2357,-0.2808 -0.486,-0.2808 0,-0.7777 -0.4981,-0.0146 -0.6804,-0.5616l-0.0324 0c-0.0054,-0.0164 -0.0501,-0.0324 -0.0756,-0.0324 -0.5135,-0.8987 -1.0003,0.6611 -1.2528,0.7452 0,-0.2514 0.3737,-0.9625 0.1836,-1.1772 -0.0696,-0.0785 -0.3803,0.0202 -0.5184,-0.1296 -0.3129,-0.3397 -0.4902,-0.1942 -0.81,-0.4536 -0.293,-0.2378 -0.4428,-0.925 -0.4428,-1.296 0.0747,0.0186 0.2587,0.6626 0.3456,0.7884 0.2725,0.394 0.6481,0.2777 0.9504,0.6156 0.2778,0.3107 0.3119,-0.8357 0.3456,-1.0044l0.0216 0c0,0.3756 -0.0027,0.7976 0.2484,1.0908 0.1846,0.2155 0.4663,0.2304 0.7236,0.2916 0.3912,0.0932 0.0777,0.4003 0.6696,0.2592 0.1786,-0.0425 0.3335,0.1678 0.4752,0.0972 0.1683,-0.084 0.3183,-0.378 0.5292,-0.378 0,0.2704 -0.1963,0.5346 0.0648,0.7668 0.3866,0.3437 0.3044,-0.0324 0.594,-0.0324 0.1877,0.751 0.4785,1.1602 1.0908,1.6092 0.3498,0.2566 1.0985,-0.4192 1.134,-0.2808 0.1223,0.4774 0.0599,0.6994 0.378,1.1448 0.2198,0.0755 0.3951,0.2739 0.6372,0.3672 0.0583,0.0225 -0.2916,-0.6668 -0.2916,-0.8532 0.1075,0 0.466,0.3196 0.6048,0.3888 0.5827,0.2909 -0.1881,-0.7361 -0.0108,-1.0692 0.1491,-0.2803 0.7047,-0.6354 0.7344,-0.8964 0.0097,-0.0856 -0.3922,-0.6516 -0.5076,-0.594 -0.5312,0.2656 -0.9195,-0.6365 -0.9396,-1.08l-0.0324 -0.7128c-0.0064,-0.1434 -0.1859,-0.1747 -0.3024,-0.2268 -0.1393,-0.0622 0.2546,-0.4573 -0.0756,-0.6048 -0.2129,-0.0952 -0.5443,-0.8296 -0.6372,-0.7884 -0.3294,0.1459 -0.0471,-0.1442 -0.1404,-0.3024 -0.0379,-0.0641 -0.3419,-0.1839 -0.378,-0.0756l-0.2916 -0.378c-0.0221,-0.0212 -0.1345,-0.162 -0.1728,-0.162 -0.029,-0.087 -0.3825,-0.1512 -0.4968,-0.1512 -0.0746,0 -0.2106,-0.3775 -0.3888,-0.432 -0.3896,-0.1194 -0.5349,-0.3433 -0.4212,-0.6588 0.0216,-0.0598 -0.2344,-0.5077 -0.2916,-0.6048 -0.3357,-0.5701 -1.7192,-0.2916 -2.2896,-0.2916 0,-0.2056 0.1033,-0.9167 0.2376,-1.0368 0.2322,-0.2078 0.6661,-0.048 0.3456,-0.4752 -0.2891,-0.3852 -0.3834,-0.7321 -0.6264,-1.1124 -0.0803,-0.1256 -1.3346,-0.4924 -1.5444,-0.5508 -0.2185,-0.0607 -0.5639,-0.2601 -0.6264,-0.4968 -0.1191,-0.4503 0.3551,0.0411 0.5184,0.0972l0.972 0.3348c0.2869,0.0987 0.46,0.3164 0.756,0.3996l1.1124 0.3132c0.7834,0.2205 1.0368,1.3535 1.0368,1.8684 0,0.5533 0.1789,0.0721 0.3996,0.378 0.1802,0.2496 0.3291,1.2057 0.4536,1.2852 0.139,0.0889 0.2254,-0.0784 0.324,0.1188 0.105,0.2102 0.3306,0.525 0.4968,0.6912 0.2359,0.2359 0.833,0.3133 1.1772,0.5616 0.191,0.1379 -0.0043,0.3915 0.0648,0.5832 0.0688,0.1906 0.5493,0.031 0.594,0.3888 0.1721,0.3341 0.3942,0.4523 0.6372,0.6696 0.1503,0.1345 0.5724,-0.4172 0.5724,-0.2052 0.0516,0.0172 0.104,0.5168 0.1188,0.594 0.093,0.484 0.4495,-0.6089 0.3888,-0.864 -0.0806,-0.3383 -0.54,-0.6562 -0.54,-0.9504 0.356,0.2034 0.6948,0.5026 1.1448,0.3564 0.1519,-0.0494 0.2133,-0.2214 0.1836,-0.3672 -0.0204,-0.1005 -0.0174,-0.648 0.054,-0.648 0.1343,0.5374 0.4132,0.3052 0.648,0.54 0.0943,0.0943 -0.0737,0.8176 -0.0216,1.026 0.1624,0 0.2726,-0.3846 0.3888,-0.486 0.1098,-0.0957 0.2895,-0.1323 0.378,-0.2268 0.1913,-0.204 0.2049,-0.4928 0.432,-0.702 0.1411,-0.1301 0.4164,-0.1362 0.486,-0.3456 0.3053,-0.9185 -0.671,-1.938 -1.35,-2.3652 -0.387,-0.2436 -0.8717,-0.4652 -1.1448,-0.81 -0.0505,-0.0637 -0.8279,0 -0.9936,0 0,-0.4101 0.0428,-0.6696 -0.4536,-0.6696 -0.5479,0 -0.7728,-0.0307 -1.2204,-0.3888 -0.2305,-0.119 -0.4765,-0.015 -0.7236,-0.0864 -0.228,-0.066 -0.1807,-0.4536 -0.4104,-0.4536 -0.2713,0 -0.5257,0.2879 -0.81,0.162 -0.1769,-0.0784 -0.3152,-0.852 -0.3888,-1.0368 -0.023,-0.0576 -0.168,-0.4523 -0.0648,-0.4428 0.4104,0.0379 1.3165,1.0318 1.6524,0.8748 0.1952,-0.0913 0.3231,-0.3245 0.5184,-0.3996 0.3925,-0.1511 0.3233,0.5852 1.0476,0.054 0.4076,-0.299 0.8369,-0.918 1.3608,-0.918 0.2289,0 0.9761,0.3038 1.0368,0.486 -0.3178,0 -0.824,-0.3298 -0.9504,0.0432 -0.1585,0.4675 -0.0853,0.9083 0.2592,1.2528 0.1679,0.1679 0.3007,0.8669 0.5184,0.6912 0.2752,-0.2223 0.6275,-0.9591 0.5832,-1.3176 -0.0159,-0.1295 -0.2407,-0.394 -0.3672,-0.4428 -0.0869,-0.0334 0.3668,-0.1394 0.27,-0.3132 -0.423,-0.76 -0.6588,-1.5543 -0.6588,-2.484 0,-0.3118 0.2732,-0.7796 -0.108,-0.8856 -0.2548,-0.0709 -0.1287,0.2022 -0.1944,0.3672 -0.057,0.143 -0.2916,0.3741 -0.2916,0.5184l-0.1728 -0.5832c-0.0538,-0.182 0.3568,-0.3458 0.4644,-0.5076 0.1203,-0.181 -0.4558,-0.5087 -0.6048,-0.5832 -0.418,-0.4751 -0.921,-0.5987 -1.242,-1.242 -0.3008,-0.6026 -0.1862,-0.5952 -0.6804,-0.3564 -0.1424,0.0687 -0.2995,0.3605 -0.4428,0.4428l-0.9396 0.54c-0.6067,0.3487 0.2651,-0.3529 0.1296,-0.8964 -0.0363,-0.1454 -0.4979,-0.919 -0.594,-0.5508 -0.1195,0.4581 -0.6397,0.5991 -0.9612,0.9288l-0.4212 0.432c-0.639,0.6553 -0.3088,0.0705 -0.0108,-0.3024 0.3427,-0.429 -0.3075,-0.5184 0.0756,-0.5184 0.3858,0 0.5348,-0.0231 0.6372,-0.4212 0.0493,-0.1921 0.4772,-0.3599 0.3024,-0.5184 -0.3331,-0.3023 -0.8091,-0.7593 -0.7668,-1.2744 0.0317,-0.3851 0.4504,-0.3934 -0.1188,-0.8748 -0.1626,-0.1374 0.1145,-0.9656 -0.324,-0.6912 -0.2103,0.1317 -0.6833,0.1806 -0.6696,-0.108 0.0239,-0.5 -0.1524,-0.1771 -0.3996,-0.1296 -0.3289,0.0633 -0.4823,0.0805 -0.7884,-0.0756 -0.3406,-0.1738 -0.3645,0.5562 -0.2916,0.756 0.3137,0.8585 0.2618,0.76 -0.0756,1.5984l-0.6912 1.7172c0.1148,-0.4594 0.303,-1.0185 0.324,-1.5012 0.0155,-0.3581 -0.1214,-0.3251 -0.108,-0.3348 0.6603,-0.4764 0.0707,-1.2871 0.2268,-2.052 0.0456,-0.2238 0.0434,-0.4835 0.0216,-0.7128 -0.012,-0.1257 -0.0848,-0.4753 0.1188,-0.324 0.1698,0.1263 0.4168,-0.0824 0.6696,0.1296 0.2766,0.2321 0.2285,-0.3893 0.3564,-0.4212 0.142,-0.3497 -0.2416,-0.6304 -0.4752,-0.864 -0.1792,-0.1792 -0.2593,-0.5479 -0.4752,-0.6804 -0.195,-0.1198 -0.7904,0.2458 -0.9504,0.3564 -0.2871,0.1983 -0.8284,0.0278 -1.1664,0.1404 0.4068,-1.2206 -0.8407,-0.436 -1.0692,-1.1664 -0.0293,-0.0936 0.14,-0.3231 0.1728,-0.4104 0.2422,-0.6448 0.143,-0.4507 0.3024,-0.0216 0.0998,0.2684 0.2349,0.4842 0.4752,0.6264 0.5064,0.2995 0.5948,-0.7547 1.0152,-0.4752 0.2607,0.1734 0.5688,0.1905 0.8532,0.0648 0.461,-0.2037 -0.2296,-0.9655 -0.486,-1.0368 -0.2156,-0.0599 -0.3676,0.2284 -0.6156,0.0972 -0.126,-0.0667 -0.3348,-0.3715 -0.3348,-0.5292 0.2728,0.0545 0.4174,0.2503 0.7668,0.2376 0.162,-0.0058 0.6755,-0.2301 0.7236,0.0108 0.098,0.1366 0.0796,0.1836 0.216,0.1836 0.0889,0 0.3098,-0.0756 0.3564,0.054 0.0157,0.0436 0.0108,0.1237 0.0108,0.1728 0,0.0637 -0.0216,0.1072 -0.0216,0.162 -0.0587,0.0391 -0.054,0.3461 -0.054,0.432 0.0619,0.3611 0.0604,0.4679 0.3996,0.6372 0.3892,0.1941 0.5571,-0.3349 0.8532,0.0756 0.1202,0.1665 0.6866,0.2513 0.7236,0.3996 0.085,0.0212 0.0244,0.3095 0.0324,0.3888 0.0115,0.1129 0.3119,0.4634 0.432,0.4968 0.1596,0.0443 0.5742,-0.216 0.81,-0.216 0.0045,0.018 0.0072,0.0276 0.0216,0.0324 0,0.1456 0.0779,0.3726 0.108,0.5292 0.0274,0.1431 0.0216,0.4217 0.0216,0.5724 0.1354,0.0338 0.3787,-0.1667 0.5076,-0.2484 0.0685,-0.0435 0.159,-0.0663 0.2268,-0.108 0.0255,-0.0156 0.1176,-0.1086 0.0972,-0.1188 0.2047,-0.1169 0.5041,-0.4744 0.378,-0.7128 -0.1339,-0.2529 0.2529,-0.4438 0.486,-0.6696 0.0672,-0.0652 0.2291,-0.2259 0.27,-0.3132 0.049,-0.1048 0.1281,-0.5184 0.2376,-0.5184 0,0.4074 0.0016,0.5746 -0.2268,0.918 -0.2281,0.3431 -0.4258,0.552 -0.5616,0.9288 -0.1263,0.3501 0.3161,0.7904 -0.324,0.9504 -0.1227,0.4908 0.0216,1.311 0.0216,1.8468 0.8037,0.2009 0.462,-0.4038 0.7992,-0.5724 0.1197,0.1996 -0.0608,0.3564 0.27,0.3564 0.2706,0 0.9612,0.0835 0.9612,-0.2376 0,-0.2784 0.054,-0.537 0.054,-0.8208 0,-0.5356 0.1452,-0.1661 0.594,-0.0972 0.2322,0.0357 0.854,-0.162 0.648,0.1188 -0.1837,0.2506 -0.6289,1.1398 -0.486,1.4256 0.2886,0.5775 0.5833,0.3761 0.7452,-0.1296 0.1066,-0.3327 0.2997,-0.1772 0.6372,-0.2268 0.351,-0.0515 0.4857,-1.0149 0.8316,-1.2744 0.2034,-0.1527 0.8964,-0.4344 0.8964,-0.6912 -0.1931,-0.0482 0.0216,-0.6247 0.0216,-0.81l-0.0108 -0.0108 -0.3024 0.432c-0.5575,0.7965 -1.2393,0.091 -1.8792,-0.2592 -0.3741,-0.2048 -0.2278,-0.3476 -0.3024,-0.7128 -0.0194,-0.0954 -0.2157,0.0196 -0.27,0.0324 -0.1612,0.0379 -0.2827,0.0209 -0.4104,-0.0216 0.0148,-0.0592 0.3248,-0.5587 0.1404,-0.6048 -0.0146,-0.073 -0.2462,-0.3298 -0.3024,-0.4644 -0.1289,-0.3091 0.1703,-0.6004 0.0972,-0.9072 -0.034,-0.1431 -0.6311,-0.4193 -0.7668,-0.54 -0.2166,-0.342 -1.401,-1.5423 -1.7712,-1.566 -0.1696,-0.0109 -0.3456,-0.3763 -0.3456,-0.54 0,-0.2107 0.8573,0.3283 0.9936,0.3348 0.8121,0.0387 1.0185,0.8447 1.728,1.1772 0.8876,0.4161 0.9612,0.4027 0.9612,1.3932 0,0.6697 -0.1152,1.1232 0.6372,1.1232 0.2178,0 0.3854,0.2093 0.54,0.3348 0.315,0.2556 0.9597,0.2776 0.9396,-0.2052 -0.0099,-0.2401 0.608,-1.08 0.378,-1.08 -0.2956,0 0.1222,-0.6163 0.2052,-0.7884 0.0153,-0.0316 0.6554,0.1622 0.6372,-0.0972 -0.0101,-0.1442 0.0848,-0.7709 -0.0648,-0.756l-1.08 0.108c-0.7553,0.0754 -0.1891,-1.3446 -0.972,-1.2852 -0.3595,0.0273 0.1403,-0.4 -0.324,-0.5292 -0.3048,-0.0847 -0.81,-0.0647 -0.81,-0.5616 0.1159,0.1159 0.617,0.4305 0.4968,0.0216 -0.1397,-0.4748 0.7427,0.4659 0.8856,0.6264 0.2857,0.3208 0.216,0.0562 0.216,-0.1944 0,-0.2702 0.2878,-0.0277 0.3132,-0.648 0.0285,-0.6938 0.2808,0.2234 0.2808,0.4104 0,0.3536 -0.3765,0.279 0.0648,0.5724 0.2693,0.1791 0.2238,0.5068 0.3996,0.0864 0.0602,-0.1438 0.8857,-0.1837 0.6588,0.0432 -0.7882,0.7882 0.7111,0.7969 0.9288,-0.27 0.0432,-0.2118 -0.0594,-0.2362 -0.1728,-0.3888 -0.2132,-0.2867 -0.0026,-0.4204 -0.3456,-0.3348 -0.2536,0.0632 -0.6048,-0.1829 -0.6048,-0.4428 0.399,0.3192 0.7799,0.4127 1.188,0.1296 0.38,-0.2635 0.2627,0.1374 0.4104,0.3024 0.2719,0.304 0.216,0.0332 0.216,0.5184 0,0.3904 0.229,-0.3002 0.324,-0.2052 0.1127,0.1127 0.2401,0.3896 0.324,0.54 0.1965,0.3525 0.1728,0.2736 0.1728,-0.0648 0,-0.2775 0.4137,-0.2879 0.3888,-0.7776 -0.0449,-0.8799 -1.0177,-0.2588 -0.8748,-0.8424 0.1349,-0.5506 -0.2364,0.0177 -0.3348,0.0756 -0.3346,0.1971 -0.5918,-0.1836 -0.8856,-0.1836 -0.1081,-0.1959 -0.3996,-0.6575 -0.3996,-0.864 0.1587,0 0.9003,0.6248 1.0476,0.5076 0.2797,-0.2228 -0.4968,-0.7062 -0.4968,-0.9936 0.7966,-0.3983 0.3322,0.1658 1.0692,0.4212 0.2274,0.0788 0.9486,0.5616 1.1124,0.5616 0,-0.3091 -0.6621,-1.5128 -0.864,-1.782 0.1816,-0.1089 0.4721,-0.0166 0.3888,-0.3996 -0.1143,-0.5251 0.1894,-0.836 -0.4644,-0.8856 -0.5951,-0.0452 -0.8828,-0.6852 -1.35,0.0756 -0.0451,0.0734 -1.9656,-0.0765 -1.9656,-0.6588 0.6235,-0.1558 1.6203,0.8041 2.106,-0.2916 0.0979,-0.2211 1.0076,-0.7394 1.188,-0.6588 0.4636,0.2074 0.5167,0.6048 1.2204,0.6048 0.6013,0 1.512,0.0286 1.512,0.8532 0,0.489 -0.335,1.2997 -0.81,1.458 0.0034,0.0138 0.0074,0.0186 0.0108,0.0324 0.1804,0 1.4012,0.6745 1.4688,0.81 0.0291,0.0582 -0.285,0.015 -0.432,0.162 -0.2916,0.2916 -0.0759,1.141 0.1296,1.4148 0.3128,0.4169 0.3888,0.7145 0.2808,1.2312 -0.0272,0.13 -0.4102,0.8085 -0.2052,0.756 0.1875,-0.0481 0.8235,0.2115 0.81,-0.0864 -0.0526,-1.1567 0.2785,-1.309 0.9396,-2.1276 0.3888,-0.4816 0.5727,-0.4724 0.4104,-1.1232 -0.0931,-0.3732 -0.3467,-0.3539 -0.4104,-0.6588 -0.2249,-1.075 -0.3815,-0.4429 -1.0368,-0.972 -0.6059,-0.4893 0.5076,-0.4277 0.5076,-1.0584 -0.5018,-0.1254 0.2747,-0.5494 0.108,-0.756 -0.208,-0.258 0.3492,-0.0428 0.3672,-0.2808 0.0146,-0.1943 -0.1978,-0.3822 -0.27,-0.5508 0.0383,-0.2379 -0.2052,-0.4194 -0.2052,-0.6588 0.2599,-0.0866 0.8886,0.1624 1.0044,-0.2376 0.2217,-0.7661 0.3158,-1.3763 0.1728,-2.1708 -0.0559,-0.3106 -0.1712,-0.4818 -0.4752,-0.2916 -0.1498,0.0938 -0.5878,-0.176 -0.6156,-0.0648 -0.0446,0.0111 -0.0951,0.2345 -0.216,0.2592 -0.21,0.0428 -0.1799,-0.0234 -0.3456,-0.0648 -0.032,-0.1283 0.3786,-0.8424 0.4644,-0.8424 0.0742,0 0.2366,0.3748 0.4644,0.4212 0.0633,0.0129 0.8809,-0.3425 1.0476,-0.3888 0.1998,-0.0556 0.3024,-0.583 0.3024,-0.7884 -0.1067,-0.0266 -0.2011,-0.1577 -0.0864,-0.2592 0.1017,-0.0901 0.6289,-0.0718 0.81,-0.1404 0.1679,-0.0637 0.432,-0.2877 0.432,0 0,0.498 -0.6445,0.2394 -0.5076,0.7884 0.0442,0.1771 -0.2916,1.2276 -0.432,1.2744 0,0.2596 0.6608,0.6967 0.8424,0.864 0.348,0.3208 -0.6588,1.243 -0.8532,1.5444 -0.3144,0.4871 -0.5184,1.19 -0.5184,1.7388 0,0.4623 -0.7115,0.606 -0.2052,0.7884 1.1509,0.4146 -0.6203,0.2981 0.0648,1.134 0.134,0.1636 0.5275,-0.0103 0.756,0.2376 0.0858,0.0932 0.4368,0.7101 0.4644,0.8208l1.566 -1.0692c0.3214,-0.2194 0.9936,-1.0117 0.9936,-1.4148 -0.1696,0 -0.2606,-0.1891 -0.3888,-0.27 -0.2225,-0.1403 -0.2338,0.3853 -0.702,0.1512 -0.4987,-0.2492 -0.4981,-0.6847 -0.9828,-0.1188 -0.5143,0.6005 -0.4536,-0.3427 -0.4536,-0.7452 0.1658,0.0414 0.2006,0.2268 0.4428,0.2268 0.1522,0 0.6077,-0.4026 0.7344,-0.1404 0.2193,0.4542 0.8872,0.5545 1.3176,0.3888 0.7142,-0.2748 0.4381,0.0244 0.5832,0.6048 0.0812,0 0.2467,-0.7132 0.324,-0.8532 0.0939,-0.1699 0.7181,-1.1402 0.8532,-1.1556 0.814,-0.0929 0.9071,-0.167 1.5768,-0.6696 0.6075,-0.4558 1.0309,-1.1296 1.6416,-1.5876 0.4769,-0.3917 0.2816,-1.3071 0.3024,-1.8144 0.0119,-0.2916 0.1286,-0.5577 0.108,-0.8532l-0.0432 -0.6156 -0.0216 0c-0.0144,-0.0433 -0.3177,-0.2097 -0.3888,-0.2808 -0.0656,-0.0656 -0.3263,-0.3888 -0.3996,-0.3888l-0.0108 0.0108c0,0.8826 -0.624,0.3877 -0.8748,-0.0108 -0.1553,-0.2469 -0.3829,-0.4278 -0.324,-0.7236 0.0551,-0.2766 0.0109,-0.6699 0.0864,-0.8964 0.2634,0 0.4563,1.8847 0.7884,0.8856 0.1417,-0.4262 0.4175,-0.8224 0.5076,-1.2636 0.0732,-0.359 0.2204,-1.0294 0.4536,-1.296 0.1997,-0.2069 0.1624,-0.5162 0.378,-0.6912 0.1707,-0.1384 0.2687,0.2592 0.378,0.2592 0,-0.3383 0.3601,-0.4267 0.2484,-0.7884 -0.3644,-1.1792 -1.2607,-2.0537 -1.9008,-3.0564l-0.8964 -1.404c-0.1308,-0.205 -0.3792,-0.3684 -0.5508,-0.54 -0.3223,-0.3223 -0.4358,-0.5956 -0.6588,-1.0044 -0.0544,-0.2179 -0.2626,-0.4064 -0.3564,-0.6264 -0.2161,-0.5071 -0.2837,-1.6263 -0.8208,-1.9332 -0.0786,-0.2752 -0.9254,-0.4215 -1.1772,-0.5724 -0.7398,-0.4437 -0.8538,-1.4823 -1.6524,-1.9548 -0.3384,-0.2001 -0.6611,-0.4895 -0.9288,-0.7776 -0.1794,-0.1929 -0.2047,-0.8732 -0.4428,-0.9072 0.0277,-0.1478 0.059,-0.6044 0.047,-1.0298l0 0 -193.536 -0.0039 0 0 -0.0094 6.1304 -0.0868 3.7107 -0.217 7.7035 -0.366 17.0846 0.1033 5.3971c0.0202,0.0006 0.0411,0.0014 0.0626,0.0014 0.1227,0 0.2394,0.0233 0.3481,0.0233 0.0806,0 0.6071,0.0232 0.6962,0.0232 0.0155,0 0.031,0 0.0464,0 0.0295,0 0.0757,-0.0338 0.0928,-0.0697 0.0661,-0.1382 0.213,-0.3708 0.3249,-0.4651 0.4746,-0.4004 1.816,-0.6717 2.0423,-0.9767 0.638,-0.86 0.5229,-1.5593 1.6012,-2.279 0.5704,-0.3806 0.6178,-1.0353 1.1372,-1.3023 0.6263,-0.3221 1.7956,-0.7974 2.1815,-1.3255 0.691,-0.9455 1.7452,-1.4986 2.7152,-1.1861 0.5514,0.1777 1.2924,-2.5621 1.7405,-2.7673 1.2015,-0.5501 0.7276,0.0351 0.9051,-1.3023 0.1182,-0.8907 1.1137,-0.3982 1.5085,-0.9069 0.1081,-0.1392 0.9512,0.0111 1.1603,-0.1396 0.1343,-0.0969 0.1199,-0.2853 0.2089,-0.4883 0.1187,-0.2704 0.5663,-1.1628 0.6498,-1.1628 0.5104,0 0.4264,0.6003 1.1139,0.4186 0.0996,-0.0263 0.361,-0.722 0.3713,-0.6976 0.1269,0.2997 0.6754,0.6734 0.6962,0.093 0.0159,-0.4425 -0.3481,-0.7399 -0.3481,-1.1163 0,-0.2299 0.7805,-1.8218 0.9515,-0.7906 0.0617,0.3722 0.0179,1.5819 0.5802,0.9534 0.2224,-0.2487 0.5764,-0.9898 0.6962,-1.3022 0.0825,-0.2149 -0.1335,-0.5917 -0.0232,-0.7907 0.1535,-0.2771 0.8439,0.1888 0.9747,-0.0465 0.3672,-0.6601 -0.6101,-0.7905 0.4874,-1.3953 0.7026,-0.3873 -1.0451,-0.6899 0.232,-1.1163 0.297,-0.0992 -0.3936,-0.7152 -0.1624,-0.7906 0.6317,-0.206 1.1114,0.691 1.7637,0.1162 0.9181,-0.8088 0.9211,0.9032 1.3692,-0.4418 0.2197,-0.6592 0.7721,0.4821 0.9051,0.6976 0.4753,0.7703 0.8553,0.1631 1.4389,0.3256 0.3227,0.0899 0.3982,0.5625 0.6266,0.7674 0.2295,0.206 0.6608,0.2627 0.9282,0.3256 0.4576,0.1077 0.8617,0.4147 1.1372,0.8139 0.1769,0.2565 0.5134,-0.2976 0.557,-0.3953 0.1388,-0.3111 -0.0232,-0.8331 -0.0232,-1.1628 0,-0.3881 0.2821,-0.4488 0.6033,-0.5813 0.5887,-0.2428 0.7166,-1.3078 0.8123,-1.3721 0.0485,-0.0325 0.0362,-0.0721 0.0696,-0.093 0.0399,-0.0251 0.0136,-0.0048 0.0464,-0.0233 0.0446,-0.0253 0.0786,-0.0032 0.1393,0 1.0583,0.0565 0.9578,0.2183 1.3692,-1.0464 0.0653,-0.2008 0.7956,-1.7821 0.8819,-1.8372 0.4406,-0.2813 0.5982,0.7384 1.0907,0.1628 0.4944,-0.578 0.0782,-1.4571 0.8586,-1.6744 0.3458,-0.0963 1.0165,-1.5862 1.2996,-1.8139 0.3894,-0.3134 1.6233,1.0325 1.1836,-0.3488 -0.3532,-1.1099 -0.9572,-0.8536 -0.116,-1.6976 0.2716,-0.2724 0.2457,-0.6122 0.4409,-0.9535 0.0737,-0.1287 -0.0939,-0.1773 0,-0.2558 0.1131,-0.0947 0.6589,-0.0044 0.6962,-0.0232 0.0407,-0.0206 0.064,0.0055 0.0929,-0.0233 0.0077,-0.0077 0.0155,-0.0155 0.0232,-0.0232 0.2055,-0.2056 -0.2482,-1.6478 -0.0232,-1.7674 0.0732,-0.0389 0.2826,-0.4727 0.3188,-0.5014 0.4411,-0.3067 0.9126,-0.8501 1.236,-0.5916 0.4487,0.3587 -0.5437,1.1306 -0.3249,1.6744 0.1354,0.3364 0.2921,0.7376 0.7891,0.5581 0.3473,-0.1255 0.5441,-0.4629 0.9283,-0.5814 0.7253,-0.2237 0.9415,0.5263 0.789,1.1395 -0.1158,0.4653 -0.6487,0.7806 -0.8355,0.9069 -0.3226,0.218 -0.9246,-0.0691 -1.1603,0.2559 -0.325,0.4483 0.5906,0.9482 1.0907,0.9767 0.5351,0.0304 0.7261,-0.307 1.1604,-0.2791 0.03,0.0019 0.0442,0.0165 0.0464,0.0465 0.0278,0.3761 0.098,0.9654 0.2089,1.3256 0.1158,0.3764 0.5208,0.1484 0.6265,0.4418 0.0814,0.2257 0.1397,0.4423 0.3714,0.5581 0.3068,0.1532 0.3629,0.1163 0.7194,0.1163 0.6224,0 0.2656,0.4385 0.5337,0.6511 0.354,0.2809 0.9458,0.5488 1.3925,0.6977 0.4507,0.1503 2.2068,0.3961 2.576,0.0698 0.3935,-0.3479 0.6343,0.0445 0.9979,0.2092 0.6272,0.2843 0.5646,-0.5436 0.9515,-0.2558 0.2222,0.1653 0.0678,0.4632 0.2024,0.7092l0 0c0.1707,-0.0328 0.3713,0.0123 0.5291,0.1978 1.0136,1.1918 2.2116,0.056 3.4114,0.1395 0.3947,0.0274 0.6627,0.3957 1.0676,0.4767 0.6248,0.1249 1.0031,-0.2819 1.5896,0.0117 0.3961,0.1984 0.4825,-0.0589 0.673,-0.2907 0.1819,-0.2215 0.2313,-0.6602 0.3249,-0.907 0.1761,-0.4639 0.6768,-0.3047 0.6614,-0.5116 -0.0346,-0.4643 -1.3118,-0.6702 -0.673,-1.0116 0.7291,-0.3896 0.9358,1.2302 1.4505,0.9651 0.1425,-0.0733 -0.1842,-1.1073 0.0348,-1.0348 0.3224,0.1069 0.6605,1.0958 0.8354,0.686 0.5159,-1.2082 -3.0035,-2.1036 -2.2743,-3.1976 0.7456,-1.1184 3.4584,1.2981 3.7132,0.3023 0.1037,-0.4051 -0.31,-0.5781 -0.5338,-0.8023 -0.2719,-0.2726 -2.4536,-1.9244 -1.6941,-2.3487 0.542,-0.3029 1.2297,0.1017 1.7521,0.279 0.1802,0.0612 1.3786,0.923 1.5317,0.8605 0.58,-0.2367 -0.6193,-1.0864 -0.4642,-1.3256 0.4052,-0.6246 0.9933,-0.296 1.6825,0.0233 0.564,0.2614 -0.1206,-0.8079 0.1277,-1.1279 0.1064,-0.137 1.4372,0.1724 1.6941,0.2558 0.7937,0.2576 1.5111,0.5681 2.2395,0.9651 0.6376,0.3474 1.5472,0.5918 1.636,-0.3372 0.049,-0.5125 0.389,-0.8408 0.6963,-1.2441 0.2157,-0.2829 1.2327,-0.8938 1.4388,-1.1395 0.2466,-0.2942 -0.7133,-0.8669 -0.2321,-1.2442 0.4654,-0.365 1.3451,0.1408 1.7637,-0.279 0.7812,-0.7836 0.9083,-1.932 2.4252,-1.0814 0.9084,0.5095 2.2019,0.4105 3.1329,0.7907 0.8811,0.3597 1.5319,0.9623 2.4251,1.3953 0.3003,0.1456 0.6334,0.6624 0.8355,1.0116 0.226,0.3903 0.6253,0.7658 0.9515,1.0581 0.5513,0.4938 0.9493,1.3148 1.2763,1.9883 0.3713,0.765 0.4642,0.5455 1.0676,0.8604 0.4216,0.2199 1.239,0.1808 1.6477,-0.2325 0.1743,-0.1762 0.632,-0.9411 1.0559,-0.4186 0.421,0.5191 0.0697,1.1025 0.2436,1.6278 0.4142,1.2515 1.457,-0.7566 0.8587,-1.5232 -0.2043,-0.2619 -0.4674,-0.415 -0.3017,-0.8023 0.0384,-0.0897 0.357,-0.0444 0.4293,0.0349 0.0307,0.0338 0.0564,0.019 0.0929,0.0465 0.0281,0.0212 0.2432,0.2046 0.2668,0.2442 0.0347,0.0579 0.1363,0.2111 0.1509,0.2791 0.155,0.7201 1.1271,0.5984 1.7173,0.7906 1.4335,0.4667 0.5385,-0.3908 0.7194,-1.0581 0.0953,-0.3513 1.2124,0.2928 1.4969,0.4186 0.4614,0.2042 1.2123,0.0724 1.5896,0.314 0.5648,0.3615 0.3081,2.5237 -0.0348,2.9999 -0.3902,0.542 -1.522,0.2674 -2.1002,0.2674 -1.8062,0 -0.8525,0.9956 0.058,1.6395 0.5108,0.3611 0.1685,1.188 0.1393,1.7092 -0.0449,0.8023 1.0424,0.1804 1.404,-0.0814 0.368,-0.2665 -0.0141,-0.7641 0.4525,-0.8953 0.5923,-0.1665 0.9143,0.4527 0.7542,0.9651 -0.1794,0.5745 -1.3944,1.0116 -1.4388,1.4069 -0.06,0.5351 2.6929,0.8465 3.133,0.6861 0.6621,-0.2412 0.804,-0.7684 1.52,-0.5465 1.0748,0.3331 -0.5193,0.9437 -0.7658,1.0348 -0.86,0.318 -1.0998,0.9566 -0.1509,1.4767 0.1938,0.1062 0.9595,0.6093 0.2553,0.5698 -0.2826,-0.0158 -1.0452,-0.3685 -1.0675,0.186 -0.0217,0.5374 0.731,0.6311 0.731,1.0814 0,0.2119 -1.0383,0.194 -1.0907,0.372 -0.178,0.6051 1.0375,0.8544 1.5432,0.8023 0.4084,-0.042 1.3127,-0.0619 1.5433,0.4535 0.1259,0.2813 0.77,1.679 0.8935,2.0232 0.3834,1.069 -0.5356,0.6988 -0.8239,1.2441 -0.1787,0.3379 0.4253,1.067 0.5338,1.4535 0.2971,1.0583 -1.0876,1.0808 -0.9515,1.6976 0.0703,0.3184 0.6962,0.3556 0.9515,0.5116 0.4429,0.2705 0.6871,0.5251 1.0733,0.6495l0.0023 0.005c0.1082,0.0348 0.2252,0.0545 0.3632,0.0664 0.3926,0.0338 0.6712,-0.0593 1.0559,0.0349 0.361,0.0885 0.6451,0.1845 1.0095,0.0232 1.1048,-0.489 0.9325,0.1183 1.7057,0.6512 0.1163,0.0801 0.2854,0.0492 0.4062,0.1163 0.3657,0.2029 1.2266,0.4982 1.6593,0.5697 0.5481,0.0907 1.1977,0.2509 1.7521,0.1744 0.4251,-0.0587 1.1682,-0.4302 1.5549,-0.2907 0.2403,0.0867 0.364,1.3272 0.4409,1.6279 0.093,0.364 0.4423,0.5082 0.6614,0.779 0.3035,0.3752 0.384,0.8079 0.8586,1.0814 0.5441,0.3137 1.2508,0.4577 1.845,0.6628 0.3481,0.1201 0.6963,0.2403 1.0443,0.3604 0.8099,0.2794 1.7098,1.2674 1.6477,2.1976 -0.0164,0.2469 -0.3554,0.4119 -0.5918,0.5349 -0.6694,0.3482 -0.2183,1.0753 -0.4409,1.6627 -0.3308,0.8732 -0.9318,0.5098 -1.6013,0.7209 -1.1947,0.3766 -1.4706,2.3595 -1.0095,3.4069 0.1551,0.3523 -0.0401,0.8641 0.1044,1.2209 0.0958,0.2363 0.336,0.221 0.5222,0.3139 0.0878,0.0437 0.2097,0.0066 0.3017,0.0465 0.2165,0.0937 0.6207,0.2822 0.847,0.3489 0.0896,0.0263 0.1673,0.073 0.2437,0.1279 0.0303,0.0217 0.0642,0.0273 0.0928,0.0465 0.0116,0.0077 0.0233,0.0155 0.0348,0.0232 0.416,0.2773 0.5596,1.0106 0.7195,1.5 0.0834,0.2551 0.2497,0.5017 0.4989,0.6744 0.2266,0.1569 0.522,0.3113 0.7774,0.3837 0.5005,0.1418 1.09,0.299 1.6013,0.4186 0.5802,0.1356 1.1604,0.2714 1.7405,0.4069 0.4671,0.1092 2.766,0.3009 3.191,0.1861 0.4187,-0.1132 1.0448,0.2201 1.3344,0.5465 0.3189,0.3592 0.7846,0.0697 1.1719,0.2441 0.3029,0.1365 0.4953,0.5911 0.8123,0.7907 0.3527,0.2222 0.817,0.6425 1.23,0.7442 0.2694,0.0664 0.9727,0.3786 1.1603,0.686 0.2318,0.3801 -0.6793,1.8467 -0.3829,2.4418 0.4223,0.8475 1.1293,1.4171 2.0654,1.6627 0.7753,0.2035 1.1762,0.3488 1.9842,0.3488 0.5912,0 1.1208,-0.1297 1.7057,-0.0348 0.3469,0.0563 0.5589,0.2009 0.8471,0.3255 0.0907,0.0392 0.1337,0.1738 0.2088,0.2442 0.3088,0.2892 0.5057,1.1782 0.6382,1.5697 0.0683,0.2018 0.1772,0.3876 0.3078,0.5587l0 0z"/>
 </g>
</svg>
