<?xml version="1.0" encoding="UTF-8"?>
<!DOCTYPE svg PUBLIC "-//W3C//DTD SVG 1.1//EN" "http://www.w3.org/Graphics/SVG/1.1/DTD/svg11.dtd">
<!-- Creator: CorelDRAW -->
<svg xmlns="http://www.w3.org/2000/svg" xml:space="preserve" width="297mm" height="210mm" style="shape-rendering:geometricPrecision; text-rendering:geometricPrecision; image-rendering:optimizeQuality; fill-rule:evenodd; clip-rule:evenodd"
viewBox="0 0 297 210"
 xmlns:xlink="http://www.w3.org/1999/xlink">
 <defs>
  <style type="text/css">
   <![CDATA[
    .str2 {stroke:#2F3133;stroke-width:0.1}
    .str1 {stroke:black;stroke-width:0.1;stroke-opacity:0.501961}
    .str0 {stroke:black;stroke-width:0.1}
    .str3 {stroke:black;stroke-width:0.5}
    .fil5 {fill:none}
    .fil0 {fill:white}
    .fil4 {fill:#1F1A17;fill-rule:nonzero}
    .fil2 {fill:#C2C1C1;fill-rule:nonzero}
    .fil3 {fill:white;fill-rule:nonzero}
    .fil6 {fill:black;fill-rule:nonzero}
    .fil1 {fill:white;fill-rule:nonzero;fill-opacity:0.501961}
   ]]>
  </style>
 </defs>
 <g id="Plan_x0020_1">
  <metadata id="CorelCorpID_0Corel-Layer"/>
  <path class="fil0 str0" d="M199.288 76.6289c0.1451,-0.112 0.3278,-0.2137 0.4177,-0.3838 0.0593,-0.1121 0.1013,-0.2615 0.1625,-0.3604 0.0454,-0.0736 0.1986,-0.2379 0.2204,-0.3256 0.0383,0 0.0388,0.0156 0.0697,0.0233 0.0216,0.0867 0.0858,0.172 0.1276,0.2558 0.0948,0.1903 0.0394,0.4036 0.0812,0.6046 0.046,0.2215 -0.1045,0.6161 -0.2669,0.7791 -0.0859,0.0861 -0.2212,0.0446 -0.2552,-0.0582 -0.0261,-0.0792 -0.0417,-0.173 -0.0465,-0.2558 -0.0043,-0.0728 -0.0544,-0.0938 -0.0696,-0.1395l-0.0232 0c-0.0104,-0.0314 -0.1141,-0.0028 -0.1392,0 -0.0818,0.0091 -0.1269,-0.0348 -0.1857,-0.0465l-0.0928 -0.093zm1.2764 -2.5465c-0.0237,0.0055 -0.0828,0.0042 -0.1045,0.0117 -0.1113,0.0383 -0.2627,0.2089 -0.3481,0.3023 -0.0346,0.0379 -0.0565,0.0984 -0.0928,0.1395 -0.0289,0.0329 -0.094,0.0861 -0.1044,0.1279 -0.0232,0.0058 -0.0721,0.0399 -0.0812,0.0581 -0.0772,0 -0.1787,0.1157 -0.1857,0.1861 -0.0047,0.0471 -0.0116,0.097 -0.0116,0.1511 0,0.0802 0.0166,0.1082 0.0348,0.1628 0.1082,0 0.1297,-0.0553 0.1857,-0.1395 0.0383,-0.0578 0.1041,-0.0994 0.1508,-0.1512 0.0764,-0.0845 0.1373,-0.177 0.2205,-0.2441 0.0461,-0.0371 0.226,-0.1386 0.2436,-0.2093 0.0149,-0.0037 0.02,-0.008 0.0349,-0.0117 0.0136,-0.0547 0.1613,-0.0768 0.174,-0.1279 0.1151,0 0.1752,-0.1468 0.1509,-0.2441 -0.0229,0 -0.0266,-0.0068 -0.0465,-0.0117l-0.2204 0zm1.3924 -0.3023c0.0132,-0.0574 0.0148,-0.1151 0.0116,-0.1744 -0.0034,-0.0619 -0.0348,-0.1072 -0.0348,-0.1628l-0.0232 0c-0.0124,-0.0374 -0.1748,-0.0232 -0.2205,-0.0349 -0.0295,-0.0076 -0.0728,-0.0056 -0.1044,-0.0116 -0.1783,-0.0342 -0.3017,0.0778 -0.3017,0.2558 0,0.0642 0.0466,0.1397 0.0928,0.1861 0.029,0.029 0.0963,0.1084 0.1277,0.1162 0.0115,0.0579 0.0569,0.114 0.0812,0.1628 0.018,0.0364 0.0697,0.186 0.1392,0.1512 0.0787,-0.0395 0.1436,-0.1956 0.1973,-0.2675l0.0348 -0.2209zm0.9399 0.8953c-0.0106,-0.064 0.0386,-0.1857 0.058,-0.2674 0.0392,-0.1653 0.0542,-0.2802 0.1392,-0.4186 0.0841,-0.1367 0.2481,-0.26 0.3829,-0.3953 0.145,-0.1454 0.2268,-0.3721 0.4642,-0.3721 0.0059,0.0178 -0.0003,0.0116 0.0232,0.0116 0,0.0792 -0.0825,0.1964 -0.1276,0.2675 -0.099,0.1562 -0.2032,0.3422 -0.2785,0.5116 -0.0271,0.0609 -0.1513,0.4884 -0.1973,0.4999 0,0.0348 -0.0232,0.0466 -0.0232,0.0814 -0.0314,0.0104 -0.1156,0.1391 -0.1508,0.1745 -0.1028,0.103 -0.4562,0.4999 -0.6034,0.4999 -0.0059,0.0179 0.0005,0.0117 -0.0232,0.0117l-0.0116 -0.0117c0,-0.0407 0.0223,-0.0701 0.0464,-0.1046l0.3017 -0.4884zm2.8196 1.8953c0.0229,-0.0176 0.0884,-0.0745 0.1161,-0.0814 0.0241,-0.0964 0.3132,-0.1445 0.3132,-0.279 -0.0226,-0.0075 -0.0006,-0.0042 -0.0232,-0.0117 -0.0122,-0.0489 -0.2102,-0.1244 -0.2552,-0.1511 -0.12,-0.071 -0.1382,-0.0898 -0.2785,-0.0698 -0.0087,0.035 -0.0348,0.0143 -0.0348,0.0582 0,0.2918 -0.0152,0.5368 -0.0813,0.8023 -0.0154,0.0051 -0.0184,0.0154 -0.0232,0.0348l-0.0116 0.0117c-0.0324,0.0081 -0.014,0.0267 -0.0464,0.0348 -0.0374,0.1129 -0.3835,0.1047 -0.4989,0.1047 -0.1078,0 -0.4093,-0.0653 -0.4642,0.0581 -0.0889,0.1999 0.4194,0.2454 0.5454,0.221 0.0992,-0.0191 0.2699,-0.0614 0.3133,-0.1512 0.01,-0.0209 0.1594,-0.2485 0.174,-0.2558 0.0131,-0.0527 0.0662,-0.1022 0.0813,-0.1628 0.0169,-0.0056 0.0089,-0.0041 0.0232,-0.0233l0.1508 -0.1395zm0.4227 -2.4301c-0.0568,-0.0407 -0.1104,-0.0615 -0.1798,-0.0698 -0.0259,-0.003 -0.0521,-0.0079 -0.0813,-0.0058 -0.0258,0.0019 -0.0474,0.0177 -0.0696,0.0232 -0.007,0.0285 -0.0232,0.0467 -0.0232,0.0814 0,0.0678 0.0055,0.1298 0.029,0.1919 0.0297,0.0788 0.1281,0.1388 0.2089,0.1337 0.0423,-0.0026 0.0917,-0.0441 0.1102,-0.0814 0.0282,-0.0565 0.0406,-0.1406 0.0406,-0.2035l-0.0348 -0.0697zm-0.0986 -0.9128c-0.0202,-0.0657 -0.0652,-0.1219 -0.1102,-0.1744 -0.0592,-0.0692 -0.0748,-0.1337 -0.1799,-0.1337 -0.0074,0.0074 -0.008,0.0093 -0.0174,0.0116 -0.08,0.14 0.0102,0.2772 0.087,0.3953 0.0448,0.0691 0.1063,0.1298 0.1683,0.1919 0.0544,0.0546 0.1302,0.0902 0.1682,0.157 0.0433,0.0108 0.0545,0.0241 0.1045,0.0116 0.0273,-0.0547 0.0083,-0.0901 -0.0116,-0.1454 -0.0185,-0.0513 -0.0464,-0.1799 -0.0813,-0.2151l0 -0.0232 -0.1276 -0.0756zm0.5976 5.7847c-0.0389,0.0129 -0.0873,0.0266 -0.1335,0.0291 -0.0924,0.0052 -0.1563,0.0316 -0.2378,0.0697 -0.0958,0.0447 -0.2263,0.0673 -0.2263,0.1977 0,0.0471 0.1441,0.0581 0.1798,0.0581 0.1333,0 0.2539,-0.0659 0.3714,-0.1046 0.0517,-0.0171 0.105,-0.0397 0.1566,-0.0581 0.0819,-0.0291 0.087,-0.0838 0.087,-0.1628 -0.0181,-0.0129 -0.025,-0.02 -0.0464,-0.0291l-0.1508 0zm1.6186 -1c-0.0096,-0.0022 -0.0192,-0.0044 -0.029,-0.0058 -0.0206,-0.0206 -0.0505,-0.0259 -0.0754,-0.0407 -0.0569,-0.0336 -0.1251,-0.0729 -0.1973,-0.0756 -0.083,-0.0032 -0.1537,-0.0048 -0.2088,0.064l0 0.0291c0.0338,0.0422 0.0647,0.0774 0.116,0.093 0.0376,0.0115 0.0783,0.0475 0.1102,0.0697 0.0257,0.0178 0.0581,0.0278 0.0871,0.0349 0.0533,0.013 0.0753,0.0465 0.1334,0.0465 0.0481,0 0.1095,-0.0586 0.116,-0.1046l-0.0522 -0.1105zm19.0817 26.8829l0 -0.2075 0 -0.1349c0,-0.0477 0.0046,-0.1019 -0.0058,-0.1453l0 -0.0414c-0.072,-0.0541 -0.1036,-0.0548 -0.1857,-0.035 -0.1048,0.0254 -0.1338,0.156 -0.1682,0.2384 -0.0358,0.0862 -0.042,0.1895 -0.0813,0.2732 -0.0386,0.0827 -0.103,0.252 -0.0928,0.343 0.0023,0.0214 0.0385,0.0789 0.058,0.0932 0.0218,0.0157 0.1186,0.0474 0.1219,0.0522 0.04,0 0.0944,0.0042 0.1218,-0.0231 0.0866,-0.0868 0.1352,-0.2308 0.2031,-0.3373l0.029 -0.0755zm24.6527 64.9745c-0.1426,0 -0.2886,0.0349 -0.441,0.0349 -0.1055,0 -0.2471,0.0193 -0.3481,0 -0.1114,-0.0214 -0.203,-0.0226 -0.3133,-0.0116 -0.0668,0.0067 -0.1216,0.1349 -0.1392,0.186 -0.0162,0.0473 0.0443,0.1422 0.0696,0.1744 0.0773,0.0979 0.2811,0.1374 0.3945,0.1744 0.0889,0.0291 0.1632,0.1089 0.2553,0.1163 0.169,0.0137 0.6934,0.0866 0.789,-0.1046 0.0784,-0.0112 0.1277,-0.1476 0.1277,-0.2209 0,-0.1162 -0.0716,-0.2279 -0.1741,-0.2791l-0.2204 -0.0698zm3.1097 2.9302c-0.491,0 -0.9853,0.0042 -1.3924,-0.221 -0.4282,-0.237 -0.9955,-0.1734 -0.4874,0.3954 0.1873,0.2098 0.4046,0.4143 0.5686,0.6279 0.1316,0.1712 0.2082,0.3247 0.3713,0.4883 0.1066,0.1068 0.3736,0.2302 0.5222,0.2558 0.1265,0.0217 0.6052,0.2823 0.6846,0.3837 0.0856,0.1091 0.359,0.2869 0.4873,0.2442 0,-0.104 -0.4757,-0.3682 -0.4757,-0.5697 0.4866,0 0.6236,-0.3762 0.5917,-0.7907 -0.0164,-0.2129 -0.3782,-0.6938 -0.5801,-0.7442l-0.2901 -0.0697zm7.3566 5.5812l-3.4114 -1.5814c-0.4715,-0.2185 -2.5828,-1.2141 -2.7036,-1.6976 0.1196,-0.1196 1.1416,0.1694 1.1951,0.3837 0.2001,0.1 0.1873,0.4604 0.4874,0.5233 0.2512,0.0527 0.5467,0.1658 0.789,0.0232 0.432,-0.2541 0.7658,-0.5722 0.7658,-1.093 0,-0.5307 -0.5102,-0.4044 -0.847,-0.2674 -0.0884,0.0442 -0.1798,0.0698 -0.2785,0.0698 -0.0536,-0.0404 -0.1217,-0.0412 -0.116,-0.1396 0.0044,-0.0749 0.0386,-0.1475 0.0812,-0.2093 0.096,-0.1396 0.2625,-0.2198 0.4177,-0.279 0.078,-0.0298 0.2099,-0.0824 0.2669,-0.1396 0.0162,-0.0032 0.0302,-0.0084 0.0464,-0.0116 0.0226,-0.0226 0.0524,-0.0509 0.0812,-0.0581 0.014,-0.014 0.0276,-0.0171 0.0464,-0.0233 0.0513,-0.0029 0.0999,-0.006 0.1509,0 0.38,0.38 0.8484,0.4186 1.3692,0.4186 0.3213,0 0.6597,0.0077 0.9747,0.0465 0.3807,0.047 0.782,-0.0123 1.1603,0.0349l2.6804 -0.5465c0.1412,-0.0288 0.8109,0.7093 1.288,0.7093 -0.5095,0.1698 -0.5391,1.1627 0.0464,1.1976 0.6227,0.0372 0.8825,-1.0029 1.4737,-1.093 0.3089,-0.0471 0.1617,-0.4883 0.3481,-0.4883 0.608,0 3.1436,-0.4833 2.7036,-1.2907 -0.3672,-0.6737 -0.771,-0.7674 0.1392,-0.7674 0.7064,0 1.7986,-0.6502 1.7986,-1.4302 0,-0.5415 -0.6949,-1.4069 -1.2996,-1.4069 -0.5604,0 -0.6631,0.75 -0.7775,1.1627 -0.0663,0.239 -0.3003,-0.026 -0.4177,0.2791 -0.0318,0.0825 -0.0204,0.5087 -0.058,0.5465 -0.234,0.2357 -0.7426,-0.0773 -0.7426,0.7209 0,0.4874 -0.3284,0.1601 -0.5454,0.5465 -0.2503,0.4454 -0.3992,0.3213 -0.7658,0.5465 -0.2192,0.1347 0.0547,0.6706 -0.4293,0.5465 -0.2557,-0.0656 -0.5988,0.0927 -0.6614,0.3372 -0.0927,0.3624 -0.032,0.505 -0.383,0.3023 -0.8283,-0.4782 -0.793,-0.3005 -0.0696,-0.6628 1.7921,-0.8974 3.1829,-2.4274 4.0264,-4.3254 0.3085,-0.3212 0.499,-1.4108 0.499,-1.872 0,-0.5222 -0.5286,-0.7243 -0.6266,-1.1163 -0.0444,-0.0111 -0.0402,-0.0595 -0.0812,-0.0697 -0.0161,-0.0649 -0.1351,-0.1056 -0.1625,-0.1745 -0.11,-0.022 -0.6366,-0.1681 -0.6614,-0.2674 -0.0553,-0.0138 -0.0612,-0.0677 -0.116,-0.0814 -0.0416,-0.1666 -0.3637,-0.4414 -0.4293,-0.6976 -0.2297,-0.8975 0.9458,0.5059 1.0095,0.5697 0.4078,0.4088 0.7875,0.6791 1.0791,1.2209l1.1951 2.2209c0.3983,0.74 0.7404,1.5027 1.2184,2.2208 0.0925,0.3193 0.3229,0.74 0.5338,1 0.304,0.3746 0.5161,1.1034 0.7426,1.5581 0.13,0.2608 0.3136,0.5595 0.3945,0.8255 0.0486,0.1596 0.1816,0.7167 0.2785,0.814 0,0.481 0.2156,0.9437 0.174,1.4999 -0.0438,0.5847 -0.2753,1.19 -0.6265,1.6744 -0.0019,0.0014 -0.1164,0.1105 -0.1393,0.1162 -0.0046,0.0141 -0.027,0.0301 -0.0464,0.0349 -0.0103,0.0207 -0.031,0.0311 -0.0464,0.0582l-0.0232 0c-0.0841,0.1473 -0.5992,0.3569 -0.7659,0.372 -0.6068,0.7303 -3.7154,0.2322 -4.5601,0.1512l-2.4251 -0.2326c-0.3938,-0.0378 -0.8231,0.0233 -1.1604,0.2442 -0.5037,0.33 -0.5971,0.2459 -1.1603,0.0582l-2.9241 -1.0116zm-47.5278 -19.3598c-0.0422,-0.1377 -0.2828,-0.5449 -0.1857,-0.6744 0.0343,0.0085 0.0522,0.0116 0.0928,0.0116 0.2142,-0.2677 0.1184,-0.5588 0.1857,-0.8953 0.7879,-0.1969 0.9512,-0.1469 1.2416,-1.0233 0.8242,0 1.2299,0.0883 1.2299,-0.9418 0.4019,-0.1004 0.7306,-0.1732 1.0908,-0.4418 0.3652,-0.2722 0.6512,-1.2925 1.288,-1.1628 0.457,0.0931 0.539,-0.1212 0.8586,-0.3953 0.1067,-0.0914 0.6193,-0.8903 0.6614,-0.7209 0.017,0.0056 0.0795,0.0744 0.1044,0.093l0.4294 0.3256c0,-0.7825 -0.4048,-0.504 0.4177,-0.9767 0.7315,-0.4205 0.1428,0.3407 0.0232,0.686 -0.2771,0.8003 0.0842,0.093 0.6266,0.093 0.5043,0 0.5505,-0.0516 1.0211,-0.2442 0.7004,-0.2865 0.2532,0.965 -0.5222,1.0232 -0.2934,0.022 -0.5495,-0.2441 -0.9166,-0.2441 -0.4703,0 -0.0437,0.2888 -0.3365,0.4186 -0.3946,0.1751 -0.2291,-0.0366 -0.1277,0.372 0.108,0.4356 -0.3968,0.7979 -0.8006,1 -0.4363,0.2185 -0.8483,0.0367 -1.2416,0.1977 -0.2001,0.0818 -0.5134,0.6172 -0.7194,0.8023 -0.429,0.3857 -1.4508,-0.3764 -1.1255,0.686 0.2883,0.9413 -0.034,1.3255 -0.9979,1.3255 -0.2277,0 -0.6768,0.8224 -0.8703,1 -0.2396,0.2201 -1.0768,0.2158 -1.2532,-0.093l-0.174 -0.2209zm-0.4758 -0.1628c-0.0314,-0.0145 -0.0472,-0.0187 -0.0696,-0.0349 -0.0338,-0.0243 -0.0727,-0.0613 -0.1044,-0.093 -0.0223,-0.0224 -0.0484,-0.0387 -0.0696,-0.0582 -0.0245,-0.0227 -0.0248,-0.0279 -0.0581,-0.0465 -0.0425,-0.0236 -0.094,-0.0566 -0.1276,-0.093 -0.032,-0.0348 -0.0638,-0.0695 -0.0696,-0.1163l-0.0348 -0.0349c-0.0794,-0.0051 -0.1137,-0.0447 -0.1277,0.0117 -0.045,0.0112 -0.0942,0.034 -0.1392,0.0465 -0.0229,0.0064 -0.0575,-0.0048 -0.0812,0 -0.0156,0.0031 -0.0424,0.0201 -0.0581,0.0232 -0.0634,0.0129 -0.2102,0.0079 -0.2668,-0.0116 -0.0232,-0.0079 -0.0645,-0.0038 -0.0929,-0.0116 -0.0237,-0.0066 -0.0692,-0.0117 -0.0928,-0.0117 -0.1967,0.037 -0.2992,-0.0465 -0.4757,0.0814 -0.2727,0.1974 -0.3149,0.5477 -0.2669,0.8605 0.029,0.1896 0.0809,0.5701 0.2901,0.6395 0.3624,0.1201 0.7641,-0.3099 1.0907,-0.4535 0.1754,-0.077 0.3117,-0.0438 0.4757,0.0233 0.1357,0.0554 0.1962,0.2093 0.3598,0.2093 0.0595,-0.0898 0.1616,-0.1661 0.174,-0.3023 0.0108,-0.1198 0.0007,-0.3251 -0.0928,-0.4186l-0.1625 -0.2093zm-3.3186 0.279c-0.2147,0.2651 -0.3743,0.6175 -0.7078,0.7442 -0.4189,0.159 -0.6681,0.711 -1.0559,0.7907 -0.1754,0.0361 -0.5896,0.0525 -0.7542,0.0116 -0.2148,-0.0533 -0.3408,-0.1616 -0.5686,-0.1047l-0.0116 0.0117c-0.0927,0.371 -0.3249,0.6826 -0.3249,1.0813 0,0.31 0.7334,0.211 0.9515,0.1861 0.6885,-0.0789 1.4459,0.0563 2.0654,-0.3372 0.2204,-0.1399 0.4922,-0.2799 0.7078,-0.4419 0.1157,-0.0868 0.4307,-0.5986 0.1741,-0.6627 -0.0709,-0.178 -0.4273,-0.2482 -0.4874,-0.4651 -0.0476,-0.1717 0.0581,-0.4292 0.0581,-0.6163l-0.0465 -0.1977zm-4.2767 2.4709l-0.029 0.029c-0.1608,0 -0.2949,-0.2487 -0.3713,-0.3662 -0.147,-0.2257 -0.2251,-0.2612 -0.4293,-0.3837 -0.0597,0.0119 -0.2555,0.3954 -0.3249,0.4651 -0.1296,0.1299 -0.3045,0.176 -0.4641,0.2558 -0.3142,0.157 -0.196,0.5877 -0.5048,0.7674 -0.0838,0.0488 -0.1954,0.0379 -0.2611,0.1163 -0.0727,0.0866 -0.1444,0.4878 -0.0348,0.5523 0.208,0.1223 0.9243,-0.363 1.0675,-0.5116 0.1422,-0.1474 0.2593,-0.3148 0.4062,-0.4535 0.0603,-0.0568 0.2335,-0.1953 0.2726,-0.25 0.0909,-0.0202 0.1477,-0.0756 0.2495,-0.0756 0.1101,0 0.1903,0.0515 0.3075,-0.0116l0.116 -0.1337zm6.3306 15.8657c0.1881,0.1015 0.4745,0.0955 0.673,0.0233 0.1251,-0.0456 0.2256,-0.1192 0.3365,-0.1977 0.0627,-0.0445 0.3186,-0.2251 0.3365,-0.2791 0.0481,0 0.157,0.354 0.1856,0.4186 0.0715,0.1619 0.218,0.1861 0.3945,0.1861 0,0.1061 -0.0619,0.2022 -0.0696,0.3139 -0.0129,0.1871 -0.011,0.5581 -0.2553,0.5581 -0.2348,0 -0.4625,-0.0401 -0.6846,-0.093 -0.2961,-0.0704 -0.5392,-0.0643 -0.7658,-0.2674 -0.124,-0.111 -0.5795,-0.3811 -0.4293,-0.5814l0.2785 -0.0814zm18.728 -8.6043c0.1036,-0.0446 0.9453,-0.0216 0.9746,-0.1396 0.1295,0 -0.3677,-0.1511 -0.4989,-0.1511 -0.3201,0 -0.4641,-0.0796 -0.4641,-0.4535 0.2348,0 0.3619,-0.0006 0.6149,-0.0465 0.2718,-0.0494 0.4377,0.0581 0.673,0.0581 0,-0.2902 -0.4365,-0.4301 -0.4989,-0.779 -0.0104,-0.0581 -0.2425,-0.9444 -0.0812,-0.6395 0.1132,0.2142 0.1432,0.4321 0.2901,0.6279 0.1945,0.2595 0.3324,0.1212 0.5453,0.1744 0,0.4501 0.0733,0.9637 0.6034,1.0697 0,0.0607 -0.4571,0.1962 -0.5338,0.2093 -0.0726,0.0125 -0.5317,-0.0061 -0.5453,0.0349 0.288,0 0.586,0.0697 0.8934,0.0697 0.3286,0 0.6722,-0.0515 0.9979,0.0117 0.4948,0.0959 1.4633,0.143 1.903,-0.0698 0.2017,-0.0977 0.3434,-0.342 0.6034,-0.407 -0.0136,-0.041 -0.116,-0.1006 -0.116,-0.1511 -0.2159,-0.0539 -0.416,-0.2526 -0.6034,-0.3954 -0.2624,-0.7216 0.0884,-1.4503 -0.1741,-2.0813 -0.2446,-0.5877 -0.4569,-0.7399 0.2901,-0.9999 0.2105,-0.0733 -0.1126,-0.6014 -0.2089,-0.6977 -0.1195,-0.1195 -0.3462,0.1148 -0.4873,0 -0.2066,-0.1683 -0.0913,-0.3776 -0.3597,-0.5116 -0.3027,-0.151 -0.5565,-0.1739 -0.8471,-0.3837 -0.281,-0.2027 -0.6448,-0.3498 -0.8702,-0.6163l-0.8355 -0.9883c0,0.8603 0.8395,1.2602 1.3924,1.7557 0.205,0.1836 -0.6904,0.124 -0.8586,0.0117 -0.1307,-0.0874 -0.8469,-0.7895 -0.8587,-0.8837 -0.014,-0.1113 0.1409,-0.6292 -0.1276,-0.5465 -0.2574,0.0792 -0.7981,0.6801 -0.6034,0.1163 0.192,-0.5557 0.375,-0.3951 0.0812,-0.8954 -0.1383,-0.2357 0.2909,-0.5945 0.5106,-0.5697 0.1932,0.0217 0.4446,0.6656 0.4873,0.8372 0.1427,-0.0237 -0.1763,-0.6858 -0.1856,-0.7558 0,-0.8354 -0.0537,-1.5578 -0.2205,-2.3604 -0.1437,-0.691 -0.2857,-1.717 -1.1255,-0.9883 -0.1338,0.1162 -1.0443,0.8883 -1.0443,1.0116 0.13,0 0.5407,-0.0898 0.6033,0.0116 0.116,0.1876 -0.0646,0.6608 -0.1856,0.8255l-1.3924 1.8953c0,-0.6191 0.1436,-0.9769 0.4641,-1.4883 0.0306,-0.0488 0.2848,-0.3526 0.2089,-0.3953 -0.052,-0.0293 -0.3729,0.2919 -0.3017,-0.0582 0.043,-0.2111 0.3365,-0.4898 0.3365,-0.6511 -0.0574,0.0143 -0.5846,0.439 -0.6614,0.3023 -0.0908,-0.1619 0.2981,-1.0164 0.3481,-1.2209 0.2123,-0.8665 0.1879,-2.1655 -1.0327,-1.3372 -0.2498,0.1696 -1.3654,0.9841 -1.2416,1.1628 0.415,0.5993 0.3017,0.9762 0.3017,1.779 -0.1469,0 -0.2669,-0.6045 -0.2669,-0.7442 0,-0.5576 -0.2609,-0.2852 -0.4873,-0.5116 -0.066,-0.066 0.0842,-0.3463 0.1044,-0.4069 -0.0523,0.0174 -0.2546,0.2482 -0.3249,0.3023 -0.1921,0.1481 -0.3969,0.2228 -0.6382,0.2907 -0.3773,0 -0.9755,-0.2775 -1.2183,0.1163 -0.2157,0.3497 -0.4486,1.0187 -0.5222,1.4301 -0.0236,0.1319 -0.0523,0.7096 -0.1044,0.7791l-0.0232 0c-0.2962,-0.8887 -0.9138,-0.5158 -1.4157,-0.0465 -0.2004,0.1873 -0.3989,0.1602 -0.5337,0.2674 -0.3,0.2383 -0.204,0.7166 -0.4293,1.0232 -0.3228,0.4395 -0.353,1.0589 -0.6382,1.4883 -0.1158,0.1743 -0.9536,1.3391 -1.2416,0.907 -0.1826,0 -0.5203,0.8417 -0.5918,1.0348 -0.0918,0.1844 -0.1223,0.3956 -0.2205,0.5814 -0.0467,0.0882 -0.1416,0.3145 -0.1508,0.407 -0.1126,0.0939 -0.1797,0.3243 -0.3365,0.4069 -0.0862,0.0455 -0.2138,0.0229 -0.2901,0.0698 -0.2883,0.177 -0.3733,0.4369 -0.5221,0.7093 -0.1243,0.2278 -0.1385,0.47 -0.2553,0.6976 -0.2894,0.4062 -0.2814,0.4537 -0.2437,0.9186 0.0364,0.4476 0.3865,0.8736 0.1393,1.3256 -0.1093,0.1997 -0.2113,0.6153 -0.3249,0.7674 -0.0439,-0.1325 -0.2987,-0.3954 -0.4758,-0.3954 -0.1992,0 -0.6614,0.1058 -0.6614,-0.1279 0,-0.2385 0.0464,-0.4922 0.0464,-0.7441 0,-0.4217 0.2953,-0.1861 0.6266,-0.1861 0.4926,0 0.3945,-0.4892 0.3945,-0.872 0,-0.0581 -0.3408,0.0515 -0.4525,0.0581 -0.6011,0.0358 -1.1261,0.1256 -1.7289,-0.1046 -0.3516,-0.1342 -0.6554,-0.5022 -1.0443,-0.314 -0.4863,0.2355 -0.8889,0.1681 -1.3344,0.3372 -0.1495,0.0568 -0.2282,0.2042 -0.3946,0.1628 0,0.4254 0.2395,1.0204 0.5222,1.3255 0.3383,0.3653 0.8242,0.6889 1.1023,1.093 0.1435,0.2084 0.3533,0.4469 0.5222,0.6163 0.3114,0.1781 0.5014,0.5903 0.7774,0.7906 0.1669,0.121 0.5248,0.2273 0.731,0.2907 0.4382,0.1349 0.6453,0.7057 1.1604,0.5698 0.3322,-0.0877 0.3272,-0.9005 0.2437,-1.1511l-0.7078 -0.0233c-0.4376,-0.0144 -0.1444,0.5468 -0.6382,0.3953 -0.3165,-0.097 -0.8703,-0.7207 -0.8703,-1.0348 0.4142,0 0.6737,-0.251 0.8935,-0.5814 0.2758,-0.4143 0.2197,0.1349 0.3829,0.3256 0.4486,0.5238 0.5806,0.2928 1.1487,0.5116 0.1087,0.0419 0.516,-0.495 0.6846,-0.5698 0.5484,-0.2432 0.647,-0.8186 1.1488,-1.0464 0.5883,-0.2672 1.5858,-0.6092 2.2162,-0.6512 0.1676,-0.1207 0.5311,-0.2093 0.7427,-0.2093 0.263,0 -0.1277,-0.0604 -0.2553,-0.1046 -0.2625,-0.0911 0.0863,-0.1969 0.1856,-0.2907 0.1833,-0.1733 0.7152,-0.8232 0.673,-0.1279 -0.0077,0.1278 -0.6365,0.6138 -0.1044,0.4302 0.5808,-0.2005 1.2914,-0.1186 1.903,-0.1977 0.4366,-0.0564 0.9844,-0.1046 1.4156,-0.1046 -0.3615,-0.0903 -0.8442,-0.1917 -0.9747,-0.593 -0.06,-0.1848 -0.1797,-0.3656 -0.2205,-0.5581 -0.0283,-0.134 -0.0812,-0.2166 -0.0812,-0.3605 0,-0.1437 0.1011,0.0458 0.1509,0.0814 0.2245,0.1287 0.3295,0.3033 0.6033,0.407 0.2617,0.0992 0.5046,0.0349 0.7775,0.0349 0.038,0.152 0.0779,0.2917 0.1276,0.4418 0.0701,0.212 -0.0116,0.2506 -0.0116,0.407 -0.0463,0.0115 -0.1388,0.0801 -0.1508,0.1162 0.8813,0 1.7817,-0.093 2.6688,-0.093l2.634 -0.0697zm8.9462 -2.8023c0,0.658 -0.2118,1.4073 -0.2436,2.1162 -0.0429,0.9545 -1.6507,0.8372 -2.3555,0.8372 -0.3489,0 -1.7547,0.1233 -0.8587,-0.186 0.2905,-0.1002 1.9254,-0.0712 1.9378,-0.2675 0.0199,-0.3139 -0.5749,-0.802 -0.8355,-0.9185 -0.5988,-0.2675 -1.2175,-0.106 -1.5316,-0.8488 -0.179,-0.4236 0.0584,-1.3608 -0.3597,-1.6744 0.3582,0 0.6518,0.3488 1.0675,0.3488 0.6769,0 1.2628,-0.6375 1.7057,-1.0813 0.0659,-0.066 0.1562,-0.3965 0.1856,-0.3837 0.0997,0.0434 -0.0387,1.1471 0.0116,1.3604 0.1753,0.742 0.9526,0.5625 1.0328,-0.1396 0.0966,-0.8465 0.0631,-1.5125 -0.1973,-2.3138 -0.0425,-0.1307 -0.7344,-0.8305 -0.1508,-0.8721 0.0408,-0.0211 0.3158,-0.188 0.3481,-0.0581 0.333,0.1903 0.29,1.2778 0.29,1.6278 0,0.3281 -0.058,0.6485 -0.058,0.9767 0,0.2578 0.0232,0.5208 0.0232,0.7674l-0.0116 0.7093zm33.5225 -22.3364c-0.0242,0.0417 -0.0869,0.1086 -0.0929,0.1511 -0.2573,0.1837 -0.2979,1.1386 -0.3481,1.4418 -0.0949,0.5739 -0.0924,1.1669 -0.2436,1.7325 -0.0953,0.3562 -0.298,0.8667 -0.5918,1.1163 -0.4819,0.4096 -0.9146,1.3221 -0.5106,1.9301 0.3155,0.4749 1.061,0.0952 1.1256,-0.372l0.4757 -3.4418c0.0548,-0.3968 0.066,-0.821 0.116,-1.2092 0.0394,-0.3055 0.1393,-0.6439 0.1393,-0.9535l-0.0696 -0.3953zm-55.6155 -103.95c-0.1996,-0.0614 -0.3561,-0.3207 -0.5453,-0.3837 0,0.0917 0.095,0.1846 0.1276,0.2791 0.0347,0.1003 0.1453,0.2865 0.0696,0.3721 -0.0388,0.044 -0.0724,0.0814 -0.1392,0.0814 -0.027,0 -0.0696,0.0036 -0.0929,0.0116 -0.0329,0.0112 -0.0409,0.051 -0.0696,0.0581 0,0.1075 -0.0426,0.2336 0.0232,0.3372 0.0564,0.0886 0.2264,0.0813 0.3133,0.0465 0.1117,-0.0446 0.1831,-0.1315 0.2785,-0.1744 0.0877,-0.0393 0.1599,0.0039 0.1973,-0.1046 0.0174,-0.0507 -0.0247,-0.1593 -0.0348,-0.2093 -0.0171,-0.0839 -0.0588,-0.168 -0.0697,-0.2558l-0.058 -0.0582zm-5.8829 17.0809c0,-0.1663 0.0799,-0.2502 0.116,-0.3954 0.0574,-0.0191 0.1038,-0.1855 0.116,-0.2441 0.0264,-0.1273 -0.0165,-0.1772 -0.0464,-0.2675 -0.1675,0 -0.2333,0.1322 -0.3365,0.2442 -0.0556,0.0605 -0.24,0.2956 -0.3133,0.3139 -0.0087,0.035 -0.0379,0.0421 -0.0696,0.0466 -0.0064,0.0257 -0.0449,0.052 -0.0696,0.0581 -0.0078,0.0314 -0.1718,0.2252 -0.2089,0.2674 -0.1314,0.149 -0.1339,0.8242 0.1044,0.8837 0.0433,0.1733 0.3049,0.027 0.3714,-0.0465 0.1401,-0.1546 0.2034,-0.3336 0.232,-0.5349l0.0116 -0.0116 0.0929 -0.3139zm3.6318 -3.8371c-0.0212,-0.0394 -0.0133,-0.0499 -0.0464,-0.0581 -0.0063,-0.019 -0.0169,-0.016 -0.0232,-0.0349 -0.0216,-0.0054 -0.0173,-0.0147 -0.0348,-0.0233 -0.0068,-0.0034 -0.0157,0.0008 -0.0232,0 -0.0339,-0.0037 -0.0531,-0.0232 -0.0928,-0.0232 -0.0093,-0.028 -0.0487,-0.0052 -0.0696,0 -0.0048,0.0145 -0.0742,0.0834 -0.0929,0.1046 -0.0508,0.0574 -0.058,0.1209 -0.058,0.1977 0,0.0411 0.0116,0.0634 0.0116,0.1046l0 0.1512c0.0144,0.0048 0.016,0.0138 0.0348,0.0232 0.035,0.0174 0.0578,0.002 0.0929,0.0117 0.0403,0.0111 0.0444,0.0185 0.0812,0 0.047,-0.0235 0.0925,-0.0279 0.1392,-0.0698 0.0279,-0.0251 0.0457,-0.0548 0.0696,-0.0814 0.0171,-0.0192 0.0531,-0.0429 0.0581,-0.0581l-0.0465 -0.2442zm-0.905 -1.4302c-0.063,0.0145 -0.0768,0.0138 -0.1277,-0.0116 -0.0636,-0.0316 -0.1088,-0.0349 -0.1856,-0.0349 -0.0247,0 -0.07,-0.0062 -0.0928,0 -0.0268,0.0074 -0.0471,0.0281 -0.0813,0.0349 -0.016,0.032 -0.0277,0.0151 -0.0348,0.0581 -0.0045,0.0279 -0.0232,0.0477 -0.0232,0.0814l0 0.093c0.0185,0.0061 0.0117,0.0278 0.0232,0.0465 0.0236,0.0387 0.0968,0.0582 0.1393,0.0582 0.0354,0 0.0559,0.0116 0.0928,0.0116l0.0812 0c0.0376,0 0.0746,0.0116 0.116,0.0116 0.0453,0 0.0751,-0.0246 0.1161,-0.0348 0.0058,-0.0235 0.0426,-0.0422 0.058,-0.0698 0.0122,-0.0221 0.0416,-0.083 0.0116,-0.093l-0.0928 -0.1512zm-35.3687 77.3463l-0.6431 -0.4128c-0.2185,-0.2199 -0.7543,-0.3847 -0.8989,-0.5872 -0.1348,-0.0192 -0.4429,-0.2648 -0.6266,-0.3256 -0.275,-0.0909 -1.0207,-0.4029 -1.0907,-0.6976 -0.057,-0.2402 0.0852,-0.6973 -0.0812,-0.8837 -0.3206,-0.3589 -0.8119,-0.585 -0.8703,-1.1046 -0.0638,-0.5672 0.2195,-1.0137 -0.2784,-1.5116 -0.0684,-0.3029 -0.2214,-0.5274 -0.2437,-0.8488 -0.0123,-0.177 0.1463,-0.6443 0.4061,-0.4884 0.147,-0.021 0.307,-0.0734 0.4641,-0.093 0.3211,-0.3211 -0.3517,-0.8611 -0.3713,-1.2093 -0.0417,-0.7427 0.4751,-1.2754 0.441,-2.0348 -0.0324,-0.7232 -0.5802,-1.2629 -0.5802,-2.058 0.0375,-0.0471 0.1087,-0.1739 0.116,-0.2326l0.0348 -0.0349c0.058,-0.4646 0.3405,-0.5955 0.0464,-1.0348 -0.1532,-0.0288 -0.4838,-0.1198 -0.6033,0 -0.1003,0 -0.1958,0.0837 -0.2901,0.1046 -0.056,0.0786 -0.1768,0.1261 -0.2553,0.1861 -0.2557,0.1952 -0.5236,0.3068 -0.8587,0.279l-0.9398 -0.0465 -0.0232 -12.1622 -10.095 0.2789 -1.9032 0.1628 -6.6834 0.1628 -7.96 0.3139 -3.7694 0.0645 0 0 -0.0575 -1.3418 -24.8477 -0.7055 -27.533 -0.4706c-0.9969,0 -1.8891,0.0165 -2.7849,0.3256 -0.2025,0.0699 -0.5736,0.1163 -0.789,0.1163 -0.0152,0.0456 -0.1009,0.0241 -0.1161,0.0697l-0.0696 0c-0.0118,0.0355 -0.2279,0.1735 -0.2785,0.1861 -0.0124,0.0497 -0.2204,0.218 -0.2785,0.2325 -0.0785,0.315 -1.6408,0.4471 -1.7173,0.1395 -0.0534,-0.0133 -0.0312,-0.0337 -0.0696,-0.0465 0,-0.0547 0.0004,-0.1006 -0.0464,-0.1162 0,-0.0636 -0.0046,-0.2419 -0.0464,-0.2558 0,-0.1426 0.0032,-0.0571 -0.1393,-0.2791l-1.7405 -0.093 -4.0148 -0.4419 -4.8271 0.0233 -0.0696 0c0,0.0472 0.0126,0.0346 -0.0232,0.0465 0,0.0474 0.0126,0.0346 -0.0233,0.0465 0,0.0491 -0.0169,0.1262 0.0233,0.1395 0,0.0912 0.2177,0.7026 0.0928,0.7442l0 0.0698c-0.0357,0.0357 -0.0815,0.094 -0.0928,0.1395 -0.0659,0.0164 -0.1242,0.0856 -0.1857,0.1163 -0.0528,0.0264 -0.1449,0.0578 -0.2089,0.0697 -0.1395,0.0261 -0.1725,0.0827 -0.3249,0.1861 -0.2052,0.0684 0.058,0.604 0.1161,0.7209 0.0543,0.109 -0.0592,0.6244 -0.1393,0.6511l0 0.0698c-0.0427,0.0106 -0.0358,0.0038 -0.0464,0.0465 -0.0427,0.0106 -0.0358,0.0038 -0.0464,0.0465 -0.1139,0.0227 -0.1517,0.1163 -0.2785,0.1163 -0.1289,0 -0.2494,0.0078 -0.3713,0 -0.2067,-0.0132 -0.4236,0 -0.6266,0 -0.2112,0 -0.3394,0.1211 -0.5338,0.186 -0.5649,0.1884 -1.1966,0.1827 -1.7637,0.3721l-0.0452 -3.8068 -48.6968 -1.2297 0 0 -0.7114 -0.033 -0.7855 -3.6385 17.6527 -64.8361 0 0 58.6482 1.8255 0 0 84.4036 2.9651 0.4525 -0.5582c0.1757,-0.241 0.3674,-0.4952 0.5686,-0.7092 0.1682,-0.1788 0.2234,-0.5036 0.4293,-0.6512 0.1047,-0.2094 0.2975,-0.595 0.499,-0.7209 0.2515,-0.4527 0.6686,-0.7761 0.9399,-1.1976 0.6599,-0.5734 0.9907,-0.9535 1.9262,-0.9535 0.7013,0 1.294,0.1437 1.9493,0.3256 0.3661,0.1017 0.6933,0.389 1.0443,0.4767 0.0789,0.1103 0.2769,0.1573 0.3946,0.1279l-0.2553 -4.8835c-0.0642,-0.7727 1.0939,-2.3825 1.8681,-2.5232 0.2193,-0.2557 1.4297,-0.7902 1.787,-0.8953 0.7464,-0.2195 1.3493,0.3407 2.0422,0.4535 0.9133,0.1486 2.9384,1.3515 3.4114,0.2209 0.2446,-0.9812 0.2067,-2.0864 0.8587,-2.9418 0.3313,-0.4348 0.8891,-1.4923 1.5084,-1.5697 0.4924,-0.4319 1.8301,-0.4801 2.46,-0.593 0.8814,-0.1581 1.7392,-0.4937 2.5759,-0.8139 0.377,-0.1442 0.8315,-0.4789 1.1952,-0.5698l0.0348 -0.0349c0.0457,-0.0114 0.0738,-0.0697 0.1044,-0.1046 0.2382,-0.1591 0.3779,-0.3918 0.6498,-0.5116 0.1966,-0.0867 0.396,-0.1369 0.5918,-0.2093 0.3737,-0.1381 0.8991,-0.107 1.288,-0.0698 0.3023,0.029 0.5942,0.2055 0.8935,0.2326 0.0499,0.0374 0.1334,0.0601 0.1972,0.0814 0.0985,0.115 0.3426,0.169 0.4293,0.2907 0.1382,0.0614 0.2442,0.16 0.3714,0.2325 0.0992,0.174 0.5715,0.5729 0.7542,0.6744 0.2941,0.4716 1.1829,0.8676 1.6245,1.2209 0.0808,0.0115 -0.018,0.0063 0.1557,0.0116l1.1368 -0.904 0 0c-0.0276,0.0784 -0.0681,0.1708 -0.0742,0.1947 -0.0644,0.2522 -0.1251,0.9651 0.2437,0.9651 0.0638,-0.1914 0.6306,-0.991 0.3481,-1.1278 -0.0847,-0.041 -0.1289,-0.0978 -0.1496,-0.164l0 0 0.6111 -0.2126 0 0c-0.02,0.5757 -0.1482,1.1371 -0.1482,1.7137 0,0.5898 0.3017,1.1543 0.3017,1.7674 0,0.2906 0.0928,0.6032 0.0928,0.8837 0,0.1294 0.0287,0.2484 0.0464,0.3721l0.0464 0.3255c-0.3149,0 -0.4919,-0.0759 -0.847,0.0466 -0.4549,0.157 -0.3963,-0.0155 -0.1393,-0.3024 0.226,-0.2521 0.1448,-0.6253 0,-0.8604 -0.0238,-0.0388 -0.5387,0.44 -0.7194,0.5 -0.3408,0.113 -0.6394,-0.3211 -0.7078,0.2442 -0.0544,0.4489 -0.8437,0.9041 -1.2183,1.0581 -0.1436,0.0591 -0.741,-0.0073 -0.4874,0.1976 0.9508,0.7685 1.1869,1.3953 2.518,1.3953 0.399,0 0.6603,-0.0516 0.9514,0.1861 0.0154,0.0125 -0.0429,-0.338 -0.0696,-0.4186 -0.0318,-0.0964 -0.2496,-0.9935 -0.1276,-0.9186 0.1948,0.1198 0.9569,1.0489 0.6266,0.3023 -0.0359,-0.0811 -0.8053,-1.2313 -0.2901,-0.9999 0.2683,0.1206 0.6842,-0.0284 0.7078,0.2906l0.2205 2.9767c0.5373,0.9757 0.3421,2.4737 0.8354,3.5115 0.37,0.7783 0.5129,1.6503 0.9283,2.4069 0.2095,0.3818 0.5873,0.9852 0.7078,1.372 0.0958,0.3072 0.0589,0.7677 -0.2553,0.907 -0.2531,0.1123 -0.7194,0.0451 -0.7194,-0.3256 0,-0.3222 -0.0918,-0.2629 0.058,-0.4883 0.2849,-0.4289 -0.2755,-1.3007 -0.4061,-1.8256 -0.0774,0.2335 -0.3843,0.1514 -0.4409,-0.0697 -0.1851,-0.7236 0.1209,-0.9074 -0.5802,-1.4302 -0.5684,-0.4237 -0.2913,-1.5796 -0.6846,-2.1976 -0.3229,-0.5076 -0.037,0.2387 -0.1276,0.6046 -0.1378,0.556 -0.496,-0.0677 -0.7427,-0.1628 -0.1671,-0.0643 -0.6839,-0.0581 -0.8818,-0.0581 -0.3697,0 0.5053,0.3521 0.615,0.407 0.3658,0.1831 0.3442,0.2566 0.0232,0.4883 -0.6167,0.445 0.7424,0.1065 0.2785,0.8023 -0.2051,0.3078 0.2055,0.9991 -0.2321,0.7907 -0.2968,-0.1414 -1.1836,-0.3105 -1.1836,0.2093 0,0.5056 -0.2263,0.4205 0.1741,0.7907 0.5658,0.5233 1.2009,0.9155 0.6846,1.7557 -0.1951,0.3174 -0.4313,0.9426 0.2088,0.9884 0.1082,0.0077 0.399,-0.1344 0.4874,-0.1977 0.1009,-0.0724 0.2763,0.0068 0.3597,0.0581 0.0849,0.0521 -0.0045,-0.4971 0.1741,-0.6162 0.7788,-0.5191 1.6941,-0.4963 1.6941,0.686 0.008,0.0418 0.0009,0.1166 0.0348,0.1279 0,0.0966 0.0348,0.1993 0.0348,0.3139 -0.0178,0.0059 -0.0116,-0.0002 -0.0116,0.0233l-0.0116 0.0116c-0.4903,0 -1.192,-0.933 -1.6129,-0.6744 -0.2305,0.1417 0.1843,0.5909 0.0348,0.8605 -0.0554,0.0998 -0.3597,0.8145 -0.3597,0.8953 0.1714,0 0.3112,-0.2015 0.5802,-0.1744 0.2563,0.0259 0.4292,0.439 0.7426,0.3255 0.4009,-0.1451 0.5221,-0.3584 0.5221,-0.7906 0.2455,-0.0818 0.0703,-0.1512 0.4526,-0.1512 0.623,0 0.7905,0.1442 1.2764,0.4186 0.367,0.2072 0.6328,0.0474 0.9979,0.186 0.5702,0.2166 0.8368,0.7392 1.3112,1.093 0.5233,0.3901 0.6497,0.4773 0.6497,1.1511 -0.0238,0.0079 -0.0169,0.0233 -0.058,0.0233 -0.1045,-0.3136 -1.2579,-0.8447 -1.5664,-1.0581 -0.2258,-0.1563 -0.6923,-0.3151 -0.9515,-0.3953 -0.1723,-0.0534 -0.6691,-0.4419 -0.7194,-0.4419 -0.0065,-0.0197 -0.0344,-0.0116 -0.0581,-0.0116 0,0.5484 -0.6856,0.6752 -0.9398,1.1279 -0.077,0.137 -0.1337,0.3402 -0.2321,0.4999 -0.137,0.2221 0.4719,0.2401 0.7078,0.4768 0.1843,0.1848 0.5086,0.2658 0.6846,0.4418 0.0484,0.0484 0.1842,0.9595 0.2437,1.1395 0.0638,0.1926 -0.0116,0.3142 -0.0116,0.5 0,0.1846 0.2412,0.306 0.2901,0.4535l0.0232 0c0.0861,-0.3462 0.8561,-0.4553 1.1023,-0.7791 0.2029,-0.267 -0.0116,-0.8971 -0.0116,-1.2557 0.435,0 0.5426,1.2327 1.0095,1.3953 0.1401,0.0487 0.4666,-0.5954 0.5454,-0.6744 0.1455,-0.1461 0.605,0.0389 0.6614,0.2093l0.0232 0c0,-0.246 -0.0979,-0.2938 -0.0348,-0.5465l0.0232 0c0.0553,-0.167 0.4989,-0.2611 0.4989,-0.5582 0,-0.1086 -0.658,0.1861 -0.7774,0.1861l-0.0116 -0.0116c0,-0.2664 0.058,-0.5809 0.058,-0.8372l0.0696 0c0.0073,0.022 0.5748,0.2738 0.6614,0.3604 0.3883,-0.0375 0.6762,0.3721 1.0443,0.3721 0.4529,0 0.3969,0.1212 0.6382,0.3953 0.076,0.0862 0.487,0.4023 0.4526,0.4303 -0.1281,0.1046 -0.5466,-0.1576 -0.673,-0.221 -0.1081,-0.0541 -0.0026,0.1525 -0.0233,0.2326 -0.0279,0.1084 -0.2482,0.2705 -0.3249,0.3953 -0.1455,0.2369 -0.2696,0.9837 -0.5337,1.0465 -0.2113,0.0503 -0.1758,0.1204 -0.0464,0.2674 0.193,0.219 -0.0491,0.6647 0.3249,0.2907 0.3021,-0.3021 0.4379,-0.0659 0.6034,0.2675 0.2155,0.4338 -0.6856,0.1136 -0.8471,0.0813 0,0.2333 -0.0696,0.4383 -0.0696,0.6628 0.3367,-0.202 0.4998,-0.3445 0.9167,-0.1744 0.1699,0.0694 0.5277,0.2825 0.6497,0.4186 0.0207,0.0232 0.4105,0.6395 0.2669,0.3372 -0.0864,-0.1817 0.0611,-0.6375 -0.0696,-0.7442 -0.0972,-0.0792 -0.3828,0.0001 -0.5105,-0.1279 -0.1626,-0.1632 -0.0493,-0.6492 -0.1393,-0.8837 -0.0378,-0.0984 0.2063,-0.4858 0.2553,-0.6627 0.0398,-0.1433 -0.0303,-0.34 0.116,-0.4303 0.1323,-0.0818 0.3155,-0.3649 0.3597,-0.4883 0.1074,-0.2994 0.5879,-0.2562 0.673,-0.5116l-0.6962 0c-0.3197,0 -0.193,-0.4479 -0.3133,-0.7209 -0.0788,-0.1791 -0.0668,-0.3259 0.058,-0.4651 0.0553,-0.0618 0.4173,-0.2923 0.4874,-0.3023 0.2539,-0.0822 0.2205,-0.1204 0.2205,-0.3489 0.2314,-0.0771 0.4508,-0.4683 0.4989,-0.7092 0.1555,-0.0388 0.1985,-0.3533 0.4874,-0.407 0.2769,-0.0514 0.5478,-0.3595 0.6149,-0.6279 0.1233,-0.0308 0.16,-0.2912 0.3481,-0.2442 0.027,0.1087 0.1396,0.3256 0.2669,0.3256 0.0751,-0.2255 0.2874,-0.3553 0.3713,-0.5232 0.2163,-0.0432 0.4857,-0.4588 0.6266,0 0.1435,0.4669 0.1755,0.186 0.5222,0.186 0.0062,0.0187 0.0126,0.0116 0.0348,0.0116l0.0116 0.0117c0,0.2527 -0.0984,0.4439 -0.1509,0.686 -0.0779,0.3585 0.1004,0.7416 0.0697,1.1511 -0.0271,0.3625 -0.1005,0.7838 -0.0116,1.1395 0.2032,0.0508 0.3708,-0.145 0.6382,-0.0814 0.5127,0.1221 0.7084,-0.0581 1.1487,-0.0581 0.3197,0 0.7552,-0.4103 0.6498,0.0116l-0.4874 0.1395c0,0.2776 -0.116,0.4666 -0.116,0.7093 0.0408,0.0136 0.1295,0.0994 0.1973,0.1163 0.1195,0.3587 -0.1509,0.6219 -0.1509,1.0116 0.1047,0.0261 0.2462,-0.0814 0.3829,-0.0814 0.0144,0.101 -0.0458,0.6772 -0.1276,0.6976 -0.0209,0.0839 -0.6084,0.0117 -0.7078,0.0117 -0.3372,0 -0.4572,0.106 -0.731,0.1744 -0.0037,0.0149 -0.0079,0.02 -0.0116,0.0349 -0.0318,0.0079 -0.0324,0.0348 -0.0697,0.0348 -0.0058,0.0175 -0.261,0.2849 -0.2784,0.2907l0 0.093c0.1304,0.0434 -0.0672,0.3347 -0.1161,0.3838 -0.2645,0.1863 -1.0372,0.313 -1.0675,0.686 -0.0211,0.2607 0.1063,0.6305 0.1857,0.8372 0.0826,0.2153 -0.527,1.2719 -0.7078,1.4534 -0.2204,0.2211 -1.0444,0.1101 -1.0444,0.4651 0.0195,0.0048 0.0298,0.0078 0.0349,0.0233 1.4279,0 -0.3018,1.0083 -0.8935,0.8604 -0.1761,-0.7047 1.0873,-1.161 0.8354,-1.779 -0.3263,-0.8003 0.1277,-0.7753 0.1277,-1.5232 -0.0977,0 -0.4808,0.4302 -0.8587,0.4302 -0.1841,0 -0.6878,-0.0449 -0.7426,0.1744 -0.0231,0.0057 -0.0404,0.0108 -0.0464,0.0349 -0.0232,0.0058 -0.0929,0.3913 -0.2669,0.5116 -0.5011,0.3468 -0.0209,0.8488 -0.4525,1.1976 -0.3857,0.3116 -0.6125,1.3488 -1.0792,1.3488 -0.1921,0 -0.4286,0.2189 -0.6149,0.2907 -0.2676,0.103 -0.2832,-0.4495 -0.6846,-0.1628 -0.1173,0.1586 -0.5118,0.4778 -0.7427,0.4186 -0.2603,-0.0667 0.0051,-0.5487 -0.0348,-0.7093 -0.4616,0 -0.2721,0.064 -0.5221,0.314 -0.2255,0.2255 -0.9204,0.0643 -1.2532,0.3721 -0.2771,0.2562 -0.486,0.0166 -0.6498,0.5116 -0.092,0.2779 -0.2074,0.2532 -0.4409,0.3488 -0.2868,0.1173 -0.7945,0.6486 -0.5106,-0.0465 0.1092,-0.2676 0.4177,-0.624 0.4177,-0.907 -0.3293,0 -0.7289,0.9302 -1.346,0.9302 -0.2461,0 -0.3425,-0.1976 -0.4873,-0.1976 -0.665,0 -1.1506,0.9565 -1.7289,1.2092 -0.3771,0.1648 -1.5604,0.3676 -1.961,0.2675 -0.1355,0.421 -0.2507,-0.2133 -0.5222,-0.093 -0.2133,0.0946 -0.0835,0.4262 -0.3249,0.5464 -0.3251,0.162 -0.739,-0.5315 -0.9863,-0.0348 -0.2457,0.4932 -1.245,0.9635 -1.4968,0.3837 -0.0248,-0.0571 0.0463,-0.3304 -0.0116,-0.2791 -0.2548,0.2261 -0.5047,-0.0037 -0.7078,-0.1744 -0.2576,-0.2167 -0.9863,0.2822 -0.9863,-0.3139 0,-0.7307 -0.2426,-0.1154 -0.1625,0.1976 0.0639,0.2501 0.3961,0.1859 0.499,0.4186 0.0404,0.0913 0.2788,-0.1405 0.4525,-0.0698 0.7619,0.31 0.5178,0.988 0.7194,1.593 0,-0.3841 0.0499,-0.9302 0.4874,-0.9302 0.5707,0 0.1113,0.2723 0.0812,0.6744 -0.0326,0.4362 1.0563,-0.9651 1.2416,-0.6976 0.1846,0.2663 0.2615,0.1061 0.1624,0.5232 -0.1151,0.4849 -0.5336,0.8137 -0.9747,1.0348 -0.2293,0.115 -0.3713,0.8409 -0.3713,1.1047 0,0.1615 0.1857,0.1759 0.1857,0.3488 0,0.1475 -0.1732,0.3101 -0.1857,0.4767 -0.0612,0.8169 0.3974,-0.0081 0.6034,-0.1744 0.3589,-0.2899 0.5509,-0.8781 0.847,-1.2325 0.1969,-0.2355 0.2421,-0.7901 0.615,-0.5698 0.3088,0.1823 1.1748,0.2364 1.114,0.5349 -0.0822,0.4038 -0.0839,0.905 -0.3133,1.2558l-0.441 0.6744c-0.2346,0.3588 -0.2065,0.6231 -0.5917,0.9302 -0.3899,0.311 -0.7401,0.5483 -1.1836,0.8255 -0.227,0.195 -0.5686,0.6269 -0.5686,0.9419 -0.0286,0.0095 -0.0464,0.1368 -0.0464,0.1744 0,0.1099 -0.0596,0.1439 -0.0812,0.2093 -0.1612,0 -0.3585,0.1337 -0.3945,0.3139 -0.2664,0.0666 -0.6597,-0.0134 -1.0791,0.0465 0,-0.1559 0.2471,-0.4186 -0.0929,-0.4186 -0.2658,0 -0.874,-0.2417 -0.9515,-0.1046 -0.2263,0.4006 -0.4752,0.4331 -0.7658,0.6744 -0.3323,0.2758 -0.3717,1.26 -0.3945,1.6976 -0.0297,0.572 -0.0419,0.7671 0.557,0.3837 0.3092,-0.198 -0.0693,0.6237 -0.1045,0.6977 -0.2911,0.6126 0.8644,0.1923 1.1488,0.3488 0.264,0.1454 0.4837,-0.1415 0.5105,0.2674l0.0464 0.7093c0.1907,0 0.3371,-0.0726 0.4526,0.0814 -0.4277,0.5703 -0.7083,0.1031 -1.0907,-0.1628 -0.1385,-0.0964 -0.8471,-0.5664 -0.8471,-0.0698 -0.0102,0.0034 -0.0534,0.0442 -0.058,0.0582 -1.3472,0 -0.0933,-0.6438 -0.5918,-1.2907 -0.3434,-0.4455 -0.2785,-1.7682 -0.2785,-2.3487 -0.0335,-0.0111 -0.0392,-0.0233 -0.0928,-0.0233 -0.0066,-0.0266 -0.1068,-0.1279 -0.1392,-0.1279l0 0.0233 -0.673 0.7674c-0.9113,1.0392 -0.699,0.0465 -1.7058,0.0465 0,0.2521 0.0357,0.34 -0.232,0.4069 0,0.3483 0.3649,0.9535 -0.3597,0.9535 -0.1765,0 -0.3545,-0.151 -0.4758,0.0465 -0.0694,0.1129 -0.3157,0.2209 -0.4641,0.2209 -0.2645,0.094 -0.5738,-0.0727 -0.7891,-0.2325 -0.1438,-0.1066 -0.3078,-0.5989 -0.4757,-0.3256 -0.4686,0.7631 0.197,0.4547 0.4525,0.9535 0.1083,0.2116 0.794,-0.0233 1.0676,-0.0233 0.4669,0 0.9116,0.2256 1.2415,-0.2325 0.1508,-0.2095 0.321,-0.2117 0.4062,-0.4884 0.0244,-0.0795 0.0948,-0.6458 0.116,-0.6511 0.0662,0.265 0.434,0.0809 0.6034,0.1279 0.1417,0.0394 -0.2446,0.3417 -0.2785,0.3837 -0.5046,0.6259 -1.0311,1.2018 -1.404,1.9069 -0.1532,0.2896 -0.2008,0.6114 -0.3365,0.8837 -0.1783,0.358 0.0217,0.5217 0.2552,0.7093 0.0978,0.2334 0.0561,0.4767 0.3714,0.4767 0.1006,0 0.6381,-0.0345 0.6381,0.0465 0.0178,0.0059 -0.045,0.3016 -0.058,0.3488 -0.1084,0.3908 -0.0348,0.787 -0.0348,1.1744 0.0187,0.0062 0.0116,0.0127 0.0116,0.0349 0.0113,0.0037 0.0766,0.3467 0.0928,0.3953 0.0508,0.1527 0.1485,0.2952 0.2321,0.4419 -0.0277,0.2364 -0.1282,0.4617 -0.174,0.686 -0.0265,0.1294 -0.0555,0.4709 0.058,0.5465 0,0.0784 0.101,0.1371 0.116,0.1977 0.077,0.0192 0.0995,0.1162 0.1973,0.1162 0.0406,0 0.1212,0.055 0.1624,0.0698 0.1239,0.0444 0.1906,0.0591 0.3017,0.1395 0.1065,0.0772 0.1741,0.1863 0.2669,0.2791 0.087,0.2704 0.2321,0.4617 0.2321,0.7674 -0.2736,0 -1.2708,-1.0762 -1.5085,-1.3139 -0.3152,-0.3152 -0.174,-0.8765 -0.174,-1.3139 -0.0727,-0.0242 -0.1008,-0.1163 -0.2553,-0.1163 -0.0819,0.2459 -0.6776,0.413 -0.9515,0.3023 -0.4613,-0.1864 -0.0696,-0.6178 -0.0696,-0.9534 -0.2157,-0.0719 -0.5874,-0.5698 -0.8123,-0.5698 -0.2202,0 -0.3514,0.4186 -0.8122,0.4186 -0.0059,0.0178 0.0003,0.0116 -0.0232,0.0116l-0.0116 0.0117c0,0.1026 -0.0226,0.9021 0.174,0.8139 0.1676,-0.0753 1.1065,-1.247 0.9747,-0.3488 -0.0601,0.4095 -0.0627,0.8989 0.0813,1.279 0.1454,0.3836 0.8685,-0.3346 0.9282,0.0581 0.0232,0.1528 0.0033,0.914 -0.3017,0.7442 -0.1746,-0.0973 -0.7909,-0.5315 -0.9747,-0.2209 -0.1584,0.2675 0.131,0.5964 -0.0696,0.8604 -0.1579,0.2077 -0.9795,-0.5506 -1.2415,-0.6976 -0.4263,-0.239 -0.1803,-0.7001 -0.5338,-0.7907 -0.5336,-0.1369 -0.9283,-0.1684 -0.9283,-0.8605 0,-0.1833 0.0428,-0.5305 0,-0.6976 -0.0753,-0.2945 0.1857,-0.317 0.1857,-0.5581l-0.0116 -0.0117c-0.0615,0 -0.2757,-0.1135 -0.3249,-0.1627 -0.2756,-0.0518 -0.5377,-0.1977 -0.8007,-0.1977 -0.6473,0 -0.7605,0.0438 -1.1603,-0.5116 -0.2026,-0.2813 -0.2985,0.3329 0.0348,0.5814 0.3453,0.2573 1.6709,0.0699 1.6709,0.4767 0,0.2551 0.0642,0.4934 0,0.7441 -0.0803,0.314 -0.6143,0.2188 -0.6846,0.5 0.7636,0 0.4251,0.6096 0.4873,1.186 0.0489,0.4539 0.7632,0.4849 1.1024,0.5698 0.355,0.0888 0.6714,0.1443 0.7774,0.5465 0.0717,0.2725 0.4188,0.2339 0.6266,0.3139 0.4465,0.1721 0.722,0.9914 0.3829,0.6512 -0.1955,-0.1962 -0.8333,-0.2252 -0.731,0.1744 0.0657,0.257 -1.2113,0.6611 -1.5549,0.5465 -0.1333,-0.0445 -0.3292,0.4609 -0.2785,0.5116 0.1949,0.1949 0.6529,0.3425 0.7891,0.5814 0.1644,0.1449 0.3374,0.5285 0.0812,0.686 -0.1632,0.1002 -0.4213,-0.251 -0.5338,-0.2791 0.1323,0.6615 -0.4813,0.4548 -0.6149,0.9767 -0.0867,0.3389 0.5623,-0.2683 0.3597,0.5233 -0.1791,0.6995 0.7072,0.2225 0.3597,1.2325 -0.0607,0.1763 -0.0697,0.4199 -0.0697,0.6046 0,0.2766 -0.3365,0.2384 -0.3365,0.5581 0.1834,-0.0458 0.4911,-0.7449 0.6382,-0.9302 0.2221,-0.2795 0.468,-0.4435 0.1393,-0.7092 -0.1955,-0.1579 -0.1423,-0.5408 -0.2553,-0.7675 -0.2733,-0.5486 0.8195,-0.461 0.9051,-0.2441 0.4599,1.1655 0.2851,1.7146 1.5548,2.4185 0.432,0.2394 0.3854,0.6353 0.673,0.872 0.9876,0.8127 2.5731,0.1293 2.9589,-0.9302 0.2779,-0.7629 0.3169,1.0314 0.2553,1.2907 -0.1685,0.7096 -0.9054,0.2214 -1.462,0.3605 0.4576,0.3661 1.1703,0.2581 0.8238,0.9534 -0.2593,0.5205 -0.8094,-0.662 -0.9863,-0.6162 -0.1885,0.0487 -0.4114,0.0581 -0.615,0.0581 -0.2474,0 -0.524,0.2921 -0.2669,0.2093 1.0148,-0.3268 1.3115,0.7018 0.9399,1.3837 -0.1467,0.2691 0.7005,0.6892 0.8471,0.6744 0.3095,-0.0312 1.1616,-0.1234 0.4873,-0.3838 -0.1889,-0.073 -0.8982,-0.1523 -0.8238,-0.3953 0.1718,-0.5613 -0.074,-0.4164 0.3017,-0.3953 0.6797,0.0382 1.3914,-1.1744 2.0886,-1.1744 0.551,-0.0533 0.4375,0.0385 0.5802,-0.5349 0.059,0.0196 0.2226,0.4266 0.2436,0.5116 0.0778,0.3134 -1.5926,0.4441 -0.8238,1.0698 0.434,0.3533 0.1107,1.6768 0.5918,1.8371 0,-0.7109 -0.8032,-2.3574 0.174,-2.5813 0.1607,-0.0368 0.4165,-0.0355 0.5338,-0.1395 0.1953,-0.1733 -0.3824,-0.4682 0.2669,-0.593 0.3823,-0.0735 0.9134,-0.1512 1.2996,-0.1512 0,0.3508 -0.3773,0.4462 -0.1045,0.8139 0.2834,0.3822 0.5842,1.1123 1.1488,0.5465 0.549,-0.5503 -0.2278,-1.5491 -0.3597,-2.1045 -0.1314,-0.553 0.4189,0.4118 0.4525,0.4302 0.149,0.082 0.3638,-0.005 0.4989,0.0697 0.0925,0.0512 0.0982,0.3372 0.2205,0.3372 0.0693,-0.2773 0.4597,-0.281 0.6846,-0.3372 0,-0.2079 -0.0892,-0.6679 -0.2785,-0.4999 -0.5488,0.4867 -0.3582,-0.6985 -0.5685,-0.593 -0.3533,0.1771 -0.8365,0.1162 -1.23,0.1162 -0.0059,-0.0237 0.5143,-0.2811 0.615,-0.4418 0.0437,-0.0696 -0.3746,-0.7278 -0.4526,-0.8256 0.026,-0.2787 -0.0812,-0.669 -0.0812,-0.9999 0,-0.2495 -0.2088,-0.4476 -0.2088,-0.6977 -0.4975,0 -0.9143,0.5349 -1.3693,0.5349 -0.2391,0 -0.2762,-0.314 -0.5453,-0.314 -0.3601,0 -0.2955,0.0251 -0.615,-0.0814l0 -0.0348c0.2343,0 0.563,-0.0979 0.789,-0.1744 0.4143,-0.1401 0.8766,0.0308 1.2764,-0.0931 0.3467,-0.1074 0.6209,-0.372 0.9979,-0.372l0.0116 0.0116c0,1.2055 0.9387,3.3075 1.961,3.9882 0.7099,0.4728 1.2092,0.0836 1.9146,0.3372 0.3223,0.1159 0.367,0.2976 0.8122,0.3605 0.431,0.061 0.6356,0.2956 0.9979,0.4767 0.1451,0.1105 0.4293,0.3213 0.4293,0.5 -0.2251,0 -0.5259,-0.2139 -0.6846,0.1046 -0.153,0.3073 0.0092,0.5735 0.3249,0.3721 0.1773,-0.113 0.3505,-0.3629 0.5222,-0.4535 0.1405,-0.074 0.744,0.1346 0.731,0.3837 -0.0355,0.6816 -0.5086,1.1279 0.615,1.1279 0.9376,0 0.2318,-1.0695 0.3713,-1.6278 0.0174,0.0058 0.4346,0.3676 0.4409,0.4069 0.1891,1.1746 0.5956,2.1965 1.4969,3.0348 0.3231,0.3006 0.9587,0.7515 1.3576,0.9767 0.5362,0.3029 0.6328,-0.1583 0.8471,0.4884 -0.1432,0 -0.615,-0.3896 -0.615,0.0116 0,0.1549 -0.2457,0.5636 0.0116,0.6279 0,0.1024 -0.023,1.0915 0.0232,0.7093 0.0276,-0.228 0.1782,-0.683 0.3017,-0.8721 0.3428,-0.5253 0.1204,0.637 0.0696,0.7907 -0.1729,0.5222 -0.2507,0.4858 0.058,1.1046 0.2338,0.4688 0.1507,1.0458 0.0348,1.5116 0,-0.4926 -0.1669,-0.934 -0.5918,-0.8023 -0.3548,0.1099 -0.9843,-0.3321 -1.0907,-0.2791 -0.7765,0.3869 -0.4967,0.2345 -0.1624,0.5698 0.3395,0.3407 -0.4705,0.4489 -0.5802,0.5116l-0.8123 0.4651c-0.2624,0.1502 -0.4922,0.1912 -0.6265,0.4999 -0.0147,0.0337 0.1093,0.0233 0.1392,0.0233 0.4786,0 0.6999,-0.3086 1.0559,-0.5465 0.1457,-0.0973 0.702,-0.1437 0.9051,-0.1977 0.3174,-0.0843 0.4745,0.2036 0.7774,0.2326 1.046,0.1002 -0.3377,0.7226 0.3017,1.0232 0.3561,0.1673 0.9839,0.5667 1.3344,0.6395l0.615 0.1279c0.3569,0.0741 -0.0098,-0.5316 -0.1276,-0.7674 -0.1604,-0.3208 -0.2344,-0.4701 -0.4758,-0.7441 -0.0597,-0.0679 -0.4579,0.0581 -0.5802,0.0581 -0.0417,0 0.4729,-0.9511 0.8123,-0.3488 0.3919,0.6952 0.6651,1.8078 1.1835,2.3952 0.3385,0.3837 0.5499,0.9113 0.8355,1.3372l1.0211 1.5232c0.1984,0.175 2.4189,2.1764 1.4968,2.4069 -0.0268,0.1074 -0.3652,0.4699 -0.4409,0.6395 -0.2894,0.6486 0.1969,2.4984 0.615,3.0232l1.0095 1.2674c0.3447,0.4326 0.6074,0.9637 0.9515,1.3953l0.5918 0.8604c0.6216,0.9036 0.01,0.3696 -0.557,0.1512 -0.5642,-0.2174 -0.7675,0.4952 -1.0211,0.779 -0.1611,0.1804 -0.7526,0.857 -0.9515,0.3023 -0.033,-0.092 0.6756,-0.743 0.8354,-0.8372 0.4826,-0.2843 1.5786,-0.3962 0.8935,-1.0813 -0.6927,-0.6927 -1.1984,-1.6056 -1.7753,-2.4069 -0.2886,-0.4007 -0.4703,-1.2044 -0.7426,-1.4767 -0.5939,-0.5939 -0.8492,-0.0226 -1.4853,0.1046 0,0.3333 1.2134,0.5542 1.4621,0.6163 0,0.3477 -0.4748,0.4868 -0.7543,0.4418 -0.1736,-0.028 -0.6846,-0.478 -0.6846,-0.2209 0,0.4671 0.1059,1.2354 -0.116,1.6395 -0.1723,0.314 -0.3895,0.7285 -0.2901,1.1279 0.1539,0 0.2552,-0.3954 0.3713,-0.3954 0.1204,0.4837 0.3902,1.322 -0.3133,1.4884 -0.7215,0.1707 -0.8779,-0.5628 -1.0095,-1.2209l-0.5686 0.5697c-0.2354,0.2358 -0.9886,0.326 -1.0095,0.6628l-0.058 0.9302c0.2811,-0.0702 0.2973,-0.3572 0.7194,-0.3256 0.3691,0.0276 0.2156,0.9375 0.2901,1.2209 0.1327,0.5044 0.8312,0.5479 1.2184,0.7907 0.2822,0.2305 0.5167,0.9416 0.6846,1.279 0.3613,0.7264 2.1045,1.9418 2.9125,1.9418 0.0044,0.0134 0.0587,0.0349 0.0812,0.0349l-0.9283 -1.5814c-0.1889,-0.322 -0.8702,-1.4665 -0.8702,-1.8255l0.0232 0c0.0047,0.0142 0.0934,0.1107 0.116,0.1163 0.1155,0.5775 0.8403,1.1326 0.9979,1.7674 0.3323,1.3388 1.5026,2.592 2.808,1.5464 0.5422,-0.4344 1.0098,-0.906 1.4853,-0.1976 0.2319,0.3454 0.4665,0.4199 0.7774,0.6744l1.0791 0.8837c0.3752,0.4942 0.6304,0.372 1.1256,0.372l0 0.0349c-0.0649,0.0162 0.0031,0.5573 -0.0232,0.6628 -0.5431,0 -0.7364,0.705 -0.5802,1.1279 0.1535,0.4158 0.2489,0.7144 0.5802,1.0464 0.1726,0.1731 0.4408,0.3811 0.5221,0.593 0.0725,0.1888 -0.0131,0.9592 0.0232,1.2326 0.0651,0.4894 -0.0002,0.9743 0.0929,1.4418 0.3254,0.0813 0.3133,0.5138 0.3133,0.7092 -0.1107,0.0275 -0.3615,0.9002 -0.4062,1.0349 -0.0982,0.4781 -0.1595,0.6239 -0.3945,1.0465 -0.3832,0.6888 -0.3618,0.6444 -0.3249,1.465 0.0449,1.0001 2.2338,3.9199 3.2026,4.0813 0.0074,0.0298 0.0249,0.0304 0.0464,0.0465 0,0.0375 -0.0088,0.0836 -0.0464,0.093 -0.0068,0.0275 -0.0186,0.0254 -0.0232,0.0582 -0.0259,0.0064 -0.1045,0.121 -0.1045,0.1511 -0.1313,0.0437 0.3096,0.0937 0.3249,0.1047l1.3112 0.9534c-0.3784,0.1066 -0.7489,-0.238 -1.1255,-0.093 -0.1964,0.0757 0.4193,0.6385 0.5337,0.7209 0.2771,0.1994 0.5131,0.2907 0.8703,0.2907 0.3663,0 0.979,0.1203 0.4758,-0.2674 -0.1207,-0.0929 -0.31,-0.1035 -0.4294,-0.2093 -0.0608,-0.054 -0.203,-0.2617 -0.2204,-0.2675 0.1996,0 0.8653,0.3747 1.1371,0.4535 0.8431,0.2443 1.6097,0.6723 2.4715,0.8837 0.4093,0.1003 2.3155,0.6014 2.5064,0.9069 0.7184,0.0637 1.4484,0.2795 2.193,0.3024 1.3841,0.0425 2.9051,-0.2219 4.2469,0.093 0.3565,0.0837 0.6922,0.1144 1.0327,0.2325 0.2217,0.0769 1.0807,0.7628 0.8935,1.0349 -0.2405,0.3493 -0.8122,-0.6321 -1.0211,-0.3721 -0.5912,0.7354 -1.4485,-0.1511 -2.3555,-0.0349 -0.4109,0.0527 -0.8631,0.2378 -1.2532,0.2558 -0.4482,0.0208 -0.7957,-0.2093 -1.1371,-0.2093 0,0.2085 0.2719,0.5632 0.3133,0.814 0.0937,0.5664 -0.0807,1.1162 0.7078,1.1162 0.576,0 1.1245,-0.2558 1.7057,-0.2558 0.4092,0 0.794,0.1046 1.1951,0.1046 0.5359,0 1.0638,-0.1511 1.6361,-0.1511 0.5749,0 0.9175,-0.3837 1.4389,-0.3837 0.8662,-0.3321 1.6301,-1.7067 2.2974,-2.3372 0.3957,-0.374 0.8176,-0.6831 1.3112,-0.9302 0.2635,-0.1318 1.0041,-0.5813 1.2648,-0.5813 0.3267,0.3267 0.6483,0.2567 1.0211,0.0116 0.6549,-0.4307 1.3247,-0.2015 1.961,-0.6511 0.3022,-0.2136 0.5032,-0.2143 0.8355,-0.0931 0.4519,0.1647 0.7485,0.1215 1.2299,0.0814 0.3937,-0.2363 0.9302,-0.2697 1.346,-0.5 0.534,-0.2959 1.1493,-0.5816 1.7405,-0.7209 0.2508,-0.059 0.4354,-0.0382 0.6847,0 0.2547,0.0391 0.4883,-0.1756 0.731,-0.1976 1.0475,-0.8167 2.1145,-1.0031 2.9473,-2.1395 0.36,-0.4914 0.9706,-0.8225 1.0675,-1.4534 0.0829,-0.5404 0.101,-1.4122 0.0348,-1.9418 0.1998,-0.3115 -0.157,-1.5664 -0.2437,-1.9535 -0.1514,-0.6754 -0.2569,-2.2155 0.0232,-2.8487 0.0756,-0.1709 0.745,-1.2693 0.1625,-0.9535 -1.2372,0.6707 -1.5424,-1.7112 0.1044,-0.4534 0.5032,0.3844 -0.1692,-0.7394 -0.116,-0.8256 0.4651,-0.7542 -0.1012,-0.4145 -0.441,-0.7558 0.3037,1.2203 -0.5214,0.3371 -0.9863,0.1047 -0.341,-0.3417 -0.4642,-0.6537 -0.5685,-1.093 -0.0995,-0.4186 0.075,-0.6705 0.232,-0.1279 0.316,1.0915 0.5669,-0.906 0.2321,-0.8256 -0.4711,0.113 -1.3185,-0.1196 -1.6941,0.1861 -0.239,0.1946 -0.4161,0.315 -0.7194,0.2093 -0.1941,-0.0677 -0.2463,-0.3725 -0.441,-0.3023 -0.1985,0.0717 -0.6685,0.4289 -0.2552,0.5581 0.4431,0.1384 0.8993,0.0308 1.288,0.1279 0,0.3537 -0.7809,0.4083 -0.9051,0.7907 -0.0951,0.2926 0.1249,0.5152 -0.1044,0.8604 -0.6275,0.9443 0.058,1.9016 0.058,2.9185 -0.2017,-0.0672 -0.4108,-1.8262 -0.441,-2.093 -0.105,-0.9274 0.0333,-1.8986 -0.1508,-2.8022 -0.0863,-0.4235 -0.0737,-0.8286 -0.1973,-1.2558 -0.1389,-0.4799 -0.094,-1.2823 -0.29,-1.6743 0.2536,-0.6567 0.1508,-1.6905 0.1508,-2.3953 0,-0.5294 -0.114,-1.3746 -0.2669,-1.872 -0.1071,-0.3488 -0.2095,-0.7821 -0.2437,-1.1395 -0.0457,-0.4786 -0.4066,-1.1506 -0.6149,-1.5697 -0.1214,-0.2441 -0.292,-0.4164 -0.4062,-0.6744 -0.078,-0.1765 -0.439,-0.4439 -0.4641,-0.5698 -0.1149,-0.0656 -0.2274,-0.1995 -0.3597,-0.2325 -0.3247,-0.1365 -0.8017,-0.5892 -1.0907,-0.8372 -1.1514,-0.9883 -3.3825,-1.4028 -4.4094,0.0814 -0.3724,0.5381 -1.1608,1.6909 -0.3597,2.186 1.0318,0.6375 1.1679,-0.8583 1.6245,-0.7442 0.1914,0.7658 -0.5981,1.5709 -1.3576,1.6162 -0.7782,0.0465 -1.2326,-0.5286 -1.7057,-1.0813 -0.6169,-0.7209 -0.632,-2.0271 -1.6013,-2.3953 -0.3867,-0.1468 -0.7212,-0.3476 -0.9631,-0.686 -0.3072,-0.4295 0.2172,-0.7702 0.3946,-1.0814 0.2439,-0.0609 0.642,-0.5618 0.963,-0.686 2.6838,-1.0383 6.6963,0.161 9.0275,1.7209 0.1157,0.0718 0.0649,0.0697 0.1393,0.0697 0.652,0.5216 1.5938,0.7199 2.2395,1.2907 1.1173,0.9879 2.0214,1.7484 2.6339,3.1975 0.5512,1.3039 1.5095,2.3837 2.0655,3.6395 0.3683,0.5331 0.4727,1.2457 0.7658,1.8255l0.4525 0.8953c0.1246,0.2465 0.4307,0.5679 0.4642,0.8372 0.3446,0.4594 0.4507,1.4653 0.615,2.0232 0.164,0.5566 0.4292,1.3813 0.4757,1.9418 0.1161,0.1825 0.3779,0.8234 0.3945,1.0232 0.5079,1.488 0.7432,2.9956 1.0327,4.5231 0.0998,0.5265 0.117,1.1755 0.2553,1.6744 0.0534,0.1924 -0.0255,0.8109 0.0116,0.8604 0,-0.4356 -0.2615,-0.9875 -0.3365,-1.4418 -0.031,-0.1879 -0.2819,-1.3243 -0.3829,-0.8488 -0.0854,0.4026 -0.3524,0.7381 -0.7542,0.8371 -0.6208,0.1531 0.3046,1.1117 0.3713,1.5465 0.0821,0.5359 0.5234,0.5134 0.6034,0.8953 0.0636,0.3035 0.0838,0.4814 0.2668,0.7326 0.0747,0.1026 0.3239,0.002 0.3597,-0.0698 0.2073,-0.4162 -0.0584,-1.325 0.1045,-1.8139 0.1946,0.2595 0.2552,1.4258 0.2552,1.7674 0.0061,-0.0349 0.0013,-0.047 0.0349,-0.0582l0.5569 8.1161c0.098,0.5732 -0.0161,4.2018 -0.731,4.0231 -0.0893,-0.3587 0.2131,-1.2016 0.3365,-1.6046 0.1462,-0.4776 0.278,-0.9793 0.1509,-1.4883 -0.1076,-0.4306 -0.2553,-0.6214 -0.2553,-1.1395 0,-1.0687 0.0269,-2.0452 -0.2205,-3.0348 -0.0199,-0.0049 -0.0235,-0.0117 -0.0464,-0.0117 -0.0632,0.1907 -0.3902,0.5 -0.615,0.5 -0.0103,0 -0.6493,-1.0671 0.2901,-0.8255 0.1261,0.0324 0.4393,0.2539 0.5338,0.093 0.088,-0.15 -0.0442,-0.4428 -0.1393,-0.5697 -0.1408,-0.0807 -0.287,-0.2046 -0.4293,-0.2442 -0.202,-0.0561 -0.0879,-0.3139 -0.116,-0.5465 -0.0176,-0.1453 0.3016,-0.26 0.3016,-0.5581 -0.321,0 -1.0921,-0.136 -0.8586,0.2093 0.0981,0.145 0.3381,0.6631 0.2669,0.8488 -0.0264,0.0688 -0.4504,0.2025 -0.557,0.2558 -0.2639,0.1322 -0.198,-1.1628 -0.8238,-1.1628 0,0.1794 0.232,0.3298 0.1856,0.5581 -0.0389,0.191 -0.3365,0.3555 -0.3365,0.5 0.4197,0 0.4695,0.1708 0.6034,0.5 0.0711,0.1746 -0.3996,0.3066 -0.499,0.4302 -0.1954,0.2432 -0.0297,0.6602 0.0929,0.907 0.1138,0.2293 0.5105,0.409 0.5105,0.7325l-0.0116 0.0116 -2.1118 0.0117c-0.1155,0.0005 -0.0736,0.4854 -0.0928,0.6046l-0.1973 1.2209c-0.1331,0.8244 1.0993,-0.5828 1.4388,-0.4302 0.3378,0.1517 0.682,0.3109 0.5686,0.6511 -0.286,0 -0.3126,0.5722 -0.116,0.4302 0.2021,-0.1458 1.3757,0.2601 1.5432,0.3954 0.3031,0.245 0.3135,0.196 0.0696,0.5348 -0.2234,0.3101 -0.1901,0.5294 -0.2784,0.8837 0,0.3988 0.1394,0.8465 0.1972,1.1976 0.0735,0.4461 -0.1508,0.7387 -0.1508,1.1395 1.0939,0.3646 -0.1463,1.8557 -0.1857,2.5581 -0.0364,0.6497 -0.2597,1.8113 -0.6382,2.3371 -0.1707,0.237 -0.838,0.7367 -1.1371,0.5 -0.3728,-0.2952 0.4083,-0.7813 0.5918,-0.9651 0.2948,-0.2955 0.3713,-0.6289 0.3713,-1.0581 0,-0.2818 0.3011,-0.6237 0.4177,-0.872 0.1721,-0.3668 0.1832,-0.7269 0.3829,-1.1279 0.1679,-0.3369 0.2881,-0.5551 0.1973,-0.9186 -0.2302,-0.0575 -0.5778,0.8973 -1.0095,1 -0.2775,0.0661 -1.2996,-0.1371 -1.2996,-0.4884 0.5623,0 0.6614,0.2386 0.6614,-0.4069 0.8276,-0.2069 0.2264,-0.446 -0.3481,-0.3024 -0.4312,1.7323 -1.2711,-0.1616 -2.019,-0.5348 -0.7941,-0.3964 -2.9101,0.3316 -3.7595,0.5581 -0.8131,-0.0786 -1.7508,0.1829 -2.5296,0.3256 -0.4519,0.0828 -1.0237,0.2105 -1.4388,0.4069 -0.3893,0.1843 -1.1568,0.2206 -1.4621,0.4884 -0.3484,0.0316 -0.5867,0.2209 -0.9863,0.2209 -0.4887,0 -1.0097,-0.1175 -1.4968,-0.0698l-1.6593 0.1628c-0.1035,0.1475 -0.2854,0.1861 -0.4642,0.1861 -0.0048,-0.0194 -0.0077,-0.0298 -0.0232,-0.0349 0,-0.085 0.0232,-0.1844 0.0232,-0.2558 0.218,0 0.2916,-0.1518 0.4294,-0.1977l0 -0.0232c-0.1406,-0.0468 -0.0565,-0.4054 -0.1161,-0.4651 -0.0747,-0.075 -0.4554,0.4375 -0.4757,0.5232 -0.0376,0.1589 0.0036,0.7162 -0.1276,0.7907 -0.1682,0.0954 -0.5681,0.1564 -0.7775,0.2209 -0.4569,0.1406 -0.6728,0.6531 -1.2067,0.7558 -0.9556,0.1837 -1.5421,0.5695 -2.1351,1.3023 -0.4141,0.5119 -0.0337,1.3659 -1.0791,1.1046 0,-0.767 -0.0395,-1.1964 0.1973,-1.9069 0.1451,0 0.2209,0.1222 0.4177,0.0581 0.2697,-0.0877 0.283,-0.3296 0.6266,-0.3488 0.2156,-0.0121 0.4455,-0.0582 0.6614,-0.0582 0.0898,-0.2694 -0.0232,-0.5142 -0.0232,-0.7906 -0.2669,0 -0.2102,0.1969 -0.4526,-0.1396 -0.2454,-0.3409 -0.5165,-0.0946 -0.8006,-0.1627 -0.1887,-0.0453 -0.6698,-0.2675 -0.8006,-0.2675 0,0.3719 -0.3644,0.2173 -0.3133,0.6395 0.0367,0.3027 0.3249,0.4651 0.3249,0.7791 -0.1798,0.0449 -0.5724,-0.3256 -0.9051,-0.3256 -0.3287,0 -0.5989,-0.0046 -0.8471,0.2442 -0.3244,0.1257 -1.0408,0.6395 -1.3692,0.6395 -0.1612,0 -0.9078,-0.6525 -1.0907,-0.779 -1.1734,-0.812 -2.1535,0.4177 -3.0633,0.7209l0 0.0232c0.1368,0.0342 0.5019,0.4458 0.3945,0.6395 -0.4257,0.767 -1.7439,1.3438 -2.518,1.1512 0,-0.508 1.1757,-1.3598 0.1509,-1.1628 -0.4442,0.0854 -0.5737,-0.3001 -0.4061,0.3372 0.0725,0.2755 0.0471,0.5845 0.116,0.8604l-0.0116 0.0117c-0.4766,0 -0.687,0.0709 -1.1371,0.1395 -0.5428,0.0828 -0.5521,-0.0601 -1.0095,-0.1744 0,-0.0232 0.4143,-0.0846 0.5105,-0.1512 0.4706,-0.3263 0.0439,-0.3128 0.1277,-0.7209 0.0371,-0.1805 0.5722,-0.8836 0.7426,-0.9883 0.1946,-0.1195 0.3449,0.0331 0.5337,0.0814 0.2332,0.0598 0.5017,-0.3489 0.8355,-0.3489 0,-0.1218 -0.4014,-0.2975 -0.4874,-0.3837 -0.1264,-0.1266 -0.1433,-0.3953 -0.3365,-0.3953 -0.1453,0.5814 -0.1097,0.5523 -0.6266,0.8721 -0.2193,0.1357 -1.346,0.9784 -1.346,1.1627 0,0.1835 0.335,0.5384 -0.0116,0.6512 -0.3002,0.0978 -0.2035,0.4285 -0.2436,0.4418 0,0.0814 -0.0813,0.1459 -0.0813,0.2442 -0.1504,0.2921 -0.3044,0.5662 -0.4177,0.8604 -0.0384,0.0996 -0.0309,0.1967 -0.0928,0.3023 -0.0356,0.0606 -0.1996,0.1952 -0.2089,0.2326l-0.0348 0c-0.0307,0.0922 -0.3876,0.0588 -0.4177,-0.0465 -0.0673,-0.2348 0.0123,-0.5433 -0.0464,-0.7791 -0.2655,-0.0663 -0.5076,0.1335 -0.4758,-0.2907 0.0113,-0.1521 0.2165,-0.5089 0.3017,-0.6395 0.1804,-0.2768 0.2053,-0.3771 0.2205,-0.7325 0.0167,-0.391 -0.3108,0.1654 -0.3481,0.2791 -0.0896,0.2731 -0.1819,0.5181 -0.3133,0.7674 -0.0725,0.1377 -0.0752,0.2984 -0.1044,0.4418 -0.0652,0.3203 -0.329,0.7016 -0.3481,1.0232 -0.0074,0.1243 0.3761,0.0698 0.4989,0.0698 0.2779,0 -0.0254,0.6195 0.2553,0.6511 0.2217,0.025 0.3031,-0.5464 0.5686,-0.5464 0,0.1143 -0.1359,0.2724 -0.1625,0.3953 -0.0369,0.17 -0.1222,0.2478 -0.1856,0.407 -0.1475,0.1867 -0.2986,0.3912 -0.4294,0.5813 -0.0476,0.0691 -0.0818,0.1442 -0.1392,0.2093 -0.04,0.0455 -0.0577,0.1045 -0.1044,0.1512 0,0.0231 0.0022,0.0164 -0.0117,0.0349 -0.353,0.3845 -0.5372,0.8844 -0.9979,1.1743 -0.5638,0.3546 -1.0563,0.2626 -1.6825,0.3838 -0.2619,0.0507 -1.2958,0.1215 -1.4388,0.3372l-0.058 0c-0.041,0.1232 -0.2669,-0.0215 -0.2669,-0.1745 0.2844,-0.1422 0.8017,-0.1455 1.0559,-0.3372 0,-0.1152 -0.2082,-0.3738 -0.232,-0.5581 -0.039,-0.3029 0.1376,-0.9332 -0.1857,-1.1046 -0.1247,-0.066 -0.176,-0.6562 -0.3481,-0.8488 -0.3328,-0.3727 -0.3018,0.9533 -0.3481,1.1395 -0.0458,0.1846 -0.2643,1.0082 -0.4641,1.0581 -0.0062,0.0312 -0.1179,0.172 -0.1277,0.1744 -0.0049,0.0198 -0.0116,0.0237 -0.0116,0.0465 -0.0921,0.0307 0.3386,0.1132 0.3597,0.1977 0.1005,0.0251 0.2578,0.7246 -0.0348,0.4651 -0.1194,-0.106 -0.7468,-0.2698 -0.8934,-0.2907 -0.0158,-0.0476 -0.1359,-0.0349 -0.1857,-0.0349 -0.0043,0.013 -0.0422,0.0423 -0.058,0.0582 -1.5559,0.3201 -3.0722,0.6808 -4.6878,0.7557 -1.6924,0.0784 -2.7127,1.2485 -3.0982,2.7906 -0.0232,0 -0.3647,-0.2509 -0.4293,-0.279 -0.2937,-0.1277 -0.5971,0.0394 -0.7426,-0.3372 -0.0741,-0.1917 -0.1255,-0.6628 -0.3829,-0.6628 -0.1135,-0.0109 -0.4283,-0.1442 -0.499,-0.0814 -0.1683,0.1492 0.199,0.3728 -0.1856,0.6395 -0.1722,0.1193 -0.1906,-0.8459 -0.1393,-0.9999 0.1849,0 0.6343,0.178 0.8471,0.2325 0.4292,0.1101 0.2587,-0.8702 0.4989,-0.9302 0.1598,0.4824 0.9747,0.1521 0.9747,-0.1744 -0.9021,-0.2255 0,-0.3667 0,-0.9418 0,-0.3922 -0.0749,-0.8274 -0.0116,-1.2209 0.0592,-0.3677 0.4842,-0.2955 0.5454,-0.5349 0.0966,-0.3773 0.4243,-0.301 0.3945,-0.8023 -0.0222,-0.3722 -0.0285,-1.0639 -0.3017,-1.3371 -0.014,-0.478 -0.5337,-0.914 -0.5337,-1.3605 0.6106,0 0.5801,-0.1856 0.5801,0.407 0,0.6843 0.4062,-0.5488 0.4062,-0.7907 -0.2331,0 -0.4348,0.0814 -0.6847,0.0814 -0.385,0 -0.2197,-0.1074 -0.0464,-0.3255 0.2503,-0.3152 0.2973,-0.6331 0.5106,-0.9651 0.3561,-0.5544 -0.4184,-0.9755 -0.116,-1.2674 0.0971,-0.0938 0.1938,-0.593 -0.0117,-0.593 -0.1501,0 -0.3507,0.279 -0.5569,0.279 0,-0.143 0.1878,-0.3535 0.1392,-0.5581 -0.0874,-0.3683 0.2557,-0.2392 0.5222,-0.3721 0.3159,-0.1574 1.133,-0.357 1.3112,-0.6046 0.1165,-0.1618 0.2595,-0.2709 0.4061,-0.3488 0.2201,-0.1169 0.0464,-0.4723 0.0464,-0.6395 -0.1834,0.0458 -0.27,0.4087 -0.6034,0.186 -0.4853,-0.3243 -0.5451,0.0917 -0.8818,0.186 -0.2275,0.0638 -0.6125,-0.2317 -0.8239,-0.3255 -0.3688,-0.1635 0.6064,-0.9667 0.9283,-0.5698 0.1381,0.1702 0.2606,0.3954 0.5105,0.3954 0.4182,0 0.2669,-0.3502 0.2669,-0.6047 0.358,0 0.49,0.2399 0.731,-0.2442 0.2421,-0.3189 -0.014,-0.2528 -0.2552,-0.3604 -0.1569,-0.0701 0.0743,-0.3735 0.1044,-0.4884 0.0154,-0.0586 -0.0136,-0.3098 -0.1044,-0.3023 -0.0878,0.0073 -0.0971,0.3721 -0.3481,0.3721 -0.0375,0 -0.4165,-0.2169 -0.4178,-0.2209 -0.1234,0 -0.1044,0.6227 -0.1044,0.7558l-0.0232 0c0,-0.3237 -0.3439,-0.3532 -0.4989,-0.5116 -0.2724,-0.2786 0.2515,-0.4158 0.4873,-0.5117 0.0844,-0.0344 0.339,-0.1188 0.3713,-0.2092 0.0288,-0.0803 -0.0229,-0.4651 -0.116,-0.4651 -0.1017,0.2034 -0.3529,0.4037 -0.5686,0.4999 -0.1904,0.0848 -0.5622,0.5374 -0.7542,0.7093 -0.1176,0.1054 -0.9363,0.0814 -1.1256,0.0814 -0.0673,-0.2019 0.9029,-0.7402 1.1024,-0.9651 0.271,-0.3053 0.2219,-0.4017 0.6382,-0.5116 0.4533,-0.1196 1.1112,-0.2653 1.4852,-0.5697 0.2895,-0.2357 0.2437,-0.7943 0.2437,-1.1628l-0.0116 -0.0116c-0.0834,0 -0.3855,0.7398 -0.4177,0.8372 -0.0429,0 -0.1741,-0.5441 -0.1741,-0.6279 0,-0.3083 0.5802,-0.2022 0.5802,-0.6395 0,-0.467 -0.283,-0.8838 -0.7659,-0.6977 -0.5008,0.1929 -0.2439,0.8785 -0.5453,1.1046 -0.1519,-0.1139 -0.3691,-0.3624 -0.2553,-0.5465 0.0798,-0.1289 0.1178,-0.374 0.2205,-0.4767 0.1537,-0.1537 0.5312,-0.1233 0.6266,-0.3721 0.0611,-0.1591 0.0608,-0.4766 0.1044,-0.6511 0.0419,-0.0554 0.079,-0.1142 0.1276,-0.1628 -0.7037,-0.1759 -0.028,-0.6017 0.0696,-0.8721 0.126,-0.3487 -0.2627,-0.4873 0.0349,-0.8604 0.0744,-0.0934 0.4214,-0.2791 0.5685,-0.2791 0.2542,0 0.1711,0.1063 0.3365,-0.0814 0.1886,-0.2142 0.464,-0.5579 0.1857,-0.8371 -0.0053,-0.0054 -0.1971,0.6396 -0.4061,0.7092 0,-0.7564 -1.3072,-0.4285 -1.2648,-0.1395 0.0357,0.244 0.0405,0.5338 0.1508,0.7325 0.1035,0.1867 0.1625,0.3182 0.1625,0.5465 0,0.0589 -0.1586,0.0168 -0.2205,0.0117 -0.2135,-0.0179 0.1364,0.1741 -0.1508,0.279 -0.6682,0.2439 -0.3056,0.2992 -0.5106,0.9302 -0.1612,0.4959 -0.5251,-0.1779 -0.6846,-0.3255 -0.274,-0.2533 -0.3619,-0.1977 -0.7078,-0.1977 -0.263,0 -0.3253,0.1977 -0.4525,0.1977 -0.3071,0 -0.2578,-0.1988 -0.4874,-0.314 -0.1319,-0.0661 0.0765,0.4671 0.1277,0.5581 0.096,0.1703 0.5265,0.0233 0.6962,0.0233 0.2274,0 0.4536,0.3947 0.731,0.5 0.2334,0.0887 0.3249,0.191 0.3249,0.4418 0,0.1737 0.1535,0.235 -0.1045,0.1512 -0.1733,-0.0563 -0.3508,-0.1337 -0.5221,-0.1744 -0.3148,-0.075 0.2205,0.7059 0.2205,0.9069 -0.1166,0.3618 -1.5592,2.4576 -1.9146,2.5464 0,-0.6618 1.4504,-1.7009 1.4504,-2.372 -0.4149,0 -0.6507,0.038 -0.9399,-0.4302 -0.1177,-0.1904 -0.4811,-0.8255 -0.7194,-0.8255 -0.1604,0.6417 -2.0152,0.0173 -2.1466,-0.5349 -0.0615,-0.2584 0.0813,-0.4185 0.174,-0.6279 0.1657,-0.3746 -0.2741,-0.4805 0.2785,-0.7558 0.2323,-0.1158 -0.2731,-0.8372 -0.3365,-0.8372 0,0.5809 -0.0371,1.0145 -0.3945,1.4651 -0.3427,0.4322 -0.7589,0.3154 -1.2184,0.4302 0,0.3365 0.7883,0.613 0.6382,1.093 -0.1258,0.4026 -1.1962,-0.7664 -1.404,-0.6628 -0.4312,0.2148 -0.3351,-1.2851 -0.3713,-1.4301 -0.236,0.059 -0.0834,1.5069 0.058,1.6976 0.3094,0.417 0.9509,0.3096 1.1372,0.7674 0.124,0.305 0.5103,0.7587 0.8006,0.9302 0.3619,0.2137 0.2788,0.3807 0.1973,0.779 -0.0669,0.3275 -0.8383,-0.1486 -0.9979,-0.2093 -0.1446,-0.0551 0.301,0.9369 0.6265,1.1047 0.1921,0.0989 0.2378,1.3363 0.1973,1.6976 -0.0215,0.1917 -0.8095,-0.7116 -0.8703,-0.8605 -0.0875,-0.2145 -0.8934,-0.3494 -0.8934,-0.6162 0.0803,0 0.8934,0.3407 0.8934,0.1395 -0.4057,-0.1014 -0.7325,-1.2093 -1.0791,-1.2093 -0.1541,0.6191 -0.2114,0.0542 -0.5686,-0.1744 -0.3731,-0.2389 -0.2552,-0.4421 -0.2552,-0.779 -0.1253,0 -0.0311,0.2568 -0.3133,0.0465 -0.8588,-0.6403 0.1886,1.238 0.2669,1.3953 0.1315,0.2645 -0.0047,0.5079 0.1044,0.7674l0.3713 0.8837c0.1138,0.3537 0.3365,0.6443 0.3365,1.0232l-0.7194 -0.7906c-0.4933,-0.5422 -0.3483,-0.1163 -0.8471,-0.1163 0,0.3272 0.4526,0.9327 0.4526,1.2209 -0.2728,0.0682 -0.0374,0.2651 0.0348,0.5 0.0491,0.1601 0.2295,0.9245 -0.058,0.9534 -0.1668,0.0168 -0.1509,0.1244 -0.1509,0.2674 0,0.1409 -0.299,0.1826 -0.4061,0.2093 0,0.1437 0.2569,0.435 -0.0232,0.593 -0.3114,0.1755 -0.1756,-0.5747 -0.1741,-0.6046 0.0365,-0.6891 -0.4318,-0.33 -0.9747,-0.4418 -0.4652,-0.0957 -0.5821,0.3469 -0.9863,-0.0582 -0.6649,-0.6666 -0.8787,-0.279 -1.6128,-0.279 -0.3036,0 -0.0862,0.9087 0.3249,1.0116 0.7533,0.1885 1.3062,0.8704 1.0095,1.6976 -0.0872,0.2431 -0.6599,0.4075 -0.8007,0.186 -0.091,-0.143 -0.2648,-0.2158 -0.3365,-0.3604 -0.0465,-0.0936 0.0097,-0.3443 -0.0232,-0.4768 -0.3412,0.1137 0.0406,0.2046 -0.4525,0.0814 0,0.325 0.4463,0.5938 0.3481,0.9884 -0.1962,0 -0.2192,-0.4535 -0.4758,-0.4535 -0.1807,0.7228 -0.8904,0.3216 -1.2183,0.0581 -0.4642,-0.2397 -0.5831,0.3206 -0.9051,-0.4069 -0.0184,-0.0418 -0.9537,-0.6298 -0.9399,-0.3837 0.0319,0.5692 0.0139,0.8925 0.4178,1.2674 0.3642,0.3382 0.6924,1.2242 0.6846,1.7208l-0.0116 0.7326c-0.0067,0.4298 0.041,0.2263 0.2088,0.093 0.2081,-0.1654 0.6752,0.2829 0.6962,-0.093 0.0246,-0.4382 0.8239,-1.0526 0.8239,-0.2442 0,0.8747 0.2529,0.6603 0.905,0.7907 0,0.0232 -0.259,0.2796 -0.3017,0.4418 -0.1537,0.5834 -0.2882,0.8443 -0.7194,0.2558 -0.1481,-0.2021 -0.2915,-0.9302 -0.4757,-0.9302 -0.0688,0.2752 -0.9303,-0.2231 -1.0211,0.1047 -0.0478,0.1724 -0.1637,1.0818 -0.3017,1.1278 0,-0.2129 -0.3257,-1.4064 -0.4873,-1.5232 -0.4059,-0.2931 -0.499,-1.5237 -0.499,-2.0348 0,-0.3867 -0.9199,-1.3604 -1.2648,-1.3604 -0.148,0.592 -0.8993,0.8837 -1.4504,0.8837 0,-0.1387 0.2392,-0.2884 0.1624,-0.4884 -0.0959,-0.25 -0.1754,-0.3855 -0.232,-0.7209 -0.0627,-0.3709 -0.1242,-0.1977 -0.4178,-0.1977 -0.0383,-0.1532 0.2437,-0.288 0.1045,-0.4883 -0.1411,-0.2028 -0.3894,-0.6186 -0.3017,-0.8837 0.1609,-0.4859 -0.058,-0.3987 -0.058,-0.7325 0.0622,-0.2356 -0.052,-0.4762 -0.0232,-0.7326 0.0243,-0.2169 0.0116,-0.4432 0.0116,-0.6627 -0.0761,0 -0.0765,0.3989 -0.0929,0.4651 -0.052,0.21 -0.1972,0.6373 -0.1972,0.8255 0,0.4092 -0.0323,0.7174 -0.0464,1.1163l-0.0232 0.6511c-0.009,0.2563 0.2161,0.0581 0.3829,0.0581 0.0059,0.0179 -0.0005,0.0117 0.0232,0.0117l0.0116 0.0116 0 0.1512c-0.4483,0.1494 0.0232,1.5565 0.0232,1.9069 0.1717,0 0.1343,-0.3489 0.3249,-0.3489 0,0.3323 -0.0966,0.4057 0.0464,0.7558 0.0993,0.2434 0.2737,0.6043 0.4409,0.814 0.0995,0.4988 0.0891,0.8736 0.2553,1.3371 0.0744,0.2073 0.1737,0.3429 -0.0464,0.2326 -0.5358,-0.2688 -0.6428,-0.0551 -0.8819,-0.6861 -0.1321,-0.3485 -0.3686,-0.7211 -0.4641,-1.0929 -0.1032,-0.4022 -0.3313,-0.3605 -0.7426,-0.3605 -0.0854,0 0.0097,0.4193 0.0232,0.5116 0.0564,0.3852 0.1856,0.7944 0.1856,1.1744 0,0.3891 -0.3742,1.2461 -0.5337,1.6046 -0.1158,0.2602 -0.0903,0.3794 -0.3017,0.1163 -0.3418,-0.4251 -0.6123,-0.9269 -1.0095,-1.2791 -0.1799,-0.1596 -0.3565,-0.3441 -0.5106,-0.5581 -0.1525,-0.2119 0,0.2755 0,0.3954 0,0.3442 -0.2951,0.2339 -0.3133,0.3953 -0.0144,0.1283 0.378,0.6288 0.4526,0.779 0.2402,0.4838 -0.0175,0.303 -0.2089,0.5465 -0.4274,0.544 0.2292,0.2314 0.4293,-0.0697 0.1371,-0.2065 -0.1289,-0.7894 -0.116,-0.8023 0.3611,-0.3611 0.5835,0.6516 0.673,0.9302 0.117,0.3637 0.278,0.5549 0.557,0.8023 0.2982,0.2646 0.0635,1.0795 0.1856,1.4767 0.1213,0.395 0.5338,0.9621 0.5338,1.3604 -0.0526,-0.263 -0.7197,-0.2379 -0.9167,-0.1977 -0.3612,0.0736 -0.3266,0.208 -0.4409,0.5233 0.0562,0.2193 0.0378,0.8595 -0.2553,0.4185 -0.2154,-0.3243 -0.1508,0.1489 -0.1508,0.3954 0,0.2915 0.0464,0.549 0.0464,0.8488 0,0.2972 -0.0484,0.5815 -0.1625,0.093 -0.0637,-0.2725 -0.2314,-0.6921 -0.3481,-0.9534 -0.06,-0.1346 -0.6261,-0.8372 -0.731,-0.8372 -0.0483,0 -0.114,0.3538 -0.2437,0.4069 -0.3031,0.1239 -0.0778,-0.7186 -0.3829,-0.7441 -0.2469,-0.0207 -0.3836,-0.5109 -0.3249,-0.1279 0.035,0.2279 -0.6778,0.6527 -0.1856,0.5348 0.8336,-0.1998 0.3489,0.4285 0.2204,0.7675 -0.1658,0.4377 0.0161,0.8085 0.0464,1.2441 0.019,0.2744 0.2338,0.7387 -0.174,0.5116 -0.4203,-0.2342 -0.7553,-0.6326 -1.2648,-0.4883 -0.4022,0.1138 -0.7769,0.3371 -1.2184,0.3371 0.3252,-0.065 0.5797,-0.3262 0.9399,-0.3953 0.2229,-0.0428 0.5937,-0.014 0.7891,-0.0814 0.1341,-0.0462 -0.315,-0.4702 -0.3946,-0.5232 -0.1793,-0.1193 -0.3536,0.093 -0.5337,0.093 -0.3758,0 -0.6598,-0.203 -0.8471,0.2558 -0.0748,0.1832 -0.3986,0.2049 -0.1624,0.4419 0.5742,0.576 -0.5553,0.8208 -0.615,0.9999 -0.9291,0.3002 -0.4409,0.6522 -0.4409,1.3488 0,0.1483 0.0177,0.8414 -0.1161,0.3023 -0.2432,-0.9794 -0.3108,-1.1096 -1.0095,-1.7092 -0.5309,-0.4557 -1.1493,-0.568 -1.8101,-0.686 -0.2723,-0.0486 -0.502,-0.0352 -0.7658,-0.1047 -0.531,-0.1399 0.8514,-0.257 1.0443,-0.3023 0.8815,-0.2071 0.4431,0.2604 1.0791,0.4186 0.4711,0.1171 0.5173,-0.4005 0.9283,0.0116 0.1766,0.177 0.436,0.5149 0.615,0.6395 0.1564,0.109 0.5194,-0.0497 0.4989,-0.2325 -0.071,-0.6323 -0.7813,-1.0645 -1.2764,-1.2674 -0.2381,-0.0975 -0.0163,-0.7219 -0.0696,-1 -0.1857,-0.9672 -0.198,-2.5804 -0.9399,-3.3255 0,1.0176 -0.7346,-0.1428 -0.847,-0.2209 -0.111,-0.0772 0.1117,0.623 0.1392,0.6977 0.4667,1.2652 0.7612,2.1231 0.4177,3.465 -0.1144,0.4468 -0.2511,0.5626 -0.731,0.2907 -0.5008,-0.2837 -0.8614,-0.2835 -0.9863,-0.8954 -0.1739,-0.8523 -0.0105,-0.4999 -0.4873,-0.4999 -0.3364,0 -0.5193,-0.6255 -0.5918,-0.8837 -0.0899,-0.3206 -0.2689,-0.2924 -0.5454,-0.3489 -0.1806,-0.0368 -0.863,-0.4207 -0.8354,-0.3372 0.2249,0.6796 0.7222,1.4775 1.3924,1.7907 0.6401,0.299 0.5666,0.8459 0.5338,1.3953 -0.0361,0.6063 -0.0793,0.5778 0.4641,0.8488 0.523,0.2607 -0.5973,0.3212 -0.6846,0.3256 -0.68,0.0343 -0.8752,0.5813 -1.5317,0.5813 -0.0056,0 -0.0284,0.0062 -0.0627,0.0161l0 0 -0.5755 -7.9925c0,-0.2016 -0.0174,-0.7968 -0.1508,-0.9302 0,-0.0934 -0.0951,-0.4794 -0.1625,-0.5465l0 -0.0349c-0.0882,-0.0882 -0.1515,-0.2718 -0.232,-0.3837 -0.0905,-0.1256 -0.1747,-0.2453 -0.2553,-0.3721 -0.2112,-0.3318 -0.2241,-0.6937 -0.1508,-1.093 -0.0594,-0.2377 0.0026,-0.8211 0.1624,-1 0.2491,-0.279 0.2437,-0.6537 0.2437,-1.0348 0,-0.8131 0.174,-1.6223 0.174,-2.3953 -0.3113,-0.0778 -0.595,-0.2124 -0.9631,-0.2325 -0.3805,-0.0207 -1.0906,-0.1451 -1.4388,-0.2907 -0.206,-0.0862 -0.4877,-0.2531 -0.6846,-0.3023 -0.0085,-0.0342 -0.0492,-0.0575 -0.058,-0.0931 -0.0283,-0.007 -0.0277,-0.0286 -0.0464,-0.0348 -0.0059,-0.024 -0.0423,-0.0465 -0.0696,-0.0465 -0.0533,-0.0805 -0.1988,-0.1056 -0.3023,-0.1104l-0.926 -0.3559 0 0c0.0064,-0.0756 0.0099,-0.1563 0.0099,-0.243 0.1735,-0.87 1.0417,-1.5146 1.5665,-2.1046 0.281,-0.3158 0.7007,-0.3888 0.963,-0.6511 0.1753,-0.1753 -0.0289,-1.1586 0.2205,-1.2209 0.0152,-0.0917 0.1372,-0.1436 0.1625,-0.2326 0.0926,-0.0264 0.6507,-0.6135 0.731,-0.7093l1.1603 -1.3836c0.2113,-0.2519 0.293,-0.3676 0.1625,-0.6628 -0.1901,-0.4296 -0.0696,-0.3127 -0.0696,-0.6977 0.2322,-0.2077 0.426,-0.4109 0.673,-0.5348 0.4487,-0.225 0.6707,-0.3157 0.5801,-0.907 -0.0398,-0.2599 -0.0259,-0.9343 0.058,-1.186 -0.4442,0 -0.5337,-1.1847 -0.5337,-1.5464 0,-0.5369 0.1899,-0.993 0.4989,-1.3953 0.2165,-0.2817 0.0415,-0.7522 -0.1276,-0.3721 -0.1151,0.2586 -0.2645,0.4161 -0.4757,0.6279 -0.1051,0.1055 -0.2037,1.2057 -0.2553,1.4418 -0.022,0.1005 -0.0446,0.4302 -0.1625,0.4302 -0.1328,0 -0.3029,-0.2442 -0.4409,-0.2442 0,0.6661 0.4344,0.2388 0.5802,0.8605 0.0597,0.2546 0.3105,0.7809 0.232,1.0232 -0.0823,0.2537 -0.3654,0.3587 -0.4641,0.6395 -0.0492,0.1399 -0.1601,0.4655 -0.3365,0.4767 -0.4063,0.0258 -0.2553,0.0268 -0.2553,0.4186 0,0.322 0.0104,0.8512 -0.1276,1.1279 -0.3211,0.7357 -0.963,1.0351 -1.1836,1.7557 -0.1738,0.5674 -0.7863,1.0371 -1.1719,1.4535 -0.2212,0.2388 -0.6189,0.6834 -0.9631,0.5116 -0.5276,-0.2632 -1.1222,0.762 -0.9399,-0.3721 0.0381,-0.2373 -0.0646,-0.6842 0.0232,-0.8837 0.1048,-0.238 0.1625,-0.268 0.1625,-0.5465 -0.121,0.3632 -0.541,0.8423 -0.5802,1.2325 -0.0275,0.2731 -0.3709,0.7988 -0.6614,0.6047 -0.7619,-0.5089 -0.6128,-0.4342 -0.1741,-1.093 0.2971,-0.4463 -0.2016,-0.1958 -0.5453,-0.3721 -0.1508,-0.0774 0.2205,-0.2428 0.2205,-0.5697 0,-0.1984 -0.2218,0.0232 -0.499,0.0232 -0.3545,0 -0.1442,1.5374 -0.1741,1.8953l0 0 -2.4488 -3.7723 -1.5325 -0.952 0 0c0.054,-0.1554 0.1092,-0.3058 0.0942,-0.3453 -0.1401,-0.3698 -0.0803,-0.4866 -0.2321,0.0116 -0.0227,0.0746 -0.0464,0.1348 -0.0709,0.1861l0 0z"/>
 </g>
</svg>
