<?xml version="1.0" encoding="UTF-8"?>
<!DOCTYPE svg PUBLIC "-//W3C//DTD SVG 1.1//EN" "http://www.w3.org/Graphics/SVG/1.1/DTD/svg11.dtd">
<!-- Creator: CorelDRAW -->
<svg xmlns="http://www.w3.org/2000/svg" xml:space="preserve" width="210mm" height="297mm" style="shape-rendering:geometricPrecision; text-rendering:geometricPrecision; image-rendering:optimizeQuality; fill-rule:evenodd; clip-rule:evenodd"
viewBox="0 0 210 297"
 xmlns:xlink="http://www.w3.org/1999/xlink">
 <defs>
  <style type="text/css">
   <![CDATA[
    .str2 {stroke:#2F3133;stroke-width:0.1}
    .str1 {stroke:black;stroke-width:0.1;stroke-opacity:0.501961}
    .str0 {stroke:black;stroke-width:0.1}
    .str3 {stroke:black;stroke-width:0.5}
    .fil5 {fill:none}
    .fil0 {fill:white}
    .fil4 {fill:#1F1A17;fill-rule:nonzero}
    .fil2 {fill:#C2C1C1;fill-rule:nonzero}
    .fil3 {fill:white;fill-rule:nonzero}
    .fil6 {fill:black;fill-rule:nonzero}
    .fil1 {fill:white;fill-rule:nonzero;fill-opacity:0.501961}
   ]]>
  </style>
 </defs>
 <g id="Plan_x0020_1">
  <metadata id="CorelCorpID_0Corel-Layer"/>
  <path class="fil0 str0" d="M156.53 69.4623c-0.0797,0.2403 -0.2744,0.2637 -0.4907,0.2637 -0.3113,0.3746 -0.448,0.9387 -0.448,1.4609 0,0.5429 0.5115,0.7361 0.7894,1.1473 0.1962,0.2905 0.2879,0.557 0.3485,0.9051 0.039,0.2241 0.5087,1.1285 0.448,1.1829 -0.1154,0.1036 -0.3725,-0.0078 -0.448,-0.114 -0.1554,-0.0217 -0.2899,-0.0926 -0.4694,-0.0926 -0.2258,-0.1824 -0.4196,-0.2656 -0.4196,-0.6058 0,-0.2989 0.0321,-0.6039 -0.3129,-0.677 -0.9179,-0.1945 -0.869,-1.2081 -1.0596,-1.9027 -0.1138,-0.4145 -0.1131,-1.0302 -0.3271,-1.3896l-0.0285 0c-0.0719,0.1261 -0.0981,0.4489 -0.256,0.4489l-0.0356 -0.0356c-0.2435,-0.2771 -0.3909,-0.5209 -0.512,-0.8552 -0.1243,-0.3435 0.0786,-0.2478 0.3556,-0.3064 0.5865,-0.1243 1.2265,-1.7295 1.6356,-1.525 0.0614,0.4373 0.6094,0.3566 0.9174,0.3421 0.1657,-0.0078 0.3191,-0.0428 0.4907,-0.0428 0.2457,0 0.2168,0.1137 0.3556,0.2067 0,0.3105 -0.2858,0.3232 -0.3982,0.5772 -0.0735,0.1659 -0.0925,0.549 -0.0925,0.734l-0.0427 0.2779zm0.5263 6.4279c0,-0.6858 -0.0813,-1.3629 -0.8178,-1.4965 -0.1572,-0.0285 -1.0905,-0.0334 -1.1734,0.0713 -0.0512,0.0645 0.1461,0.7675 0.1706,0.8908 0.1092,0.55 0.6926,0.8822 0.7823,1.4038 0.0474,0.2754 0.1441,0.4208 0.32,0.6272 0.107,0.1254 -0.0967,0.6057 0.1209,0.6057 0.1408,-0.1765 0.1573,-0.4521 0.4267,-0.5345 0.2935,-0.0899 0.4251,-0.3325 0.512,-0.5915 0.0963,-0.2873 -0.0562,-0.4621 -0.2133,-0.6841l-0.128 -0.2922zm3.0864 6.2427c-0.023,-0.043 -0.1077,-0.2426 -0.1351,-0.2495 -0.0097,-0.0394 -0.1558,0.0291 -0.1778,0.0357 -0.0814,0.0248 -0.1755,0.0292 -0.256,0.057 -0.1177,0.0408 0.1819,0.3404 0.2133,0.3706 0.1048,0.1004 0.2117,0.1556 0.3058,0.2707 0.0459,0.0563 0.2288,0.2081 0.2916,0.1853 0.153,-0.0558 -0.1138,-0.4087 -0.1138,-0.5202l-0.128 -0.1496zm4.5016 -0.563c-0.1116,-0.0256 -0.2837,-0.0719 -0.3982,-0.0499 -0.0572,0.0109 -0.1152,0.0356 -0.1778,0.0356 -0.1009,0 -0.2178,0.0083 -0.1707,0.1568 0.0301,0.0948 0.145,0.0893 0.2205,0.0641 0.1503,-0.0501 0.3128,-0.0716 0.448,0.0357 0.0506,0.0401 0.109,0.0681 0.1565,0.1069 0.0229,0.0186 0.0911,0.0516 0.0995,0.0641 0.0389,0 0.0783,-0.0201 0.0783,-0.0641 0,-0.0319 -0.0598,-0.1773 -0.0925,-0.1853l-0.1636 -0.1639zm1.0526 1.5749c-0.0447,-0.0829 -0.0837,-0.1802 -0.1209,-0.2637 -0.0267,-0.0602 -0.1148,-0.0214 -0.1565,-0.0214 -0.0271,0.0219 -0.0628,0.0316 -0.0924,0.0499 -0.0337,0.0208 -0.0591,0.0449 -0.0925,0.0642 -0.0072,0.0294 -0.0213,0.0402 -0.0213,0.0784 0,0.037 0.0122,0.065 0.0142,0.0997 0.0049,0.0846 -0.0213,0.1556 -0.0213,0.2423 0,0.1113 0.042,0.1739 0.1351,0.2209 0.1157,0.0585 0.2477,-0.2046 0.32,-0.2565l0.0356 -0.2138zm0.9173 4.0406c0.2077,0 0.6689,-0.0851 0.8392,-0.1995 0.3961,-0.2663 0.2914,-0.3489 0.6045,0.0142 0.1477,0.1712 0.2205,-0.0924 0.2205,0.2851 0,0.325 0.3858,0.0317 0.4409,-0.1354 0.1138,0 0.185,0.4925 0.4409,0.5416 0.1894,0.0364 0.5019,0.159 0.6685,0.1496 0.1459,-0.0082 0.1666,-0.0545 0.3342,-0.0427 0.1534,0.0107 0.2909,-0.2082 0.4338,-0.1711 0.2787,0.0723 0.3075,-0.0106 0.4338,-0.2921 0.1685,-0.3753 0.2806,-0.4588 0.3058,-0.9051 0.0186,-0.3287 0.6716,-0.6171 0.5547,-0.9692 -0.0647,-0.1952 -0.3323,-0.3533 -0.3769,-0.5344 -0.1302,0 -0.1494,0.1879 -0.3058,0.1924 -0.2455,0 -0.2401,-0.2093 -0.3769,-0.3563 -0.1649,-0.177 -0.3176,-0.0903 -0.4622,-0.2067 -0.1183,-0.0951 -0.0629,-1.0066 -0.2134,-1.2685 -0.1536,-0.2671 -0.4038,-0.3524 -0.5262,-0.6699 -0.2264,-0.5869 -0.1248,-0.484 -0.7325,-0.6128 -0.1872,-0.0396 -0.3324,-0.2769 -0.4765,-0.3848 -0.1626,-0.1216 -0.7033,0.0562 -0.9103,0.0712 -0.3323,0.0242 -0.7102,-0.1569 -0.9956,-0.1211 -0.3026,0.0379 -0.3257,0.5334 -0.5903,0.5986 0.0165,0.0841 0.469,0.3195 0.5618,0.3421 0.2389,0.0584 0.3936,0.0101 0.6187,0.0285 0.4075,0.0333 -0.1639,1.0275 -0.1706,1.1402 -0.0134,0.2235 -0.6211,0.006 -0.7681,0.114 -0.0916,0.0674 -0.2638,0.4596 -0.384,0.3563 -0.3535,0.1831 -0.3823,-0.3234 -0.6187,0.2708 -0.0924,0.2321 -0.6163,1.2314 -0.889,1.1473 -0.0626,-0.0193 -0.3135,-0.4999 -0.3698,-0.5914 -0.1379,-0.2243 -0.0012,-0.3772 -0.0569,-0.5987 -0.1121,-0.0276 -0.2321,-0.0823 -0.3413,-0.1069 -0.2107,-0.0474 -0.2054,0.0202 -0.2489,0.2067 -0.0612,0.2626 -0.4048,0.419 -0.4623,0.6913 -0.0476,0.225 -0.2277,0.6588 -0.1635,0.8694 0.0499,0.1635 0.4905,-0.0968 0.6187,-0.1141 0.2243,-0.0302 0.2147,0.1846 0.256,0.3279 0.0438,0.1524 0.2011,0.2166 0.3413,0.2494 0.3651,0.0853 0.4325,0.4354 0.7041,0.5986 0.5063,0.3041 0.3292,-0.8472 0.9387,-0.1996 0.1569,0.1666 0.2959,0.2604 0.4907,0.1069 0.1264,-0.0997 0.1838,0.1283 0.3343,0.1283l0.2986 0.0499zm-16.6268 4.7319l-0.0427 0c-0.0447,-0.09 -0.5161,-0.2544 -0.6329,-0.3421 -0.3242,-0.2433 -0.6813,-0.3706 -1.081,-0.3278 -0.3205,0.0344 -0.6315,0.0727 -0.9387,-0.0499 -0.1861,-0.0742 -0.3313,-0.24 -0.512,-0.285 -0.1241,-0.0308 -0.2409,-0.0141 -0.32,0.0926 -0.2803,0.3784 0.9933,0.7961 1.024,1.1402 0.0593,0.0495 0.0941,0.1785 0.1494,0.2494 0.1511,0.194 0.3957,0.3398 0.5404,0.5202 -0.0095,-0.0052 -0.011,-0.0106 -0.0213,-0.0071 0.094,0.3815 0.3415,0.8405 0.7538,0.9264 0.1893,0.0395 0.3842,-0.0369 0.5832,0.0072 0.1747,0.0386 0.2636,0.0712 0.4551,0.0712 0.2885,0 0.2111,0.3585 0.4978,0.1924 0.1443,-0.0837 0.4459,-0.0433 0.5121,-0.1853 0.0552,-0.1182 -0.0316,-0.3238 0.0924,-0.4133 0.2942,-0.2122 0.3184,-0.14 0.448,-0.5059 0.0851,-0.2406 0.2765,-0.4304 0.3556,-0.6699 -0.2935,-0.0723 -0.5605,-0.0153 -0.8463,-0.171 -0.2672,-0.1457 -0.3853,-0.6635 -0.6044,-0.9193 -0.3026,-0.3531 -0.1898,0.0269 -0.1565,0.2209 0.0168,0.0978 0.0356,0.1924 0.0356,0.2922 0,0.0996 -0.0747,0.0981 -0.0854,0.1852l-0.2062 -0.0213zm-3.6411 -1.4324c-0.0235,0.0033 -0.064,0.0075 -0.0711,-0.0214 -0.0266,-0.0037 -0.058,-0.0362 -0.0854,-0.0499 -0.0481,-0.0239 -0.3159,-0.1403 -0.2631,0.0071 0.0317,0.0883 0.0565,0.1873 0.0995,0.2708 0.0282,0.0546 0.0669,0.0784 0.1281,0.0784 0.0839,0 0.1381,0.0477 0.2204,0.0143 0.0422,-0.0172 0.0657,-0.0151 0.0854,-0.0642 0.0115,-0.0285 0.0213,-0.0357 0.0071,-0.0641 -0.0097,-0.0196 -0.0085,-0.0468 -0.0214,-0.0641l-0.0995 -0.1069zm-0.3698 -1.0975c-0.0087,-0.1155 -0.2127,-0.4158 -0.3201,-0.4632 -0.1363,-0.06 -0.2862,-0.1853 -0.4409,-0.1853l-0.0071 0.0072c-0.0177,0.0897 -0.0189,0.1862 -0.0355,0.2779 -0.0289,0.16 -0.1125,0.345 -0.0569,0.5131 0.0531,0.1609 0.3218,0.4025 0.4836,0.4561 0.0888,0.0295 0.219,0.0079 0.3058,-0.0143 0.0485,-0.0123 0.1036,-0.0127 0.1493,-0.0285 0.0346,-0.0119 0.0749,-0.0346 0.0996,-0.0428 0,-0.1203 -0.1138,-0.2405 -0.1138,-0.3634l-0.064 -0.1568zm-0.1138 -3.4847c-0.1182,-0.0275 -0.1679,-0.1233 -0.2631,-0.1853 -0.0529,-0.0345 -0.1645,-0.114 -0.2276,-0.114 -0.0881,0 -0.0767,0.0997 -0.064,0.1639 0.014,0.071 0.0569,0.1234 0.0569,0.1995 0,0.1195 -0.0427,0.2144 -0.0427,0.3278 0,0.0791 0.071,0.1457 0.1422,0.1639 0.0606,0.0154 0.1498,-0.0073 0.2063,-0.0214 0.0637,-0.016 0.1179,-0.0319 0.1849,-0.0356 0.0803,-0.0045 0.1347,-0.0628 0.1493,-0.1354 0.0085,-0.0421 0.01,-0.078 0,-0.1211 -0.0094,-0.0402 -0.0337,-0.0712 -0.0427,-0.1069l-0.0071 -0.0072 -0.0924 -0.1282zm1.1378 0.0855c-0.055,-0.0126 -0.1337,-0.0363 -0.192,-0.0214 -0.0539,0.0137 -0.1091,0.068 -0.1422,0.114 -0.0449,0.0626 -0.0595,0.173 -0.0213,0.2423 0.0195,0.0352 0.0325,0.0746 0.0568,0.114 0.0251,0.0405 0.0641,0.0766 0.0854,0.1141 0.0399,0.0065 0.0648,0.0498 0.1209,0.0498 0.0412,0 0.0758,-0.0047 0.1067,-0.0356 0.0587,-0.0587 0.0979,-0.1164 0.1137,-0.1995 0.0051,-0.0268 -0.0006,-0.0607 -0.0071,-0.0855 -0.0076,-0.0294 -0.0074,-0.0837 -0.0213,-0.1069l-0.0996 -0.1853zm-6.7417 3.5489c-0.0161,-0.0226 -0.0239,-0.0263 -0.0285,-0.0499 -0.0055,-0.0013 -0.0103,-0.0031 -0.0142,-0.0071 -0.0256,-0.0256 -0.0698,-0.0567 -0.1067,-0.0784 -0.027,-0.016 -0.0377,-0.0113 -0.064,-0.0357 -0.045,-0.0415 -0.162,-0.044 -0.2204,-0.0285 -0.045,0.012 -0.0879,0.0517 -0.064,0.0998 0.0115,0.0233 0.0269,0.027 0.0426,0.0428 0.0315,0.0317 0.0471,0.065 0.0854,0.0926 0.0459,0.0329 0.0827,0.0758 0.1209,0.114 0.0232,0.0232 0.0855,0.0857 0.0924,0.114 0.0251,0.0063 0.0403,0.0214 0.0711,0.0214 0.0589,0 0.0732,-0.0775 0.0925,-0.1211l-0.0071 -0.1639zm-11.1865 1.4894c-0.0991,-0.0077 -0.5946,-0.0811 -0.6401,0 -0.0481,0.0859 0.3755,0.1016 0.1636,0.2708 -0.1601,0.1277 -0.0095,0.5295 -0.1351,0.7269 -0.1313,0.2061 -0.5305,0.1995 -0.7467,0.1995 0.0049,0.0151 0.542,0.2288 0.6116,0.2565 0.1562,0.062 0.3011,0.0766 0.448,-0.0356 0.0967,-0.074 0.2564,-0.2081 0.2916,-0.3278 0.0259,-0.0878 0.0045,-0.171 0.0568,-0.2494 0.0645,-0.0966 0.1494,-0.1957 0.1494,-0.3207 0,-0.0999 -0.0866,-0.2296 -0.1138,-0.3136l-0.0853 -0.2066zm-2.8304 0.0427c-0.1745,-0.0399 -0.3634,-0.1866 -0.5192,-0.2708 -0.1445,-0.0782 -0.3096,-0.2565 -0.4765,-0.2565 -0.0162,0.0824 -0.0084,0.1759 -0.0355,0.2565 -0.0604,0.1797 -0.1013,0.1982 0,0.3706 0.2092,0.3563 -0.2537,0.1212 -0.2205,0.4133 0.0066,0.0579 0.5778,0.1113 0.6756,0.1354 0.0178,0.0726 -0.1056,0.2158 -0.1138,0.3207 -0.0084,0.1083 0.0044,0.2314 0.1138,0.2851 0.2021,0.0994 0.3674,-0.1433 0.5618,0.0213 0.1384,0.1173 0.3198,0.134 0.4694,0.0143 0.1423,-0.114 0.119,-0.1236 0.0853,-0.2637 -0.0303,-0.1257 0.2994,-0.3935 0.0996,-0.5273 -0.0572,-0.0384 -0.1467,-0.0607 -0.2133,-0.0784 -0.101,-0.027 -0.1775,-0.1152 -0.2845,-0.1283l-0.1422 -0.2922zm-4.7435 3.1356c0,-0.1288 -0.0276,-0.2362 -0.0782,-0.3492 -0.0691,-0.1545 -0.171,-0.6627 0.1138,-0.6627 0.0874,0 0.1876,0.0433 0.2774,0.057 0.1048,0.0161 0.2051,0.057 0.3129,0.057 0.26,0 0.2631,0.0718 0.2631,0.3207 0,0.2339 0.0286,0.4477 -0.0853,0.6556 -0.063,0.1148 -0.1518,0.1858 -0.2134,0.2922 -0.0559,0.0963 -0.1006,0.2015 -0.1565,0.2993 -0.0336,0.0168 -0.0921,0.0532 -0.1208,0.0784 -0.1723,0.0187 -0.4091,0.1628 -0.5548,-0.0357 -0.0677,-0.0924 -0.0903,-0.2144 -0.0853,-0.3278 0.0044,-0.0979 0.1404,-0.1689 0.2062,-0.2352l0.1209 -0.1496zm4.5586 2.3018c0,-0.0585 -0.0214,-0.1118 -0.0214,-0.171 -0.0147,-0.0197 -0.0169,-0.0341 -0.0284,-0.0571 -0.027,-0.0544 -0.0521,-0.1083 -0.0782,-0.1639 -0.3058,-0.4852 -0.4066,-0.6797 -0.1209,-1.2186 0.1818,-0.3431 -0.146,-0.8819 -0.2347,-1.2185 -0.0708,-0.269 0.3355,-0.5864 0.1066,-0.7768 -0.2345,0 -0.3777,0.1139 -0.5902,0.1639 -0.2164,0.051 -0.2634,-0.2002 -0.4623,-0.2423 -0.1218,-0.0257 -0.3151,-0.0527 -0.4267,0.0071 -0.1428,0.2393 0.4042,0.8728 0.0285,0.9264 -0.2254,0.905 -1.012,1.5643 -0.9103,2.5655 0.0389,0.3828 0.1304,0.5392 -0.2133,0.8837 -0.1786,0.2177 -0.0596,0.4465 -0.2063,0.6841 -0.1027,0.1665 -0.0105,0.6062 0.0782,0.7625 0.3521,0.2 0.7823,-0.0329 1.1379,0.2138 0.2256,0.1564 0.5693,0.2087 0.7609,-0.0285 0.1473,-0.1822 0.1406,-0.4064 0.3414,-0.5487 0.2539,-0.1798 0.6706,-0.3218 0.8178,-0.6058 0.2018,-0.389 0.1209,-0.6159 0.1209,-1.019l-0.0995 -0.1568zm-6.4787 5.1095c-0.0545,0.0211 -0.066,-0.011 -0.1209,-0.0142 -0.12,-0.0072 -0.2046,0.0071 -0.3129,0.0712 -0.1618,0.0956 0.0365,0.2571 0.1138,0.3279 0.0566,0.052 0.1151,0.1144 0.1636,0.171 0.0277,0.0325 0.0653,0.1572 0.0924,0.1639 0.005,0.0361 0.0308,0.064 0.0427,0.0998 0.0165,0.0499 0.0255,0.1354 0.0924,0.1354 0.0473,0 0.0852,-0.0903 0.0925,-0.1283 0.0208,-0.109 -0.0213,-0.2284 -0.0498,-0.3278 -0.0155,-0.0538 -0.0271,-0.1099 -0.0427,-0.1639 -0.0122,-0.0426 -0.0426,-0.0937 -0.0426,-0.1354l-0.0285 -0.1996zm-1.5076 1.974c-0.2831,-0.1522 -0.6469,-0.5409 -1.0099,-0.4489l0 0.0213c0.0497,0.0126 0.214,0.4932 0.2489,0.5773 0.1323,0.3181 0.331,0.5482 0.4836,0.8551 0.0766,0.1543 0.1698,0.2562 0.2205,0.4205 0.0364,0.1183 0.084,0.2385 0.1138,0.3563l0.0071 0.0071c0.1639,0.0404 0.1939,-0.7101 0.2062,-0.8266 0.0216,-0.2053 0.0277,-0.6781 -0.128,-0.8338l-0.1422 -0.1283zm-19.1515 -6.0217c-0.1012,-0.0311 -0.3087,-0.1141 -0.3982,-0.0428 -0.0833,0.0662 -0.0319,0.1986 -0.0498,0.2922 -0.0304,0.1592 0.0342,0.3516 0.1849,0.4134 0.1236,0.0508 0.1994,-0.0504 0.2773,-0.1283 0.0385,-0.0385 0.0829,-0.0646 0.1209,-0.0998 0.018,-0.0168 0.0754,-0.0796 0.0996,-0.0855 0.0089,-0.0157 0.0158,-0.023 0.0284,-0.0356l0 -0.0285c-0.0481,-0.0485 -0.1071,-0.1283 -0.1849,-0.1283l-0.0782 -0.1568zm1.2872 1.3968c-0.0558,-0.016 -0.1074,-0.0365 -0.1422,-0.0856 -0.1242,-0.0352 -0.1663,-0.1948 -0.256,-0.2708 -0.0863,-0.073 -0.1749,-0.1237 -0.2916,-0.0855 -0.2697,0.0882 -0.1033,0.345 -0.0498,0.5202 0.0482,0.1581 0.1339,0.3289 0.1493,0.4918 0.0185,0.1955 0.0555,0.4357 0.3058,0.4204 0.363,-0.0223 0.2774,-0.4508 0.2774,-0.6912l0.0071 -0.2993zm-0.7538 1.3112c-0.0466,-0.0106 -0.0869,-0.0214 -0.1351,-0.0214 -0.0228,0 -0.0451,-0.0023 -0.064,0.0071 -0.0165,0.0082 -0.0203,0.0248 -0.0356,0.0285 0,0.0994 -0.0006,0.1978 0.0427,0.2851 0.0165,0.0331 0.067,0.0377 0.0995,0.0285 0.0127,-0.0035 0.0243,-0.0028 0.0356,-0.0142 0.0084,-0.0084 0.0145,-0.0188 0.0213,-0.0286 0.026,-0.0378 0.0427,-0.0675 0.0427,-0.114l-0.0071 -0.171zm-2.2331 1.4965l0.0072 -0.6841c-0.0704,-0.0172 -0.1511,-0.0508 -0.2276,-0.0713 -0.0842,-0.0225 -0.1623,-0.0408 -0.2418,-0.0784 -0.1986,-0.0942 -0.1494,0.0496 -0.1494,0.1996 0,0.116 -0.031,0.2698 -0.0071,0.3777 0.0336,0.1522 0.214,0.1658 0.2916,0.2921 0.031,0.0503 0.0856,0.119 0.1067,0.1711 0.0181,0.0446 0.0547,0.1629 0.1209,0.0855l0.0995 -0.2922zm14.5219 15.7847c0.085,-0.0064 0.5109,-0.1616 0.5476,-0.2351 0.0091,-0.0022 0.0122,-0.0049 0.0213,-0.0071l0.0071 -0.0072 0 -0.0142c0.0016,-0.0005 -0.1121,-0.2296 -0.128,-0.2922 -0.0382,-0.1497 -0.0484,-0.5192 0.128,-0.5701 0.1144,-0.0329 0.4572,0.0873 0.4978,0.057 -0.033,-0.1342 -0.2194,-0.2154 -0.3342,-0.2779 -0.116,-0.0633 -0.2503,-0.0768 -0.3698,-0.1497 -0.1281,-0.0783 -0.2382,-0.1269 -0.3698,-0.1924 -0.0836,-0.0417 -0.4476,0.2356 -0.5263,0.2993 -0.1759,0.1426 -0.1603,0.3607 -0.2276,0.563 -0.0756,0.2276 -0.2169,0.5102 -0.0426,0.7269 0.0313,0.0388 0.2137,0.1664 0.2631,0.1853 0.114,0.0435 0.2877,0 0.4125,0l0.1209 -0.0856zm2.7664 -1.8457c0.185,-0.1858 0.6359,-0.2066 0.896,-0.2066 0,-0.128 -0.5463,-0.4557 -0.5902,-0.6984 -0.1236,-0.6831 0.2806,-1.324 0.0497,-2.0167 -0.1448,-0.4344 -0.9553,-0.4161 -1.3156,-0.3564 -0.4496,0.0746 -0.5529,0.2314 -0.4836,0.6984 0.0422,0.2844 -0.0059,0.6561 0.064,0.9193 0.099,0.3722 0.6238,0.6379 0.8107,1.0119 0.0602,0.1204 0.3665,0.6706 0.4623,0.7056l0.1067 -0.0571zm58.3954 32.5458c-0.0578,0.0135 -0.0832,-0.062 -0.1102,-0.1033 -0.0311,-0.0478 -0.0899,-0.0855 -0.1315,-0.1247 -0.0721,-0.0681 -0.1054,0.0681 -0.1138,0.1176 -0.0129,0.0763 -0.0462,0.1528 -0.0462,0.228 0.059,0.0751 0.0728,0.1781 0.192,0.1781 0.0776,0 0.2044,-0.0832 0.2204,-0.1674l-0.0107 -0.1283zm0.3461 6.4065c-0.1316,-0.2643 -0.2819,-0.191 -0.5191,-0.2494 0,-0.1343 -0.0954,-0.2335 0.0356,-0.3492 0.1265,-0.1119 0.0739,-0.1916 0,-0.3207 -0.0721,-0.1262 -0.2071,-0.2158 -0.2347,-0.0071 -0.0187,0.1409 0.0361,0.284 0.0426,0.4276 0.0106,0.2362 -0.2273,0.28 -0.2773,0.4846 -0.0303,0.1244 -0.1139,0.3732 -0.0356,0.4917 0.0529,0.0799 0.189,-0.007 0.2489,-0.0285 0.3235,-0.1161 0.7823,0.2638 0.7823,-0.3278l-0.0427 -0.1212zm19.7062 38.2468c-0.1081,0.0252 -0.3163,-0.216 -0.448,-0.2565 -0.2471,-0.0759 -0.5513,-0.0097 -0.8036,-0.1069 -0.0837,-0.0323 -0.3405,-0.053 -0.4338,-0.0641 -0.1407,-0.0169 -0.4095,-0.1947 -0.4765,-0.1782 -0.0235,0.1682 0.0753,0.3246 0.0498,0.4917 -0.0227,0.1481 -0.4142,0.6859 -0.3272,0.7483 0.0427,0.0307 0.2753,-0.0141 0.3627,0.0142 0.1516,0.0492 0.2444,0.2907 0.3414,0.4205 0.1758,0.2355 -0.014,0.2409 -0.2134,0.3207 -0.4397,0.1759 -0.68,0.3573 -0.768,0.8622 -0.0929,0.5334 0.7307,-0.2149 0.832,-0.285 0.1938,-0.134 0.4274,-0.1763 0.5974,-0.3563l0.7538 -0.7982c0.2005,-0.2123 0.3578,-0.4872 0.5618,-0.6912l-0.0284 -0.1212zm-9.4389 7.9245c-0.059,0.0271 -0.148,0.0339 -0.2133,0.0463 -0.062,0.0117 -0.1185,0.0295 -0.1778,0.0499 -0.0698,0.0239 -0.1312,0.0681 -0.2098,0.0891 -0.0759,0.0202 -0.2169,0.117 -0.2169,0.1995 0.0858,0.0858 0.4642,-0.0594 0.5583,-0.0998 0.1009,-0.0432 0.3445,-0.154 0.3555,-0.2815l-0.096 -0.0035zm-88.0407 18.0441c0.6197,-0.3973 1.2,-0.8233 1.7792,-1.3116 0.7999,-0.6745 1.7598,-1.336 2.3966,-2.1878 0.3038,-0.143 0.4902,-0.544 0.7609,-0.7411 0.0368,-0.0811 0.2262,-0.3286 0.2916,-0.3848 0.0902,-0.2719 0.3194,-0.5763 0.4552,-0.8338 0.2115,-0.4007 0.2542,-0.9334 0.3982,-1.3611 0.1786,-0.5306 0.3496,-1.1084 0.6329,-1.5963 0.2825,-0.2603 0.5702,-0.9725 0.7112,-1.3398 0.1611,-0.4199 0.2636,-0.9118 0.512,-1.2613 0.0877,-0.0219 0.4591,-0.5568 0.5334,-0.6556l0.7396 -0.9835c0.0131,-0.0152 0.0605,-0.0819 0.0853,-0.0997 0.0229,-0.0692 0.2355,-0.3784 0.2916,-0.4133 0.1834,-0.4062 0.5558,-0.7628 0.7823,-1.1545 0.2637,-0.4562 0.4783,-0.9024 0.6827,-1.3968 0.2344,-0.3211 0.276,-0.7881 0.4907,-1.1117 0.082,-0.5335 0.4818,-1.0391 0.5262,-1.582 0.1695,-0.3139 0.2054,-0.6811 0.313,-1.0119l0.4124 -1.2685 0.064 -0.0641c0.016,-0.1467 0.1422,-0.3849 0.192,-0.5345 0.2304,-0.6927 0.2654,-1.4895 0.3485,-2.2163l0.128 -1.1188c0.0421,-0.3677 0.2248,-0.731 0.2703,-1.0903l0.0071 -0.1283c-0.0089,-0.0696 -0.0354,-0.1324 -0.0427,-0.1996l-0.0142 -0.0285c-0.0501,-0.5605 -0.1991,-1.1826 0.192,-1.6889 0.0313,-0.0942 0.0956,-0.1787 0.1067,-0.2779 0.1709,-0.3432 0.1302,-0.8315 0.1209,-1.2115l-0.0427 -1.7174 0.0213 -0.2138c-0.0099,-0.0531 -0.0077,-0.1134 -0.0213,-0.1639 0,-0.1392 -0.0213,-0.275 -0.0213,-0.4133 -0.1202,-0.4791 -0.0356,-1.0085 -0.0356,-1.4966 0.0839,-0.2248 0,-0.7324 0,-0.9834 0,-0.3032 0.0416,-0.7975 -0.0356,-1.0832l-0.0426 -0.9834c-0.0084,-0.0342 -0.0071,-0.0646 -0.0071,-0.0998l-0.2632 -1.6319c-0.0634,-0.3939 -0.1554,-1.204 -0.3556,-1.5321 0,-0.3066 -0.1183,-0.6945 -0.1564,-1.0049 -0.1074,-0.1339 -0.2418,-0.5925 -0.2418,-0.7553 -0.03,-0.0787 -0.0109,-0.0609 -0.0427,-0.0927 0,-0.0529 -0.1327,-0.4284 -0.1635,-0.4489 -0.0308,-0.2205 -0.2214,-0.5393 -0.3058,-0.7626 -0.1534,-0.4063 -0.4101,-0.8215 -0.5334,-1.2257 -0.0563,-0.1844 -0.3105,-0.9613 -0.4623,-1.0475 -0.0347,-0.1777 -0.515,-1.2056 -0.6329,-1.2899 -0.009,-0.0314 -0.0284,-0.0783 -0.0284,-0.114 -0.3346,-0.5868 -0.9293,-1.5005 -0.9956,-2.1735 -0.0369,-0.0462 -0.1129,-0.3053 -0.1209,-0.3706 -0.1904,-0.237 -0.1754,-0.6655 -0.3485,-0.8837 -0.0472,-0.3831 -0.2949,-0.898 -0.4196,-1.2756 0.016,-0.0858 0.0071,-0.0636 0.0071,-0.1211 -0.0145,-0.0195 -0.0199,-0.0445 -0.0355,-0.0642 0,-0.2145 -0.1346,-0.5093 -0.1778,-0.7268 -0.0843,-0.425 -0.1743,-0.8684 -0.3698,-1.2614 -0.0893,-0.1797 -0.125,-0.4096 -0.1707,-0.6057 -0.0488,-0.2099 -0.2165,-0.4214 -0.2418,-0.6271l-0.0213 -0.0214c-0.0465,-0.3325 -0.4623,-1.2043 -0.6614,-1.4538 -0.0343,-0.1069 -0.186,-0.4816 -0.2703,-0.5416 -0.0486,-0.3943 -0.2252,-0.8337 -0.2915,-1.2471 -0.1082,-0.6739 0.0083,-1.0418 0.2062,-1.6533 0.0895,-0.2765 0.2844,-0.5693 0.4765,-0.7767 0.151,-0.1629 0.6517,-1.0056 0.7894,-1.0334 0.1764,-0.1554 0.249,-0.3568 0.3911,-0.5202 0.01,-0.1123 0.1754,-0.3899 0.2418,-0.4917 0.2787,-0.4274 0.44,-1.4699 0.3627,-1.974 -0.0976,-0.6372 -0.32,-1.3314 -0.32,-1.9811l0.0213 -0.7482c-0.1537,-0.2074 -0.2024,-0.6656 -0.2916,-0.9193 -0.1151,-0.327 -0.1571,-0.6479 -0.1991,-0.9906 -0.1429,-0.0952 -0.4394,-0.7433 -0.5405,-0.9264 -0.2227,-0.403 -0.5831,-0.8085 -0.5831,-1.3041 -0.0408,-0.2116 0.0716,-0.7598 0.2631,-0.8694 0.0081,-0.0163 0.0374,-0.0459 0.0569,-0.057 0.1919,-0.3852 0.8545,-0.5017 1.0383,-0.8694 0.2547,-0.1605 1.023,-1.0909 1.0596,-1.3897 0.0741,-0.0924 0.0721,-0.2527 0.1565,-0.3492 0.0517,-0.4202 0.5168,-1.0613 0.7396,-1.4181 0.0305,-0.0379 0.054,-0.0576 0.064,-0.0926 0.1362,-0.0983 0.2948,-0.5639 0.3271,-0.7269 0.0207,-0.1044 0.0771,-0.6485 0.1849,-0.6485 0.4538,-0.3641 0.591,-1.0077 0.8249,-1.5036 0.2424,-0.5137 0.572,-0.9318 0.825,-1.4396 0.242,-0.6471 0.275,-1.4077 0.3982,-2.088 0.1217,-0.6726 -0.0071,-1.4568 -0.0071,-2.145 0.0192,-0.0322 0.0091,-0.0808 0.0356,-0.114 0.0074,-0.0604 0.0711,-0.1132 0.0782,-0.171 0.0799,-0.1034 0.1532,-0.2426 0.1849,-0.3706l0.3414 -1.7887c0.0681,-0.3569 0.1105,-1.169 -0.1138,-1.468 -0.0157,-0.1441 -0.1133,-0.285 -0.128,-0.4205 -0.2007,-0.2569 -0.2644,-0.8992 -0.3698,-1.2186 -0.0074,-0.0651 0.0061,-0.0652 -0.0214,-0.0997l-0.0071 -0.0428c-0.2334,-0.8658 -0.2772,-1.2302 0.4765,-1.753 0.2624,-0.1821 0.7409,-0.307 1.0454,-0.3706 0.1556,-0.0324 0.3019,-0.1169 0.448,-0.1782 0.1211,-0.0507 0.21,-0.3135 0.256,-0.3135 0.0039,0.0157 0.0059,0.0142 0.0214,0.0142 0.1897,0.382 1.1846,-0.009 1.4081,-0.2066 0.507,-0.448 0.4124,-1.0893 0.4124,-1.7032 0.1917,-0.7291 0.1317,-1.2815 0.0996,-2.0239 -0.0291,-0.6719 -0.1243,-1.3824 0.4623,-1.8172 0.4204,0 0.6624,0.298 1.088,0.3634 0.5744,0.0884 0.823,-0.517 0.8819,-0.9834 0.1989,-0.1998 0.348,-0.4371 0.4978,-0.677 0.2921,-0.4163 0.7807,-0.7972 1.1592,-0.1853 0.2056,0.3322 0.2571,0.4641 0.6471,0.5844 0.5765,0.178 1.2184,-0.1372 1.5788,-0.5844 0.2229,-0.2767 0.4409,-0.533 0.4409,-0.905 0,-0.2358 -0.1511,-0.6461 -0.1067,-0.8266 0.5245,-0.1329 0.374,-1.0656 0.8819,-1.354 0.3595,-0.291 0.7966,-0.4409 1.1165,-0.7768 0.2574,-0.2702 0.2545,-0.6372 0.3129,-0.9763 0.1425,-0.8282 1.0023,-1.6058 1.2089,-2.4443 0.0355,-0.0089 0.0313,-0.0009 0.0641,0.0071 0.225,0.45 0.8402,0.1207 1.0738,-0.1425 0.1451,-0.1912 0.1749,-0.2813 0.2845,-0.4846 0.0669,-0.124 0.2151,-0.2396 0.3271,-0.3278 0.1307,-0.1031 0.2218,0.4508 0.3058,0.5772 0.3153,0.4748 -0.1098,0.6913 -0.4267,0.9834 -0.1962,0.1807 -0.1067,0.6816 -0.1067,0.9478 -0.0109,0.0037 -0.0071,-0.0001 -0.0071,0.0143 -0.1618,0 -0.1552,-0.5416 -0.5902,-0.5416 -0.2076,0 -0.4339,0.1867 -0.4339,0.4062 0,0.1952 -0.1691,0.2691 -0.2204,0.4276 -0.0507,0.1569 0.0783,0.6308 0.256,0.6698 0.1723,0.0377 0.0558,0.3956 0.1565,0.5559 0.0199,0.1032 0.3057,1.0234 0.448,0.5843 0.0235,0 0.0238,0.0097 0.0427,0.0143 0.0711,0.2886 0.1564,0.52 0.1564,0.8338 0,0.4363 -0.3721,-0.3207 -0.5049,-0.3207 -0.0478,0.1941 -0.1544,0.359 -0.1849,0.5487 -0.071,0.4421 -0.263,0.8857 -0.6685,1.1545 -0.1957,0.1296 -0.4907,0.6784 -0.4907,0.905l0.0071 0.0071c0.1728,0.0438 0.2411,0.3218 0.4338,0.0499 0.1368,-0.1932 0.2707,-0.5566 0.4196,-0.7055 0.078,0.0048 0.1683,0 0.2489,0 0.141,0.141 0.0942,0.3858 0.0285,0.5559 -0.1019,0.2639 -0.0761,0.5465 -0.1067,0.8266 -0.0403,0.2157 0.1471,0.7294 0.0142,0.8623 -0.1666,0 -0.3416,0.0499 -0.5049,0.0499 -0.0685,0.0685 -0.058,0.2721 -0.0782,0.3705 -0.0571,0.2787 -0.2476,0.5628 -0.3841,0.8053 -0.1773,0.3152 -0.1564,1.0237 -0.1564,1.3968 0,0.4803 0.3113,0.9033 0.4267,1.3682 0,0.2873 -0.1849,0.4707 -0.1849,0.7625 0,0.3253 0.987,0.5523 1.0098,-0.0071 0.0207,-0.5064 0.266,-1.0122 0.4196,-1.4823 0.1015,-0.3105 0.2998,-0.5805 0.4054,-0.8979 0.1581,-0.4756 0.5443,-0.7212 0.6044,-1.2685 0.0873,-0.7952 -0.3894,0.0272 -0.5618,0.1996 -0.0266,0 -0.0412,-0.0015 -0.064,-0.0071 -0.0214,-0.1533 -0.0992,-0.2466 -0.0569,-0.4205 0.0205,-0.084 0.2787,-0.5589 0.3343,-0.5772 0.1772,-0.2992 0.3225,-0.5876 0.3911,-0.9336 0.0429,-0.2161 0.1018,-0.4279 0.1209,-0.6485 0.0328,-0.3801 0.3839,-0.2789 0.576,-0.5986 0.1327,-0.2207 0.2294,-0.4418 0.5547,-0.4418 0.0386,0.0383 0.2719,1.136 0.249,1.1901 -0.205,0 -0.6205,-0.2662 -0.4623,0.114 0.1065,0.2559 0.0416,0.5587 -0.0498,0.8053 -0.1155,0.312 -0.0284,0.7485 -0.0284,1.0832 0,0.3812 -0.192,0.6531 -0.192,1.0475 -0.043,0.1529 -0.1011,0.253 -0.1565,0.392 -0.1585,0.0993 -0.2377,0.2991 -0.4338,0.3563 -0.2185,0.0638 -0.6185,0.4145 -0.6898,0.6342 -0.1157,0.3567 -0.128,0.4825 -0.128,0.8766 0,0.4579 -0.4616,0.9695 -0.0711,1.3326 0.3526,0.3278 0.6756,0.195 0.9956,-0.1069 0.6345,-0.5984 -0.3452,-1.1751 0.6898,-1.6319 0.2729,-0.1205 0.512,-0.476 0.512,-0.7768 0,-0.2756 0.1619,-0.518 0.3841,-0.6841 0.0637,-0.176 0.2072,-0.3505 0.2915,-0.5202 0.1072,-0.2155 0.0666,-0.4362 0.1423,-0.6628l0.064 -0.057c0.1808,-0.3616 0.426,-0.6932 0.5618,-1.0761 0.1803,-0.5087 0.4236,-1.2564 0.4053,-1.7958l-0.064 -1.8742c0.127,-0.1757 0.2775,-0.6583 0.3485,-0.8908 0.0464,-0.1523 0.0071,-0.325 0.0071,-0.4846 0,-0.4814 0.2558,-1.1862 -0.1209,-1.6176 -0.0529,-0.2922 -0.1778,-0.5424 -0.1778,-0.8694 0,-0.3329 -0.0451,-0.6844 -0.0853,-1.012l0.0142 -0.0784c-0.3242,-0.6516 0.0047,-1.9126 0.2916,-2.5298 0.1248,-0.2687 0.4453,-0.2527 0.5902,-0.5131 0.0902,-0.162 0.1892,-0.1629 0.2632,-0.3492 0.0576,-0.1452 0.2378,-0.1162 0.3698,-0.1283 0.1819,-0.1819 0.1679,-0.584 0.4053,-0.7055 0.0845,-0.0433 0.3143,0.3275 0.633,0.2067 0.0843,-0.0319 0.1478,-0.0824 0.2004,-0.1423 0.1131,0.1811 0.2452,0.163 0.404,0.2777 0.1445,0.1045 0.0475,0.4754 0.1494,0.6485 0.2342,0.3982 0.3415,-0.0214 0.5618,-0.0214 0.065,0.2641 0.408,0.301 0.4765,0.5772 0.0249,0.1002 0.1523,0.5004 0.3129,0.4205 0.1314,-0.0655 0.1328,-0.2329 0.3342,-0.1568 0.283,0.1068 0.4618,0.189 0.7894,0.1996 0.3925,0.0126 0.4003,0.1963 0.6543,0.399 0.2887,0.1496 0.286,0.3657 0.4196,0.6343 0.1436,0.289 0.6908,0.6473 1.0169,0.6627 0.2218,0.0105 0.9357,0.0316 0.4694,-0.4347 -0.159,-0.159 -1.045,0.051 -0.9387,-0.5345 0.0622,-0.3431 -0.0723,-0.3752 -0.2205,-0.6485 -0.1075,-0.1981 -0.0836,-0.4842 -0.2845,-0.5843 -0.0331,0.1003 -0.813,-0.0083 -0.9387,0.0071 -0.3164,0.039 -1.2617,-0.4262 -1.5148,-0.62 -0.1358,-0.1041 -0.2655,-0.4265 -0.3911,-0.4774 -0.2321,-0.0939 -0.2031,-0.2304 -0.3982,-0.3421 -0.0266,0.0088 -0.0782,0.0132 -0.0854,0.0428 -0.0202,0.0066 -0.0409,0.0512 -0.064,0.057 -0.0095,0.0191 -0.0439,0.0175 -0.0498,0.0356 -0.0187,0 -0.0448,0.0064 -0.0497,0.0214l-0.0285 0c-0.0067,0.0205 -0.1513,0.0329 -0.1636,0.0142 -0.0405,0 -0.0803,-0.03 -0.1209,-0.0356l-0.0071 -0.0214c-0.4201,-0.0592 -0.0292,-0.6389 0.0569,-0.8124 0.0787,-0.0154 0.1118,0.0626 0.2063,0.057 0.1987,-0.0119 0.3584,-0.3309 0.4978,-0.4489 0.1247,-0.1054 0.268,-0.2613 0.448,-0.2281 0.2911,0.0536 0.5721,-0.0474 0.8321,-0.1852 0.3382,-0.1791 0.541,-0.2395 0.9173,-0.1141 0.7166,0.139 1.4392,0.4362 2.1193,0.057 0.4261,-0.2375 0.9127,-0.0029 1.4152,-0.2351 0.3759,-0.1736 1.5454,-0.6806 1.1023,-1.297 -0.3201,-0.4455 -1.1369,-0.3634 -1.6215,-0.3634 0.0283,0.1118 0.2134,0.1684 0.2134,0.3491 -0.1703,0.0431 -0.4485,-0.2353 -0.6045,-0.3135 -0.3545,-0.1775 -0.7359,-0.2255 -1.0525,-0.506 -0.3705,-0.3284 -0.6212,-0.7277 -0.9672,-1.0761 -0.0304,-0.1443 -0.0853,-0.2638 -0.0853,-0.4133 -0.0891,-0.1783 -0.1013,-0.4965 -0.1565,-0.6984 -0.1926,-0.7046 -0.6975,-1.6934 -0.2489,-2.4158 0.0462,-0.0287 0.0575,-0.0903 0.1067,-0.1211 0.0893,-0.1439 0.2593,-0.2829 0.3769,-0.4062 0.1732,-0.1814 0.2158,-0.4579 0.384,-0.6271 0.1782,-0.3571 0.1378,-0.4741 0.5121,-0.6913 0.3432,-0.1993 0.9931,-0.2628 1.1947,-0.6485 0.0921,-0.1761 0.0264,-0.5326 0.1565,-0.6627 0.0471,-0.0471 0.1471,0.0175 0.1991,0.0214 0.0949,0.0071 0.153,-0.0385 0.2347,-0.0499 0.1219,-0.1226 0.1175,-0.3508 0.256,-0.4418 0.211,-0.1385 0.4978,-0.4699 0.4978,-0.7412 0,-0.1876 -0.042,-0.5826 -0.2418,-0.6627 -0.0515,-0.0906 -0.2316,-0.0673 -0.2987,-0.1212 -0.1165,0 -0.3683,-0.0875 -0.4907,-0.1282 -0.3636,-0.1415 -0.4947,-0.3564 -0.9174,-0.3564 -0.1767,0 -0.9956,0.0357 -0.9956,-0.2423 0.6102,0 1.1376,0.0374 1.7352,0.1426 0.4506,0.0794 1.1332,-0.1124 1.5219,0.1211 0.17,0.1021 0.408,0.4674 0.6401,0.3492 0.1969,-0.1002 0.2108,-0.3796 0.3484,-0.449 0.0372,-0.0188 0.2525,0.1904 0.3058,0.221 0.2045,0.1172 0.5869,0.2523 0.8178,0.2423 0.2806,-0.0121 0.1819,-0.3985 0.3983,-0.2423 0.3029,0.1986 0.6302,0.2529 0.8249,-0.1426 0.1421,-0.2885 -0.0946,-0.3214 -0.1849,-0.5487 -0.1322,-0.3329 0.2358,-0.6217 0.5192,-0.4204 0.5164,0.3667 0.5134,-0.0892 0.9316,-0.0285 0.0476,0.1931 0.0473,0.5903 0.2347,0.734 0.2439,0.1869 0.5216,0.1304 0.7467,0.2993 0.1567,0.1177 0.2209,0.2409 0.4267,0.3064 0.6579,0.2093 1.0084,0.7906 1.7068,1.0048 0.1327,0.117 0.3521,0.2291 0.5191,0.2779 0.1523,0.0444 0.2088,0.2324 0.2916,0.3492 0.2034,0.2866 0.6843,0.3219 0.9529,0.5345 0.2407,0.1904 0.4358,0.301 0.6543,0.5202 0.3171,0.3179 0.5891,0.1975 0.9032,0.4062 0.1228,0.0815 0.5689,0.455 0.5689,0.0071 -0.3683,-0.2455 -0.5042,-0.7076 0.128,-0.5131 0.2113,0.0649 0.4,0.2327 0.6045,0.2851 0.2991,0.0768 0.4716,-0.0039 0.7609,-0.0356l0.5974 -0.1283c0.5327,0.1988 0.9787,0.5841 1.5574,0.7839 0.2656,0.0916 1.0406,0.1127 1.1806,0.2637 0.1627,0.1757 0.2451,0.4538 0.3769,0.6556 0.2114,0.3239 0.5474,0.5376 0.7965,0.8195 0.2588,0.2927 0.4424,0.6189 0.6329,0.9407 0,0.5503 0.0771,1.0821 0.3698,1.5535 0.0279,0.0899 0.0982,0.2083 0.192,0.2423 0.1844,0.3234 1.1492,0.5065 1.4294,0.2922 0.3009,-0.23 0.6378,0.0126 0.9885,0.0641 0.7052,0.1035 1.4537,-0.3077 2.0624,0.3136l1.5076 1.5392c0.1245,0.1748 0.458,0.2754 0.6401,0.3991 0.1799,0.1223 0.2671,0.1497 0.4765,0.1497 0.1985,0 0.3629,0.4431 0.5973,0.2708 0.3212,-0.2363 0.2803,-0.0395 0.4765,0.1567l0.0142 0c0.8183,-0.8183 0.6432,0.1873 1.3939,0.4347 0.453,0.1492 0.5751,0.3309 0.9245,0.5987 0.155,0.1189 0.3522,0.2062 0.5476,0.2209 0.239,0.0181 0.4145,0.2011 0.6116,0.3135 0.3698,0.1623 0.9601,0.4196 0.9601,-0.2565 0.1318,0 0.6601,0.5314 0.8249,0.6271 0.5726,0.3323 0.3622,-0.1439 0.3769,-0.4846 0.0083,-0.194 0.4329,0.2327 0.3129,0.4133 -0.0678,0.1022 -0.1495,0.4394 0,0.506 0.0769,0.0343 0.3254,-0.2829 0.4125,-0.0855 0.1266,0.2871 0.2929,0.4293 0.4338,0.7126 0.0921,0.1854 0.4582,0.3817 0.6116,0.5559 0.3087,0.3503 0.6694,0.3396 0.6898,0.8836 0.0266,0.7063 -0.1717,0.3094 -0.5618,0.4419 0,0.1172 0.0651,0.2106 0.0284,0.3563 0.109,0.3487 0.2518,0.7841 0.4694,1.076 0.1147,0.1537 0.3665,0.4104 0.4196,0.5773 0.1189,0.374 0.0091,0.6832 0.3698,0.9335 0.1516,0.1051 0.2072,0.2103 0.2916,0.3706 0.0725,0.1375 0.2886,0.1175 0.4195,0.1924l0.3058 1.1687c0.0139,0.2018 -0.007,0.249 0.0783,0.4276 0.0973,0.204 -0.0807,0.342 -0.1138,0.5487 -0.0839,0.5223 0.0556,0.2423 0.3627,0.2423 0.0854,0.1144 -0.2291,0.2908 -0.256,0.3991 -0.0847,0.3411 0.6201,0.1003 0.7467,0.3848 0.1138,0.256 0.2801,0.5419 0.3484,0.8053 0.0486,0.1871 -0.4336,-0.0365 -0.4907,-0.0571l-1.0667 -0.3848c-0.1942,-0.0701 -0.3407,-0.2074 -0.5049,-0.3278 -0.1711,-0.1256 -0.2426,-0.3489 -0.4054,-0.4917 -0.0441,-0.1529 -0.0723,-0.381 -0.192,-0.4917 -0.1401,-0.1294 -0.5378,0.3012 -0.7538,0.3706 -0.5267,0.1695 -0.7855,0.5607 -0.9245,1.0689 -0.1423,0.5205 0.5237,0.5263 0.448,0.8338 -0.1959,0.0483 -0.3811,-0.1283 -0.5902,-0.1283 -0.177,0 0.0513,0.2365 0.0924,0.2922 0.3204,0.4346 0.1154,1.1084 0.2489,1.6105 -0.0409,0.2724 0.2502,0.8133 0.5476,0.8267 0.2909,0.0132 0.2537,0.1892 0.4125,0.4133 0.2059,0.2907 0.1941,0.2129 0.4978,0.228 0.0642,0.0032 0.515,0.415 0.6542,0.4846 0.3434,0.1716 0.4897,0.114 0.8321,0.114l0.0071 0.0072c0,0.4026 -0.2174,0.8141 -0.1138,1.2186 0.063,0.2463 0.3349,0.3153 0.3841,0.5131 0.0607,0.2445 0.038,0.486 0.1137,0.7411l-0.0213 0.0784c0.0558,0.0937 0,0.3914 0,0.5131 0,0.3328 0.0385,0.5922 -0.0427,0.9193 -0.1357,0.546 0.1488,1.1066 0.5334,1.4537 0.1577,0.1422 -0.2285,1.3341 -0.2489,1.6034 -0.0259,0.0618 -0.0355,0.0839 -0.0427,0.1426 -0.0867,0.1086 -0.1365,0.3876 -0.2133,0.5273 -0.0934,0.1696 -0.1823,0.4036 -0.2987,0.5487 -0.027,0.2753 -0.1351,0.5091 -0.1351,0.8124 0,0.9146 0.2568,1.6247 0.0142,2.537l-0.0498 0.0641c0,0.6641 -0.1965,1.3713 -0.2204,2.031 -0.013,0.3595 -0.0798,0.677 -0.0214,1.0405 0.0371,0.2305 0.1849,0.4427 0.1849,0.6698 -0.2148,0.2898 -0.3056,0.9811 -0.3271,1.3327 0.0381,0.6113 0.1053,0.8907 -0.5476,0.8907 -0.4317,0 -1.1647,0.9647 -1.3512,1.3398 -0.1493,0.3005 -0.2438,0.6329 -0.4125,0.9264 -0.0936,0.1627 -0.4818,0.5283 -0.512,0.62 0,-0.3444 0.4273,-0.6314 0.1493,-1.0476 -0.2615,-0.3917 -1.3623,0.0282 -1.593,0.3136 -0.4664,0.5773 -0.7253,1.247 -0.7253,2.0167 -0.0843,0.1174 -0.11,0.5297 -0.1636,0.7055 -0.1198,0.3922 -0.1849,0.8667 -0.1849,1.2828 0,0.3098 0.0769,0.5774 0.0925,0.8694 0.0173,0.3257 -0.4578,0.5558 -0.5619,0.8694 -0.1418,0.4272 0.2134,0.7203 0.2134,1.0689 -0.7912,0 -1.1583,-0.4409 -1.9273,0.1354 -0.0313,0.0356 -0.0588,0.0509 -0.064,0.0927 -0.524,0.374 -0.2915,1.3024 -0.2915,1.8172 -0.0527,0.042 -0.3471,-0.1512 -0.4267,-0.1853l-0.7325 -0.3136c-0.3862,-0.1654 -0.2891,0.0838 -0.4196,0.3136 -0.2523,0.063 -0.2932,0.1663 -0.6116,0.1282l-1.2516 -0.1496c-0.385,-0.046 -0.3092,0.1724 -0.3841,0.3706 -0.119,0.3152 -0.7754,0.5879 -0.8036,0.9478 -0.0389,0.4956 -0.4489,0.8508 -0.4907,1.3468 -0.0034,0.111 -0.0577,0.2601 -0.1137,0.3563 -0.0257,0.3064 -0.1849,0.669 -0.2418,0.9835 -0.0898,0.497 0.1112,0.9591 0.0142,1.4537 -0.0544,0.2779 -0.128,0.4956 -0.128,0.7839 0,0.2573 -0.0142,0.4178 -0.1494,0.6343 -0.1391,0.0975 -0.2907,0.1891 -0.3911,0.3278 -0.1317,0.6828 0.3013,1.9627 0.7254,2.5013 0.2723,0.3459 0.447,0.5083 0.8036,0.7483l0.4338 0.2921c0.0648,0.0435 0.292,0.2674 0.3058,0.2708 0.0595,-0.0994 0.0167,-0.2355 0.0853,-0.3563 0.2396,-0.0336 0.3609,0.1961 0.5761,0.2993 0.1997,0.0959 0.3907,0.0177 0.5973,0.057 0.2953,0.0561 0.4951,0.2871 0.7681,0.4134l0.9387 0.4347c0.0937,0.1195 0.7261,0.8231 0.8321,0.8124 0.5398,-0.055 1.7446,-1.7104 2.041,-2.1593 0.2644,-0.4003 0.5519,-0.9157 0.8818,-1.2614 0.1332,-0.1395 0.5981,-0.8458 0.7538,-0.8765 0.0464,0.1834 -0.0359,0.3833 -0.0426,0.563 -0.0076,0.2047 0.0337,0.4117 0.1778,0.0855 0.0303,-0.0688 0.1064,-0.3287 0.1991,-0.1782 0.0686,0.1116 0.1086,0.3828 0.2631,0.164 0.1558,-0.2205 0.2421,-0.5158 0.4196,-0.7198 0.0971,-0.0895 0.1029,-0.2498 0.128,-0.3777 0.3436,-0.0731 0.2394,-0.2121 0.384,-0.5202 0.1437,-0.306 0.332,-1.1087 0.5476,-1.3255 0.0708,-0.0711 0.1851,0.0087 0.2774,-0.1283 0.1442,-0.2138 0.3373,-0.4538 0.448,-0.677 0.1845,-0.3717 0.0691,-0.8455 0.4907,-0.9335 0.4498,-0.094 0.8546,-0.6393 1.0667,-1.012 0.0127,-0.143 -0.0274,-0.4236 -0.192,-0.4703 -0.0143,-0.0336 -0.0528,-0.0416 -0.064,-0.0641 -0.2654,0 -0.5245,-0.0591 -0.7822,-0.0713 -0.3527,-0.0166 -0.4763,-0.1507 -0.7539,-0.2423 0,-0.0946 0.6008,-0.0784 0.6898,-0.0784 1.1949,0 2.1471,0.0185 2.5673,-1.3041 0.1824,-0.5743 -0.1467,-0.6343 0.5121,-0.734l1.7423 -0.2637c0.4701,0.0386 0.9019,-0.6088 1.1236,-0.5344 0.9004,0.3022 1.6977,0.0397 1.8775,-1.0048 0.0906,-0.5263 0.1094,-0.3494 0.5831,-0.3279 0.5216,0.0236 0.5326,-0.4053 0.8534,-0.6627 0.0757,0 0.1407,0.0143 0.2205,0.0143 0.1547,0 0.1012,0.2391 0.3484,0.1282 0.1935,-0.0869 0.2052,-0.171 0.4338,-0.171 0.478,0.0459 0.7044,0.5692 1.2232,0.7768 0.516,0.2066 1.0761,0.2722 1.5504,0.5701 0.0538,0.1188 0.2851,0.399 0.3911,0.4846 0.1691,0.0208 0.3354,0.0073 0.4907,0.0855 0.0863,0.1514 0.2996,0.314 0.4267,0.4418 0.186,0.1869 0.2669,0.4317 0.4196,0.6271 0.0138,0.1696 0.1436,0.3434 0.1635,0.506 0.1453,0.1651 0.3357,0.6175 0.4054,0.8266 0.1692,0.2588 0.376,0.4928 0.4338,0.7982 0.0921,0.4858 0.164,0.8046 0.5547,1.1402 0.3688,0.3169 0.0924,0.8942 0.3271,1.1901 0.4241,0.0834 0.2876,0.3213 0.3983,0.6983 0.0945,0.3222 0.0758,0.7374 0.2987,0.9906 0.1403,0.4108 -0.134,0.7452 0.064,1.1972 0.1734,0.396 -0.0339,0.8877 0.1493,1.2542l0.0996 2.0097 0.0426 0.0926c0.0465,0.5067 -0.0064,0.9948 0.0498,1.5108 0.0612,0.1224 0.0605,0.2711 0.1209,0.3919 0.0894,1.0017 0.4783,2.0767 0.7752,3.0429 0.0173,-0.0289 0.0119,0.012 0.0142,0.0357 0.2322,0.2911 0.1279,0.7674 0.3911,1.0974 0.074,0.5863 0.0094,1.1752 0.1138,1.7673 0.0596,0.3378 0.0697,0.5353 0.0569,0.8766 -0.0126,0.3387 0.05,0.596 0.0711,0.9193 0.0109,0.0909 0.0149,0.215 0.0427,0.2993 0,0.6971 -0.0885,1.4176 0.0142,2.1094 0.0539,0.363 0.1072,0.7181 0.1992,1.076 0.0774,0.3008 0.2309,0.6128 0.256,0.9193 -0.0251,0.2064 0.1261,0.4969 0.1351,0.7269 0.0147,0.3763 0.2276,0.7208 0.2276,1.1188 0,0.2416 0.0533,0.974 0.256,1.126 0.0885,0.142 0.2088,0.2692 0.3058,0.4062 0.0976,0.1377 0.159,0.351 0.2631,0.4703 0.0405,0.1223 0.1201,0.293 0.2062,0.392 0.0659,0.1979 0.1588,0.3774 0.2632,0.5558 0.2668,0.3406 0.179,0.6678 0.2702,1.0405 -0.0233,0.0325 -0.0363,0.0698 -0.0711,0.0783 -0.0022,0.0091 -0.0049,0.0123 -0.0071,0.0214 -0.1565,0.0385 0.2204,0.5581 0.2204,0.6699 0,0.3878 -0.6433,0.8949 -0.8889,1.183 -0.1708,0.2002 -0.1765,0.5428 -0.2347,0.791 -0.0731,0.3118 -0.2276,0.5257 -0.2276,0.8765 -0.0448,0.3074 0.1465,0.8831 -0.0142,1.1545l0 0.0285 -0.0071 0.0213c-0.0769,0.097 -0.061,0.2955 -0.1565,0.4062 -0.0528,0.3774 -0.1068,0.5659 -0.0568,0.9621 0.012,0.0151 0.0119,0.0167 0.0142,0.0356l0.0213 0.0285c0.0366,0.2987 0.5136,0.8494 0.2631,1.183 -0.0087,0.0982 -0.1384,0.2764 -0.2204,0.3278 -0.0476,0.0956 -0.1182,0.2232 -0.1849,0.3064 -0.0027,0.0196 -0.0084,0.0266 -0.0214,0.0428 -0.0244,0.1985 -0.0049,0.3972 -0.0213,0.5986 0.0387,0.2008 -0.0588,0.4698 -0.1493,0.6414 -0.2294,0.4353 -0.2239,0.8837 -0.3058,1.3611 -0.0423,0.2463 -0.0459,0.5536 -0.1423,0.7839 -0.0703,0.1682 -0.235,0.3036 -0.2986,0.4632 -0.074,0.0103 -0.1405,0.1283 -0.2276,0.1283 -0.0656,-0.2025 -0.9961,-0.4449 -1.209,-0.4704 -0.1183,-0.0142 -0.2429,-0.0123 -0.3627,0.0072 -0.1714,0.0278 -0.2712,-0.2826 -0.4409,-0.2423 -0.1677,0.0399 -0.3064,0.1354 -0.4907,0.1354l-0.0071 -0.0072c0,-0.4138 0.9123,-0.6799 0.6329,-1.2684 -0.073,-0.1537 -0.1668,-0.2569 -0.3555,-0.1782 -0.3548,0.1478 -0.2832,-0.0633 -0.569,-0.2067 -0.2351,0.0153 -0.4511,-0.2779 -0.7254,-0.2779 -0.1812,0.2272 -0.2885,0.1513 -0.5404,0.2138 -0.1413,0.0351 -0.3329,0.0559 -0.2632,0.2352 0.0282,0.0725 -0.2951,0.0978 -0.3627,0.1211 -0.4058,0.14 -0.0713,0.4943 -0.5191,0.563 -0.6191,0.0951 -0.9652,-0.0165 -1.0738,0.7411 -0.0407,0.284 -0.0102,0.4741 0.2702,0.5986 0.3243,0.1441 0.1623,0.1688 0.3129,0.3706l0.256 0 0.0071 0.0071c0.0173,0.0708 -0.128,0.269 -0.128,0.3991 0,0.0458 0.1831,0.7456 0.0071,0.6414 -0.299,-0.1769 -0.9785,-0.3016 -1.2658,-0.0143 -0.123,0.123 -0.1432,0.3745 -0.2276,0.5345 -0.1265,0.2401 -0.3146,0.4398 -0.3982,0.7126l-0.0569 0.0784c-0.0334,0.3066 -0.2682,0.64 -0.3129,0.9763 -0.0213,0.1601 0.0031,0.331 0.0711,0.4775 0.0374,0.0805 0.1607,0.1981 0.1707,0.2779 0.1142,0.1431 -0.0206,1.0509 -0.0925,1.24 -0.1619,0.4262 -0.1337,0.8603 -0.3342,1.2613 -0.0653,0.0408 -0.1323,0.1184 -0.2134,0.1283 -0.0195,0.0156 -0.032,0.0255 -0.0569,0.0285 -0.1056,0.0847 -0.2383,0.0978 -0.3271,0.1995 -0.096,0.3864 -0.1558,0.6071 -0.5832,0.6414l-0.9742 0.0784c-0.258,0.257 -0.6255,0.5837 -0.9743,0.7126 -0.569,0.2102 -0.9896,0.1596 -1.3441,0.7269l-0.4409 0.7055c-0.1352,0.2163 -0.0428,0.6547 -0.3058,0.8195 -0.1428,0.1823 -0.6225,0.3981 -0.6472,0.5773 -0.0256,0.185 0.0651,0.2852 0.1707,0.4204 0.1083,0.1388 0.0384,0.2309 0.0213,0.3706 -0.1388,0.116 -0.0641,1.0786 0.0214,1.2114 0.1204,0.1872 0.1498,0.3857 0.1137,0.6129 -0.0309,0.194 0.0064,0.6884 -0.0853,0.8267 -0.0064,0.2087 -0.1117,0.5919 -0.1707,0.8052 -0.1107,0.4005 -0.1333,0.2524 -0.4196,0.1711 -0.0518,-0.37 -0.1254,-0.8237 -0.2417,-1.1759l-0.0143 0c-0.0524,0.0702 -0.2217,0.5972 -0.2347,0.6984 -0.0288,0.2225 0.069,0.4689 0.0143,0.6912 -0.0894,0.3627 -0.1294,0.5148 -0.0214,0.8837 0.0348,0.1188 0.0582,0.3255 -0.0213,0.4276 -0.0657,0.0842 -0.2702,0.0738 -0.2702,0.171l0.0142 0.0071c0.0785,0.321 0.4314,0.2092 0.6685,0.2423 0.0359,0.1838 0.0224,0.3249 -0.1565,0.449 -0.2658,0.1843 -0.3537,0.6292 -0.6756,0.6912 -0.3464,0.0666 -0.582,0.2132 -0.832,0.4632 -0.3318,0.2255 -0.2276,0.4755 -0.2276,0.7911 -0.1636,0.0403 -0.0435,0.3837 -0.1991,0.4275 -0.0132,0.0037 -0.4361,-0.2093 -0.5405,-0.228 -1.3778,-0.248 -0.6868,1.7862 -1.3725,2.0738 -0.3674,0.154 -0.8117,-0.0178 -0.9672,0.4917 -0.1381,0.4521 -0.249,0.8224 -0.6329,1.1117 -0.0136,0.023 -0.025,0.0441 -0.0427,0.0641 -0.1964,0.0484 -0.3944,-0.0211 -0.5263,0.1995 -0.2076,0.3469 0.0441,0.847 0.1636,1.1759 0.0398,0.1096 0.2863,0.8932 0.1564,0.9193 -0.2578,-0.2596 -0.3421,-0.4043 -0.7111,-0.5345 -0.2792,-0.0984 -0.4105,0.1087 -0.2418,0.3349 0.0674,0.0903 0.1363,0.145 0.1967,0.1842l0 0 -0.3192 0.304 -30.2463 1.1871 0 0 0.0427 -1.9494 -46.1317 0.0322 0 0zm3.998 -149.31c-0.1137,0.0878 -0.2016,0.3757 -0.2418,0.506 -0.0554,0.1798 -0.2802,0.1887 -0.4196,0.0641 -0.2653,-0.2369 -0.0848,-1.0428 -0.0284,-1.354 0.0348,-0.1926 -0.0545,-0.1395 -0.1636,-0.228 -0.1824,-0.1478 -0.1327,-0.4896 -0.1849,-0.7126 -0.0405,-0.1728 -0.2038,-0.4695 -0.1707,-0.6343 0.0307,-0.1534 0.4559,-0.6556 0.6045,-0.6556 0.0818,0 0.1984,0.1069 0.32,0.1069 0.1247,0 0.3305,-0.0467 0.4339,-0.0214 0.0813,0.3299 0.296,0.4967 0.5262,0.7269 0.2181,0.2181 -0.3597,1.2706 -0.384,1.5678 -0.0123,0.1513 0.204,0.4025 0.3627,0.3135 0.1548,-0.0867 0.2764,-0.5599 0.4338,-0.5986 0.087,0.3532 0.0484,1.0061 -0.2063,1.2828 -0.1035,0.1123 -0.3055,0.2519 -0.4551,0.1567 -0.2512,-0.16 -0.0284,-0.3449 -0.0284,-0.5629l-0.0143 0c-0.0035,-0.0108 -0.123,-0.0633 -0.1422,-0.0784 -0.0982,-0.0777 -0.083,0.0239 -0.1493,0.057l-0.0925 0.0641zm-17.1579 -4.2981c0.0425,-0.0099 0.0537,-0.0872 0.0391,-0.1229 -0.0111,-0.0274 -0.0526,-0.0498 -0.0764,-0.0677 -0.0232,-0.0173 -0.0664,-0.0251 -0.0925,-0.0107 -0.0293,0.0163 -0.0377,0.0769 -0.0391,0.1069 -0.0019,0.0414 0.0039,0.0783 0.0089,0.1175 0.0039,0.004 0.0072,0.0082 0.0107,0.0125 0.0126,0.0033 0.0156,0.0077 0.032,0.0071 0.0218,-0.0009 0.0472,-0.0114 0.0693,-0.0142l0.048 -0.0285zm-19.4525 -15.8337c-0.0264,0.0062 -0.0236,0.0052 -0.0426,0.0072 -0.013,0.0014 -0.0188,0.0071 -0.0356,0.0071 -0.0135,0.0108 -0.0184,0.0142 -0.0355,0.0142 -0.0113,0.0085 -0.0073,0.0072 -0.0214,0.0072 -0.0156,0.0116 -0.0439,0.0285 -0.064,0.0285l-0.0071 0.0071 0 0.0143c-0.0114,0.0037 -0.0071,0.0078 -0.0071,0.0213l0 0.0357c0.0096,0.0129 0.0071,0.0194 0.0071,0.0356 0.0109,0.0036 0.0071,0 0.0071,0.0143 0.0118,0.0118 0.0176,0.0206 0.0214,0.0356l0.0142 0c0.0112,0.0084 0.0073,0.0071 0.0213,0.0071 0.0096,-0.0072 0.017,-0.0114 0.0285,-0.0142 0.0042,-0.0064 0.0077,-0.0104 0.0142,-0.0143 0.0166,-0.0102 0.0307,-0.0238 0.0498,-0.0285l0.0071 -0.0071c0.0045,-0.014 0.0025,-0.0004 0.0071,-0.0143l0.0142 -0.0071c0.0013,-0.0055 0.0037,-0.0099 0.0071,-0.0143 0.0073,-0.0097 0.0068,-0.0118 0.0142,-0.0213 0.009,-0.0118 0.0038,-0.0109 0.0143,-0.0143l-0.0143 -0.0998zm14.2659 -11.345c0.0416,-0.0776 0.4324,-0.5352 0.4907,-0.3635 0.0972,0 0.2378,0.0306 0.3342,0.0499 0.121,0.0243 0.2517,0.0279 0.3698,0.057 0.0028,0.0088 0.0055,0.0114 0.0142,0.0143l0 0.0214c-0.0745,0.0246 -0.2387,0.1068 -0.2916,0.1781 -0.0284,0.0382 -0.0188,0.0682 -0.0142,0.1141 0.0059,0.0596 -0.0014,0.0691 -0.0142,0.1211 -0.0895,0.022 -0.2008,0.0099 -0.2916,-0.0214 -0.1134,-0.0392 -0.226,-0.0551 -0.3484,-0.0855l-0.2489 -0.0855zm-15.9726 -27.8781c-0.0269,0.0083 -0.0554,0.0233 -0.0711,0.0357 -0.0315,0.0251 -0.0842,0.0384 -0.1209,0.057 -0.0331,0.0169 -0.0663,0.031 -0.0996,0.0499 -0.0512,0.029 -0.0875,0.0963 -0.1351,0.1354 -0.0422,0.0348 -0.1067,0.0992 -0.1067,0.1567 0.0888,0 0.1429,-0.0335 0.2133,-0.0783 0.1043,-0.0662 0.2926,-0.0729 0.3485,-0.1996 0.0059,-0.0136 0.0383,-0.0384 0.0498,-0.0499 0.0263,-0.0266 0.0661,-0.056 0.0782,-0.0926 0.0112,-0.034 -0.0084,-0.0713 -0.0426,-0.0713l-0.1138 0.057zm-20.4458 12.2786c-0.1839,-0.0422 -0.3775,0.1285 -0.4196,0.2993 0.1901,0.0482 0.4199,-0.164 0.6045,-0.2209 0.0913,-0.0282 0.4091,-0.1129 0.4338,-0.2138 -0.0685,0 -0.1394,0.0248 -0.2062,0.0428 -0.0801,0.0215 -0.1689,0.0428 -0.256,0.0428l-0.1565 0.0498zm17.4447 -10.048c-0.2423,0.0904 -0.3445,0.0963 -0.5547,0.285 -0.1439,0.1293 -0.4805,0.3846 -0.6614,0.4276 -0.204,0.0486 -0.1765,-0.228 -0.3271,-0.228 -0.1313,0 -0.4433,0.3309 -0.6258,0.3919l-1.1308 0.3777c-0.1658,0.0554 -0.3873,0.2138 -0.5618,0.2138 -0.162,0 -0.2276,-0.0233 -0.2276,0.1924 -0.3993,0.0984 -0.7003,0.5383 -1.0951,0.62l-1.2019 0.5986c-0.4371,0.2177 -0.4018,0.7124 -0.7823,0.9763 -0.0978,0.0679 -0.7379,0.2175 -0.7396,0.2209 -0.1143,0.0161 -0.1751,0.2494 -0.4409,0.2494 -0.1356,0 -0.3844,-0.0155 -0.4978,0.0499 -0.3511,0.2024 -0.4976,0.239 -0.7325,0.5559 -0.3931,0 -0.9972,0.306 -1.3299,0.5131 -0.0743,0.0445 -0.1995,0.0999 -0.2844,0.1282 -0.0983,0.0875 -0.2332,0.1272 -0.3272,0.2209 -0.401,0.147 -0.788,0.4624 -1.1805,0.6485 -0.1305,0.0619 -0.3365,0.0966 -0.448,0.1711 -0.0261,0.0043 -0.0331,0.0082 -0.0569,0.0213 -0.1667,0.0153 -0.3231,0.1522 -0.4765,0.1711l-0.0853 0.0499 -1.2374 0.7126c-0.2785,0.1604 -0.621,0.4479 -0.9174,0.5558 -0.0758,0.1065 -0.2601,0.1891 -0.3627,0.278 -0.1133,0.0983 -0.1966,0.2546 -0.3271,0.3349 -0.2686,0.1652 -0.3058,0.2844 -0.3058,0.5986 0.1525,0.1101 0.5891,-0.1365 0.7467,-0.2352l0.6827 -0.4275c0.2766,0.0681 -0.4609,0.5605 -0.5903,0.6556 -0.1402,0.1032 -0.6502,0.2525 -0.6898,0.4133 0.0599,0.0447 0.2883,0.0077 0.2774,0.1425 -0.0078,0.0958 -0.425,0.2709 -0.4623,0.4989 -0.0277,0.1688 -0.158,0.4469 -0.3414,0.4917 -0.0022,0.0091 -0.0049,0.0123 -0.0071,0.0214l0.0071 0.0071c0.2579,0 0.5064,0.1078 0.7539,0.1425 0.1808,0.0254 0.2418,0.2546 0.2418,0.4062 0,0.2171 0.1306,0.1555 0.2987,0.2067 0.1056,0.0322 0.3058,0.1924 0.3982,0.1924 0.1033,0 0.2222,-0.1568 0.3698,-0.1568 0.5167,0 1.1515,-0.309 1.6001,-0.5843 0.2404,-0.1474 0.4734,-0.2787 0.7396,-0.3564 0.1984,-0.058 0.7665,-0.1113 0.8676,-0.3135 0.3412,-0.128 2.4606,-0.9068 2.4606,-1.2329 -0.3177,0 -0.8457,0.3314 -1.2018,0.3991 -0.1807,0.0344 -0.7398,0.0153 -0.9316,-0.0214 -0.2327,-0.0446 -0.3206,-0.1343 -0.3343,-0.3777 -0.0288,-0.5084 1.7352,-0.8221 1.7352,-1.0974 -0.618,0 0.5933,-0.5132 0.7752,-0.5487 0.224,-0.0436 0.4433,-0.1664 0.64,-0.2993 0.073,-0.0492 0.2053,-0.1118 0.2561,-0.1711 0.0545,-0.0637 0.1401,-0.2332 0.2346,-0.2565 0.2362,-0.0536 0.4054,-0.335 0.6685,-0.335 0.0398,-0.0318 0.1097,-0.0251 0.1494,-0.057 0.0806,0 0.2925,-0.0719 0.3698,-0.0142 0.499,0 0.948,-0.0505 1.4152,-0.2352 0.2576,-0.1019 0.5269,-0.226 0.7609,-0.3705 0.1689,-0.1044 0.6403,-0.4636 0.8107,-0.4846 0.4866,-0.2133 1.1817,-0.8151 1.5859,-1.1759 0.4297,-0.3834 0.2347,-0.8351 0.2347,-1.3611l-0.0071 -0.0071 -0.0356 0c-0.0131,0.0175 0.0008,0.0106 -0.0213,0.0142 -0.0708,0.2894 -0.7804,0.4501 -0.889,0.8908 -0.0131,0.0032 -0.011,0.0013 -0.0142,0.0143 -0.2206,0.0543 -0.1788,0.0664 -0.4196,0.0071 -0.0709,-0.2877 1.5935,-1.3076 1.8704,-1.4894 0.3502,-0.2298 0.6497,-0.5402 0.9885,-0.7625 0.2896,-0.1901 0.8528,-0.7807 1.1592,-0.8409 0.084,-0.0878 0.1496,-0.2015 0.2133,-0.3064 0.1034,-0.1705 0.2578,-0.319 0.3769,-0.4704 0.1084,-0.1377 0.3157,-0.3276 0.2703,-0.5131 -0.1225,0 -0.2336,0.1597 -0.3414,0.2209 -0.0557,0.0317 -0.112,0.0738 -0.1707,0.1069 -0.0332,0.0186 -0.0957,0.0799 -0.1351,0.0856 -0.0082,0.0336 -0.1016,0.1022 -0.128,0.1211l-0.32 0.1283zm-43.8491 53.7467l-0.1196 0.4238c0.0206,0.1362 0.063,0.3173 0.197,0.3741 0.1318,0.5348 1.0923,0.7283 1.4081,0.3064 0.2577,-0.3442 0.2237,-0.3002 0.512,-0.1069 0.2461,0.1649 0.2582,0.2284 0.2347,0.5131 -0.0096,0.1167 -0.1202,0.519 0.0498,0.5274 0.5363,0.0268 0.4515,-0.3618 0.9387,0.0926 0.4662,0.435 1.1021,0.1464 1.337,0.7625 0.1397,0.3666 0.5354,0.8023 0.5831,1.1901 0.1737,0.1246 0.3443,0.6414 0.4978,0.8338 0.0834,0.1063 0.192,0.2697 0.192,0.4062 0,0.1172 0.0445,0.205 0.0569,0.3064 0.026,0.0186 0.1482,0.2127 0.1778,0.2566 0.2019,0.2987 0.3858,0.6092 0.512,0.9406 0.1083,0.2842 0.0143,0.5454 0.0143,0.8409l0.0284 0.278 23.4168 6.3912 5.2002 3.2506c0.2846,0.0358 0.4756,0.3243 0.6926,0.494 0.1834,0.0248 0.424,-0.0113 0.559,-0.0806 0.6413,-0.3291 0.3429,0.342 0.9814,0.342 0.3124,0 0.5419,-0.2616 0.8107,-0.1425 0.2839,0.1257 0.6181,0.5558 0.9388,0.5558 0.5497,0 0.9085,0.7769 1.4792,0.4134 0.3217,-0.205 0.2144,-0.4212 0.2986,-0.7412 0.1416,-0.5376 0.4705,0.3278 0.5832,0.3278 0.1182,0 0.246,-0.1871 0.3982,-0.1995 0.2818,-0.0229 0.528,-0.0297 0.7823,-0.1568 0.4531,-0.2264 0.3139,0.1294 0.5974,0.4134 0.5764,0.5776 0.3904,-0.138 0.768,0.114 0.2023,0.1351 0.4319,0.148 0.6543,0.228 0.1946,0.0699 0.3345,0.3681 0.5689,0.3991 0.5162,0.0683 0.4582,-0.1113 0.8107,-0.3421 0.0244,-0.016 0.4687,0.3771 0.5547,0.4561 0.1787,0.164 0.2904,0.3341 0.4694,0.5131 0.124,0.124 1.0503,0.1719 1.2516,0.1568 0.2138,-0.016 0.7176,-0.6927 0.7254,-0.171 0.0087,0.5799 0.6725,0.5232 1.0668,0.4133 0.207,-0.0577 0.6923,0.285 0.9529,0.285 0.0143,0 0.0285,0 0.0427,0 0.0123,0 0.1774,0.1193 0.1849,0.1426 0.096,0.2983 0.6851,0.2731 0.9103,0.4988 0.2262,0.2269 0.0569,0.7486 0.0569,1.0689 0,0.4044 0.8327,1.6533 -0.2703,1.6533 -0.7003,0 -0.5028,1.0748 0.1423,1.2115 0.3959,0.0839 0.3165,0.212 0.5547,0.4703 0.2464,0.267 0.5864,0.2609 0.8818,0.1283 0.2054,-0.0921 0.7837,-0.237 0.9103,-0.3278 0.0472,-0.0339 0.249,-0.1698 0.3555,-0.114 0.3356,0.1762 -0.1051,0.944 0.7539,1.0832 0.4387,0.0711 0.8658,-0.0337 1.2374,0.171 0.4256,0.2343 0.5777,-0.3067 0.8107,0.057 0.3637,0.5674 0.6472,1.1524 1.2516,1.4253 0.2667,0.1205 0.482,0.7558 0.5405,1.0262 0.1122,0.5186 -0.4676,0.3937 -0.64,0.7411 -0.2031,0.409 0.9044,1.2008 0.8676,1.6533 -0.0339,0.4158 -0.0989,0.7855 -0.2418,1.1545 -0.0219,0.0565 -0.122,0.0018 -0.1565,0.0712 -0.0047,0.0094 -0.0036,0.0285 -0.0142,0.0285 -0.2513,0 -0.5025,-0.0191 -0.7538,-0.0285 -0.378,-0.0142 0.1773,0.6372 0.3982,0.8837 0.2421,0.2703 0.4822,1.0972 0.441,1.4395 -0.0398,0.3298 -0.3803,0.867 -0.5832,1.0974 -0.1978,0.2244 -0.4784,0.4267 -0.7111,0.5701 -0.1959,0.1206 -0.2845,0.2571 -0.2845,0.4989 0,0.1487 0.1862,0.776 0.1422,0.8694 -0.0747,0.1588 -0.2836,0.3677 -0.3271,0.5558 -0.0042,0.0181 -0.0317,-0.0006 -0.0427,0.0143 -0.0185,0.025 -0.0585,0.0429 -0.0711,0.0713 -0.0571,0.1276 -0.026,0.4945 -0.1422,0.5273 -0.2506,0.0707 -0.2185,0.4753 0.0853,0.4561 0.0474,-0.003 0.2496,-0.0855 0.3414,-0.0855 0.0095,0 0.019,0 0.0284,0 0.0824,0 0.1274,0.1465 0.1707,0.1995 0.0311,0.0379 0.0791,0.0302 0.128,0.057 0.0234,0.0129 0.0183,0.0038 0.0284,0.0285 0.0571,0.1401 0.4353,-0.209 0.5121,-0.228 0.2806,-0.0698 0.5088,-0.2066 0.7538,-0.0143 0.1629,0.128 0.3513,0.019 0.4551,0 0.0261,-0.0048 0.0648,-0.058 0.0854,-0.0285 0.0595,0.0855 0.2169,0.2018 0.2987,0.0285 0.0192,-0.0406 0.1151,-0.1202 0.1564,-0.1425 0.0885,-0.0477 0.1992,-0.1194 0.1992,-0.1995 0,-0.0095 0,-0.019 0,-0.0285 0,-0.0304 0.1429,-0.0782 0.1991,-0.1141 0.2139,-0.1364 0.3144,-0.4968 0.5262,-0.6841 0.1519,-0.1342 0.3078,-0.1634 0.4694,0.057 0.0954,0.1303 0.3259,0.515 0.512,0.5844 0.0251,0.0094 0.2382,0.2726 0.2845,0.3563 0.0631,0.1138 0.0815,0.3024 0.0427,0.4418 -0.0755,0.2716 -0.4241,0.5453 -0.4979,0.8267 -0.0113,0.0431 -0.0944,0.0957 -0.1137,0.1282 -0.0436,0.073 -0.1866,0.2954 -0.2418,0.4134 -0.071,0.1521 -0.1423,0.3041 -0.2134,0.4561 -0.1438,0.3073 -0.4267,0.662 -0.4267,1.0119 0,0.1903 -0.0574,0.3368 -0.1991,0.4703 -0.0818,0.0772 -0.0631,0.8665 -0.0853,0.9264 -0.0498,0.1339 -0.374,0.2466 -0.4054,0.3706 -0.1014,0.4002 0.1398,0.8223 0.4196,1.0761 0.1855,0.1684 0.5595,0.6826 0.8107,0.734 0.0283,0.0058 0.0547,0.0207 0.0711,0.0427 0.0681,0.0917 0.1556,0.2081 0.2205,0.3136 0.0815,0.1327 -0.0165,0.2441 0.0427,0.3777 0.1225,0.2768 0.3372,0.4471 0.6187,0.5202 0.1078,0.028 0.4271,0.1104 0.512,0.1283 0.1728,0.0363 0.3982,0.1119 0.5547,0.1211 0.0159,0.0009 0.0213,0.0214 0.0356,0.0214 0.0048,0 0.0095,0 0.0142,0 0.0294,0 0.0214,0.0116 0.0584,0.0197 0.0007,0.0001 0.0103,0.0022 0.0112,0.0024l0 0c-0.0349,-0.0538 -0.0666,-0.1007 -0.091,-0.1361 -0.264,-0.4648 -0.4397,-0.6212 -0.1137,-1.1188 0.0755,-0.1152 0.0182,-0.2178 0.064,-0.3207 0.0568,-0.1277 0.2643,-0.2715 0.2844,-0.4347 0.2261,-0.1616 0.4412,-0.5423 0.633,-0.7554l0.5262 -0.5844c0.1086,-0.1206 0.3115,-0.3427 0.3769,-0.4703 0.0651,-0.1268 0.4083,-0.668 0.5121,-0.7269 0.013,-0.0929 0.2438,-0.3096 0.3129,-0.3919 0.2291,-0.249 0.3832,-0.6007 0.576,-0.8623 0.0961,-0.1303 0.4621,-0.439 0.4907,-0.5559 0.1067,-0.0263 0.0061,-0.6716 0.1636,-0.8124 0.1805,-0.1615 0.484,-0.2854 0.5049,-0.5416 0.0138,-0.1689 0.0483,-0.2837 0.1351,-0.4133 0.2882,0 0.2488,-0.4931 0.2774,-0.6912 0.0106,-0.0036 0.0849,-0.0835 0.0853,-0.0855 0.1516,0 0.3128,-0.2599 0.3911,-0.3635 0.1603,-0.2558 0.1759,-0.2841 0.192,-0.5701 0.0085,-0.1501 0.2966,-0.2927 0.4267,-0.3349 0.5801,-0.1882 0.128,-0.589 0.128,-0.8908 0,-0.1912 0.195,-0.6166 0.3627,-0.7126 0.0127,-0.0882 0.1933,-0.2446 0.2489,-0.3278 0.0788,-0.1182 0.0756,-0.2043 0.1281,-0.3207 0.0977,-0.2167 0.3178,-0.4249 0.3769,-0.6414 0.0371,-0.1357 0.0208,-0.287 0.0711,-0.4204 0.0837,-0.2216 0.1908,-0.4182 0.3058,-0.6272 0.0994,-0.224 0.1649,-0.487 0.2275,-0.7197 0.0707,-0.2632 0.2973,-0.3815 0.4481,-0.5915 0.0915,-0.1273 0.0549,-0.2563 0.1138,-0.3919 0.0771,-0.1778 0.2292,-0.3195 0.3058,-0.4918 0.0762,-0.1711 0.3391,-0.4346 0.3627,-0.5986 0.0344,-0.0113 -0.0191,0.0398 0.0497,-0.0855 0.123,-0.1381 0.2549,-0.6489 0.4267,-0.6912 0.0303,-0.1239 0.2365,-0.0784 0.3129,-0.0784 0.0462,-0.1874 -0.1384,-0.2943 -0.0569,-0.449 0.0569,-0.1079 0.3607,-0.2449 0.4694,-0.2993 0.4033,-0.2022 0.4825,-0.5131 1.017,-0.5131 0.4032,0 0.073,-0.3166 0.2631,-0.4418 0.1311,-0.0862 0.8654,-0.2058 0.8178,-0.3991 -0.1276,-0.0314 -0.3099,-0.0096 -0.2418,-0.1995 0.0304,-0.0846 0.1613,-0.4411 0.2276,-0.4632 0.0202,-0.1445 0.401,-0.3542 0.5263,-0.3848 0,-0.0137 0.0044,-0.0177 -0.0072,-0.0214l0 -0.0143c-0.3485,-0.0859 -0.6804,-0.3699 -0.5547,-0.7696 0.0351,-0.43 0.1939,-0.8177 0.1707,-1.2542 -0.0124,-0.233 0.04,-0.9581 0.3627,-0.9763 0.3123,-0.0177 0.4777,-0.1267 0.7538,-0.2566 0.3246,-0.1526 -0.155,-0.5194 -0.3271,-0.563 -0.0254,-0.1032 0.3548,-0.3605 0.4054,-0.4846 0.0819,-0.201 0.2275,-0.4634 0.4409,-0.5701 0.0029,-0.0149 0.0022,-0.0153 0.0142,-0.0213 0.0171,-0.1225 -0.1159,-0.4134 0.1351,-0.4134 0.0298,-0.0498 0.0262,-0.137 0.0569,-0.1781l0.0427 0c0.2002,0.4005 0.4892,0.3572 0.5191,0.8551 0.0313,0.5227 -0.3266,0.6864 -0.6613,1.0476 -0.2016,0.2177 -0.1647,0.7126 -0.6116,0.7126 -0.1598,0.4795 0.2778,0.6372 0.3271,1.0333 0.1035,0.8428 0.4015,1.596 0.2631,2.4515 -0.1028,0.6353 0.0898,1.2957 0.2418,1.917l0.0213 0c0.0936,-0.2809 0.318,-0.5783 0.4481,-0.8552 0.2249,-0.4788 0.1846,-0.3842 0.6613,-0.228 0.2402,0.0786 0.2902,-0.0939 0.4125,-0.278 0.2035,-0.3065 0.5822,0.1874 0.8036,0.0642 0.1648,-0.0918 0.0935,-0.2723 0.2632,-0.3278 0.1085,-0.0355 0.3998,-0.0487 0.384,-0.2209 -0.0158,-0.1728 -0.2379,-0.3534 -0.128,-0.4633 0.135,-0.135 0.2512,-0.3199 0.2773,-0.5059 0.1377,-0.0199 0.2774,-0.2556 0.2774,-0.3848 0,-0.2169 0.033,-0.1716 0.0782,-0.3564 0.0712,-0.01 0.1193,-0.0712 0.1991,-0.0712 0.0906,0 0.1427,0.0926 0.2063,0.0926 0.0115,-0.047 0.0016,-0.0631 -0.0072,-0.1069 -0.1239,-0.0619 -0.2082,-0.3654 -0.192,-0.4917 0.1105,-0.0857 0.4781,-0.1004 0.6259,-0.1211 0.0323,-0.1323 0.2135,-0.3049 0.1777,-0.4917 -0.0488,-0.2552 -0.0749,-0.4743 -0.2915,-0.6485 -0.1533,-0.1234 0.008,-0.23 0.0426,-0.3777 0.0321,-0.1374 -0.0458,-0.5684 0.0783,-0.6414 0.246,-0.1446 0.3948,-0.0742 0.6187,-0.0428 0.0228,0.0804 0.2574,0.402 0.32,0.4846 0.1072,0.1412 0.3839,0.3065 0.5689,0.3065 0.3612,0 0.8753,0.076 1.209,0.1995 0.3256,0.1206 0.2327,0.0421 0.3058,-0.2566 0.0799,-0.0112 0.1959,0.0094 0.2631,-0.0071 0.0579,-0.2353 0.0661,-0.4944 0.0996,-0.734 0.1145,-0.0572 0.2043,-0.2082 0.2915,-0.2993l0.0072 -0.0071c0.0143,0 0.0106,0.0038 0.0142,-0.0071 0.0971,0 0.2211,-0.0713 0.3058,-0.1212 0.1322,-0.0777 0.1369,-0.2009 0.2276,-0.3064 0.111,-0.1293 0.346,-0.5572 0.5618,-0.506 0.1619,0.0383 0.3061,0.147 0.4338,0.2566 0.2332,0.2004 0.3713,0.5012 0.4338,0.8052 0,0.4824 -0.1547,0.7911 -0.4978,1.0975 -0.2993,0.2674 -0.0293,0.6012 -0.2205,0.8765 -0.1455,0.2097 -0.5259,0.185 -0.4551,0.5416 0.037,0.1868 0.7054,0.7117 0.384,0.7269 -0.2352,0.0112 -0.2645,-0.1432 -0.4196,-0.2423 -0.1812,-0.1159 -0.3749,0.0317 -0.5262,0.114 -0.0747,0.0407 -0.1896,-0.1287 -0.2561,-0.1639 -0.4229,-0.2235 -0.2511,-0.1197 -0.2915,0.2352 -0.0096,0.0845 -0.2599,0.1442 -0.2134,0.228 0.0748,0.135 0.2652,0.0991 0.384,0.1283 0,0.0925 -0.1641,0.223 -0.2489,0.2352 -0.029,0.1179 -0.1672,0.3636 -0.2204,0.5059 -0.0629,0.0213 -0.1241,0.2663 -0.2205,0.3207 -0.0948,0.0534 -0.1439,0.0069 -0.2347,0.0143 -0.2564,0.0209 -0.1671,0.4006 -0.1422,0.5558 0.0617,0.3835 -0.3877,0.9111 -0.768,0.677 -0.3155,-0.1941 -0.4598,0.4287 -0.4481,0.6485 0.0117,0.218 0.2531,1.2098 0.4125,0.563 0.1757,-0.0433 0.2984,0.5907 0.384,0.7197 0.1341,0.2018 0.58,0.3886 0.8036,0.5131 0.215,0.1196 0.2554,0.0134 0.4409,0.0285 0.2326,0.019 0.3337,0.5149 0.5121,0.4419 0.1334,-0.0547 0.1439,-0.0952 0.1138,-0.2281 -0.0705,-0.3113 -0.5117,-0.5805 -0.3556,-0.9977 0,-0.2294 -0.3252,-0.9423 0.1067,-0.9121 0.3381,0.0237 0.7378,0.3267 0.6329,-0.2209 -0.0552,-0.288 0.1493,-0.296 0.1493,-0.5345 0,-0.1692 -0.1908,-0.8462 0.0711,-0.8338 0.313,0.0148 0.9545,0.4506 1.0597,0.0855 0.0886,-0.3077 0.0566,-0.2528 -0.0071,-0.5131 -0.0913,-0.0296 0.1572,-0.2216 0.1778,-0.2565 0.0739,-0.1247 -0.1675,-0.1957 -0.2418,-0.2352 -0.1933,-0.1026 0.6281,-0.2494 0.704,-0.2494 0.155,0 0.2391,0.323 0.3911,0.171 0.1312,-0.1312 0.217,-0.5163 0.3556,-0.5059 0.3463,0.0262 0.417,0.5107 0.5903,-0.0143 0.1083,-0.0267 0.1594,-0.0844 0.2275,-0.1069 0.05,-0.1974 0.1754,-0.2994 0.1992,-0.5558 0.1497,-0.1887 0.1436,-0.3834 0.4764,-0.3635 0.1767,0.0106 0.3792,0.064 0.569,0.0855 0.305,0.0345 0.8638,0.0492 0.6471,-0.4418 -0.138,-0.3129 0.1751,-0.5405 0.0996,-0.8266 -0.0737,-0.279 0.2997,-0.5531 0.4196,-0.7625 0.1898,-0.0275 -0.2086,-0.3781 -0.1494,-0.5203 0.1321,-0.3168 0.2026,-0.6031 0.2632,-0.9406 0.1308,-0.7285 0.3545,-0.675 0.9387,-1.0333 0.1296,-0.0935 0.0995,-0.2064 0.0995,-0.335 0.22,-0.0713 0.4762,-0.3334 0.7539,-0.2637 0.3586,0.0901 0.3639,0.1449 0.5476,-0.2422 0.3279,-0.6905 1.3483,0.4512 1.9556,-0.0856 0.41,-0.3623 0.8298,-0.3136 1.401,-0.2921 0.5874,0.0222 1.7035,0.4174 2.1122,0.8266 0.2928,0.0976 0.6365,0.2585 0.9031,0.4133 0.1653,0.0959 0.4593,0.3849 0.6401,0.3849 0.1613,-0.2724 -0.617,-0.7628 -0.0711,-1.1973 0.5344,-0.4255 0.8877,-0.539 1.5787,-0.4062 0.3262,0.0627 0.3443,-0.4549 0.7894,-0.4347 0.5591,0.0253 1.1021,0.5203 1.6641,0.5203 0.3259,0 0.5581,-0.0832 0.8747,0.057 0.3587,0.159 0.2825,-0.2064 0.5832,-0.1853 0.1567,0.0109 0.2551,-0.0083 0.3982,-0.0285 0.0039,-0.016 0.0054,-0.0123 0.0214,-0.0214 0.0036,-0.0183 0.0117,-0.0244 0.0142,-0.0428 0.039,-0.0278 0.0645,-0.145 0.0782,-0.1852 0.084,-0.3107 0.0895,-0.3133 0.3556,-0.4775 0.1673,-0.1033 0.1396,-0.2728 0.2773,-0.3492 0.2858,-0.1584 0.468,-0.7632 0.6401,-1.0689 0.138,-0.2449 0.4797,-0.2184 0.5405,-0.506 0.0847,-0.4007 0.4697,-0.7116 0.7182,-1.0191 0.3592,-0.4446 0.8531,-0.589 1.4081,-0.4774 0.2366,0.0476 0.5937,0.3688 0.7325,0.3492 0.1153,-0.203 0.2244,-0.5274 0.4907,-0.5701 0.2047,-0.1242 0.457,0.0935 0.6329,0.1282 0.1317,0.2304 0.2074,0.5064 0.4054,0.7055 0.1339,0.1348 0.4033,-0.3657 0.4694,-0.4133 0.6422,-0.4634 1.0563,0.62 1.5645,0.62 0.1831,0 1.2344,0.232 1.3228,0.3349 0.2113,0.0195 0.5774,0.2614 0.6969,0.4347 0.3142,0.456 0.3815,-0.3592 0.4196,-0.4489l0.0355 0c0.123,0.1221 0.3328,0.4663 0.505,0.342 0.1898,0.0696 0.6,0.111 0.7182,0.278 0.2091,0.0521 0.4204,0.2884 0.5903,0.4062 0.2197,0.1525 0.5017,0.1802 0.7609,0.2066 0.2365,0.024 1.2379,0.3064 1.3512,0.506 0.3548,0.1007 0.5947,0.6695 0.889,0.8623 0.3048,0.1996 0.659,0.673 0.832,0.9905 0.1502,0.2755 0.2054,0.6854 0.4765,0.8766 0.2939,0.1959 0.5789,-0.11 0.7183,0.3206 0.1459,0.451 0.4921,0.3057 0.7396,0.5345 0.172,0.1589 0.117,0.4324 0.1991,0.6485 0.1276,0.336 0.5333,0.3677 0.8107,0.506 0.3992,0.1989 0.6134,0.6046 0.9885,0.791 0.3537,0.1759 0.2884,-0.1516 0.505,-0.2494 0.2478,-0.1118 0.4736,-0.0719 0.7324,-0.114 0.0267,-0.0043 0.2798,-0.0671 0.1778,-0.1354 0,-0.0646 -0.6252,-0.5405 -0.7325,-0.62 0,-0.1045 0.1707,-0.0663 0.1707,-0.2495 0,-0.1566 -0.0431,-0.3098 -0.0995,-0.456 -0.044,-0.1308 -0.3183,-0.4759 -0.2276,-0.5986 0.1303,-0.176 0.3853,-0.0391 0.5689,-0.0856 0,-0.4836 -0.6996,-0.5746 -0.5974,-1.1615 0.0778,-0.4466 0.595,-0.6699 0.9814,-0.6699 0.4139,0 0.1881,-0.239 0.1209,-0.4418 -0.0532,-0.1603 0.0098,-0.2567 0.0498,-0.4134 0.0437,-0.1707 -0.0203,-0.3781 -0.0427,-0.5487 -0.0638,-0.4868 0.1343,-1.385 0.8037,-1.2186 0.3222,0.08 0.4456,0.4561 0.7893,0.4561 0.3191,0.3191 0.2555,0.2874 0.6899,0.3135 0.2503,0.0151 0.2737,-0.171 0.4835,-0.171 0.4465,0 0.6401,0.8355 0.6401,1.183 0,0.2563 -0.0296,1.2015 0.4765,0.8908 0.1006,-0.0618 0.1113,-0.4994 0.1066,-0.62 -0.0166,-0.4261 0.0961,-0.3064 0.4481,-0.3064 0.1627,0 0.136,0.6076 0.2987,0.7197 0.4032,0.2777 0.3497,0.2104 0.4124,-0.1995 0.0454,-0.2963 -0.3528,-0.9243 0.1494,-0.7697 0.2175,0.067 0.2698,-0.102 0.4622,-0.0213 0.2534,0.1062 0.3233,0.2598 0.6258,0.1354 0.1208,-0.0497 0.2849,0.5014 0.1494,0.5273 -0.1125,0.0216 -0.6472,-0.258 -0.6472,-0.2352 0,0.105 0.1483,0.2992 0.2276,0.3635 0.3033,0.2456 -0.3556,0.0084 -0.3556,0.0142 0,0.1616 0.1817,0.2893 0.2631,0.4062 0.2943,0.423 -0.041,0.2138 -0.2489,0.2138 0.1413,0.1858 0.2901,0.2773 0.4765,0.4062 0.1959,0.1353 0.3611,0.4044 0.5689,0.4917 0.3827,0.1035 0.128,-0.1741 0.128,-0.3349 0.2218,0.0542 0.6419,0.3943 0.8463,0.0855 0.1667,-0.252 -0.4283,-0.6785 -0.6116,-0.7839 -0.2081,-0.1195 0.2879,-0.2018 0.3556,-0.2565 0.1336,-0.1078 0.0156,-0.3005 0.0782,-0.3849 0.3015,0.3037 -0.0001,0.849 0.1849,0.9265 0.3695,0.155 0.627,-0.0642 0.9885,-0.0642 0,-0.2682 -0.1542,-0.2381 -0.3342,-0.2708 -0.2336,-0.0424 -0.202,-0.286 -0.3129,-0.4632 -0.0725,-0.116 -0.1951,-0.1979 -0.2702,-0.3064 -0.1253,-0.1813 0.1798,0.0039 0.2275,0.0356 0.1694,0.1124 1.1008,0.7365 1.0454,0.392 -0.0257,-0.1603 -0.1707,-0.3468 -0.1707,-0.4775 0.121,0 0.2219,0.1752 0.3272,0.228 0.1361,0.0681 0.2737,0.0382 0.4196,0.0571 0.2194,0.0284 0.6556,0.258 0.8605,0.1211 0.2148,-0.1434 0.2703,0.112 0.4338,0.1924 0.0763,0.0374 0.5642,0.1644 0.6187,0.1212 0.059,-0.0466 -0.0382,-0.2825 0.1138,-0.1925 0.1355,0.0801 0.2948,0.1426 0.4551,0.1426 0.2721,0 0.2827,-0.1248 0.4765,-0.2566 0.5063,-0.0454 0.6591,0.3592 1.1734,0.4347 0.3061,0.045 1.0693,0.1537 1.3156,0.3065 0.1039,0.0645 0.5689,0.3751 0.5689,0.3278 0,-0.3357 -0.1768,-0.6228 0.377,-0.5915 0.1732,0.0098 0.3837,-0.0567 0.5191,-0.0285 0.2584,0.054 0.3176,0.0795 0.5618,-0.0356 0.3508,-0.1652 0.3026,0.3426 0.4694,0.3848 0.0713,-0.2916 0.1633,-0.711 0.1778,-1.0191 0.0231,-0.4879 0.0668,-0.8144 -0.3983,-1.0476 -0.1673,-0.0838 -0.469,-0.5024 -0.5333,-0.4774 -0.103,0.0399 -0.339,0.0487 -0.3983,0.1283 -0.0858,0.115 -0.1926,0.3744 -0.3271,0.1354 -0.0732,-0.1303 -0.2721,-0.3719 -0.4054,-0.4062 -0.1554,-0.156 -0.3433,-0.2766 -0.4836,-0.4276 -0.1259,-0.1354 -0.2197,-0.3034 -0.3413,-0.4347 -0.0769,-0.0829 -0.216,-0.1841 -0.2703,-0.2708 -0.1435,-0.0655 -0.4242,-0.3475 -0.5191,-0.4775 -0.161,-0.2203 -0.1664,-0.4003 -0.1351,-0.6556 0.2882,-0.3313 0.7251,-0.4209 0.9671,-0.7839 0,-0.0347 -0.0037,-0.0624 -0.0071,-0.0998 -0.0774,-0.1293 -0.3021,-0.0926 -0.4124,-0.2137 -0.1175,-0.1289 -0.2944,-0.1824 -0.4552,-0.2423 -0.3144,-0.117 -0.9902,-0.1772 -1.0667,-0.5986 -0.1459,-0.1053 -0.085,-0.3705 -0.1849,-0.4704 -0.1144,0 -0.2019,0.2309 -0.3343,0.2637 -0.1244,0.0309 -0.2321,-0.121 -0.2702,-0.2209 -0.1562,-0.1579 -0.2614,0.2915 -0.4978,0.114 -0.2495,-0.1872 -0.1676,-0.3688 -0.3983,0 -0.0773,0.1235 -0.241,0.279 -0.3769,0.3349 -0.2258,0.0928 -0.3776,-0.0004 -0.5973,-0.0784 -0.4146,-0.1471 -0.3485,-0.2848 -0.3485,-0.6983 0,-0.1789 -0.1405,-0.0214 -0.2205,-0.0214 -0.0268,-0.1089 -0.124,-0.2967 -0.064,-0.4062 0.0955,-0.1741 0.3899,0.0237 0.3769,-0.2779 -0.0064,-0.15 0.0654,-0.0934 0.1778,-0.1711 0.1223,-0.0847 0.2252,-0.1796 0.3201,-0.2993 0.1785,-0.2249 0.2808,0.0646 0.2417,-0.3349 -0.0389,-0.0654 -0.0214,-0.2194 -0.0071,-0.2922 0.1307,-0.0322 0.2017,-0.0401 0.3627,0 0.2158,0.0537 0.1465,0.1458 0.2632,0.2993l0.0142 -0.0071c0,-0.0144 -0.0038,-0.0106 0.0071,-0.0143 0,-0.2794 -0.0247,-0.5181 -0.1707,-0.7553 -0.1198,-0.1948 -0.236,-0.6331 -0.3911,-0.7697 -0.1127,-0.0991 -0.2347,-0.2788 -0.2347,-0.4418 0,-0.2929 -0.1212,-0.6099 -0.1351,-0.9193 -0.0168,-0.3714 0.1683,-0.9224 -0.0569,-1.2329l-0.4907 -0.677c-0.1446,-0.346 -0.2063,-0.6262 -0.2063,-1.0048 0,-0.2767 0.0436,-0.5412 -0.1066,-0.7696l-0.8107 -1.2329c-0.1541,-0.2343 -0.0593,-0.5164 -0.3201,-0.6698 -0.3051,-0.1796 -0.6761,-0.2536 -0.9814,-0.4775 -0.156,-0.1145 -0.2856,0.0356 -0.4551,0.0356 -0.2018,0.2722 -0.4284,0.6122 -0.8249,0.4633 -0.5906,0.0978 -1.1592,0.6679 -1.1592,1.2827 0,0.7558 -0.6943,0.8228 -0.9032,0.1781 -0.131,0 0.0089,0.4989 -0.3769,0.4989 -0.3233,0 -0.503,0.2633 -0.8036,0.3777 -0.6755,0.2573 -1.1308,0.1978 -1.1308,-0.6058 0,-0.3732 0.4806,0.278 0.633,0.278 0,-0.3288 -0.3724,-0.5599 -0.5903,-0.7625 -0.3408,-0.3167 -0.418,-0.6543 -0.6471,-1.0262 -0.0514,-0.0834 -0.6965,0.1308 -0.9174,0.0784 -0.1001,-0.0238 -0.2539,-0.1627 -0.3272,-0.1568 -0.0593,0.0048 -0.4185,0.3689 -0.4978,0.4276 -0.2074,0.1534 -0.5271,0.2929 -0.7751,0.3705 -0.3043,0.0612 -0.7121,0.3804 -1.0383,0.4917 -0.3107,0.1059 -0.5551,0.1195 -0.8748,0.0856 -0.3919,-0.0415 -0.6979,-0.3771 -0.7893,-0.7483 -0.5957,0 -1.5053,0.3366 -1.7779,-0.4846 -0.0614,-0.1849 -0.1624,-0.0432 -0.3343,-0.0855 0,0.6433 -1.533,0.0711 -1.7779,-0.0285 -0.3855,-0.257 -0.6116,-0.5407 -0.6116,-1.0404 0,-0.3476 0.4153,-0.8053 0.7681,-0.8053 0,-0.1916 -0.0924,-0.4003 -0.1565,-0.5773 -0.0762,-0.2107 -0.0878,-0.4939 -0.1209,-0.7197 -0.0534,-0.3648 -0.0586,-1.3306 0.0925,-1.6533 0,-1.6907 0.2114,-3.4347 1.7281,-4.4397 0.0179,-0.0119 0.1318,-0.1201 0.0853,-0.1354 0,-0.0247 -0.0166,-0.0285 -0.0213,-0.0427 -0.3524,-0.0893 -0.9567,-0.0393 -1.2801,0.1282l-1.3654 0.3563c-1.6827,-0.4187 -3.3228,-0.1944 -4.9497,0.3635 -0.5727,0.1764 -1.2043,0.6187 -1.7138,0.9407 -0.4033,0.255 -0.849,0.4284 -1.2801,0.6199 -0.9582,0.4259 -1.6129,0.7127 -2.6882,0.7127 -0.1956,0 -0.5116,0.1261 -0.6969,0.057l-0.0783 0.0214c-0.6486,0 -1.2975,-0.1537 -1.9485,-0.1354l-2.2757 0.0641c-0.4863,0.0137 -0.8784,-0.2198 -1.3299,-0.2494 -0.3964,-0.2145 -0.8772,-0.1329 -1.3085,-0.1782 -0.7037,-0.0769 -1.4398,0.2446 -2.0553,0.5416 -0.0346,0.0167 -0.3271,0.1662 -0.3271,0.0499 0,-0.0879 0.1431,-0.2766 0.0996,-0.3349 -0.3492,0 -0.934,0.3464 -1.3228,0.4204 -0.5292,0.1007 -1.2345,0.5833 -1.7423,0.4775 -0.3185,-0.0664 -0.4717,-0.413 -0.697,-0.6058 -0.2615,-0.2239 -0.8724,0.5706 -1.2018,0.6272 -1.5119,1.3418 -3.4238,2.4654 -5.2555,3.2852 -0.4646,0.208 -0.6439,0.0641 -1.0525,0.0641 -0.0823,0.1647 -0.2729,0.4114 -0.4124,0.5416 -0.1958,0.3117 -0.3013,0.3839 -0.5903,0.5844 -0.2157,0.1495 -0.2773,0.519 -0.5263,0.5915 -0.5487,0.16 -0.9673,0.9132 -1.2872,1.3682 -0.3707,0.5271 -1.4863,2.6366 -1.4863,0.905 0.0897,-0.1118 0.0272,-0.36 -0.0711,-0.4347 -0.3195,0 -0.7504,0.3545 -1.0098,0.1141 -0.3335,-0.3089 -0.437,-0.7582 -0.7254,-1.0262 -0.224,-0.2083 -0.5742,-0.1078 -0.8605,-0.1568 -0.9428,0.1161 -0.6453,0.9229 -1.145,1.3469 -0.3528,0.2992 -1.1963,0.1026 -1.3156,-0.3777 -0.1115,-0.4486 -0.1536,-0.3093 -0.5121,-0.5488 -0.2199,-0.1468 -0.9814,0.0588 -0.9814,-0.4632 0,-0.6393 -0.489,-1.063 -0.6044,-1.6533 -0.0404,-0.0301 -0.4431,0.0203 -0.5405,0.0072 -0.1446,-0.0194 -0.2021,-0.1426 -0.3627,-0.1426 -0.0033,0.0104 -0.0025,0.0056 -0.0142,0.0143 0,0.2064 -0.858,0.4633 -1.0454,0.5131 -0.5349,0.1766 -0.3917,-0.0728 -0.7894,0.4489 -0.2407,0.3159 -0.7037,0.3567 -1.081,0.278 -0.1792,-0.0373 -0.4754,-0.3278 -0.512,-0.3278 -0.0127,0.017 -0.004,0.0179 -0.0284,0.0213 -0.5467,0.9557 -3.4745,0.5583 -4.2385,0.0784 -0.2692,-0.169 -0.8819,-0.7257 -0.8819,-1.0618 0,-0.4841 0.5646,-0.1411 0.2418,-0.6271 -0.1344,-0.2025 -0.3369,-0.7208 -0.0711,-0.8979 0.2443,-0.1629 0.2419,-0.1333 0.1636,-0.3706 -0.1519,0 -0.2349,0.2915 -0.4552,0.1782 -0.1606,-0.0825 -0.373,-0.2209 -0.5547,-0.2209 -0.3007,0 -0.8841,-0.5372 -0.9529,-0.8196 -0.0284,-0.1165 -0.1179,-0.6335 0.0355,-0.6841l0 -0.0142c-0.4169,0 -0.7338,-0.0575 -0.9671,-0.4347 -0.082,-0.1325 -0.4264,-0.7708 -0.3556,-0.8695 0,-0.4882 0.0369,-0.4633 -0.3912,-0.7055 -0.266,-0.1504 -0.6048,-0.3948 -0.7893,-0.6413 -0.5564,-0.7431 -0.3082,-1.4048 -0.505,-2.2092 -0.2417,-0.0798 -0.7965,-0.5765 -0.7965,-0.8623l-0.0142 -0.0142c0,-0.0247 -0.0117,-0.0474 -0.0284,-0.0641 -0.2956,0 -0.696,0.0641 -0.8748,-0.2495 -0.0792,-0.0792 -0.0769,-0.2247 -0.0711,-0.3349 0.007,-0.131 0.0099,-0.2189 -0.0142,-0.3421 -0.0669,-0.0165 -0.1339,-0.084 -0.2133,-0.0142 -0.0597,0.0526 -0.0451,0.1187 -0.0569,0.1924 -0.0312,0.1948 -0.1511,0.3078 -0.3272,0.3492 -0.137,0.0321 -0.3236,-0.019 -0.4551,-0.057 -0.1533,-0.0444 -0.3172,-0.1524 -0.2916,-0.3278 -0.0063,-0.015 -0.0055,-0.0239 -0.0142,-0.0357 0,-0.0186 0.0027,-0.0153 -0.0071,-0.0285 0,-0.0341 -0.0151,-0.0669 -0.0213,-0.0997 -0.0092,-0.0479 -0.014,-0.1014 -0.0214,-0.1497 -0.014,-0.092 -0.0215,-0.1895 -0.0498,-0.2779 -0.0283,-0.0881 -0.0431,-0.1854 -0.064,-0.2779 -0.0035,-0.0183 -0.0142,-0.0245 -0.0142,-0.0428 -0.2999,-0.0739 -0.5375,0.3114 -0.768,-0.1497 -0.2115,-0.423 -0.0134,-0.3059 -0.5476,-0.3919 -0.228,-0.0366 -0.2734,-0.2315 -0.441,-0.2779 -0.2714,-0.0753 -0.6211,0.1638 -0.96,0.0214 -0.2889,-0.1215 -0.5687,-0.7626 -0.7396,-0.7626 -0.317,0 -0.6851,0.1447 -1.0241,0.1639 -0.437,0.0247 -0.8148,0.058 -1.2445,0.0214 -0.6054,0 -1.2751,-0.4204 -1.913,-0.4204 -0.7808,0 -1.4557,0.3848 -2.2402,0.3848 -1.1757,0 -1.5748,2.8505 -2.4677,2.8505l-0.0071 -0.0071c-0.0684,-0.2775 0.5071,-0.6468 0.5476,-1.0048 0.0511,-0.4521 0.3892,-1.1516 0.6685,-1.5108 0.5343,-0.6874 2.105,-1.3151 2.105,-2.3588 -0.2837,-0.0699 -1.2931,0.7731 -1.6214,0.9193 -0.794,0.3534 -1.2982,0.8817 -1.9486,1.4609 -0.311,0.311 -1.6399,2.0435 -1.8846,0.8266 -0.1697,-0.0418 -0.359,0.5472 -0.5333,0.6343 0,0.1331 0.3241,0.1781 0.4267,0.1781 0.0032,0.0133 0.0495,0.0393 0.064,0.0428 0.0066,0.0269 0.0355,0.0321 0.0355,0.057 0.101,0.0249 -0.1183,0.2808 -0.1351,0.2993l-0.3556 0.3919c-0.2745,0.3025 -0.5456,0.674 -0.7396,1.0262 -0.2484,0.4512 -0.5037,1.6914 -1.2374,1.3469 -0.4844,-0.2275 -0.1916,-0.483 0.0427,-0.848 0.1005,-0.0674 0.047,-0.1664 0.2204,-0.1711l0.2561 -0.0071c0.0918,-0.3726 -0.027,-0.584 -0.1778,-0.9549 -0.2046,-0.5029 -0.2607,-0.737 -0.1138,-1.2899 0.0925,-0.348 0.101,-0.6416 0.0284,-0.9905 -0.068,-0.3272 0.31,-0.8059 0.4054,-1.1188 0.0597,-0.1956 0.0782,-0.5535 0.1564,-0.7056 0,-0.2236 0.0896,-0.6001 0.1281,-0.848 0.0368,-0.2375 0.1083,-0.4991 0.3271,-0.4561 0.0683,0.1376 0.5072,-0.1265 0.5689,-0.1354 0.0411,-0.167 0.3375,-0.5189 0.4267,-0.6983 0.116,-0.2335 0.306,-0.4004 0.4125,-0.6557 0.2296,-0.5506 0.2446,-1.035 0.384,-1.5962 0.031,-0.1247 0.127,-0.283 0.1422,-0.392 0.0827,-0.0204 0.2185,-0.0826 0.2916,-0.1354 0.2956,-0.2147 0.7629,-0.3783 0.9316,-0.6984 0.1934,-0.3667 0.0814,-0.8231 0.2987,-1.1259 0.1249,-0.1739 0.4239,-0.3238 0.6116,-0.1354 0.3273,0.3287 0.2838,0.0409 0.4694,-0.2708 -0.2824,-0.0932 -0.2373,-0.9474 -0.1423,-1.1759 0.1199,-0.2886 0.6059,-1.128 0.9601,-0.8907 0.2891,0.1938 0.7004,-0.153 0.8818,-0.335 0.0527,-0.0598 0.1648,-0.2643 0.2276,-0.285 0.0142,-0.0583 0.4276,-0.3498 0.512,-0.5416 0.1203,-0.2731 0.3314,-0.4276 0.6116,-0.4846 0.1324,-0.027 0.2306,-0.369 0.2916,-0.4989 0.0946,-0.2017 0.4361,-0.5832 0.6187,-0.7055 0.3222,-0.216 0.6715,-0.138 1.0241,-0.3777 0.3262,-0.2216 0.8114,-0.8826 1.1734,-0.9335 0.2678,-0.0377 0.5242,0.0542 0.5689,-0.3278 -0.1074,-0.4578 -0.7713,-0.5625 -0.576,-1.1972 0.1354,-0.4404 1.0263,-0.3991 1.401,-0.3991 0.4044,0 0.9041,-0.1336 1.2729,0.0143 0.2003,0.0804 0.3954,0.2414 0.6187,0.228 0.2295,-0.0137 0.3322,-0.2516 0.5334,-0.3136 0.2333,-0.072 0.4839,0.0354 0.6969,-0.1069 0.2764,-0.1845 0.2464,-0.3847 0.6899,-0.2351 0.0496,0.0167 0.3854,0.1306 0.3982,0.0784l0.0213 -0.0072c0.0049,-0.0199 0.0214,-0.0262 0.0214,-0.0498 0.1474,-0.1485 -0.1185,-1.0741 -0.2205,-1.24 -0.2413,-0.392 -1.0907,-0.8618 -1.5432,-0.9549 -0.4978,-0.1023 -1.0038,-0.0657 -1.4863,-0.1639 -0.3556,-0.0723 -0.1465,0.1247 -0.4338,0.1924 -0.3294,0.0777 -0.2853,-0.2152 -0.4765,-0.278 -0.2298,-0.0754 -0.7241,-0.0569 -0.9814,-0.0641 -0.7239,-0.1801 -2.1373,0.0816 -2.8588,0.228l-2.3184 0.4704c-0.2002,0.0406 -1.0653,0.2411 -1.1805,0.3563 -0.0023,0.019 -0.0022,0.0205 -0.0143,0.0356 0,0.2205 -0.2227,0.4339 -0.4195,0.4917 -0.1587,0.0707 -0.6169,0.1391 -0.7183,0.221 -0.373,0 -0.711,0.4068 -1.0027,0.6057 -0.3965,0.2702 -0.813,0.2947 -1.2232,0.4917 -0.7029,0.3375 -1.4959,0.8976 -1.9486,1.5393 -0.317,0.4492 -0.5408,1.169 -0.9032,1.5464 -0.6225,0.4994 -1.4043,1.167 -1.9059,1.7958 -0.6278,0.2865 -1.3553,0.4303 -1.977,0.7411 -0.1613,0.2278 -0.538,0.4299 -0.7325,0.6628 -0.1751,0.2098 -0.4928,0.5881 -0.7325,0.6984 -0.3801,0.1384 -0.5874,0.8797 -1.0454,1.0475 -0.3273,0.1198 -0.7366,0.2488 -1.0027,0.4775 -0.2138,0.1836 -0.25,0.4082 -0.4125,0.6129 -0.2291,0.2888 -0.7067,0.241 -0.9529,0.456 -0.4355,0.055 -0.8392,1.2958 -0.8392,1.6747 -0.0197,0.0295 -0.0383,0.0891 -0.0569,0.1212 -0.2329,0.5823 -0.7899,1.5257 -1.4152,1.7673 -0.2577,0.0996 -1.1141,0.3738 -1.2445,-0.0214 -0.3301,0.0813 -0.5898,0.4049 -0.9956,0.4703 -0.2509,0.0405 -0.9341,0.1181 -0.9885,-0.2708 -0.1697,-0.0277 -0.3729,0.3576 -0.4979,0.4989 -0.1816,0.2055 -0.458,0.3251 -0.5973,0.5273 -0.1137,0.1649 -0.1956,0.4222 -0.3343,0.5559 -0.4181,0.9261 -2.0723,1.7648 -2.9442,2.1949 -0.2717,0.1341 -0.6483,0.23 -0.8462,0.4774 -0.3247,0.1361 -0.9832,0.4822 -1.2517,0.6913 -0.8278,0.1507 -1.6247,0.2957 -2.5032,0.2209 -0.3992,0.1327 -0.6919,0.1636 -1.0952,0.2209 -0.3589,0.0509 -0.6663,0.2944 -0.9956,0.3492 -0.2751,0.2442 -0.8905,0.0552 -1.081,-0.2138 -0.0386,-0.0038 -0.0568,-0.0375 -0.0996,-0.0427 -0.4183,-0.3379 -1.7839,0.0794 -2.2472,0.1639 -0.805,0.147 -1.336,0.5832 -1.977,1.0119l-1.7424 1.86c-0.4581,0.4891 -1.0353,0.7874 -1.4863,1.2399 -0.334,0.3352 -0.5575,0.693 -1.0027,0.9122 -0.1905,0.0937 -0.4908,0.1693 -0.6472,0.3064 -0.0732,0.0133 -0.0943,0.0403 -0.1849,0.0428 -1.4608,0.4869 -3.3073,0.7091 -4.6154,1.5678 -0.1269,0.0832 -0.896,0.5656 -1.0098,0.4062 -0.2724,-0.0344 -0.2917,-0.357 -0.6187,-0.0927 -0.282,0.2278 -0.5479,0.4721 -0.8605,0.6343 -0.1993,0.1982 -0.3464,0.3628 -0.5041,0.4848l0 0z"/>
 </g>
</svg>
