<?xml version="1.0" encoding="UTF-8"?>
<!DOCTYPE svg PUBLIC "-//W3C//DTD SVG 1.1//EN" "http://www.w3.org/Graphics/SVG/1.1/DTD/svg11.dtd">
<!-- Creator: CorelDRAW -->
<svg xmlns="http://www.w3.org/2000/svg" xml:space="preserve" width="210mm" height="297mm" style="shape-rendering:geometricPrecision; text-rendering:geometricPrecision; image-rendering:optimizeQuality; fill-rule:evenodd; clip-rule:evenodd"
viewBox="0 0 210 297"
 xmlns:xlink="http://www.w3.org/1999/xlink">
 <defs>
  <style type="text/css">
   <![CDATA[
    .str2 {stroke:#2F3133;stroke-width:0.1}
    .str1 {stroke:black;stroke-width:0.1;stroke-opacity:0.501961}
    .str0 {stroke:black;stroke-width:0.1}
    .str3 {stroke:black;stroke-width:0.5}
    .fil5 {fill:none}
    .fil0 {fill:white}
    .fil2 {fill:#1F1A17;fill-rule:nonzero}
    .fil3 {fill:#C2C1C1;fill-rule:nonzero}
    .fil4 {fill:white;fill-rule:nonzero}
    .fil6 {fill:black;fill-rule:nonzero}
    .fil1 {fill:white;fill-rule:nonzero;fill-opacity:0.501961}
   ]]>
  </style>
 </defs>
 <g id="Plan_x0020_1">
  <metadata id="CorelCorpID_0Corel-Layer"/>
  <path class="fil0 str0" d="M34.7781 149.65c-0.017,-0.0098 -0.006,0.0189 -0.0397,-0.0142l0 0c0.0337,0.0331 0.0227,0.0044 0.0397,0.0142l0 0 0.0307 56.1452 0 0 116.571 0.0323 0 0c-0.0041,-0.0105 -0.0084,-0.0215 -0.0128,-0.0323 -0.1084,-0.2676 -0.372,-0.4131 -0.4693,-0.6699 -0.1578,-0.4168 -0.1416,-0.6637 -0.0569,-1.0974 0.0426,-0.2185 0.0854,-0.4371 0.128,-0.6557l0 0 -0.825 -2.9788 0 0c-0.3923,-0.568 0.364,-1.6715 0.3983,-2.2804 0.0115,-0.2055 0.0711,-0.3938 0.0711,-0.6128 0,-0.2128 -0.2276,-0.381 -0.2276,-0.6556 0,-0.2474 0.0703,-0.5282 0.0427,-0.7839 -0.0032,-0.0302 -0.0427,-0.0296 -0.0427,-0.0713 0,-0.0095 0,-0.019 0,-0.0285 0,-0.0292 -0.0115,0.0093 -0.0284,-0.0143 -0.027,-0.0374 -0.0167,-0.0712 -0.0569,-0.0712 -0.0095,0 -0.019,0 -0.0284,0 -0.0231,0 -0.0039,0.0006 -0.0285,-0.0143 -0.0197,-0.0118 -0.004,0.0007 -0.0284,-0.0142 -0.0197,-0.0119 -0.0037,0.0003 -0.0285,-0.0143 -0.0192,-0.0114 -0.1917,-0.1146 -0.1991,-0.1283 -0.0319,-0.0592 -0.1533,-0.2197 -0.1991,-0.2993 -0.0342,-0.0593 -0.1659,-0.3607 -0.1849,-0.3848 -0.0231,-0.0294 -0.0096,-0.054 -0.0285,-0.0855 -0.0148,-0.0249 -0.0284,0.0149 -0.0284,-0.0142 0,-0.0095 0,-0.019 0,-0.0286 0,-0.0337 -0.0516,-0.0748 -0.0569,-0.114 -0.0141,-0.1045 -0.0284,-0.209 -0.0427,-0.3135l0 0 -0.201 -0.4541c-0.0035,-0.0059 -0.0079,-0.0111 -0.0123,-0.0163 -0.026,-0.0139 -0.1868,-0.1159 -0.2276,-0.1425 -0.0854,-0.0555 -0.1887,-0.1143 -0.2987,-0.1568 -0.0303,-0.0117 -0.0911,-0.1197 -0.1138,-0.1567 -0.1563,-0.2549 -0.073,-0.6048 -0.2844,-0.8409 -0.1215,-0.1356 -0.2025,-0.2853 -0.3414,-0.4134 -0.1509,-0.1393 -0.3471,-0.2267 -0.512,-0.3563 -0.026,-0.0205 -0.2401,-0.1497 -0.256,-0.1568 -0.0283,-0.0128 -0.0115,-0.0198 -0.0427,-0.0285 -0.1015,-0.0282 -0.2074,-0.153 -0.2987,-0.1995 -0.029,-0.0147 -0.0432,-0.0742 -0.0711,-0.114 -0.0154,-0.0218 -0.0062,-0.0139 -0.0285,-0.0285 -0.0463,-0.0302 -0.0874,-0.0666 -0.1137,-0.0998 -0.0388,-0.0488 -0.1652,-0.2776 -0.1992,-0.3278 -0.066,-0.0976 -1.3533,-1.1123 -1.5361,-1.126 -0.3775,-0.0284 -0.817,-0.0904 -1.1805,-0.2138 -0.261,-0.0885 -0.8224,-0.2788 -0.896,-0.4133 -0.1539,-0.2815 -1.0642,-0.8798 -1.3086,-1.1687 -0.242,-0.2862 -1.0178,-1.4688 -1.2943,-1.6105 -0.1197,-0.0614 -0.9263,-0.2292 -1.0952,-0.3136 -0.5032,-0.2514 -0.8724,-0.7461 -1.3227,-1.0689 -0.3444,-0.247 -0.5031,-0.3436 -0.6685,-0.7412 -0.1053,-0.2529 -0.4757,-0.7216 -0.64,-0.9549 -0.1298,-0.1845 -0.0697,-0.5556 -0.2418,-0.7554 -0.416,-0.4826 -0.6172,-0.9338 -0.5832,-1.5393 0.0202,-0.3595 0.2245,-0.7118 -0.2276,-0.9121 -0.3971,-0.176 -0.3639,-0.5378 -0.5831,-0.8552 -0.1993,-0.2884 -0.8569,-0.7473 -1.1947,-0.8124 -0.1611,-0.0311 -0.4292,-0.0278 -0.569,-0.0997 -0.1527,-0.0784 -0.4168,-0.3251 -0.5405,-0.3564 -0.3744,-0.095 -0.749,-0.19 -1.1236,-0.285l0 0c-0.6293,-0.0791 -1.4505,-0.2315 -1.9486,-0.5986 -0.7631,-0.5625 -2.1007,-1.4415 -2.3183,-2.4087 0,-1.7377 -1.6312,-1.3504 -2.8304,-1.5963 -0.3199,-0.0655 -0.9762,-0.517 -1.2806,-0.4997l0 0c-0.2082,-0.0458 -0.3912,0.1162 -0.6111,0.0579 -0.5296,-0.1404 -0.7927,-0.4962 -1.1094,-0.9122 -0.1414,-0.1856 -0.7035,-0.2218 -0.9387,-0.2708 -0.5198,-0.1083 -0.2338,-0.8754 -0.5974,-1.24 -0.3801,-0.381 -1.0409,-0.5977 -1.1663,-1.2399 -0.0094,-0.0482 -0.0784,-0.0376 -0.0996,-0.0855 -0.0908,-0.2058 -0.6757,-0.6779 -0.8818,-0.7839 -0.2274,-0.1168 -1.0903,-0.4374 -1.1379,-0.4704 -0.0657,-0.0454 -0.2153,-0.1973 -0.2986,-0.2708 -0.0846,-0.0748 -0.1638,-0.1837 -0.2561,-0.2565 -0.0256,-0.1459 0.0249,-0.6856 0.1849,-0.7554 0.0335,-0.0146 0.0866,-0.0939 0.0996,-0.1283 0.091,-0.2393 0.2987,-0.3149 0.2987,-0.6699 0,-0.3941 0.1344,-0.571 0.2845,-0.8266 0.0596,-0.1014 0.0284,-0.6745 0.0284,-0.7839 0,-0.2753 0.0697,-0.5531 0.0427,-0.8266 -0.0029,-0.0294 -0.0493,-0.0331 -0.0569,-0.0713 -0.1057,-0.5247 -0.3017,-0.5187 0.128,-0.9122 0.1313,-0.1203 0.2475,-1.3417 0.1564,-1.525 -0.3115,-0.6268 -0.4097,-1.1624 -0.384,-1.9098 0.0301,-0.8733 -1.3358,-0.9701 -0.3129,-1.9954 0.3743,-0.3753 0.9672,-0.7319 0.9672,-1.3112 0,-0.4541 -0.0939,-1.0166 -0.1991,-1.4396 -0.0789,-0.3169 -0.2845,-0.5845 -0.2845,-0.9406 0,-0.2208 0.1163,-0.4709 0.1707,-0.6841 0.0791,-0.3104 -0.2882,-1.7619 0.1706,-2.2092 0.1754,-0.1709 0.3508,-0.3421 0.5263,-0.5131 0.2875,-0.2803 0.5038,-0.7536 0.5974,-1.0404 0.1702,-0.521 0.4613,-1.3262 0.8818,-1.7246 0.3323,-0.315 0.1507,-0.8484 0.128,-1.3397 -0.0094,-0.2043 -0.0191,-0.4086 -0.0284,-0.6129 -0.013,-0.2836 -0.1546,-0.3135 -0.2276,-0.3135 -0.0332,0 -0.0664,0 -0.0996,0 -0.0155,0 -0.3527,-0.1466 -0.384,-0.1711 -0.0209,-0.0165 -0.0203,-0.0031 -0.0284,-0.0285 -0.1095,-0.3448 -0.3683,-0.8924 -0.6116,-1.1687 -0.1737,-0.1971 -0.2479,-1.0622 -0.3272,-1.126 -0.0428,-0.0345 -0.0417,-0.0674 -0.0711,-0.0997 -0.0199,-0.022 -0.1024,-0.0806 -0.128,-0.0998 -0.042,-0.0313 -0.0633,-0.0382 -0.0995,-0.0712 -0.0309,-0.028 -0.1447,-0.1972 -0.1849,-0.2281 -0.0259,-0.0199 -0.016,-0.063 -0.0427,-0.0855 -0.0352,-0.0298 -0.0469,-0.0251 -0.0711,-0.057 -0.0386,-0.051 -0.1887,-0.1479 -0.2418,-0.171 -0.0284,-0.0124 -0.0592,-0.0077 -0.0854,-0.0286 -0.0301,-0.0242 -0.1958,0.0143 -0.2275,0.0143 -0.0095,0 -0.019,0 -0.0285,0 -0.0292,0 0.0148,0.0285 -0.0142,0.0285 -0.0095,0 -0.019,0 -0.0284,0 -0.0408,0 -0.0518,0.0866 -0.0996,0.0998 -0.1554,0.0432 -0.3973,0.1704 -0.5974,0.1853 -0.1206,0.009 -0.439,-0.2434 -0.5262,-0.1996 -0.0305,0.0154 -0.0595,-0.0372 -0.0854,-0.0142 -0.0685,0.0611 -0.617,-0.0258 -0.6685,-0.0998 -0.028,-0.0401 -0.0703,-0.0491 -0.0995,-0.0713 -0.0184,-0.0141 -0.0707,-0.1007 -0.0711,-0.114 -0.0125,-0.3675 0.1847,-0.9602 0.0142,-1.2685 -0.1904,-0.344 -0.4023,-1.2682 -0.0854,-1.5392 0.0763,-0.0653 0.1863,-0.6614 0.2134,-0.7982 0.0612,-0.3089 0.1018,-1.3397 0.5689,-1.3397 0.6484,0 1.1336,-0.364 1.4081,-0.9835 0.1059,-0.2389 0.1385,-0.6857 0.2702,-0.8694 0.173,-0.2415 0.4792,-0.3751 0.4552,-0.6841 -0.002,-0.026 -0.0352,-0.0177 -0.0427,-0.0427 -0.0479,-0.159 -0.2199,-0.723 0,-0.8837 0.0511,-0.0374 0.4007,-0.2075 0.4836,-0.5416 0.1372,-0.5535 0.2731,-0.8765 0.7254,-1.2257 0.1805,-0.1394 0.9146,-0.8753 0.9814,-0.9122 0.07,-0.0386 0.1752,-0.0725 0.2702,-0.114 0.3365,-0.1472 0.6732,-0.2946 1.0099,-0.4418 0.2534,-0.1109 0.9272,-0.292 1.1094,-0.4989 0.3003,-0.3408 0.2433,-1.0649 0.7111,-0.8551 0.2041,0.0916 0.9325,0.4204 1.081,0.1567 0.3685,-0.6544 0.2163,-1.7318 1.2232,-1.3682 0.2671,0.0965 0.4265,0.3169 0.7396,0.2993 0.4602,-0.026 0.6005,-0.5725 0.9103,-0.8267 0.1677,-0.1377 0.2855,-0.1625 0.3855,-0.2681 0.0628,-0.3446 0.1089,-0.67 0.1976,-0.8436 0.3055,-0.5983 0.4623,-0.5205 0.0711,-1.2257 -0.2173,-0.3919 0.4559,-0.4129 0.646,-0.4642l-0.0059 -17.2517c-0.0039,-0.0446 -0.0066,-0.0766 -0.0057,-0.1171l0 0c0.2635,0.0253 0.5611,0.0545 0.5888,0.1028 0.0157,0.0273 0.0484,-0.011 0.0569,0.0143 0.0905,0.2692 0.6029,0.2958 0.6827,0.2565 0.1446,-0.0712 0.2892,-0.1426 0.4338,-0.2138l0 0c-0.0995,-0.4037 0.0804,-0.9735 0.0142,-1.4252 -0.1077,-0.7353 0.5274,-0.669 1.0668,-0.6343 0.0651,-0.1044 0.2203,-0.236 0.0995,-0.3705 -0.0712,-0.0794 -0.1404,-0.2327 0.0143,-0.2708 0.0507,-0.2071 0.5831,-0.1703 0.5831,-0.6557l0.0071 -0.0071c0.0143,0 0.0106,0.0038 0.0142,-0.0071 0.2343,0 0.2651,0.4187 0.5619,0.3207 0,-0.2823 -0.2537,-0.5254 -0.128,-0.7768l0.0142 0c0.0067,-0.0272 0.0529,-0.0356 0.0782,-0.0356 0,0.0143 -0.0038,0.0106 0.0071,0.0142 0,0.4679 1.0617,1.7621 1.4294,2.088 0.1311,0.1163 0.5895,0.2714 0.2418,0.0214 -0.2956,-0.2124 -0.489,-0.4353 -0.7111,-0.734 -0.3286,-0.4417 -0.5747,-0.8518 -0.825,-1.3112 -0.2263,-0.4151 -0.0215,-0.489 0.3414,-0.6699 0.1879,-0.0937 0.3998,-0.3618 0.4978,-0.5416 0.099,-0.1818 0.3106,-0.1904 0.4836,-0.3064 0.1963,-0.1315 0.1279,-0.3613 0.3911,-0.4704l0.6187 -0.2565c0.4757,-0.4757 1.8959,-1.1989 2.0339,-1.7531l0.0285 0c0.0525,-0.2101 0.5137,-0.2993 0.7254,-0.2993 0.0372,-0.1117 0.6275,-0.9798 0.7965,-0.4703 0.1176,0 0.6836,-0.3873 0.7111,-0.4704 0.2701,0 0.2703,-0.2066 0.2703,-0.4418l0.2702 -0.3135c0.0597,-0.0692 0.2974,-0.2373 0.3129,-0.2993 0.2944,-0.0588 0.8992,-0.9237 1.1663,-1.1403 0.0771,-0.0624 0.3749,0.0422 0.3983,-0.0285l0.0284 0c0.0173,-0.0694 0.0569,-0.0631 0.0569,-0.1567 0,-0.035 -0.0111,-0.1342 0.0142,-0.1426 0,-0.1178 0.1432,-0.057 0.2134,-0.057 0.0068,0.0204 0.1256,0.1355 0.1422,0.0855 0.0976,0 0.1707,-0.3975 0.1707,-0.4703 0.0648,0 0.3272,0.0711 0.3413,0.0285l0.0285 0c0,-0.0529 -0.0012,-0.1857 -0.0427,-0.1995 0,-0.5948 0.8617,-0.7465 0.9245,-0.9977 0.0367,0 0.7681,-0.9417 1.1948,-1.0832 0,-0.1958 0.4814,-0.1101 0.5831,-0.2565 0.1267,-0.1826 0.2617,-0.6115 0.4978,-0.6272l0.4267 -0.0285c0.1138,0 0.1902,-0.0892 0.2774,-0.171 0.0858,-0.1849 0.4503,-0.5829 0.6116,-0.6984 0.0826,-0.3304 0.5787,-0.7356 0.7751,-1.0119 0.6621,-0.1655 1.0747,-0.9527 1.4579,-1.4395 0.3242,-0.4117 0.8216,-1.2079 1.3085,-1.3041l0.0071 -0.0143c0.025,-0.0143 0.1874,-0.4228 0.192,-0.4561 0.3555,-0.2836 0.3544,0.1257 0.5903,-0.4062 0.1196,-0.3588 0.3004,-0.554 0.5831,-0.7696 0.2494,-0.1903 0.1698,-0.6567 0.6045,-0.7198l0.7752 -1.3753c0.1851,-0.0268 0.3706,-0.4435 0.5405,-0.4917 0.0132,-0.0675 0.1148,-0.3261 0.1849,-0.3492 0.0031,-0.0129 0.0111,-0.0156 0.0142,-0.0285 0.1206,-0.0305 0.2575,-0.2106 0.3982,-0.2637 0.1854,-0.0701 0.3303,-0.3106 0.4623,-0.3635l0.0071 -0.0071c0.0109,-0.0332 0.2411,-0.2056 0.2845,-0.228 0.2263,-0.4256 0.4824,-0.5801 0.8818,-0.8124 0.4434,-0.258 0.8168,-0.6998 1.1947,-1.0476l2.1833 -2.0096c0.2917,-0.2685 0.9341,-0.5372 1.1521,-0.7981 0.0601,-0.0087 0.1702,-0.1025 0.2204,-0.1354 0.3822,-0.2187 0.6205,-0.6779 1.0028,-0.8908 0.3592,-0.1999 0.6235,-0.5718 1.0098,-0.791 0.7536,-0.4275 1.5799,-0.6977 2.3113,-1.183 0.3136,-0.208 0.73,-0.5701 1.1094,-0.5701 0.003,-0.0124 0.1113,-0.0699 0.1138,-0.0713l0.5547 -0.3349c0.0681,-0.3464 0.4585,-0.366 0.7325,-0.4418 0.4342,-0.12 0.7598,-0.3767 1.2089,-0.449 0.3536,-0.057 0.2885,-0.2742 0.4907,-0.3278l2.8162 -0.7483c0.1676,-0.0975 0.4836,-0.266 0.6685,-0.2921 0.062,-0.0876 0.8333,-0.4011 0.9672,-0.4347 0.2589,-0.0649 0.737,-0.0357 1.0098,-0.0357 0.4155,-0.4155 0.4142,-0.4612 1.0383,-0.5344 0.4447,-0.0522 0.8424,-0.1532 1.2659,-0.2851 0.2498,-0.0777 0.2512,-0.3132 0.6187,-0.2423 0.1322,-0.1032 0.5195,-0.2138 0.6898,-0.2138 0.341,-0.2735 0.9094,-0.2195 1.2445,-0.5558 0.2902,-0.2914 0.7308,-0.2558 0.9814,-0.5915 0,-0.4638 0.4522,-0.5487 0.8818,-0.5487 0.0164,-0.0125 0.0432,-0.0214 0.064,-0.0214 0.2729,-0.2023 0.48,-0.2227 0.8036,-0.3136 0.3315,-0.0932 0.651,-0.2954 0.9957,-0.3705 0.467,-0.274 0.8276,-0.4855 1.2374,-0.8338 0.3029,-0.2573 0.5805,-0.6184 0.9174,-0.8338 0.1955,-0.1249 0.5441,-0.1693 0.3627,-0.4917 -0.218,-0.3876 0.4376,-0.4657 0.6969,-0.3991 0.1603,0.0412 0.2565,0.3064 0.384,0.3064 0.0022,-0.0091 0.0049,-0.0122 0.0071,-0.0213 0.049,-0.0124 -0.085,-0.433 -0.128,-0.563 -0.0737,-0.2232 0.0459,-0.2788 0.2134,-0.3991 0.4789,-0.3443 0.4923,-0.3915 0.576,0.2067 0.2819,0.0694 0.6233,-0.0314 0.8463,-0.2281 0.2357,-0.189 1.4863,-0.2856 1.4863,-0.5772 -0.1675,0 -0.8785,0.1888 -1.2322,0.1276l0 0c-0.3915,0.2126 -1.0079,-0.136 -1.3208,-0.2915 -0.4613,-0.2292 -0.7392,0.4609 -1.2517,0.1425 -0.274,-0.1703 -0.4322,-0.0459 -0.7183,-0.0855 -0.3619,-0.05 -0.5312,-0.3601 -0.9245,-0.4204 -0.478,-0.0734 -0.8069,0.1995 -1.2872,0.1995 -0.1565,0.1565 -0.6448,0.5704 -0.8462,0.5915 -0.6531,0.5066 -1.2766,0.3378 -1.8917,-0.1212 -0.1563,-0.1167 -0.3995,-0.0763 -0.5903,-0.1211 -0.2909,-0.0684 -0.3128,-0.5153 -0.5333,-0.5559 -0.4561,-0.0839 -0.3004,-0.5127 -0.3201,-0.8622 -0.0093,-0.1649 -0.6939,-1.0701 -0.832,-1.1046 -0.0339,-0.0546 -0.8371,-0.5909 -0.9174,-0.6057 -0.4379,-0.0807 -0.938,0.0182 -1.3441,-0.1925 -0.6971,-0.1742 -1.3915,-0.086 -2.0908,0.0072 -0.5829,0.0777 -1.29,0.2868 -1.8774,0.1924 -0.2992,-0.0481 -0.7673,-0.0154 -1.017,0.1781 -0.4939,0.0384 -0.4856,0.0601 -0.9672,-0.1069 -0.3847,-0.1335 -0.6435,-0.0176 -0.9885,-0.0712 -0.3614,0 -0.4128,-0.1362 -0.8391,-0.0357l-0.8463 0.1996c-0.3011,0.071 -0.9335,-0.2039 -1.2588,-0.2494 -0.0348,-0.2486 0.2036,-0.5986 -0.1209,-0.5986 -0.2081,0 -0.7141,0.1941 -0.9245,0.2779 -0.8578,0.3415 -1.7652,0.4845 -2.6739,0.6627 -0.55,0.1078 -0.4259,-0.3607 -0.6685,-0.7696 -0.1103,-0.1268 -0.4451,-0.4202 -0.5049,-0.5559 -0.0647,-0.1471 0.1862,-0.5629 0.2346,-0.7268 0.2115,-0.7163 -0.4092,-0.2565 -0.5191,-0.8124 -0.4078,-0.3295 -0.6543,0.1524 -0.6543,-0.6129 0,-0.4794 -0.2599,-0.7708 -0.2844,-1.2043 -0.0145,-0.2556 0.0187,-0.6242 -0.32,-0.6414 -0.4489,-0.0227 -1.0484,0.1907 -1.4508,0.3919 -0.6155,0.3077 -1.2928,0.7518 -1.6854,1.3326 -0.2363,0.0895 -0.3359,0.2799 -0.6259,0.3279 -0.1597,0.0265 -0.3098,0.0356 -0.4764,0.0356 -0.3051,0 -0.5203,0.0857 -0.7539,0.2922 -0.5032,0.4446 -1.0924,0.8388 -1.529,1.3468 -0.2285,0.266 -0.6837,0.4363 -0.9529,0.7055 -0.0666,0.5429 -0.7184,0.9358 -1.1236,1.2115l-0.4409 0.0713c-0.4082,0 -0.8868,0.2382 -1.3157,0.2708l-1.1236 0.0855c-0.5663,0.0431 -1.0225,0.8585 -1.4223,0.4062 -0.1264,-0.1431 -0.3471,-0.6556 -0.5618,-0.6129 -0.4788,0.0952 -1.0747,0.26 -1.5361,0.4276 -0.2067,0.075 -0.6583,0.3563 -0.8534,0.3563 -0.0095,-0.0071 -0.0119,-0.0071 -0.0214,-0.0142 -0.0516,-0.2108 -0.0763,-0.9374 0.0356,-1.1117 0.0542,-0.6635 0.4339,-0.993 -0.4907,-0.7768 -0.7136,0.1669 -0.8127,0.4537 -1.2161,-0.2566 -0.3241,-0.064 -0.1815,0.4957 -0.6258,0.1141 -0.222,-0.1908 -0.5704,0.0248 -0.4978,-0.449 0.1093,-0.7136 0.0238,-1.2421 -0.4694,-1.7744 -0.1991,-0.215 -0.2426,-0.7977 -0.4551,-0.8409 -0.2154,-0.0439 -0.526,0.1149 -0.7396,0.1567 -0.8031,0.1575 -1.0204,-0.2921 -1.7779,-0.2921 -0.2776,0 -0.6244,0.0197 -0.7112,-0.335 -0.0258,-0.0085 -0.0506,-0.0846 -0.0569,-0.0997 -0.3793,-0.5716 -0.9013,-0.3946 -1.4507,-0.2851 -0.3205,0.0639 -0.8656,-0.533 -1.1094,-0.7768 -0.2663,-0.2663 -0.3201,-0.758 -0.3201,-1.1188 0,-0.2383 0.1374,-1.2699 -0.0213,-1.3967 -0.1526,-0.1221 -0.4058,-0.0877 -0.5618,-0.2637 -0.0975,-0.1099 -0.2928,-0.4404 -0.3129,-0.5844 -0.1378,-0.0984 -0.2729,-0.3029 -0.3983,-0.4275 -0.2037,0 -0.4756,0.1904 -0.7609,0.2066 -0.3306,0.0187 -0.6128,0.0892 -0.8392,-0.1995 -0.2611,-0.1008 -0.42,-0.4116 -0.6969,-0.1497 -0.2245,0.2125 -0.5233,0.4529 -0.7965,0.5844 -0.4058,0.1952 -0.9155,-0.3878 -1.4792,-0.2138 -0.3145,0.097 -0.3607,0.5595 -0.4978,0.8195 -0.204,0.3872 -0.202,0.9386 0.0498,1.3041 0.2771,0.402 0.3448,1.1934 0.896,1.3754l0 0.0143c-0.5779,0.1908 -1.7864,0.9431 -2.4037,0.791 -0.1566,-0.6356 -0.5085,-1.539 -0.9316,-2.0595 -0.3651,-0.4883 -0.6573,-0.9208 -0.9672,-1.4467 -0.2816,-0.4781 -0.5485,-0.8793 -0.4622,-1.468 0.0312,-0.2134 0.109,-0.7298 0.2133,-0.905l-0.0071 -0.1853c-0.0591,-0.0993 -0.0462,-0.2828 -0.1635,-0.3563l-0.0143 -0.0285c-0.0639,-0.0366 -0.1137,-0.1081 -0.1635,-0.1639 -0.1914,-0.1431 -0.2299,-0.4533 -0.441,-0.5915 -0.21,-0.1374 -0.3854,-0.1725 -0.6116,-0.2565 -0.4072,-0.1514 -1.2169,0.2189 -1.6498,0.285 -1.1201,0.1712 -2.3326,0.3387 -2.3326,-1.2186 0,-0.8353 0.9083,-0.6456 1.5503,-0.7269 0.2474,-0.2484 -0.1484,-1.5721 -0.3911,-1.6319 -0.2547,-0.3543 -1.6132,0.4188 -1.9486,0.1497l-0.0213 0c-0.0151,-0.0151 -0.0145,-0.0185 -0.0356,-0.0214 -0.0231,-0.0407 -0.0848,-0.098 -0.1138,-0.1283l-0.4836 -0.1853 -0.1635 -0.057 -3.2003 -1.4751c-0.3568,-0.1106 -0.6261,-0.6026 -0.8462,-0.8837 -0.2843,-0.3633 -0.8216,-0.1385 -1.1948,-0.0142 -0.8161,0.272 -1.9545,0.189 -2.8019,0.057 -0.4652,-0.0724 -0.9497,0.1274 -1.2446,-0.3421 -0.0679,-0.0272 -0.1506,-0.1323 -0.2133,-0.1782 -0.5336,-0.1772 -0.5698,-0.2931 -1.1165,-0.1282l-1.465 0.4418c-0.1571,0.0474 -0.4451,0.5338 -0.5226,0.573 -0.0866,0.0489 -0.1732,0.0979 -0.2597,0.1468 -0.1698,0.0961 -0.2695,0.1905 -0.4693,0.1425 -0.0262,-0.0062 -0.1661,-0.0645 -0.1849,-0.0998 -0.0684,-0.1278 -0.3934,0.0159 -0.4552,0.0713 -0.2174,0.1953 -0.2755,0.3759 -0.5689,0.4846 -0.1051,0.039 -0.2313,0.0157 -0.3271,0.0855 -0.3079,0.2241 0.0275,1.1256 -0.1707,1.4537 -0.11,0.182 -0.359,0.235 -0.6116,0.2708 -0.1574,0.0222 -0.4255,0.1077 -0.5689,0.1711 -0.3361,0.1485 -0.8644,0.2223 -1.2232,0.1995 -0.1962,-0.0125 -0.4915,-0.1348 -0.6543,0.0285 -0.0335,0.0335 -0.2631,0.2577 -0.3271,0.1568 -0.0182,-0.0288 -0.2084,-0.1631 -0.2276,-0.1853 -0.0152,-0.0174 -0.0396,-0.0257 -0.0569,-0.0285 -0.0969,-0.0155 -0.2728,0.4481 -0.4125,0.4703 -0.5224,0.0831 -3.4055,0.2501 -3.5557,-0.2565 -0.0075,-0.0254 -0.0362,-0.0118 -0.0569,-0.0285 -0.0145,-0.0118 0.0025,-0.0345 -0.0143,-0.0428 -0.0095,-0.0047 -0.019,-0.0096 -0.0284,-0.0142 -0.9413,-0.4706 0.2814,-1.765 -0.0996,-2.8933 -0.43,-1.2731 -2.2183,-0.4 -3.1717,-0.8551 -0.7054,-0.3366 -1.9229,-0.0709 -2.7309,-0.1141 -0.8001,-0.0428 -2.7287,-0.0629 -3.4135,-0.399 -0.4862,-0.2387 -0.0045,-1.1327 -0.6543,-1.5821 -0.6609,-0.4572 -1.1392,-0.1425 -1.9059,-0.1425 -0.3935,0 -0.6351,-0.2993 -1.0525,-0.2993 -0.5795,0 -0.6772,0.7126 -1.1663,0.7126 -0.2266,0 -1.742,-0.3152 -1.9059,-0.4418 -0.1983,-0.153 -0.5222,-0.3935 -0.8107,-0.3136 -0.5564,0.1541 -0.5815,-0.5686 -0.9387,-0.7268 -0.1266,-0.0561 -0.4831,-0.1627 -0.569,-0.2566 -0.2317,-0.2535 -0.9302,-0.6562 -0.9814,-1.0262 -0.0948,-0.684 -0.1896,-1.3682 -0.2844,-2.0523 0.053,-0.3256 0.5575,-1.5032 0.2418,-1.5821 -0.0426,-0.2131 -0.2276,-0.4371 -0.2845,-0.6984 -0.0205,-0.314 -0.1219,-0.6374 -0.1565,-0.9549 -0.0295,-0.27 -0.0609,-0.5866 -0.1849,-0.8338 -0.0217,-0.2641 -0.2352,-0.5896 -0.3129,-0.8551 -0.0739,-0.2521 -0.185,-0.5954 -0.2062,-0.8552 -0.0112,-0.0224 -0.012,-0.0246 -0.0142,-0.0499 -0.0335,-0.067 -0.0663,-0.1341 -0.0783,-0.2066 -0.0401,-0.0692 -0.0458,-0.1522 -0.0995,-0.2138 -0.097,-0.268 -0.2666,-0.7088 -0.192,-0.9906 -0.1355,-0.5447 -0.3848,-1.0429 -0.4338,-1.6105 -0.0205,-0.2372 -0.2469,-1.1051 -0.4338,-1.24 -0.2556,-0.7056 -0.5293,-1.1443 -0.4623,-1.9098 0.0629,-0.8327 0.0285,-1.3514 -0.1707,-2.1664 -0.169,-0.6911 -0.2741,-1.1688 -0.0782,-1.8528 0.1269,-0.4428 -0.12,-0.5299 -0.5191,-0.5488 -0.1859,-0.0088 -0.4087,-0.0926 -0.5619,-0.0926 -0.03,-0.03 -0.0107,-0.0116 -0.0853,-0.0356 -0.2539,-0.0931 -0.7883,-0.7329 -1.0027,-0.9478 -0.3606,-0.3617 -0.8233,-0.3686 -1.3086,-0.3065 -0.8466,0.1085 -2.2239,0.3008 -3.0153,-0.0926 -0.125,-0.0622 -0.4024,-0.3419 -0.5049,-0.3563 -0.0655,-0.1153 -0.1773,-0.1922 -0.2702,-0.2851 -0.0237,-0.0033 -0.0286,-0.0086 -0.0427,-0.0285 -0.0133,-0.0032 -0.0183,-0.0112 -0.0284,-0.0214 -0.0881,-0.0173 -0.1505,-0.0519 -0.2585,-0.0692l-0.0223 13.203 -45.7319 -0.0019 0 0c-0.0104,0.0223 -0.0251,0.0492 -0.0348,0.0731 -0.0638,0.1558 -0.2036,1.5437 -0.1137,1.6533 0.0415,0.0505 -0.0035,0.1175 0.0284,0.1711 0.0248,0.0419 0.1567,0.2281 0.2134,0.3135 0.1139,0.1712 0.2603,0.3115 0.1991,0.5559 -0.094,0.3759 -0.1075,0.2131 0.0426,0.3706 0.0883,0.0928 0.272,0.1136 0.3841,0.1567 0.0177,0.0067 0.0711,0.0499 0.0711,0.0713 0,0.0095 0,0.019 0,0.0285 0,0.023 -0.0089,0.0116 0.0142,0.0285 0.0618,0.045 -0.0599,0.5439 -0.0142,0.6414 0.0113,0.0243 0.0091,0.01 0.0284,0.0285 0.0239,0.023 0.0712,0.0322 0.0712,0.0712 0,0.0143 0,0.0286 0,0.0428 0,0.0253 0.038,0.0549 0.0142,0.0713 -0.0714,0.0489 -0.0897,0.2599 0.0284,0.3278 0.0449,0.0259 0.0419,0.103 0.0996,0.1567 0.1014,0.0946 -0.1163,0.2965 -0.0996,0.3706 0.004,0.0182 0.031,-0.0001 0.0427,0.0143 0.0234,0.0285 0.1522,0.0909 0.1707,0.1282 0.0658,0.1329 0.1024,0.1398 0,0.2423 -0.0047,0.0047 -0.0096,0.0096 -0.0143,0.0143 -0.3486,0.3485 0.0073,0.757 0.0854,0.9264 0.136,0.2948 0.2234,0.57 0.2987,0.8124 0.0275,0.0885 0.0294,0.8165 0.0853,0.9549 0.0096,0.0237 0.3169,0.2136 0.3414,0.2281 0.0828,0.0489 -0.0528,0.3459 -0.0285,0.4418 0.0071,0.028 0.0191,-0.0134 0.0285,0.0142 0.0883,0.2592 0.2465,1.0025 0.4409,1.1973 0.1665,0.167 0.3877,0.203 0.5547,0.3705 0.0887,0.0889 -0.1347,0.4958 -0.1565,0.6842 -0.0254,0.2203 -0.0927,0.5503 -0.2702,0.7268 -0.1756,0.1748 0.1747,0.5266 -0.1565,0.4419 -0.3995,-0.1023 -0.1447,0.2794 -0.1706,0.4418 -0.0044,0.0278 -0.0167,0.0318 -0.0427,0.0428 -0.1017,0.0434 -0.1966,0.0634 -0.256,0.114 -0.0292,0.025 0.0094,0.0617 -0.0143,0.0855 -0.0047,0.0047 -0.0095,0.0095 -0.0142,0.0142 -0.0476,0.0475 -0.1003,0.009 -0.1422,0.0428 -0.0292,0.0237 -0.0368,0.0635 -0.0142,0.0998 0.0173,0.0276 0.0344,0.0019 0.0711,0.0142 0.0146,0.0048 0.0781,0.0205 0.0853,0.0428 0.091,0.2823 -0.4092,0.2382 -0.1564,0.6128 0.1416,0.21 -0.2971,0.597 -0.3556,0.6557 -0.33,0.3305 0.6045,0.1585 0.4978,0.4275 -0.0591,0.1489 -0.6594,0.2128 -0.64,0.3849 0.0167,0.1487 0.3782,0.2444 0.4551,0.3278 0.0365,0.0395 0.0641,0.0139 0.0853,0.057 0.1189,0.2405 0.3543,0.3808 0.1992,0.7126 -0.0434,0.0928 -0.2434,0.0931 -0.2987,0.171 -0.0449,0.0634 0.004,0.1325 0.0569,0.1568 0.3802,0.1746 -0.165,0.5261 -0.1992,0.6699 -0.1467,0.6153 0.3564,0.1367 0.5547,0.3135 0.1782,0.1587 -0.057,0.1813 -0.0711,0.3564 -0.0012,0.0153 -0.2086,0.6447 -0.128,0.6413 0.109,-0.0047 0.2182,-0.0095 0.3272,-0.0142 0.4953,-0.0215 -0.4761,0.3014 -0.441,0.6128 0.0064,0.0572 0.387,0.0366 0.4552,0.1141 0.1538,0.1745 -0.384,0.0562 -0.384,0.1282 0,0.0095 0,0.019 0,0.0285 0,0.0231 -0.028,0.0032 -0.0143,0.0285 0.0094,0.0176 0.0079,0.0297 0.0285,0.0428 0.0454,0.0287 0.0999,0.0411 0.1138,0.0855 0.2008,0.642 -0.6978,0.3595 -0.5121,0.7696 0.0977,0.2156 0.5466,0.1508 0.3983,0.4134 -0.0544,0.0965 -0.1002,0.372 -0.1138,0.4703 -0.0715,0.5176 0.5168,0.4642 0.4694,0.8837 -0.0125,0.1112 -0.2548,0.2178 -0.2703,0.3563 -0.0094,0.084 0.1951,0.0224 0.256,0.0285 0.1211,0.0121 0.1249,0.1089 0.1565,0.1853 0.0098,0.0236 -0.007,0.0514 -0.0285,0.057 -0.1673,0.0435 -0.5032,0.4553 -0.3698,0.5558 0.2146,0.1618 0.4964,0.5075 0.2845,0.5986 -1.049,0.4514 0.6998,0.8838 -0.384,1.3113 -0.0629,0.0248 0.0203,0.106 0.0711,0.1568 0.0048,0.0047 0.0095,0.0096 0.0142,0.0142 0.0596,0.0596 -0.0458,0.1598 -0.0995,0.2566 -0.0749,0.1352 0.499,0.031 0.384,0.2423 -0.0698,0.1281 -0.4426,0.0843 -0.3414,0.2707 0.016,0.0294 0.1135,0.0888 0.1423,0.0998 0.1974,0.0754 -0.1455,0.38 -0.1707,0.4418 -0.0956,0.2347 -0.0678,0.5736 -0.0854,0.8267 -0.0271,0.39 0.0308,0.2653 0.4694,0.4846 0.2584,0.1293 -0.4062,0.3077 -0.4551,0.5558 -0.0109,0.0551 0.0253,0.109 0.0711,0.1141 0.0596,0.0066 0.1594,-0.0109 0.1849,0.0427 0.1154,0.2416 -0.0142,0.1607 -0.0142,0.4418 0,0.3013 0.3265,0.5543 0.4124,0.8837 0.0683,0.2617 0.3887,0.733 0.4836,0.9834 0.239,0.6299 0.2771,0.9649 0.3556,1.6676 0.0468,0.4189 0.1849,0.7898 0.1849,1.2257 0,0.8187 0.6944,1.3782 0.9245,2.1807 0.0847,0.2954 -0.0839,0.6396 0,0.8979 0.0688,0.2121 0.4245,0.6331 0.4836,0.8409 0.083,0.2921 0.1383,0.7744 0.2418,1.0974 0.1568,0.4888 0.5401,-0.0329 0.2702,0.4703 -0.0712,0.1329 -0.2933,0.3668 -0.2276,0.4989 0.0745,0.1501 0.3562,0.1265 0.4836,0.2708 0.0308,0.0348 -0.0948,0.5071 0.0143,0.5701 0.2112,0.1218 0.4464,0.3689 0.4978,0.5701 0.1248,0.4884 0.6886,1.0374 0.3698,1.5535 -0.0712,0.1154 0.2605,0.958 0.384,1.0405 0.3651,0.2437 0.4807,0.4146 0.4551,0.8694 -0.0254,0.4521 0.0875,0.9544 0.2987,1.354 0.3283,0.6213 0.2264,0.9251 0.2703,1.6105 0.0123,0.1916 0.3786,0.7304 0.2986,0.8552 -0.0976,0.152 -0.7662,0.6372 -0.2417,0.7981 0.3679,0.1129 0.2587,0.3886 0.1564,0.6699 -0.0871,0.2393 -0.2607,0.3998 -0.1138,0.6698 0.3858,0.7091 -0.7322,1.6247 -0.128,2.0382 0.6641,0.4546 0.3807,1.4638 0.2845,1.9668 -0.0733,0.3831 0.1512,0.9145 0.3413,1.2257 0.2222,0.364 -0.0364,0.6521 -0.0569,1.069 -0.0193,0.3915 0.0865,0.5052 0.0569,0.8694 -0.0164,0.2025 0.0809,0.3425 0.128,0.5131 0.0499,0.1809 -0.1549,1.5703 -0.0426,1.7103 0.1473,0.1837 0.2232,0.2354 0.1564,0.5844 -0.1044,0.546 -0.1868,0.7524 -0.0569,1.3397 0.0383,0.1735 -0.0287,0.4015 0.0143,0.5701 0.0876,0.3439 0.275,0.4743 0.1706,0.8837 -0.1378,0.54 0.0711,0.8864 0.0711,1.3967 0,0.3052 0.0281,0.2998 -0.0853,0.5559 -0.0417,0.0942 -0.3257,0.5396 -0.1564,0.6556 0.0892,0.0612 0.2844,0.0738 0.2844,0.2993 0,0.2791 0.1048,0.4717 0.0854,0.7126 -0.0352,0.4381 0.2755,0.4288 0.3698,0.7982 0.0533,0.2085 0.0113,0.8694 0.1849,0.8694 0.019,0 0.038,0 0.0569,0 0.3999,0 0.7211,-0.5956 0.8391,-0.0143 0.0568,0.2798 -0.2801,0.6883 -0.3982,0.9407 -0.1549,0.3307 -0.2706,1.1518 -0.1992,1.525 0.0784,0.4102 -0.289,0.7919 -0.4266,1.1545 -0.3405,0.8974 0.3305,1.2775 0.2702,2.0951 -0.0473,0.6414 -0.0949,1.2828 -0.1422,1.9241 -0.0285,0.3874 -0.2474,0.8337 -0.1849,1.1972 0.1336,0.7758 0.3973,1.3752 0.7822,2.0381 0.2888,0.4972 0.1245,0.7827 0.2703,1.2543 0.2046,0.6621 0.0534,1.6329 0.4124,2.1949 0.1712,0.2682 0.3934,0.0242 0.3556,0.5273 -0.0144,0.1923 -0.0296,0.5882 0.0711,0.7981 0.3824,0.7971 1.0246,1.4995 1.2375,2.4372 0.0802,0.3531 0.1743,0.2608 0.4835,0.3564 0.1155,0.0357 0.3698,0.0418 0.3698,0.2137 0,0.0748 -0.0204,0.2402 0,0.3136 0.0855,0.3074 0.3446,0.5411 0.3841,0.8837 0.005,0.0433 -0.0343,0.4965 -0.0569,0.5558 -0.0491,0.1282 -0.0014,0.5014 0.0284,0.6271 0.0183,0.077 0.0563,0.1697 0.064,0.2494 0.0018,0.0185 0.0134,0.0242 0.0142,0.0428 0.0087,0.2055 -0.0419,0.617 -0.0782,0.8195 -0.0723,0.4023 0.1429,0.7544 0.1991,1.126 0.0219,0.1445 -0.0594,0.4565 0.0214,0.6342 0.0693,0.1523 0.1803,0.2624 0.2133,0.449 0.0184,0.1039 0.0039,0.2168 0,0.3207 -0.0062,0.1641 0.0362,0.2583 0.0925,0.4062 0.053,0.1389 0.0061,0.3401 0.064,0.4774 0.0657,0.156 0.3062,0.4484 0.3271,0.6129 0.0551,0.4335 0,0.9702 0,1.4181 0,0.2651 -0.0461,0.4887 -0.1991,0.7055 -0.18,0.2553 -0.1871,0.418 -0.2489,0.7126 -0.0117,0.0415 0.0686,0.6011 0.0853,0.6913 0.0948,0.5131 0.1897,1.0263 0.2845,1.5393 0.0504,0.2729 0.0174,0.5291 -0.0309,0.7888l0 0c-0.0172,0.0926 -0.0365,0.1856 -0.0545,0.2801 -0.07,0.3662 -0.027,0.766 -0.0112,1.1594l0 0 -0.0528 0.273c-0.0577,0.299 0.0062,0.9315 -0.1564,1.1758 -0.0338,0.4141 -0.375,0.8294 -0.5689,1.1759 -0.1601,0.4253 -0.3751,1.0866 -0.7041,1.5749 -0.2402,0.06 -0.5647,0.675 -0.7823,0.8266 -0.3009,0.2098 -0.6068,0.2792 -0.896,0.4704 -0.2773,0.1834 -0.4103,0.4685 -0.6258,0.7126 -0.3229,0.366 -0.6873,0.5649 -1.1094,0.7696 -1.9913,0.9656 -1.2675,2.2752 -0.1707,3.6344 0.052,0.0645 -0.0112,0.0751 0.0358,0.1508 0.1445,0.1336 0.2881,0.2665 0.4317,0.3992 0.3603,0.3331 0.622,1.2534 0.7384,1.7608 0.1063,0.4638 0.1295,0.428 0.2556,0.7668 0.018,0.0483 0.2361,0.3671 0.284,0.426 0.0337,0.0416 0.0195,0.0184 0.0568,0.0568 0.0404,0.0418 0.0126,-0.0093 0.0568,0.0284 0.0285,0.0242 0.0008,0.06 0.0284,0.0852 0.0377,0.0343 0.1049,0.2258 0.142,0.284 0.0318,0.0497 0.0979,0.1753 0.142,0.2272 0.0376,0.0444 0.0178,-0.0147 0.0568,0.0284 0.0406,0.045 0.0684,0.0489 0.1136,0.0852 0.0351,0.0283 0.2248,0.0606 0.2556,0.1136 0.1305,0.2239 4.023,1.0773 4.2316,1.7608 0.0131,0.043 0.0608,0.043 0.1136,0.0852 0.093,0.0741 0.2177,0.284 0.2556,0.3408 0.0419,0.0626 0.142,0.4102 0.142,0.4544 0,0.0284 0,0.0568 0,0.0852 0,0.1018 0.2272,0.3707 0.2272,0.5112 0,0.0189 0,0.0378 0,0.0568 0,0.0398 0.022,0.051 0.0568,0.0852l0.0397 0.0142z"/>
 </g>
</svg>
