<?xml version="1.0" encoding="UTF-8"?>
<!DOCTYPE svg PUBLIC "-//W3C//DTD SVG 1.1//EN" "http://www.w3.org/Graphics/SVG/1.1/DTD/svg11.dtd">
<!-- Creator: CorelDRAW -->
<svg xmlns="http://www.w3.org/2000/svg" xml:space="preserve" width="297mm" height="210mm" style="shape-rendering:geometricPrecision; text-rendering:geometricPrecision; image-rendering:optimizeQuality; fill-rule:evenodd; clip-rule:evenodd"
viewBox="0 0 297 210"
 xmlns:xlink="http://www.w3.org/1999/xlink">
 <defs>
  <style type="text/css">
   <![CDATA[
    .str2 {stroke:#2F3133;stroke-width:0.1}
    .str1 {stroke:black;stroke-width:0.1;stroke-opacity:0.501961}
    .str0 {stroke:black;stroke-width:0.1}
    .str3 {stroke:black;stroke-width:0.5}
    .fil5 {fill:none}
    .fil0 {fill:white}
    .fil2 {fill:#1F1A17;fill-rule:nonzero}
    .fil3 {fill:#C2C1C1;fill-rule:nonzero}
    .fil4 {fill:white;fill-rule:nonzero}
    .fil6 {fill:black;fill-rule:nonzero}
    .fil1 {fill:white;fill-rule:nonzero;fill-opacity:0.501961}
   ]]>
  </style>
 </defs>
 <g id="Plan_x0020_1">
  <metadata id="CorelCorpID_0Corel-Layer"/>
  <path class="fil0 str0" d="M227.869 159.888c0.042,-0.0174 0.0843,-0.035 0.1262,-0.0523 0.3069,-0.127 0.4547,0.2084 0.6614,0.3372 0.1339,0.0833 0.268,0.1555 0.3133,0.3488 0.0676,0.2888 0.0662,0.5495 -0.0464,0.8256 -0.0486,0.1191 -0.3366,0.5606 -0.3714,0.6627 -0.0799,0.2344 -0.216,0.4857 -0.232,0.7558 -0.0225,0.3808 -0.0666,0.7995 -0.2321,1.1511 -0.1389,0.295 -0.3,0.6418 -0.3826,0.9862 -0.2454,0.1094 -0.7161,0.3473 -0.8474,0.4789 -0.5332,0.0666 -0.2095,0.9033 -0.1508,1.1976 0.1344,0.3481 0.23,0.5465 0.6382,0.5465 0.1293,0 0.6391,-0.0996 0.8204,-0.0327 0.1936,0.5009 0.0765,0.9731 -0.049,1.4713 -0.1369,0.0172 -0.3342,-0.0157 -0.609,-0.1247 -0.576,-0.2284 -1.2543,0.11 -1.4156,0.6977 -0.3509,1.2789 0.7376,1.3738 0.9794,2.3852 -0.1013,0.1498 -0.1921,0.2987 -0.2368,0.4752 -0.0209,0.0824 -0.6437,0.7006 -0.6846,0.7441 -0.1222,0.1296 -0.2728,0.5476 -0.2669,0.7326 0.0068,0.2149 -0.2105,0.916 -0.29,1.1395 -0.2103,0.5917 -1.018,0.8072 -1.4621,0.4999 -0.2883,-0.1994 -0.5122,-0.4126 -0.7064,-0.6013 -0.4315,-0.6381 -0.8377,-1.3489 -1.6723,-1.4219 -1.0097,-0.0883 -1.0605,0.7489 -1.288,1.5349 -0.044,0.152 -0.0921,0.3009 -0.1352,0.4391 -0.1997,0.1747 -0.4754,1.462 -0.8795,2.5546l0 0c-0.4054,1.0959 -0.9403,1.9961 -1.6657,1.3899 -0.4288,-0.3583 -0.3897,-0.8134 -0.2317,-1.3012l0 0c0.3352,-1.0353 1.2062,-2.2191 -0.7198,-2.9429 -0.4986,-0.1873 -1.3735,0.2592 -1.5432,0.8139 -0.1086,0.3547 0.1221,1.019 0.232,1.3488 0.1086,0.326 0.3504,0.5507 0.5703,0.7797l0 0c0.2781,0.2896 0.5213,0.5864 0.416,1.104 -0.0852,0.4185 -0.2897,0.4756 -0.4989,0.7907 -0.2844,0.4281 -0.192,0.6503 -0.058,1.0464 0.0517,0.1527 0.446,0.459 0.5453,0.593 0.2147,0.2894 0.4077,0.3482 0.4178,0.7907 0.0044,0.1925 -0.0637,0.5221 -0.1393,0.7093 -0.0965,0.2393 -0.4274,0.6843 -0.6614,0.8139 -0.5364,0.297 -2.0319,-0.9796 -2.5643,-0.0465 -0.3795,0.6653 0.0729,1.1415 0.789,1.5 0.2187,0.1096 0.4146,0.2348 0.5781,0.3906 0.4354,0.1298 1.0517,-0.3557 1.1508,0.5396 0,0.6974 -0.1417,0.7661 -0.8035,0.8012 -0.2289,0.3361 -0.7572,0.4586 -1.2155,0.3615 -0.4064,-0.086 -0.7548,-0.2506 -1.1371,-0.3488 -0.4564,-0.1173 -0.6682,0.0705 -1.0676,0.2442 -0.0473,0.0206 -0.0971,0.0381 -0.1276,0.0814 -0.1537,0.2186 -0.1916,0.4408 -0.0464,0.7441 0.1229,0.2565 0.9534,0.7366 1.1719,1 0.3042,0.3669 1.0816,0.6523 1.288,1.0697 0.0572,0.1159 0.1131,0.2204 0.2089,0.3023 0.1543,0.1321 0.2308,0.6635 0.1276,0.8256 -0.1799,0.2829 -0.3266,0.5065 -0.615,0.6279 -0.5434,0.2289 -1.1347,0.2351 -1.5664,0.6046 -0.2681,0.2296 -0.3492,0.3839 -0.4293,0.8023 -0.0982,0.5132 -0.0648,1.0723 -0.2321,1.5697 -0.1337,0.3973 -0.5548,0.6314 -0.7869,0.9653l0 0 -19.1827 -0.0816 0.2669 -0.6279c0.0546,-0.0912 0.2177,-0.2476 0.2321,-0.3488 0.0572,-0.0327 0.336,-0.5547 0.3481,-0.6395 0.1311,-0.0749 0.2381,-0.4123 0.3481,-0.5465 0.1508,-0.1838 0.3452,-0.3587 0.4757,-0.5465 0.2783,-0.4007 0.7662,-0.6622 1.1488,-0.9535 0.2803,-0.2039 0.8741,-0.8267 1.0095,-1.1511 0.1283,-0.3076 0.3983,-0.9683 0.4409,-1.2674 0.754,-0.3231 1.1089,-1.176 2.0074,-1.3604 0.1919,-0.0394 0.3759,-0.3102 0.5802,-0.3837 0.4568,-0.1642 0.2389,-0.5947 0.4525,-0.8372 0.3076,-0.3494 0.384,-0.6925 0.9167,-0.7325 0.2911,-0.0218 0.6923,-1.3379 0.5337,-1.5581 -0.2777,-0.3857 -0.2384,-0.4895 -0.116,-0.907 0,-0.5976 0.8224,-1.0944 0.4293,-1.686 -0.3676,-0.5533 -1.4437,-0.7949 -2.019,-1.1278 -0.6706,-0.3882 -0.3029,-0.5139 -0.2669,-1.0698 0.0214,-0.3295 0.0168,-0.633 -0.1044,-0.9302 -0.0634,-0.1553 -0.4525,-0.4614 -0.4525,-0.5465 0,-0.1182 0.4067,-0.8139 0.0812,-0.8604l-0.0116 -0.0349c-0.6741,-0.0963 -0.7269,0.4459 -1.2648,0.7209 -0.5077,0.2597 -0.7549,-0.1529 -0.7219,-0.6366l-129.133 0.0785 0 0 0.0134 -18.325 0 0 -0.1759 -23.6503 0.1857 -8.0033 0.2907 -44.2624c0.0572,-0.234 0.0772,-1.0599 0.0147,-1.5933 0.0776,-0.0312 0.0504,-0.1877 0.0201,-0.2671 -0.0171,-0.0446 -0.0228,-0.0761 -0.0464,-0.1163 -0.0533,-0.0911 -0.0891,-0.1821 -0.1277,-0.2791 -0.0301,-0.0754 -0.088,-0.1624 -0.0464,-0.2325 0.0929,-0.1566 0.1773,-0.3184 0.2653,-0.4717 0.0437,-0.3928 0.6106,-0.9384 0.4425,-1.3073 -0.3056,-0.6711 -1.2322,0.1232 -1.6709,-0.0233 -0.4423,-0.1476 -0.3348,-0.5676 -0.3945,-0.9302 -0.1369,-0.8305 -1.0614,-0.0452 -1.346,0.1512 -0.7665,0.5287 -1.3806,0.0467 -1.8333,-0.5349 -0.2319,-0.2978 -0.1561,-0.8604 -0.6498,-0.8604 -0.3749,0 -0.7299,0.2373 -0.9863,-0.0116 -0.5419,-0.5262 0.1214,-1.0613 -0.1161,-1.7791 -0.2226,-0.6725 -1.5664,-0.5277 -1.8217,-1.1046 -0.2284,-0.5164 -0.3369,-1.1869 -0.4409,-1.7557 -0.1988,-1.0876 0.8957,-0.843 0.9282,-1.6163 0.0173,-0.4113 -0.1027,-0.7781 -0.5569,-0.7441 -0.5235,0.0391 -0.4887,0.5172 -1.114,0.3372 -0.6771,-0.195 -0.2258,-1.045 -0.8586,-1.2209 -0.7383,-0.2052 -0.3853,-0.9153 -1.0211,-1.2907 -0.4287,-0.2532 -0.8055,0.009 -1.2184,-0.4534 -0.4203,-0.4705 -0.028,-1.1602 -0.557,-1.5349 -0.3218,-0.2278 -1.2109,-0.5722 -1.4504,-0.8953 -0.4043,-0.5451 -0.0537,-1.2098 0.0696,-1.7209 0.0075,-0.0313 0.1057,-0.1415 0.1393,-0.1511 0.7021,-0.2007 1.5511,0.4445 1.6477,-0.8023 0.0493,-0.6356 -0.8803,-0.8401 -0.1973,-1.6395 0.3874,-0.4533 0.5877,-0.9023 1.0791,-1.2558 0.3179,-0.2288 0.7112,0.0054 1.0443,-0.1511 0.5864,-0.2755 0.3061,-1.0973 0.2785,-1.593 -0.0211,-0.3778 -0.1351,-0.6569 0.1625,-0.8372 0.7099,-0.4303 0.7363,0.2401 1.4272,0.5233 0.2904,0.1191 1.0089,0.2442 1.3808,-0.1047 0.0748,-0.0702 0.1266,-0.1636 0.1602,-0.2695l0 0c-0.0008,-0.2703 -0.1896,-0.5191 -0.2298,-0.8002l-0.1161 -0.0814c-0.5158,-0.5169 -1.499,0.7854 -1.8449,-0.1977 -0.3548,-1.0086 0.9138,-0.7035 1.3576,-0.9999 0.0742,-0.0496 0.1304,-0.1024 0.1748,-0.1597 0.0207,-0.1495 0.0812,-0.3272 0.1965,-0.5613 0.0753,-0.153 -0.0193,-0.6789 -0.1856,-0.7441 -0.0262,-0.0102 -0.0108,-0.0403 -0.0349,-0.0465 -0.339,-0.0869 -1.0064,0.0233 -1.2531,-0.1977 -0.3347,-0.2997 -0.5284,-0.7111 -0.2669,-1.1046 0.8433,-1.2694 -0.3958,-1.2673 -1.2996,-1.1976 -0.2311,0.0178 -0.4108,-0.1396 -0.6614,-0.1396 -0.9867,0 -0.3082,1.1354 -1.3576,1.3372 -1.0869,0.2089 -1.6429,-0.0276 -2.5296,-0.5698 -0.0332,-0.0203 -0.0019,-0.0139 -0.0348,-0.0348 -0.0231,-0.0146 -0.0377,-0.0473 -0.058,-0.0698 -0.0202,-0.0222 -0.0144,-0.0061 -0.0232,-0.0349 -0.076,-0.2485 -0.0773,-0.6762 -0.2437,-0.8372 -0.3403,-0.329 -1.2582,0.6574 -1.6361,0.0814 -0.2183,-0.3329 0.0581,-0.6813 0.0581,-1.0348 0,-0.0451 -0.0747,-0.1955 -0.1045,-0.2209 -0.0192,-0.0165 -0.04,-0.061 -0.058,-0.0814 -0.0435,-0.0495 -0.0288,-0.095 -0.1044,-0.1512 -0.2993,-0.2222 -1.0829,0.1023 -1.288,-0.2325 -0.1983,-0.3239 -0.2956,-0.7789 -0.6614,-0.9419 -0.2742,-0.1223 -0.5761,-0.1551 -0.7658,-0.4186 -0.0643,-0.0894 -0.1174,-0.3582 -0.1634,-0.583l0 0c-0.0336,-0.164 -0.0636,-0.3048 -0.0919,-0.3355 -0.0818,-0.0889 -0.7368,-0.4357 -0.8935,-0.593 -0.3957,-0.3969 -0.7042,-0.3311 -1.2067,-0.1977 -0.3774,0.1002 -0.4384,-0.0136 -0.7078,-0.1163 -0.088,-0.0336 -0.0793,-0.1755 -0.1857,-0.2325 -0.35,-0.1878 0.0149,-1.2513 0.2205,-1.4186 0.0937,-0.0762 -0.0265,-0.8295 0.0696,-0.8721 0.0209,-0.0093 0.0257,-0.0138 0.0348,-0.0348 0.0441,-0.102 0.1754,-0.2689 0.3133,-0.3721 0.5505,-0.4117 -0.7657,-0.9515 -0.9979,-0.9651 -0.0146,-0.0008 -0.0328,-0.0206 -0.0464,-0.0349 -0.0147,-0.0156 -0.006,-0.0336 -0.0232,-0.0465 -0.0282,-0.021 -0.1016,-0.1772 -0.1277,-0.2093 -0.023,-0.0281 -0.1321,-0.3875 -0.1392,-0.4418 -0.0886,-0.6723 -1.0757,-0.4248 -1.2764,-1.2093 -0.1596,-0.6237 0.3873,-1.3696 0.1973,-2.0116 -0.0738,-0.2493 -0.282,-0.3994 -0.6846,-0.4767 -0.3383,-0.0649 -0.7559,0.0572 -1.056,-0.1279 -0.7575,-0.4671 -0.3164,-0.9047 -0.5569,-1.5465 -0.0334,-0.089 -0.1584,-0.2219 -0.2901,-0.2558 -0.1334,-0.0344 -0.2808,0.0275 -0.4293,-0.0116 -0.3449,-0.0909 -0.4453,-0.3271 -0.7311,-0.4535 -0.2963,-0.131 -1.6592,0.4864 -1.6592,-0.0697 0,-0.3927 0.6825,-0.499 0.8354,-0.6628 0.144,-0.1541 0.2142,-0.7264 0.0812,-0.7907 -0.0221,-0.0106 -0.0454,-0.0756 -0.058,-0.093 -0.0138,-0.0193 -0.0107,-0.032 -0.0232,-0.0465 -0.0142,-0.0164 -0.0288,-0.0412 -0.0348,-0.0581 -0.0487,-0.1372 -0.1564,-0.2386 -0.1741,-0.3954 -0.0652,-0.5779 -0.2802,-1.0483 -0.5801,-1.4999 -0.3338,-0.5024 0.0903,-0.6847 -0.0464,-1.2558 -0.0694,-0.2899 -0.2452,-0.6089 -0.441,-0.686 -0.6729,-0.2648 -0.6659,-1.6533 -0.8122,-2.1744 -0.379,-1.35 -1.1266,0.1861 -1.8566,-0.5464 -0.2906,-0.2915 0.0238,-0.8381 0.0116,-1.2209 -0.0151,-0.4719 -0.5133,-0.4669 -0.2198,-0.9047l0 0 41.2052 0.6475 32.1291 -0.5866 4.8374 -0.0981 3.8292 0.1628 36.6304 -1.2502c0.4312,0.4231 1.0306,0.6275 1.1971,1.2037 0.3431,1.1866 0.4881,1.2248 1.5317,1.5465 0.5762,0.1777 0.1998,0.7398 0.5569,1.1278 0.4111,0.4465 0.8845,0.4752 1.0211,1.1279 0.0898,0.4289 0.443,0.7749 0.8703,0.8139 0.8224,0.075 0.3962,0.1222 0.7542,0.7674 0.3717,0.6697 0.2501,1.1754 1.0675,1.5116 0.2936,0.1208 0.2067,0.5405 0.383,0.7558 0.1623,0.1983 0.5945,0.4021 0.9166,0.5349 0.1366,0.0563 0.283,0.0852 0.4246,0.1278l0 0c-0.5865,0.5161 -1.0279,1.0996 -1.2135,2.0116 -0.4183,2.0565 -1.2621,4.5899 -1.1604,6.7207 0.0463,0.9711 0.5106,1.9794 0.5106,2.8837 0,1.2893 0.2885,1.6307 0.9283,2.7208 0.0994,0.1695 0.2415,0.6355 0.2784,0.8023 0.2116,0.9557 1.8471,1.1282 0.6265,2.3488 -0.5758,0.5758 -0.5883,2.5178 0.3946,2.8603 0.4715,0.1642 0.9365,0.475 1.2647,0.8954 0.3951,0.5059 0.3481,1.0554 0.3481,1.6859 0,0.143 -0.0328,0.2516 -0.058,0.3838 -0.0138,0.0721 -0.0487,0.3096 -0.0116,0.3837 0.2194,0.4382 0.1622,0.9938 0.6034,1.372 0.7224,0.6194 1.5195,1.0694 2.2047,1.7558 0.582,0.5829 0.8623,1.4648 1.5548,1.8604 0.2826,0.1615 0.6991,0.2869 0.9863,0.3837 0.1495,0.0504 0.1991,0.2039 0.2785,0.3604 0.133,0.2624 0.0513,0.9187 0.2205,1.1977 0.1199,0.1975 0.2398,0.3954 0.3597,0.593 0.3258,0.5372 1.5807,0.2474 1.9726,0.8372 0.8461,1.2737 0.7539,2.6136 2.135,3.5347 1.2608,0.841 2.5218,1.6822 3.7827,2.5232 0.4413,0.2943 0.855,0.6753 1.23,1.0697 0.5653,0.5943 1.3471,0.8604 1.9378,1.4069 0.3361,0.3111 0.7287,1.2046 1.1023,1.4651 0.518,0.3611 0.4144,0.6542 0.4526,1.3372 0.0312,0.5566 0.1596,1.049 0.3016,1.6046 0.177,0.693 0.0754,1.347 0.3365,1.9883 0.014,0.0343 0.014,0.0376 0.0465,0.0581 0.4079,0.257 0.8052,1.1374 0.3597,1.5697 -0.1522,0.1478 -0.3124,0.3821 -0.4062,0.5698 -0.2988,0.598 0.0325,1.574 0.3598,2.1394 0.1065,0.1841 0.1763,0.6222 0.2784,0.814 0.1925,0.3612 0.2246,0.8717 0.2437,1.279 0.0256,0.547 0.2681,0.9787 0.5222,1.4302 0.1144,0.2031 0.6326,0.9126 0.8006,1.0697 0.5793,0.542 0.8765,1.093 1.8218,1.093 1.2019,0 1.8309,-2.1648 2.5063,-2.9301 1.1168,-1.2657 2.8234,-0.563 4.096,0.1395 0.4895,0.2701 0.877,0.2835 1.4737,0.3605 1.1752,0.1517 2.014,0.7729 2.9124,1.4999 0.7201,0.5828 2.8633,1.2451 2.4948,2.4418 -0.205,0.6661 -0.3419,0.8584 -0.8471,1.3255 -0.1978,0.183 -0.4389,0.2953 -0.6498,0.4651 -0.1935,0.1559 -0.3398,0.4407 -0.3945,0.6047 -0.1634,0.4903 -1.0118,0.8194 -1.1139,1.1976 -0.0869,0.3223 -0.2066,0.6575 -0.0812,0.9651 0.0754,0.1848 0.3884,0.6074 0.4757,0.6744 0.4539,0.3481 0.6033,2.0599 0.4757,2.5929 -0.0969,0.4044 -0.3115,0.656 -0.5221,1 -0.2172,0.3546 -0.6362,0.6883 -0.9631,0.9185 -0.3051,0.215 -1.0095,1.878 -1.0791,2.2442 -0.0928,0.4883 -0.1858,0.9766 -0.2785,1.465 -0.0793,0.4176 -0.1077,0.9449 -0.3365,1.279 -0.5754,0.8405 -1.2635,1.4886 -1.8914,2.2907 -0.6953,0.8884 -0.5912,2.353 -0.5105,3.4068 0.0514,0.6712 0.1877,1.7153 0.3249,2.3372 0.055,0.2492 0.2608,0.7384 0.4525,0.9999 0.5649,0.771 0.9782,0.3563 1.5781,0.7558 0.6949,0.4626 1.1035,1.8378 1.5897,2.5697 0.2465,0.3709 0.729,0.5976 1.0791,0.8721 0.5017,0.3935 0.8914,0.3076 1.4736,0.4418 0.2237,0.0516 0.5347,0.0801 0.6034,0.2558 0.4633,1.1849 0.766,1.7734 2.077,2.1279 1.0851,0.2933 1.0202,1.2859 1.845,1.7092 0.474,0.2432 0.9303,-0.0416 1.3747,-0.2429 0.4955,0.075 0.6669,0.372 -0.1215,0.7661 -1.1424,0.5712 -0.0644,1.176 0.0348,1.8721 0.4624,0.3302 0.5453,1.2058 1.4388,0.9302 0.5381,-0.1659 1.3698,-1.4182 2.019,-0.8488l0.4132 0.1945c0.0483,0.0359 0.0933,0.0619 0.1322,0.0729 0.9699,0.2758 1.6383,0.8641 2.3323,1.5581 0.2535,0.2535 0.4664,0.5215 0.789,0.7209 0.6149,0.3799 1.2092,0.3969 1.3692,1.2325 0.0955,0.4988 -0.1837,0.9853 -0.0696,1.4186 0.0255,0.0968 0.1171,0.2132 0.2596,0.35 0.5862,0.0721 1.2952,-0.3753 1.6898,0.3709 0.1052,0.1989 0.1458,0.7407 0.3417,0.8276 0.3834,0.1555 0.7598,0.3318 1.1667,0.4165 0.3825,0.0796 0.8213,0.2276 1.0095,0.4535 0.2556,0.3069 -0.0599,0.5948 -0.0348,0.9999 0.0162,0.2604 -0.0792,0.5901 0.0464,0.8605 0.0448,0.0963 0.137,0.3262 0.2036,0.5292 0.3359,0.4382 0.74,0.8179 0.8523,1.3893 0.2502,1.2732 -0.8352,0.3381 -1.3099,0.296 -0.048,0.2941 -0.0477,0.6114 -0.0477,0.8086 0,0.831 0.6339,1.2729 0.8355,2 0.2332,0.8406 0.7772,1.0446 1.2299,1.7906 0.2411,0.3972 0.2552,0.8504 0.4758,1.2674 0.2986,0.5647 0.3713,0.9865 0.3713,1.6395 0,0.6767 -0.2868,0.9727 -0.7774,1.2674 -0.2306,0.1384 -0.5767,0.0575 -0.8703,0.1163 -0.1041,0.0209 -0.1742,0.1686 -0.2669,0.2325 -0.6968,0.4808 -1.0443,1.5436 -1.0443,2.3488 0,1.1154 2.9134,0.0405 1.8566,1.3139 -0.7327,0.8827 0.5453,2.67 1.0211,3.4417 0.3442,0.5581 0.898,0.758 1.2648,1.2674 0.3678,0.511 0.2658,0.8718 0.0232,1.3023 -0.1574,0.2792 -0.1994,0.9045 0,1.1046 0.3333,0.3343 0.9569,0.2433 1.346,0.5349 0.4227,0.3169 0.8847,1.2281 1.3692,1.3953 0.7183,0.2478 0.9309,-0.8694 0.7542,-1.279 -0.0416,-0.0964 -0.2878,-0.2287 -0.3829,-0.2675 -0.1959,-0.0798 -0.7799,-0.5016 -0.9167,-0.686 -0.3977,-0.5364 0.4881,-1.8593 1.1255,-1.593 0.5747,0.24 0.7057,1.1083 0.8819,1.6395 0.1841,0.5552 0.3296,0.533 0.7658,0.7907 0.8954,0.5288 -0.1086,2.4999 1.7986,1.7092 0.1822,-0.0755 0.3646,-0.1512 0.5468,-0.2267l0 0z"/>
 </g>
</svg>
