<?xml version="1.0" encoding="UTF-8"?>
<!DOCTYPE svg PUBLIC "-//W3C//DTD SVG 1.1//EN" "http://www.w3.org/Graphics/SVG/1.1/DTD/svg11.dtd">
<!-- Creator: CorelDRAW -->
<svg xmlns="http://www.w3.org/2000/svg" xml:space="preserve" width="210mm" height="297mm" style="shape-rendering:geometricPrecision; text-rendering:geometricPrecision; image-rendering:optimizeQuality; fill-rule:evenodd; clip-rule:evenodd"
viewBox="0 0 210 297"
 xmlns:xlink="http://www.w3.org/1999/xlink">
 <defs>
  <style type="text/css">
   <![CDATA[
    .str2 {stroke:#2F3133;stroke-width:0.1}
    .str1 {stroke:black;stroke-width:0.1;stroke-opacity:0.501961}
    .str0 {stroke:black;stroke-width:0.1}
    .str3 {stroke:black;stroke-width:0.5}
    .fil5 {fill:none}
    .fil0 {fill:white}
    .fil4 {fill:#1F1A17;fill-rule:nonzero}
    .fil2 {fill:#C2C1C1;fill-rule:nonzero}
    .fil3 {fill:white;fill-rule:nonzero}
    .fil6 {fill:black;fill-rule:nonzero}
    .fil1 {fill:white;fill-rule:nonzero;fill-opacity:0.501961}
   ]]>
  </style>
 </defs>
 <g id="Plan_x0020_1">
  <metadata id="CorelCorpID_0Corel-Layer"/>
  <path class="fil0 str0" d="M141.909 232.034c0.6001,0.1381 1.4749,-0.0614 2.0766,-0.1568 0.5791,-0.0919 0.6157,-0.019 1.1379,0.228 1.2508,0.5918 2.8939,0.7269 4.2669,0.7269 -0.0948,0.3808 -1.4342,0.0364 -1.6783,0.0285 -0.4929,-0.0161 -1.1303,-0.0158 -1.6072,-0.1283 -0.6714,-0.1583 -1.316,-0.4874 -2.0055,-0.3563 -0.3352,0.0638 -0.6631,0.1283 -1.0098,0.1283 -0.4323,0 -0.7609,-0.164 -1.1521,-0.1995l-0.0285 -0.2708zm-13.583 0.4988c0.1879,0.0869 0.5835,0.0421 0.7964,0.057 0.2374,0.0166 0.4996,0.0416 0.7254,0.0998 0.1548,0.0399 0.6887,0.2242 0.7254,0.1283 0.1133,-0.2952 0.0941,-0.8603 0.4267,-1.0262 0.1113,-0.0554 0.0843,0.4379 0.0711,0.4988 -0.1,0.4618 -0.5638,1.2853 -1.0667,1.411 0,-0.2001 0.4111,-0.4933 0.2418,-0.6984 -0.05,-0.0605 -0.3271,-0.0224 -0.4125,-0.0427 -0.3001,-0.0712 -0.6672,-0.0713 -0.9814,-0.0713 -0.1444,0 -0.2803,-0.0206 -0.4125,-0.0285 -0.2239,-0.0133 -0.2079,-0.1735 -0.3129,-0.3135l0.1992 -0.0143zm5.803 0.9407c0.1234,0 0.2675,0.0147 0.384,-0.0143 0.0856,-0.0214 0.2258,-0.057 0.3129,-0.057 0.1708,0 0.329,-0.0216 0.4978,-0.0285 0.1633,-0.0066 0.2703,-0.1425 0.441,-0.1425l0.0142 0.0142 0 0.0571c-0.0514,0.0128 -0.0813,0.0957 -0.1138,0.1282 -0.1815,0.1815 -0.5568,0.2566 -0.8107,0.2566 -0.1317,0 -0.2547,0.0547 -0.3841,0.0142 -0.0625,-0.0196 -0.1463,-0.0104 -0.2133,-0.0142 -0.081,-0.0045 -0.1587,-0.0285 -0.2418,-0.0285l0.1138 -0.1853zm17.5798 -0.2423c0.2366,0.1275 0.4672,0.3295 0.7396,0.4133 0.4077,0.1256 1.0143,0.3749 1.4792,0.2851 0.4949,-0.0956 0.923,-0.3492 1.4081,-0.4704 0.0371,0.0496 -0.0166,0.0947 -0.0285,0.1426 -0.2421,0.1367 -0.4532,0.2404 -0.6969,0.3278 -0.0726,0.0261 -0.1114,0.057 -0.1991,0.057 -0.0643,0 -0.1327,0.0427 -0.1991,0.0427l-0.0285 0.0285c-0.0613,0 -0.1077,0.0037 -0.1564,0.0428 -0.517,0.0442 -1.0325,-0.0812 -1.5077,-0.1995 -0.2265,-0.0563 -0.4372,-0.1557 -0.6543,-0.2281 -0.1353,-0.0452 -0.4124,-0.2361 -0.4124,-0.3991 -0.0281,0 -0.0202,0.0027 -0.0427,-0.0142l0.2987 -0.0285zm-15.3894 -0.0641c0.3539,-0.2224 0.6838,-0.4838 1.0454,-0.6842 0.184,-0.1019 0.3205,-0.2214 0.4907,-0.342 0.1152,-0.0815 0.3965,-0.3706 0.5191,-0.3706 0.1413,0.1893 -0.9463,0.8636 -1.1094,0.9834 -0.1817,0.1333 -0.4034,0.2384 -0.576,0.3777 -0.0545,0.0439 -0.131,0.0735 -0.1921,0.1069 -0.062,0.034 -0.1756,0.0066 -0.2204,0.0428l0.0427 -0.114zm19.2645 -7.0443l-2.5994 -64.2949 1.7813 -22.6169 11.7281 -110.606 -0.1353 -0.126c-0.2852,0 -0.6795,-0.2329 -0.9245,-0.3848 -0.4161,-0.2578 -0.9038,-0.8413 -1.1378,-1.2827 -0.0906,-0.1711 -0.2768,-0.4783 -0.3983,-0.6129 -0.1867,-0.2066 -0.4513,-0.4452 -0.5405,-0.7126l-0.4778 -1.1082 0 0 -77.4797 -0.2734 0 0c-0.1546,0.5114 0.8095,1.3211 1.1384,1.4956 0.8245,0.4376 1.1323,0.7507 1.2658,1.7531 0.079,0.593 -0.5747,1.6007 -1.1805,1.7673 -0.0575,0.0158 -0.1658,0.0366 -0.303,0.0635 -0.4413,0.1345 -0.778,0.4554 -0.778,1.1052 0,0.5214 -0.1921,1.0738 -0.8107,0.7839 -0.2574,-0.1206 -0.4192,-0.3921 -0.6543,-0.551 -0.2669,0.302 -0.5341,0.5919 -0.8533,0.8075 -0.6075,0.4202 -1.3202,0.4921 -2.0268,0.6075l-0.2916 -0.4222c-0.0482,-0.3871 0.0153,-1.0225 -0.0544,-1.5279 -0.034,-0.2468 -0.1293,-0.4516 -0.2283,-0.603 -0.104,-0.1591 -0.2452,-0.238 -0.3669,-0.3042 -0.437,-0.2376 -0.9063,0.018 -1.1519,0.4937 -0.1533,0.2971 -0.2954,0.563 -0.0818,0.9914 0.1032,0.2071 0.1495,0.4317 0.258,0.633 0.1809,0.3357 0.4221,0.6476 0.5586,1.0011 0.0109,0.0282 -0.0024,0.0609 -0.0114,0.1135 -0.0616,0.0603 -0.1396,0.1062 -0.2162,0.1573 -1.6899,1.1264 1.6946,3.3602 -0.2134,3.948 -1.0742,0.331 -1.4067,-0.2994 -2.0077,-0.5361 -0.0376,-0.0491 -0.0946,-0.1168 -0.1684,-0.1908 0,-0.7522 0.7511,-0.861 0.8818,-1.582 0.3111,-1.7162 -1.9954,-0.8448 -1.4649,0.0142 0.1832,0.2965 0.4146,1.0819 0.2702,1.4111 -0.1747,0.3984 -0.7304,0.2611 -1.0667,0.5986 0,0.666 0.6298,1.1808 1.2232,1.2827l2.4037 0.4133c0.4821,0.9976 -1.1308,1.9236 -1.6794,2.5356 -0.2889,0.3222 -0.3696,0.4579 -0.7988,0.5362 -0.4506,0.0823 -0.8108,-0.3121 -0.7985,-0.7801 0.007,-0.2695 0.0218,-0.5824 0.1334,-0.8284 0.1152,-0.2539 0.3279,-0.4381 0.3413,-0.5084 0.1975,-1.0411 -0.4997,-1.5995 -1.0445,-1.1179 -0.1387,0.1226 0.0462,0.4861 -0.0328,0.7571 -0.0451,0.1546 -0.0224,0.3458 -0.0569,0.4866 -0.0759,0.3099 -0.1962,0.541 -0.2764,0.7629 -0.1714,0.4742 -0.3491,0.7886 -0.251,1.3315 0.0379,0.2103 0.1732,0.6427 0.2577,0.9168 0.1006,0.2122 0.0826,0.5739 0.6311,0.9931 0.064,0.049 0.4593,0.2723 0.5062,0.342 0.4162,0.6186 0.4368,1.2584 0.2014,1.4951 -0.0236,0.1654 -0.5673,0.2599 -0.8742,0.4735 -0.4138,0.288 -0.6653,0.6319 -0.8005,1.0838 -0.1573,0.4241 -0.0162,0.8028 0.0204,1.2735 0.0329,0.424 0.2197,0.7925 0.2465,1.1289 0.0544,0.6823 0.1692,1.1907 0.0622,1.6362 -0.0579,0.2415 -0.1286,0.4754 -0.4297,0.684 -0.1888,0.1309 -0.4815,0.3254 -0.8513,0.4096 -0.2968,0.0676 -0.6468,0.0208 -1.0099,0.1421 -0.123,0.0595 -0.312,0.1309 -0.4847,0.1553 -0.3216,0.564 -0.1954,0.872 -0.1374,1.5123 0.2449,0.2053 0.2452,0.7853 0.2053,1.0651 -0.1858,0.124 -0.2395,0.2943 -0.3675,0.3465 -0.398,0.1619 -1.2772,-0.3427 -0.8903,-0.8272 0.3174,-0.3974 0.3138,-0.8894 0.256,-1.354 -0.032,-0.0183 -0.0348,-0.0109 -0.0427,-0.0428 -0.1439,-0.0617 -0.2694,0.0931 -0.4504,0.1394 -0.2667,0.0683 -0.6105,0.0526 -0.9498,-0.0019 -0.7552,-0.1214 -1.0089,-0.1914 -1.6813,0.2889 -0.0748,0.5259 0.2335,0.8292 0.4587,1.2058 0.0881,0.1473 0.3853,0.2269 0.3853,0.4315 0,0.4122 -0.1943,0.7111 -0.2942,1.1004 -0.086,0.3348 -0.3994,0.7887 -0.4602,1.0331 -0.6254,-0.093 -0.83,-0.7969 -1.3685,-0.8122 -0.1647,-0.0046 -0.469,0.0416 -0.6888,0.2067 -0.2144,0.1609 -0.3359,0.4944 -0.5471,0.6766 -0.2109,0.1818 -0.1778,0.5034 -0.2084,0.8058 -0.0183,0.1816 0.0665,0.3935 0.094,0.5993 0.0606,0.4528 0.101,0.9123 -0.0308,1.2058 -0.0871,0.194 -0.4599,0.2181 -0.7016,0.2756 -1.1013,0.262 -1.4472,-1.9433 -2.4496,-1.7266 -0.1294,0.028 -0.2202,0.2299 -0.3282,0.4373 -0.0458,0.3676 -0.0354,0.8436 0.1377,1.2082 0.2588,0.5449 0.7957,0.9278 1.36,1.0218 0.7539,0.1255 3.3004,-0.6366 3.3928,0.6628 -0.0128,0.0815 0.1065,0.2058 0.0635,0.2921 -0.1026,0.206 -0.2438,0.339 -0.361,0.4763 -0.146,0.171 -0.2779,0.3349 -0.514,0.489 -0.3265,0.0466 -0.6306,0.2794 -1.0701,0.1998 -0.2653,-0.0481 -0.6866,-0.2811 -1.1129,-0.6092 -1.0608,-0.8165 -2.7026,-1.3655 -2.9442,0.285 -0.0402,0.2746 0.0224,0.6035 0.1472,0.9277 0.0741,0.1927 0.306,0.3425 0.4156,0.5195 0.1915,0.3092 0.4412,0.4471 0.6702,0.6056 0.6725,0.4653 1.0628,0.3559 1.825,0.3559 0.4711,0.4711 -0.2368,2.4334 -0.8961,2.6367 -0.5095,0.157 -0.6439,0.4912 -1.4082,0.3009 -0.577,0.0448 -0.9415,-0.0616 -1.509,0.1629 -0.0864,0.6938 1.1631,1.6181 0.7126,2.3582 -0.7968,1.3087 -1.7585,-1.2559 -2.1921,-1.2559 -0.1653,0 -0.3243,0.2336 -0.6241,0.4033 -0.2906,0.1646 -0.71,0.1924 -0.9255,0.3178 -0.0837,0.0488 -0.2172,0.0474 -0.3078,0.0792 -0.3734,0.1312 -0.714,0.2183 -0.714,0.6867 0.2266,0.6464 1.3591,0.6879 1.92,0.7601 1.0551,0.136 1.2914,0.6233 0.984,1.1823 -0.1736,0.124 -0.3808,0.3752 -0.6206,0.6195 -0.3462,0.3525 -0.868,0.7319 -1.1117,1.1708 -0.1112,0.2001 -0.2885,0.39 -0.37,0.6276 -0.1557,0.4537 -0.1327,0.9641 0.1734,1.2241 0.2328,0.1979 2.2278,1.2174 2.9533,1.718 0.1859,0.1283 0.0899,0.3594 0.093,0.3727 0.1321,0.5535 -0.5725,1.374 -1.2998,1.2572 -0.6635,-0.1066 -0.8196,-0.9845 -1.484,-0.7795 -0.491,0.1515 -0.9212,0.2372 -1.4468,0.2549 -0.5132,0.2386 -0.81,-0.6805 -1.4704,-0.3295 -0.5672,0.3014 -0.0426,1.4823 -0.0426,1.9811 0.0629,1.2161 0.9317,1.7109 2.0339,0.9977 0.911,-0.5896 1.9941,0.427 2.0339,1.3112 0.0145,0.3226 -0.5383,0.4472 -0.8313,0.6528 -0.3974,0.2787 -0.6772,0.2647 -1.6585,0.3073 -0.4663,0.0202 -0.8201,-0.2657 -1.1221,-0.5488 -0.2471,-0.2315 -0.4594,-0.4583 -0.6739,-0.7385 -0.0807,-0.1054 -0.2378,-0.1231 -0.351,-0.2001 -0.4082,-0.2774 -0.5471,-0.3283 -0.7241,-0.3317 -0.1715,-0.0033 -0.3806,0.0349 -0.8301,0.1247 -0.2886,0.0577 -0.516,0.1883 -0.7292,0.2944 -0.2068,0.1028 -0.5468,0.2924 -0.5468,0.6843 0,0.6075 0.2946,0.805 0.6409,0.942 0.4745,0.1878 1.0916,0.2038 1.592,0.4669 0.285,0.1499 0.966,0.4855 1.2769,0.8859 0.2235,0.288 0.2669,0.6254 0.2427,0.8824 -0.0438,0.4635 -0.6194,1.1362 -1.0014,1.4183 -0.1633,0.1636 -0.5167,0.0974 -0.7113,0.1431 -0.1811,0.0426 -0.4003,-0.0148 -0.5976,-0.0368 -0.4957,-0.0552 -1.0436,-0.1537 -1.3256,0.1693 -0.3202,0.3668 -0.2852,0.9574 -0.0122,1.3578 0.2646,0.3881 0.7436,0.7101 0.8737,0.8295 0.2449,0.1627 0.4439,0.2565 0.5572,0.3919 0.3326,0.3973 0.1029,0.9701 -0.298,1.3985 -0.4853,0.5188 -1.7744,1.2194 -1.1663,1.9811 0.5259,0.0751 0.9879,0.1114 1.4934,-0.1711 0.8198,-0.458 -0.1268,-3.0114 0.9387,-2.765 0.2919,0.0675 0.5571,0.3357 0.8213,0.5255 0.4957,0.3561 0.7256,0.9871 0.7823,1.4102 0.3059,2.2808 -3.3512,1.1082 -3.2677,2.3829 0.0228,0.3489 1.1149,0.8616 1.4081,0.9691 1.2506,0.4585 2.1789,-0.0794 2.5317,-1.3255 0.1553,-0.5489 0.2126,-2.2485 1.0812,-2.125 0.5533,0.0786 0.6345,0.8927 0.5545,1.2699 -0.1941,0.9141 -1.3987,1.7544 -1.9628,2.4942 -0.7791,1.0215 -1.0383,1.4113 -1.0383,2.7365 -0.1059,0.3773 -0.2406,1.0071 -0.0614,1.4309 0.0762,0.1801 0.3359,0.553 0.4463,0.6728 0.2394,0.2601 0.364,1.2722 1.0659,0.9178 0.2864,-0.5022 -0.0287,-1.7122 0.7111,-1.9953 0.0694,-0.0266 0.2761,-0.0892 0.3645,-0.0999 0.4777,-0.0581 0.8187,0.1291 0.9985,0.4759 0.1078,0.208 0.1578,0.4739 0.1447,0.7784 -0.0529,1.2273 -1.975,1.2436 -1.9216,2.2965 0.0845,0.5221 0.3551,1.5686 0.3205,2.4127 -0.0173,0.421 -0.1955,0.7927 -0.3971,1.0474 -0.2284,0.2886 -0.512,0.4273 -1.074,0.315 -0.8811,-0.1762 -1.396,-1.2985 -2.3895,-0.6413 -1.0365,0.6855 0.0281,1.7559 0.6116,2.2946 0.8939,0 2.0197,0.7375 2.0197,1.7103 -0.1444,0.1809 -0.2002,0.4041 -0.4125,0.5416 -0.2631,0.1703 -0.527,0.3016 -0.7681,0.4989l-0.6663 0.4336 0 0 0.0974 0.3224c0,0.4295 -0.5632,0.8632 -0.8391,1.1402 -0.4066,0.408 -0.5148,1.3511 -0.9672,1.6105 -0.0594,0.4171 -0.1862,0.6095 0.0284,1.0404 0.1591,0.3197 0.4876,0.6453 0.8107,0.7981 0.4198,0.1987 1.4804,0.2893 1.7068,-0.2423 0.4457,-0.1114 0.0725,-1.7418 0.2845,-2.1236 0.1393,-0.2511 0.278,-0.3877 0.2133,-0.6983 -0.0869,-0.4175 -0.2523,-0.5125 0.256,-0.6699 1.0663,-0.3304 0.7478,1.1507 1.6169,1.7694 0.4824,0.3435 0.7478,0.6525 0.7478,1.0115 0,0.5087 -0.3619,1.2292 -0.7207,1.8245 -0.3877,0.6435 -0.9225,0.8416 -1.4169,1.2733 -0.5647,0.4931 -0.5183,0.5282 -0.9429,1.1508 -0.0718,0.2134 -0.3343,0.8551 -0.4417,1.535 -0.1109,0.7015 -0.0653,1.4438 -0.0223,1.7836 0.0441,0.3098 0.2496,0.6964 0.8558,0.7974 0.3675,0.0612 0.8627,-0.199 1.2807,-0.1708 0.1798,0.0121 0.3679,-0.0546 0.5442,-0.0387 0.2939,0.0265 0.562,0.1469 0.7513,0.2438 0.4575,0.2343 0.6676,0.9248 0.0585,1.5722 -0.1501,0.1598 -0.2811,0.4665 -0.5223,0.6602 -0.3306,0.2653 -0.794,0.4044 -1.1149,0.4452 -0.8127,0.2272 -1.3643,0.1793 -1.6122,1.1076 -0.3546,0.5155 -0.0962,1.0615 0.0935,1.5987 0.451,1.2772 1.6789,0.675 2.5805,0.4536 0.9275,-0.2277 1.0309,-0.5341 1.1663,-1.411 0.1454,-0.9424 1.36,-0.9484 1.5076,0.0143 0.0953,0.6212 -0.1489,1.484 -0.686,2.0057 -0.24,0.2331 -0.7458,0.275 -1.0483,0.3673 -0.2842,0.0867 -0.3734,0.1275 -0.6022,0.264 -0.1504,0.2114 -0.5924,0.2269 -0.3659,0.6553 0.1147,0.2171 0.3584,0.4664 0.5547,0.6128 0.3886,0.2896 0.7685,0.4181 1.1094,0.6269 0.2258,0.1382 0.4431,0.2243 0.7153,0.4498 0.3479,0.2882 0.6255,0.5209 0.6786,0.7474 0.0867,0.3697 -0.1486,0.4985 -0.5315,0.5882 -0.2606,0.0611 -0.4731,-0.0799 -0.7845,-0.177 -0.2279,-0.0711 -0.4552,-0.2655 -0.6734,-0.4302 -0.6864,-0.5188 -1.0195,-1.5795 -1.4242,-2.3752 -0.1861,-0.0465 -0.3342,0.0416 -0.4538,0.2079 -0.0536,0.0745 0.0039,0.2027 0.0073,0.3162 0.0056,0.1895 -0.0179,0.3885 -0.0689,0.5938 -0.1234,0.4957 -0.4649,0.9599 -0.5513,1.2053 -0.1829,0.5194 -0.0869,1.1347 0.5832,1.596 0.4617,0.3178 0.8668,0.7489 1.354,0.8811 0.7922,0.2002 0.7178,0.48 1.4764,0.3876 0.3234,-0.0394 0.4642,-0.2709 0.7253,-0.3706 0.4467,-0.1705 1.477,-0.308 1.3512,0.5131 -0.0793,0.5172 -0.5656,1.0404 -0.9986,1.5373 -0.3164,0.363 -0.3286,0.6038 -0.4091,0.9265 -0.0804,0.3227 -0.0471,0.6748 0.4668,0.9319 0.3573,0.1788 1.0062,0.0722 1.6219,0.1678 0.4017,0.0623 0.7643,0.1019 1.0817,0.124 0.1338,0.0093 0.3766,0.2448 0.4823,0.1822 0.1897,-0.1123 0.584,-1.2858 0.6992,-1.1903 0.337,0.048 -0.0376,1.0542 -0.1422,1.2115 -0.2145,0.3227 -0.4922,0.6215 -0.5547,1.0119 -0.051,0.3182 -0.2514,0.6779 -0.4561,0.9848 -0.2991,0.4485 -0.6852,0.772 -1.2649,0.583 -0.1413,-0.0461 -0.9443,-0.6969 -1.0525,-0.3706 -0.495,0.1237 0.2696,1.8003 0.2696,2.0728 -0.1808,0.6758 -0.372,1.3093 -0.4861,1.8118 -0.1044,0.46 -0.5145,0.3485 -0.5942,-0.0507 -0.1683,-0.842 0.1361,-1.4647 -0.9814,-1.6676 -0.7313,-0.1327 -0.6426,0.4531 -0.9388,0.9549 -0.4178,0.7075 -0.9795,-0.587 -1.5787,0.1568 -0.3107,0.3856 -0.5315,0.3706 -0.9814,0.3706 -1.3551,0 -1.5895,1.0641 -1.849,2.2376 -0.1725,0.7797 0.0493,1.0308 0.768,1.1545 0.4582,0.0788 1.3788,0.4519 1.6936,0.143 0.5013,-0.4919 0.708,-0.4108 1.9007,-0.1144 0.5703,0.1417 0.2317,-2.0375 0.2317,-2.2805 0.337,-0.1118 0.7472,0.5302 1.1094,0.6556 0.309,0.1069 0.7009,0.3982 0.742,0.6698 0.0238,0.1575 -0.138,0.4497 -0.2226,0.6294 -0.1845,0.3918 -1.7241,1.6943 -2.1266,1.7936 -0.2712,0.0668 -0.4555,0.0871 -0.6542,0.2708 -0.2768,0.2558 0.1052,0.4776 0.1991,0.7697 0.3133,0.3593 -0.0003,0.7352 -0.3983,0.7126 -0.3169,-0.0179 -0.6626,-0.2388 -0.896,-0.4418 -0.4525,-0.3938 -1.7068,-0.8248 -1.7068,0.1567 0,0.369 0.2491,0.5859 0.5381,0.7708 0.4224,0.2703 0.9907,0.4256 1.4886,0.4974 0.4117,0.0594 0.8319,0.7669 0.7869,1.2183 -0.2041,0.2276 -0.3427,0.5176 -0.8099,0.6799 -0.2348,0.0816 -0.5554,0.1435 -0.7844,0.2092 -0.0965,0.0277 -0.2401,0.0088 -0.3607,0.0214 -0.3623,0.0379 -0.7636,0.0683 -1.0233,0.1588 -0.3866,0.1346 -0.9008,0.4011 -1.0203,0.6705 -0.2282,0.5141 -0.1854,1.18 -0.2458,1.7318 -0.0379,0.3472 -0.0899,0.3733 -0.2619,0.8871 -0.091,0.2709 -0.1659,0.4186 -0.3144,0.6271 -0.1331,0.1869 -0.4148,0.2004 -0.6073,0.3305 -0.1983,0.1341 -0.3087,0.3848 -0.484,0.5538 -0.9075,0.5545 -0.7045,0.9012 -0.2583,1.4635 0.6502,0.8191 -0.1654,0.9545 -0.7822,0.5558 -0.3936,-0.2543 -0.533,-0.6051 -0.6827,-1.0262 -0.3202,-0.9003 -1.4089,-0.531 -2.0505,-0.2474 -0.1231,0.0544 -0.1888,0.1891 -0.2252,0.3187 -0.156,0.5551 -0.1321,1.1849 -0.3158,1.8987 -0.1993,0.7743 -0.0681,1.4598 0.2304,1.7357 0.8937,0.8259 2.388,-1.1516 3.2571,-0.5273 0.34,2.7298 -2.1862,0.4464 -3.3709,1.0119 -0.4346,0.2074 -0.7378,0.5279 -0.9481,0.9156 -0.1271,0.2344 -0.425,0.4569 -0.493,0.7308 -0.2548,1.0252 -0.2431,2.4103 -0.3064,3.3063 0,1.8621 -2.0739,1.211 -2.7896,0.2352 -0.2042,-0.2783 -0.2801,-0.8144 -0.7396,-0.7126 -0.7103,0.1573 -0.6444,1.197 -0.4552,1.7103 0.2503,0.6787 0.9274,1.1117 1.6499,1.1117 0.708,0 1.8998,-1.0843 2.1477,-0.0285 0.0439,0.1871 -0.0404,0.3951 -0.0682,0.5602 -0.0463,0.2748 -0.3468,0.4283 -0.594,0.601 -0.4816,0.3363 -1.0219,0.5703 -1.5315,0.7973 -0.2957,0.1317 -0.5761,0.3095 -0.8427,0.3782 -0.3722,0.2253 -0.6321,0.4116 -0.7842,0.7284 -0.1146,0.2387 -0.145,0.563 -0.2482,0.972 -0.107,0.424 0.0608,2.0965 0.2854,2.4336 0.0091,0.0365 0.0829,0.246 0.2819,0.4829 0.1893,0.2252 0.5236,0.463 0.7816,0.7369 0.126,0.1337 0.1881,0.2994 0.295,0.4318 0.1151,0.1424 0.1121,0.3537 0.1336,0.5062 0.0422,0.2981 0.0364,0.7021 -0.1613,0.8675 -0.2311,0.1933 -0.6886,0.1068 -1.089,-0.1606 -0.5297,-0.3537 -1.1555,-3.1332 -1.8774,-2.7299 -0.7083,0.3958 -0.9635,1.6406 -0.5033,2.2786 0.2456,0.3406 0.8953,-0.2376 0.9584,-0.0475l0.0285 0.0143c0.112,0.7862 -0.1185,1.7608 0.512,2.2946 0.3272,0.2769 0.7397,0.5654 0.681,0.8596 -0.051,0.2555 -0.0852,0.5159 -0.1681,0.745 -0.0855,0.2365 -0.2217,0.4423 -0.3849,0.7043 -0.2864,0.1445 -0.488,0.3721 -0.7198,0.4519 -0.2888,0.0994 -0.7516,0.1062 -1.1947,0.0134 -0.473,-0.099 -0.9835,-0.3383 -1.4662,-0.3383 -0.4201,0 -0.6206,-0.0947 -0.9582,0.0015 -0.2831,0.0843 -0.5246,0.37 -0.5277,0.5429 -0.0023,0.1264 0.0077,0.3468 0.1147,0.5409 0.1212,0.2199 0.353,0.4169 0.569,0.5928 0.4872,0.397 1.6301,0.7258 1.8011,1.3602 0.0598,0.26 0.0828,0.5926 0.0175,0.8935 -0.0492,0.2266 -0.1673,0.4272 -0.2538,0.6113 -0.1379,0.2939 -0.3222,0.4568 -0.5045,0.7092 -0.2151,0.1898 -0.4586,0.6919 -0.4443,0.9478 0.018,0.321 -0.0089,0.6032 0.3963,0.9646 0.4791,0.4275 1.5848,0.947 1.7561,1.5524 0.2052,0.725 0.0046,1.3247 -0.4476,1.7102 -0.7032,0.5994 -1.935,0.8035 -2.5782,1.0973l70.452 -0.007c0.0368,0.5949 0.0986,1.326 -0.3454,1.77 -0.4783,0.4783 -0.2685,1.1596 -0.3408,1.7892 -0.0095,0.0832 -0.5342,0.8979 -0.6248,1.0792 -0.1155,0.2313 -0.3017,1.5754 -0.3124,1.6188 -0.0378,0.1536 -0.2808,0.092 -0.3976,0.142 -0.05,0.0213 -0.0257,0.0372 -0.0284,0.0852 -0.0447,0.7875 0.5598,2.2215 -0.6816,2.272 -0.0576,0.0023 -0.2243,0.0763 -0.2556,0.142 -0.2292,0.4795 -0.4747,1.132 -0.4828,1.8176 -0.002,0.1713 0.4941,0.1872 0.568,0.3408 0.1311,0.2727 -0.7454,0.8305 -0.9656,1.0508 -0.0094,0.0094 -0.019,0.019 -0.0284,0.0284 -0.4882,0.4881 0.282,0.7435 0.2272,1.2212 -0.0253,0.2208 -0.1199,1.3084 0.0568,1.3916 0.0441,0.0208 0.0381,0.0501 0.0568,0.0852 0.0532,0.1002 0.1472,0.1358 0.1988,0.1988 0.031,0.0377 0.0507,0.0371 0.0852,0.0568 0.0856,0.0487 0.1156,0.0838 0.1704,0.142 0.0432,0.0458 0.0798,0.0955 0.0852,0.142 0.0424,0.3629 -0.3475,1.0618 -0.1988,1.5052 0.3942,1.1759 0.3998,1.1169 1.3064,1.42 0.0742,0.0248 -0.0285,0.128 -0.0568,0.1988 -0.1591,0.3966 -0.9752,0.7152 -0.1988,1.1928 0.3136,0.1928 1.3253,0.1526 1.5052,0.4828 0.5272,0.9681 1.4861,2.1214 1.8176,2.8968 0.0342,0.0799 0.1698,0.0561 0.2272,0.1136 0.0577,0.058 0.0079,0.0868 0.0852,0.1136 0.7341,0.2541 0.8589,3.8942 1.6472,4.686 0.7942,0.7979 0.3728,1.11 0.036,2.3176 -0.0751,0.2692 0.3475,0.3965 0.4694,0.6556 0.1068,0.2268 0.0427,0.537 0.0427,0.7839 0,0.6573 0.7391,0.5458 0.8391,1.0262 0.0834,0.4011 0.0681,0.5558 0.3841,0.8551 0.3213,0.3045 0.5301,0.5787 0.7965,0.9122 0.3525,0.4414 0.8361,0.443 1.2658,0.057 0.0643,-0.0577 0.3667,-0.2903 0.4552,-0.2565 0.1921,0.0733 0.3145,0.3024 0.3399,0.4791l0 0c0.0736,0.0006 0.1289,0.0068 0.1579,0.0197 0.3237,-0.0607 0.5174,0.0432 0.8676,-0.0713 0.5507,-0.18 1.0135,-0.6675 0.9814,0.1853 -0.0286,0.7576 0.7388,-0.1447 0.7822,-0.4846 0.0961,-0.7529 0.1293,-0.7229 0.5974,-1.2827 0.6934,-0.8295 -0.1057,-1.3037 1.1805,-1.7958 0.7303,-0.2793 0.8041,-0.7891 1.3797,-1.0832 0.8657,-0.4422 1.4371,-0.7211 1.0525,-1.7816 -0.3913,-1.0793 -0.929,0.0055 -1.8063,-0.2138 0,-0.5641 1.4794,-1.4815 1.977,-1.5678 0.7164,-0.1242 0.7873,0.2767 1.3085,0.5844 0.259,0.1528 0.6096,0.5761 0.7112,0.8409 0.1068,0.2786 -0.7209,0.1968 -0.8534,0.2708 -0.1378,0.077 0.0362,0.4307 0.1138,0.5701 0.1606,0.2888 -0.246,0.5504 -0.0143,0.8979 0.2061,0.3093 1.0989,-0.4418 1.3655,-0.4418l2.9726 -1.126c0.606,-0.2296 2.1201,-1.0832 2.6739,-1.0832 0.019,0.1336 0.0705,0.3706 0.2276,0.3706 0.1941,-0.7794 1.9546,-1.0582 2.6171,-1.1687 0.6098,-0.1016 3.9216,-0.9234 4.2242,-0.4989 0.7094,-0.1217 1.2769,0.0143 1.9344,0.0143 0.0058,-0.0176 0.0108,-0.0227 0.0284,-0.0285 0,-0.2871 -0.6599,-0.8606 -0.9387,-0.8979l-1.0667 -0.1426c-0.54,-0.0722 -3.3709,0.7128 -3.3709,-0.3135 1.6742,0 3.7513,0.2402 5.3479,-0.171 0.3076,-0.0792 0.6858,0.943 1.1236,1.1972 0.2313,0.1342 0.5006,0.3255 0.7538,0.4133 0.1131,0.0392 0.7254,0.151 0.7254,0.228 -0.1919,0.0826 -0.484,0.0428 -0.6969,0.0428 -0.2438,0 0.7719,0.615 0.8818,0.6699 0.3611,0.1807 0.8776,0.5368 1.1663,0.8266 0.5952,0.0769 1.1101,0.5892 1.7495,0.2423 0.2416,-0.131 1.019,-0.7573 1.1947,-0.7696 0.6944,-0.0487 0.8821,0.4023 1.6215,-0.2851 0.7208,-0.67 0.483,-0.3256 1.2658,-0.2138 0.1567,0.3146 0.1125,0.6327 0.256,0.955 0.1304,0.2926 -0.2352,0.9264 0.256,0.9264 0.2808,-0.3518 0.3136,-0.6733 0.9245,-0.4704 0.8063,0.2677 1.2072,-0.4547 1.5219,0.5701 0.1653,0.5382 1.4534,0.412 1.8206,0.0428 0.6438,-0.4464 0.5831,-0.5268 0.5831,-1.297 0.5725,0 0.8931,-0.2172 1.3939,0.057 0.3735,0.2046 -0.3501,-0.8748 -0.0711,-1.1544 0.0643,-0.0644 0.2071,-0.0899 0.3762,-0.1104l0 0z"/>
 </g>
</svg>
