<?xml version="1.0" encoding="UTF-8"?>
<!DOCTYPE svg PUBLIC "-//W3C//DTD SVG 1.1//EN" "http://www.w3.org/Graphics/SVG/1.1/DTD/svg11.dtd">
<!-- Creator: CorelDRAW -->
<svg xmlns="http://www.w3.org/2000/svg" xml:space="preserve" width="297mm" height="210mm" style="shape-rendering:geometricPrecision; text-rendering:geometricPrecision; image-rendering:optimizeQuality; fill-rule:evenodd; clip-rule:evenodd"
viewBox="0 0 297 210"
 xmlns:xlink="http://www.w3.org/1999/xlink">
 <defs>
  <style type="text/css">
   <![CDATA[
    .str2 {stroke:#2F3133;stroke-width:0.1}
    .str1 {stroke:black;stroke-width:0.1;stroke-opacity:0.501961}
    .str0 {stroke:black;stroke-width:0.1}
    .str3 {stroke:black;stroke-width:0.5}
    .fil5 {fill:none}
    .fil0 {fill:white}
    .fil2 {fill:#1F1A17;fill-rule:nonzero}
    .fil3 {fill:#C2C1C1;fill-rule:nonzero}
    .fil4 {fill:white;fill-rule:nonzero}
    .fil6 {fill:black;fill-rule:nonzero}
    .fil1 {fill:white;fill-rule:nonzero;fill-opacity:0.501961}
   ]]>
  </style>
 </defs>
 <g id="Plan_x0020_1">
  <metadata id="CorelCorpID_0Corel-Layer"/>
  <path class="fil0 str0" d="M127.847 160.138l-0.0961 -15.988 5.2656 0c0.1179,-0.0213 0.24,-0.1204 0.3207,-0.1296 0.3731,-0.0425 0.614,0.0935 0.9072,0.2808 0.2607,0.1666 0.7513,0.2802 1.0584,0.324 0.0499,0.0998 0.5969,0.0356 0.7236,0.108l6.0804 -0.0432c0.3266,-0.0632 0.4613,-0.3665 0.7236,-0.432 0.1367,-0.2735 0.9071,0.0603 1.026,0.2268 0.1382,0 0.324,0.1496 0.4968,0.1512l2.16 0.0216c0.2579,0.0025 0.6787,-0.0286 0.9072,-0.1296 0.2582,-0.114 0.5506,-0.3694 0.81,-0.4212l21.7167 -0.1191c0.1356,0.0267 0.301,0.1959 0.4481,0.261 0.3384,0.15 0.7233,-0.0697 1.0618,-0.0819 0.1827,-0.0065 0.3586,-0.0327 0.5446,-0.0327 0.1604,0 0.2819,0.0417 0.4301,0.06 0.1393,0.1108 0.3513,0.0597 0.5064,0.0982l107.121 0.0275 0 0 0.4496 0 -0.0927 -94.7678 0.293 -11.4438 0.1856 -21.5251 0 0 -261.649 0.001 0 0 0 32.7177c-0.0067,0.0711 -0.0194,0.1145 -0.0194,0.1768 -0.0125,0.0041 -0.0232,0.0498 -0.0232,0.0698 -0.0947,0.0315 -0.2239,0.6998 -0.0464,0.7441 0,0.0789 0.595,0.2179 0.6962,0.5 0.1007,0.2809 0.2437,0.6153 0.2437,0.9302 0.0138,0.0046 0.046,0.1124 0.058,0.1395 0.0233,0.0523 0.0809,0.1266 0.0928,0.1745 0.0213,0.0053 0.0179,0.0019 0.0232,0.0232 0.0343,0.0085 0.047,0.0496 0.0813,0.0581 0.0081,0.0326 0.0405,0.051 0.0696,0.0582 0.0088,0.0354 0.3901,0.278 0.4409,0.2907l0 0.0232c0.0738,0.0246 0.0383,0.2196 0.058,0.2907 0.0277,0.1002 0.0705,0.2009 0.0929,0.2907 0.0797,0.0199 0.0986,0.2574 0.1856,0.2791 0.0059,0.0236 0.0574,0.0638 0.0812,0.0697 0.0211,0.0848 0.3264,0.3047 0.4062,0.3489 0.2767,0.1531 0.3448,0.3909 0.4989,0.6511 0.1515,0.0812 0.3465,0.2674 0.5222,0.2674 0.0254,0.0768 0.5949,0.1173 0.6382,0.2907 0.083,0.0207 0.0743,0.2176 0.1276,0.2442 0,0.7552 0.121,1.4862 0.2901,2.1627 0.0211,0.0052 0.0253,0.0181 0.0464,0.0233 0.006,0.0182 0.0323,0.0348 0.058,0.0348 0.0063,0.0253 0.043,0.0349 0.0696,0.0349 0.0234,0.0353 0.1021,0.0582 0.1625,0.0582 0.0674,-0.2034 0.4184,-0.1422 0.5686,-0.1047 0.1145,0.3437 0.1445,0.6832 0.232,1.0349 0.0225,0.0056 0.0293,0.0125 0.0348,0.0349 0.0255,0.0063 0.0634,0.0442 0.0697,0.0697 0.0218,0.0054 0.0363,0.0179 0.058,0.0233 0.0206,0.0825 0.458,0.0594 0.5453,0.093 0.2286,0.088 0.2831,0.3048 0.441,0.3837 0.0066,0.0334 0.0985,0.1976 0.116,0.2093 0,0.2407 0.1158,1.291 -0.1973,1.3953 0,0.0631 -0.068,0.268 0.0233,0.2907 0.0053,0.0213 0.0019,0.0179 0.0232,0.0232 0.0079,0.0319 0.0373,0.0215 0.0464,0.0582 0.7194,0.1798 0.8532,0.9086 0.7774,1.593 -0.0681,0.3118 -0.5471,0.8582 -0.8354,0.9302 -0.0086,0.0345 -0.0803,0.0539 -0.0929,0.1046 -0.0972,0.0324 -0.1824,0.476 -0.3249,0.5116 0,0.0254 0.0026,0.0285 -0.0232,0.0349 0,0.2651 0.9967,0.2048 1.0675,0.4883 0.0466,0.0116 0.0521,0.1959 0.0116,0.2093 0,0.0462 -0.048,0.0647 -0.058,0.1047 -0.1802,0.045 -0.1189,0.3022 -0.0928,0.407 0.0224,0.0056 0.0292,0.0124 0.0348,0.0348 0.1631,0.0407 0.2613,0.4929 0.3829,0.5233 0.0069,0.0277 0.0283,0.0436 0.0348,0.0697 0.1718,0.0429 0.3139,0.0349 0.499,0.0349l0.0116 0.0117c0.0951,0.3807 -0.098,0.3565 -0.1509,0.6743 -0.0557,0.0111 -0.0464,0.0582 -0.0928,0.0698 -0.0481,0.1445 -0.8594,0.4076 -0.9863,0.5116l-0.7658 0.6279c-0.0942,0.3768 0.5072,0.1461 0.7426,0.2907 0.2484,0.1527 0.6407,0.3194 0.9283,0.3604 0.0068,0.0273 0.0183,0.0293 0.0464,0.0349 0.0125,0.0502 0.3156,0.2427 0.3829,0.3023 0.0732,0.065 0.168,0.3973 0.1973,0.407l0 0.0349c0.0172,0.0057 0.0295,0.0369 0.0348,0.0581 0.0213,0.0053 0.0179,0.002 0.0232,0.0233l0.0116 0.0116c0.5521,0.138 1.1949,-0.082 1.5201,0.5698 0.0486,0.1841 0.4465,0.5337 0.6265,0.5697 0.0848,0.5955 0.3205,1.194 0.7195,1.6395 0.2259,0.2521 1.2017,0.6162 1.4968,0.6162 0.0642,-0.1284 0.2521,-0.2674 0.4293,-0.2674 0.007,0.021 0.0584,0.0124 0.0697,0.0465l0.0232 0c0,0.9593 1.2738,0.5731 1.9726,0.7326 0.0923,0.0211 0.2634,0.7728 0.5685,0.9767 0.6285,0.4198 0.1625,0.7503 0.1625,1.2325 0.0119,0.0039 0.0417,0.0205 0.0464,0.0349 1.192,0 0.6492,0.9455 1.4736,1.2209 0.4538,0.1515 0.8023,0.3225 1.0559,0.7209 0.2165,0.3403 0.363,0.738 0.8007,0.8255l2.0654 4.151c0.334,0.0648 0.6603,-0.3738 0.9399,-0.0232 0.1443,0.1811 0.3447,0.3522 0.4641,0.5697 0.17,0.3098 0.3504,0.6606 0.7078,0.7791 0.1366,0.0453 0.3845,0.1487 0.4642,0.279 0.1007,0.1644 0.0836,0.3417 0.1508,0.4768 -0.1999,0.0666 -0.292,0.3917 -0.2669,0.6162 0.0184,0.1641 0.0917,0.4287 -0.0812,0.5349 -0.4686,0.2881 0.1664,0.3572 0.2437,0.5581 0.0428,0.111 0.0366,0.2404 0.0232,0.3605 -0.0277,0.2464 0.1037,0.2035 0.2321,0.3837 0.0272,0.0146 0.1742,0.0823 0.1856,0.1279 0.0148,0.0037 0.02,0.0079 0.0348,0.0116 0.0037,0.0148 0.0079,0.0201 0.0116,0.0349 0.0183,0.0061 0.0232,0.0226 0.0232,0.0465 0.0414,0.0138 0.0464,0.2249 0.0464,0.2791 0.0175,0.0058 0.0531,0.1773 0.0581,0.1976 0.0139,0.0046 0.03,0.0272 0.0348,0.0465l0.0232 0c0.0412,0.1658 0.5994,-0.2834 0.6266,-0.1744 0.1718,0.0572 0.3392,0.5815 0.5569,0.7209 0.2597,0.1662 0.3872,0.1628 0.6846,0.1628 0.2469,0 0.7806,0.4448 0.9515,0.6163 0.3434,0.3445 -0.18,0.867 -0.2204,1.1511l-0.0348 0.0116c0,0.0398 -0.0349,0.0508 -0.0349,0.093 -0.0951,0.0317 0.1286,0.6222 0.2321,0.6861 0.6758,0.4176 0.2407,-0.0438 0.8587,-0.2675 0.4158,-0.1506 0.637,-0.346 0.7774,-0.7674 0.7265,-0.1816 2.4092,0.8685 1.5317,1.4535 0,0.0744 -0.0403,0.1378 -0.0581,0.2093 -0.377,0.0942 -0.2105,0.6599 0.0349,0.7209 0.2738,1.0952 1.066,0.6741 1.7869,0.279 0.0549,-0.0301 1.1031,0.4197 1.2067,0.5233 0.5677,0.5677 0.7614,-0.3436 1.1024,-0.6861 0.4075,-0.0394 0.7884,-0.1789 1.1951,-0.2325 0.1455,-0.0192 0.4433,-0.1181 0.5686,-0.0698 0.1285,0.0494 0.3272,0.2042 0.4409,0.2326 0.0379,0.1517 0.2342,0.2108 0.2321,0.4302l-0.0116 1.1395c-0.003,0.3058 -0.2692,0.3995 -0.3597,0.6628 -0.0528,0.1535 0.1494,0.3935 0.1044,0.6046l-0.4293 2.0115c-0.7486,0.1069 -1.0211,-0.082 -1.0211,0.8372 0.4794,0.1198 0.467,0.649 0.3713,1.0233 -0.129,0.504 0.4485,0.6034 -0.1508,1.1278 -0.0464,0.0419 -0.3084,0.3273 -0.3481,0.3372 -0.0065,0.0261 -0.0285,0.0322 -0.0349,0.0582l-0.0232 0.0116c0,0.279 -0.1987,0.2575 -0.0348,0.6279 0.2326,0.5259 0.2099,0.9197 0.0116,1.4418 -0.1455,0.3833 -0.5187,0.6281 -0.3481,1.0465 0.2713,0.6657 -0.4757,0.882 -0.4757,1.4301 0,0.2414 0.1516,0.4322 0.1044,0.6977 -0.046,0.2583 -0.0628,0.4522 -0.0116,0.7093 0.035,0.0087 0.0419,0.038 0.0464,0.0697 0.191,0.0636 0.071,0.75 0.0348,0.8954 -0.0139,0.1082 -0.1178,0.3988 -0.2436,0.4302 -0.0505,0.202 -0.5833,-0.0758 -0.6382,-0.1861 -0.1337,-0.0191 -0.1508,-0.0725 -0.3017,-0.0348 -0.0416,0.0832 -0.1277,0.2214 -0.1277,0.3255 -0.0139,0.0046 -0.03,0.0272 -0.0348,0.0465 -0.0211,0.0052 -0.5217,0.4159 -0.3249,0.4651 0.0055,0.0224 0.0123,0.0293 0.0348,0.0349l0.1741 0.593c0.8111,0.1351 1.1948,0.5557 0.9979,1.3488 -0.1247,0.5025 0.0207,0.4465 -0.4409,0.7907 -0.2206,0.1644 -0.5606,0.4745 -0.4874,0.7674 1.1132,0.2783 0.2837,0.2282 0.4758,1 0.1396,0.0349 0.1314,0.1744 0.3597,0.1744 0.0958,0 0.3815,-0.1298 0.4525,-0.0233 0.1303,0 0.6317,0.4591 0.7542,0.5581 0.5024,0.4059 0.1163,0.7673 -0.2552,1.0349 -0.1562,0.1124 0.3264,0.979 0.4641,1.1511 0.0563,0.0671 0.2052,0.2774 0.2785,0.314 0.0818,0.3273 0.0983,0.2773 -0.0232,0.6162 -0.0298,0.0831 -0.2581,0.6897 -0.2901,0.6977 -0.028,0.1123 -0.6993,-0.221 -0.8123,-0.221 -0.1625,0 -0.1647,0.2907 -0.4525,0.2907 -0.1297,0 -1.0339,0.0579 -1.0443,0.1861 -0.0171,0.2119 0.06,0.268 -0.0116,0.4883 -0.0561,0.1729 -0.3037,0.3098 -0.3365,0.4419 -0.0777,0.0194 -0.6211,0.8624 -0.7194,0.9999 -0.3228,0.4517 -0.0933,0.5583 0.3713,0.6744 0.0048,0.0194 0.0077,0.0298 0.0232,0.0349 0,0.3468 0.0285,1.0116 0.5454,1.0116 0.6107,0 0.593,0.5563 0.4061,0.9302 -0.0721,0.018 -0.4067,0.2122 -0.2785,0.2442 0.0503,0.1511 0.2669,0.1187 0.2669,0.407 0,0.9328 -1.1345,0.5599 -1.2648,1.0813 -0.156,0.039 -0.0341,0.3889 -0.0232,0.4767 0.0924,0.1104 0.3829,0.2838 0.3829,0.4303 0.1368,0.0456 -0.2361,0.4905 -0.2437,0.5581 -0.0319,0.2834 -0.1624,0.6776 -0.1624,0.9302 0,0.6684 0.6027,0.0612 0.6846,-0.1861 0.0423,0 0.0807,0.0117 0.116,0.0117 0.363,1.452 1.3576,-0.8511 1.3576,0.7674l0.0232 0c0.0059,0.0178 -0.0003,0.0116 0.0232,0.0116 0.0284,0.0852 0.3091,-0.1597 0.4294,-0.0232 0.2148,0.244 -0.0022,0.8171 0.174,1.0464 0.4343,0.5655 1.107,0.1856 1.5085,1.093 0.2817,0.6365 0.5555,0.7458 1.0327,0.2675 0.2831,-0.2839 0.6882,-0.1662 0.9167,-0.5349 0.217,-0.3499 0.3421,-1.7935 0.6265,-1.8255 0.4344,-0.049 1.172,0.8239 1.172,-0.1047 0.2702,-0.09 0.8299,-0.0145 1.0559,-0.2558 0.1942,-0.2073 0.0431,-0.7006 0.3133,-0.7209 0.628,-0.0471 0.8342,-0.3861 0.9399,-0.9767 0.1051,-0.5866 0.7795,-0.742 1.2183,-1.093 0.0263,-0.0274 0.1451,-0.2093 0.1625,-0.2209 0,-0.8182 -0.2384,-0.9615 0.4989,-1.4186 0.46,-0.2853 0.3404,0.0286 0.4758,0.3605 0.0903,0.2211 0.5798,-0.2615 0.8702,-0.1163l0.2437 0.8953c0.0213,0.0053 0.0179,0.002 0.0232,0.0233 0.021,0.0052 0.0254,0.018 0.0464,0.0232 0.0287,0.1154 0.5026,0.2722 0.5802,0.4884 0.0964,0.2689 -0.1952,0.4562 -0.1508,0.7674 0.5946,0.2973 0.8821,-0.6951 1.404,0.3488 0.1896,0.0379 0.372,0.1163 0.5802,0.1163 0.0066,0.0199 0.0388,0.0273 0.0464,0.0582 0.2174,0.0724 0.2693,0.6224 0.0348,0.779 -0.362,0.2419 -0.1902,0.6854 -0.3481,0.7907 0,0.3857 -0.1863,0.5429 -0.0812,0.9651l0.0232 0.0116 0.0348 0c0.016,0.0481 1.2067,-0.1417 1.2067,0.0581 0.1153,0.0384 0.1246,1.2413 -0.0464,1.4302 -0.7839,0.8655 0.1533,0.8876 -0.0232,1.5348 -0.0381,0.1975 -0.0813,0.2435 -0.0348,0.4303l0.3945 0.1279c0.0749,0.0107 0.101,0.0996 0.1509,0.1162 0.0042,0.0299 -0.0062,0.0276 0.0232,0.0349 0.0075,0.0532 0.0456,0.0896 0.058,0.1395 0.0459,0.0153 0.0749,0.184 0.116,0.1977 0.0485,0.3409 0.1045,0.5897 0.1045,0.9651 0,0.6117 -0.4602,0.9367 0.1276,1.4651 0.2293,0.206 0.7508,0.9176 0.9979,0.9999 0,0.377 -0.3621,0.6167 0.1044,0.9535 0.5135,0.3706 0.6671,1.0054 1.0675,1.3139 0.6068,0.4677 0.673,0.5864 0.673,1.3372 0.0761,0.0504 0.4194,0.4334 0.4642,0.5232 0.0277,0.022 0.0943,0.0876 0.116,0.093 0,0.0215 0.0088,0.0534 0.0232,0.0582 0,0.3777 0.138,0.965 0.615,0.965 0.2066,0 0.4144,-0.3042 0.6034,-0.0581 0.1848,0.2405 -0.0696,0.3608 -0.0696,0.5698 -0.0789,0.0263 0.0629,0.2403 0.0696,0.2674 0.0766,0.0191 0.1529,0.0848 0.2321,0.1046 0.0079,0.0318 0.0482,0.0306 0.058,0.0698 0.1379,0.0344 0.2224,0.5116 0.4061,0.5116 0.0693,0.104 0.4805,-0.0351 0.615,0.0116 0.235,0.0818 0.0316,0.7452 0.1044,0.9651 0.1769,0.5345 0.1509,1.0614 0.1509,1.6628 0,1.1475 -0.9024,0.5508 -1.0327,0.9418 -0.0211,0.0052 -0.0254,0.018 -0.0465,0.0232 -0.1284,0.3874 0.0337,0.5038 0.2785,0.814 0.1244,0.1575 0.2565,0.9392 0.3133,0.9534 0.0268,0.1881 0.3071,0.3457 0.3365,0.5814 0.1041,0.01 0.445,0.0859 0.4758,0.2093 0.0499,0.0166 0.1631,0.5859 0.174,0.6628 0.2345,0.1172 0.5799,0.0436 0.8239,0.1046 0.0538,0.3781 0.653,0.35 0.6846,0.4767 0.0434,0.0108 0.0762,0.0604 0.1044,0.0698 0.0128,0.064 0.1204,0.3652 0,0.3953 -0.0139,0.1116 -0.0696,0.181 -0.0696,0.3024 0.057,0.019 0.1338,0.2051 0.1972,0.2209 0.0064,0.0257 0.0094,0.0232 0.0348,0.0232 0.0396,0.0597 0.1533,-0.0403 0.1973,-0.0465l0.8703 -0.6627c0.8701,-0.6625 2.1739,-0.0286 2.6107,0.8488 0.1112,0.0222 0.2095,0.0958 0.3365,0.1046 0.0416,0.0028 0.293,-0.0002 0.3017,0.0349 0.0213,0.0053 0.0179,0.0019 0.0232,0.0232 0.0226,0.0075 0.0006,0.0042 0.0232,0.0117 0.0053,0.0214 0.002,0.0179 0.0233,0.0232 0.0048,0.0194 0.0077,0.0298 0.0232,0.0349 0,0.6962 0.3336,0.3596 0.4177,0.6977l0.1972 0.5813c0.1082,0.036 0.0345,0.7031 0.1045,0.8605 0.1424,0.3198 1.5997,2.4774 0.9979,2.6278 -0.0119,0.0477 -0.0859,0.037 -0.0929,0.0581 -0.6287,0 -0.4765,0.4278 -0.3945,0.7558 0.0244,0.0061 0.0625,0.0136 0.0696,0.0349 0.1801,0.0256 0.1481,0.3957 0.2437,0.5232 0.2095,0.1512 0.3457,0.1071 0.5686,0.1628 0,0.5458 -0.313,1.0703 0.5686,1.2907 0.0318,0.1273 0.058,0.1723 0.058,0.3256l-0.3017 0.3488c-0.2001,0.05 0.2669,1.0274 0.2669,1.279 0,1.0481 1.5027,1.0129 1.9726,1.5465 0.2255,0.256 0.532,0.2539 0.7078,0.4767 0.0356,0.045 0.7296,1.5876 0.9979,1.1511 0.1769,-0.288 0.6418,-0.7605 0.4873,-1.1627 -0.3341,-0.8701 -0.4588,-0.8266 0.0232,-1.7093 0.4538,-0.8308 0.8121,-0.884 1.6013,-1.0813 0.0661,-0.2657 0.3294,-0.4829 0.4641,-0.6861 0.2798,0 0.6699,0.4018 0.8703,0.5814 0.1414,0.1266 0.3686,0.1397 0.5338,0.0465 0.0651,-0.0368 0.5291,-0.3093 0.5569,-0.1976 0.0324,0.0081 0.014,0.0267 0.0464,0.0348 0.0123,0.0494 0.0749,0.0831 0.0813,0.1279 0.3277,0.0819 1.3695,0.4633 1.6361,0.2558 0.1807,0.0849 0.5446,0.1279 0.731,0.1745 0.2232,0.8929 0.6756,-0.0233 1.1023,-0.0233 0.1028,0.4114 1.2488,0.6559 1.5781,0.8372 0.4806,0.2645 0.7325,-1.3395 0.789,-1.6511 0.1325,-0.7307 0.0798,-1.0014 0.8819,-1.0465 0.5433,-0.0306 1.6013,-1.9725 2.1234,-0.3953 0.1178,0.3557 0.3489,0.4518 0.7194,0.3953 0.3705,-0.0565 1.2258,-0.1861 1.4853,0.1744 0.5155,0.7159 0.5857,-0.203 1.0211,-0.0465 0.1087,0.0391 0.8921,0.4063 0.6846,-0.0116 -0.3163,-0.6368 0.5254,-0.5894 0.8122,-0.2326 0.6213,0.7731 1.1646,-0.5116 1.4272,-0.5116 0.3564,0 1.4084,-0.343 1.4389,-0.2209 0.3998,0.0999 0.6577,1.5196 0.9979,1.6046 0.0623,0.2494 0.5134,-0.2329 0.5918,-0.2791 0.266,-0.1571 0.5686,-0.0281 0.8006,-0.3023 0.4044,-0.4777 0.8401,-0.2427 1.288,-0.7441 0.229,-0.2565 0.9054,0.111 1.2067,0.1279 0.4762,0.0267 0.8525,-0.2907 1.2996,-0.2907 0.7793,0 1.3371,0.5813 2.1003,0.5813 0.5674,0 1.2294,-0.1884 0.3481,-0.5232 -0.6802,-0.2583 -1.2303,-1.0194 -0.8007,-1.7209 0.1354,-0.221 0.008,-0.9185 0.1277,-0.9185 0.4307,0 0.7426,-0.2692 0.7426,-0.7442 -0.0084,-0.2876 -0.2332,-0.518 -0.2553,-0.8139 -0.0109,-0.1454 0.7167,-0.698 0.8587,-0.7674 0.2225,-0.1086 0.7275,0.5945 0.7774,0.2441 0.3673,-0.0918 -0.0397,-1.2623 0.8703,-1.0348 0.0369,0.1476 0.1591,0.5292 0.2552,0.6628 0.1309,0.1817 0.5541,-0.0353 0.5918,-0.1861 0.1155,0 0.6938,0.8522 0.8123,1.0116 0.2327,0.3127 0.5332,0.401 0.4293,0.8372 -0.2177,0.9144 0.216,0.3662 0.6614,0.872 0.3654,0.4148 0.0923,0.7317 0.2088,1.1977 0.2435,0.0974 -0.0189,0.6924 0.2553,0.8139 0.2723,0.1208 0.3472,-0.0908 0.6034,0.1395 0.2448,0.22 0.3493,0.6098 0.6382,0.8721 0.3629,0.3297 0.8349,0.2453 0.615,0.907 -0.0289,0.1781 -0.0187,0.2607 0.0917,0.3908 0.048,0.0567 0.0974,0.101 0.1579,0.1474 0.0632,0.0483 0.1467,0.0622 0.2069,0.1091 0.1482,0.0122 0.3129,0.1336 0.452,0.18 0.1584,0.0529 0.3235,0.1178 0.4846,0.1583l0.441 0.1309 0 0z"/>
 </g>
</svg>
