<?xml version="1.0" encoding="UTF-8"?>
<!DOCTYPE svg PUBLIC "-//W3C//DTD SVG 1.1//EN" "http://www.w3.org/Graphics/SVG/1.1/DTD/svg11.dtd">
<!-- Creator: CorelDRAW -->
<svg xmlns="http://www.w3.org/2000/svg" xml:space="preserve" width="297mm" height="210mm" style="shape-rendering:geometricPrecision; text-rendering:geometricPrecision; image-rendering:optimizeQuality; fill-rule:evenodd; clip-rule:evenodd"
viewBox="0 0 297 210"
 xmlns:xlink="http://www.w3.org/1999/xlink">
 <defs>
  <style type="text/css">
   <![CDATA[
    .str2 {stroke:#2F3133;stroke-width:0.1}
    .str1 {stroke:black;stroke-width:0.1;stroke-opacity:0.501961}
    .str0 {stroke:black;stroke-width:0.1}
    .str3 {stroke:black;stroke-width:0.5}
    .fil5 {fill:none}
    .fil0 {fill:white}
    .fil2 {fill:#1F1A17;fill-rule:nonzero}
    .fil3 {fill:#C2C1C1;fill-rule:nonzero}
    .fil4 {fill:white;fill-rule:nonzero}
    .fil6 {fill:black;fill-rule:nonzero}
    .fil1 {fill:white;fill-rule:nonzero;fill-opacity:0.501961}
   ]]>
  </style>
 </defs>
 <g id="Plan_x0020_1">
  <metadata id="CorelCorpID_0Corel-Layer"/>
  <path class="fil0 str0" d="M22.3608 107.341l57.653 0 0.145 38.0649 0 0 194.867 -0.1217 0 0c-0.0089,-0.0398 -0.018,-0.0797 -0.0269,-0.1195 -0.0948,-0.4206 -0.665,-0.5686 -1.0037,-0.8133 -0.4905,-0.3543 -1.2456,0.2068 -1.7336,-0.1188 -0.3239,-0.2162 -0.4056,-0.3445 -0.52,-0.7129 -0.091,-0.2934 0.1555,-0.451 0.2828,-0.6122 0.0865,-0.1094 0.0039,-0.5934 0.0456,-0.6946 0.1467,-0.3566 0.143,-0.4909 0.438,-0.7859 0.1491,-0.1491 0.2664,-0.5968 0.146,-0.7859 -0.1981,-0.3109 -0.873,0.0939 -1.1588,-0.2559 -0.1968,-0.2407 0.0164,-0.8465 -0.2555,-1.051 -0.281,-0.2115 -1.2956,-0.7298 -1.2956,-1.1057 0,-0.6507 0.8976,-1.5553 -0.0456,-2.0563 -0.3261,-0.1733 -0.9271,-0.1476 -1.3139,-0.2467 -0.6902,-0.177 -0.8554,-0.3683 -0.6844,-0.9596 0.0924,-0.3194 0.4199,-0.8355 -0.1186,-0.7311 -0.6957,0.1348 -1.0968,-0.8019 -1.5055,-0.7036 -0.4177,0.1004 -1.6863,0.5452 -1.396,-0.2011 0.2616,-0.6723 1.1194,-0.2139 0.958,-1.2794 -0.026,-0.1721 -0.2451,-0.335 -0.3284,-0.5026 -0.1755,-0.3535 -0.0285,-0.8164 -0.3741,-1.1241 -0.7247,-0.6451 0.0102,-0.979 -0.1278,-1.6358 -0.1006,-0.4793 -1.052,-0.7928 -1.1679,-1.2977 -0.0384,-0.1671 -0.0839,-0.5036 -0.1577,-0.8662 0.3803,-0.2756 0.757,-0.3709 1.0968,-0.7148 0.2896,-0.293 0.073,-0.7804 0.073,-1.188 0,-0.0285 0.0006,-0.0571 -0.0015,-0.0915 -0.1638,-0.3821 -0.5556,-0.5103 -0.9741,-0.2114 -0.0312,0.0702 -0.0642,0.1936 -0.108,0.2484 -0.0324,0.2595 0,0.5292 0,0.7992l-0.0108 0.0324c-0.0289,0.0361 -0.0521,0.0885 -0.0756,0.1296 -0.0918,0.0524 -0.1971,0.0766 -0.3123,0.0461 -0.1262,-0.2059 -0.2876,-0.308 -0.4969,-0.2034 -0.2757,0.1377 -0.7302,0.1308 -0.9855,-0.0457 -0.3989,-0.276 0.1301,-0.7268 -0.1368,-1.2063 -0.285,-0.5118 -0.3386,-0.6531 -0.008,-0.8947l0 0c0.0575,-0.0421 0.1269,-0.0873 0.2087,-0.138 1.1498,-0.7134 -0.0198,-0.8037 -0.1277,-1.3343 -0.0862,-0.4244 -0.3098,-1.3663 -0.8486,-1.4896 -0.0627,-0.0143 -0.4559,-0.1107 -0.5292,-0.1279 -0.3132,-0.0735 -0.4471,-0.1158 -0.6661,-0.3381 -0.3157,-0.3206 -0.324,-0.5372 -0.4288,-0.9596 -0.1891,-0.7621 -1.104,-0.3903 -1.104,-1.3617 0,-0.8253 0.3373,-0.6663 0.8668,-1.0326 0.3171,-0.2194 0.7846,-0.5079 0.7846,-0.9413 0,-0.3021 -0.2333,-0.4988 -0.3467,-0.7403 -0.2139,-0.4557 0.3986,-0.7104 0.2646,-1.124 -0.1605,-0.4951 -0.8146,-0.9382 -0.3193,-1.1606 0.2646,-0.1187 0.5292,-0.2377 0.7938,-0.3564 0.1835,-0.0824 0.3881,-0.7327 0.1916,-0.9687 -0.1312,-0.1577 -0.4558,-0.4659 -0.5931,-0.6215 -0.5363,-0.6081 -0.2722,-1.1021 0.0183,-1.7089 0.5854,-1.2228 -1.5539,-0.9991 -0.9946,-2.1842 0.2592,-0.5492 0.3685,-0.6952 -0.1916,-1.0509 -0.5074,-0.3221 -0.2419,-0.4809 0,-0.9504 0.2633,-0.5112 0.4122,-0.744 0.1916,-1.4074 -0.1919,-0.5768 -0.7805,-1.4868 -0.4471,-2.0653 0.3492,-0.6057 1.7427,0.039 1.095,-0.8682 -0.5347,-0.7491 -1.9939,0.275 -2.4545,-0.7128 -0.2414,-0.5176 0.1375,-0.6006 0.3832,-0.923 0.2481,-0.3254 -0.0327,-0.7481 -0.1186,-1.0692 -0.0335,-0.1256 -0.087,-0.2431 -0.0821,-0.3656 0.0165,-0.413 0.8506,-0.5066 1.1588,-0.6945 0.2753,-0.1677 0.3615,-1.0628 0.1277,-1.2703 -0.267,-0.2368 -0.6286,-0.1733 -0.9671,-0.2559 -0.2717,-0.0663 -1.5481,-0.7791 -1.4873,-1.0966 0.052,-0.2718 0.8426,-0.2781 0.9854,-0.6306 0.1229,-0.3033 -0.1349,-0.6636 -0.1916,-0.9596 -0.0478,-0.25 0.0615,-0.3897 0.1734,-0.6031 0.2151,-0.4099 -0.2829,-0.6555 -0.0821,-0.9961 0.288,-0.4882 0.6715,-0.6492 0.1368,-1.0784 -0.2762,-0.2218 -0.5492,-0.0548 -0.9215,-0.0548 -0.4223,0 -0.8136,-0.233 -1.2227,-0.3656 -0.2672,-0.0865 -0.5478,-0.9465 -0.6843,-1.1971 -0.15,-0.2751 -0.2636,-0.4161 -0.6752,-0.5027 -0.5824,-0.1225 -1.1165,-0.4814 -1.3595,-1.0326 -0.2465,-0.5594 0.237,-0.6514 0.4653,-1.051 0.4651,-0.8137 -1.3835,-0.9608 -1.1679,-1.8277 0.0476,-0.1914 1.3278,-1.5667 0.6478,-1.7364 -0.1119,-0.0279 -0.4019,-0.2463 -0.5109,-0.3473 -0.1798,-0.1664 -0.3204,-0.626 -0.219,-0.8316 0.1765,-0.3575 0.7565,-0.3854 0.9124,-0.7402 0.0811,-0.1845 -0.1156,-0.7967 -0.2007,-0.9778 -0.2019,-0.4299 0.0638,-1.2514 0.5383,-1.38 0.442,-0.1199 0.4847,-0.6917 0.3741,-1.0509 -0.1757,-0.5709 -1.3686,-0.3776 -1.3686,-1.0967 0,-0.1865 0.2409,-0.719 0.1277,-0.859 -0.1645,-0.2036 -0.3995,-0.4313 -0.5839,-0.5209 -0.276,-0.134 -0.5038,-0.5904 -0.584,-0.8225 -0.087,-0.2515 -0.6136,-0.9198 -0.3102,-1.1241 0.1414,-0.0951 0.7347,-0.0307 0.7573,-0.1919 0.0635,-0.4522 -0.6153,-0.8028 -0.3376,-1.2337 0.2921,-0.453 0.4131,-0.9723 -0.1095,-1.1789 -0.4191,-0.1658 -1.0037,-0.035 -1.25,-0.4661 -0.2592,-0.4534 -0.8325,-0.1247 -1.2044,-0.3015 -0.3508,-0.1669 -0.1023,-0.7245 -0.2008,-1.0784 -0.1916,-0.6888 -0.7861,-0.2549 -0.9945,-0.9321 -0.0877,-0.285 -0.0912,-0.5221 -0.0912,-0.8225 0,-0.3394 0.3221,-0.524 0.3649,-0.8408 0.025,-0.1847 0.0691,-1.2264 -0.1642,-1.2428 -0.6517,-0.0458 -0.9466,-0.2082 -1.3139,-0.7037 -0.2426,-0.3271 -0.7952,-0.4596 -0.9124,-0.8682 -0.0762,-0.266 0.0738,-0.5057 -0.0639,-0.8682 -0.3004,-0.7908 -0.3936,-0.9136 0.2372,-1.5444 0.4827,-0.4827 0.818,-0.8141 0.4745,-1.3799 -0.3457,-0.5692 -1.2515,-0.2725 -1.2227,-1.1972 0.0105,-0.3369 0.0032,-0.5822 -0.0182,-0.8956 -0.0024,-0.0355 -0.0121,-0.0474 -0.0365,-0.0731 -0.5984,-0.6283 -1.6744,-0.602 -1.4325,-1.7181 0.0407,-0.1878 0.2739,-0.2937 0.3285,-0.4661 0.1371,-0.4321 -0.0142,-0.4997 -0.1095,-0.9504 -0.1528,-0.7228 0.673,-0.9382 0.9306,-1.5536 0.4205,-1.0046 -0.1104,-1.772 -1.0675,-1.9556 -0.411,-0.0788 -0.917,0.1186 -1.3968,0.2503 -0.575,0.1578 -1.1125,0.2215 -1.4044,-0.3966 -0.1579,-0.3345 -0.3489,-0.7689 -0.6022,-0.9961 -0.0239,-0.0214 -0.0411,-0.036 -0.073,-0.0365 -1.1908,-0.0193 -2.0597,1.4623 -2.5274,-0.0366 -0.5702,-1.8276 -2.4362,-1.9891 -2.4362,-3.4544 0,-0.7338 1.0894,-1.9587 -0.2828,-2.1293 -0.9262,-0.1152 -2.5598,0.5784 -2.4727,-0.9779 0.011,-0.1976 0.0986,-0.2527 0.0183,-0.4021 -0.1869,-0.348 -0.3282,-0.2816 -0.7026,-0.4112 -0.2372,-0.082 -0.2612,-0.4335 -0.5383,-0.5575 -0.8049,-0.3605 -1.5338,-0.4692 -2.3541,0.0549 -0.317,0.2026 -0.5877,0.2707 -0.8577,-0.064 -0.4093,-0.5071 0.3043,-1.3122 -0.7664,-1.4256 -1.0917,-0.1157 -2.1837,-0.2316 -3.2756,-0.3473 -0.5309,-0.0563 -1.0049,-0.1796 -1.3413,-0.6123 -0.2229,-0.2869 -0.4347,-0.8063 -0.7847,-0.8408 -1.5375,-0.1516 -0.853,-1.2818 -1.8066,-1.7729 -0.0456,-0.0235 -0.0966,-0.0858 -0.1369,-0.1188 -0.0296,-0.0241 -0.063,-0.0484 -0.1003,-0.0548 -0.2916,-0.0499 -0.5097,0.122 -0.7938,0.0274 -0.2865,-0.0953 -0.4668,-0.3073 -0.7391,-0.3838 -0.4148,-0.1165 -0.9758,0.188 -1.3321,0.3564 -0.438,0.2071 -1.2846,-0.6959 -1.8888,-0.5757 -0.3202,0.0637 -0.3687,0.4773 -0.6569,0.6214 -0.4378,0.2189 -0.6071,0.0099 -1.0402,0.0366 -0.1207,0.0074 -0.2414,0.015 -0.3621,0.0224 -0.1914,-0.0797 -0.8959,-0.2947 -1.0659,-0.283 -0.668,0.0461 -1.2321,0.3366 -1.8742,0.0155 -0.7501,0 -1.4718,0.2571 -2.214,0.1728 -0.7727,-0.0877 -2.1415,0.3278 -2.8188,-0.0108 -0.4021,0 -0.7773,-0.2181 -1.1556,-0.324 -0.4751,-0.1331 -0.8477,0.1223 -1.2852,0.162 -0.1326,0.0796 -0.273,0.1139 -0.4104,0.1728l-0.8122 0.7028c-1.0255,1.4821 -1.7277,2.7279 -3.8231,2.6777 -1.6437,-0.0394 -2.7639,-1.2948 -3.6588,-2.5497 -0.1251,-0.1755 -0.2951,0 -0.4836,0 -0.2774,0 -0.5489,-0.2136 -0.7938,-0.329 -0.0516,-0.0243 -0.1034,-0.0488 -0.1551,-0.0731 -0.2636,-0.1243 -1.0349,-0.4135 -1.3322,-0.5484 -0.7785,-0.3533 -1.5572,-0.7067 -2.3358,-1.06 -0.6235,-0.283 -1.0033,-0.8413 -1.688,-1.1058 -0.7724,-0.2985 -2.4055,-0.5919 -2.7464,-1.3708 -0.2788,-0.6371 -0.5579,-1.2742 -0.8367,-1.9114l-15.0486 0.18 -32.4075 -0.174 -30.4149 -0.066 -8.0073 -0.217 -10.2978 0.196 -27.1005 -0.087 -37.2823 -0.0453 0 0 0.1006 77.6846 0 0z"/>
 </g>
</svg>
