<?xml version="1.0" encoding="UTF-8"?>
<!DOCTYPE svg PUBLIC "-//W3C//DTD SVG 1.1//EN" "http://www.w3.org/Graphics/SVG/1.1/DTD/svg11.dtd">
<!-- Creator: CorelDRAW -->
<svg xmlns="http://www.w3.org/2000/svg" xml:space="preserve" width="210mm" height="297mm" style="shape-rendering:geometricPrecision; text-rendering:geometricPrecision; image-rendering:optimizeQuality; fill-rule:evenodd; clip-rule:evenodd"
viewBox="0 0 210 297"
 xmlns:xlink="http://www.w3.org/1999/xlink">
 <defs>
  <style type="text/css">
   <![CDATA[
    .str2 {stroke:#2F3133;stroke-width:0.1}
    .str1 {stroke:black;stroke-width:0.1;stroke-opacity:0.501961}
    .str0 {stroke:black;stroke-width:0.1}
    .str3 {stroke:black;stroke-width:0.5}
    .fil5 {fill:none}
    .fil0 {fill:white}
    .fil2 {fill:#1F1A17;fill-rule:nonzero}
    .fil3 {fill:#C2C1C1;fill-rule:nonzero}
    .fil4 {fill:white;fill-rule:nonzero}
    .fil6 {fill:black;fill-rule:nonzero}
    .fil1 {fill:white;fill-rule:nonzero;fill-opacity:0.501961}
   ]]>
  </style>
 </defs>
 <g id="Plan_x0020_1">
  <metadata id="CorelCorpID_0Corel-Layer"/>
  <path class="fil0 str0" d="M171.783 258.921l0 0c-0.235,-0.9643 -0.6149,-2.2816 -1.3721,-3.0822 -0.2807,-0.2967 -0.7855,-1.8112 -0.8223,-2.2678l0 0c0.0476,-0.1632 0.0954,-0.3263 0.143,-0.4894 0.0295,-0.101 0.0412,-0.2209 0.0715,-0.3223 0.0034,-0.0117 0.0249,-0.0305 0.0358,-0.0358 0.0379,-0.0183 0.1165,-0.0699 0.1549,-0.0955 0.0789,-0.0526 0.1227,-0.0788 0.1668,-0.1671 0.0753,-0.1509 0.0123,-0.4902 -0.0715,-0.6326 -0.1103,-0.1876 -0.171,-0.4046 -0.2979,-0.5848 -0.4,-0.5676 0.2315,-0.3864 0.429,-0.8594 0.2066,-0.4951 -0.3952,-0.8221 -0.572,-1.1578 -0.1156,-0.2197 -0.1823,-0.4837 -0.2979,-0.7161 -0.2321,-0.4667 0.0287,-0.606 0.0596,-1.0504 0.0416,-0.5987 -0.6164,-0.4763 -0.5244,-1.0503 0.0357,-0.2227 0.0716,-0.4456 0.1073,-0.6684 0.0914,-0.5697 0.0734,-1.2583 0.0238,-1.8023 -0.0315,-0.3456 -0.4901,-0.5695 -0.3336,-0.8713 0.1039,-0.2002 0.3037,-0.4481 0.2979,-0.6804 -0.0071,-0.286 -0.2317,-0.542 0.0477,-0.7281 0.1425,-0.095 0.5789,-0.4866 0.7269,-0.5013 0.1461,-0.0146 0.3779,-0.0325 0.3098,-0.2387 -0.0866,-0.2618 -0.4826,-0.4377 -0.6792,-0.6206 -0.2653,-0.2466 -0.693,-0.6622 -0.7627,-1.0265 -0.0306,-0.16 -0.0088,-0.4002 -0.1073,-0.5371 -0.1499,-0.2081 -0.5005,-0.1017 -0.5005,-0.4655 0,-0.2872 -0.0277,-0.4927 -0.1072,-0.752 -0.0752,-0.245 -0.2448,-0.5198 -0.1311,-0.7997 0.0498,-0.1226 0.086,-0.7103 0.1907,-0.7639 0.0289,-0.0148 0.1115,-0.2186 0.1191,-0.2387l0 0 0.2119 -0.2494c-0.3804,-0.7231 -0.1747,-1.0687 -0.3787,-1.2903 -1.4267,-1.55 0.6058,-1.2055 1.4777,-1.7546 0.6579,-0.1311 0.8061,-0.5798 1.2155,-0.7161 0.3475,-0.1157 0.4393,0.319 0.7293,0.3836 0.0966,0.0215 0.2235,-0.0494 0.3785,-0.127 0.3707,-0.1857 0.7955,-0.5955 1.1967,-0.7168 0.5159,-0.156 1.0174,0.0132 1.5684,0.1498 0.0486,0.2904 -0.0353,0.2114 -0.0953,0.4536l-0.0357 0.0119 0 0.0955 0.0119 0.012c0.3265,0 0.651,-0.1814 0.9652,-0.2626 0.4806,-0.1241 0.4054,0.2506 0.715,0.2506 0.7109,0 0.7032,-0.7342 1.716,-0.4655 0.8154,0.2164 2.4771,1.5809 2.2881,2.5662 -0.0944,0.4918 1.0479,1.3123 1.4777,1.5517 0.2455,0.1368 0.8518,0.3924 1.4736,0.3422 0.6747,-0.0545 1.3659,-0.4295 1.577,-0.6406 0.6722,-0.6722 0.4292,-2.6255 1.299,-3.6404 0.0528,-0.2141 0.236,-0.3174 0.3869,-0.538 0.172,-0.2513 0.3207,-0.621 0.5072,-0.873 0.1422,-0.1923 0.3249,-0.338 0.3843,-0.5521l0.1362 -28.1599 0 0 -0.3775 -107.33 0.4229 -3.2772 0.2798 -70.9755 0 0 -18.0734 -0.1261 -2.4234 -0.1842 -4.4927 -0.0239 -3.3009 0.2388 -3.3725 -0.1075 -15.1341 -0.0955 -3.4918 0.1433 -9.2593 -0.191 -24.3102 0.0239 0 0 -56.8192 0.1432 -7.7221 0.0239 -1.0368 -0.0716 -0.9057 0.0477 -2.4671 -0.191 -12.2266 0.0716 -2.0475 0.1373 0 0 0.0216 10.1275c-0.0486,0.3879 -0.0473,0.7293 -0.0473,1.122 0.2235,0.2787 0.0867,1.0914 0.0954,1.4562l0.0357 1.5039c-0.0305,0.0408 -0.0357,0.2987 -0.0357,0.3581 -0.012,0.016 -0.0118,0.0198 -0.0239,0.0358 0,0.1128 -0.025,0.2507 -0.0357,0.37l0.083 9.9783 -0.0115 1.4323 -0.0123 10.4558 0.0715 8.6176 0.0476 8.8803 -0.1068 1.0622 0.1192 5.586 -0.0596 1.862 0.0472 9.0831 -0.369 2.5543 0.0472 36.1691 55.8147 49.8603 94.6254 90.421 0 0c-0.0249,-0.1838 -0.0618,-0.3697 -0.0618,-0.5525 0,-0.7907 0.581,-0.7316 0.8223,-1.3965 0.2983,-0.8217 -1.3507,-1.0018 -1.0606,-1.5516 0.1029,-0.195 0.281,-0.3079 0.4767,-0.4059 0.2569,-0.1285 0.5668,-0.0763 0.8341,-0.1432 0.6454,-0.1614 0.727,-0.7077 0.727,-1.301 0,-0.9364 -0.1921,-2.228 -0.4171,-3.1391 -0.0289,-0.1174 -0.0194,-0.2437 -0.0477,-0.3581 -0.0277,-0.1123 -0.0382,-0.2212 -0.0596,-0.3342 -0.0125,-0.0656 -0.0125,-0.1535 -0.0357,-0.2148 -0.0153,-0.0402 -0.0075,-0.0654 -0.0477,-0.0955 -0.0159,-0.0119 -0.0318,-0.024 -0.0477,-0.0358 -0.0554,-0.0415 -0.0406,-0.061 -0.1191,-0.1313l-0.0222 -2.1576 0 0z"/>
 </g>
</svg>
