<?xml version="1.0" encoding="UTF-8"?>
<!DOCTYPE svg PUBLIC "-//W3C//DTD SVG 1.1//EN" "http://www.w3.org/Graphics/SVG/1.1/DTD/svg11.dtd">
<!-- Creator: CorelDRAW -->
<svg xmlns="http://www.w3.org/2000/svg" xml:space="preserve" width="210mm" height="297mm" style="shape-rendering:geometricPrecision; text-rendering:geometricPrecision; image-rendering:optimizeQuality; fill-rule:evenodd; clip-rule:evenodd"
viewBox="0 0 210 297"
 xmlns:xlink="http://www.w3.org/1999/xlink">
 <defs>
  <style type="text/css">
   <![CDATA[
    .str2 {stroke:#2F3133;stroke-width:0.1}
    .str1 {stroke:black;stroke-width:0.1;stroke-opacity:0.501961}
    .str0 {stroke:black;stroke-width:0.1}
    .str3 {stroke:black;stroke-width:0.5}
    .fil5 {fill:none}
    .fil0 {fill:white}
    .fil2 {fill:#1F1A17;fill-rule:nonzero}
    .fil3 {fill:#C2C1C1;fill-rule:nonzero}
    .fil4 {fill:white;fill-rule:nonzero}
    .fil6 {fill:black;fill-rule:nonzero}
    .fil1 {fill:white;fill-rule:nonzero;fill-opacity:0.501961}
   ]]>
  </style>
 </defs>
 <g id="Plan_x0020_1">
  <metadata id="CorelCorpID_0Corel-Layer"/>
  <path class="fil0 str0" d="M101.354 51.5788c-0.0203,-0.0901 -0.0387,-0.1739 -0.0718,-0.2601 -0.108,-0.0154 -0.1813,-0.1045 -0.286,-0.1194 -0.0144,-0.0579 -0.2693,-0.2227 -0.3336,-0.2387 -0.1442,-0.5771 0.0197,-1.1458 -0.1669,-1.7187 -0.2291,-0.703 -1.4864,-2.6052 -0.9056,-3.2466 1.4084,-1.5551 3.8506,-2.0095 5.0765,-3.9627 0.8279,-1.3189 0.6435,-1.571 0.6435,-3.0555 0,-1.1344 0.4417,-2.3418 0.9057,-3.3898 0.2273,-1.1061 0.9436,-2.1579 0.5959,-3.2943 -0.3051,-0.9969 -2.2404,-1.27 -2.2404,-2.5065 0.2705,-0.2035 1.2281,0.2799 1.8352,-0.0239 1.1006,-0.5506 1.9167,0.2521 2.4787,-0.8355 0.2634,-0.5097 0.67,-0.7508 1.0487,-1.1935 0.8437,-0.9866 0.1472,-1.4594 1.6207,-2.0769 0.9698,-0.4063 1.4293,-0.4213 2.1927,-1.2413 1.3188,-1.4163 2.2842,-0.1918 2.9077,0.931 0.5358,0.9651 1.7833,1.523 2.574,2.3155 1.1835,1.186 4.3246,1.6401 5.8869,0.9072 0.8022,-0.3764 1.7637,-1.4893 1.7637,-2.3872 0,-1.1015 0.7146,-1.5733 0.9295,-2.4349l1.0249 -0.8833 0 0 2.9644 53.0516 2.8091 76.4879 0.3517 15.7193 0.715 6.4453 0.56 13.01c0.0226,0.0853 0.0311,0.2072 0.0715,0.2745 0,0.6143 -0.0758,1.249 -0.0358,1.862 0.0358,0.5479 0.5732,1.3079 0.9772,1.6472 0.3956,0.3324 0.3825,0.6925 0,1.0384 -0.1893,0.1713 -1.2799,1.021 -1.1559,1.2294 0,0.1132 0.0062,0.1246 -0.0358,0.2506 0.0413,0.4594 0.0987,0.7279 0.2503,1.1459 -0.107,0.2863 -0.1083,0.66 0.0119,0.9429 0.1288,0.3028 0.5579,0.4339 0.572,0.7639 0.0253,0.5882 -0.3146,1.38 0.1192,1.8978 0.2621,0.313 0.6381,0.4179 0.3456,0.8713 -0.4872,0.7554 -0.8224,0.5161 -0.7866,1.5994 0.0297,0.8971 0.3993,1.3558 -0.0834,2.232 -0.3251,0.3529 -0.7807,0.9594 -1.1678,1.2174 -0.219,1.7744 -0.0461,3.5839 0.715,5.2398 0.269,0.5851 0.232,1.0673 0.6316,1.6472 0.3668,0.5322 1.3641,0.8237 1.9186,0.4177 0.0464,0 0.0816,-0.0119 0.1311,-0.0119 0.2191,0.2191 0.3254,0.6243 0.6077,0.9071 0.319,0.3194 0.4981,0.7491 0.8104,1.0623 0.5461,0.5474 1.0129,1.2423 0.3932,1.862 0,0.4539 0.8438,0.9295 1.0964,1.301 0.4764,0.7009 0.8601,0.8061 1.5849,1.11 0.4305,0.1806 0.2122,0.686 0.3694,1.0146 0.2586,0.5409 0.9699,0.2768 1.1321,0.7281 0.2927,0.8138 1.141,1.1333 1.6922,1.7426l0.7865 1.2174c0,0.6882 -0.6754,1.3524 -0.9057,2.053 -0.2822,0.8581 -0.3288,1.7318 -0.5601,2.602 -0.1291,0.4856 -0.0707,1.0101 -0.2264,1.5039l0.5124 1.3488 0 0 0.143 1.6829c0.0632,0.744 -0.7442,0.3927 -0.9414,-0.0358 -0.7812,-1.6977 0.0077,-0.4405 -1.716,-0.1313 -0.0433,0.0077 -2.681,-0.9572 -1.6445,-0.3223 0.4159,0.2548 1.7037,0.7765 1.5968,1.301 -0.0998,0.4893 0.2142,2.3217 -0.1787,2.2917 -0.8618,-0.0657 -0.434,0.0438 -0.7984,0.6326 -0.19,0.3072 -0.8317,0.4247 -1.1441,0.7758 -0.5674,0.3679 -0.7048,0.9498 -0.9176,1.5517 -0.1687,0.4775 -0.0109,0.4125 0.3337,0.2268 0.4655,-0.2507 0.535,-0.0213 1.001,0.0238 0.8449,0.0817 1.3352,-0.6071 2.2285,0.012 0.463,0.3208 0.6689,0.8904 1.2631,0.5013 0.4881,-0.3197 1.3166,-0.3124 0.8581,-1.2294 -0.3206,-0.6414 -1.5011,-0.4591 -2.0497,-0.6803 -0.3388,-0.1365 -0.2026,-0.7814 -0.2026,-1.0981 0,-0.8877 0.7626,-0.7189 0.5005,-1.8382 -0.0615,-0.2626 -0.2278,-1.7832 0.286,-1.1697 0.6996,0.8352 2.4124,-0.3873 2.7051,0.012 1.4245,1.9439 4.418,2.9934 5.2315,5.4069l0.0357 0c0.1018,-0.411 0.5133,-0.7452 0.7746,-1.0742 0.2922,-0.3677 1.4983,-0.3338 0.7031,0.5132 -0.2875,0.3063 -0.9688,0.6644 -1.3704,0.7639l0 0.0239c2.6789,0 0.8758,1.9278 0.1787,3.0436 -0.0874,0.5994 -0.0918,1.1715 -0.8222,1.3249 -0.7042,0.1478 -0.1277,1.3449 -0.8223,1.8262 -0.4146,0.2874 -0.3871,0.5368 -0.5363,0.9787 -0.1427,0.4224 -0.4518,0.9237 -0.7269,1.2771 0,0.4105 -0.755,1.3642 -1.0367,1.683 -0.5539,0.6266 -0.4529,0.8563 -0.4529,1.671 -0.0431,0.4622 0.0223,0.7083 -0.3932,0.9548 -0.5326,0.3161 -0.6008,0.4814 -0.6674,1.0981 -0.0298,0.2757 0.0328,0.931 -0.3456,0.931 -0.18,-0.7261 -0.3548,-1.3032 -0.6673,-2.0052 -0.1018,-0.2289 -1.4082,-0.9696 -1.5373,-0.7758 -0.1194,0.1791 0,1.4667 0,1.7784 0,1.0732 0.3811,2.6619 1.7399,1.9933 0.6134,-0.3018 -0.1078,-0.7042 0.6316,-0.7042 0.2055,0 0.103,1.0616 0.0383,1.7012l0 0 -1.241 0.1198 -1.133 0.3394 -0.1668 0.0835c-0.2627,0 -0.5224,0.0836 -0.7985,0.0836l-0.1906 -0.0836 -0.8223 -1.0623c-0.2502,-0.4009 -1.9991,-0.5847 -2.431,-0.6326 -0.9693,-0.1077 -1.0816,-0.2393 -1.9186,0.2984 -1.9944,1.2814 -3.8668,1.6905 -6.1133,2.0649 -0.6944,0.487 -1.1556,0.8599 -1.5492,1.683 -0.3914,0.8188 -0.1602,1.613 -0.4052,2.4468 -0.3568,0.4662 -0.3378,1.0518 -1.1678,0.752 -1.3279,-0.4798 -2.2613,-1.301 -3.7657,-1.301 -0.9206,0 -2.2369,0.2735 -2.8481,1.0384 -0.9239,1.1565 -1.2629,1.904 -1.0606,3.3301 0.1427,1.0057 0.6204,2.1306 0.2502,3.151 -0.4604,0.3309 -2.1487,-0.377 -2.8958,-0.3342 -1.2656,0.0724 -1.7083,0.6836 -2.5263,1.5039l-0.0715 0.1791c-0.0706,0.0706 -0.1006,0.1682 -0.1788,0.2267 -0.2119,0.3411 -0.6288,0.5639 -0.7626,0.9668 -0.1813,0.2073 -0.318,0.4656 -0.429,0.7162 -0.071,0.071 -0.1286,0.161 -0.2145,0.2148 -0.0733,0.1008 -0.1741,0.1957 -0.2384,0.2984 -0.9317,0.6799 -1.3419,0.661 -2.4906,0.5133 -1.1898,-0.1529 -2.3717,-0.4416 -3.575,-0.4416l-27.921 -0.6805 -5.172 -0.4176 -9.4858 0.0716 -1.6563 -0.5491 -11.7621 0.0239 -3.6704 -0.2148 -8.8661 -0.5252 -5.8797 -0.186 0 0c-0.2432,-0.6978 -0.5543,-1.3808 -0.6507,-2.1057 -0.0629,-0.4738 -0.5219,-1.3183 -0.8104,-1.7188 -0.2802,-0.3888 -1.0592,-0.2984 -1.4777,-0.3819 -0.1342,-0.0268 -1.7127,-1.8005 -1.859,-2.0768 -0.5535,-1.0456 -1.4786,-2.1516 -1.2155,-3.3659 0.3415,-1.5763 -1.3068,-2.7941 -0.429,-4.0582 0.7101,-1.0228 1.5532,-1.4312 1.8828,-2.602 0.2528,-0.8978 0.5323,-1.4068 0.3814,-2.3872 -0.1175,-0.7634 -0.0313,-1.2514 -0.572,-1.8381 -0.9014,-0.9783 3.226,-1.8254 3.861,-2.0291 0.2405,-0.0772 0.867,-0.658 0.9772,-0.9787 0.1217,-0.3545 -0.0143,-0.9567 0.0477,-1.3607 0.0664,-0.4333 2.0112,-0.8119 1.3585,-1.5516 -0.2654,-0.3009 -1.0487,-0.7245 -1.0487,-1.122 0,-0.9138 -0.4045,-1.594 -0.715,-2.411 -0.2618,-0.6887 1.5321,-1.754 1.9067,-2.3633 0.4514,-0.7341 -0.2074,-1.7729 0.143,-2.4349 0.7927,-1.4972 -0.3376,-2.9407 -1.1202,-4.273 -0.4639,-0.7896 0.5843,-2.2172 0.8342,-2.9124 0.235,-0.6534 -0.5253,-0.9283 0.0477,-1.7903 0.4124,-0.6202 0.1575,-0.8239 0.0715,-1.3846 -0.1184,-0.7711 0.4422,-1.2686 0.2383,-2.0052 -0.2454,-0.886 -0.1541,-1.7822 0.3098,-2.3872 0.1226,-0.16 0.4203,-0.0012 0.5482,-0.1432 0.393,-0.4367 0.8549,-0.5954 0.9534,-1.2891 0.2127,-1.4969 1.0627,-2.556 0.572,-4.1536 -0.2885,-0.9393 -0.5413,-0.654 -0.0954,-1.5994 0.3079,-0.6528 1.1267,-1.399 0.6197,-1.9336 -0.741,-0.7815 -1.6684,-1.1416 -1.6684,-2.3394 0,-0.4897 0.4647,-0.62 0.8581,-0.8117 0.7162,-0.3492 0.429,-3.8407 0.429,-4.6072 0,-0.6201 0.4528,-1.2341 0.4528,-1.862 0,-0.7144 1.0771,-1.4519 0.8342,-2.2439 -0.3387,-1.1046 -0.3431,-1.4018 -0.8819,-2.3872 -0.2857,-0.5225 -0.4317,-0.9828 0.0954,-1.5994 0.2662,-0.3115 0.5303,-1.2676 0.6911,-1.7665 0.2561,-0.7946 -0.0156,-3.0316 0.5482,-3.4614 0.6106,-0.4653 1.4032,-0.4591 2.1451,-1.0503 1.4743,-1.1748 0.2418,-2.6785 1.0725,-3.724 0.3774,-0.4749 0.8282,-0.7583 0.858,-1.3845 0.032,-0.6705 0.1555,-1.2024 0.572,-1.9098 0.6274,-1.0658 -0.1054,-3.111 0.7627,-4.1775 0.3697,-0.4543 1.0814,-1.6404 1.5253,-2.0529 0.2265,-0.2104 0.7873,-0.343 1.0725,-0.4536 1.6042,-0.6225 2.4438,-2.245 3.5989,-3.3659 0.3987,-0.387 -0.0104,-1.7095 0.5482,-1.9575 1.7359,-0.7707 0.181,-6.5011 1.144,-6.7795 1.7861,-0.5163 -0.4058,-2.0291 1.5015,-2.5065 0.2402,-0.0601 0.2214,-1.2261 0.6912,-1.5517 0.6229,-0.4318 1.404,-0.8599 1.859,-1.4323 0.8147,-1.0252 -0.764,-1.5324 -0.0236,-2.602 0.4505,-0.651 1.1011,-0.9566 0.9057,-1.8381 -0.2338,-1.0552 -1.3453,-1.7962 -0.9057,-2.984 0.1475,-0.3984 0.61,-0.5632 0.9057,-0.8593 0.415,-0.4157 -0.1869,-0.7747 0.0953,-1.2175 0.703,-1.1033 1.2632,-0.093 1.2632,-1.671 0,-1.0644 1.2136,-1.2042 1.3585,-2.1961 0.0497,-0.3402 0.816,-0.8699 1.0247,-1.1459 0.1986,-0.2625 0.3973,-0.5252 0.5958,-0.7878 0.4608,-0.6092 -2.2387,-2.3096 -0.6435,-3.2226 0.811,-0.4642 0.5865,-2.1524 0.3813,-2.9124 -0.197,-0.7293 -0.1906,-1.3294 -0.286,-2.0768 -0.1076,-0.8424 -0.4417,-1.1684 -0.7865,-1.8859 -0.4146,-0.863 0.7521,-4.1309 0.4767,-5.2517 -0.2988,-1.2156 -1.0249,-2.1185 -1.0249,-3.4375 0,-1.1699 1.4804,-0.5407 1.8829,-1.671 0.2731,-0.7672 0.7441,-1.39 1.3585,-2.0053 1.8877,-1.8907 4.8001,-1.5086 6.9356,-2.7929 0.9558,-0.5747 2.2343,0.3677 3.4082,0.1432 1.2621,-0.2413 2.7907,-0.1228 3.3368,-1.2175 0.0158,-0.0317 0.0318,-0.0636 0.0476,-0.0954 0.3622,-0.7258 0.5306,-2.368 0.9772,-3.0795 0.4196,-0.6687 2.3679,-1.351 3.1222,-1.3845 0.0594,-0.0026 0.7857,0.1529 1.0487,0.0477 0.9771,-0.3909 0.1103,-0.9687 1.5253,-0.74 1.039,0.168 1.6541,-0.6582 2.5026,-1.2175 1.4056,-0.9267 2.1115,-2.377 2.9077,-3.891 0.3099,-0.5895 0.1765,-1.2995 0.8342,-1.6949 0.3756,-0.2259 0.8517,-0.0346 1.3108,-0.2865 0.7227,-0.3967 1.058,-0.9942 1.9544,-1.4084 2.6883,-1.242 -1.2188,-1.3303 0.3813,-2.4349 1.3752,-0.9492 -1.7975,-2.2021 -1.2155,-3.1749 0.6064,-1.0138 1.9201,-0.0047 2.6932,-1.122 0.3525,-0.5096 0.1454,-0.7088 0.8342,-0.8832 0.4529,-0.1147 0.9227,-0.3345 0.7627,-0.8356 -0.0122,-0.0383 -0.0403,-0.0176 -0.0715,-0.0477 -0.4005,-0.3868 -1.3512,-0.6528 -1.5731,-1.0981 -0.1235,-0.2477 0.1192,-1.7183 0.1192,-2.1723 0,-0.4906 -0.1426,-0.6062 -0.3575,-0.9787 -0.2267,-0.3932 0.8906,-1.3062 -0.1192,-1.4323 -1.8769,-0.2344 -1.4646,-3.745 -1.8828,-4.1298 -0.1827,-0.1682 -0.7324,-0.3572 -0.9295,-0.6684 -0.4189,-0.6617 0.127,-1.7305 -0.3814,-2.5543 -0.6793,-1.1009 -1.8586,-3.0405 -0.5243,-4.0343 1.1071,-0.8247 2.6594,-1.8363 3.003,-3.342 0.1744,-0.7642 -0.6684,-1.3694 -0.2383,-1.9336 0.5406,-0.7089 1.2001,-0.4682 1.4062,-1.5039 0.1466,-0.7365 0.1061,-1.4213 0.3575,-2.1485 0.3632,-1.051 2.0427,-2.3925 2.717,-3.3897 0.4989,-0.7376 1.2906,-1.4988 0.6197,-2.2917 -0.5516,-0.6521 -0.9399,-0.6976 -1.1202,-1.6472 -0.1424,-0.7505 0.326,-2.6374 -0.1668,-3.0555 -0.3561,-0.3022 -0.756,-0.5147 -1.001,-0.9549 -0.2631,-0.4725 -0.3752,-1.3961 -0.1907,-1.6471 0.1112,-0.1511 0.2225,-0.3024 0.3337,-0.4536 0.1117,-0.1516 1.2252,-0.6602 1.4463,-0.8548 0.6574,-0.5787 1.0925,-0.7462 2.3673,-1.0574l0 0z"/>
 </g>
</svg>
