<?xml version="1.0" encoding="UTF-8"?>
<!DOCTYPE svg PUBLIC "-//W3C//DTD SVG 1.1//EN" "http://www.w3.org/Graphics/SVG/1.1/DTD/svg11.dtd">
<!-- Creator: CorelDRAW -->
<svg xmlns="http://www.w3.org/2000/svg" xml:space="preserve" width="210mm" height="297mm" style="shape-rendering:geometricPrecision; text-rendering:geometricPrecision; image-rendering:optimizeQuality; fill-rule:evenodd; clip-rule:evenodd"
viewBox="0 0 210 297"
 xmlns:xlink="http://www.w3.org/1999/xlink">
 <defs>
  <style type="text/css">
   <![CDATA[
    .str2 {stroke:#2F3133;stroke-width:0.1}
    .str1 {stroke:black;stroke-width:0.1;stroke-opacity:0.501961}
    .str0 {stroke:black;stroke-width:0.1}
    .str3 {stroke:black;stroke-width:0.5}
    .fil5 {fill:none}
    .fil0 {fill:white}
    .fil4 {fill:#1F1A17;fill-rule:nonzero}
    .fil2 {fill:#C2C1C1;fill-rule:nonzero}
    .fil3 {fill:white;fill-rule:nonzero}
    .fil6 {fill:black;fill-rule:nonzero}
    .fil1 {fill:white;fill-rule:nonzero;fill-opacity:0.501961}
   ]]>
  </style>
 </defs>
 <g id="Plan_x0020_1">
  <metadata id="CorelCorpID_0Corel-Layer"/>
  <path class="fil0 str0" d="M164.275 55.5721l-0.0247 0.7c-0.0509,0.5461 -0.13,0.9948 -0.2383,1.5158 -0.0762,0.3663 -0.3098,1.044 -0.3098,1.3846 -0.0399,0.0497 -0.0596,0.1032 -0.0596,0.1671 -0.0853,0.1069 -0.2026,0.4349 -0.2026,0.5729 -0.232,0.2642 -0.2671,1.0314 -0.4171,1.3726 -0.652,1.4834 -0.4994,3.1979 -1.1798,4.7266 -0.1628,0.5811 -0.3583,1.2588 -0.6792,1.7665 -0.2287,0.3617 -0.7155,1.4081 -0.7746,1.8261 -0.2719,0.195 -1.2476,2.8112 -1.3585,3.2585 -0.1667,0.6728 -0.0178,1.2359 -0.4171,1.8859l-1.144 1.862c-0.0313,0.2437 -0.2638,0.3765 -0.2979,0.549 -0.3043,0.1515 -0.2481,0.7342 -0.429,1.0265 -0.3681,0.595 -1.0761,1.3114 -1.2394,1.9694 -0.1285,0.5174 -0.5156,1.0107 -0.7269,1.5278 -0.2225,0.5448 -0.6528,0.0752 -0.4171,0.7997 0.1886,0.58 -0.1261,1.5545 -0.3813,2.0649 -0.334,0.6682 -0.0319,1.502 -0.3337,2.0649 -0.0758,0.1961 -0.0762,0.3084 -0.2264,0.4416 -0.0557,0.0493 -0.2809,0.1699 -0.2979,0.2387 -0.0301,0 -0.0402,0.0174 -0.0477,0.0477 0.1099,0 0.1934,-0.0596 0.3098,-0.0596 0,0.1412 -0.0357,0.2896 -0.0357,0.4416l-0.0239 0c0,0.0902 -0.4721,0.1194 -0.5839,0.1194 0,0.2048 -0.4657,0.6338 -0.6077,0.7758 -0.3959,0.3959 -0.4855,1.0405 -1.1321,0.3939 -0.326,-0.326 -0.3842,-0.2014 -0.4171,0.2029 -0.0197,0.2429 -0.1458,0.4978 -0.2026,0.7281 -0.0793,0 -0.3523,-0.0519 -0.4171,-0.0359 0,0.2472 0.2145,0.5172 0.2145,0.8117 0,0.3378 -0.3828,0.2046 -0.4886,0.3461l1.1798 0.7162 -0.1907 0.3819 -1.9663 -1.0265 -0.2383 0.2029 2.0974 1.0026 -0.2026 0.3701 -2.288 -0.8236c-0.3336,0.4246 0.3121,0.289 0.5005,0.4774 0.0619,0.0619 0.2013,0.4925 0.2145,0.5849 0.094,0.0155 0.1499,0.2185 0.2145,0.2506 0,0.1508 -0.11,0.4004 -0.2741,0.4417 -0.0478,0.1929 -0.825,0.3222 -1.0129,0.3222 -0.4315,0 -0.6446,-0.1498 -1.0368,0 -0.4473,0.1708 -0.5512,0.3943 -1.144,0.4297 -0.5319,0.0318 -0.8561,0.0144 -1.3704,-0.0597 -0.0055,-0.0218 -0.002,-0.0184 -0.0239,-0.0238l-0.0119 -0.012 0 -0.0239c-0.0529,-0.0175 0.0769,-0.2862 0.0953,-0.3222 0.0412,-0.0801 0.0897,-0.2764 0.1788,-0.2984 0.0066,-0.0267 0.0291,-0.033 0.0357,-0.0597 0.0302,-0.0074 0.0196,-0.0051 0.0239,-0.0358 0.078,-0.0193 1.0371,-1.5473 1.0606,-1.6471 0.099,-0.4189 0.6457,-0.818 0.8699,-1.2294 0.3553,-0.6523 0.3705,-1.6129 0.9533,-2.1365 0.6518,-0.5857 -0.8605,-1.2311 0.3695,-1.7785 0.3978,-0.4983 0.4051,-0.5424 0.4051,-1.1458 0,-0.283 0.0873,-0.8956 0.3694,-0.9907 -0.0486,0.1484 -0.4409,0.2332 -0.4885,0.4416 -0.0586,0.256 -0.2435,0.9638 -0.4291,1.1339 -0.1647,0.1508 -0.7822,0.479 -1.001,0.3104 -0.1665,-0.1284 -0.2053,-0.6273 -0.2502,-0.8236 -0.0122,-0.0537 -0.2158,0.6911 -0.2503,0.8713 -0.118,0.6167 0.1025,1.0435 -0.1191,1.683 -0.0886,0.2555 -0.5348,1.9886 -0.8223,1.2771 -0.16,-0.3958 -1.2501,-1.1339 -1.6803,-1.1339 0.1373,0.4073 1.0139,0.6877 1.2751,1.0265 0.3784,0.491 -0.2979,0.6797 -0.2979,1.0026l-0.2145 0.1552 -1.2036 -0.9191 -0.1549 0.2148 0.0358 0.1194 1.716 1.2294 -0.6793 1.5994 -0.715 -0.2984c-0.3541,0.5224 -0.9237,1.5039 -1.6088,1.5039 -0.692,0 -2.031,1.3425 -2.3118,1.9336 -0.1683,0.3545 -0.4516,2.7935 -0.1192,2.8885 0.0154,0.1092 0.162,0.1798 0.1788,0.3461 0.0387,0.3825 -0.1457,1.0298 -0.3575,1.3129 -0.3563,0.4697 -0.223,0.8651 -0.4052,1.3727 -0.1736,0.484 -0.2911,1.7645 -0.858,1.9097 -0.1307,0.0335 -0.2951,-0.2029 -0.4409,-0.2029 -0.5389,0 -1.0105,0.5729 -1.4658,0.5729 -0.444,0.5352 -0.8342,0.3493 -0.8342,1.2771 0,0.9172 0.3218,1.7142 0.3218,2.5304 0,0.2493 -0.2962,0.1656 -0.4409,0.3103 -0.3675,0.3675 -0.2094,1.2456 -0.5482,1.683 0.0282,-0.0283 0.0336,-0.0366 0.0715,-0.0239 -0.1004,0.1008 -0.1315,0.2874 -0.2503,0.3939 -0.0585,0.0523 -0.2443,0.1084 -0.3217,0.1194 -0.2253,0.0319 -0.4435,0.0596 -0.6793,0.0596 -0.1324,0 -0.1852,-0.007 -0.2979,-0.0477 -0.0381,-0.0138 -0.0549,-0.0163 -0.0953,-0.0358 -0.0239,-0.0116 -0.0403,-0.0533 -0.0596,-0.0597 0,-0.0318 -0.0656,-0.161 -0.0834,-0.191 -0.1941,-1.6554 -1.9373,-1.0612 -2.8839,-0.5013 -0.3446,0.2039 -0.8559,1.2372 -1.1678,1.5875 -0.5748,0.6458 -0.8686,0.679 -1.6445,0.8713 0.6814,0.2258 0.9204,0.5774 1.7636,0.1552 0.8208,-0.4111 1.1626,-0.8648 1.442,-1.6949 0.1914,-0.5689 0.6929,-0.8833 1.2751,-0.8833 0.7374,0 0.2233,1.4443 1.4657,1.4443 0.2042,0 0.9145,-0.0041 0.6555,0.2984 -0.3276,0.3825 0.4188,0.7202 0.5362,1.1935 0.0993,0.4 0.0971,0.8891 0.2741,1.2533 0.1885,0.388 0.4401,0.4709 0.8818,0.5132 0.3482,0.0334 1.154,0.4726 1.4777,0.6446 0.2592,0.1378 0.2658,0.4297 0.6316,0.4297 0.362,0 0.6788,0.0336 0.9653,0.2626 0.7432,0.5456 0.6857,0.7215 0.5243,1.5397 0.435,0 1.3017,-0.6011 1.5968,-0.9191 0.1874,-0.2018 0.3345,-0.7423 0.5244,-1.0503 0.4265,-0.6914 0.3304,-0.4873 0.7507,-0.0955 0.6154,0.5735 1.3534,1.1788 2.2404,0.6206 0.4893,-0.3078 1.0061,-1.0461 1.4538,-0.5609 0.5065,0.5491 1.8974,1.2205 2.6575,1.3368 1.1202,0.1715 1.8355,1.3217 2.8123,1.7307 0.4711,0.5893 2.0196,0.9589 2.729,1.1339 1.1714,0.2889 3.0048,0.4777 3.8372,1.3129 0.5701,0.5719 0.4171,1.3368 0.4171,2.1604 0,0.2615 -0.571,0.1432 -0.7746,0.1432 -0.6035,0 -0.5263,0.0363 -0.8342,-0.4416 -0.2303,-0.3576 -0.4484,-0.0836 -0.7627,-0.0836 -0.2269,0 -0.4409,-0.2076 -0.4409,0.1075 0,0.4445 -0.7669,0.3261 -1.001,0.5609 -0.2349,0.2355 -0.4126,0.5254 -0.7031,0.7043 -0.6217,0.3831 -2.5263,0.5458 -2.5263,1.3606 -0.0279,0.0138 -0.0225,0.0385 -0.0596,0.0597 -0.0794,0.5629 -0.6437,0.4278 -0.9176,0.6326l0 0.0239c0.649,0.3713 1.1689,0.839 1.6803,-0.2029 0.2626,-0.5349 0.6824,-0.6714 1.2393,-0.6923 0.4088,-0.0153 0.9037,-0.2282 1.1678,-0.5371 0.4023,-0.4708 0.8792,-0.5159 1.4539,-0.7878 0.1629,-0.0771 1.6422,-0.2217 1.7756,-0.2029 0.1487,0.2613 0.5715,-0.156 0.7865,-0.0835 0,0.529 0.3644,1.8336 0.0953,2.1962 -0.4292,0.5786 -1.0866,0.4231 -1.5611,0.74 -0.4164,0.2782 -0.5893,1.0565 -0.9652,1.1936 -0.1747,0.2185 -0.4821,0.1432 -0.7389,0.1432 0.242,0.1802 0.3305,0.1967 0.1669,0.5252 -0.1467,0.2943 -0.1391,0.7088 -0.2265,1.0503 -0.1011,0.3955 0.0803,0.112 0.2384,-0.0239 0.2456,-0.211 0.66,-0.4297 1.001,-0.4297 0.2169,0 0.707,0.4213 0.7984,0.2746 0.0811,-0.1304 -0.2731,-0.571 -0.1311,-0.7759 0.0582,-0.0839 0.244,-0.1163 0.3456,-0.1671 0.1592,-0.0795 0.4284,-0.4771 0.5839,-0.3819 0.1506,0.0923 0.1905,0.3022 0.3933,0.2865 0.1612,-0.0124 0.3174,-0.2867 0.3694,-0.4059 0.0062,-0.0141 -0.0666,-0.0645 -0.0715,-0.0835 -0.0976,-0.377 0.0282,-1.0775 0.1311,-1.4801 0.0424,-0.1658 -0.0119,-0.4304 -0.0119,-0.6087 0,-0.1075 -0.0238,-0.2144 -0.0238,-0.3103 0,-0.0479 0.0028,-0.3514 -0.0239,-0.3581 -0.0311,-0.484 0.0172,-0.9561 -0.0477,-1.4442l-0.2621 -1.9694c-0.0819,-0.6164 -0.3575,-1.4333 -0.3575,-2.0052 -0.0435,-0.0146 -0.2979,-0.8138 -0.2979,-0.8952 -0.0139,-0.0046 -0.0667,-0.088 -0.0715,-0.1074l-0.0239 0c-0.0064,0.0194 -0.0174,0.0163 -0.0238,0.0358 -0.0195,0.0048 -0.0425,0.0505 -0.0477,0.0716l-0.2026 0.4058c-0.0518,0 -0.0709,0.0239 -0.1191,0.0239 -0.1661,-0.6729 -0.0477,-1.228 -0.0477,-1.9098 0,-0.5916 0.3156,-1.0742 -0.4886,-1.0742 -0.1185,-0.3576 -0.5839,-0.733 -0.5839,-1.1936 0,-0.2181 -0.2187,-0.944 -0.4648,-0.9787 -0.096,-0.1444 -0.4535,-0.1172 -0.5839,-0.3223 -0.1318,-0.2071 -0.0898,-0.711 0.0477,-0.8832 0.24,0 0.3598,0.2626 0.5958,0.2626 0.5341,0 0.7005,-0.5156 0.9891,0.1909 0.2841,0.6952 0.6044,1.3164 1.001,1.9575 0.1838,0.2973 0.3773,0.6467 0.4409,0.9788 0.0833,0.4343 -0.0476,0.9135 -0.0476,1.3487 0,0.4888 0.0915,2.0272 0.3694,2.3752 0,0.0487 -0.0079,0.0796 0.0238,0.1194 0,0.0666 0.0214,0.2352 0.0596,0.2864 0,0.2935 0.1907,2.0887 0.3337,2.2678 0,0.784 0.1668,1.5471 0.1668,2.3514 0,0.8431 -0.1268,1.7857 -0.0357,2.6139 -0.1402,0.3746 -0.0822,0.8969 -0.1669,1.301 -0.1843,0.8791 -0.2741,2.1404 -0.2741,3.0437 -0.1948,0.3262 -0.1174,1.1902 -0.2621,1.6113 -0.2246,0.6531 -0.3359,1.5556 -0.4648,2.2439 -0.1309,0.6994 -0.2265,2.0468 -0.5481,2.6378 -0.2621,1.1979 -0.3109,2.261 -0.7389,3.3898 -0.2958,0.78 -0.4767,2.1175 -0.4767,2.972 -0.3279,0 -0.7424,0.1153 -1.0606,0.191 -0.2653,0.063 -0.5055,0.3461 -0.7626,0.3461 0,-0.3405 -0.345,-1.5755 -0.7865,-1.5755 0,0.2461 0.1309,1.1697 -0.1311,1.301 -0.372,0.1866 -0.9722,-0.3581 -1.3109,-0.3581 0.1762,0.8783 0.7408,1.2248 1.5254,1.0026 0.46,-0.1303 0.8705,-0.2692 1.2632,-0.4654 0.2416,-0.1208 0.5739,-0.191 0.858,-0.191 0.4792,0 -0.0235,1.0336 -0.1192,1.3487l-0.7984 2.6259c-0.3045,0.8209 -0.3088,1.7675 -0.4767,2.6139 -0.1505,0.7589 -0.3694,1.5853 -0.3694,2.3514 -0.6273,0 -1.1967,-0.9758 -1.8352,-0.0716 -0.6362,0.9008 -1.4342,1.3917 -2.5144,0.7519 -0.5055,-0.2995 -0.5517,-2.6736 -1.2513,-2.6736 0,1.1058 0.996,3.4633 2.3238,3.545 0.9841,0.0606 1.1241,-0.8935 1.7517,-1.2652 0.6309,-0.3738 0.8907,-0.1075 1.5731,-0.1075l0.0119 0.012c0,0.0241 -0.0064,0.0178 0.0119,0.0238 0,0.3491 -0.2471,1.1487 -0.3933,1.4801 -0.242,0.5487 -0.3575,1.534 -0.3575,2.1365 -0.0269,0.2157 -0.1259,0.9305 -0.2502,1.0861 0,0.3002 -0.2026,0.5848 -0.2026,0.8594 -0.0934,0.1174 -0.0582,0.3321 -0.1549,0.4536 0,0.4252 -0.2026,0.9021 -0.2026,1.3726 0,0.8538 -0.4331,1.7012 -0.4767,2.5662 -0.0269,0.5327 -0.1851,1.0374 -0.286,1.5517 -0.0791,0.4028 -0.0388,1.1243 -0.1668,1.4681 -0.1302,0.6508 -0.2979,1.3434 -0.2979,2.0171 -0.1938,0.3876 -0.2723,1.1925 -0.3099,1.6352l-0.1311 1.5397 -0.0238 0.0478 0 0.0597 -0.0238 0.0477c0,0.2093 -0.0954,0.4194 -0.0954,0.6207 -0.0455,0.0911 -0.0715,0.2326 -0.0715,0.3342 -0.37,0.68 -0.4528,2.4644 -0.4528,3.2584 -0.0625,0.5018 -0.1072,1.0465 -0.1072,1.5517 -0.1978,0.3275 -0.257,1.3966 -0.298,1.8142l-0.3217 3.2704 -0.2384 3.4376c-0.2544,1.3604 -0.3932,2.7218 -0.3932,4.0939l-0.0238 0 -0.87 -0.8952c-0.7881,-0.811 -1.0336,-1.0455 -1.287,-2.1126 -0.2647,-1.1149 1.0604,0.1898 1.2989,0.4058 0.4485,0.406 0.8037,-0.0477 0.3576,-0.37 -0.5113,-0.3695 -0.5171,-0.5699 -0.1669,-0.9668 0.7005,-0.7937 0.8342,-2.7183 0.8342,-3.7359 0.184,-0.953 -0.0917,-2.0045 0.1072,-2.972l0.4171 -2.0291c0.0825,-0.4015 0.0704,-0.7996 -0.2264,-1.122 -0.3591,-0.3902 0.2503,-1.0888 0.2503,-1.6113 0,-0.3826 0.2201,-1.412 0.5005,-1.5994 0,-0.183 0.0836,-0.505 0,-0.6684 -0.1089,-0.213 -0.298,-0.4568 -0.298,-0.7281 0.3076,-0.5436 0.0835,-0.2337 0.0835,-0.6684 0,-0.1658 0.1602,-0.3885 -0.0239,-0.4297 -0.7674,-0.1717 -0.2741,-0.9849 -0.2741,-1.5755 0.1025,0 0.5006,0.0852 0.5006,-0.1313 0.0237,-0.0078 -0.2027,-0.2783 -0.2384,-0.3581 -0.1024,-0.2294 -0.0033,-0.2976 0.0238,-0.4893 0.3975,-0.057 0.7627,-0.7157 0.7627,-1.0981 -0.6293,-0.1586 0.3747,-0.895 0.143,-1.2294 -0.1361,-0.1966 -0.6726,-0.4501 -0.5958,-0.6445 0.3215,-0.814 0.2974,-0.1338 0.7388,-0.5133 0.1747,-0.1503 0.0132,-0.5143 0.1907,-0.6923 0.0405,-0.0405 1.017,-0.7042 0.5839,-0.7042 -0.3215,0 -0.2145,-0.6515 -0.2145,-0.8952 -0.0602,-0.6463 0.5794,-0.5995 0.7508,-1.1577 0.0875,-0.2847 0.001,-0.5776 0.0596,-0.8713 0.0504,-0.253 0.1594,-0.3676 0.1787,-0.6446 0.0239,-0.344 0.0834,-0.6981 0.0834,-1.0384 0,-0.4097 0.2031,-0.9619 0.1073,-1.3487 -0.0907,0 -0.2649,0.2427 -0.3575,0.3103 -0.1832,0.3212 -0.694,0.1248 -0.8461,0.4894 -0.1216,0.2912 -1.5027,0.4177 -1.8829,0.4177 -0.4972,0 -1.6137,0.1155 -2.0139,-0.179 -0.2014,-0.1481 -1.4543,-0.8649 -1.0129,-0.3104 0.3468,0.4355 0.5536,0.7393 1.0963,0.9668 0.4659,0.1954 0.4435,0.4925 0.8461,0.0478 0.1235,-0.1363 0.6804,0.2714 0.8818,0.2984 0.3768,0.0505 0.5129,-0.3284 0.87,-0.4178 0.4123,-0.1031 1.012,0.1234 1.5372,0.0358 0.5594,-0.0932 0.3695,0.0681 0.3695,0.573 0,1.0014 -0.8338,1.6127 -1.728,1.8381 0,0.0998 -0.2476,0.2315 -0.2145,0.37 0.029,0.1209 0.2495,0.0866 0.1907,0.3103 -0.058,0.2202 -0.4163,0.435 -0.5482,0.5849 -0.1519,0.1724 0.0485,0.3815 -0.2145,0.5132 -0.2542,0.1272 -0.9646,-0.0829 -1.2393,-0.1671 -0.3913,-0.1201 -0.7865,-0.7279 -0.7865,-1.122l-0.012 -0.0119c-0.1822,0 -0.372,0.1026 -0.5958,0.0716 -0.2491,-0.0344 -0.5539,-0.2148 -0.7627,-0.2148 0,0.4624 0.388,0.8253 0.7508,0.9668 0.4912,0.1917 0.1506,0.3461 0.7984,0.3461 0,0.29 0.2139,1.4442 -0.3456,1.4442 -0.0317,-0.1279 -0.1197,-0.2873 -0.1549,-0.4296l-0.0357 0c-0.1319,0.6554 -1.3709,0.3151 -1.7756,0.2148l-0.012 0.0119c0,0.1956 0.1923,0.4333 -0.0476,0.5133 -0.1985,0.0663 -0.7214,0.0521 -0.4767,0.2984 0.1698,0.2382 0.4699,0.3845 0.7269,0.5132 0.4997,0.2501 0.3216,0.7291 0.8342,0.2149 0.8446,-0.847 0.7817,-0.7594 0.7031,0.2864 -0.0251,0.3345 -0.5447,0.4336 -0.286,0.6923 0.2752,0.2752 0.4173,0.3103 0.8103,0.3103 0,0.3856 -0.1601,0.9627 -0.3575,1.313 -0.113,0.2004 -0.3813,0.2458 -0.3813,0.5132 0,0.3013 0.4018,-0.1166 0.429,-0.2268 0.4207,0 0.2419,0.3552 0.1072,0.7281 -0.2945,0.8156 -0.2548,1.137 -1.2155,1.3129 -0.6035,0.1105 -0.7122,0.6206 -1.3823,0.5849 -0.729,-0.0389 -1.6288,-1.3281 -2.1689,-1.1339 -0.2148,0.0773 -0.3372,0.0477 -0.5601,0.0477 -0.3089,0 -0.2148,0.3556 -0.6792,0.1791 -0.2765,-0.105 -0.461,-0.2626 -0.7865,-0.2626 0.1709,0.5158 1.1452,0.8872 1.573,0.8594 0.546,-0.0356 1.0304,0.2734 1.5611,0.3342 0.3961,0.0453 0.4192,0.4238 0.7865,0.5371 0.6018,0.1856 1.0736,0.4801 1.7041,0.3222 0.5535,-0.1385 1.173,-0.2148 1.7518,-0.2148 0.1061,0.536 -0.2278,1.2838 -0.6793,1.5636 -0.2911,0.1805 -0.6028,0.3647 -0.8461,0.6087 -0.2285,0.2293 -0.2541,0.5892 -0.5362,0.8713 -0.4667,0.3552 -0.6555,1.7242 -0.6555,2.3275 0,0.1822 -0.1166,0.4097 -0.0715,0.5849 0.0392,0.1519 0.2587,0.1419 0.2741,0.2626 0.0549,0.4309 -1.4317,0.3381 -1.6326,0.4058 0.2292,0 0.5312,0.19 0.8104,0.2029 0.4562,0.0211 0.9512,-0.2019 1.0129,0.3461 0.0267,0.237 0.3991,0.7028 0.2145,0.9071 -0.2243,0.2484 -0.5219,0.0107 -0.6912,0.3939 -0.1231,0.2789 -0.4426,0.5301 -0.6077,0.7997 -0.0846,0.138 0.1374,0.4665 0.0596,0.6684 -0.1661,0.4311 -0.7503,0.5683 -1.0606,0.9071 -0.1089,0.1188 -0.5636,0.5457 -0.5363,0.573 0.4421,0.4438 0.3706,0.6352 -0.1311,1.0981 -0.551,0.5083 -0.0408,0.5568 -0.3694,1.1339 -0.1199,0.12 -0.325,0.3013 -0.4886,0.3342 -0.0226,0.137 -0.4245,0.6414 -0.5005,0.8713 -0.1612,0.4869 -0.3787,1.5622 -0.2979,2.041 0.0765,0.4528 -0.6224,0.8048 -0.5839,1.2771 0.033,0.4058 0.2546,0.7148 0.1668,1.1459 -0.052,0.2556 -0.2813,0.4395 -0.3098,0.7519 -0.031,0.3399 0.1058,0.2501 0.3694,0.1671 0.0565,-0.0177 0.6976,0.3344 0.8461,0.37l1.1917 0.2865c0,0.164 -0.3487,0.2878 -0.2622,0.549 0.3002,0.9067 0.3572,1.4204 -0.8461,1.4204 0,0.0635 0.6522,0.6244 0.7627,0.6445 0.0608,0.0111 0.8211,-0.0464 0.6435,0.191 -0.0701,0.1309 -0.1407,0.2589 -0.2026,0.3939 0.0125,0.0167 0.0309,0.0399 0.0357,0.0597 0.0334,0.019 0.0443,0.0309 0.0835,0.0358 0.0286,0.0229 0.049,0.0429 0.0834,0.0477l0.0119 0.0239c0.9738,0.894 -1.4334,0.2674 -1.43,0.2984 0.0654,0.5793 0.1896,0.2401 -0.286,0.7281l-0.4886 0.5013c0.663,0 0.0185,0.579 -0.2026,0.7161 -0.3567,0.2211 -0.4818,-0.011 -0.6673,0.4536 -0.2409,0.6031 0.0754,0.353 0.5958,0.2148 0.2782,-0.0739 -0.0393,0.4127 -0.1788,0.5013 -0.4667,0.2962 -0.9779,0.1149 -1.5015,0.5371 -1.1685,0.9425 -0.1508,1.373 -0.0834,2.3395 0.0882,1.2629 -1.959,0.1531 -2.0616,0.2506 -0.264,0.2506 -0.132,0.382 -0.6673,0.382 -0.8054,0 -0.4767,-0.0868 -0.4767,0.6803 0,0.3654 -0.3694,0.4679 -0.3694,0.6803 0,0.3069 0.2204,0.3954 0.0476,0.7639 -0.2351,0.501 -0.4869,-0.3336 -0.6315,0.2268 -0.1315,0.5099 -0.012,0.3893 -0.012,0.8236 0,0.2521 0.1519,0.6415 0.012,0.8355 -0.3665,0.5085 -0.6768,-0.2618 -1.0487,-0.4178 -0.5417,-0.2271 -0.6014,-0.0358 -1.1917,-0.0358l-0.0119 0.012c-0.0541,0.2184 0.1694,0.6027 -0.0834,0.7519 -0.3058,0.1806 -0.4338,-0.0892 -0.6674,-0.2268 -0.0464,-0.0274 -0.5513,0.4163 -0.7269,0.5252 -0.2814,0.1744 -0.4381,0.4894 -0.8223,0.4894 -0.0048,0.0146 -0.0092,0.019 -0.0238,0.0238 0,0.3528 0.2033,0.5361 -0.0834,0.8475 -0.1664,0.1809 -0.36,0.2176 -0.5243,0.3819 -0.163,0.163 -0.0475,0.7038 -0.2741,0.931 -0.2848,0.2857 -0.5517,-0.4668 -0.8461,-0.3939 -0.0455,0.1845 -0.0119,0.7061 -0.0119,0.931 0,0.253 -0.1311,0.4884 -0.1311,0.752 0.8545,0.2118 0.4939,0.4853 0.858,0.9907 0.1915,0.266 0.4844,0.1037 0.6673,0.5251 0.2834,0.6525 0.9994,0.9469 1.6684,1.0862 0.4479,0.0933 0.429,1.1545 0.429,1.5636 -0.106,0.4689 -0.6261,1.7959 -1.1679,1.9097 -0.4885,0.1025 -1.95,0.3923 -1.9901,-0.3939l-0.0476 -0.931c-0.0172,-0.338 0.2878,-0.5071 0.3098,-0.8235 0.021,-0.3016 0.1374,-1.6658 -0.1549,-1.2414 -0.465,0.6754 -1.0332,-0.3417 -1.3824,-0.4654 -0.4974,-0.1763 -1.0808,-0.0239 -1.6087,-0.0239 -0.4791,0 -0.7379,-0.2258 -1.0845,0.2864 -0.1975,0.292 -0.7849,0.3765 -1.1082,0.3104 -0.8392,-0.1715 0.2575,-1.3262 -0.715,-1.122 -0.818,0.1717 -0.295,-0.3934 -0.2264,-0.7281 0.0497,-0.2429 -0.1737,-0.0786 -0.2384,0.0239 -0.0189,0.0298 -0.3107,0.7223 -0.4647,0.4297 -0.0789,-0.1498 -0.2961,-1.1481 -0.6435,-0.7162 -0.3648,0.4537 -0.3638,0.191 -0.8342,0.191 -0.5349,-0.207 -0.6418,0.325 -0.5124,0.7162 0.0949,0.2866 0.1922,1.2186 -0.3099,0.4655 -0.2403,-0.3606 0.0128,-0.7262 -0.1191,-1.0743 -0.1443,-0.3806 -0.2514,-0.6827 -0.715,-0.4774 -0.3068,0.1358 -0.0793,1.5956 -0.5959,0.9907 -0.2217,-0.2595 -0.1289,-0.6339 -0.5124,-0.752 -0.4462,-0.1373 -0.8995,0.6927 -1.1678,0.0358 -0.0889,-0.2176 -0.5679,-0.1516 -0.7746,-0.1671 -0.3123,-0.0234 -0.0476,-0.3761 -0.0954,-0.549 -0.0651,-0.2349 -0.6987,0.0542 -0.9295,-0.382 -0.3171,-0.5996 -0.2472,-0.2268 -0.8818,-0.2268 0.3669,0.2775 0.5356,0.463 0.8342,0.8117 0.238,0.2781 0.3887,0.6225 0.6077,0.8713 0.3044,0.3456 0.9308,-0.8038 1.2513,0.1432 0.0697,0.2059 0.2099,0.7277 0.5124,0.3462 0.4127,-0.5203 0.4742,-0.8343 0.9176,-0.1671 0.2839,0.4273 0.4847,0.7141 0.7388,0.179 0.1462,-0.3078 -0.1077,-0.7478 0.3575,-0.8594 0.464,-0.1112 0.2373,0.5055 0.1788,0.752 -0.1269,0.5347 0.5053,1.5605 1.144,1.1816 0.2996,-0.1778 -0.0735,-1.5515 0.1072,-1.3965 0.3844,0.3299 0.8819,-0.1212 0.8819,-0.0835 0,0.6467 0.5971,0.8613 0.858,1.3249 0.2232,0.3968 -0.0596,1.3441 -0.0596,1.85 -0.0416,0.2159 -0.286,0.3842 -0.286,0.5252 0,0.2556 0.4047,0.6176 0.429,1.0503 0.0527,0.9349 1.7474,2.478 2.6217,2.602 0,0.1323 -0.2023,0.6511 -0.2741,0.7639 -0.3424,0.5382 -0.9713,0.1287 -1.5015,0.1074 -0.7781,-0.0312 -0.2977,-0.6711 -0.3933,-1.0503 -0.3632,0 -0.2386,0.3863 -0.3098,0.6565 -0.0928,0.3526 -0.2804,0.3507 0.0953,0.5968 0.4691,0.3072 1.1841,1.184 1.0368,1.7784 -0.4861,0 -0.981,-0.382 -1.5253,-0.382 0,0.3765 0.9702,1.0687 1.2751,1.2891 0.9681,0.6995 0.1547,0.7414 -0.1907,1.4323 -0.5893,0.4963 -0.3814,0.335 -0.3814,1.0742 0,0.174 0.1827,0.8992 0.0954,0.943 -0.5721,0.2869 -0.9017,-1.3997 -0.9295,-1.7188 -0.0346,-0.3961 -0.2846,-0.3824 -0.4767,-0.6445 -0.2906,-0.3966 -0.365,-0.9098 -0.572,-1.3249 -0.1771,-0.3554 -0.4966,-0.1537 -0.8103,-0.1671 -0.2819,-0.0121 -0.5061,-0.3099 -0.7389,-0.37 -0.1984,-0.0513 -0.171,0.6037 -0.2979,0.8594 -0.1393,0.2804 -0.4979,0.2148 -0.7746,0.2148 0,0.7139 -0.5243,1.2212 -0.5243,2.0291 0,1.3026 -0.6093,0.8236 -1.5373,0.8236 -0.0963,0.3886 0.0093,0.5994 -0.1787,1.0264 -0.227,0.5159 -0.6757,1.5282 0.131,1.8501 0.6549,0.2614 1.0831,-0.9087 1.7518,-0.2387 0.2187,0.2192 2.6724,0.2593 2.4906,0.4416 -0.1436,0.1439 -0.8763,0.2293 -0.7507,0.5371 0.0314,0.0769 0.6958,0.1388 0.8103,0.1552 0.5271,-0.0931 0.6435,0.0188 0.6435,0.5132 0,0.7338 0.3955,0.2406 0.6435,0.74 0.1545,0.311 0.6635,0.7132 0.7388,0.943l-0.1787 0.1909c-0.8107,0.8661 -2.0101,1.0173 -3.1937,1.6233l-2.6574 1.3607c-0.8873,0.4543 -1.6298,1.1112 -2.4668,1.6352 -0.4209,0.4214 -1.6977,1.9813 -2.1927,1.9813 -0.4574,0 0.3259,-0.761 0.4767,-0.9906l1.2155 -1.8501c0.3272,-0.498 0.0604,-0.9995 0.6792,-1.2891 0.6196,-0.2901 1.2732,-1.0886 1.8114,-1.5039 0.1836,-0.1416 0.6823,-0.2056 0.9414,-0.2745 0.3141,-0.0834 0.5711,-0.3587 0.9057,-0.4416 0,-0.0236 -0.0022,-0.0169 0.0119,-0.0358 -0.2785,-0.2106 -1.8078,0.6185 -2.1927,0.7519 -0.9963,0.3452 0.2276,-1.0984 0.1788,-1.4442 0.1432,-0.1993 0.2811,-0.4752 0.1668,-0.7042 -0.2014,0 -0.2502,0.4776 -0.5601,0.3223 -0.1423,-0.0714 -0.1924,-0.36 -0.3575,-0.4894 -0.9515,-0.7463 -1.8328,-1.1786 -2.2523,0.3342 -0.1572,0.5667 1.4477,0.3914 0.858,0.8116 -0.3573,0.2547 -0.3512,0.9956 -0.6911,1.1101 0,0.063 -0.0709,0.2948 0.0119,0.3222 0,0.0311 0.017,0.044 0.0238,0.0716l0.0119 0.012c0.0859,0 0.8228,-0.9197 0.6555,-0.2149 -0.0958,0.4033 -0.4518,0.3804 -0.6435,0.6923 -0.2414,0.393 0.3694,0.4139 0.3694,0.8594 0,0.4406 -0.3814,0.679 -0.3814,1.0145 -0.1792,0.1199 -0.3874,0.9577 -0.7746,0.5968 -0.3552,-0.3309 -0.3336,-0.6743 -0.3336,-1.0861l-0.0119 -0.012c-0.0351,0 -0.0517,-0.0075 -0.0835,-0.0119 -0.0117,-0.0354 -0.5177,-0.0402 -0.6554,-0.37 -0.3335,-0.7991 -0.1744,-1.303 -1.0606,-0.4655 -0.6688,0.6322 -0.1305,0.4885 -0.1072,1.2174 0.0062,0.1949 -0.092,0.4888 -0.0239,0.6684 0.1161,0.3064 0.8342,-1.441 1.4896,-0.8474 0.2971,0.269 0.0298,0.9286 0.5601,1.0623 0.0223,0.1585 0.0715,0.3164 0.0715,0.5252 0.0143,0.1633 0.0256,0.0893 0,0.1671 -0.0048,0.0146 -0.0108,0.0317 -0.0119,0.0477 -0.0008,0.0117 0.001,0.0241 0,0.0358 -0.0032,0.0367 -0.0238,0.0694 -0.0238,0.1074 -0.0079,0.0079 -0.0185,0.0142 -0.0239,0.0239 -0.0061,0.0112 -0.0045,0.0254 -0.0119,0.0358 -0.0118,0.0164 -0.0322,0.0217 -0.0476,0.0358 -0.0266,0.0246 -0.0292,0.0304 -0.0596,0.0478l-1.9305 0.7639c-0.0394,-0.1965 -0.1379,-0.3712 -0.1788,-0.5372 -0.3292,0.083 -0.5138,1.1581 -0.9891,0.7162 -0.2708,-0.2519 -1.07,-1.2346 -1.3823,-0.8474 -0.2509,0.3112 -0.5166,0.728 -0.9653,0.728 -1.0942,0 -0.742,0.4442 -1.3585,0.9072 -0.4624,0.3474 -0.5482,-1.015 -0.6673,-1.3369 -0.3124,-0.8438 -0.233,0.2101 -0.7985,0.3939 -0.243,0.079 -0.599,-0.3054 -0.8461,-0.3819 -0.5293,-0.1641 -0.9085,0.3275 -0.7388,-0.6087 0.0908,-0.5008 -0.3289,-0.498 -0.6912,-0.5491 -0.1244,-0.6287 -0.175,-0.5627 -0.6792,-0.3103 -0.5625,0.2817 -0.2642,-0.3338 -0.5005,-0.5968 -0.1807,-0.201 -0.871,0.0413 -0.4529,0.2506 0.3465,0.1735 0.1968,0.656 0.4171,0.6684 0.3546,0.0199 0.4728,-0.2003 0.7865,0.0478 0.2688,0.2125 0.0351,0.6152 0.6197,0.37 0.4809,-0.2016 -0.1525,0.7553 0.0357,1.11 0.3479,0.6553 0.9327,-0.2009 0.6436,0.8236 -0.0394,0.1397 0.2521,1.0016 -0.2145,0.5013 -0.1938,-0.2077 -0.9496,-1.0563 -0.5244,-0.2148 0.1658,0.3283 -0.0009,0.9309 0.5363,0.9309 0.4159,0 0.8094,-0.4268 1.2512,-0.4654 0.2505,-0.0219 1.2987,0.33 1.5969,0.4296 0.2072,0.0691 0.2979,0.6565 0.2979,0.8714 0,0.2729 -0.5112,-0.2426 -0.6316,0.2148 -0.2851,1.0834 -0.2383,1.6734 -0.2383,2.7452l0.0119 0.012 0.9653 -1.1578c0.1388,-0.1665 0.6076,-0.3435 0.5362,-0.6445 -0.1143,-0.4811 -0.5665,-0.9155 0.1907,-0.7639 0.6017,0.1204 0.9788,-0.1658 1.4657,-0.2865 0,-0.2185 -0.6503,-1.3163 0.2741,-0.9071 1.1192,0.4953 1.6892,-1.1742 2.6932,-1.5159 0.5963,-0.203 -0.0529,1.1495 -0.1072,1.3607 -0.3458,1.3456 -1.2819,1.2393 -2.1927,2.0769l-2.6217 2.411c-0.0634,0.4449 -0.7958,0.8642 -0.9891,1.301 -0.2367,0.5345 -0.7984,1.3351 -1.1679,1.7904 -0.2614,0.3222 -0.7613,0.8894 -0.8818,1.2532 -0.0932,-0.0697 -0.0361,-0.2772 -0.143,-0.3581 -0.2073,0.2082 -0.6912,0.5788 -0.6912,0.8952 0.2568,0 0.4119,-0.3222 0.7627,-0.3222 0,0.24 -0.5628,1.0215 -0.7269,1.2294 -0.3443,0.4365 -0.8578,0.9051 -1.1083,1.4084 -0.1788,0.3582 -0.4964,0.5773 -0.6554,0.9668 -0.0739,0.1809 -0.3479,0.8832 -0.5005,0.9787 -0.0302,0.2451 -0.4655,0.7551 -0.5958,0.9907 -0.3421,0.619 -0.5037,1.3536 -0.7866,2.0171 -0.0954,0.2237 -0.6925,1.5346 -0.8937,1.6352 0,0.1022 -0.1213,0.2268 -0.2264,0.2268 -0.15,-0.2006 0.0754,-0.7173 -0.1549,-1.0265l-0.0358 0c-0.1944,0.3415 -0.7272,0.8332 -0.8103,1.1698 0.1934,0.1446 0.7205,-0.0488 0.9771,0.0716 0.1368,0.0641 0.3985,0.3745 0.4886,0.5013 0.1012,0.01 0.2393,0.1433 0.3575,0.1671 0.0065,0.0196 0.0171,0.0085 0.0239,0.0358 0.0773,0.0256 -0.2373,0.6385 -0.3456,0.7639l-1.0725 1.2413c-0.0565,0.0719 -0.0701,0.0871 -0.1073,0.1432 -0.0244,0.0366 -0.0306,0.0233 -0.0596,0.0478 -0.0148,0.0126 -0.0427,0.0449 -0.0596,0.0596 -0.015,0.0132 -0.0201,0.0353 -0.0357,0.0478 -0.0184,0.0149 -0.0431,0.0188 -0.0596,0.0358 -0.0566,0.058 -0.1031,0.1259 -0.1549,0.191 -0.0395,0.0498 -0.0754,0.1114 -0.1311,0.1432l-0.0119 0.0239c-0.0547,0.0698 -0.1075,0.1398 -0.1549,0.2148 -0.0932,0.1307 -0.1809,0.2648 -0.286,0.37 -0.0416,0.0417 -0.0707,0.0808 -0.1192,0.1194 -0.0394,0.0315 -0.1054,0.1254 -0.1192,0.1671 -0.0212,0.0637 -0.075,0.1109 -0.0834,0.179 -0.0476,0.0273 -0.0484,0.0755 -0.0834,0.1194 -0.2174,0.3323 -0.5037,0.5428 -0.6912,0.919 -0.3379,0.6782 -0.5485,1.3293 -0.9891,1.9814 -0.2277,0.3372 -0.9031,1.3145 -1.2274,1.5278 -0.2376,0.1564 -0.3632,0.152 -0.6435,0.0119 -0.4922,-0.2461 -0.0519,-0.5998 0.1549,-0.8236 0.4279,-0.4628 0.2928,-1.0926 0.7031,-1.5039 0.3537,-0.3547 2.022,-1.7732 1.0725,-2.1365 -1.5929,-0.6096 0.3139,-1.136 0.0715,-1.7307 -0.0909,-0.223 -0.3058,-0.314 -0.2502,-0.6206 0.1327,-0.7323 0.0532,-0.4056 -0.2145,-1.122 -0.3207,-0.8585 -0.6575,-0.4049 -1.299,-0.0836 -0.587,0.2939 -1.1209,0.9171 -1.2155,1.5875 0.4151,0.3315 0.5188,-0.1171 0.6078,0.6684 0.1081,0.953 0.842,-1.0162 0.9772,-0.37 0.0469,0.2239 0.1922,1.1827 0.0238,1.301 -0.1956,0.1306 -0.7018,0.016 -0.7627,0.1194 -0.0586,0.0997 0.012,0.5136 0.1311,0.5609 0.4125,0.1637 1.1074,-0.0954 1.573,-0.0954 0.2478,0 -0.2035,0.717 -0.2741,0.7996 -0.3912,0.458 -0.938,1.0251 -1.1678,1.5875 -0.0594,0.1456 -0.2983,0.5181 -0.4767,0.4536 -0.1592,-0.0576 -0.8276,-0.6083 -0.8342,-0.7639 -0.0165,-0.3914 0.1832,-0.6806 0.0239,-1.0623 -0.2078,-0.4975 -0.5189,-1.6497 -1.1321,-0.8116 -0.453,0.619 -1.0184,1.0351 -1.1679,1.8619 -0.1655,0.9148 1.2413,-0.4898 1.4658,-0.5729 0.2423,-0.0898 0.2588,0.4908 0.3933,0.6446l0.5839 0.6684c0.1875,0.2145 0.7778,0.1915 0.4886,0.6087 -0.165,0.2379 -0.0922,0.2385 -0.155,0.5132 -0.1815,0.7927 -0.7133,-0.1639 -0.9056,-0.2148 -0.1678,-0.0445 -0.1356,0.1821 -0.1073,0.2745 0.0473,0.1549 0.271,0.2529 0.3575,0.3939 0.0629,0.1027 -0.0483,0.2942 -0.0357,0.2984l-0.0239 -0.012 -0.1787 -0.0119 -0.0119 0.0119c-0.0076,0.0234 -0.0042,0.0006 -0.0119,0.0239 -0.0232,0.0077 -0.0008,0.0042 -0.0239,0.012l0 0.0835 0.0239 0.0119c0.0202,0.0617 0.1465,0.1621 0.2145,0.1791 0.0068,0.0277 0.0541,0.1002 0.0834,0.1074 0.06,0.2421 0.1718,0.5057 0.2145,0.7639 0.0678,0.4105 0.2682,0.3981 0.5601,0.6087 0.945,0.6821 -0.9078,2.3797 -1.442,2.7094 -1.3556,0.8364 -2.8103,2.0499 -3.7776,3.3421 -0.2296,0.5092 -0.9869,1.0841 -1.144,1.5636l-0.0596 0c-0.2798,-0.5619 -0.9223,-1.4156 -0.3694,-1.9694 0.6848,-0.686 1.0911,-0.7413 0.7746,-1.7069 -0.235,0 -1.7068,0.2013 -1.5969,0.2865 0.6274,0.4867 0.6273,1.778 -0.2979,1.8142 -0.7533,0.0294 -1.8232,-0.1358 -1.8232,0.8117 0.8129,0 1.9661,-0.9729 2.431,-0.3462 0.6351,0.8559 -0.0295,0.7938 -0.7627,1.0384 -0.6158,0.2054 -1.0129,0.8508 -1.6803,1.0146 -0.7072,0.1735 -1.342,0.385 -2.0854,0.2387 -0.6112,-0.1202 -0.8419,-0.3738 -1.4658,-0.2268 -2.5503,0.6013 -2.2138,-1.2038 -1.716,-2.9004 0.194,-0.6611 0.5654,-1.706 0.4409,-2.3871 -0.1129,-0.6175 0.1455,-2.963 0.7151,-3.2466 0.0344,-0.0922 0.1212,-0.2325 0.131,-0.3222 0.0516,-0.0663 0.1207,-0.2377 0.1311,-0.3223 0.0489,-0.0613 0.0463,-0.1518 0.0954,-0.2149 0.0488,-0.5429 0.802,-1.8571 1.132,-2.3155 0.5674,-0.7879 0.9132,-1.8222 1.4896,-2.5662 0.0593,-0.5313 0.5431,-1.2915 0.8223,-1.7546 0.4039,-0.6697 0.613,-1.3495 0.9057,-2.0529 0.3567,-0.9544 0.3578,-2.1677 0.5243,-3.1749 0.163,-0.9857 0.5018,-3.2705 -0.1787,-4.1298 -0.4189,-0.5291 -0.7312,-1.0608 -1.43,-1.1578 -0.6145,-0.0852 -0.7902,0.3081 -1.3466,-0.2507 -0.0088,-0.0616 -0.012,-0.123 -0.012,-0.1909 -0.0397,-0.0534 -0.0357,-0.1094 -0.0357,-0.1791 -0.0151,-0.0202 -0.0206,-0.0395 -0.0358,-0.0596 -0.0622,-0.4842 -0.0085,-0.7809 0.0239,-1.2772 0.0485,-0.7441 -0.6341,-0.6691 -0.6078,0.0597 0.0575,1.5896 -0.0732,1.411 -1.3108,0.8594 -1.4911,-0.6645 -3.1785,-0.4348 -4.7906,-0.5133 -0.3858,-0.0188 -1.2112,-0.0238 -1.5372,-0.179 -0.417,-0.1984 -0.2239,-0.482 0.0119,-0.8236 0.226,-0.3275 -0.0432,-0.5947 -0.0596,-0.9429 -0.0232,-0.4935 0.6563,-1.2039 0.9533,-1.48 0.2595,-0.2414 0.9324,-0.8434 0.9534,-1.2175 0.0128,-0.2297 -0.6668,0.4593 -0.8223,0.5371 -0.5339,0.2674 -0.3022,-0.6191 -0.8342,0.1791 -0.4409,0.6613 -0.7303,-0.1194 -1.1201,-0.1194 0,0.2399 0.2102,0.6362 0.3336,0.8594 0.1033,0.1866 -0.5768,0.0261 -0.6792,0 -0.2085,-0.0533 -0.5132,0.5729 -0.9772,0.5729 -1.4189,0 -1.3169,0.1426 0.0119,-0.561 0.672,-0.3559 1.1567,-0.9166 1.3466,-1.6829l-1.6683 -0.1313c-0.1945,0.7846 0.3611,0.5607 -0.6912,0.2626 -0.2177,-0.0617 -1.2155,0.0011 -1.2155,0.2984 0,0.7448 -0.6689,0.2478 -0.7508,1.2532 -0.0717,0.8799 0.8222,0.5571 1.4658,0.4297 0,0.2715 -0.8536,0.5869 -1.0725,0.6326 -0.2511,0.0523 -0.6412,0.0796 -0.8938,0.0358 -0.2766,-0.0479 -0.5267,-0.3342 -0.6792,-0.3342 -0.0293,-0.0909 -0.4701,-0.6592 -0.5125,-0.6803 0,0.2778 0.2791,1.1024 -0.2979,0.9906 -1.6229,-0.3145 -0.5017,0.6022 -1.001,1.3249 -0.2068,0.2994 -0.3545,-0.0939 -0.2145,0.4536 0.0302,0.1182 -0.6561,1.3673 -0.7627,1.4442 -0.182,0.1315 -0.371,-0.387 -0.5243,-0.5132 -0.3097,-0.2548 -2.7599,-1.9805 -1.8709,-2.5543 0.5509,-0.3557 0.1488,-0.3208 -0.1549,-0.8116 -0.4485,-0.725 -0.019,-1.6326 -0.7985,-2.4588 -0.126,-0.1335 -0.3423,-0.6923 -0.4409,-0.6923 -0.5291,0 -0.7295,0.4102 -1.1202,-0.2029 -0.2112,-0.3316 -0.1966,-0.7622 -0.5124,-1.0981 -0.4048,-0.4304 -0.9448,-0.4442 -1.4419,-0.7639 -0.6608,-0.4249 -1.3773,-0.3763 -1.9782,-0.7281 -0.2369,-0.735 0.4108,-1.0737 0.3575,-1.289 -0.0218,-0.0055 -0.0184,-0.002 -0.0238,-0.0239 -0.485,-0.0957 -0.729,-0.3506 -0.9295,-0.7758 -0.2473,-0.5241 0.3347,-0.6665 -0.441,-0.8594 -0.4927,-0.1226 -1.0768,-0.2626 -1.5849,-0.2626l-0.0119 -0.0239c-0.3803,-0.0942 -0.4337,-0.3123 -1.0368,-0.1909 -0.0686,0.2767 0.1769,0.7147 0.1192,1.1219 -0.1214,0.8573 -1.3309,-0.772 -1.4896,-0.931 -1.0207,-1.023 -1.7278,-1.7658 -2.0259,-3.3062 -0.2555,-1.3208 -1.0325,-1.9757 -2.431,-1.6232l-0.0119 0.0119 0 0.0358c-0.0139,0.0046 -0.0192,0.0289 -0.0238,0.0477 -0.0196,0.0066 -0.0085,0.0172 -0.0358,0.0239 -0.1225,0.4966 -0.4417,0.4558 -0.5601,-0.0239 -0.3668,-0.0909 -0.584,-0.2403 -0.8222,-0.5609 -0.1625,-0.2189 -0.7404,-0.0377 -0.9653,-0.2626 -0.3047,-0.2 -0.6586,-0.3408 -0.715,-0.74 -0.0886,-0.0443 -0.1668,-1.1952 -0.1668,-1.3607 0,-0.9858 -1.0062,-0.0157 -1.1917,-0.7639 -0.1495,-0.6034 -0.9569,-0.442 -1.4539,-0.5133l-1.3108 -2.2558 -0.7984 -1.3965c-0.1613,-0.2823 -0.5544,-0.5255 -0.6912,-0.8116 -0.09,-0.1884 -0.1596,-0.4795 -0.2741,-0.6326 -0.0187,-0.2202 -0.04,-0.6685 -0.3337,-0.6685 -0.4591,0.6945 -0.6586,0.1842 -1.2512,-0.0596 -0.4289,-0.1765 -0.3094,-0.7817 -0.7984,-0.8117 -0.4038,-0.0248 -0.6788,-0.1542 -0.9653,-0.3938 -0.14,-0.1172 -0.3081,-0.6554 -0.4171,-0.6804 -0.6443,-0.1479 -1.342,-0.4268 -2.0258,-0.2745 -1.0475,0.2334 -0.797,-2.2062 -0.8223,-2.7691 -0.0259,-0.5781 -0.2368,-0.9918 0.1192,-1.5278 0.1329,-0.2 0.4401,0.9415 0.5243,1.11 0.767,0.1544 0.625,-0.4943 0.5124,-0.919 -0.1511,-0.5694 0.0596,-1.0941 0.0596,-1.683 0.1691,-0.5082 -0.0238,-0.9345 -0.0238,-1.4323 0,-0.2978 0.1428,-0.6124 0.1192,-0.8952 -0.0073,-0.0875 -0.3902,-0.1812 -0.4648,-0.2029 -0.5082,-0.148 0.6979,-1.4179 0.9176,-1.5277 0,-0.1946 0.2595,-0.4603 0.3456,-0.6326 0.1463,-0.2931 0.2999,-0.8829 0.5481,-1.0862 0.2925,-0.2397 0.4415,0.1023 0.7866,-0.0358 0.6359,-0.2437 0.6111,-1.5222 1.1201,-1.5517 0.2809,-0.0163 0.5556,0.2417 0.9295,0.1671 0.4245,-0.0846 1.3397,-1.3687 1.585,-1.7665 0.7567,-1.2276 1.2337,-1.5325 2.6693,-1.5755 1.2837,-0.0384 -0.514,-0.8614 -1.2036,-0.4655 -0.8288,0.4757 -1.021,0.1834 -0.9891,-0.6684 0.0177,-0.4723 -2.1477,-0.9292 -1.4419,-1.5516 0.2117,-0.1868 1.037,-0.8592 0.5482,-1.0743 -0.305,-0.1341 -1.313,-0.9668 -1.4419,-0.9668 -0.0894,0.3562 0.4253,0.8188 0.4528,1.2414 0.057,0.8731 -0.2285,1.1852 -0.6912,1.8023 -0.1658,0.221 0.1162,0.391 0.2503,0.5848 0.1836,0.2656 0.1319,1.1423 0.2621,1.5636 0.0736,0.2379 0.2975,0.9341 0.143,1.1578 -0.3349,0.4847 -0.8976,-0.3037 -1.2036,-0.0478 -0.2538,0.2124 1.2908,1.5069 0.3099,1.301 -0.9433,-0.1981 -0.6067,0.4763 -0.9534,1.1697 -0.1311,0.2623 -0.5716,0.6018 -0.8222,0.2388 -0.3482,-0.5046 -0.3099,-0.878 -0.3099,-1.4801 -0.0951,0 -1.2274,0.7639 -1.2274,-0.1551 0,-0.2154 0.0766,-0.396 0.1788,-0.573 0.7977,-1.3816 -0.8456,0.2947 -1.4777,-0.0954 -0.6882,-0.4246 -0.8062,-0.8976 -1.6088,-1.2533 -0.5117,-0.6241 -0.9176,-1.575 -0.9176,-2.411 0.6608,0 1.5422,-0.879 1.9663,-1.3249 0.4495,-0.4727 0.9501,-0.7576 1.4062,-1.1936 0.4359,-0.4168 1.3271,-1.6296 1.5015,-2.1962l0.3932 -1.2771c0.1274,-0.4139 -0.0473,-0.9297 0.0477,-1.3129 0.4267,-0.6196 1.0801,-0.9318 1.2513,-1.7546 0.1771,-0.8515 0.7789,-0.4366 1.3704,-0.6326 0,-0.68 0.0162,-1.2294 0.143,-1.8978 0.0993,-0.5232 0.4318,-1.1045 0.6673,-1.5755 0.308,-0.6163 0.2957,-1.5419 0.9534,-1.8501 0.712,-0.3338 1.1637,-1.5187 1.9901,-1.9336 1.4583,-0.2916 2.8226,-2.0771 4.3139,-2.4468l0.0119 -0.012c0,-0.4595 -0.2299,-0.5519 0.0477,-1.11 0.1636,-0.3288 0.8894,-0.4875 1.2155,-0.6087l2.2165 -0.8236c0.8645,-0.3212 2.6168,-2.161 3.6942,-1.7068 0.5444,0.2295 1.1562,0.5741 1.8113,0.4297 0.2998,-0.066 0.0607,-0.3905 0.3814,-0.4894 0.3046,-0.0939 0.8456,-0.2387 1.1559,-0.2387 0.1889,0.0978 1.5537,-0.4121 1.8829,-0.4894 0.2564,-0.0601 0.572,-0.242 0.7745,-0.4177 0.264,-0.2289 0.3257,0.0239 0.5244,0.0239 0.0125,0.0188 0.2313,-0.4206 0.4409,-0.5133 0.3395,-0.1503 0.4481,0.0462 0.572,-0.3581 0.0952,-0.311 0.4473,-0.1373 0.6078,-0.2267 0.4649,-0.2589 0.5452,-0.798 1.1082,-1.0384 0.8778,-0.375 2.3517,0.1385 3.0388,-0.2865 1.0312,-0.6377 0.67,0.1193 1.6088,0.1193 0.1537,-0.2055 -0.4768,-0.7007 -0.3814,-1.0742l0.5244 -2.0529c0.1935,-0.7576 -0.2265,-1.2378 -0.2265,-1.9336 -0.1166,-0.907 -1.2138,-3.7837 0.6078,-3.7837 0.3629,0 0.713,0.4091 1.0963,0.2387 0.6832,-0.3036 1.2219,-0.9683 1.9067,-1.3248 0.245,-0.1276 0.4839,-0.1365 0.6912,0.0716 0.1474,0.1478 0.6316,0.0303 0.6316,-0.1791 -0.3653,-0.0516 -0.5601,-0.2463 -0.5601,-0.6206l0.6554 -0.3939c0.338,-0.2031 0.464,-0.5485 0.7508,-0.7281 0.3637,-0.6854 0.4084,-1.3693 0.8461,-2.0171 0.7421,-1.0985 2.5514,-0.5892 3.4201,-1.5636l1.1917 -1.3368c0.1716,-0.1925 0.7555,0.0249 0.8341,-0.2149 -0.7702,0 0.534,-1.2684 0.7389,-1.3726 0.9612,-0.4893 2.6145,-1.1936 3.2771,-2.0291 0.3552,-0.4478 0.9468,-0.5609 1.4538,-0.4297 0.8057,0.2084 1.4228,-0.5252 2.1212,-0.5252 0.6186,0.0886 1.4868,-0.919 2.1927,-0.919l0 0c0.0557,-0.0119 0.1114,-0.024 0.1671,-0.0359 0.5237,-0.1125 0.4889,-0.8819 0.9652,-1.2413 1.1098,-0.8373 1.3727,-1.4766 1.8709,-2.7691 1.0675,-2.7699 2.7816,1.0664 4.3139,-0.4894 0.4579,-0.465 1.7022,-1.5396 2.3952,-1.3606 0.6678,0.1724 1.7289,-0.802 2.0139,-1.3726 0.0135,-0.027 0.0822,-0.1224 0.0834,-0.1671 0.0268,-0.9384 -0.0051,-2.1481 -0.7626,-2.8526 -0.2364,-0.2198 -0.4347,-0.4684 -0.7389,-0.6207 -0.5765,-0.2885 -1.0152,-0.3818 -1.2631,-1.0503 -0.2652,-0.7155 -0.6731,-2.2118 -1.2394,-2.6975 -0.3624,-0.3109 -0.5848,-0.6392 -1.0486,-0.8713 -0.49,-0.2451 -1.2514,-0.6747 -1.6445,-1.0383 -0.1201,-0.1112 -0.2471,-0.2939 -0.3933,-0.3581 -0.4897,-0.215 -1.3248,-0.5547 -1.859,-0.7758 -0.2999,-0.1242 -0.5823,-0.4328 -0.8103,-0.7639 -0.6896,-1.0016 -0.6864,-2.4979 -1.4181,-3.6165 -0.3773,-0.5769 -0.7338,-1.1681 -1.1321,-1.7307 -0.222,-0.3136 -0.4847,-0.5967 -0.7269,-0.8951 -0.22,-0.2709 -0.5342,-0.6325 -0.7865,-0.7042 -0.818,-0.2328 -1.6577,-0.2216 -2.288,-0.8475 -0.0563,-0.0558 -0.1026,-0.1499 -0.1788,-0.179 -0.3836,-0.1465 -0.9352,-0.8329 -1.3227,-1.0623 -0.3804,-0.2251 -0.5559,-0.2776 -0.6912,-0.8235 -0.1939,-0.7826 -0.0947,-1.5551 -0.4171,-2.3275 -0.1469,-0.3519 -0.559,-2.0289 -0.7507,-2.1961 -0.0274,-0.0239 0.0047,-0.0732 -0.0238,-0.0955 -0.4642,-0.3624 -0.123,-1.5535 -0.8104,-1.8977 -1.1485,-0.575 -1.7624,-1.6492 -3.1698,-1.1101 -0.6246,0.2393 -1.2642,0.5371 -1.9424,0.5371 -0.6491,0 -0.9285,-0.7125 -1.3109,-0.8713 -0.1711,-0.0711 -0.4397,-0.0739 -0.6196,-0.2029 -0.0374,-0.0269 -0.171,-0.0342 -0.2026,-0.0716 -0.1848,-0.2185 -0.393,-0.354 -0.5362,-0.6326 -0.2928,-0.57 -0.2588,-1.4477 -0.4648,-2.0887 -0.1538,-0.4785 -0.3575,-1.2671 -0.3575,-1.7665 0,-0.4026 0.2149,-0.5456 0.3813,-0.8593 0.6657,-1.2542 0.0667,-3.5219 0.0715,-4.8817 0.0039,-1.1139 0.008,-2.228 0.0119,-3.3419 0.0031,-0.8994 -1.9393,-1.8679 -2.3475,-2.6856 -0.4178,-0.8371 -2.2369,-1.2121 -3.0745,-1.4084 -1.1365,-0.2665 -1.138,0.3858 -1.9067,0.8475 -1.4138,0.8494 -2.0688,0.1959 -3.2294,-0.7281 -0.4836,-0.3851 -0.3061,-0.7186 -0.0358,-1.1458 0.2922,-0.462 0.0349,-1.3264 -0.1549,-1.7784 -0.1439,-0.3425 -0.5715,-1.0577 -0.6435,-1.4204 -0.1343,-0.6767 0.5907,-0.2964 0.9176,-0.4177 0.3614,-0.134 0.1426,-1.4785 0.0715,-1.85 -0.1513,-0.7907 -1.099,-1.3779 -0.3813,-2.1842 0.342,-0.3841 0.374,-0.724 0.8222,-1.0862 0.4468,-0.3609 0.7672,-0.677 0.5959,-1.2413 -0.1339,-0.4409 -1.1672,-0.123 -1.573,-0.5132 -0.1008,-0.097 -0.1429,-0.35 -0.2622,-0.4536 -0.6464,-0.561 -0.2573,-1.3803 -0.0238,-1.9932 0.1682,-0.4414 0.3977,-1.201 0.7745,-1.5278 0.5466,-0.4742 0.3373,-0.2286 0.5005,-0.8951 0.0672,-0.2745 0.3914,-0.4337 0.2026,-0.74 -0.2148,-0.3483 -0.6622,-0.8563 -0.9414,-1.1578 -0.2302,-0.2484 -0.3295,-1.2103 0.0715,-1.3726 0.1701,-0.0689 0.6381,-0.1618 0.8342,-0.3461 0.7088,-0.6664 0.6226,-2.7135 2.0615,-2.0768 0.3909,0.173 1.2463,0.4893 1.6565,0.4893 0.8256,0 0.8495,-0.5388 1.1559,-1.1338 0.2947,-0.5725 1.2786,-0.3814 1.7037,-1.1351 0.2303,-0.4082 0.2746,-0.5667 0.3813,-1.0026 0.0725,-0.2961 0.2531,-0.7151 0.3933,-0.9072 0.4295,-0.588 0.9577,-1.2216 0.8341,-1.9336 -0.0112,-0.0647 -0.0492,-0.1223 -0.1072,-0.1551 -0.6558,-0.3707 -0.9743,-1.1791 -0.6078,-1.8739 0.2153,-0.4084 0.8415,-0.2617 1.1917,-0.1433 0.6809,0.2301 0.7732,0.2241 1.2751,-0.1671 0.1633,-0.1272 0.2789,-0.3105 0.4409,-0.4177 0.6124,-0.4049 0.5634,-1.3343 0.4052,-1.8978 -0.1824,-0.65 -0.787,-1.1591 -1.1798,-1.683 -0.4467,-0.5956 -0.5889,-0.8267 -0.4647,-1.5994 0.3327,-2.0703 -2.0495,-2.1926 -2.574,-4.0343 -0.1025,-0.3599 -1.3226,-1.9227 -1.3109,-2.3155 0.01,-0.333 0.1636,-0.5648 0,-0.8116 -0.0078,-0.0119 -0.0159,-0.0239 -0.0238,-0.0359 -0.1789,-0.2698 -0.7066,-0.0244 -0.9176,-0.2625 -0.2292,-0.2588 -0.3674,-0.876 -0.1073,-1.2056 0.0247,-0.0313 0.0321,-0.0339 0.0477,-0.0716 0.2434,-0.5896 -0.2098,-1.1451 0.3813,-1.5994 1.088,-0.8361 2.4205,-1.6249 3.6704,-2.1365 0.8439,-0.3453 1.6197,-0.625 2.3953,-1.1219 0.7706,-0.4936 1.7686,-1.0155 2.3357,-1.6949 0.9369,-1.1222 0.8387,-2.7504 2.0735,-3.6524 0.5509,-0.4023 4.1419,-2.5781 2.7647,-2.5781 -0.0119,0 -0.0247,0.0044 -0.0358,0 -0.0103,-0.0041 -0.0127,-0.0219 -0.0238,-0.0239 -0.0351,-0.0064 -0.0714,0 -0.1072,0 -0.3313,0 -1.3523,1.1522 -1.5611,0.6923 -0.1237,-0.2727 0.3264,-1.3954 0.4409,-1.683 0.2145,-0.5391 0.3922,-0.9548 1.0725,-0.9548 0.7654,0 1.6115,-0.7178 1.9663,-1.3368 0.1896,-0.3308 0.5662,-0.6554 0.9414,-0.7162 0.6178,-0.1001 0.6927,-0.3722 1.1917,-0.6565 0.3913,-0.2228 1.3137,-1.6342 1.4419,-2.1007 0.1964,-0.7151 0.1601,-1.2477 0.8461,-1.671 1.048,-0.6466 1.2152,-1.4888 1.5849,-2.602 0.2653,-0.7986 1.5031,-1.9683 1.43,-2.7213 -0.0083,-0.0858 -0.2691,-0.2386 -0.3456,-0.2746 -0.3532,-0.1666 -0.8129,-0.8174 -0.5243,-1.0026 0.1549,-0.0994 0.3099,-0.1989 0.4648,-0.2984 0.3464,-0.2223 0.0795,-1.0164 0.286,-1.3726 0.404,-0.6971 1.1128,-0.2081 1.1678,-1.2413 0.0724,-1.3618 0.758,-2.9032 1.859,-3.7956 0.5203,-0.4216 1.0407,-0.8435 1.5611,-1.2652 0.5949,-0.4822 1.0448,-0.5521 1.0368,-1.3487 -0.004,-0.3952 -0.3388,-0.7349 0.1549,-0.9668 0.6775,-0.3184 1.3912,0.3194 2.0258,-0.4775 0.4655,-0.5847 0.382,-1.4687 1.156,-1.9336 0.5992,-0.36 0.954,-0.2813 1.5849,-0.0954 0.8618,0.2541 1.674,-0.5181 2.3953,-0.8594 0.3066,-0.145 0.6045,-0.2885 0.8378,-0.4726l0 0 23.4751 14.592 5.6579 3.7843 8.2464 4.9653 17.6369 10.1693 4.7427 2.7452 6.2214 3.6805 0 0zm-31.5803 157.035c-0.0289,-0.0628 -0.0229,-0.0825 -0.0715,-0.1313 -0.1481,-0.1485 -0.3551,-0.2697 -0.5601,-0.3223 -0.053,-0.0135 -0.1426,-0.0481 -0.1907,0 -0.1016,0.1016 -0.0977,0.311 -0.0119,0.4178 0.1404,0.1745 0.2152,0.3105 0.2979,0.5132 0.0472,0.1155 0.0339,0.1218 0.1192,0.191 0.0454,0.0367 0.1498,0.0488 0.2026,0.0358 0.0102,-0.0518 0.0454,-0.1085 0.0715,-0.1552 0.0342,-0.0615 0.1036,-0.2018 0.1549,-0.2387l-0.0119 -0.3103zm-0.8699 0.561c-0.0975,0 -0.1714,-0.1041 -0.2026,-0.191 -0.0757,-0.2111 -0.042,-0.4792 -0.1311,-0.6923 -0.0552,-0.1323 -0.2528,-0.1738 -0.286,-0.0119 -0.0282,0.1371 -0.0776,0.2649 -0.0715,0.4177 0.0096,0.2366 0.0926,0.3631 0.2502,0.5372 0.07,0.0772 0.249,0.3639 0.3218,0.3819 0.0057,0.035 0.126,0.1796 0.1668,0.191 0.1311,0.0365 0.1033,-0.2544 0.0954,-0.3104 -0.0273,-0.0067 -0.0162,-0.0173 -0.0358,-0.0238l-0.1072 -0.2984zm-0.441 0.6564c-0.0251,-0.0174 -0.0648,-0.0327 -0.0715,-0.0596 -0.1594,-0.0797 -0.3979,-0.2792 -0.5362,-0.4297 -0.1881,-0.2049 -0.0991,-0.2461 -0.0477,-0.4655 0.029,-0.1238 0.1118,-0.5872 -0.0596,-0.6326 -0.4145,-0.11 -0.2383,0.8197 -0.2383,1.0265 0,0.423 -0.2344,0.9665 0.2741,1.1816 0.2703,0.1144 0.557,0.0836 0.858,0.0836 0.1294,0 0.2026,-0.0542 0.2026,-0.191 0,-0.1665 -0.2151,-0.228 -0.2503,-0.37l-0.1311 -0.1433zm-3.3128 3.2466c-0.2403,-0.1054 -0.3828,-0.3025 -0.5839,-0.4536 -0.0885,-0.0664 -0.2991,-0.2103 -0.3814,-0.0597 -0.0696,0.1272 -0.1,0.6415 -0.0596,0.7878 0.0164,0.0593 0.0401,0.1993 0.0239,0.2626 -0.0327,0.1283 0.0119,0.2456 0.0119,0.37 0.0183,0.0183 0.0244,0.0225 0.0477,0.0358 0.031,0.1252 0.3642,-0.0475 0.417,-0.0955 0.0622,-0.0564 0.0795,-0.1417 0.1311,-0.2029 0.0456,-0.0539 0.1232,-0.1723 0.1788,-0.191l0.2145 -0.4535zm17.9824 -23.7403c-0.2268,0.9151 -0.8144,0.4598 -0.9414,1.289 -0.0725,0.4732 0.2288,0.9098 0.0476,1.2652 -0.2155,0.4224 -0.2839,0.5092 -0.3694,0.9549 -0.1188,0.6195 -0.7746,0.1406 -0.7746,0.8594 0,1.0057 -0.0461,1.0812 -0.6077,1.9694 -0.2887,0.4567 -2.2046,2.0623 -2.2046,2.2081 0,0.1485 0.3165,0.4954 0.0357,0.5132 -0.4818,0.0307 -0.9722,-0.2755 -1.2512,-0.6325 -0.4009,-0.5132 -0.572,1.3765 -0.572,1.5755 0.876,0.2171 0.8879,-0.1754 1.1082,-0.8475 0.2425,0 0.1991,0.2272 0.143,0.4297 -0.1767,0.4745 -0.1562,1.0201 -0.1907,1.5159 -0.0469,0.6721 -1.002,1.0079 -1.0367,1.659 -0.0378,0.7111 -0.3435,0.5674 -0.6673,1.0027 -0.3635,0.4885 -0.6579,1.1055 -0.8342,1.6829 -0.0822,0.2695 -0.5074,0.6921 -0.7389,0.8594 -0.3692,0.2667 0.0502,0.7661 -0.2621,0.9907 -0.0705,0.0506 -1.1269,-0.8301 -0.727,-0.1075 0.0357,0.0644 0.3683,0.478 0.2741,0.5013 -0.035,0.142 -0.4661,0.7576 -0.5839,0.9191 -0.3131,0.3131 -0.2179,0.7382 -0.4647,1.0265 -0.226,0.2638 -0.5166,0.3708 -0.6436,0.7042 -0.2492,0.6536 -0.1772,1.1714 -0.715,1.7545 -0.1521,0.1648 -0.892,0.9757 -0.9056,1.0862 -0.311,0.2217 -0.5332,0.9558 -0.9057,1.2652 -0.3598,0.299 -0.9629,0.9219 -1.4896,0.8236 -0.3283,0.8766 1.3927,0.7109 1.5611,0.1193 0.36,-0.206 0.9069,-1.3444 1.2155,-1.7307 0.6117,-0.766 1.1891,-1.4651 1.6445,-2.3274 0.5049,-0.9558 1.3833,-1.734 1.871,-2.7095l0.4528 -1.1697c0.0982,-0.2537 0.4546,-0.6662 0.4886,-0.9071 0.3335,-0.3335 0.6536,-1.152 0.9295,-1.5755 1.1386,-1.7481 2.3855,-3.8231 3.1937,-5.765 0.2192,-0.2547 0.327,-0.6145 0.4886,-0.9071 0.1251,-0.2267 0.2805,-0.454 0.3932,-0.6804 0.1471,-0.0919 0.2503,-0.3822 0.3575,-0.5252 0.4439,-0.5917 0.8513,-1.2089 1.2513,-1.8381 0.263,-0.2965 0.6546,-1.4979 0.7388,-1.9216 0.2191,-1.1032 0.7637,-2.539 1.4777,-3.4256l1.4419 -1.7904c0.1367,-0.1697 0.3685,-0.1756 0,-0.2984 -0.2155,-0.0717 -0.7116,-0.6238 -0.858,-0.4774 -0.2164,0.2164 -0.4886,0.1841 -0.4886,0.5252 0,0.3491 -0.1241,1.3602 -0.4409,0.6445 -0.1202,-0.2714 -0.0834,-0.7606 -0.0834,-1.0742 -0.1399,0.0463 -0.1072,0.8495 -0.7627,0.7161 -0.5631,-0.1147 -0.3214,-0.0464 -0.7865,0.2507 -0.9435,0.6025 0.8875,0.4893 1.2155,0.4893 0.3072,0 0.0835,0.5779 0.0835,0.7759l-0.1073 0.3342zm-0.9533 -2.7095c0.0206,-0.0966 0.0119,-0.1993 0.0119,-0.2983 0,-0.0434 0.0104,-0.1142 0,-0.1552 -0.006,-0.0234 -0.0239,-0.0282 -0.0239,-0.0597l-0.0119 -0.0119c-0.0546,0 -0.0881,-0.0243 -0.143,0 -0.0545,0.0242 -0.0991,0.0835 -0.143,0.1193 -0.1167,0.0949 -0.254,0.0629 -0.3813,0.1194 -0.048,0.0212 -0.1668,0.0619 -0.1668,0.1313 0,0.0546 0.0198,0.0982 0.0476,0.1432 0.0697,0.1132 0.0954,0.1947 0.0954,0.3342 0,0.0497 -0.0327,0.2516 0.0119,0.2626 0.0192,0.058 0.1997,0.0356 0.2502,0.0119 0.0574,-0.0268 0.1331,-0.0848 0.1788,-0.1313 0.0515,-0.0526 0.107,-0.0953 0.1668,-0.1432l0.1073 -0.3223zm-17.756 37.2517c0.4259,-0.8018 1.9938,-2.1624 1.7517,-3.1391 -0.5422,0 -0.995,0.7519 -1.3585,0.7519 0,-0.358 0.5467,-0.6364 0.6078,-0.8832 0.0378,0 0.1359,-0.0821 0.1668,-0.1074 0.0191,-0.0155 0.1528,-0.0653 0.1549,-0.0717 0.4466,0 0.559,-0.1884 0.6554,-0.5968 0.1705,-0.7218 0.6009,-1.5774 1.013,-2.1961l0 -0.1433c0.0763,-0.4092 -0.3299,-1.1489 -0.5125,-1.5397 -0.1399,-0.2993 -0.7173,-1.063 -0.8222,-0.4535 -0.0941,0.5471 -0.2501,1.6566 -0.9653,1.4084 -0.5901,-0.2049 -1.4046,-0.4083 -2.0139,-0.0597 -0.0566,0.4581 0.3155,0.8211 0.1549,1.2771 -0.1502,0.4268 -0.9061,-0.4667 -1.0487,-0.6803 -0.1872,0 -0.5438,0.2918 -0.6196,0.4774 -0.2856,0.6992 1.5674,0.4605 0.9771,1.4443 -0.3337,0.5563 -0.2368,1.0081 0,1.5635 0.2456,0.5757 -0.1031,0.4858 -0.5362,0.3581 -0.7201,-0.2123 0.0217,0.6905 -0.7984,0.8713 -1.0423,0.2297 -0.5959,0.3747 -0.5959,1.2652 0,0.6017 0.2768,0.8799 0.7984,1.0981 0.4148,0.1734 0.5331,0.844 0.3099,1.1817 -0.2431,-0.2441 -0.1211,-0.6443 -0.5601,-0.7997 -0.9486,-0.3357 -0.676,0.0945 -1.2393,0.5968 -0.3493,0.3114 -0.4409,-0.0314 -0.4529,-0.3223 -0.0164,-0.3995 -0.1327,-0.3477 -0.3694,-0.5849 -0.3145,-0.315 -0.431,-0.34 -0.572,-0.7997 -0.1504,-0.4899 -0.2173,-0.1319 -0.3575,0.0597 -0.3646,0.4985 -0.8932,0.2332 -1.0964,-0.2268 -0.1705,-0.3858 -0.4618,-0.8673 -0.7865,-1.1458 -0.3988,-0.3422 -1.1576,1.8121 -1.0606,1.8978 0.3203,0.2832 0.3532,0.0406 0.0358,0.4655 -0.3546,0.4745 0.5009,0.9762 0.9057,1.0384 0.5883,0.0903 0.7964,-0.1012 1.0963,-0.561 0.1531,-0.2346 0.2629,-0.3337 0.4648,-0.1313 0.3372,0.3378 1.0188,0.0414 1.2989,0.3223 0.1157,0.1159 0.4052,0.9943 0.4052,1.1816 -0.5562,0.4226 -1.4936,-0.8235 -1.9782,-0.8235 -0.4498,0 0.637,1.352 0.715,1.5874 0.2736,0 0.9089,-0.3657 1.0963,-0.1193 0.3798,0.4995 -0.1725,0.4053 -0.6077,0.5132 0,0.1769 0.5046,0.9162 0.6554,1.0265 0.3756,0.2746 2.191,-1.4092 2.4787,-1.7068 0.4779,-0.4942 0.9936,-0.9111 1.3942,-1.4801 0.289,-0.4103 0.8999,-1.0334 1.0487,-1.48l0.1669 -0.3342zm-19.6627 12.8429c-0.1296,0.0297 -0.1789,-0.0718 -0.2741,-0.1432 -0.0752,-0.0565 -0.1601,-0.1603 -0.2264,-0.2268 -0.0572,-0.0572 -0.1783,-0.1518 -0.2622,-0.0836 -0.0561,0.0457 -0.1073,0.09 -0.1668,0.1313 -0.0558,0.0386 -0.1646,0.0713 -0.1788,0.1433 0.2239,0.1119 0.3645,0.2605 0.3933,0.5132 0.0113,0.0995 0.0485,0.1438 0.1191,0.179 0.1378,0.0689 0.349,0.1433 0.5125,0.1433 0.0816,0 0.1484,0.0477 0.2264,0.0477 0.0828,0 0.1412,-0.0801 0.2026,-0.0955 0.0101,-0.0411 0.0466,-0.0835 0.0595,-0.1313 0.0239,-0.088 0.0209,-0.0836 0,-0.1671l-0.4051 -0.3103zm-63.7786 -57.9125c0.023,-0.0646 0.0604,-0.1093 0.0953,-0.1671 0.0947,-0.1572 0.1891,-0.2465 0.2979,-0.382 0.0633,-0.0787 0.2817,-0.0119 0.3695,-0.0119 0.194,0 0.5243,-0.1486 0.5243,0.1432 0,0.0746 -0.0898,0.1744 -0.1549,0.2268 -0.0324,0.0262 -0.2112,0.1211 -0.2145,0.1313 -0.0381,0 -0.0743,0.033 -0.1073,0.0478 -0.0643,0.0287 -0.1532,0.0484 -0.2264,0.0596 -0.0567,0.0086 -0.1373,0.0036 -0.1907,0.0239 -0.0588,0.0225 -0.1168,0.0611 -0.1787,0.0836l-0.2145 -0.1552zm19.157 -13.75c0.1702,-0.0491 0.3898,-0.2324 0.5481,-0.3223 0.3181,-0.1809 0.6549,-0.3771 1.007,-0.4894 0.1803,-0.0575 1.044,-0.3785 1.1619,-0.2626 0,0.1037 -0.1196,0.171 -0.2086,0.2029 -0.2691,0.0964 -0.4449,0.2481 -0.6852,0.388 -0.2224,0.1296 -0.4296,0.3636 -0.6375,0.5251 -0.2967,0.2303 -0.6,0.1847 -0.9593,0.1254l-0.2264 -0.1671z"/>
 </g>
</svg>
