<?xml version="1.0" encoding="UTF-8"?>
<!DOCTYPE svg PUBLIC "-//W3C//DTD SVG 1.1//EN" "http://www.w3.org/Graphics/SVG/1.1/DTD/svg11.dtd">
<!-- Creator: CorelDRAW -->
<svg xmlns="http://www.w3.org/2000/svg" xml:space="preserve" width="210mm" height="297mm" style="shape-rendering:geometricPrecision; text-rendering:geometricPrecision; image-rendering:optimizeQuality; fill-rule:evenodd; clip-rule:evenodd"
viewBox="0 0 210 297"
 xmlns:xlink="http://www.w3.org/1999/xlink">
 <defs>
  <style type="text/css">
   <![CDATA[
    .str1 {stroke:#2F3133;stroke-width:0.1}
    .str3 {stroke:black;stroke-width:0.1;stroke-opacity:0.501961}
    .str0 {stroke:black;stroke-width:0.1}
    .str2 {stroke:black;stroke-width:0.5}
    .fil4 {fill:none}
    .fil0 {fill:white}
    .fil1 {fill:#1F1A17;fill-rule:nonzero}
    .fil2 {fill:#C2C1C1;fill-rule:nonzero}
    .fil3 {fill:white;fill-rule:nonzero}
    .fil6 {fill:black;fill-rule:nonzero}
    .fil5 {fill:white;fill-rule:nonzero;fill-opacity:0.501961}
   ]]>
  </style>
 </defs>
 <g id="Plan_x0020_1">
  <metadata id="CorelCorpID_0Corel-Layer"/>
  <path class="fil0 str0" d="M21.7688 19.1998l58.9214 -0.0044c0.048,0.0794 0.293,0.2161 0.3039,0.2547 0.0656,0.0129 0.1338,0.0593 0.2085,0.0716 0.6685,0.1109 1.267,-0.0639 1.8829,-0.1671l102.806 -0.1671 0 0 0.0219 17.1518 0 0 -1.2604 0.0017 -0.5822 147.613 -96.5598 0.0486c0.0406,0.1241 0.0863,0.2146 0.1382,0.2927 0.0843,0.1269 0.2078,0.452 0.3217,0.5371 0.4323,0.3227 0.4038,2.4129 0.4171,2.7691 0.0245,0.6578 -0.3562,1.499 -0.0119,2.0171 0.2711,0.4081 0.4694,0.4847 0.8699,0.7162 0.3377,0.1953 0.8367,-0.1831 1.0964,0.2506 0.0231,0.0385 0.0334,0.0097 0.0595,0.0358 0.0039,0.004 0.0105,0.0067 0.012,0.012 0.0526,0.189 0.1029,0.3787 0.153,0.5684l0 0 -45.7946 -0.1865 0.0159 14.3976 -22.9199 -0.0493 0 0 -0.0995 -186.164 0 0z"/>
 </g>
</svg>
