<?xml version="1.0" encoding="UTF-8"?>
<!DOCTYPE svg PUBLIC "-//W3C//DTD SVG 1.1//EN" "http://www.w3.org/Graphics/SVG/1.1/DTD/svg11.dtd">
<!-- Creator: CorelDRAW -->
<svg xmlns="http://www.w3.org/2000/svg" xml:space="preserve" width="297mm" height="210mm" style="shape-rendering:geometricPrecision; text-rendering:geometricPrecision; image-rendering:optimizeQuality; fill-rule:evenodd; clip-rule:evenodd"
viewBox="0 0 297 210"
 xmlns:xlink="http://www.w3.org/1999/xlink">
 <defs>
  <style type="text/css">
   <![CDATA[
    .str2 {stroke:#2F3133;stroke-width:0.1}
    .str1 {stroke:black;stroke-width:0.1;stroke-opacity:0.501961}
    .str0 {stroke:black;stroke-width:0.1}
    .str3 {stroke:black;stroke-width:0.5}
    .fil5 {fill:none}
    .fil0 {fill:white}
    .fil2 {fill:#1F1A17;fill-rule:nonzero}
    .fil3 {fill:#C2C1C1;fill-rule:nonzero}
    .fil4 {fill:white;fill-rule:nonzero}
    .fil6 {fill:black;fill-rule:nonzero}
    .fil1 {fill:white;fill-rule:nonzero;fill-opacity:0.501961}
   ]]>
  </style>
 </defs>
 <g id="Plan_x0020_1">
  <metadata id="CorelCorpID_0Corel-Layer"/>
  <path class="fil0 str0" d="M116.839 61.3811c0.0256,-0.0257 0.0424,-0.0537 0.0638,-0.0823 0.0208,-0.028 0.0335,-0.0488 0.0457,-0.0822 0.0659,-0.0663 0.1102,-0.161 0.146,-0.2468 0.0246,-0.0588 0.0345,-0.0777 0.0729,-0.1462l0.1095 -0.2102c0.0674,-0.0674 0.0457,-0.1794 0.0457,-0.2741 -0.0464,0.0151 -0.3103,0.205 -0.3103,0.265 0,0.1069 0.0041,0.2181 -0.1186,0.2559 -0.3254,0.1001 -0.5552,-0.0348 -0.7299,0.3381 -0.1032,0.2205 -0.1697,0.441 -0.2829,0.6671 0.1153,0.0197 0.2122,0.0366 0.3285,0.0366 0.0611,0 0.1092,0.016 0.1734,0 0.104,-0.0258 0.1747,-0.0641 0.2646,-0.1188 0.0698,-0.0426 0.07,-0.162 0.1277,-0.2102 0,-0.0279 0.0016,-0.0361 0.0091,-0.064l0.0548 -0.1279zm-3.3213 -0.6032c0.2955,-0.0224 0.5401,-0.4407 0.8577,-0.5118 0.2225,-0.0499 0.5157,-0.1188 0.7482,-0.1188 0,0.0528 -0.1796,0.2454 -0.219,0.3199 -0.1377,0.2606 -0.3023,0.3163 -0.5383,0.4661 -0.1458,0.0926 -0.2825,0.2144 -0.438,0.3107 -0.1816,0.1123 -0.3885,0.173 -0.5748,0.2833 -0.0858,0.0507 -0.2674,0.0971 -0.1734,-0.0731 0.0889,-0.1612 0.2464,-0.3544 0.2464,-0.5483l0.0912 -0.128zm4.6899 -4.4779l0.6387 -0.2651c0.2222,-0.0922 0.5904,-0.265 0.8212,-0.265l0.7299 0c0,0.1956 -0.2477,0.3846 -0.3649,0.5301 -0.1153,0.1433 -0.219,0.3563 -0.219,0.5483 0,0.3473 -0.4121,0.6775 -0.5566,0.9687 -0.0551,0.1109 -0.1839,0.2643 -0.2737,0.329 -0.2075,0.1498 -0.3914,0.1017 -0.5931,0.329 -0.1267,0.1429 -0.4733,0.1105 -0.4106,-0.1463 0.049,-0.2006 0.355,-0.3714 0.4288,-0.5848 0.0877,-0.254 0.1673,-0.4516 -0.0091,-0.6854 -0.0489,-0.0648 -0.1806,-0.1505 -0.2463,-0.2102 -0.1306,-0.1185 -0.0548,-0.2146 -0.0548,-0.3656l0.1095 -0.1827zm-2.1442 -1.5628c-0.1375,0.0106 -0.2851,0.0491 -0.4288,0.0549 -0.1951,0.008 -0.3684,-0.0427 -0.4289,0.1919 -0.0546,0.2121 0.0092,0.4189 0.0092,0.6306 0.0628,0.0469 0.1313,-0.0174 0.1916,-0.0457 0.0757,-0.0354 0.169,-0.0549 0.2463,-0.0823 0.2151,-0.0762 0.365,-0.2711 0.365,-0.5118l0.0456 -0.2376zm2.0895 -5.4192c-0.1354,0.031 -0.1858,-0.0996 -0.2829,-0.1645 -0.0786,-0.0524 -0.1761,-0.053 -0.2555,0 -0.0671,0.0447 -0.1033,0.0922 -0.146,0.1462 -0.0249,0.0314 -0.1147,0.051 -0.1551,0.0914 -0.0937,0.0937 -0.0912,0.1846 -0.0912,0.3107 0,0.0882 -0.0757,0.1966 -0.0456,0.2742 0.0607,0.1568 0.4794,-0.0181 0.6022,-0.0274 0.1962,-0.0148 0.3565,-0.1828 0.5474,-0.1828 0,-0.0533 0.0548,-0.2287 -0.0182,-0.2467l-0.1551 -0.2011zm4.1606 -4.2769c0.4163,0 0.8227,-0.18 1.2227,-0.2742 0.1461,-0.0343 0.2091,-0.1321 0.3285,-0.2102 0.0755,-0.0495 0.3381,-0.3015 0.4014,-0.3015 0,0.1993 -0.0547,0.3821 -0.0547,0.594 0,0.1475 -0.2816,0.4016 -0.3832,0.5118 -0.0946,0.1028 -0.0974,0.236 -0.1278,0.3655 -0.0909,0.3873 -0.551,0.1133 -0.6478,0.5026 -0.0532,0.2138 -0.3294,0.4478 -0.5657,0.4478 -0.0683,0 -0.1444,-0.0839 -0.2007,-0.1188 -0.3621,-0.224 -0.5771,0.0963 -0.6661,-0.4843 -0.0421,-0.2745 0.0201,-0.7266 0.2463,-0.8956l0.4471 -0.1371zm21.1181 -19.3136c0.071,-0.0217 0.1777,-0.1502 0.2418,-0.2011 0.1148,-0.0913 0.2233,-0.1877 0.333,-0.2878 0.066,-0.0603 0.1422,-0.1116 0.2145,-0.1646 0.0431,-0.0317 0.1116,-0.1142 0.1642,-0.1142 0.065,0.065 -0.0445,0.2275 -0.0639,0.297 -0.0607,0.2163 -0.2508,0.2411 -0.4106,0.361 -0.1258,0.0945 -0.2299,0.1965 -0.4014,0.1965l-0.0776 -0.0868zm5.2693 -4.4873c0.2298,0 0.4048,-0.1874 0.5749,-0.3153 0.1012,-0.0762 0.2129,-0.0886 0.3285,-0.1371 0.1118,-0.0468 0.2524,-0.1494 0.3695,-0.1325 0.1427,0.2855 -0.5423,0.3826 -0.6935,0.4981 -0.0642,0.0491 -0.1667,0.0869 -0.2418,0.1096 -0.1423,0.0432 -0.1648,0.0891 -0.3193,0.0412l-0.0183 -0.064zm7.263 -4.2183c0.0264,-0.2259 0.2991,-0.364 0.447,-0.5026 0.1276,-0.1197 0.3682,-0.204 0.5384,-0.2376 0.0917,0.1227 -0.3152,0.4388 -0.3924,0.5117 -0.0408,0.0384 -0.0973,0.0728 -0.1277,0.1188 -0.038,0.0573 -0.0777,0.0911 -0.1277,0.1371 -0.0759,0.0696 -0.177,0.064 -0.2829,0.064l-0.0547 -0.0914zm1.7792 -0.6032c0.0876,0.0677 0.1287,0.1232 0.2463,0.128 0.0826,0.0033 0.1522,-0.0147 0.2282,-0.0366 0.058,-0.0168 0.1168,-0.0674 0.1733,-0.0822 0.1443,-0.038 0.2732,-0.1645 0.4197,-0.1645 0,0.0814 -0.1966,0.278 -0.2646,0.329 -0.0534,0.0402 -0.0989,0.0621 -0.1551,0.0914 -0.1131,0.0588 -0.1917,0.1672 -0.3102,0.2193 -0.0631,0.0278 -0.1266,0.0376 -0.1916,0.0548 -0.0847,0.0225 -0.1504,0.0646 -0.2464,0.0549 -0.0359,-0.0036 -0.0675,-0.1264 -0.073,-0.1554 -0.0149,-0.0783 0.0021,-0.1593 0.0365,-0.2285l0.1369 -0.2102zm5.2829 -1.0326c0.5351,0 1.0295,-0.1012 1.5329,-0.2468 0.3119,-0.0903 0.5488,-0.3235 0.8851,-0.2924 0.2333,0.0216 0.4107,-0.0806 0.2281,0.2285 -0.0693,0.1175 -0.2306,0.3457 -0.3832,0.3564 -0.2505,0.0175 -0.4758,-0.1746 -0.7391,-0.0731 -0.1272,0.0491 -0.2661,0.0898 -0.3923,0.1462 -0.0944,0.0423 -0.2902,0.0439 -0.3559,0.1096 -0.0831,0 -0.2726,0.0776 -0.365,0.1006 -0.0844,0.0209 -0.156,0.0548 -0.2463,0.0548 -0.1088,0 -0.1513,-0.1015 -0.2373,-0.1554l0.073 -0.2284zm3.157 -0.5849c0.1103,-0.0253 0.193,-0.0961 0.3011,-0.1279 0.077,-0.0227 0.1457,-0.0631 0.219,-0.0914 0.1796,-0.0692 0.3953,-0.0815 0.5566,-0.2102 -0.0931,0.0931 -0.1934,0.1869 -0.2828,0.2833 -0.0421,0.0455 -0.0809,0.0902 -0.1278,0.1371 -0.0423,0.0423 -0.114,0.0646 -0.146,0.1096 -0.1135,0.0887 -0.217,0.1758 -0.3467,0.2285 -0.0629,0.0256 -0.1448,0.0822 -0.2099,0.0822 -0.0799,0 -0.1492,0.0003 -0.2098,-0.0457 0,-0.0507 -0.0285,-0.0889 0.0182,-0.1279 0,-0.0369 0.0183,-0.0437 0.0183,-0.0731l0.2098 -0.1645zm11.5787 181.851c0,-0.2942 0.0455,-0.3932 0.2646,-0.6123 0.3034,-0.3034 -0.3164,-1.1187 0.219,-1.5445 0.1634,-0.13 0.4035,-0.0633 0.584,-0.2102 0.439,-0.3576 0.4862,-0.8599 0.6387,-1.3799 0.1224,-0.417 -0.2356,-2.3121 0.8485,-1.8277 0.5822,0.2602 1.4515,-0.085 2.0165,-0.1645 0.1499,-0.0211 0.5555,-0.1473 0.6843,-0.0823 0.1074,0.0541 0.0091,0.4637 0.0091,0.5849 0,0.3439 0.6296,0.5633 0.6296,0.9321 0,0.6757 -0.7565,1.2908 -1.1679,1.7821 -0.3058,0.3651 -1.0472,0.8139 -1.1861,1.2337 0,-0.1719 0.1021,-0.2975 0.0638,-0.4844 -0.0339,-0.165 -0.5034,0.4341 -0.7025,0.5392 -0.8699,0.4591 -1.6862,1.0084 -2.6278,1.2429l-0.2738 -0.0091zm13.0386 -3.29c0.4759,-0.2226 1.3155,-0.4204 1.834,-0.4204 -0.0932,0.0937 -0.1648,0.2635 -0.2463,0.3656 1.5902,0 3.4023,0.3067 4.9453,-0.0731 0.2268,-0.0558 0.5568,-0.3777 0.2464,-0.3747l-1.8979 0.0183c-0.1922,0.0019 0.4258,-0.4631 0.4836,-0.5209 0.2,-0.2 0.2126,-0.4426 0.5475,-0.5027 0.4521,-0.0811 0.6391,-0.0899 1.0036,-0.4021 0.2165,-0.1853 0.773,-0.2797 1.0493,-0.4112 0.3422,-0.163 0.8504,0.1527 1.25,0.0548 0.2563,-0.0627 0.4548,-0.2846 0.6387,-0.3198 0.3221,-0.0618 0.3629,0.1892 0.7026,-0.0457 0.1955,-0.1353 0.6978,-0.1114 0.9854,-0.2285 0.7723,-0.1811 1.0585,0.0983 1.8249,-0.3838 0.4142,-0.2606 0.9673,-0.6584 1.4416,-0.7494 0.3027,-0.058 0.7873,0.1432 1.0219,-0.1096 0.2784,-0.3002 0.7084,-0.4786 0.9581,-0.7768 0.5693,-0.6797 0.4417,0.0182 1.2135,0.0182 0.6054,0 1.6415,0.8755 1.7063,-0.0456 0.0162,-0.2305 0.7674,-0.5628 0.1733,-0.7129 0.4819,0 1.1033,0.3423 1.5511,0.2102 0.3712,-0.1096 1.688,-0.2811 1.688,-0.6854 0.3944,-0.5259 0.1895,-0.2814 0.7756,-0.3564 0.3446,-0.044 0.6228,-0.2579 0.9489,0 0.9455,0.7481 0.773,-0.3199 1.4325,-0.4478 0.7118,-0.1381 0.4243,0.1535 1.0311,-0.3838 0.2087,-0.1849 -0.2012,1.4027 0.4653,1.0875 0.5233,-0.2476 1.226,-0.4824 1.615,-0.9047 0.2151,-0.2334 0.0667,-0.8041 0.0913,-0.786 0.4161,0.3052 0.866,0.013 1.3777,0.0914 0.223,0.0342 0.9392,-0.2373 0.6022,-0.6031 -0.3093,-0.3356 0.1571,-0.0147 0.3559,-0.1097 0.1974,-0.0942 0.3552,-0.4134 0.3558,-0.4112 0.2156,0.8171 0.9711,0.5733 1.4964,0.3107 0.4079,-0.2039 0.4495,0.265 0.8212,0.265l-2.9107 1.0053c-0.2141,0.0739 -0.2714,0.4028 -0.1733,0.3655l3.5311 -1.3434c0.0683,-0.0075 0.1454,-0.0405 0.2098,-0.0639 0.0608,-0.0222 0.1195,-0.0362 0.1825,-0.064 0.1389,-0.0611 0.253,-0.1613 0.3924,-0.2193 0.0257,-0.0363 0.0609,-0.0728 0.0912,-0.1097 0.3651,-0.2849 1.8579,-0.618 2.3814,-0.7494 0.4435,-0.1112 1.6108,-0.8767 0.8212,-0.5666l-1.396 0.5483c-0.6989,0.2745 -1.4078,0.8004 -1.0949,-0.1645 0.2204,-0.6795 -0.1757,-0.266 0.5931,-0.3838 0.3059,-0.0469 0.3702,-1.0425 0.5109,-0.923 0.213,0.1811 -0.0025,0.6198 0.3285,0.5026 0.2511,-0.0888 0.4662,0.213 0.6478,0.1006 0.2921,-0.1806 0.2565,-1.4218 0.3011,-1.4165 0.3885,0.047 0.7005,0.2284 1.1406,0.2284 0.306,0 0.1381,0.5316 0.5109,0.6032 0.0192,0.0036 0.1471,0.0115 0.1278,0.0457 -0.0582,0.1027 -0.3193,0.2342 -0.4289,0.2924 -0.1926,0.1021 -0.6934,0.3048 -0.6934,0.5575 0.0987,-0.3029 3.1409,-1.3337 3.6406,-1.709 0.2715,-0.2038 0.1247,-0.2872 0.2098,-0.594 0.2029,-0.7318 0.6549,-0.0836 0.6296,-0.0457 -0.0954,0.1434 -0.6432,0.5073 -0.2829,0.3108l2.345 -1.2795 2.0347 -1.0418 3.5858 -1.4713 2.8651 -1.3251c0.5888,-0.2723 1.2722,-0.3771 1.8522,-0.6671 0.273,-0.1364 1.4771,-1.0032 1.4507,-1.3251 -0.0106,-0.1294 -1.0188,-0.0372 -1.2317,-0.1463 -0.113,-0.0578 -0.2028,-0.3763 -0.2646,-0.3381 -0.2916,0.1805 -0.4536,0.1339 -0.7117,0.2193 0,0.3076 0.4749,1.1698 0.2646,1.1789 -0.3551,0.0153 -0.5384,-0.7423 -0.5384,-1.0235 -0.0184,0 -0.0136,-0.0049 -0.0182,0.0091 -0.1071,0 -0.2794,0.1219 -0.4015,0.1463 -0.6242,0.3471 -0.2084,0.4834 -0.2281,1.0052 -0.0199,0.5289 -0.5967,0.1836 -0.8212,0.064 -0.5545,-0.2953 -0.8024,1.4433 -1.8066,0.9413 -0.164,-0.082 -0.8307,0.605 -0.885,0.7585 -0.3765,1.0652 -1.235,-0.2074 -1.6333,-0.5118 -0.4856,-0.3713 0.2348,-0.5634 -0.1733,-0.8316l-0.9033 -0.594c-0.0826,-0.0542 -0.6844,0.7942 -0.6844,0.8773 0.1686,0.0549 0.1369,0.2484 0.1369,0.393 0,0.0867 0.1041,0.4795 0.0456,0.4843 -0.2014,0.0164 -0.4125,-0.5009 -0.4744,-0.6488 -0.254,-0.6074 -0.7729,-0.8712 -1.4873,-0.6946 0,0.0216 0.0046,0.0274 0.0091,0.0457 0.0983,0.0241 0.231,0.1473 0.3376,0.1736 0,0.2448 -0.168,0.5173 -0.1825,0.8225 -0.0132,0.279 -0.6003,0.0621 -0.7481,0.2559 -0.5607,0.7356 -0.802,0.1174 -0.8669,-0.4204 -0.0794,-0.6588 -0.0192,-0.63 -0.6022,-0.5757 -0.6746,0.5078 0.252,0.8261 0.073,1.1058 -0.4892,0.764 -0.6566,0.0077 -1.0857,0.3564 -0.3775,0.3069 -0.3929,-0.3474 -0.511,-0.5849 -0.0936,0.1253 -0.0274,0.6507 -0.0274,0.8225 0,0.1234 -0.2629,0.4639 -0.3467,0.5849 -0.4989,0.7211 -0.5895,1.0144 -1.5055,1.0144 -0.1716,0 -0.3681,0.9771 -0.4653,1.1606 -0.298,0.5621 -0.8145,0.859 -1.4417,0.859 -0.3738,0 -1.8736,-1.0181 -1.9982,-0.7128 -0.2547,0.6235 -0.7957,-0.1392 -1.1497,0.0548 -0.2557,0.1402 -0.2851,0.221 -0.3102,-0.1371 -0.029,-0.4121 0.3162,-0.5209 0.6205,-0.5209 0.5586,0 0.6787,-0.3752 1.1131,-0.6488 0.2583,-0.1628 0.4476,-0.6331 0.6022,-0.8956 0.1974,-0.3349 0.4539,-0.3284 0.7938,-0.4387 0.7159,-0.2322 1.4691,-0.0194 1.4691,-0.9321 0.2052,0.0679 0.4536,0.8042 0.8941,0.8042 0,-0.3484 -0.1959,-0.5827 -0.2737,-0.8865 -0.1681,-0.6568 0.0106,-0.407 0.2281,-0.8955 0.1115,-0.2507 0.385,0.038 0.6022,0.0822 0.2584,0.0525 1.0291,0.2135 0.8303,-0.3016 0,-0.5586 0.0903,-0.3822 -0.4562,-0.466 -0.6161,-0.0944 -0.4491,-0.192 -0.1916,-0.5392 0.0676,-0.0913 0.0333,-0.3881 0.1642,-0.4204 0.0052,-0.0208 0.0134,-0.0125 0.0183,-0.0274 0.1019,-0.0257 0.2483,-0.1084 0.3467,-0.1554 0.1707,-0.0814 0.3202,0.0844 0.4745,0.0457 0.0601,-0.2431 -0.146,-0.3554 -0.146,-0.5483 -0.1096,-0.0733 0.0413,-0.1736 0.1277,-0.1736 0.1218,0 0.1892,0.1463 0.292,0.0548 0.2177,-0.1936 0.1352,-0.3887 0.438,-0.5392 0.035,-0.1417 0.3332,-0.3322 0.4562,-0.4021 0.0043,-0.0351 0.0063,-0.0377 0.0365,-0.0548 0.014,-0.1144 0.1277,-0.4216 0.2372,-0.4661 0.0977,-0.0398 0.4068,-0.3016 0.4197,-0.3016 0.0853,0.2617 1.0533,0.7416 0.9216,0.3473 -0.1228,-0.3674 0.3379,-0.2559 0.5566,-0.2559 0.0074,-0.0223 0.0792,-0.0727 0.0912,-0.0822 0.0244,-0.0329 0.0039,-0.1046 0.0274,-0.1463 0.0168,-0.0296 0.0553,-0.0985 0.1003,-0.1096 0.0036,-0.0144 0.0223,-0.0369 0.0365,-0.0457 0.0217,-0.0133 0.02,-0.0201 0.0365,-0.0366 0.0711,-0.0711 -0.0122,0.0146 0.2099,-0.1827 0.057,-0.0478 0.292,-0.2256 0.292,-0.3016 -0.3487,-0.1162 -0.811,0.1583 -1.1588,0.1188 -0.1178,-0.0134 -0.2176,-0.1087 -0.3285,-0.0823 -0.5045,0.12 -0.9341,0.7555 -1.4143,0.8134 -0.1803,0.0217 -0.167,-0.0795 -0.3011,-0.1462 -0.6614,-0.3293 -0.4564,0.6731 -0.7664,0.8681 -0.2358,0.1482 -0.4103,0.3673 -0.6387,0.4935l-0.4562 0.5392c-0.3532,0.0582 -0.6262,0.4027 -1.0858,0.2924 -0.1791,-0.043 -0.4303,0.6383 -0.5566,0.7951 -0.6283,0.7795 -1.3018,0.8343 -2.0803,1.3708 -0.4307,0.2969 -0.7974,0.6439 -1.1588,1.0053 -0.3104,0.3104 -1.4656,0.8659 -1.907,0.8773l-1.4142 0.0365c-0.5073,0.0131 -0.735,0.1729 -1.2044,0.3199 -0.514,0.1577 -1.2501,0.3136 -1.7884,0.2467 -0.5255,-0.0654 -1.1364,-0.2429 -1.6697,-0.137 -1.3092,0.26 -2.7149,0.1919 -4.0603,0.1919 -0.7658,0 -1.827,0.1375 -2.5457,-0.1371 -0.2222,-0.0849 -0.5519,-0.2925 -0.7847,-0.2925 0,0.1294 0.1423,0.2601 0.1734,0.3839l0.0182 0c0,0.1908 0.3467,0.4572 0.3467,0.5574 -0.2816,0.057 -1.4715,-0.7311 -0.6295,-0.7311l0 -0.0182c-0.1948,-0.0489 -0.3582,-0.0703 -0.5475,-0.1828 -0.1293,-0.1298 -0.5402,0.1895 -0.7756,0.2285 -0.3637,0.0602 -0.656,-0.0049 -0.1916,0.3929 0.341,0.292 0.193,1.1669 -0.2646,1.3068 -0.3151,0.0964 -0.7814,0.1385 -1.0584,0.3199 -0.499,0.3266 -1.0256,0.4139 -1.615,0.3199 -0.8036,-0.1283 -1.6994,-0.7768 -2.4818,-0.7768 -0.4539,0 -0.6313,0.3509 -1.0037,-0.1371 -0.124,-0.1626 -0.8368,-1.2373 -0.9945,-0.9687 -0.1687,0.2876 -0.2603,1.5531 -0.1916,1.4896 0.1393,-0.1286 0.2737,-0.3154 0.4745,-0.265 0.1929,0.0483 0.4653,0.1003 0.4653,-0.1919 0.0831,0.2513 0.6081,0.4747 0.5748,0.6945 -0.1148,0.7577 -0.4615,0.2384 -0.8577,0.201 -0.1472,0.074 -0.3444,0.0438 -0.52,0.128 -0.2204,0.1056 -0.4216,0.0666 -0.6479,0.0183 -0.457,-0.0974 -0.7213,0.0348 -0.5839,-0.5209 0.131,0 0.2506,-0.011 0.3649,-0.0275 0,-0.7962 -0.6092,-0.5142 -1.1679,-0.8042 -0.1539,-0.0798 -0.4057,-0.3198 -0.5565,-0.3198 -0.1898,0.5614 -0.4896,0.602 -0.0822,1.1515 0.3456,0.466 0.3463,0.9139 0.4471,1.4713 0.0184,0.1019 0.173,0.3128 0.1551,0.3838 -0.5775,0 -0.5508,-0.5579 -0.6478,-0.9504 -0.7117,-0.1759 -0.4744,0.2979 -0.4744,0.7951l-0.0092 0.0091c-0.2863,0 -0.4586,-0.076 -0.7299,-0.1462 -0.3309,-0.0857 -0.291,-0.1352 -0.365,-0.4478 -0.0164,-0.0691 -0.1189,-0.454 -0.0821,-0.4661 0,-0.0182 0.4069,-0.243 0.4927,-0.329 0.0514,-0.0366 0.117,-0.1236 0.073,-0.1828 -0.2106,0 -0.6319,0.3437 -0.8121,0.128 -0.137,0 -0.2244,-0.153 -0.4197,-0.0731 -0.2158,0.0882 -0.3585,0.1508 -0.5839,0.2102 -0.3797,0.1002 -0.7757,0.3921 -1.1862,0.2558 -0.1701,-0.0565 -0.3902,0.3556 -0.4471,0.5118 -0.1431,0.3932 -0.2859,0.7459 -0.2189,1.1789 0.0434,0.281 0.2134,1.4831 -0.0548,1.6084 0,-0.8933 -0.5822,-1.509 -1.2865,-1.9191 -0.3447,-0.2006 -0.3401,-0.0648 -0.6935,-0.0183 -0.4192,0.0551 -0.0497,0.2831 -0.1733,0.4935 -0.0964,0.1643 -0.2373,0.1667 -0.2373,0.3747 0,0.6598 0.9033,0.0977 0.9033,0.6306 0,0.182 0.0293,1.0302 -0.1642,1.0692 0,-0.8973 -0.5292,-1.0597 -1.2774,-1.3891 -0.158,-0.0696 -0.0547,0.3566 -0.0547,0.4387 0,0.2351 -0.2722,0.4353 -0.1825,0.6122 0.2294,0.4519 0.2394,0.4754 0.1825,0.9962 -0.0066,0.0605 -0.0027,0.6734 -0.073,0.6031 -0.2247,-0.2247 -0.4644,-1.077 -0.7573,-1.0235 -0.2579,0.0472 -0.5947,-0.0629 -0.8486,-0.1005 -0.3681,-0.0545 -0.5657,0.348 -0.6752,0.2102 -0.3849,-0.4848 -0.724,0.0384 -0.5292,0.3107 0.1084,0.1514 0.3729,1.2285 -0.1095,0.7859 -0.1429,-0.1312 -0.022,-0.3231 -0.1004,-0.4844 -0.067,-0.1381 -0.3284,-0.1662 -0.3284,-0.3746 0,-0.6275 -1.2589,-0.5024 -0.3285,0.1188 0.066,0.044 -0.0743,0.3248 -0.4015,-0.0457 -0.033,-0.0664 -0.1368,-0.2126 -0.1368,-0.2742 -0.0546,0 -0.8952,0.6089 -0.9581,0.7037 -0.2094,0.316 -0.7202,0.8883 -0.7938,1.2246 -0.0664,0.303 -0.0455,0.6563 -0.146,0.9413 -0.1903,0.5398 -0.193,0.4455 -0.7391,0.5666 -0.5294,0.1175 -0.4502,0.5483 -1.0219,0.5483 0,0.187 0.2756,0.8229 0.4015,0.9595 0.2003,0.2175 -0.7505,1.0452 -0.9307,1.2977 -0.0103,0.3353 -0.0712,0.6231 0.1916,0.8865 0.2386,0.2393 0.6431,0.1955 0.9033,0.3564 0.0959,0.0594 0.238,0.5206 0.1551,0.5574 -0.3513,0.1564 -0.3777,0.0635 -0.3102,0.4844 0.0407,0.2534 1.6611,0.0087 1.9891,0 0.4656,-0.0123 0.9168,-0.5905 1.3687,-0.5392 0.0555,0.0063 -0.0201,0.3552 0.0364,0.3747 0.0731,0.0251 0.4306,-0.1118 0.5475,-0.1188 0.1675,-0.01 -0.1147,-0.7873 -0.2099,-0.9047 -0.5853,-0.7211 -0.2768,-0.9668 0.4563,-1.3617 0.2991,-0.161 1.3235,-0.596 1.6058,-0.2924 0.2375,0.2556 0.5717,0.3361 0.8486,0.5209 0.157,0.1049 -0.0736,0.1651 -0.1551,0.3198 -0.1724,0.3276 -0.1877,0.9055 0.2372,0.3473 0.1545,-0.2029 0.582,-0.5119 0.8303,-0.594 -0.0078,0.0398 -0.0392,0.0698 -0.0639,0.1005l-0.0547 0.1005c-0.0925,0.4112 -0.9524,0.9269 -1.3413,1.0418 -0.4501,0.1329 -0.644,0.5177 -1.1405,0.6032 -0.3394,0.0585 -0.5274,0.3323 -0.8394,0.4569 -0.5049,0.2018 -0.9968,0.1238 -1.4964,0.4021 -0.6108,0.3401 -0.5566,-0.1085 -0.5566,0.722l0.0091 0.0091c0.2086,0 0.5794,-0.3302 0.7756,-0.4295 0.4341,-0.2195 0.9881,-0.2463 1.4599,-0.4478 0.303,-0.1295 0.8074,-0.5118 1.1223,-0.5118l0.4014 -0.1462zm16.6974 -2.5314c0,-0.7387 -0.0998,-0.3016 -0.812,-0.3016 -0.5108,0 -0.9225,0.3473 -1.4325,0.3473 -0.3823,0 -0.412,-0.0967 -0.8577,-0.0183 -0.3132,0.055 -0.7517,0.5758 -0.2646,0.5758l-1.7336 0.53c-0.5531,0.1691 -1.7017,0.6156 -2.1898,0.5209 -0.4865,-0.0943 -0.5908,0.083 -1.0858,0.2011 -0.4878,0.1165 -1.0918,0.228 -1.2683,0.8042 0.0125,0.0651 0.0182,0.0724 0.0182,0.1188l0.0274 0.0182c0.3178,0 0.7005,-0.2059 1.0128,-0.3015l5.283 -1.6176c0.4867,-0.149 1.2436,-0.5574 1.7518,-0.5574 0.2742,0 1.2995,0.2618 1.4325,-0.1463l0.1186 -0.1736zm9.5167 -2.5405l-3.1297 1.4987 -3.1113 1.0966c-1.6789,0.5917 -3.6358,1.2069 -5.3377,0.7768 0,-0.3327 0.6586,-0.0847 0.812,-0.0731l3.1479 -0.5117 2.9289 -0.8408c0.5472,-0.4271 1.544,-0.616 2.2081,-0.923l2.8467 -1.316c0.3864,-0.0774 0.7382,-0.2991 1.0767,-0.5026 0.2494,-0.15 0.6402,-0.3052 0.9216,-0.4021 0.536,-0.1847 1.0459,-0.4669 1.5693,-0.6763 0.1936,-0.0775 0.4129,-0.1257 0.584,-0.2284 0.1029,-0.0618 0.3087,-0.1828 0.4197,-0.1828 0.0046,-0.0141 -0.0003,-0.0092 0.0182,-0.0092 0,0.1458 0.0615,0.1926 -0.0729,0.3016 -0.28,0.2273 -0.7621,0.3811 -1.1041,0.5118 -1.0821,0.4135 -2.2577,0.6462 -3.2847,1.2337l-0.4927 0.2468zm-26.2597 3.3995c-0.0207,-0.0729 -0.0166,-0.1454 -0.0547,-0.2101 -0.1077,-0.1826 -0.2672,-0.3016 -0.5201,-0.3016 0,0.1058 0.0572,0.1904 0.0638,0.2924 0.008,0.1225 -0.2071,0.4597 -0.1186,0.5392 0.047,0.0421 0.1402,0.0501 0.2008,0.0823 0.0865,0.0458 0.1914,0.158 0.2189,0.2558 0.0206,0.0736 -0.058,0.5363 0.1734,0.3382 0.0919,-0.0788 0.0588,-0.1557 0.0548,-0.2651 -0.0044,-0.1185 -0.0092,-0.2362 -0.0092,-0.3564l-0.0091 -0.3747zm-1.5602 -0.137c-0.0256,0.0197 -0.0482,0.0383 -0.073,0.0548 -0.0296,0.0198 -0.0527,0.0367 -0.0822,0.0548 -0.0171,0.0106 -0.0241,0.0256 -0.0365,0.0366 -0.0121,0.0106 -0.0216,0.0042 -0.0273,0.0274l-0.0091 0.0091c-0.0177,0.0059 -0.0006,0.0033 -0.0183,0.0092 -0.0042,0.0172 -0.0143,0.0286 -0.0182,0.0457 -0.0131,0.058 -0.031,0.2214 0.0182,0.265 0.0348,0.0307 0.0874,0.02 0.1277,0 0.0211,-0.0104 0.0407,-0.0354 0.0548,-0.0548 0.0149,-0.0203 0.0182,-0.0171 0.0182,-0.0457 0.0237,-0.0079 0.0265,-0.0828 0.0365,-0.1097 0.0149,-0.0404 0.0371,-0.0707 0.0548,-0.1097 0.0087,-0.0191 0.0347,-0.0586 0.0182,-0.0639l-0.0638 -0.1188zm9.8268 0.0914c-0.1898,-0.0338 -0.2351,-0.2055 -0.4015,-0.2468 -0.2045,-0.0509 -0.3815,0.1735 -0.5292,0.265 -0.1185,0.0735 -0.2302,0.101 -0.3649,0.128 -0.1328,0.0265 -0.1536,0.0464 -0.2647,0.1096 -0.0133,0.1087 -0.0702,0.1566 -0.0456,0.2833 0.0385,0.1989 0.1304,0.4288 0.3559,0.2559 0.1206,-0.0925 0.307,-0.2666 0.4653,-0.2741 0.2086,-0.0098 0.3284,0.2184 0.5201,0.2833 0.2505,0.0847 0.6837,-0.1821 0.5748,-0.4753 -0.0167,-0.0041 -0.0165,-0.0063 -0.0365,-0.0091l-0.2737 -0.3198zm3.7318 -0.6489c-0.2195,0.0409 -0.6249,-0.0356 -0.7482,0.1736 -0.022,0.0373 -0.0468,0.1027 -0.0547,0.1463 -0.0083,0.0452 -0.1957,0.2143 -0.2372,0.2558 -0.0854,0.0857 -0.146,0.1628 -0.146,0.2833 0.0888,0.0128 0.1338,0.0312 0.2372,0.0183 0.196,-0.0244 0.4017,-0.0588 0.584,-0.1188 0.1155,-0.0379 0.227,-0.0524 0.3376,-0.1188 0.1658,-0.0994 0.6018,-0.3451 0.3284,-0.5483l-0.3011 -0.0914zm30.4933 -16.2486c-0.0782,-0.102 -0.3768,-0.4112 -0.1368,-0.4112 0.2953,0 0.519,-0.0685 0.5931,-0.3838 0.052,-0.2216 0.1121,-0.1888 0.3011,-0.2376 0.3734,-0.0964 0.2081,-0.6495 0.5748,-0.8134 0.3142,-0.1403 0.192,0.7356 0.292,0.9413 0.175,0.3603 0.5175,0.6123 0.9306,0.6123 0.0047,-0.014 -0.0001,-0.0091 0.0183,-0.0091 0,-0.1489 -0.146,-0.3315 -0.146,-0.5301 0.1617,0 0.3203,-0.0274 0.4745,-0.0274 0.0429,0.1737 -0.1643,0.3777 -0.1643,0.5575 0,0.3032 0.1274,0.4841 0.1004,0.7767 -0.0221,0.2403 0.1004,0.4844 0.1004,0.7494 -0.0503,0 -0.4153,-0.3884 -0.5201,-0.4569 -0.2165,-0.1414 -0.4349,-0.3091 -0.5201,-0.5666 -0.0181,0 -0.013,0.0017 -0.0274,-0.0092 -0.1109,0.0841 -0.0799,0.3256 -0.2646,0.393 -0.2694,0.0982 -0.4021,-0.5744 -0.5748,-0.1828 -0.1991,0.4518 -0.5571,0.1107 -0.8394,-0.0548l-0.1917 -0.3473zm8.2849 -1.7637c-0.44,-0.095 -0.8344,-0.3508 -0.9763,-0.786 -0.0783,0.1053 0.034,0.4534 -0.073,0.6215 -0.0968,0.1519 -0.2888,0.224 -0.4288,0.3472 -0.0426,0.0376 -0.0157,0.1708 0.0091,0.2102 0.0916,0.1458 0.5326,0.1097 0.7025,0.1097 0.2302,0 0.4572,0.3813 0.4928,0.5757 0.0433,0.237 0.0616,0.4773 0.1094,0.7128 0.0425,0.209 0.3427,-0.2257 0.3833,-0.2741 0.2608,-0.3115 -0.2807,-0.5778 -0.0457,-0.8134 0.1159,-0.1161 0.2642,-0.1753 0.365,-0.3015 0.1429,-0.1791 0.0136,-0.1785 -0.0912,-0.2833l-0.4471 -0.1188zm-3.2745 -2.5102c-0.1025,-0.0512 -0.279,-0.3302 -0.1871,-0.4341 0.0616,-0.0698 0.2309,-0.0792 0.3194,-0.128 0.1504,-0.0828 0.2636,-0.2966 0.4653,-0.2604 0.102,0.0183 0.1837,0.0406 0.292,0.0274 0.0923,-0.0113 0.1969,-0.0633 0.2874,-0.0412 0.015,0.0601 -0.0778,0.0975 -0.1232,0.1189 -0.1369,0.0709 -0.3525,0.1495 -0.4379,0.2878 -0.0259,0.0419 -0.0829,0.1474 -0.0867,0.192 -0.0438,0.0434 -0.0769,0.1112 -0.1186,0.1599 -0.0343,0.0399 -0.041,0.0906 -0.0867,0.1234l-0.3239 -0.0457zm5.5008 -3.3843c-0.0205,0.0267 -0.0204,0.0395 -0.0456,0.0457 -0.017,0.069 -0.438,0.1414 -0.438,-0.0274 0.1998,-0.1998 0.307,-0.1643 0.3467,-0.4844 0.0104,-0.0837 0.0154,-0.4862 0.1825,-0.3655 0.1247,0.0902 0.1045,0.2878 0.2646,0.3473 0.3296,0.1224 0.3827,-0.4236 0.511,-0.5301 0.1317,-0.1095 0.3361,-0.0036 0.4836,-0.0091 0.1268,-0.0047 0.318,-0.1263 0.4288,-0.1919 0.1545,-0.0913 0.3107,0.1332 0.5292,-0.0183 0.09,-0.0623 0.3107,-0.3296 0.4562,-0.2193 0,0.0657 -0.0168,0.0967 -0.0365,0.1553 -0.0202,0.1047 -0.0392,0.0834 -0.0547,0.1462 -0.029,0.0073 -0.0273,0.0275 -0.0639,0.0275 -0.0019,0.0057 -0.2515,0.0493 -0.2919,0.0639 -0.1931,0.0696 -0.4427,0.0976 -0.6205,0.1919 -0.133,0.0704 -0.2531,0.0938 -0.3467,0.2102 -0.1092,0.1356 -0.2669,0.2767 -0.3832,0.393 -0.1606,0.1606 -0.2217,0.2785 -0.4563,0.3564l-0.4653 -0.0914zm-13.3387 10.7504c0.1074,0.0231 0.2126,0.032 0.3239,0.032 0.166,0 0.1424,0.2696 0.1552,0.3884 0.0089,0.0832 0.0349,0.1749 0.0547,0.2559 0.0135,0.0557 0.0599,0.1793 0.0183,0.2285 -0.0832,0.01 -0.1165,0.0257 -0.1917,-0.032 -0.085,-0.0651 -0.1435,-0.1548 -0.1779,-0.2559 -0.0167,-0.0494 -0.0525,-0.0906 -0.0684,-0.1371 -0.0265,-0.077 -0.024,-0.1538 -0.0548,-0.2285l-0.0593 -0.2513zm-192.386 -82.8363c-0.2572,0 -0.1916,0.1338 -0.1916,0.3747 0,0.2601 -0.1823,0.4255 -0.2098,0.6214 -0.0448,0.011 -0.0393,0.0829 -0.073,0.0914 0,0.1068 -0.3192,0.9187 -0.4198,0.9687 0,0.0206 0.0039,0.0187 -0.0091,0.0274 0,0.421 0.0964,0.9714 0.4562,1.2063 0.2389,0.1561 0.3795,0.319 0.6661,0.4295 0.1181,0.0456 0.517,0.1312 0.5383,0.2833 0.0722,0.0121 0.1225,0.2166 0.2829,0.2376 0.1292,0.017 0.2587,0.0457 0.3923,0.0457 0.0051,-0.0202 0.0205,-0.0322 0,-0.0457 0,-0.1872 -0.1565,-0.4841 -0.1916,-0.6945 -0.0223,-0.1342 -0.0021,-0.6261 0.1278,-0.658 0.0035,-0.0252 0.0892,-0.1404 0.1186,-0.1462 0.0069,-0.0422 0.0581,-0.0448 0.073,-0.0823 0.0482,0 0.0832,-0.0838 0.1368,-0.0913 0.029,-0.1022 0.2474,-0.1687 0.2646,-0.2559 0.0798,-0.0227 0.1402,-0.1598 0.2373,-0.1737 0.0135,-0.0475 0.1099,-0.0474 0.1186,-0.1005 0.04,-0.0056 0.0503,-0.0365 0.0821,-0.0365 0.0042,-0.0216 0.07,-0.0862 0.0913,-0.0914 0.0073,-0.0446 0.1811,-0.1631 0.2189,-0.2559 0.4509,-1.1073 -1.3618,-1.5719 -2.1259,-1.5719l-0.584 -0.0822zm89.0803 -52.1362l-0.7207 -0.1151 0 0c-0.0119,0.0323 -0.0241,0.0675 -0.0366,0.106 -0.0612,0.1888 -0.4373,0.2622 -0.6113,0.3107 -0.3004,0.0836 -1.1927,0.2675 -1.1132,0.4935 0.2324,0.3981 0.5347,0.0598 0.8486,0.137 0.0041,0.0167 0.0014,0.0142 0.0182,0.0183 0,0.2186 -0.1644,0.5064 -0.292,0.6763 -0.2121,0.2827 0.0098,0.2802 0.1369,0.4752 0.0598,0.0916 0.0334,0.2742 0.1734,0.2742 0.0178,-0.0726 0.5722,-0.2829 0.6752,-0.3747 0.254,-0.2267 0.5644,-0.3543 0.8211,-0.5575 0.1588,-0.1256 0.2781,-0.289 0.4471,-0.393 0.541,-0.3333 1.1132,-1.0085 1.1132,-1.6723 -0.1598,0 -0.7717,0.5379 -0.9854,0.6488 -0.2532,0.1313 -1.0593,0.843 -1.2866,0.7859 0,-0.2169 0.6346,-0.6951 0.8121,-0.8133l0 0zm79.8093 64.9121l-7.1156 26.0191c-0.0348,0.0826 0.0126,0.2485 0.0228,0.3381 0.0268,0.2359 0.0512,0.4507 0.1277,0.6672 0.1076,0.3041 0.1773,0.421 0.4029,0.6973l0 0 -1.7496 29.9616 1.9343 3.1437 -7.1534 4.4232 2.2266 3.4909 -0.2189 0.6672 0.1971 0.3059 0 0c-0.1791,0.4444 -0.3165,0.9643 -0.7172,0.9643 -0.0249,0.0766 0.0094,0.2456 0,0.3473 -0.2127,0.2985 -0.3636,0.4464 -0.7117,0.5666 -0.2867,0.0989 -0.2894,-0.277 -0.4654,-0.1005 -0.1753,0.1757 -0.1907,0.3329 -0.3193,0.5117 -0.1197,0.1663 -0.345,0.0244 -0.4288,0.1828 -0.1476,0.2793 -0.3337,0.5392 -0.6479,0.5392 0,0.6084 -0.2894,0.5717 -0.6022,1.0418 -0.1178,0.1769 -0.1248,0.7618 -0.1003,0.9778 0.0129,0.1135 0.1321,0.9469 0.0091,0.9779l-0.2007 -0.8408 -0.0183 0c-0.1077,0.4382 -0.424,-0.0877 -0.511,-0.2284 -0.1863,-0.3011 -0.1298,0.3497 -0.1916,0.5391 -0.253,0.775 0.6752,1.104 0.6752,1.6724 -0.1872,0 -0.3556,-0.2924 -0.7025,-0.2924 -0.2586,0 -0.5824,0.4886 -0.6935,0.0365 -0.2305,0 -0.2174,0.4385 -0.4014,0.3564 -0.1269,-0.0567 -0.2676,-0.3241 -0.4198,-0.1827 -0.3943,0.3666 -0.5511,-0.06 -0.9124,0.201 -0.2942,0.2126 -0.4572,0.5774 -0.8029,0.7951 -0.312,0.1966 -0.1912,0.0322 -0.3924,-0.0183l-0.0456 0.2193c-0.0368,0.1499 -0.2454,0.2989 -0.3376,0.4296 -0.0907,0.1288 -0.2278,0.2977 -0.3011,0.4295 -0.1375,0.2475 -0.2298,0.5039 -0.2463,0.795 -0.0255,0.4511 0.0629,1.0144 -0.5201,1.0144 -0.1087,0 -0.2806,0.098 -0.3832,0.1463 -0.1188,0.0558 -0.236,0.1827 -0.3741,0.1827 -0.0044,-0.0132 -0.0033,-0.007 -0.0183,-0.0182 0,-0.5833 0.1879,-1.2456 0.1369,-1.8461 0.0536,-0.6535 0.6595,-1.2794 0.9671,-1.8643 0.3746,-0.7126 0.8066,-1.4727 0.9033,-2.2572 0.5298,-0.3775 1.145,-2.2622 1.2774,-2.8878 0.0693,-0.3279 0.0068,-0.7869 0.1095,-1.0784 0,-0.0759 0.0548,-0.1364 0.0548,-0.2102 0.6859,-1.2061 0.4488,-2.6602 0.8759,-3.9296 0.0883,-0.2623 -0.0416,-0.8372 -0.0274,-1.1515 0.0244,-0.54 0.0344,-1.1369 -0.0638,-1.6632l-0.0274 -1.2429c-0.0058,-0.2618 0.1563,-1.0254 -0.2646,-0.7219 -0.1244,0.0896 -0.4616,0.5209 -0.5566,0.5209 0,-0.307 -0.0956,-0.7129 0.2737,-0.8042 0,-0.0184 0.0049,-0.0137 -0.0091,-0.0183 0,-0.481 0.0164,-0.3344 -0.292,-0.6672 -0.2955,-0.3187 -0.7479,-0.573 -1.0219,-0.9138 -0.4576,-0.569 -1.2868,-0.7882 -0.5657,-1.581 0.3749,-0.4123 0.6022,-0.3954 0.6022,-0.9687 -0.1145,-0.0161 -0.3237,-0.0053 -0.4197,-0.0548 -0.0607,-0.0312 -0.2456,-0.1828 -0.2829,-0.1828 -0.1036,0.4192 0.2646,0.568 -0.0364,0.9047 -0.4065,0.4545 -0.365,0.7468 -0.365,1.3251 0,0.463 0.1366,0.3993 0.2828,0.7585 0.148,0.3633 0.022,1.0277 0.2464,1.3343 0.1335,0.1823 0.3863,0.5198 0.4745,0.7128 0.777,0.625 0.9526,1.1531 0.8394,2.1202 -0.1016,0.8686 -0.2399,1.8589 -0.2008,2.7233 0.0089,0.197 0.1968,0.2777 0.2282,0.4021 0.017,0.0042 0.0417,0.0204 0.0456,0.0366 0.0425,0.0105 0.0645,0.1946 0.0547,0.2376 0.0865,0.0605 0.1009,0.441 0.0456,0.5209 0.0548,0.0548 0.0554,0.362 0.0317,0.7097l0 0 -23.3356 -14.056 0 0c0.4047,-0.2565 -0.1034,-0.5463 -0.2276,-0.7182 -0.1134,-0.1571 -0.0959,-0.45 -0.2828,-0.5209 -0.2528,-0.0958 -0.4072,-0.0437 -0.5748,-0.2559 -0.1788,-0.2266 -0.0031,-1.254 -0.2555,-1.2154 -0.4074,0.0623 -0.9572,0.4922 -1.396,0.4112 -0.1698,-0.0314 -0.2342,-1.1685 -0.6205,-0.8773 -0.5227,0.3939 -0.6347,0.4922 -1.104,0 -0.6067,-0.6365 -1.5492,0.8613 -1.3595,-0.5483 0.0222,-0.1657 -0.4336,-0.193 -0.5384,-0.2559 -0.4024,-0.2414 -0.2267,-0.8515 -0.885,-0.8773 -0.4432,-0.0173 -0.6747,0.2223 -1.1862,0.0457 -0.7257,-0.2507 0.0586,-1.0642 -0.4744,-1.1423 -0.4367,-0.0639 -0.2518,-0.0188 -0.3559,-0.4113 -0.0812,-0.3063 -0.3813,-0.2669 -0.5282,-0.5854 -0.1123,-0.3875 0.3237,-0.6047 -0.0101,-1.087 -0.2623,-0.3792 -0.3822,-0.4337 -0.6387,-0.9138 -0.1775,-0.3321 -0.8459,-0.3758 -0.73,-0.8134 0.0667,-0.2516 0.489,-0.3609 0.5384,-0.6214 0.0821,-0.4331 -0.1437,-0.9715 -0.0092,-1.4439 0.0655,-0.2298 0.1472,-0.5121 0.0639,-0.7494 -0.0829,-0.2358 -0.3118,-0.6042 -0.3558,-0.8225 -0.1219,-0.6047 0.4197,-0.1776 0.4197,-0.7036 0,-0.3815 -0.2184,-0.765 -0.2555,-1.1424 -0.1049,-1.0663 -0.7584,-0.4802 -1.1953,-1.2702 -0.3694,-0.6681 0.4933,-0.4734 0.6296,-1.0327 0.1172,-0.4805 -0.5163,-0.2652 -0.8029,-0.4752 -0.7231,-0.5296 0.3408,-1.2063 -0.9763,-1.2063 -0.2419,0 -0.7172,-0.0054 -0.8851,-0.1737 -0.2124,-0.2127 -0.0268,-0.6795 -0.292,-0.8864 -0.1219,-0.0952 -0.28,0.2552 -0.52,0.2924 -0.4057,0.0628 -0.5253,-0.4694 -0.8486,0.0183 -0.2002,0.3022 -0.2071,0.0726 -0.438,-0.0091 -0.326,-0.1152 -0.5929,0.493 -0.8394,-0.128 -0.121,-0.3047 0.1672,-0.2313 0.1551,-0.4478 -0.0065,-0.1169 -0.3149,-0.2883 -0.3011,-0.4204 0.0668,-0.6377 -0.0795,-1.6152 -0.1733,-2.2664 -0.0105,-0.0731 -0.0271,-0.1403 -0.1095,-0.1462 -0.6256,-0.045 -0.8705,0.3452 -1.3231,-0.3107 -0.1015,-0.147 -0.3261,-0.2274 -0.3923,-0.3655 -0.1823,-0.3804 0.0502,-0.7888 -0.2555,-1.1241 -0.3057,-0.3355 -0.8665,0.0488 -1.2851,-0.1371l-4.6092 0 -0.759 -0.0803 -123.444 0.1502 0.0593 -10.7682 0 0c0.7482,-0.3647 1.5068,-0.7091 2.2439,-1.118l1.8796 -1.4256c0.4106,-0.3114 0.8807,-0.3519 1.3321,-0.6032 0.8328,-0.4635 1.4074,-1.21 2.1716,-1.7181l2.1168 -1.4073c0.1432,-0.2875 0.2,-1.1519 0.5566,-1.0967 0.547,0.0848 1.1209,-0.833 1.542,-1.1057 -0.0609,-0.1783 -0.0526,-0.3413 0,-0.5027 0.3079,0 0.3828,0.7407 0.8394,0.064 0.2515,-0.3726 0.6795,-0.4462 1.0584,-0.6214 0.8029,-0.3715 1.0457,-0.884 1.9709,-1.051 0.5128,-0.0925 0.9826,-0.5188 1.5694,-0.6214 1.2224,-0.2137 0.8655,-0.9547 1.5055,-1.8643 0.2912,-0.414 0.5201,-0.8294 0.885,-1.1789 0.2598,-0.249 0.8121,-0.5371 0.8121,-0.9595 0.0147,-0.2595 -0.1495,-0.4998 -0.0639,-0.7586 0.0241,-0.0171 0.0413,-0.0414 0.0639,-0.0639 0.0993,-0.0125 0.2784,-0.169 0.2919,-0.265 0.3156,-0.3156 -0.238,-0.4602 0.4471,-0.5666 0.5392,-0.0837 1.7796,-0.3831 1.9983,-0.9505 0.2062,-0.5353 0.8012,-0.6745 1.2956,-0.7585 0.6985,-0.1188 1.4201,-1.1197 1.8614,-1.6358 0.6258,-0.7321 -0.017,-1.0876 -0.0822,-1.8643 0.321,-0.464 -0.0653,-1.096 -0.2737,-1.5079l-0.3376 -0.6671c-0.0987,-0.1952 -0.0862,-0.4569 -0.2007,-0.6488 -0.0176,-0.0044 -0.0231,-0.0098 -0.0274,-0.0275 -0.0232,-0.0098 -0.0583,-0.0326 -0.0639,-0.0548 -0.0362,-0.0089 -0.0339,-0.0582 -0.0638,-0.0731 -0.0645,-0.3197 -0.1187,-0.6029 -0.1187,-0.9504 0,-0.4041 -0.1459,-0.8248 -0.1459,-1.1698 -0.0546,-0.0543 -0.1265,-0.2282 -0.1917,-0.2467 -0.1028,-0.4182 -0.7846,-0.6667 -0.7846,-1.2429 0.0419,-0.0868 0.1277,-0.2915 0.1277,-0.3838 0.0476,-0.0161 0.3684,-0.4401 0.5475,-0.5209 0.5064,-0.2287 0.9033,-0.3757 0.9033,-0.9961 0,-1.1535 -0.9247,-1.4439 -1.907,-1.4439 -0.6628,0 -1.3542,-0.17 -1.9982,-0.2925l-1.4417 -0.2741c0,-0.3088 0.3103,-0.5877 0.3103,-0.987 0,-0.6152 0.3987,-0.7203 0.5839,-1.2794 0.1561,-0.471 -0.292,-1.1877 -0.292,-1.7912l-0.0912 -1.8003 -0.2737 -1.6541c1.5449,0 3.7238,-0.9987 5.1917,-1.4805l3.23 -1.0601 3.4763 -0.7951 0.6478 -0.3015c0.0408,-0.0037 0.0369,-0.0044 0.073,-0.0275 0.139,-0.0171 0.2778,-0.098 0.4198,-0.1096 0.4968,-0.2685 3.5723,-0.7553 4.0603,-0.5392l9.3706 0.1097 4.7902 0.1462 6.5878 1.1606c0.433,0.0762 1.7883,0.0591 1.7883,0.6945 0,0.356 0.1302,0.3936 0.4288,0.5027 0.3737,0.1364 0.1004,0.1693 0.1004,0.4203 0.0336,0.0048 0.1835,0.0496 0.1916,0.0823 0.0884,0.0218 -0.2372,0.3292 -0.2372,0.4386 0.2934,0.0741 0.6859,-0.0108 1.0949,0.0914l2.2081 1.2612c0.6912,0.3947 1.148,0.3395 1.8066,0.5574 -0.7642,0.2585 0.2399,1.7547 0.0547,2.3578 -0.1053,0.3427 0.3103,0.1646 0.3103,-0.4112 0,-0.3418 -0.3924,-0.5166 -0.3924,-0.8408 0,-0.5022 0.2301,-1.3548 0.7482,-1.5079l3.741 -1.1057c0.6136,-0.1813 1.6464,-0.2043 2.2628,-0.0457 0.8208,0.2111 1.6136,-0.1061 2.4179,-0.1737 0.5983,-0.1026 1.5492,0.104 2.0165,-0.2193 0.3007,-0.2081 2.2252,0.2972 2.6643,0.3838 0.5753,0.1136 0.8404,0.387 1.4872,0.3199l0.7938 -0.0823c0.0701,-0.0073 0.4806,-0.0904 0.5019,-0.0274 -1.0367,0.2549 -0.4857,0.5964 -0.0457,1.0053 0.2463,0.229 0.9805,0.8042 1.3139,0.8042 -0.0629,-0.3203 -0.5126,-0.4193 -0.5474,-0.9139 -0.0244,-0.3477 -0.3559,-0.6302 -0.3559,-0.9139 0.5517,-0.1084 0.9567,-0.7355 1.5147,-0.8316 0.4056,-0.0699 0.7144,0.2006 1.1861,-0.0183 0.5897,-0.2736 0.8461,-0.3717 1.4782,-0.5209 0.5012,-0.1182 1.1287,-0.2629 1.5146,-0.6488 0.4487,-0.1125 0.7598,-0.8653 1.177,-0.9322 0.3287,-0.0528 1.0773,0.0712 1.2044,-0.3746 0.1827,-0.1308 0.5123,-0.6623 0.5657,-0.8774 0.3664,-0.3126 0.4427,-1.0454 0.9489,-1.4256l2.0804 -1.5627c0.5941,-0.4463 1.9126,-0.6544 2.2172,-1.3251 0.2269,-0.2707 0.1242,-0.5629 0.5201,-0.6397 0.5726,-0.111 1.0062,-0.5399 1.3869,-0.9505 0.2172,-0.2344 1.0307,-0.1462 1.3595,-0.1462 0.0234,0.0189 0.0746,0.0668 0.1003,0.0731 0.505,0.632 1.2439,0.3747 1.9435,0.3747 0.3054,0 0.4447,-0.1533 0.6934,-0.2924 0.3289,-0.1838 0.896,-0.1732 1.2866,-0.3564 0.5179,-0.2428 0.9334,-1.0762 0.9945,-1.6267l0.1186 -1.0692c0.0366,-0.3303 -0.1825,-0.9781 -0.0456,-1.252 0.0894,-0.3481 0.0821,-1.1724 0.0821,-1.5627 0.1109,0.0361 0.1734,0.7338 0.1734,0.859 0,0.1503 -0.0469,0.5402 0.146,0.3473 0.1673,-0.1673 1.0824,-0.5733 0.6387,-0.7951 -0.4198,-0.2099 -0.4403,-0.9703 -0.657,-1.0235 -0.0506,0.153 -0.3282,0.3555 -0.3376,0.3838 -0.0215,-0.0054 -0.0343,-0.0224 -0.0547,-0.0274 0,-0.6006 -0.1358,-1.1449 -0.2646,-1.7181l-0.6661 -2.9609c-0.0465,-0.2072 -0.173,-1.1515 -0.3467,-1.1515 -0.1669,0 -0.1877,-0.1571 -0.2464,-0.2742 -0.0681,-0.1361 -0.3097,-0.0455 -0.4379,-0.1096 -0.2038,-0.1084 -0.1208,-0.5575 -0.3285,-0.5575 -0.7233,0 -0.6803,0.2113 -0.4745,-0.6214 0.3389,-1.3705 0.8364,-0.7659 1.7154,-1.3526 0.2639,-0.1762 0.5879,-0.5621 0.3923,0.0732 -0.0714,0.2318 -0.3741,0.4496 -0.3741,0.6671 0.3805,0 0.6302,0.1551 0.7482,0.5117l0.3285 -0.53c0.1599,-0.258 0.8181,-0.6218 1.0949,-0.7859 0.4817,-0.2854 1.0687,-0.0196 1.0311,-0.8499 -0.0093,-0.2059 -0.0826,-0.5699 -0.1825,-0.7403 -0.0687,-0.117 -0.4197,-0.4542 -0.4197,-0.5666 0.8513,-0.2105 1.1644,-1.0086 1.8704,-1.3616 0.4306,-0.2152 0.4249,0.4287 0.7756,-0.1005 0.0481,-0.0725 -0.0628,-0.5504 -0.1095,-0.7403 -0.2258,0 -0.502,0.1524 -0.5931,-0.2102l-1.5785 1.3343c-0.1742,0.1472 -0.8138,0.3762 -1.0219,0.2833 -0.2963,-0.1324 0.127,-0.9539 -0.292,-0.594 -0.3002,0.2577 -1.0462,0.1829 -0.9306,-0.1737 0.2328,-0.7175 0.7222,-0.7915 1.323,-1.1423 0.5334,-0.104 1.0836,-0.361 1.2318,-0.8956 0.1328,-0.4788 -0.1076,-0.4657 -0.438,-0.3198 -0.1344,0.0594 -0.4633,0.3174 -0.6022,0.2284 -0.0751,-0.048 -0.1383,-0.1111 -0.2099,-0.1553 -0.1048,-0.0649 -0.1093,-0.022 0.0457,-0.1188 0.3045,-0.1904 0.3761,-0.3634 0.4379,-0.6672 0.0196,-0.0961 0.1837,-0.1555 0.219,-0.2833 0.0248,-0.0895 0.0183,-0.2242 0.0183,-0.3107 -0.1851,0 -0.3268,0.2219 -0.5658,0.1645 -0.3315,-0.0795 -0.5735,0.2378 -0.8941,0.2559 -0.1174,0.0066 -0.2678,0.0619 -0.3833,0.0366 -0.118,-0.0258 -0.1988,-0.2175 -0.3011,-0.2376 -0.0202,-0.0824 0.1312,-0.1586 0.1734,-0.2651 0.0188,-0.0473 0.1161,-0.3068 0.1277,-0.3107 -0.0195,-0.0788 -0.1888,0.0955 -0.2098,0.1188 -0.0804,0.0889 -0.2269,0.2006 -0.3376,0.2559 -0.3382,0.1079 -0.2573,0.0901 -0.4653,0.1188 -0.0946,0.0131 -0.1897,0.0171 -0.2829,0.0366 -0.037,0.0078 -0.0733,0.0195 -0.1095,0.0274 -0.036,0.0079 -0.0446,0.0204 -0.073,0.0274 -0.0043,0.0177 -0.0098,0.0231 -0.0274,0.0274l0 0.0183c-0.0491,0.0245 -0.0854,0.147 -0.1551,0.1645 -0.0061,0.0248 -0.0228,0.0399 -0.0365,0.0639 -0.0465,0.4094 -0.4838,0.6733 -0.5109,1.0601 -0.018,0.256 -0.1196,0.5318 -0.1916,0.7494l-0.657 0.0274c0,-0.1889 0.1885,-0.2442 0.1095,-0.5026 -0.0908,-0.2971 -0.164,-0.2654 0.0091,-0.6123 0.095,-0.1906 0.1369,-0.5499 0.1369,-0.7494 -0.293,-0.0724 -0.995,-0.0055 -1.0767,-0.3747 -0.096,-0.4343 0.2011,-0.5015 -0.3193,-0.2833 -0.1252,0.0525 -0.5097,0.11 -0.5292,-0.0822 -0.0095,-0.0937 0.2811,-0.2823 0.3741,-0.3473 0.0603,-0.042 0.1483,-0.2003 0.073,-0.2467 -0.1,-0.0615 -0.2803,0.1519 -0.4106,0.0365 -0.091,-0.0807 0.0165,-0.2503 -0.0456,-0.3746 -0.0411,0 -0.0751,-0.0188 -0.1095,-0.0275 -0.1133,-0.4483 0.4745,-1.0048 0.7846,-1.2977 0.2055,-0.194 0.4749,-0.0528 0.6935,-0.1736 0.3037,-0.168 0.3374,-0.609 0.6296,-0.7311 0.2764,0.027 0.1869,-0.4343 0.5292,-0.329 0.216,0.0665 0.9773,-0.577 1.1588,-0.7311 0.2651,-0.2253 0.8088,-0.4249 0.8394,-0.8133 0.0316,-0.4021 0.5847,-0.168 0.8577,-0.3656 0.2964,-0.2146 0.4916,-0.46 0.8485,-0.5757 0.2612,-0.0847 0.5868,-0.005 0.7938,-0.2467 0.3523,-0.4111 0.9613,-0.2239 1.0311,-0.5209 0.0749,-0.3192 0.7603,-0.063 0.9763,-0.3747 0.294,-0.4245 0.993,-0.7862 1.4507,-1.0693 0.1896,-0.1173 0.6587,-0.7652 0.6935,-0.7767 0.0058,-0.0239 0.0307,-0.031 0.0365,-0.0549 0.4016,-0.0751 2.3005,-2.1129 2.6095,-2.504 0.0914,-0.1156 0.8257,-0.8034 0.8668,-0.5757 0.0346,0.1913 -0.1815,0.5472 0.0821,0.3564 0.1448,-0.1049 0.4292,-0.5396 0.5384,-0.5757 -0.1866,-0.1129 -0.6509,0.1685 -0.292,-0.3016 0.2136,-0.2799 1.0222,-1.1245 1.3504,-1.1972 0.1804,-0.04 0.3479,0.1642 0.5475,-0.0457 0.2395,-0.2517 0.3698,-0.6464 0.6387,-0.9321 0.6634,-0.7051 0.0091,-0.3751 0.0091,-0.9413 0,-0.7288 -0.5407,0.1086 -0.3376,-0.7128 0.0362,-0.0504 0.0383,-0.0684 0.073,-0.0914 0.0434,-0.3533 0.6948,-1.6568 0.9763,-1.8826 0.4002,-0.3212 0.9745,-0.7906 1.2682,-1.2154 0.2747,-0.3974 0.6382,-0.4974 0.9125,-0.8591l0.5474 -0.7219c0.2965,-0.3911 0.6995,-0.389 1.0128,-0.722 0.4036,-0.4288 0.8163,-0.9268 1.2865,-1.2703l1.9709 -2.4948c0.0954,-0.1207 0.3686,-0.3854 0.5292,-0.393 1.0908,-0.0519 0.5596,-0.5522 1.1223,-1.1149 0.2436,0 0.3925,0.2279 0.6113,0.0091 0.2742,-0.2742 0.526,-0.6525 0.8851,-0.8681 0.5634,-0.3381 1.1803,-1.1461 1.542,-1.6998 0.2714,-0.4153 0.5244,-0.0711 0.7482,-0.3839l0.4379 -0.6122c0.3162,-0.0996 0.2022,-0.3201 0.2646,-0.5758 0.2204,-0.9035 1.4915,-0.8282 2.1169,-1.1149l1.8339 -0.8408c0.2333,-0.1069 1.4408,-1.1407 1.542,-0.7311l0.0183 0c0,-0.4643 0.7092,-1.2064 1.1588,-1.0509 0.5752,0.1991 0.889,-0.6397 1.6697,-0.6397 -0.0326,0.1321 -0.7304,0.4809 -0.9033,0.594 -0.1029,0.0674 -0.2239,0.0918 -0.2646,0.2102 -0.0203,0.0589 -0.1583,0.2659 -0.1004,0.2742 0.2278,0.0142 0.6845,-0.6736 0.7391,-0.1006 0.0293,0.3083 0.8942,-0.7599 1.031,-0.9321 0.1792,-0.2257 0.6224,-0.8956 0.9398,-0.8956 0.1991,0.9872 1.1264,-0.0077 1.4691,-0.265 0.1471,-0.1105 0.7736,-0.492 0.9033,-0.329 0.2914,0.3659 0.6068,-0.2468 0.885,-0.2468 -0.0082,-0.0249 -0.4917,0.0207 -0.5931,-0.1553 -0.1273,-0.2207 1.1035,-1.3651 1.542,-1.3343 0.1978,0.0139 0.5791,0.3171 0.8395,0.329l0.7938 0.0366 -0.0091 0.7676c-0.0069,0.5864 1.7026,-0.7451 1.9434,-0.4204 0.3225,0.435 0.9846,0.0133 1.3778,-0.1827 0.112,0.021 0.2107,0.0276 0.2988,0.0226l0 0 10.8787 0.3617 4.7443 -0.0096 10.0549 -0.5026 6.7064 -0.0001 1.4508 -0.1462 4.3433 -0.1204 0 0 -0.0275 0.7693c0.0422,0.0557 0.1186,0.1301 0.1186,0.1919 0.2685,0.1796 0.2413,1.5159 0.219,1.8643 -0.0342,0.5328 -0.2948,1.0224 -0.511,1.5078 -0.276,0.62 -0.5201,1.7361 -0.5201,2.4127 0,0.6608 1.025,1.4516 1.1223,2.2389 0.1388,0.7408 -0.4035,1.1242 -0.4744,1.6998 -0.0246,0.0184 -0.0211,0.0639 -0.0457,0.0823 0,0.3651 -0.2481,0.9383 -0.3102,1.3708l-0.3376 2.3486 -0.2098 1.188c-0.0648,0.3676 0.0019,1.0882 -0.1187,1.4074 0.172,0.4109 0.417,0.8147 0.6479,1.188 0.1965,0.3176 0.4949,0.9747 0.7664,1.2063 0.0087,0.1066 0.509,0.9327 0.5931,0.9687 0.3827,0.9632 1.3363,2.8453 0.6113,3.884 -0.1308,0.4507 -0.17,0.8902 -0.3285,1.316 -0.0531,0.1427 -0.4987,0.7859 -0.6295,0.7859 -0.1232,0.8571 0.1754,1.9376 0.3832,2.8147 0.3063,1.2923 0.3428,2.0855 -0.5931,3.1071 -0.0473,0.056 -0.173,0.2378 -0.2464,0.2468 -0.3481,0.612 -0.8355,1.089 -1.0675,1.8003l-0.3011 0.923c-0.0895,0.2744 -0.4288,0.4081 -0.4288,0.7128 0.3464,0.3489 -0.1157,1.9944 -0.2646,2.3852 -0.1258,0.33 -0.3543,0.8163 -0.4015,1.1515 -0.0798,0.5667 -0.0354,0.5639 0.2737,1.0601 0.04,0.032 0.1839,0.1462 0.1916,0.201 0.3076,0.1326 0.1965,1.7116 0.1186,2.0014 -0.3579,1.3318 0.066,2.1739 0.7391,3.1894 0.2356,0.3553 0.1322,1.0465 0.2464,1.4896 0.1509,0.5849 -0.3844,0.7964 -0.4471,1.3069 -0.0229,0.3529 0.3964,0.7181 0.5383,0.9961l0.4197 0.8224c0,0.649 -0.1062,1.1147 -0.146,1.7638 -0.0096,0.3348 0.0038,0.7111 -0.347,0.9047 -0.6838,0.3773 -0.5568,1.0222 -0.9125,1.6267 -0.1426,0.2425 -0.0645,0.586 -0.1824,0.8225 -0.3925,0.7873 -0.3201,0.6373 -0.1643,1.4988 0.0862,0.4768 -0.1169,0.7616 -0.1825,1.188 -0.0257,0.1672 -0.0355,0.3055 -0.041,0.4247 0.0646,0.3276 0.9709,0.6678 1.0268,0.2698 0.0597,-0.0098 0.0045,-0.4778 0.0274,-0.5757 0.0405,-0.1725 0.2246,-0.4233 0.2372,-0.5392 0.2848,-0.1429 -0.2626,-1.4832 0.5748,-0.9778 0.0468,0.3708 0.5659,-0.1444 0.657,-0.1554 0.3389,-0.0408 0.6553,0.062 0.9671,0.1005 0.0602,0.1054 0.2118,0.1618 0.2464,0.3016 0.0151,0.0609 0.0516,0.3421 0.1095,0.3564 0.0047,0.0434 0.0479,0.0704 0.0547,0.1188 0.1351,0.0672 -0.0207,0.506 -0.0273,0.6032 -0.0302,0.4411 0.0924,0.1934 0.2737,0.4478 0.0587,0 0.0393,0.0566 0.0912,0.0639 0.008,0.0562 0.0634,0.0608 0.073,0.1097 0.0395,0.0169 0.0628,0.064 0.1186,0.064 0.0636,0.1112 0.2718,0.147 0.3103,0.3381 0.0361,0.0089 0.0479,0.1104 0.0821,0.1188 0.0568,0.519 0.5749,0.6602 0.3741,1.316 -0.1675,0.5468 0.0106,0.8337 0.0547,1.3708l-0.0821 4.414 -0.3193 7.5303 -0.0274 4.8434 -0.1277 2.4766 -0.1187 2.2207 -0.2105 8.1883 0.4288 0.7494 0 0z"/>
 </g>
</svg>
