<?xml version="1.0" encoding="UTF-8"?>
<!DOCTYPE svg PUBLIC "-//W3C//DTD SVG 1.1//EN" "http://www.w3.org/Graphics/SVG/1.1/DTD/svg11.dtd">
<!-- Creator: CorelDRAW -->
<svg xmlns="http://www.w3.org/2000/svg" xml:space="preserve" width="297mm" height="210mm" style="shape-rendering:geometricPrecision; text-rendering:geometricPrecision; image-rendering:optimizeQuality; fill-rule:evenodd; clip-rule:evenodd"
viewBox="0 0 297 210"
 xmlns:xlink="http://www.w3.org/1999/xlink">
 <defs>
  <style type="text/css">
   <![CDATA[
    .str2 {stroke:#2F3133;stroke-width:0.1}
    .str1 {stroke:black;stroke-width:0.1;stroke-opacity:0.501961}
    .str0 {stroke:black;stroke-width:0.1}
    .str3 {stroke:black;stroke-width:0.5}
    .fil5 {fill:none}
    .fil0 {fill:white}
    .fil4 {fill:#1F1A17;fill-rule:nonzero}
    .fil2 {fill:#C2C1C1;fill-rule:nonzero}
    .fil3 {fill:white;fill-rule:nonzero}
    .fil6 {fill:black;fill-rule:nonzero}
    .fil1 {fill:white;fill-rule:nonzero;fill-opacity:0.501961}
   ]]>
  </style>
 </defs>
 <g id="Plan_x0020_1">
  <metadata id="CorelCorpID_0Corel-Layer"/>
  <path class="fil0 str0" d="M191.334 123.286c0.2495,-0.088 0.4296,-0.1675 0.4682,-0.2216 0.3874,-0.0349 0.913,-0.454 1.3221,-0.5733l1.404 -0.4095c0.9369,-0.2732 1.8426,-0.6255 2.7963,-0.7722 0.5088,-0.0783 1.271,0.0816 1.7199,-0.1287 0.4598,-0.1719 1.3703,-0.1654 1.872,-0.1521l2.2113 0.0585c1.255,0.0332 2.1236,0.2244 3.2643,0.5967 0.5497,0.1793 0.789,0.2574 1.3572,0.2574 0,-0.0237 -0.0063,-0.0175 0.0117,-0.0234 0,-0.4789 -0.1581,-0.1755 -0.5148,-0.1755 -0.4067,0 -0.5329,-0.169 -0.8424,-0.2457 -0.0607,-0.2449 -0.3348,-0.4654 -0.3861,-0.6201l0.6084 -0.1521c0.0086,-0.0347 0.0393,-0.071 0.0468,-0.0936 0.2601,0.0644 0.291,0.5796 0.819,0.4329 0.3283,-0.0911 0.6938,-0.3859 0.9009,-0.702 0.183,-0.0915 0.1895,-0.4989 0.3276,-0.6201 0.1815,-0.1595 0.4185,-0.2449 0.5967,-0.4095 0.4582,-0.4229 0.2291,-0.9827 0.3159,-1.521 0.0598,-0.3715 0.1848,-0.7336 0.2574,-1.1115 0.1046,-0.5437 0.1404,-1.1573 0.1404,-1.7199 0,-0.7581 0.1872,-1.4429 0.1872,-2.1762l0.0234 0c0.0049,0.02 0.0117,0.0238 0.0117,0.0468 0.2614,0.0866 0.1436,2.354 0.2106,2.7495 0.1772,1.0457 0.058,2.2245 -0.1404,3.2175 -0.091,0.2435 -0.1452,0.2505 -0.3159,0.4212 -0.1189,0.1189 0.0468,0.1942 0.0468,0.3393 0,0.3041 -0.2414,0.7116 -0.351,0.9945 -0.1057,0.273 -0.2429,0.5314 -0.3276,0.8073 -0.1167,0.3796 -0.1626,0.7973 -0.2925,1.1817 -0.0322,0.0953 -0.0228,0.4212 -0.0702,0.4212 -0.0131,-0.053 -0.7966,-0.8311 -0.8307,-0.8424 0,0.1845 -0.5499,0.5724 -0.5499,0.7839 0.2727,0.0675 0.5636,0.3591 0.8775,0.4563 0.1699,0.0525 0.7657,0.3861 0.8424,0.3861 0,-0.8594 0.1666,-1.9601 0.5733,-2.7027 0.5073,-0.926 0.7204,-2.12 1.0647,-3.1239 0.0816,-0.6589 0.4748,-1.3627 0.5265,-1.989 0.3152,-0.3607 0.3974,-1.2526 0.6552,-1.6965 0.2813,-0.4846 0.4445,-1.0732 0.7254,-1.5678l1.6614 -2.925c0.5207,-0.5207 0.7978,-1.5063 1.3455,-2.0826l1.7901 -1.8837c0.3046,-0.3206 0.8016,-0.647 1.0413,-0.9828 0.2833,-0.0708 0.9744,-0.9422 1.2402,-1.17 0.4156,-0.3564 0.8933,-0.7536 1.3572,-1.053 0.9806,-0.9806 2.4529,-2.2662 3.7908,-2.7027 0.4251,-0.1387 2.5155,-1.2353 2.5155,-1.6029 -0.0486,-0.0325 -0.0683,-0.1399 -0.1404,-0.1638 -0.0117,-0.0474 0.038,-0.3463 -0.0117,-0.3627 0,-0.0361 -0.0102,-0.0942 0.0234,-0.1053 0,-0.0634 0.0812,-0.0805 0.1053,-0.1287 0.0718,-0.0178 0.1014,-0.0351 0.1872,-0.0351 0.2183,-0.3265 -0.4147,-0.6599 -0.7137,-0.9243 -0.1215,0 -0.2482,-0.2574 -0.4212,-0.2574 -0.0901,0 -0.4236,0.1908 -0.468,0.0117 -0.5462,0 -0.5213,-0.9546 -0.8073,-1.2168 -0.1974,-0.1811 -0.0267,-0.1978 0.2223,-0.2808 0.2759,-0.0919 0.5917,-0.1265 0.8892,-0.0351 0.4526,0.1392 0.3901,-0.09 0.6669,-0.4095 0.443,-0.5116 0.1186,-0.6133 0,-1.1115 -0.1143,-0.4799 -0.0946,-0.2281 -0.4329,-0.5031 -0.1629,-0.1323 -0.2407,-0.4996 -0.4095,-0.6903 -0.098,-0.1108 -0.033,-0.4231 -0.0702,-0.5733 -0.1036,0 -0.1802,0.363 -0.2457,0.468 -0.0448,0.072 -0.2368,0.4228 -0.2925,0.2223 -0.1073,-0.3864 0.1469,-0.7679 0.0702,-1.17 -0.0473,-0.2478 0.1926,-0.1477 0.3744,-0.1755 0.2297,-0.0352 0.3973,-0.2161 0.6786,-0.2223l1.053 -0.0234c-0.0721,0.2176 -1.0938,0.2254 -1.0998,0.234 -0.1888,0.2717 0.3692,0.6242 0.4914,0.7605 0.1714,0.191 0.2771,0.4244 0.3978,0.6435 0.0932,0.169 -0.1499,0.2595 -0.2223,0.3861 0.1488,0.0493 0.4196,0.193 0.5733,0.2808 0.1006,0.0333 0.0927,0.383 0.3744,0.4914 0.2094,0.0805 0.0035,0.3744 0.4446,0.3744l0 0.0234c-0.3898,0 -1.0535,1.2508 -1.3455,1.5093 -0.1209,0.1069 -0.4506,-0.0234 -0.6084,-0.0234 -0.2938,0 -0.4105,0.4911 -0.3159,0.7371 0.1014,0.2635 0.3541,-0.3876 0.6435,-0.0117 0.248,0.3223 0.2201,-0.1088 0.3861,-0.1638 0,0.1859 0.5032,0.9008 0.7254,0.6786 0.308,-0.308 0.1273,0.7137 0.5382,0.7137 0,0.2541 -0.2457,0.5122 -0.2457,0.6903 0.9505,-0.6336 2.4617,-1.5356 3.1005,-2.574 0.2123,-0.3452 0.6495,-0.9973 1.0413,-1.1349 0.0283,-0.0856 0.5921,-0.2902 0.7137,-0.351 0.2631,-0.1314 0.4121,-0.3191 0.6201,-0.5031 0.3715,-0.3288 -0.1287,-0.7025 -0.1287,-1.0881 0.2567,0.085 0.2356,0.4914 0.6435,0.4914 0.3165,0 0.3837,-0.6228 0.6201,-0.4914 0.2744,0.1524 0.28,-1.1974 0.117,-1.4625 -0.0408,-0.0663 -0.4095,-0.2217 -0.4095,-0.2574 0,-0.476 -0.148,-1.0702 -0.5382,-1.3806 -0.2259,-0.1798 0.8879,0.0543 1.0881,0.3744 0.0356,0.0569 -0.0347,0.4045 -0.0117,0.5148 0.0398,0.1915 0.1656,0.294 0.2106,0.4563 0.1391,0.5006 0.179,0.468 0.6786,0.468 0,0.2487 -0.2197,0.6735 -0.2925,0.936 -0.0652,0.2348 -0.5382,0.749 -0.5382,0.8658 0.8875,-0.2199 1.5743,-0.5255 2.5038,-0.5967 0.3004,-0.023 0.3424,-0.2808 0.6669,-0.2808 0.3182,0 0.9159,-0.4569 1.2285,-0.585 0.4524,-0.1855 1.0925,-0.1981 1.5093,-0.4212 0.7849,-0.3141 2.0765,-0.3276 2.9367,-0.3276 0.8812,0 1.6874,0.1926 2.5389,0.2457 0.4553,0.0283 1.0347,0.2464 1.4625,0.1404 0,-0.1242 -0.0234,-0.243 -0.0234,-0.3744l-0.0117 -0.0117c-0.2527,0 -0.3695,0.1259 -0.6084,0.0468 0,-0.0524 0.0111,-0.2105 0.0468,-0.2223 0,-0.0551 0.0459,-0.101 0.0585,-0.1521 0.3527,-0.0874 0.0927,-0.5692 -0.0351,-0.7137 -0.3917,-0.4426 -0.2119,-0.2525 -0.7137,-0.0468 -0.1034,0.0424 -0.5971,0.3149 -0.6084,0.2808 -0.0452,0 -0.1186,-0.1556 -0.1989,-0.1755 0.0048,-0.0146 0.0138,-0.0298 0.0351,-0.0351 0.0035,-0.0144 0.2014,-0.2002 0.2223,-0.2106 0,-0.3159 0.5331,-0.6977 0.8307,-0.7254 0.3532,-0.033 1.1089,0.1837 1.3572,0.0819 0.3886,-0.1592 0.1649,0.4159 0.3744,0.4914 0.194,0.07 0.5089,0.8797 0.1872,0.9594 0,0.1615 -0.1156,0.2524 -0.1521,0.3627 -0.0418,0 -0.1068,0.0173 -0.117,0.0585 -0.228,0.0565 -0.747,0.638 -0.2574,0.6786 0.3931,0.0326 0.717,0.1455 1.0881,0.1755 0.133,-0.0665 0.3834,-0.1755 0.5265,-0.1755 0.0904,0 0.2632,0.1967 0.3159,0.1638 0.1846,-0.1155 -0.2106,-0.5841 -0.2106,-0.6669 0,-0.1529 0.2106,-0.1522 0.2106,-0.351 0,-0.9163 0.3679,-1.705 0.1872,-2.6442 -0.074,-0.3851 -0.0035,-0.2109 0.1521,-0.0351 0.0872,0.0986 0.2087,0.2878 0.2691,0.3861 0.2236,0.3634 0.261,1.4837 0.9594,0.5499 0,0.4541 -0.492,0.8774 -0.3978,1.1817 0.0945,0.3055 0.1383,1.1535 0.4797,0.9828 0.6336,-0.3168 2.0111,0.5722 1.7082,-0.6084 -0.1877,-0.732 0.2818,-0.8215 0.3159,-1.4157 0.0136,-0.2362 -0.0975,-0.6185 0.1989,-0.7254 0.452,-0.1632 0.4115,-0.7419 0.6903,-0.2691 0.295,0.5 0.1977,0.9869 0.5031,0.0702 0.0255,-0.0766 0.1899,-0.5925 0.1287,-0.6084 -0.2619,-0.068 -0.3633,0.0983 -0.2808,-0.1989 0.0483,-0.1738 0.2672,0.0234 0.4329,0.0234 0.3149,0 0.3351,-0.2064 0.5148,-0.3861 0.2375,-0.2375 0.4451,0.0066 0.5499,-0.5031 -0.084,-0.2246 0.1184,-0.8888 0.1755,-1.1115 0.1039,-0.4054 0.3978,-0.8151 0.3978,-0.1053 0,0.5045 -0.2709,0.1404 0.1521,0.5148 0.3339,0.2954 0.186,-0.1743 0.351,-0.3393 0.1488,-0.1488 0.2845,-0.1428 0.4914,-0.0936 0.5293,0.1261 0.9764,-0.6051 1.3221,-0.9243 0.4745,-0.438 0.4086,-0.4329 -0.1755,-0.4329 -0.1235,0 -0.4874,0.0585 -0.5616,-0.0351 -0.1016,-0.1279 0.1022,-0.343 0.0117,-0.4563 -0.1062,-0.1328 -0.3632,-0.0002 -0.2574,-0.2691 0.0704,-0.1787 0.2887,-0.1531 0.3978,-0.3042 0.3903,-0.5407 0.8702,0.5469 1.3104,0.1521 0.2623,-0.2351 0.3618,-0.2827 0.2925,-0.6318 0.7395,0 0.0489,-0.5521 -0.1872,-0.819 -0.3738,-0.4223 -0.3867,-1.0626 -0.5148,-1.5795 -0.2034,0 -0.2038,0.3159 -0.3159,0.3159 -0.0941,0 -0.2492,-0.3497 -0.2808,-0.4329 -0.1089,-0.2859 -0.3578,-0.6933 -0.5031,-0.3159 -0.2385,0.6198 0.1396,0.919 0.468,1.3455 0.1427,0.1855 0.3277,0.8032 0.4095,1.0647 0.0372,0.1192 -0.4857,-0.2276 -0.5499,-0.2457 -0.2872,-0.081 -0.4809,-0.1804 -0.819,-0.117 -0.1037,-0.1037 -0.6189,0.0187 -0.6786,-0.2223 -0.2049,0 0.1159,0.5414 -0.0468,0.7254 -0.0819,0.0925 -0.4713,0.7488 -0.5265,0.7488l-0.1404 -0.7722c-0.1866,0 -0.4028,0.4329 -0.7488,0.4329 -0.3341,0 -0.5733,0.3945 -0.5733,0.7137 -0.3396,-0.0841 -0.3151,-1.0328 -0.3861,-1.0764 -0.6722,-0.4135 0.714,-0.211 0.8307,-0.4446 0.1609,-0.3218 0.1972,-0.4548 0.1755,-0.8541 -0.0411,-0.7579 -0.4625,-0.1277 -0.2574,-0.9009 0.0909,-0.3431 0.0715,-0.6323 0.0936,-0.9945 0.042,-0.6897 -0.1063,-0.4074 -0.5499,-0.7371 -0.1968,-0.1463 -0.6084,-0.9351 -0.6084,-0.2574 0,0.2427 0.2691,0.3476 0.2691,0.4914 0,0.1859 -0.2101,0.3756 -0.0936,0.5733 0.2088,0.354 -0.1596,0.1682 -0.3042,0.1404 -0.6317,-0.1214 -0.2532,0.6932 -0.117,1.0881 0.0607,0.1758 -0.176,1.4456 -0.3861,1.4976 -0.0918,-0.2772 -0.3276,-0.8747 -0.3276,-1.1934 -0.6527,-0.1617 -2.2464,-0.3822 -2.2464,0.6903 0,0.4889 1.1008,1.8242 1.0179,1.9071 -0.0804,0.0804 -0.2574,0.4176 -0.2574,0.5265 -0.0344,-0.0085 -0.2035,-1.0862 -0.6669,-1.2051 -0.9911,-0.2542 -0.1497,-0.7131 -0.6435,-1.2753 -0.3789,-0.4315 -1.0622,0.0147 -1.4859,-0.0117 -0.379,0 -0.4283,-0.0243 -0.702,0.1755 -0.1163,0.085 -0.4163,0.5245 -0.3393,0.6786 0.1449,0.2899 0.8886,0.7249 0.7488,1.0881 -0.0764,0.1987 -0.2039,0.7938 -0.4212,0.8658 0,-0.3877 0.2718,-1.0668 -0.0819,-1.3221 -0.5407,-0.3905 -0.5772,-0.3744 -1.2051,-0.3744 0,0.9724 -1.2092,0.8794 -1.287,1.1934 -0.1528,0 -0.271,0.3155 -0.2808,0.4446 -0.0175,0.2284 -0.2565,-0.215 -0.2808,-0.2457 -0.2887,-0.3637 -0.5568,-0.4222 -0.9477,-0.6084 -0.2429,-0.1158 -0.4899,-0.142 -0.7254,-0.2925 -0.3265,-0.2085 -0.7096,0.3613 -1.0764,0.0702 -0.4449,-0.3529 -0.6334,-0.3658 -1.17,-0.5148 -0.1743,-0.0484 -0.1547,-0.1564 -0.3744,-0.2457 -0.4405,-0.1789 -1.4338,-0.9455 -1.755,-1.3104 -0.4796,-0.068 -0.7137,-0.84 -0.7137,-1.2402 0,-0.5736 -0.2307,-0.9093 -0.6201,-1.2987 -0.2245,-0.2245 -0.2315,-0.7213 -0.4095,-0.8307 -0.1692,-0.1041 -0.6591,-0.661 -0.5733,-0.7137 0.4792,-0.2948 -0.3383,-0.887 -0.468,-1.1466 -0.1165,-0.233 -0.6154,-0.6284 -0.585,-0.6435 0.1494,-0.0747 0.2921,-0.0218 0.4212,0.0117 0.9902,0.2577 0.9065,0.9594 1.3455,1.6731 0.1268,0.2063 0.1774,0.218 0.2691,0.4563 0.077,0.2004 0.1139,0.3886 0.2691,0.5616 0.2288,0.2553 0.8741,1.0137 1.3338,0.7839 0.1949,-0.0974 0.5265,-0.5712 0.5265,-0.8424 0.1367,0.1828 -0.0315,0.8046 -0.1521,0.9477 -0.4382,0.5203 0.1331,0.2878 0.4095,0.1755 0.3757,-0.1526 0.0958,0.0919 -0.0585,0.2106 -0.2448,0.1885 -0.2058,0.4358 0.1287,0.4914 0.6971,0.1158 0.6846,0.3608 1.1817,0.7137 0.2516,0.4398 0.7095,0.2043 1.0296,0.6201 0.3197,0.4155 0.7384,0.6161 1.1817,0.9243 0.6604,0.459 1.3417,-0.5012 1.9773,-0.819 0.433,-0.2164 1.2369,-0.4285 1.5093,-0.8073 0.1983,-0.2756 0.2164,-0.5046 0.6552,-0.5499 0.2257,-0.0232 0.8035,-0.4713 0.936,-0.6318 0.2723,-0.33 0.5316,-0.6895 1.0296,-0.7722 0.5437,-0.0904 0.7605,-0.5253 0.7605,-1.0062 -0.0671,0 -0.3718,0.0389 -0.3978,0 0.4001,-0.0991 0.3488,-0.2457 0.819,-0.2457 0.4108,0 0.4978,-0.4547 0.6552,-0.7488 0.0931,-0.469 0.4694,-0.7291 0.6201,-1.1466 0.1238,-0.3433 -0.363,-0.0354 -0.5967,-0.2691 -0.5358,-0.5358 -1.1537,-1.2628 -0.6318,0.0936 0.0265,0.0689 -0.4514,0.325 -0.4329,0.1638 0.0273,-0.2387 -0.2357,-0.1867 -0.4212,-0.2691 -0.3594,-0.1595 -0.4037,-0.1611 -0.7956,-0.1053 -0.3219,0.0458 -0.5566,-0.1755 -0.8892,-0.1755 -0.2897,0 -0.1508,0.6016 -0.6552,0.6435 -0.2359,0.0195 -0.1265,0.2684 -0.2925,0.3744 -0.1976,0.1263 -1.4476,-0.1479 -0.6552,-0.4212 0.2003,-0.0691 0.9616,-0.3505 1.053,-0.5382 0.1072,-0.2204 0.2994,-0.5113 0.468,-0.7137l0.234 -0.2808c0.1912,-0.2295 0.2476,0.4563 0.6669,0.4563 0.2493,0 0.5165,-0.1197 0.7137,-0.2457 0.4883,-0.3119 0.2414,-0.2639 0.0819,-0.6786 -0.0226,-0.0588 0.2959,0.0218 0.3744,0 0.3453,-0.0958 0.0703,-0.062 0.1989,-0.234 0.1925,0.5809 1.3679,0.2087 1.755,0.6084 0.0332,0.0342 0.1838,0.2106 0.1989,0.1989 0.027,-0.0207 0.028,-0.6175 0,-0.6903 -0.0601,-0.1566 -0.3734,-0.235 -0.5265,-0.4446 -0.238,-0.326 -0.7891,0.2196 -0.6435,-0.3042 0.0626,-0.2256 -0.1766,-0.4341 -0.3159,-0.5382 0.3056,0 0.8708,0.1427 1.1817,0.2223 0.1751,0.0449 1.357,0.5784 1.2753,0.4095 -0.1337,-0.276 -0.1785,-0.2583 -0.3627,-0.4212 -0.1119,-0.0991 -0.5495,-0.8096 -0.2223,-0.5499 0.1764,0.1399 0.9612,0.1397 0.8775,-0.1872 -0.0498,-0.1942 -0.1419,-0.5932 0.1638,-0.4914 0.5017,0.1672 0.1126,-0.238 0.1521,-0.4095 0.1118,-0.486 0.0122,-0.3733 -0.3159,-0.1638 -0.5362,0.3426 -0.4203,-0.304 -0.5148,-0.5148 -0.175,-0.3907 -0.9765,0.1655 -1.0062,-0.2223 -0.0484,-0.6325 -0.234,-0.8146 -0.8307,-1.0647 -0.5171,0 -1.5795,-0.4203 -1.5795,0.2691 0,0.5562 0.1745,1.1521 0.1053,1.6848 -0.0017,0.0136 -0.298,-0.1989 -0.4563,-0.1989 -0.1791,0 0.1106,-0.3319 0.117,-0.4095 0.015,-0.1819 -0.1453,-0.2762 -0.1287,-0.4212 0.023,-0.2 0.117,-0.4297 0.117,-0.6318 0,-0.2456 -0.3254,-0.3618 -0.0468,-0.6084 0.3188,-0.282 0.3554,-0.3042 -0.1287,-0.3042 -0.3651,0 -0.7089,0.1359 -1.0881,0.0585 -0.317,-0.0646 -0.7186,-0.4243 -0.9828,-0.0585 -0.2151,0.298 -0.1853,-0.2323 -0.3159,-0.2457 -0.5033,-0.0518 -0.9504,0.6084 -1.4157,0.6084 -0.3551,0 -0.3253,0.384 -0.5382,0.5148 -0.118,0.0726 -0.5694,0.1349 -0.4914,-0.0117 0.0298,-0.0559 0.0977,-0.2223 0.1872,-0.2223 0.3555,0 0.9672,-0.8931 1.4508,-1.1349 0.1516,-0.0757 1.2216,-0.1602 0.8775,-0.2925 -0.229,-0.0881 -0.5882,-0.3978 -0.7722,-0.3978 -0.4447,0 -0.8343,-0.0547 -1.17,-0.3276 -0.3858,-0.3135 -0.8835,-0.0975 -1.2987,-0.3627 -0.5225,-0.3339 -0.3628,0.5452 -0.8541,0.6669 0.2635,-0.3524 0.3744,-0.3745 0.3744,-0.819 0,-0.5064 -0.4068,-0.4336 -0.4329,-0.6201 0,-0.6504 -0.9037,-0.4797 -1.3338,-0.4797 -0.5654,0 -1.184,-0.3377 -1.4976,-0.7722 -0.1843,-0.2552 -0.5624,0.0941 -0.7722,0.234 -0.4749,0.3165 -0.4327,0.5192 -0.5031,-0.0936 -0.0761,-0.6616 -0.2029,-0.8301 -0.7839,-1.1583 -0.3413,-0.1929 -2.106,-1.1711 -2.106,-1.4859 0.3814,0 0.871,0.4329 1.2519,0.4329 -0.008,-0.0325 -0.1329,-0.1942 -0.1521,-0.1989 0,-0.4424 -1.1115,-0.7364 -1.1115,-1.17 0.6631,0 0.9743,0.2142 1.3806,0.702 0.301,0 0.6792,0.8084 0.8541,1.0062 0.3114,0.3519 0.6359,0.5038 1.1583,0.3744 0,-0.0273 0.009,-0.0521 0.0351,-0.0585 0.1514,0.6109 0.3629,0.3088 0.7137,0.585 0.392,0.3088 0.8402,0.4446 1.3689,0.4446 0.2784,0 0.6529,-0.0416 0.8658,0.1053 0.1376,0.095 0.8568,0.4301 0.9126,0.1872 0.0678,-0.2946 0.2078,-1.5993 0.3276,-0.7722 0.0156,0.1076 0.0398,0.568 -0.0468,0.5967 0,0.2991 -0.1735,0.358 0.2223,0.468 0.1763,0.0489 0.5663,0.1568 0.6903,0.2808 0.4211,0.4211 1.0979,0.5657 1.6263,0.2925 0.8484,-0.363 1.5608,1.0217 2.1762,0.2223 0.3523,-0.4578 0.0872,-0.1549 0.1287,-0.0468 0.1896,0.4927 -0.0782,0.3938 0.4914,0.6786 0.4886,0.2442 1.2229,0.4559 1.7784,0.5499 0.0977,0.0165 0.3827,0.1205 0.3861,0.0936 0.0228,-0.1755 -0.1404,-0.5606 -0.2106,-0.7137l-0.8307 -1.8135c-0.0717,-0.1563 0.2691,-0.2923 0.2691,-0.4797 0,-1.0099 -0.1688,-0.4447 -0.5967,-1.0647 -0.5406,-0.7831 -0.3899,-0.679 -1.2753,-0.3159 -0.6576,0.2696 -0.049,-0.2532 0.0468,-0.2691 0.3447,-0.0572 0.3077,-0.3141 0.585,-0.4563 0.1677,-0.0861 0.9124,0.0555 0.4329,-0.3744 -0.1225,-0.1099 -0.7882,-0.4796 -0.9126,-0.468 -0.2475,0.023 0.0282,-0.351 0.0468,-0.3276 0.2348,0.2938 0.6319,0.2692 0.8775,0.5148 0.6653,0.6653 0.5308,-0.1046 0.7722,-0.0117 0.3901,0.15 0.7131,-0.2697 1.17,0.1872 0.0955,0.0955 0.556,0.156 0.702,0.1404l1.4157 -0.1521c0.4992,-0.0535 0.4446,-1.0947 0.4446,-1.3923 0.1466,0.4423 0.9441,0.5537 0.5382,1.0062 -0.2946,0.3286 -0.0823,1.3261 -0.4095,1.404 -0.242,0.0575 -0.6077,0.457 -0.6084,0.4563 -0.1651,-0.146 -0.204,-0.22 -0.3978,-0.3276 -0.3787,-0.2105 -1.3784,-0.1638 -1.8603,-0.1638 -0.4402,0 -0.6962,-0.1745 -0.468,0.2223 0.1993,0.3467 0.5044,0.2794 0.5733,0.8307 0.0573,0.2313 0.3276,0.5961 0.3276,0.8073 0.091,0 0.3413,-0.5111 0.5031,-0.5733 0.2308,-0.0888 0.4914,-0.0072 0.4914,0.2808 -0.2141,0 -0.2064,-0.2223 -0.4095,-0.2223 -0.0781,0.3152 -0.5086,0.6836 -0.819,0.7605 0,0.7034 0.7915,0.7605 1.3455,0.7605 0,0.0775 0.1053,0.1785 0.1053,0.2574 -0.1185,0 -0.2108,-0.1173 -0.3042,-0.1053 -0.0744,0.0096 -0.1051,0.1493 -0.1638,0.1638 0,0.2041 -0.4769,0.7103 -0.1638,0.8307 0.1188,0.0457 0.7312,0.5059 0.8073,0.1989 0.2423,0 0.0296,-0.0447 0.2574,0.0117 0,0.0851 -0.1694,0.351 -0.0351,0.351 0.0293,0.1183 0.6694,0.4716 0.7956,0.6084 0.2608,0.2824 0.1064,-0.5412 -0.0234,-0.5733 0,-0.2456 -0.1755,-0.4579 -0.1755,-0.6084 0.4697,0 0.7399,0.2522 0.9126,-0.4446 0.0902,0.0223 -0.0426,0.355 -0.0585,0.3978 -0.039,0.1054 -0.0477,0.3873 0.0351,0.4797 0.3463,0.3861 0.3691,-0.4362 0.3861,-0.4446 0.2274,-0.1137 0.211,-0.1168 0.4095,-0.2925 0.2902,-0.2567 -0.0174,-0.4914 0.0468,-0.4914 0.1294,0 0.3117,0.005 0.4095,-0.0702 0.1301,-0.1002 -0.173,-0.2765 -0.2106,-0.3744 -0.0164,-0.0427 -0.0739,-0.5811 0.0468,-0.4446 0.2044,0.2309 0.1385,0.3031 0.4797,0.3978 0.4236,0.1177 0.8861,1.2987 0.2457,1.2987 0,0.1747 0.3276,0.3635 0.3276,0.6318 0.5522,0.1368 0.7137,-0.0416 0.7137,0.8073 -0.6494,0.1609 -1.1773,-0.3861 -1.755,-0.3861 0.0951,0.384 0.6318,0.4811 0.6318,0.6669 0,0.662 0.2759,-0.3008 0.4563,-0.1755 0.1049,0.0729 0.2792,0.0468 0.4212,0.0468 0.2494,0 0.4135,0.5559 0.4914,0.468 0.075,-0.0848 0.0774,-0.3929 0.0468,-0.5031 -0.0608,-0.2193 -0.299,-0.0455 -0.0819,-0.3276 0.0717,-0.0931 -0.0508,-0.2919 -0.1053,-0.3627 -0.1572,-0.2044 0.1737,-0.2754 0.2223,-0.4797 0.0384,-0.1612 -0.2984,-0.8691 -0.0819,-0.7722 0.1236,0.0554 0.1616,0.1944 0.3159,0.2574 0.444,0.1812 0.1096,0.2968 0.4329,0.6201 0.2007,0.2007 0.3579,0.0219 0.4914,0.1053 0.0671,0.042 -0.1847,0.3677 -0.0702,0.5265 0.0946,0.131 0.3574,0.0117 0.4914,0.0117 0.0448,0.1809 0.2106,0.1982 0.2106,0.3744 -1.2284,0 0.5517,0.7839 0.8424,0.7839 0.5981,-0.3731 0.0702,-0.4434 0.0702,-1.0062 0.1699,-0.0421 0.3393,-0.5103 0.3393,-0.6786 0.066,0 0.0517,0.033 0.0936,0.0468 0,0.0286 0.0072,0.0399 0.0351,0.0468 0,0.0237 -0.0063,0.0175 0.0117,0.0234 -0.1235,0.4983 0.0325,0.3254 0.1287,0.7137 0.0256,0 0.0287,-0.0025 0.0351,0.0234 0.4564,0 0.3933,0.232 0.5499,0.5382 0.1576,0.3083 0.4139,0.1287 0.7137,0.1287 0.0579,0.1747 0.4744,0.3149 0.585,0.0936 0.1402,0 0.3323,-0.1874 0.4914,-0.0468 0.0647,0.0573 0.5071,0.4102 0.5616,0.2457 0.467,0 0.048,-0.5564 0.3861,-0.7254 0.3105,-0.1552 0.5675,-0.0702 0.9243,-0.0702 0.2534,0 0.3903,-0.2601 0.5967,-0.3744l0.7605 -0.4212c0,-0.0688 -0.3273,-0.1143 -0.4329,-0.1404 0,-0.6183 0.4329,-1.2023 0.4329,-1.8603 0.3337,-0.1106 0.6807,0.2574 0.9828,0.2574 0.0062,0.0188 0.0127,0.0117 0.0351,0.0117 0.0523,0.1578 -0.0243,0.5031 0.1755,0.5031 0.0679,-0.274 0.1872,-0.2645 0.1872,-0.6318 0,-0.2768 -0.0803,-0.3012 0.1638,-0.5265 0.4409,-0.4071 0.1117,-1.2934 0.117,-1.2987 0.1527,-0.1527 0.8415,-0.2724 0.8775,-0.5265l0.4212 -0.4212c0.1367,-0.1828 -0.1847,-0.2587 -0.2457,-0.3276 -0.116,-0.1312 0.2573,-0.2416 0.3159,-0.2691 0.4428,-0.2078 0.3628,-0.515 0.8307,-0.7488 0.3016,-0.1508 0.3872,-0.0947 0.5967,-0.3861 0.2951,-0.4103 -0.3594,-0.4559 0.3393,-0.7839 0.4224,-0.1982 1.1269,-0.1143 0.5031,-0.6903 -0.2871,-0.265 -0.0959,-0.4394 0.0117,-0.702 0.1888,-0.4604 0.2106,-0.706 0.2106,-1.2285 0.0604,0.02 0.1578,0.2973 0.234,0.3627 0.1184,0.1014 0.3168,0.0183 0.4095,0.0936 0.1396,0.1136 -0.2676,0.5211 -0.0702,0.7254 0.0804,0.0833 0.2925,0.0947 0.2925,0.2574 0,1.2525 1.3222,0.0336 1.2636,0.4563 -0.0287,0.2067 -0.2808,0.4788 -0.2808,0.5967 0.3066,-0.2293 1.1351,-0.1141 1.3689,-0.3042 0.207,-0.1682 -0.5546,-0.7722 0.351,-0.7722 0.3565,0 0.498,-0.2942 0.6669,-0.585 0.0269,-0.036 0.1287,-0.1817 0.1287,-0.2106 0.0124,-0.0041 0.1006,-0.0559 0.1053,-0.0702l0.0234 0 0.1638 -0.117c0,-0.2491 -0.1295,-0.3266 -0.1755,-0.5499 -0.0637,-0.3085 -0.181,-0.2226 -0.4329,-0.2925 -0.3782,-0.1051 -0.4212,-0.7656 -0.4212,-1.0998 -0.0228,-0.0075 -0.0006,-0.0042 -0.0234,-0.0117l0 -0.0234c-1.0074,-0.2497 0.4818,-1.3415 0.6084,-0.8307 0.2767,0 0.351,0.6034 0.351,0.7722 0.0378,0 0.0578,-0.0117 0.0936,-0.0117 0.0058,-0.0234 0.3434,-0.1936 0.4329,-0.3393 0.0295,-0.0479 0.1285,-0.5657 0.0702,-0.585 0,-0.1571 -0.2691,-0.225 -0.2691,-0.351 -0.0771,-0.0191 -0.0936,-0.6114 -0.0936,-0.7137 0,-0.2062 -0.0965,-0.3619 -0.1872,-0.5265 -0.072,-0.1305 -0.132,-0.9146 -0.117,-1.1115 0.0128,-0.167 0.0095,-0.615 0.0468,-0.7605 0.0349,-0.1366 0.3577,-0.8485 0.0936,-0.936 0,-0.11 -0.048,-0.1041 -0.0234,-0.2574 0,-0.4339 -0.4772,-0.6674 -0.5148,-0.9945 -0.0307,-0.2676 -0.0251,-0.8442 0.0585,-1.1115 0.0799,-0.2557 -0.2595,-0.1532 -0.3978,-0.3276 -0.1821,-0.2294 -0.199,-0.5359 -0.2925,-0.8073 -0.0519,-0.1505 -0.3042,-0.0618 -0.3042,-0.234l0 -0.5148c0,-0.6583 -1.2403,-0.1262 -0.9828,-0.7956 0.144,-0.3742 -0.1692,-0.3563 -0.4329,-0.5382 -0.1913,-0.1321 -0.7847,-0.3393 -0.9945,-0.3393 -0.3617,0 -0.6078,0.2214 -0.9009,0.2457 -0.1962,0.0162 -0.4506,-0.1812 -0.5265,-0.1521 -0.0902,0.0347 -1.7099,0.4091 -1.2636,0.6552 0.4214,0.2325 0.857,1.107 1.2285,0.5031 0.407,-0.6618 0.9984,-0.1931 1.287,-1.0296 0.0623,-0.1806 0.4345,0.2018 0.3861,0.3276 -0.1126,0.293 -0.2972,0.6605 -0.6552,0.7254 -0.2084,0.0377 0.6988,0.117 0.8307,0.117 0.2047,0 0.963,0.3605 1.0296,0.5616 -0.4696,0 -0.9472,-0.0058 -1.3455,0.1872 -0.5945,0.2879 -1.1681,-0.9594 -1.5678,-0.5265 -0.287,0.3109 0.2112,0.6211 0.3159,0.8307 0.0699,0.1398 0.0241,0.5023 0.0819,0.5733 0.1106,0.1361 0.3935,-0.092 0.5148,0.1053 0.2138,0.3476 0.1155,0.2374 0.4797,0.3276 -0.1498,0.1498 -0.1274,0.2962 -0.2574,0.1755l-0.3276 -0.3042c-0.2491,-0.2312 -0.6669,0.304 -0.6669,-0.1872 0,-0.1367 0.015,-0.5399 -0.0468,-0.6201 -0.2853,-0.3708 -0.8239,0.355 -0.6318,-0.234 0.0425,-0.1304 0.1785,-0.4386 -0.1404,-0.3159 -0.5329,0.205 -0.8987,0.7838 -1.3689,1.1232 -0.4418,0.319 -0.2691,0.2906 -0.2691,0.7722 0,0.5528 -0.2112,0.5423 0.0585,1.0647 0.3327,0.3327 -0.1646,0.8338 -0.2691,1.1232 -0.1618,0.4484 0.1664,0.868 0.1287,1.3221 -0.0842,1.0143 -0.4563,1.9433 -0.4563,2.925 0,0.4043 -0.1765,1.7003 -0.4914,1.9539 -0.1151,0.0926 -0.7802,0.4105 -0.8658,0.1521l-0.0234 0c-0.0277,-0.112 -0.1872,-0.2255 -0.1872,-0.3744 -0.0433,-0.0143 -0.0709,-0.1758 -0.117,-0.1872 0,-0.3669 -0.3344,-0.043 -0.4212,-0.0117 -0.2356,0.0849 -0.3974,-0.2755 -0.5031,-0.117 -0.1602,0.2405 -0.1499,0.1772 -0.4095,0.1404 -0.0996,-0.3482 -0.5198,-0.2576 -0.7371,-0.5031 -0.2126,-0.2404 -0.2136,-0.6435 0.1521,-0.6435 0.0047,0.0144 0.009,0.0187 0.0234,0.0234 0,0.0996 0.0468,0.2501 0.0468,0.3627l0.5616 0.0936 0.0234 0c0.1474,0.4449 0.8846,-0.0558 1.2987,0.0936 0.0628,0.0227 0.333,0.2537 0.3627,0.1638l0.0234 0c0.0114,-0.046 0.0585,-0.0512 0.0585,-0.0936 0.0391,-0.0097 0.0254,-0.0398 0.0468,-0.0468l0 -0.0351c0.1722,-0.0427 -0.043,-0.6058 -0.0936,-0.6786 -0.1494,-0.215 -0.3071,-0.0989 -0.5031,-0.1638 0,-0.4303 0.1823,-0.8461 0.1638,-1.2168l-0.0585 -1.17c-0.3887,0 -0.3738,0.0793 -0.6669,0.2106 -0.2957,0.1326 -0.4225,-0.3168 -0.7371,-0.3861 -0.1053,-0.0231 -0.5499,-0.142 -0.5499,-0.2223 0,-0.3605 0.2223,-0.6551 0.2223,-0.936 0.0225,-0.0055 0.0296,-0.0126 0.0351,-0.0351 0.1213,0 0.3758,0.4811 0.4797,0.585 0.076,0.076 0.429,0.4867 0.4446,0.5499 0.172,0 0.3947,-0.0676 0.4446,-0.2691l0.0351 0c0,0.1451 0.0896,0.4262 0.2106,0.3861 0,-0.3512 -0.0547,-0.9643 0.0702,-1.287 0,-0.4359 -0.2485,-0.5809 -0.2808,-0.9711 -0.01,-0.1204 0.0215,-0.8822 -0.0351,-0.9009 0,-0.098 -0.1303,-0.1212 -0.1521,-0.1872 -0.3216,0 -0.7274,-0.4563 -0.936,-0.4563 -0.0037,-0.015 -0.008,-0.0201 -0.0117,-0.0351 0.323,-0.08 1.0831,0.1989 1.4742,0.1989 0.1316,-0.3971 0.3966,-0.8862 0.4914,-1.2987 0.0236,-0.1025 0.6435,-1.0415 0.7137,-1.0647 0,-0.0351 -0.0234,-0.0585 -0.0585,-0.0585 -0.0088,-0.0267 -0.0834,-0.0628 -0.0936,-0.0936 -0.1558,0 -0.5254,0.1908 -0.5382,0.1521 -0.0454,0 -0.1059,-0.0717 -0.117,-0.1053 -0.3192,0 -0.6281,0.7396 -0.8541,0.7956 -0.0062,-0.0188 -0.0127,-0.0117 -0.0351,-0.0117 -0.0986,-0.2975 -0.2532,-0.4232 -0.4446,-0.6552 -0.137,-0.1659 -0.8073,-0.5317 -0.8073,-0.7488 0.1294,0 0.1431,0.1287 0.3159,0.1287 0.0768,0 0.342,-0.004 0.3627,0.0585 0.0533,0 0.6516,0.5622 0.6669,0.6084 0.0932,0 0.1242,-0.1287 0.2574,-0.1287 0.0149,-0.0452 0.0234,-0.0751 0.0234,-0.1404 -0.0113,-0.0037 -0.0314,-0.0238 -0.0351,-0.0351 -0.1255,0 -0.3933,-0.3645 -0.2574,-0.4095 0,-0.1461 0.1638,-0.3608 0.1638,-0.5616l0.0117 -0.0117 0.0585 0c0.0321,0.1296 0.7006,0.3104 0.7605,0.4914 0.3431,0 0.4366,-0.15 0.6903,-0.234 0,-0.023 0.0078,-0.0404 -0.0117,-0.0468 0,-0.0275 0.0001,-0.0507 -0.0234,-0.0585 0,-0.2853 -1.0583,-1.0032 -1.3104,-1.1583 -0.7377,-0.4537 -1.4315,-0.0315 -2.1996,-0.1755 -0.3318,0 -0.8371,-0.2137 -1.1232,-0.1404 -0.3688,0.0946 -0.7891,0.2912 -1.17,0.3159 -0.6935,0.045 -1.7137,0.3182 -2.3049,0.6669 -0.3285,0.1938 -1.0435,0.6669 -1.404,0.6669 0.0067,0.0202 0.0117,0.0058 0.0117,0.0351 0.4159,0.103 1.404,0.6012 1.404,1.0881l-0.3159 -0.0117c-0.2058,-0.8304 -0.7748,0.1003 -1.0764,-0.5031 -0.2914,-0.5828 -1.2725,-0.1973 -1.6965,-0.0234 -0.5174,0.2121 0.0189,-0.3832 -0.1872,-0.5265 -0.2326,-0.1616 0.1361,-0.2041 0.117,-0.351 -0.0123,-0.0954 -0.2553,-0.3008 -0.3159,-0.3978 -0.0993,-0.1586 0.126,-0.4673 -0.1755,-0.5616 -0.3524,-0.1101 -0.7523,0.2464 -1.1232,0.2106 -0.6651,0 -0.9512,0.4945 -1.5093,0.6084 -0.5173,0.1055 -0.7583,0.3269 -1.2168,0.4797 -0.7826,0.2607 -1.933,0.3159 -2.7846,0.3159 -0.6623,0 -1.3662,0.3355 -2.0358,0.117 -0.3273,-0.1067 -0.5874,-0.2401 -0.936,-0.3159 -0.3485,-0.0757 -0.5818,0.351 -0.9243,0.351 0,-0.1471 0.1661,-0.3182 0.2691,-0.4212 0,-0.7963 0.5636,-0.7708 1.0413,-1.1934 0.0815,-0.0722 0.2071,-0.361 0.2574,-0.3861 0,-0.2024 -0.0468,-0.4132 -0.0468,-0.5967 -0.0939,-0.0311 -0.0534,-0.1404 -0.2457,-0.1404 -0.1285,0 -0.1999,0.0585 -0.2925,0.0585 0,-0.2003 -0.0823,-1.3575 -0.1521,-1.3806 0,-0.1171 -0.4352,-0.1955 -0.4914,-0.468 -0.0659,-0.3196 -0.1638,-0.57 -0.1638,-0.9243 0,-0.0839 0.0526,-0.5558 0.0351,-0.5616l0 -0.0351c-0.1018,-0.0337 -0.5323,-0.9986 -0.6084,-1.1583 -0.1974,-0.4145 -0.3145,-0.8692 -0.2223,-1.3455 0,-0.8422 0.1156,-1.6372 0.3861,-2.3868 0.0364,-0.1008 0.1181,-0.7915 0.3159,-0.4329 0.1069,0.194 0.1699,-0.0587 0.2223,-0.1755 0.061,-0.1363 0.0804,-0.2778 0.1404,-0.3978 0.1619,-0.324 0.6201,-0.7237 0.6201,-1.1349 0,-0.2409 -0.1727,-0.5175 -0.3276,-0.6903 -0.1349,-0.1504 -0.5733,-0.6527 -0.5733,-0.8424 0.0462,0.1395 0.6387,0.405 0.8073,0.4329 0.3022,0.0502 0.6016,0.2534 0.7254,0.5382 0.303,0.6966 -0.2684,1.2672 -0.5031,1.8837 -0.1729,0.4539 -0.5472,0.7439 -0.6786,1.2168 -0.0754,0.2717 -0.0521,0.564 -0.1521,0.8307 -0.1216,0.6124 0.032,1.2234 0.1521,1.7082l0.0351 0c0.1081,0.3263 0.3159,0.9629 0.3159,1.3455 0.2089,0.0692 0.3242,0.0702 0.5616,0.0702 0,0.0224 0.0071,0.0289 -0.0117,0.0351 0,0.7021 -0.1958,1.172 0.0117,1.9188 0.1266,0.4559 1.0101,0.8906 1.4508,0.8541 0.4954,-0.0411 0.5865,-0.7371 0.9477,-0.7371 0.0051,0.0156 0.0459,0.0427 0.0585,0.0468 0,0.1027 0.0691,0.729 0.0936,0.7371 0,0.0723 0.0351,0.1263 0.0351,0.1872 0.022,0.0054 0.2326,0.263 0.2925,0.3159 0.0854,0.0756 0.2447,0.1371 0.3042,0.234 0.18,0.2926 0.2624,0.2808 0.6435,0.2808 0.6171,0 1.3633,0.1625 1.8369,-0.1287 0.31,-0.1907 0.7143,-0.4446 1.1115,-0.4446 0.2863,0 0.2339,-0.246 0.3744,-0.2925l0 -0.0234 0.4212 -0.6084 0.585 -0.5499c0.1077,-0.1012 0.468,-0.1751 0.468,-0.3042 -0.3121,0 -1.8058,-0.4811 -1.8837,-0.7956 0.2289,0 0.72,0.3849 0.936,0.468 0.426,0.1638 0.8129,-0.1658 1.0881,-0.234 0.1456,0.4393 0.733,0.0714 1.1349,0.0117l1.4157 -0.2106c0.1338,-0.0198 0.7679,-0.2766 0.702,-0.351 -0.1843,-0.2084 -0.7376,-0.0668 -0.9477,-0.3042 -0.3425,-0.3872 -0.7264,-0.5265 -1.2519,-0.5265 -0.2115,0 -0.3769,-0.4228 -0.585,-0.5616 -0.8206,-0.547 -1.389,-1.188 -2.1177,-1.8486 -0.6318,-0.5726 0.1649,-0.2945 0.4446,-0.3159 0.3493,-0.0267 0.8104,0.5365 1.0764,0.7605 0.1841,0.1551 0.3954,0.1451 0.5967,0.2457 0.2337,0.1168 0.1493,0.6992 0.3393,0.8892 0.0964,0.0964 0.6112,0.0819 0.7605,0.0819 0.3875,0 0.5018,0.0501 0.8541,0.1404 0.6155,0.1579 1.131,0.8023 1.7901,1.0062 0.516,0.1597 0.907,0.4797 1.4859,0.4797 0.147,0 0.9397,-0.2596 0.9594,-0.3393 -0.018,-0.0059 -0.0117,0.0003 -0.0117,-0.0234 -0.5989,-0.1484 -1.3197,-0.5658 -1.5327,-1.2051 -0.2578,-0.7734 -0.868,-0.9523 -1.2753,-1.6146 -0.1222,-0.1986 -0.2308,-1.57 -0.0819,-1.1232 0.1133,0.3402 0.4766,0.9126 0.8775,0.9126 0.0409,0.165 0.1748,0.5126 0.3978,0.5382 0.3805,0.0437 0.169,0.1657 0.3861,0.3393 0.1147,0.0916 0.7349,0.8678 0.7605,0.9711 0.0711,0 0.1874,0.0499 0.2574,0.0702 0.4368,0.2725 0.6992,0.7207 1.2402,0.3042 0.2142,-0.1648 0.9097,-0.1608 1.2051,-0.234 -0.0361,-0.1458 -0.5401,-0.0392 -0.702,-0.2223 -0.0381,-0.043 -0.2454,-0.7262 0,-0.6318 0.1679,0.0645 0.1112,0.413 0.2106,0.5382 0.119,0.1501 0.464,-0.1284 0.6318,-0.0351 0.9535,0.5299 1.8782,0.0124 1.3221,-1.0998 -0.1902,-0.3805 -0.0148,-0.2808 -0.3744,-0.2808 0,-0.9926 -0.0833,-0.6526 -0.7605,-1.2519 -0.286,-0.253 -0.3708,0.0196 -0.6084,0 -0.0142,-0.0011 -0.588,-0.256 -0.4212,-0.3393 0.1144,-0.0572 0.4168,0.0161 0.4914,-0.0585 -0.0215,-0.0071 -0.014,-0.0047 0,-0.0234l-0.468 -1.0998c-0.1702,-0.3999 -0.5254,-0.5626 -0.9711,-0.5967 -0.3743,-0.0287 -0.3994,-0.3049 -0.5967,-0.5499 -0.17,-0.2113 -0.8307,-0.2148 -0.8307,-0.6903 0.5396,0 0.7899,0.0984 1.3221,-0.0936 0.1474,-0.0532 0.427,0.8091 1.1349,0.5733 0.2832,-0.0944 0.5722,0.2326 0.7254,0.4212 0.2099,0.2582 0.3129,0.8025 0.6786,0.9243 0.4848,0.1616 0.209,0.6669 1.0296,0.6669 0.2423,0 0.3581,0.5238 0.4329,0.7254 0.1656,0.4466 0.2703,0.2481 0.4563,0.6201 0.2444,0.4888 0.2096,0.5574 0.7722,0.8073 0.3872,0.1719 1.0842,0.4185 1.5327,0.2925 0.4853,0 0.9618,0.1755 1.4391,0.1755 0,-0.1323 -0.802,-0.5043 -0.9594,-0.6435 -0.0934,-0.0827 -0.8851,-0.8232 -0.5148,-0.8658 0.9377,-0.1078 -0.5523,-2.0401 -0.1755,-2.5038 0.0544,-0.0669 0.5127,-0.3991 0.1872,-0.4797 0,-0.0377 -0.5237,-0.2018 -0.6201,-0.4914 -0.1604,-0.4813 -0.3237,-0.4603 -0.8658,-0.4914 -0.2324,-0.0133 -0.0936,-0.5811 -0.0936,-0.8307 0.295,0.0731 0.1781,0.5834 0.3627,0.7254 0.237,0.1825 0.5639,-0.2845 0.6552,-0.4329 0.0646,-0.1052 0.1404,0.4287 0.1404,0.5031 0,0.2452 0.0936,0.4929 0.0936,0.7605 0.1097,0.0271 0.6669,0.128 0.6669,0.2106 0,0.1961 -0.3676,0.477 0.0585,0.5616l0 0.0234c-0.0788,0 -0.1658,0.0702 -0.2457,0.0702 -0.0621,0.2506 0.5937,0.8456 0.8775,0.9828 0.2979,0.0738 0.0882,0.9743 0.2691,1.0647 0,0.1712 0.2027,0.2245 0.234,0.351 0.0662,0.0164 0.0977,0.1315 0.1521,0.1404 0.015,0.0605 0.1127,0.111 0.1287,0.1755 0.0298,0.0073 0.1323,0.1309 0.1404,0.1638 0.03,0.0042 0.0278,-0.0062 0.0351,0.0234 0.0214,0.0053 0.0181,0.002 0.0234,0.0234 0.0327,0.0081 0.0141,0.027 0.0468,0.0351l0.0117 0.0117c0.0091,0.0369 0.0497,0.0436 0.0585,0.0702 0.0213,0.0052 0.0255,0.0182 0.0468,0.0234 0.0037,0.015 0.008,0.0201 0.0117,0.0351 0.015,0.0037 0.0201,0.008 0.0351,0.0117 0.0053,0.0214 0.002,0.0181 0.0234,0.0234 0.0094,0.0381 0.0266,0.0094 0.0351,0.0351 0.042,0 0.088,0.0484 0.1287,0.0585 0.0217,0.0879 0.0725,0.1535 0.0936,0.2574 0.0087,0.0426 0.0441,0.2488 0.0702,0.2574 0.0081,0.0327 0.027,0.0141 0.0351,0.0468 0.0305,0 0.0425,0.0117 0.0702,0.0117 0.0034,0.0104 0.031,0.0546 0.0468,0.0585 0.0806,0.5687 -0.0117,1.1219 -0.0117,1.6965 0,0.5235 0.7707,1.1019 1.1583,1.3806 0.1434,0.1032 0.9356,0.3841 0.9711,0.4914 0.0216,0 0.1366,0.0587 0.1404,0.0702 0.0239,0 0.0519,0.0082 0.0585,-0.0117l0.0585 0 0.0117 -0.0117c0,-0.4269 -0.2808,-0.8232 -0.2808,-1.2519 0,-0.5246 -0.2931,-1.0215 -0.5382,-1.4625 -0.1758,-0.3165 -0.0954,-0.6695 -0.2808,-0.9711 -0.1051,-0.1708 -0.2553,-0.1809 -0.3276,-0.3978 -0.1293,-0.3882 -0.1879,-1.3916 -0.5499,-1.5678 -0.1713,-0.0833 -0.4623,-0.8578 -0.4446,-1.0413 0,-0.6581 -0.0339,-0.9101 -0.3042,-1.4508 -0.2465,-0.493 -0.3925,-0.7298 -0.4797,-1.2987 -0.0569,-0.3709 -0.3064,-0.4303 -0.4563,-0.702 -0.1888,-0.3424 -0.3609,-0.7337 -0.6201,-1.0413 -0.1401,-0.1664 0.1414,-0.2598 0.2106,-0.3861 0.1959,-0.3578 -0.2223,-1.5236 -0.2223,-2.0241 -0.2603,0.0862 -0.4929,0.3704 -0.3744,0.6786 0.0621,0.1613 0.2846,1.0919 -0.0117,0.7956 -0.1698,-0.1698 -0.3216,-0.5256 -0.5616,-0.585 0,0.3218 0.2657,0.5527 0.2925,0.8307 0.0156,0.1626 0.1247,0.825 -0.1872,0.3978 -0.2823,-0.3865 -0.5173,-0.8112 -0.8424,-1.17 -0.2225,-0.2454 -0.2125,-0.5518 -0.3978,-0.7371 -0.4183,-0.4183 0.4037,-0.4768 0.5265,-0.2925 0.5916,0.8873 0.4538,-0.6009 -0.234,-0.2925 -0.331,0.1483 -0.4745,-0.3356 -0.6786,-0.3861 0.017,-0.0057 0.0194,0.003 0.0351,0.0117 -0.3527,-0.2827 -0.6637,-0.7902 -0.702,-1.2519 -0.0306,-0.3698 -0.3122,-0.7009 -0.4095,-0.9945 -0.2152,0 -0.3849,0.1362 -0.5733,0.1989 -0.3097,0.1032 -0.2863,-0.0585 -0.5265,-0.0585 0,-0.2008 0.0494,-0.3481 0.0936,-0.5265 0.245,0 0.2975,0.3349 0.6201,0.234 0.2456,-0.0767 0.1575,-0.2201 0.3978,-0.2691 0.6853,-0.1398 0.3159,-0.2186 0.3159,-0.7371 0,-0.211 -0.0402,-0.4097 -0.1005,-0.6012l0 0 -16.7538 0.0054 -1.1772 0.0216 -0.3888 -0.0864 -2.6892 0.0324 -0.6156 0.162 -0.378 -0.162 -4.3308 -0.0216 -0.6608 0.285 -9.8084 -0.0217 -11.6312 0 -2.0398 0.0651 -1.9096 -0.1302 -2.4087 0.1085 -1.2803 0.1519 -1.9313 -0.1736 -4.4919 0.1302 -7.2183 -0.105 -21.3823 0.0833 -16.058 0.1953 -8.8102 -0.1302 -15.5155 -0.0868 -5.5118 -0.3038 -10.0254 -0.2387 -14.7053 -0.3963 -11.2437 -0.7371c-0.0373,-0.0279 -0.1631,-0.0117 -0.1872,-0.0117l-0.9243 -0.1638 0 0 -0.4797 1.0881c-0.0141,0.0567 -0.0272,0.1402 -0.0585,0.1872 0,0.047 -0.0117,0.0827 -0.0117,0.1287 -0.0505,0.0675 -0.0283,0.8474 0.0117,0.9009 0,1.102 0.1374,2.2436 -0.3978,3.2526 -0.11,0.2074 -0.3781,0.7257 -0.4095,0.9477 -0.083,0.083 -0.1347,0.1958 -0.2106,0.2925 -0.1146,0.1146 -0.3408,0.3366 -0.3627,0.4914l-0.0234 0.0234c-0.0724,0.5847 0.3627,1.056 0.3627,1.6029 0,0.9589 -0.4348,0.5991 -1.0296,0.5148 -1.0654,-1.0654 -2.7447,-0.4591 -3.4749,0.702 -0.8568,1.3622 -2.0213,2.5969 -2.8548,4.0014 -0.5844,0.7292 -0.6744,1.4283 -1.053,2.2347 -0.3924,0.8361 -0.9699,1.7446 -1.9656,1.8018 -0.5525,0.0318 -1.0362,0.1727 -1.5444,0.3627 -0.5788,-0.3469 -0.5463,-0.4081 -0.7605,-1.0647 -0.1142,-0.3499 -1.0575,-0.5368 -1.4157,-0.4329 -0.2096,-0.1307 -0.7673,-0.5265 -0.9945,-0.5265 -0.3275,0.3275 -1.0369,0.6723 -1.2753,1.0062 -0.5224,0.1306 -1.061,-0.098 -1.6029,0.1989 -0.55,0.3012 -1.3394,0.6769 -1.9539,0.8658 -1.4276,0.4391 -1.8648,2.5892 -2.7261,3.6855 -1.0036,0.6519 -1.7319,1.439 -2.8782,1.9071 -0.4555,0.1859 -1.5251,-0.0743 -1.8486,-0.3978 0,-0.8258 -0.1973,-1.7604 0.6201,-2.2113 0.5387,-0.2971 -1.0696,-1.3854 -1.3806,-1.4625l-1.638 0.9477c-0.5558,0.3216 -1.5103,1.2132 -2.106,1.287 -0.4382,0.6139 -0.9209,0.5998 -0.9477,1.521 -0.1804,0.4217 -0.4467,1.3125 -0.7722,1.638 -0.2095,0.2095 -1.2809,-0.9433 -1.9071,-0.8424 -0.2302,0.0371 -1.2466,0.5345 -1.2753,0.7371 -0.0434,0.0071 -0.0462,0.0701 -0.0819,0.0819 -0.1488,0.6005 1.2639,2.0922 0.0936,2.2581 -0.1545,0.27 -0.3042,0.2682 -0.3042,0.6669 0,0.2502 -0.019,0.6092 -0.2808,0.7254 -0.6412,0.2848 -0.7417,0.6981 -0.9828,1.3221 -0.1567,0.4054 -0.5873,0.4811 -0.7605,0.7839 -0.4226,0.0599 -0.4907,-0.0479 -0.8307,-0.2925 -0.307,-0.2207 -0.9577,-0.1502 -1.3221,-0.0819 -0.5072,-0.2536 -1.3263,0.2864 -1.6146,0.6903l-1.4742 0.1521c-0.3329,0.5819 -0.4746,1.4859 -1.2753,1.4859 -0.8946,0 -1.3663,-0.5869 -1.5912,0.5382 -0.1455,0.7277 -0.502,0.6186 -0.8424,1.1115 -0.4352,0.6304 -0.399,1.0956 -1.2051,0.6201 -0.4116,-0.2427 -0.6915,0.225 -0.9711,0.4446 -0.1732,0.3464 -1.0324,0.9529 -1.3689,1.1934 -0.3395,0.2428 -0.9933,0.3718 -1.3923,0.4212 -0.2077,0.291 -0.7436,0.6431 -1.0296,0.9126 -0.3101,0.2923 -0.6765,0.6883 -1.0413,0.9126 -0.5696,0.3504 -1.5517,0.5858 -2.0709,0.0234 -0.3132,-0.3391 -0.4618,-0.7093 -1.0062,-0.5733 -0.5549,0.1387 -1.4872,0.8289 -2.0358,0.3978 -0.7286,0 -1.2968,-0.0462 -1.989,0.2106 -0.3444,0.1277 -1.4082,0.3123 -1.6029,0.585 -0.0619,0.0087 -0.6864,0.4467 -0.7254,0.5148 -0.341,0.0975 -0.4904,0.3683 -0.9243,0.3627l-0.8892 -0.0117c-0.4919,0.4919 -0.795,1.1701 -1.2987,1.638 -0.4477,0.4157 -1.0764,0.5511 -1.4976,1.0296 -0.666,0.277 -1.0574,0.8316 -1.4391,1.404 -0.3414,0.5122 0.2085,1.056 0.0468,1.638 -0.1461,0.526 -0.4981,0.4523 -0.702,0.7839 -0.2998,0.4873 0.0056,1.0008 0.0351,1.5444 0.0506,0.9331 -0.23,1.2621 -1.0062,1.7199 -0.2948,0.1739 -0.955,0.3817 -1.17,0.5967l-0.0351 0c-0.0444,0.0444 -0.113,0.0752 -0.1638,0.1053 -0.3402,0.0281 -0.6246,0.1287 -0.9828,0.1287 -0.3478,0 -0.538,0.0209 -0.8658,0.1053 -0.4732,0.122 -0.9764,0.1664 -1.0647,-0.4563 -0.0351,-0.0175 -0.0996,-0.2058 -0.1404,-0.2574 -0.0351,-0.0442 -0.1522,-0.1404 -0.1638,-0.1872 -0.0246,-0.0048 -0.0252,-0.0035 -0.0351,-0.0234 -0.4546,-0.1126 -0.9575,0.3167 -1.2402,0.6318 -0.1954,0.2179 -1.0195,0.7999 -1.0764,1.0296 -0.2455,0.1227 -0.216,2.0367 -0.3161,2.4207l-0.8071 6.4011 0 0 21.5788 -0.027 0.4604 -0.234 15.5061 -0.2421 0 0 9.6174 -2.9367c0.197,-0.0177 0.2255,-0.0836 0.4212,-0.0351 0.2448,1.2325 1.2843,0.3229 1.6497,-0.3159 0.2337,-0.0331 0.4614,-0.2211 0.7839,-0.2457 0.2537,-0.0194 0.5086,-0.3229 0.4095,-0.5733 -0.2937,-0.7426 0.8994,-0.2655 1.2285,-0.3159 0.3561,-0.0546 0.7073,-0.4093 1.0647,-0.5031l1.6029 -0.4212c0.0194,-0.0339 0.1158,-0.1314 0.1521,-0.1521 0.0338,-0.2384 0.1949,-0.5848 0.4797,-0.468 0.4521,0.1853 0.3611,0.3026 0.9009,0.0936 0.2109,-0.1229 0.4546,-0.0754 0.6435,-0.1755 0.1429,-0.0758 0.258,-0.2091 0.3861,-0.2691 0.144,-0.0676 0.6059,-0.4448 0.6786,-0.3627 0.1083,0.1225 0.0454,0.4356 0.117,0.5967 0.1059,0.2386 0.6319,-0.2751 0.7137,-0.351 0.2692,-0.2501 0.2238,-0.7903 0.4095,-0.9243 0.1595,-0.1152 0.3388,-0.15 0.4914,-0.2808 0.1163,-0.0998 0.3477,-0.4918 0.4446,-0.1755 0.0947,0.3089 0.2739,0.7097 0.3159,1.0062 0.0163,0.0081 0.0387,0.0305 0.0468,0.0468 0.1107,0.0274 0.1109,-0.0578 0.1989,-0.0702 0.0984,-0.172 0.3451,-0.3015 0.4329,-0.4329 0.5521,0 0.686,0.4058 1.2753,0.2925 0.2749,-0.0529 1.1548,-0.1393 1.3358,-0.2717l37.4146 1.6523 0.3744 0.8775 0.3861 0.4446c0.0476,0.1922 -0.061,0.2787 -0.2223,0.3861 -0.1552,0.1035 -0.2494,0.2283 -0.3393,0.3744 -0.2329,0.3788 -0.3276,0.7751 -0.3276,1.2168 0,0.3119 0.1916,0.5579 0.4734,0.6957l3.572 -2.3265 4.559 6.3685 -0.3724 4.151 34.6938 0.6154 34.8556 35.704 0 0zm56.2772 -59.2715l-0.0468 -0.0585m33.2514 -18.1701c-0.1014,0.1885 -0.6814,0.9128 -0.7137,0.3159 -0.0197,-0.363 0.191,-0.6956 0.1053,-1.0413 -0.3655,-0.0905 -0.6594,-0.1425 -1.0062,-0.3159 -0.3628,-0.1813 -0.6321,-0.1483 -0.9945,-0.0585 -0.069,0.2785 0.5541,0.6287 0.6903,0.8775 0.1828,0.3336 0.0509,0.4991 0.5031,0.6669 0.4865,0.1804 0.9243,1.0781 0.9243,1.5678 0,0.4143 -0.1316,0.8607 0.117,1.2051 0.1155,0.1599 0.3451,0.0702 0.4914,0.0117 0.2484,-0.0992 0.8307,0.0953 0.8307,-0.2925 0,-0.2384 -0.2615,-0.4451 -0.1638,-0.7137 0.1353,-0.3721 -0.1196,-0.685 -0.2574,-1.0296 -0.075,-0.1878 -0.3744,-0.7638 -0.3744,-0.9243l-0.1521 -0.2691zm0.1989 25.9389c0.4153,-0.4153 0.5404,-1.0489 1.2051,-1.0998 0.1813,-0.0139 0.3549,-0.181 0.5265,-0.234 0.3015,-0.0933 0.6441,-0.1802 0.9711,-0.1989 0.1553,-0.0089 0.7291,-0.2567 0.7956,0.0117 0.0461,0.0104 0.0912,0.0236 0.1367,0.0364 0.1782,-0.2291 0.232,-1.0044 0.232,-1.2992 0,-0.435 -0.1568,-0.8929 -0.1044,-1.3166 0.0338,-0.2741 0.1464,-0.5612 0.1682,-0.8236 0.0258,-0.0387 0.0314,-0.0816 0.0406,-0.1276 0.0425,-0.0935 0.2456,-0.3569 0.3306,-0.4176 0.0268,-0.0537 0.0367,-0.1387 0.0696,-0.1798 0,-1.1819 0.5642,-2.4094 0.3538,-3.6018 0.0835,-0.3223 0.0151,-0.7935 0,-1.131 -0.0114,-0.2539 -0.1045,-0.5855 0.0116,-0.8178 0.256,-0.16 0.2679,-0.6154 0.319,-0.8874 0.0856,-0.456 0.145,-0.8615 0.145,-1.3282 0.0746,-0.0839 0.0095,-1.6876 -0.145,-1.798 -0.0193,-0.0516 -0.0841,-0.1782 -0.116,-0.2146 -0.0151,-0.1367 -0.0733,-0.3175 -0.0986,-0.464 -0.0269,-0.1564 -0.0116,-0.3366 -0.0116,-0.4988 0,-0.3224 -0.0973,-0.54 -0.1334,-0.8294 -0.0466,-0.0533 -0.0626,-0.1417 -0.1102,-0.1972 -0.0085,-0.0685 -0.0216,-0.0605 -0.0058,-0.145 0,-0.2658 -0.1095,-0.6827 -0.1914,-0.9396 -0.0961,-0.3016 -0.2375,-0.6525 -0.3944,-0.9338 -0.0742,-0.1329 -0.1455,-0.4239 -0.2494,-0.5104 -0.0051,-0.0415 -0.0529,-0.1199 -0.0696,-0.1566 -0.0078,-0.006 -0.0324,-0.0328 -0.0406,-0.0348 -0.0076,-0.0532 -0.1005,-0.1936 -0.1276,-0.2552 -0.0466,-0.1055 -0.0348,-0.2372 -0.0348,-0.3538l0.0116 -0.0116 0.029 0c0.4169,0.4169 0.5435,0.853 0.8004,1.3688 0.2668,0.5354 0.4069,1.204 0.551,1.7806 -0.0072,0.0775 0.0058,0.1443 0.0058,0.2204 0.1047,0.1745 0.1972,0.6277 0.2436,0.8352 0.2346,1.0487 0.3538,2.1699 0.3538,3.2538 0.0499,0.5333 -0.0432,1.1399 -0.0928,1.6704 -0.0394,0.4224 -0.0848,1.1027 -0.29,1.479 -0.0037,0.03 -0.0149,0.0511 -0.0174,0.0812 -0.0102,0.0204 -0.013,0.0318 -0.0232,0.0522 -0.0186,0.2418 -0.0638,0.4553 -0.0638,0.7076 -0.0331,0.1987 0.019,0.5215 -0.0464,0.696l0 0.0928c-0.0149,0.0397 -0.0058,0.1069 -0.0058,0.1508 -0.008,0.0215 -0.0058,0.0406 -0.0058,0.0638 -0.1108,0.2957 -0.105,0.7998 -0.1392,1.1252l-0.1276 1.2122 -0.0116 0.029c0,0.0333 -0.0091,0.0602 -0.0116,0.0928 -0.0214,0.0483 -0.0134,0.1026 -0.0348,0.1508 -0.0054,0.0594 -0.0348,0.1202 -0.0348,0.1798l-0.0638 0.1856c-0.0092,0.1112 -0.0729,0.2443 -0.1218,0.3422l-0.1682 0.9106 -0.145 1.2876c-0.0356,0.3173 0.0026,0.9123 -0.1624,1.1716 -0.0074,0.0818 -0.0602,0.1646 -0.0812,0.2436 -0.1033,0.1162 -0.1086,0.3174 -0.2146,0.4234 -0.0445,0.4302 -0.1545,0.8705 -0.1545,1.2903 -0.023,0 -0.0268,-0.0068 -0.0468,-0.0117 -0.0873,-0.3525 -0.8937,-0.6681 -1.2168,-0.7488 -0.8152,-0.2038 -1.3226,0.1187 -1.9773,0.4797 -0.6958,0.3838 -1.5696,0.4653 -2.2581,0.9243 -0.2879,0.1718 -0.5788,0.2363 -0.8831,0.3572 -0.1061,0.0422 -0.7946,0.3034 -0.7946,0.1102 0.2465,-0.2465 0.7717,-0.2475 1.0846,-0.4466l0.638 -0.406c0.1698,-0.1081 0.247,-0.3274 0.4466,-0.377 0.092,-0.0229 0.1874,0.0426 0.2726,0.058 0.4074,0.0741 0.6998,-0.11 1.073,-0.1566l0.2104 -0.122zm-11.1028 5.835l0.8816 -0.87c0.229,-0.226 0.538,-0.343 0.783,-0.5336l0.0522 -0.0174c0.2003,-0.1753 0.6204,-0.34 0.8642,-0.4756 0.2233,-0.1243 0.6761,-0.3192 0.8062,-0.5336l1.0266 -0.5568c0.2962,-0.1606 0.6177,-0.3903 0.9454,-0.4756 0.2317,-0.0604 1.8543,-0.5949 1.6182,-0.9222 -0.0465,-0.0646 -0.2704,-0.1324 -0.29,-0.1914 0,0.1181 0.1563,0.3218 -0.0058,0.4002l-0.5394 0.261c-0.3097,0.1498 -0.7039,0.3685 -1.0382,0.435 -0.1337,0.0265 -0.547,0.2581 -0.6148,0.2436 -0.1677,0.175 -0.6288,0.2774 -0.8584,0.406l-1.3978 0.783 -0.6786 0.4234c-0.047,0.0293 -0.3818,0.234 -0.406,0.1856 -0.1519,-0.0217 -0.6264,-0.4524 -0.8178,-0.261 -0.0284,0.313 0.1251,0.5377 -0.0174,0.841 -0.1359,0.2891 -0.4533,0.5756 -0.638,0.8526 -0.0271,0.0306 -0.0496,0.0548 -0.0696,0.087 -0.0149,0.0242 -0.0271,0.0655 -0.0348,0.0928 -0.0072,0.0252 -0.0058,0.0486 -0.0058,0.0754 0.0099,0.0066 0.0008,0.0086 0.0116,0.0174 0.0066,0.0055 0.0359,0.0195 0.0464,0.0232 0.0052,0.0018 0.0237,0.0007 0.029,0 0.0144,-0.0021 0.0526,-0.0297 0.0696,-0.0406 0.0324,-0.0206 0.0641,-0.0427 0.0986,-0.058l0.1798 -0.1914zm-16.6866 18.183c0,-0.2528 -0.1942,-0.3987 -0.2958,-0.6148 -0.1502,-0.3196 -0.23,-0.5355 -0.1392,-0.899 0.0837,0 0.0836,0.444 0.1334,0.522 0.0825,0.129 0.3715,0.1169 0.4118,0.2378 0.0228,0 0.0276,-0.0185 0.0464,-0.0232 0.0105,-0.0737 0.1472,-0.2277 0.1856,-0.3132l0.1798 -0.4002 0.4466 -0.8352 0.9338 -1.4732c0.4589,-0.5928 0.937,-1.2838 1.305,-1.9256 0.3039,-0.5298 0.9073,-0.9193 1.2006,-1.4326 0.0243,-0.0139 0.037,-0.0372 0.058,-0.0522 0.0295,-0.0688 0.097,-0.1488 0.145,-0.2088 0.0101,-0.0812 0.1488,-0.2128 0.1972,-0.2842l0.087 -0.0696c0.2489,-0.3595 0.5826,-0.6605 0.812,-1.0324 0.1992,-0.3231 0.5599,-0.5647 0.7424,-0.8932 0.2498,-0.1041 0.7063,-0.584 0.9222,-0.7946l0.7192 -0.7018c0.1426,-0.1392 0.3948,-0.279 0.4872,-0.4408 0.2564,-0.2564 0.7519,-0.6105 0.9106,-0.928 0.0606,-0.0441 0.1591,-0.1326 0.1914,-0.1972 0.1581,-0.1186 0.3578,-0.3676 0.4872,-0.522 0.1432,-0.1707 0.373,-0.3027 0.4988,-0.4756 0.1409,-0.064 0.4949,-0.3596 0.58,-0.4872 0.1394,-0.0774 0.3964,-0.2904 0.4872,-0.4176l0.0232 -0.0116c0.2081,-0.2914 0.5789,-0.587 0.725,-0.9106 0.0431,-0.0269 0.0779,-0.0616 0.116,-0.0928 0.2122,-0.3065 0.5977,-0.6474 0.8932,-0.8758 0.3609,-0.2788 0.7067,-0.6329 1.1078,-0.8468 0.027,-0.027 0.0554,-0.0457 0.087,-0.0696 0.0505,-0.2862 -0.0552,-0.6956 0.0406,-0.9512l0.0174 -0.0116c0.1915,0.0478 0.6264,0.6121 0.6264,0.812 0,0.1895 -0.3649,0.3465 -0.5104,0.4176 -0.3608,0.1766 -0.6658,0.5215 -0.9744,0.7714 -0.393,0.3181 -0.7808,0.6242 -1.1426,0.986 -0.0303,0.0673 -0.2918,0.3186 -0.3654,0.3712l-0.0116 0.029c-0.3018,0.1886 -0.5244,0.5049 -0.783,0.7366l-1.2818 1.1484c-0.2252,0.2017 -0.5238,0.5026 -0.6844,0.754 -0.1834,0.2869 -0.5187,0.4951 -0.7366,0.7656l-0.7424 0.6264c-0.1666,0.1405 -0.5331,0.6055 -0.725,0.6438 -0.138,0.1932 -0.3949,0.3572 -0.5684,0.5452l-0.8352 0.9048 -0.957 1.2238c-0.087,0.0715 -0.2647,0.2646 -0.319,0.3596 -0.0258,0.0129 -0.0335,0.0324 -0.058,0.0464 -0.0175,0.035 -0.0408,0.073 -0.0754,0.0928l-0.0116 0.0232c-0.1524,0.0871 -0.3571,0.4897 -0.4872,0.6322 -0.7318,0.801 -1.2645,1.7819 -1.885,2.6738 -0.0359,0.1571 -0.2517,0.2787 -0.2668,0.4002 -0.1246,0.1038 -0.3659,0.5717 -0.4582,0.7308 -0.276,0.4761 -0.6406,0.8645 -0.8584,1.3862 -0.097,0.2322 -0.231,0.4484 -0.3016,0.6902l-0.1102 0.377c-0.0307,0.1053 0.0093,0.2353 -0.029,0.3248l-0.1914 -0.0406zm-3.6482 -3.4742c-0.6108,-0.6108 0.5336,-0.1275 0.7134,-0.0464l2.0938 0.9454c0.2845,0.1284 1.4963,0.5414 1.1368,1.0208l-0.0116 0c-0.0073,0.0219 -0.1248,-0.0294 -0.145,-0.0406 -0.1364,-0.0762 -0.1909,-0.2287 -0.319,-0.3248 -0.5369,-0.4032 -0.9581,-0.7294 -1.6182,-0.957 -0.538,-0.1854 -1.1938,-0.2683 -1.6994,-0.493l-0.1508 -0.1044zm2.7608 -1.0556c-0.1125,-0.0346 -0.4141,-0.2307 -0.4988,-0.1624 -0.1491,0.1204 -0.0389,0.3945 0.0522,0.522 0.1149,0.1606 0.2831,0.2233 0.464,0.2842 0.2641,0.0888 0.5127,0.2338 0.783,0.3132 0.1169,0.0344 0.3828,0.1879 0.4872,0.1044 0.0136,-0.1095 0.0702,-0.264 -0.0058,-0.3596 -0.0891,-0.1119 -0.4693,-0.1242 -0.6206,-0.174 -0.1237,-0.0408 -0.2456,-0.059 -0.3654,-0.116 -0.1218,-0.0581 -0.1651,-0.209 -0.2668,-0.2726l-0.029 -0.1392zm1.4732 0c-0.1363,0 -0.2734,-0.0077 -0.406,-0.0406 -0.0673,-0.0167 -0.1411,-0.039 -0.2088,-0.0522 -0.0419,-0.0081 -0.1898,-0.0335 -0.1334,0.058 0.0676,0.1094 0.2692,0.1754 0.3886,0.2146 0.065,0.0214 0.1194,0.0528 0.1798,0.0812 0.0266,0.0124 0.1161,0.0349 0.1276,0.0522l0.029 0c0.0267,-0.0428 0.0592,-0.0994 0.0638,-0.1508l-0.0406 -0.1624zm-13.8562 1.3108c0.4028,-0.0212 1.4232,-0.1493 1.7458,-0.4002 0.1515,-0.0137 0.3679,-0.1337 0.5104,-0.1972 0.1554,-0.0694 0.3928,-0.018 0.5568,-0.0058 0.2869,0.0215 0.8358,-0.048 1.0846,-0.1972l0.0232 0 0.0174 -0.0058c0.0674,-0.0539 0.2243,-0.1267 0.3074,-0.1682 0.4266,-0.1066 0.8136,-0.0959 1.2586,-0.0406 0.3562,0.0442 0.7377,0.081 1.0962,0.0696 0.2252,-0.0072 0.2895,-0.1571 0.4582,-0.2436 0.0387,-0.0199 0.5535,0.2319 0.7192,0.2378 0.4227,0.0153 0.3454,0.0512 0.4408,-0.3306 0.2107,0 0.2417,0.0876 0.3654,0.232 0.1115,0.1303 0.8685,0.448 0.2436,0.406l-1.6414 -0.1102c-0.0828,0.031 -0.1557,0.0232 -0.2436,0.0232 -0.0256,0.0096 -0.0498,0.002 -0.0754,0.0116 -0.4185,0 -0.8275,-0.0707 -1.247,-0.0406l-0.725 0.0522c-0.2414,0.0173 -0.508,0.0638 -0.7424,0.0638l-0.8816 0.2146c-0.2169,0.0813 -0.6706,0.0812 -0.9106,0.0812 -0.0248,0.0198 -0.0549,0.0138 -0.0812,0.0348 -0.15,0 -0.4119,0.138 -0.58,0.1682 -0.3622,0.065 -0.7323,0.1597 -1.102,0.174 -0.3239,0.0126 -0.9942,0.0737 -1.276,0.2146 -0.4826,0.2715 -1.1481,0.2366 -1.6936,0.406l-0.9338 0.29c-0.1136,0.0352 -0.2301,0.0634 -0.3422,0.1102 -0.0469,0.0195 -0.2752,0.1456 -0.29,0.116l-0.0174 0c-0.0588,-0.0588 -0.2436,-0.2231 -0.2436,-0.2958 0.0544,-0.0408 0.3959,-0.0597 0.4872,-0.087 0.6391,-0.1909 1.2264,-0.4287 1.8908,-0.5104 0.204,-0.0251 1.3463,-0.3835 1.4442,-0.3248l0.377 0.0522zm-6.1596 1.8328c0.1129,-0.0494 0.2162,-0.1337 0.3306,-0.1914l0.5974 -0.3016c0.1342,-0.0677 0.3506,-0.1624 0.493,-0.1624l0.0058 0.0058c0,0.0236 0.0228,0.09 -0.0116,0.0986 -0.0119,0.0479 -0.215,0.1849 -0.261,0.2146 -0.1176,0.0757 -0.272,0.1405 -0.4002,0.1972 -0.1593,0.0706 -0.3624,0.2115 -0.5336,0.232 -0.1253,0.0149 -0.2747,0.0812 -0.4002,0.0812l0 -0.0406 0.1798 -0.1334zm-1.8676 1.0788c0.0543,-0.0194 0.0933,-0.0699 0.1392,-0.1044 0.2142,-0.1607 0.4973,-0.2512 0.725,-0.3944 0.0954,-0.0601 0.1959,-0.0987 0.2958,-0.1566 0.0682,-0.0394 0.1528,-0.0986 0.232,-0.0986 0,0.0716 -0.3148,0.223 -0.377,0.2668 -0.1058,0.0747 -0.2018,0.1504 -0.319,0.2088 -0.1491,0.0742 -0.3037,0.1362 -0.4524,0.2146 -0.1039,0.0549 -0.2492,0.1914 -0.3654,0.1914l0.1218 -0.1276zm37.5117 -74.1473l1.1675 -0.0064 0 0c0.1145,0.1847 0.265,0.3554 0.4277,0.3554 0.0486,-0.0971 0.0929,-0.2563 0.1031,-0.3894l0 0 1.3123 -0.0091 0 0c0.0418,0.1822 0.0989,0.3586 0.1992,0.5155 0.2242,0.351 0.0117,1.0911 0.0117,1.4742 0,0.2429 0.1273,0.4446 0.3393,0.5148 0,0.1739 -0.9823,0.3797 -1.0764,0 -0.3511,-0.0697 -1.0576,-0.5043 -1.2402,0.0468 -0.032,0 -0.2243,-0.2349 -0.3276,-0.2808 -0.2964,-0.1315 -0.0373,-0.3097 0.0585,-0.5616 0.0287,-0.0754 0.3042,-0.5968 0.3393,-0.6084l0 -0.0234c-0.0294,0 -0.0861,0.0124 -0.0936,0.0351 -0.5231,0 -1.1451,-0.5262 -1.2208,-1.0627l0 0zm3.4255 -0.0762l1.1781 0.0024 0 0c0.0227,0.2335 0.0336,0.4687 0.0336,0.6919 0,0.8201 0.457,1.5726 0.5265,2.4102 0.0662,0.7968 0.5733,1.5643 0.5733,2.34 -0.1674,0.8649 0.4512,1.974 0.5499,2.8314 0.1195,1.0388 0.7484,1.9081 0.8892,2.9016 0.0508,0.0254 0.7839,2.0062 0.7839,2.1528l0.0117 0.0117c0,0.0485 0.0145,0.3443 0.0702,0.3627 0,0.2522 0.3039,0.8738 0.3861,1.17 0.0871,0.3134 0.4212,0.8597 0.4212,1.1583 0.0112,0.0074 0.0298,0.0487 0.0351,0.0702 0.0983,0.0325 0.156,0.5402 0.2691,0.5967 0.037,0.2615 0.4446,0.5485 0.4446,0.8658 0.0602,0.0402 0.8127,1.5236 0.8424,1.6731l0.5967 1.0881c0.2638,0.481 0.5576,0.9631 0.7956,1.4391 -0.0967,0.1934 0.045,0.2001 0.0819,0.3861 0.0171,0.0056 0.2574,0.5042 0.2574,0.5499 0.0252,0.0083 0.0585,0.1186 0.0585,0.1521 0.2274,0.152 0.3139,1.4118 0.6435,1.521 0.0054,0.0275 0.0209,0.0638 0.0468,0.0702 0.1012,0.7141 0.6736,1.4943 0.9009,2.1762 0.1021,0.3066 0.2452,0.7842 0.4095,1.0413 0.1766,0.2766 0.5616,0.9089 0.5616,1.2519 0.217,0.2583 0.2223,0.4154 0.2223,0.7137 -0.0155,0.0051 -0.03,0.0196 -0.0351,0.0351l-0.0702 0c-0.0066,0.0201 -0.0454,0.0117 -0.0702,0.0117 -0.0721,-0.2175 -0.465,-0.5556 -0.5967,-0.819 -0.1327,-0.2656 -0.3688,-0.5643 -0.5382,-0.8073 -0.1753,-0.2517 -0.0809,-0.5957 -0.3159,-0.8307 -0.3955,-0.3955 -0.5103,-1.015 -0.7371,-1.521 -0.1715,-0.3824 0.0132,-0.8531 -0.1872,-1.2168l-0.819 -1.4859c-0.1905,-0.3459 -0.3184,-0.4041 -0.6669,-0.5382 -0.3542,-0.1362 -0.3115,-0.4753 -0.5967,-0.7605 0.0213,-0.2424 -0.0872,-0.3191 -0.1404,-0.4797 -0.0365,0 -0.0688,-0.0234 -0.1053,-0.0234 -0.0056,-0.0169 -0.1002,-0.0468 -0.1287,-0.0468 -0.0287,0.0866 -0.1786,0.3276 -0.3159,0.3276 -0.1329,-0.5363 -0.9009,-0.1756 -0.9009,-0.9009 0,-0.1935 -0.1454,-0.6149 0.1755,-0.4914 0.1673,0.0643 0.5529,0.2538 0.6084,0.4212 0.1136,-0.0281 -0.11,-0.4001 -0.1287,-0.4563 -0.032,-0.0965 0.0702,-0.2663 0.0702,-0.4095 0.0234,0 0.5095,0.6451 0.5265,0.7137 0.0246,0.0048 0.0252,0.0035 0.0351,0.0234 0.256,0 -0.3024,-1.257 -0.3627,-1.4391 -0.2958,0.0733 -0.6572,0.7605 -1.0296,0.7605 -0.0094,0.0286 -0.0257,-0.0052 -0.0351,0.0234 -0.0228,-0.0075 -0.0006,-0.0042 -0.0234,-0.0117 0,-0.784 -0.198,-1.5411 -0.2574,-2.3166 -0.052,-0.6783 -0.2808,-1.3996 -0.2808,-2.0358 -0.0498,-0.0165 -0.1538,-0.8131 -0.2457,-0.936l-0.1755 -0.9477c-0.0466,-0.2524 -0.3042,-0.7148 -0.3042,-0.9243 -0.012,-0.004 -0.0305,-0.0514 -0.0351,-0.0702l-0.0117 -0.0117c-0.1471,-0.0364 -0.2943,0.0199 -0.3744,-0.1404 -0.5203,-0.1289 -0.4597,-1.1419 -0.5499,-1.521 -0.0381,-0.1601 -0.005,-0.7133 -0.1404,-0.8073 -0.0382,-0.0266 -0.5142,-0.0411 -0.6318,-0.0702 -0.0079,-0.032 -0.0351,-0.0326 -0.0351,-0.0702 -0.0397,-0.0265 -0.0551,-0.1948 0,-0.2223 0.0588,-0.4149 0.3627,-0.7314 0.3627,-1.2285 0,-0.2627 -0.0406,-0.3955 -0.1404,-0.6201 -0.0552,-0.1245 -0.1697,-0.7469 -0.1755,-0.7488 -0.2418,0.0468 -0.2036,-0.0835 -0.3861,-0.1287 0,-0.2816 0.0468,-0.6123 0.0468,-0.9243 0,-0.3229 -0.1287,-0.6663 -0.1287,-0.9828 -0.1679,-0.0556 -0.3455,-0.19 -0.4095,-0.3744 -0.1239,-0.3564 -0.9861,0.2222 -0.819,-0.5967 0.0303,-0.1485 0.0727,-0.2962 0.0234,-0.4446 -0.0434,-0.1303 -0.2691,-0.2054 -0.2691,-0.3276 0,-0.2633 0.3727,-0.4209 0.2574,-0.702 -0.0922,-0.2251 -0.0421,-0.3742 0.1053,-0.5616 0.0911,-0.116 0.0981,-0.7943 0.0702,-0.7488 -0.1116,0.1813 -0.4252,0.1404 -0.585,0.1404 -0.006,-0.0183 -0.0278,-0.0288 -0.0351,-0.0585l-0.0234 0c-0.0834,-0.2753 -0.1008,-0.8825 -0.0534,-1.3261l0 0z"/>
 </g>
</svg>
