<?xml version="1.0" encoding="UTF-8"?>
<!DOCTYPE svg PUBLIC "-//W3C//DTD SVG 1.1//EN" "http://www.w3.org/Graphics/SVG/1.1/DTD/svg11.dtd">
<!-- Creator: CorelDRAW -->
<svg xmlns="http://www.w3.org/2000/svg" xml:space="preserve" width="297mm" height="210mm" style="shape-rendering:geometricPrecision; text-rendering:geometricPrecision; image-rendering:optimizeQuality; fill-rule:evenodd; clip-rule:evenodd"
viewBox="0 0 297 210"
 xmlns:xlink="http://www.w3.org/1999/xlink">
 <defs>
  <style type="text/css">
   <![CDATA[
    .str2 {stroke:#2F3133;stroke-width:0.1}
    .str1 {stroke:black;stroke-width:0.1;stroke-opacity:0.501961}
    .str0 {stroke:black;stroke-width:0.1}
    .str3 {stroke:black;stroke-width:0.5}
    .fil5 {fill:none}
    .fil0 {fill:white}
    .fil2 {fill:#1F1A17;fill-rule:nonzero}
    .fil3 {fill:#C2C1C1;fill-rule:nonzero}
    .fil4 {fill:white;fill-rule:nonzero}
    .fil6 {fill:black;fill-rule:nonzero}
    .fil1 {fill:white;fill-rule:nonzero;fill-opacity:0.501961}
   ]]>
  </style>
 </defs>
 <g id="Plan_x0020_1">
  <metadata id="CorelCorpID_0Corel-Layer"/>
  <path class="fil0 str0" d="M31.4745 173.245l53.546 0 1.2472 0.3521 6.5843 0 5.2093 -0.1521 23.9214 -0.15 20.8653 0 16.1095 0.137 22.4654 0.1927 14.1241 -0.0282 81.4175 0.2098 0 0c0.0087,-0.0368 0.0176,-0.0739 0.0264,-0.1111 0.2506,-1.059 -0.5846,-1.6837 -0.3302,-2.7573 0.154,-0.6497 -0.1887,-1.039 -0.1887,-1.6701 0,-0.2911 0.1768,-0.4214 0.2516,-0.6617 0.0095,-0.0306 0.0314,0.0163 0.0314,-0.0158 0,-0.0105 0,-0.021 0,-0.0315 0,-0.0982 0.2114,-0.3318 0.2201,-0.3939 0.0561,-0.4005 0.149,-0.9346 0.2044,-1.3865 0.0479,-0.3905 0.0886,-1.0121 0.0315,-1.4023 -0.0524,-0.3586 -0.2883,-0.4789 -0.3931,-0.8193 -0.1914,-0.6218 -0.1806,-1.4668 -0.3145,-2.1112 -0.0112,-0.0539 -0.0036,-0.0348 -0.0471,-0.0631 -0.5685,-0.369 -0.629,-1.8952 -0.629,-2.5051 0,-0.8939 0.0827,-1.6385 -0.0142,-2.5175 -0.0102,-0.0932 0.0096,-0.1972 -0.0329,-0.2871 -0.0216,-0.0456 -0.1261,-0.1443 -0.1415,-0.189 -0.1412,-0.4089 0.3859,-1.8807 -0.0944,-2.1586 -0.0406,-0.0234 -0.0343,-0.0786 -0.0629,-0.1103 -0.0226,-0.0249 -0.0181,-0.0247 -0.0472,-0.0315 -0.2549,-0.0594 -0.4331,-0.3165 -0.4559,-0.5672 -0.0026,-0.0291 -0.0256,-0.0365 -0.0472,-0.063 -0.0271,-0.0334 -0.0425,-0.0728 -0.0786,-0.0788 -0.7527,-0.126 -0.662,-0.5909 -0.8805,-1.1974 -0.2189,-0.6079 -0.8023,-1.4041 -1.3051,-1.875 -0.2114,-0.1979 -0.3421,-0.6211 -0.4559,-0.8193 -0.0432,-0.0754 -0.0706,-0.5129 -0.1573,-0.5514 -0.4009,-0.1779 -0.0849,-1.3575 -0.3459,-1.5441 -0.0628,-0.0448 -0.1889,-0.0966 -0.2201,-0.1103 -0.0578,-0.0253 -0.091,-0.0332 -0.0943,-0.0788 -0.0422,-0.5777 -0.2534,-0.8137 -0.1101,-1.418 0.1108,-0.4669 -0.2359,-0.9074 -0.2359,-1.4495 0,-0.2456 -0.1184,-0.5322 -0.2673,-0.8035 -0.2112,-0.3845 0.0956,-0.5379 -0.0471,-0.9769 -0.0119,-0.0367 -0.7195,-1.2948 -0.739,-1.4653 -0.063,-0.55 -0.5205,-1.5151 -0.7547,-2.0572 -0.02,-0.0465 -0.0471,-0.0926 -0.0551,-0.1418 -0.0483,-0.2964 0.1168,-0.2906 0.173,-0.5199 0.0471,-0.1918 -0.0497,-0.3781 -0.0079,-0.5672 0.1065,-0.4818 0.5315,-0.3859 0.3302,-1.0162 -0.0999,-0.3127 -0.1377,-0.6335 -0.0157,-0.9532 0.1633,-0.4281 0.0786,-0.7902 0.0786,-1.2368 0,-0.2396 0.1058,-0.4463 0.0944,-0.6766 -0.0187,-0.3796 -0.1121,-0.7289 -0.2831,-1.0714 -0.1244,-0.2494 -0.3284,-0.5629 -0.3459,-0.835 -0.0308,-0.4776 0.1558,-0.9682 0.3931,-1.355 0.5361,-0.8741 0.1452,-1.3418 0.4403,-2.1901 0.1003,-0.2884 0.3301,-0.1885 0.3301,-0.5829 0,-0.5457 -0.1853,-0.5576 0.1831,-1.0697 0.1228,-0.1708 0.354,-1.3784 -0.1521,-1.2753 -0.2455,0.05 -0.7527,0.8871 -0.8541,0.2574 -0.034,-0.2116 -0.0331,-0.5396 -0.1755,-0.7488 -0.1595,-0.2345 -0.0483,-0.8055 -0.3042,-0.9477 -0.4953,-0.2751 -0.5082,-0.2545 -0.4446,-0.9477 0.0352,-0.3837 0.1896,-0.5207 -0.0117,-0.7956 -0.1501,-0.2048 -0.5733,-0.042 -0.5733,-0.3627 0,-0.4051 0.0779,-0.4477 0.351,-0.6903 0.5001,-0.4442 0.2858,-1.0857 0.0468,-1.6263 -0.1285,-0.2906 0.0092,-0.7801 -0.0117,-1.1115 -0.0281,-0.4472 0.3761,-1.3571 -0.0234,-1.6614 -0.4759,-0.3624 -0.1138,-0.9409 -0.3627,-1.3923 -0.1985,-0.3599 0.1989,-0.642 0.1989,-1.0062 0,-0.2166 -0.0126,-0.4461 0.0234,-0.6552 0.0745,-0.4332 -0.8752,-0.945 -0.1755,-1.3338 0.3063,-0.1701 -0.2454,-0.7773 -0.234,-1.1349 0.0094,-0.2942 0.1638,-0.5683 0.1638,-0.8541 0,-0.2597 -0.2399,-0.2957 -0.1404,-0.7137 0.133,-0.559 -0.0968,-1.0403 0.1404,-1.5561 0.1236,-0.2686 0.1118,-0.5537 -0.0234,-0.819 -0.2782,-0.5462 -0.6875,-0.8597 -0.5733,-1.6029 0.0893,-0.581 0.2948,-1.2524 0.2691,-1.8369 -0.024,-0.5476 -0.0129,-1.1177 -0.0819,-1.6497 -0.0699,-0.5384 -0.7382,-0.4874 -0.3978,-1.0647 0.1665,-0.2822 0.0276,-0.5108 -0.0117,-0.8073 -0.0613,-0.4624 0.2816,-0.9001 -0.0936,-1.2753 -0.2114,-0.2114 0.057,-0.3211 0.117,-0.5616 0.059,-0.2368 0.0725,-0.5797 0.1989,-0.7839 0.3433,-0.5547 -0.248,-0.2756 -0.4914,-0.5031 -0.1358,-0.1268 0.0308,-0.3089 0.0351,-0.5148 0.0018,-0.0886 -0.0527,-0.5041 0.0117,-0.5733 0.0724,-0.0776 0.4003,0.0091 0.4914,-0.0468 0.1296,-0.0797 -0.1342,-0.304 -0.1872,-0.3393 -0.427,-0.2845 0.0293,-0.515 0.1287,-0.7371 0.0955,-0.2132 -0.3896,-0.1446 -0.468,-0.1989 -0.06,-0.0417 0.2719,-0.5758 0.3042,-0.702 0.3113,-1.2142 -1.3666,-2.0477 -0.7839,-2.9952 0.114,-0.1853 -0.1856,-0.6905 -0.1404,-0.9711 0.1306,-0.8108 -0.3143,-0.4368 -0.5382,-0.9711 -0.0718,-0.1714 -0.37,-0.3686 -0.5031,-0.4914 -0.1743,-0.161 0.0761,-0.5255 -0.0351,-0.7254 -0.2498,-0.4487 -0.3928,-0.2198 -0.0234,-0.6318 0.1754,-0.1955 -0.2902,-0.3569 -0.3627,-0.5031 -0.0983,-0.1985 0.1081,-0.3731 0.0702,-0.585 -0.0076,-0.0425 -0.2916,-0.1669 -0.3159,-0.2457 -0.0596,-0.1936 0.1141,-0.3177 0.0936,-0.4914 -0.0025,-0.0217 -0.0077,-0.0081 -0.0234,-0.0234 -0.0166,-0.016 -0.0155,-0.023 -0.0351,-0.0351 -0.0346,-0.0212 -0.1358,-0.0955 -0.1755,-0.117 -0.1179,-0.0636 -0.0607,-0.6402 -0.2106,-0.8073 -0.1737,-0.1938 -0.6669,-0.2188 -0.6669,-0.4446 0,-0.1798 0.2309,-0.374 0.1755,-0.5148 -0.0793,-0.2018 -0.6046,-0.2218 -0.7839,-0.3276 -0.56,-0.3302 0.4688,-0.7654 0.585,-0.9711 0.1325,-0.2348 -0.3892,-0.2027 -0.5148,-0.234 -0.2918,-0.0727 0.0534,-0.4003 -0.0234,-0.5733 -0.1378,-0.3106 -0.4459,-0.0606 -0.3042,-0.6201 0.131,-0.5177 -0.5163,-0.7464 -0.6903,-1.1583 -0.136,-0.3218 -0.1235,-0.759 -0.2457,-1.1115 -0.1249,-0.36 0.0819,-0.7315 0.0819,-1.0998 0,-0.4832 -0.2275,-0.5106 -0.4563,-0.8658 -0.1411,-0.2189 -0.1222,-0.4875 -0.2574,-0.6903 -0.1434,-0.2151 -0.5134,-0.4513 -0.5499,-0.6903 -0.047,-0.3069 0.1951,-0.9336 0.0819,-1.2051 -0.0813,-0.1949 -0.1989,-0.4572 -0.1989,-0.702 0,-0.2769 0,-0.5538 0,-0.8307 0,-0.3556 0.0194,-0.7582 -0.0468,-1.1232 -0.0573,-0.3154 -0.3412,-0.6494 -0.585,-0.8307 -0.1841,-0.1368 -0.4104,-0.2871 -0.5031,-0.4563 -0.1142,-0.2087 -0.0234,-0.3619 -0.0234,-0.6084 0,-0.2421 -0.0219,-0.3894 -0.1404,-0.5499 -0.1885,-0.255 -0.0773,-0.4958 -0.1989,-0.7488 -0.1594,-0.3315 -0.5777,-0.5829 -0.5499,-0.9828 0.0103,-0.1477 0.131,-0.4479 -0.0351,-0.5499 -0.1335,-0.0821 -0.3655,0.0334 -0.468,-0.1404 -0.192,-0.3257 0.8527,-0.5201 0.6084,-0.9009 -0.1142,-0.1782 -0.6208,-0.025 -0.7371,-0.2223 -0.1981,-0.3358 0.3559,-0.5848 0.2925,-0.7605 -0.279,-0.7734 0.058,-0.863 0.3744,-1.5327 0.2408,-0.5095 -0.988,-0.2873 -0.6552,-0.6201 0.1577,-0.1577 0.6297,0.2162 0.7254,-0.0936 0.0556,-0.1798 -0.4006,-0.2056 -0.4563,-0.3042 -0.0823,-0.146 0.3202,-0.2952 0.1287,-0.3978 -0.5772,-0.3091 0.3329,-0.3498 0.4446,-0.5733 0.268,-0.5363 -0.7271,-0.5527 -0.468,-1.0413 0.1364,-0.2571 0.4542,-0.2452 0.4797,-0.5733 0.0212,-0.2732 -0.4615,-0.3301 -0.4329,-0.4797 0.0343,-0.179 0.4351,-0.2662 0.4914,-0.4212 0.1135,-0.3126 -0.9042,-0.6033 -0.1989,-0.9009 0.5664,-0.2389 -0.0877,-0.5018 -0.351,-0.7371 -0.2184,-0.1953 0.2222,-0.4169 0.1989,-0.6201 -0.0307,-0.2684 -0.3543,-0.2949 -0.468,-0.4797 -0.2218,-0.3608 0.6799,-1.4683 -0.0819,-1.3455 -0.7968,0.1284 -0.148,-0.5588 0.2223,-0.6903 0.3023,-0.1074 0.2159,-0.2494 0.2808,-0.4797 0.0371,-0.1317 0.1755,-0.2138 0.1755,-0.3627 0,-0.0195 0.0032,-0.0393 0,-0.0585 -0.0009,-0.0054 -0.0078,-0.0079 -0.0117,-0.0117 -0.041,-0.041 -1.299,0.4655 -0.7722,-0.1053 0.2442,-0.2645 0.8544,-0.2112 0.9711,-0.6318 0.0523,-0.1884 0.0523,-0.4854 -0.2106,-0.468 -0.499,0.033 -0.5927,0.2036 -0.4212,-0.3978 0.0438,-0.1537 0.2297,-0.2679 0.2808,-0.4095 0.1102,-0.3057 -0.2687,-0.2654 -0.3978,-0.4095 -0.1777,-0.1981 0.4374,-0.2112 0.468,-0.2925 0.1548,-0.412 -0.801,0.0477 -0.8658,-0.234 -0.0898,-0.3908 0.5616,-0.5664 0.5616,-0.9945 0,-0.284 -0.3627,-0.2386 -0.3627,-0.4797 0,-0.4513 0.6156,-0.1614 0.7254,-0.4914 0.0304,-0.0913 -0.0344,-0.406 -0.1287,-0.4446 -0.017,-0.007 -0.0687,-0.0813 -0.0702,-0.0936 -0.0116,-0.0915 -0.1612,-0.1522 -0.1755,-0.234 -0.0533,-0.3045 -0.6289,-0.4841 -0.8307,-0.585 -0.6282,-0.3139 0.3753,-0.3627 0.5265,-0.3627 0.2003,0 0.347,-0.1502 0.1053,-0.2574 -0.2067,-0.0918 -0.5584,-0.0787 -0.7137,-0.234 -0.2188,-0.2188 0.0155,-0.6587 0.1404,-0.8541 0.1616,-0.2531 1.0039,-0.2935 0.4914,-0.7488 -0.3142,-0.279 0.29,-0.3719 0.3978,-0.4797 0.2459,-0.2459 -0.5302,-0.3869 -0.351,-0.5031 0.3759,-0.2436 0.3794,0.202 0.5031,-0.2808 0.0777,-0.303 0.531,0.2061 0.4095,-0.2808 -0.0477,-0.191 -0.3444,-0.2198 -0.2808,-0.468 0.0809,-0.3162 0.4082,0.1845 0.5148,0.0234 0.1308,-0.1979 0.0836,-0.2822 -0.0585,-0.5382 -0.1043,-0.1877 0.1402,-0.2552 0.2223,-0.3042 0.1842,-0.1102 0.2653,-0.2722 0.1989,-0.4563 -0.1445,-0.4008 -0.025,-0.1867 0.1053,-0.5382 0.0385,-0.1038 0.0468,-0.3842 0.0468,-0.5265 0,-0.0078 0,-0.0156 0,-0.0234 0,-0.0248 0.0136,-0.0367 0.0351,-0.0468 0.0848,-0.0401 0.0633,-0.1715 0.0351,-0.2223 -0.0101,-0.0181 -0.0569,-0.0544 -0.0702,-0.0585 -0.1996,-0.0612 -0.3679,-0.265 -0.5616,-0.351 -0.3143,-0.1394 -0.0053,-0.38 -0.1053,-0.6201 -0.0585,-0.1403 -0.117,-0.2809 -0.1755,-0.4212 -0.0214,-0.0515 -0.0649,-0.0819 -0.0936,-0.1287 -0.0245,-0.0398 -0.065,-0.0688 -0.1053,-0.0936 -0.0304,-0.0186 -0.0258,-0.0356 -0.0585,-0.0585 -0.018,-0.0127 -0.0211,-0.0371 -0.0234,-0.0585 -0.0025,-0.0241 -0.0098,-0.0467 -0.0117,-0.0702 -0.0075,-0.0907 0.0274,-0.1641 0.0351,-0.2574 0.0123,-0.1491 -0.1499,-0.193 -0.234,-0.3042 -0.1091,-0.1444 0.1224,-0.4289 -0.0234,-0.5148 -0.3912,-0.2308 -0.4985,-0.7716 -0.468,-1.17 0.052,-0.6805 0.0041,-0.7845 -0.4329,-1.3221 -0.2692,-0.3313 0.1531,-0.5143 -0.0117,-0.7722 -0.2487,-0.3894 -1.0071,-0.8892 -0.468,-0.8892 0.0078,0 0.0156,0 0.0234,0 0.024,0 0.2323,-0.2275 0.234,-0.2457 0.0167,-0.1739 0.0826,-0.2764 0.0117,-0.4797 -0.0087,-0.025 -0.0276,-0.0422 -0.0468,-0.0585 -0.0209,-0.0179 -0.0452,-0.0348 -0.0702,-0.0468 -0.095,-0.0455 -0.1445,-0.1715 -0.0936,-0.234 0.0339,-0.0418 0.1366,-0.0258 0.1521,-0.0702 0.1406,-0.4037 -0.5768,-0.5044 -0.3159,-0.8658 0.313,-0.4336 -0.2867,-0.4638 -0.2574,-1.0062 0.0216,-0.3988 -0.056,-0.4921 -0.3393,-0.7488 -0.4469,-0.4051 -0.1846,-0.7858 -0.3978,-1.2402 -0.1084,-0.231 -0.2596,-0.4026 -0.3627,-0.6552 -0.1238,-0.3035 -0.0847,-0.5853 -0.1521,-0.8892 -0.1292,-0.582 0.1822,-1.3231 0.3948,-1.8914l0 0 -223.4 -0.0012 0 0c-1.0041,50.7743 -0.9553,99.873 -0.7006,148.633l0 0z"/>
 </g>
</svg>
