<?xml version="1.0" encoding="UTF-8"?>
<!DOCTYPE svg PUBLIC "-//W3C//DTD SVG 1.1//EN" "http://www.w3.org/Graphics/SVG/1.1/DTD/svg11.dtd">
<!-- Creator: CorelDRAW -->
<svg xmlns="http://www.w3.org/2000/svg" xml:space="preserve" width="210mm" height="297mm" style="shape-rendering:geometricPrecision; text-rendering:geometricPrecision; image-rendering:optimizeQuality; fill-rule:evenodd; clip-rule:evenodd"
viewBox="0 0 210 297"
 xmlns:xlink="http://www.w3.org/1999/xlink">
 <defs>
  <style type="text/css">
   <![CDATA[
    .str2 {stroke:#2F3133;stroke-width:0.1}
    .str1 {stroke:black;stroke-width:0.1;stroke-opacity:0.501961}
    .str0 {stroke:black;stroke-width:0.1}
    .str3 {stroke:black;stroke-width:0.5}
    .fil5 {fill:none}
    .fil0 {fill:white}
    .fil2 {fill:#1F1A17;fill-rule:nonzero}
    .fil3 {fill:#C2C1C1;fill-rule:nonzero}
    .fil4 {fill:white;fill-rule:nonzero}
    .fil6 {fill:black;fill-rule:nonzero}
    .fil1 {fill:white;fill-rule:nonzero;fill-opacity:0.501961}
   ]]>
  </style>
 </defs>
 <g id="Plan_x0020_1">
  <metadata id="CorelCorpID_0Corel-Layer"/>
  <path class="fil0 str0" d="M99.3276 38.5355c0.0256,-0.146 0.0164,-0.3001 -0.0238,-0.4417 -0.0243,-0.0856 -0.1073,-0.2556 -0.1073,-0.3342 -0.1814,-0.0449 -0.3294,0.1924 -0.4647,0.2865 -0.0703,0.0488 -0.3863,0.193 -0.3933,0.2864 -0.0089,0.1201 -0.026,0.2324 0.0119,0.3462 0.0376,0.1131 0.279,0.1312 0.3695,0.2029 0.0439,0.0347 0.1243,0.0458 0.1787,0.0597 0.121,0.0309 0.2584,-0.0927 0.3694,-0.1433l0.0596 -0.2625zm0.1788 1.098c-0.1832,0.1198 -0.197,0.1233 -0.3695,0.1791 -0.1037,0.0336 -0.1857,0.0573 -0.286,0.1074 -0.0615,0.0307 -0.1418,0.0877 -0.1787,0.1432 -0.0587,0.0885 -0.0067,0.1542 0.0834,0.191 0.0473,0.0194 0.0661,0.0218 0.1073,0.0597 0.039,0.036 0.065,0.0821 0.0953,0.1074 0.0093,0.0945 0.0652,0.2732 0.1311,0.3342 0.0358,0.033 0.1648,0.0544 0.2026,0.0119 0.0862,-0.0972 0.1694,-0.1533 0.2025,-0.2864 0.0435,-0.1744 -0.0119,-0.3704 -0.0119,-0.5491 0.0179,-0.0179 0.0222,-0.0295 0.0358,-0.0477l-0.0119 -0.2507zm0.3694 1.4681c-0.2386,0.0478 -0.3534,0.138 -0.4886,0.3343 -0.1036,0.1506 -0.1781,0.3228 -0.3933,0.2864 -0.191,-0.0322 -0.3006,-0.151 -0.4766,-0.1074 0,0.1916 -0.0787,0.2763 -0.2145,0.3939 -0.345,0.2986 0.001,0.1573 0.0715,0.4416 0.0568,0.2288 -0.3456,0.4315 -0.3456,0.6326 0.1367,0 0.3973,-0.1495 0.5124,-0.2268 0.2259,-0.1515 0.2784,-0.3859 0.4528,-0.561l0.1073 -0.0835c0.1194,-0.0974 0.2044,-0.1811 0.3098,-0.2865 0.0349,-0.035 0.0389,-0.051 0.0834,-0.0716 0.0559,-0.0258 0.1088,-0.0299 0.1669,-0.0477 0.0512,-0.0158 0.0966,-0.0567 0.143,-0.0836 0.0779,-0.0453 0.1906,-0.0704 0.2502,-0.1432 0.0651,-0.0793 0.0596,-0.1349 0.0596,-0.2387l-0.0238 0 -0.2145 -0.2388zm4.8739 2.4111c-0.0648,0.1949 -0.1629,0.306 -0.3336,0.4177 -0.5537,0.3627 -0.5449,-0.358 -0.9772,-0.358 -0.2212,0.3876 -0.9525,0.6841 -0.8938,1.1577 0.1285,0.0919 0.2581,0.0744 0.4052,0.1313 0.0975,0.0378 0.2317,0.1478 0.3099,0.2149 0.1702,0.1459 0.1537,0.3041 0.417,0.3461 0.195,0.031 0.463,0.0635 0.6316,-0.0716 0.5204,-0.4167 0.1439,-0.9552 0.3933,-1.4562l0.0476 -0.3819zm3.5093 168.859c0.2275,0.3011 0.6044,0.5329 1.2694,0.6534 1.6934,0.3068 3.8844,-1.3878 5.5651,-1.6471 0.0516,-0.0079 0.1033,-0.016 0.1549,-0.0239 0.5925,-0.0913 1.1396,0.0895 1.573,0.1075 0.5372,0.0224 1.2569,-0.2829 1.7756,-0.4417 0.8181,-0.2504 0.7865,-2.1475 1.0011,-2.8765 0.2488,-0.8448 0.7235,-4.6146 1.4896,-4.9295 0.9113,-0.3745 1.596,0.3673 2.5144,0.3342 0.9796,-0.0354 1.308,-0.824 1.4062,-1.6591 0.0105,-0.0897 0.0533,-0.096 0.0238,-0.1432 -0.1903,-0.3038 -0.0116,-1.3485 -0.2264,-1.7545 -0.2173,-0.411 -0.7206,-1.1165 -0.5839,-1.5994 0.15,-0.53 0.3241,-0.8096 0.3813,-1.4085 0.0588,-0.6148 -0.2536,-1.4261 -0.4052,-2.0171 -0.1089,-0.4249 -0.7916,-0.6724 -0.9652,-1.0862 -0.2008,-0.4789 -0.3125,-0.7574 0.0953,-1.2174 0.3174,-0.3582 0.6836,-0.6474 1.0963,-0.8952 0.6808,-0.409 1.4476,-0.9026 1.6565,-1.7307 0.1473,-0.5837 0.1871,-1.0802 0.0834,-1.683 -0.1477,-0.8591 0.7211,-1.6653 1.1202,-2.3632 0.2973,-0.5197 0.5109,-1.9398 0.9891,-2.3156 0.2082,-0.1635 0.8745,-0.4481 1.0963,-0.6445 0.6512,-0.5769 0.5704,-1.2897 0.9772,-1.9933 0.2076,-0.3589 0.5522,-0.4152 0.9414,-0.4297 0.5463,-0.0203 0.6759,0.189 0.7627,0.5252 0.4306,1.6687 1.2498,0.7526 2.1569,1.2771 0.7991,0.4621 1.1379,1.8512 1.6565,2.614 0.686,1.0092 -0.2222,1.1067 -0.7031,1.7545 -0.4535,0.6108 -0.3425,1.3552 0.3932,1.6949 1.7118,0.7903 2.6391,-1.0764 2.86,-2.411 0.3035,-1.834 1.3519,-1.4053 2.0497,-0.2029 0.3559,0.6131 2.0563,0.3451 1.4181,-0.5252 -1.1117,-1.5162 -1.5193,-1.0954 -0.4409,-2.9243 0.6481,-1.099 -0.4327,-1.8637 -1.1917,-2.5662 -0.4488,-0.4155 -1.0437,-1.3202 -0.7388,-2.0052 0.1925,-0.4327 0.8925,0.1172 1.1559,0.2148 0.8176,0.3029 1.3581,-0.4994 1.4658,-1.1697 0.084,-0.5225 0.2282,-2.067 -0.0358,-2.5184 -0.0689,-0.118 -0.2578,-0.8399 -0.2741,-0.9549 -0.0558,-0.3937 -0.2087,-0.7192 0.1907,-1.0026 0.2503,-0.1777 0.5096,-0.1222 0.5839,-0.4774 0.1092,-0.5223 0.0405,-0.8753 0.6674,-1.0146 0.6296,-0.1398 0.8834,0.1679 1.1559,-0.5968 0.2167,-0.6084 -0.3432,-1.3511 -0.0596,-1.9813 0.3707,-0.8234 1.4961,-0.4132 2.3,-0.5013 0.7535,-0.0825 3.2142,1.3023 2.9196,-0.549 -0.1653,-1.0386 -0.3124,-3.2668 1.1916,-3.724 0.8971,-0.2726 1.6751,-0.6028 2.2166,-1.6233 0.3383,-0.6378 1.0495,-1.11 1.7994,-1.11 0.7399,0 0.7952,0.8096 1.0606,1.2174 0.0833,0.1279 0.1063,0.3264 0.1787,0.4417 0.3256,0.518 0.2744,1.214 0.87,1.5994 1.0816,0.7001 2.8383,-0.7673 3.7776,-1.4085 0.8205,-0.56 2.9066,-0.3058 3.1699,-0.5848 0.5128,-0.5436 0.3733,-1.5553 1.132,-2.2798 1.0734,-1.0248 2.0008,-0.195 2.8482,-1.8261 0.847,-1.6306 1.2853,-2.3782 2.717,-3.5688 1.0692,-0.889 3.8698,-4.9532 5.2314,-4.4402 0.9399,0.3542 1.5417,-0.8128 1.6565,-1.5277 0.1419,-0.884 -0.2433,-1.9293 0.6077,-2.4469 0.3905,-0.2376 0.9057,-0.234 1.0964,-0.6445 0.2449,-0.5269 -0.2287,-1.1877 -0.5363,-1.6233 -0.0634,-0.0899 -0.1082,-0.2349 -0.2026,-0.2864 -0.6491,-0.3546 -1.2019,-1.596 -0.5124,-2.1366 0.2392,-0.1876 0.6603,-0.1457 0.9534,-0.2983 0.5412,-0.2817 0.5407,-0.696 0.6077,-1.2175 0.0211,-0.1642 -0.0204,-0.387 -0.0596,-0.561 -0.0746,-0.3316 -0.1668,-0.6009 -0.1668,-0.9548 0,-0.5167 0.2883,-0.7594 0.7031,-0.9191 0.3663,-0.1409 0.8818,-0.3948 0.8818,-0.8116 0,-0.1961 -0.2859,-0.5917 -0.4051,-0.7639 -0.2562,-0.3704 -0.4417,-1.1512 -0.2503,-1.5756 0.1566,-0.3475 0.9992,0.0027 1.1917,0.2149 0.0405,0.0446 0.1196,0.0352 0.1668,0.0835 0.3738,0.383 1.0794,0.1072 0.8104,-0.5371 -0.275,-0.6587 -0.8808,-1.4547 -0.012,-1.9694 1.012,-0.5994 0.7204,-1.3813 0.5125,-2.3633 -0.0406,-0.1916 -0.1235,-0.6587 -0.012,-0.8355 0.0288,-0.0458 0.0049,-0.1125 0.0358,-0.1551 0.3289,-0.4543 0.4208,-1.1893 0.3098,-1.7307 -0.0754,-0.3674 -0.3565,-1.1947 -0.0238,-1.4801 0.2624,-0.2252 0.6906,-0.1885 0.8461,-0.561 0.1903,-0.4562 0.1098,-1.1875 0.0357,-1.671 -0.1075,-0.7015 0.0705,-1.1127 0.1907,-1.7426 0.0157,-0.0823 0.088,-0.1752 0.1549,-0.2268 0.2999,-0.2309 1.2089,-1.0923 1.2632,-1.4561 0.1732,-1.1587 -0.1698,-2.7333 0.9653,-3.2227 1.0537,-0.4542 0.9571,-0.8473 1.0844,-1.5875 0.1059,-0.6153 0.7031,-0.892 0.7031,-1.48 0,-0.441 0.0753,-0.7814 -0.1192,-1.1817 -0.3391,-0.6981 -0.2586,-0.9323 0.0358,-1.6352 0.3599,-0.8596 -0.5886,-0.7205 -0.9772,-1.1935 -0.0689,-0.084 -0.143,-0.0933 -0.143,-0.1791 0,-0.0238 0,-0.0477 0,-0.0716 0,-0.0912 0.0805,-0.1509 0.1668,-0.1671 0.7711,-0.1452 0.8773,-1.2813 0.7865,-1.8739 -0.1904,-1.243 1.0488,-2.0929 -0.0119,-3.2227 -0.9414,-1.0029 -0.7588,-2.4016 -1.43,-3.4256 -0.2023,-0.3087 -0.686,-0.8515 -0.7865,-1.3487 -0.2157,-1.066 1.8112,-2.818 2.5144,-2.2201 0.8963,0.7622 2.2475,-0.2356 3.3731,-0.873l0 0 -0.0048 -71.9977 0 0c-0.5453,0.2128 -1.1051,0.3825 -1.6999,0.4562 -1.1537,0.898 -7.9745,3.7496 -9.0329,3.1153 -0.53,0 -0.6799,0.4079 -1.0725,0.6326 -1.2228,0.4369 -2.2416,1.4624 -3.6585,1.6113 -1.4025,0.7574 -3.6942,0.9304 -5.2434,1.5755l-4.2424 1.7665c-0.1997,0.1692 -0.5057,0.2126 -0.703,0.3939 -1.2121,0.4661 -2.1668,1.5576 -3.3844,2.053 -0.4597,0.1916 -1.3675,0.6426 -1.8709,0.4177l-0.0954 -0.1671c0,-0.0299 0.0049,-0.0371 -0.0119,-0.0597 -0.0319,0 -0.053,0.012 -0.0834,0.012l-4.1828 2.8884c-1.4615,1.0093 -2.3205,2.029 -3.3367,3.4734 -0.5524,0.7853 -1.6711,1.5157 -2.4429,2.0649 -0.6378,1.0009 -2.6884,2.3046 -3.6585,3.0794l-1.5492 0.9787 -2.2284 1.6352c-1.5498,1.1372 -2.8809,-0.5191 -4.6237,0.4178 -1.1139,0.5989 -2.5528,0.2299 -3.73,0.0239 -1.6924,-0.5163 -2.6652,-1.5781 -4.5403,-1.0146 -1.0072,0.3026 -4.8067,2.3298 -5.5413,1.7426l-0.0715 0c-0.2715,0.3179 -0.6572,0.5955 -0.9176,0.9668 -0.4419,0.185 -1.5445,0.9305 -1.9066,1.2533 -1.0903,0.1814 -1.5832,0.4677 -2.7886,0.3103 -1.0157,0.1806 -1.4858,0.0298 -2.4429,0.5968l-2.2165 1.313c-1.1725,0.6945 -2.8737,0.817 -4.0875,-0.0597 -0.6351,-0.4586 -1.1017,-0.4871 -1.8709,-0.7758 -1.0314,-0.387 -1.9601,-0.8425 -2.872,-1.4562 -0.6113,-0.4113 -0.5124,-0.5368 -0.5124,-1.122 -0.0197,-0.0147 -0.0181,-0.0065 -0.0238,-0.0239 -0.3481,0 -0.8032,-0.0134 -1.1321,0.0597 -0.382,-0.1271 -0.3893,-0.3261 -0.8342,-0.2268 -0.4448,0.0992 -0.9087,0.5472 -1.3585,0.7281 -1.1414,0.459 -1.4853,-0.4837 -2.0854,-1.1577 -0.3814,-0.4285 -0.6482,-0.0359 -1.1202,-0.0359 0,1.4075 -1.3602,1.4543 -2.4787,1.7665 -1.1253,0.3142 -2.0283,1.9066 -2.86,0.1552 -0.3517,-0.7405 -0.5793,-1.1475 -1.287,-0.6803 -0.5937,0.392 -0.3083,0.4258 -0.7985,-0.1075 -0.094,-0.1023 -0.4225,-0.2992 -0.4528,-0.4058 0.3005,-0.0744 0.5208,-0.2663 0.7865,-0.4297 0.1821,-0.1119 0.5698,-0.023 0.7984,-0.0358 0.1306,-0.0073 0.5133,-0.2156 0.5363,-0.2029 0.6492,-0.5765 -0.2898,-1.2945 1.1797,-1.0026 0.8184,0.1625 1.842,-0.011 2.6694,-0.0597 0.4707,-0.0277 0.8557,-0.477 1.2989,-0.5013 0.3919,-0.0214 0.9968,1.0187 0.8938,0.2746 -0.1699,-1.227 1.6254,-0.3575 2.1212,-0.5252 0.5433,-0.1837 0.5956,-0.3581 1.2751,-0.3581 0.556,0 0.7444,-0.1665 0.8461,-0.6923 0.0646,-0.3345 0.2941,-1.0503 -0.1907,-1.0503 -0.6837,0 -1.0885,-0.3371 -1.716,-0.1194 -0.7147,0.2481 -1.4277,0.8161 -2.2642,0.6088 0,-0.5586 0.9357,-0.6802 0.5839,-1.2533l-0.9891 -1.6113c-0.1699,-0.2767 -1.0168,0.3329 -1.0844,0.5371 -0.1531,0.4626 0.4201,0.8979 0.1787,1.4442 -0.3396,0.7686 -0.9702,1.3061 -1.716,1.6471 -2.6606,0.5617 -4.0115,-1.1645 -5.8988,-2.7094 -0.1222,-0.2947 -0.4907,-0.5383 -0.6316,-0.8474 -0.452,-0.3249 -0.9136,-0.9561 -1.4181,-1.3488 -1.4388,-0.2398 -2.6286,-0.0881 -3.8729,-0.9548l-3.444 -2.3991c-0.7627,-0.6138 -1.4538,0.5073 -1.4538,-0.8355 0,-0.2351 -0.2297,-0.2714 -0.3813,-0.4059 -0.129,-0.1143 -0.4837,-0.5205 -0.5363,-0.4296 -0.4101,0.7092 -0.3708,0.8116 -1.2751,0.8116 -0.6341,0 -1.4103,-0.2282 -2.0139,-0.0119 -0.3352,0.1202 -0.7031,0.3209 -0.7031,-0.2268 0,-0.3336 0.3817,-0.5973 0.3575,-0.9788 -0.0086,-0.135 -0.7406,-0.1661 -0.8461,-0.1193 -0.3927,0.1745 -0.9303,1.0999 -1.3228,1.0026 -0.0961,-0.3877 0.17,-0.8819 0.3337,-1.2294 0.125,-0.2655 0.5839,-1.0409 0.5839,-1.2771 0,-0.0311 -0.1569,-0.0773 -0.3276,-0.1314l0 0 -0.5596 0.4178 -32.0616 1.5373 -21.6185 0.647 0 0 -0.2852 137.047 0 0c1.4287,0.0965 2.0222,-3.5528 3.6938,-1.48 0.3575,0.4434 0.7723,1.5278 1.2036,1.7785 0.5637,0.3275 1.18,0.246 1.7994,0.74 0.377,0.3008 0.5552,0.735 1.3347,0.7639 1.4118,0.0524 1.9157,-1.4323 2.8719,-1.4323 0.5829,0 1.0723,0.7963 1.7876,0.1193 0.5734,-0.5428 2.1232,-1.9921 2.4548,-0.3222 0.2066,1.0403 -0.617,2.0787 0.6078,2.8049 0.0445,0.0263 0.0437,0.1173 0.0953,0.1193 0.8952,0.0351 2.4222,0.3581 3.1818,0.8355 0.3531,0.222 0.8491,0.3295 1.0844,0.6804 0.3764,0.5616 0.8891,1.3622 0.9176,2.0649 0.0422,1.0414 0.2775,2.1583 1.1917,2.793 1.0808,0.7503 1.1094,1.8394 1.1917,2.96 0.0386,0.5249 -0.2546,2.0549 0.1906,2.4588 0.084,0.0763 0.2798,0.3871 0.3337,0.4894 0.52,0.9853 3.364,1.0613 4.3735,1.5278 1.233,0.5697 2.1302,0.9065 3.5154,0.5013 0.8764,-0.2564 1.9936,-0.7927 2.9077,-0.561 0.6042,0.1532 0.8256,0.5936 1.3585,0.8116 0.7056,0.2888 2.0655,0.1519 2.5383,0.752 0.5491,0.6971 -0.1609,2.0644 0.8342,2.2558 0.5998,0.1153 1.1996,0.2309 1.7994,0.3462 0.5911,0.1137 0.5007,1.4568 0.6912,2.0291 0.3656,1.0987 1.4797,0.5614 2.3118,0.919 0.7523,0.3234 1.998,1.5726 2.7647,0.74 0.6056,-0.6575 0.3205,-1.6545 0.9653,-2.3632 0.5842,-0.6419 1.2547,-0.2553 1.9901,-0.5372 1.1331,-0.4342 1.9508,-1.2175 3.1937,-0.4177 1.1559,0.7437 1.2412,1.9257 2.7766,1.4562 0.9548,-0.292 3.2902,0.7501 3.718,1.3368 0.3873,0.5313 0.779,2.5125 1.6564,2.2678 0.8513,-0.2373 1.2929,-2.1911 2.4668,-1.5159 1.0407,0.5987 3.4547,0.9758 4.0875,-0.4535 0.3215,-0.726 0.2788,-1.5442 1.0606,-2.0172 0.7052,-0.4268 1.8466,-0.2328 2.145,-1.1458 0.1068,-0.3266 0.5114,-1.1806 0.7627,-1.4323 0.6695,-0.6709 1.6823,0.3157 2.5859,-0.2029 0.6989,-0.4012 3.6652,-2.246 3.7419,-0.3581 0.0505,1.2432 -0.3807,2.2767 0.3098,3.4972 0.3612,0.6384 0.4465,1.2145 0.3337,2.0649 -0.0943,0.7104 0.3494,1.5304 0.7865,2.0649 1.4716,1.7997 2.84,0.926 4.6475,1.6113 0.0451,0.017 0.0688,0.0411 0.1073,0.0716 0.421,0.3341 0.8421,0.6685 1.2632,1.0026 0.3303,0.2622 0.4561,1.0877 0.7507,1.3965 0.3541,0.371 0.8558,0.9525 1.3943,1.301 0.4027,0.2605 0.9079,0.5895 1.1797,1.11 0.4448,0.8515 0.2686,1.7844 0.7446,2.4141l0 0z"/>
 </g>
</svg>
