<?xml version="1.0" encoding="UTF-8"?>
<!DOCTYPE svg PUBLIC "-//W3C//DTD SVG 1.1//EN" "http://www.w3.org/Graphics/SVG/1.1/DTD/svg11.dtd">
<!-- Creator: CorelDRAW -->
<svg xmlns="http://www.w3.org/2000/svg" xml:space="preserve" width="297mm" height="210mm" style="shape-rendering:geometricPrecision; text-rendering:geometricPrecision; image-rendering:optimizeQuality; fill-rule:evenodd; clip-rule:evenodd"
viewBox="0 0 297 210"
 xmlns:xlink="http://www.w3.org/1999/xlink">
 <defs>
  <style type="text/css">
   <![CDATA[
    .str2 {stroke:#2F3133;stroke-width:0.1}
    .str1 {stroke:black;stroke-width:0.1;stroke-opacity:0.501961}
    .str0 {stroke:black;stroke-width:0.1}
    .str3 {stroke:black;stroke-width:0.5}
    .fil5 {fill:none}
    .fil0 {fill:white}
    .fil2 {fill:#1F1A17;fill-rule:nonzero}
    .fil3 {fill:#C2C1C1;fill-rule:nonzero}
    .fil4 {fill:white;fill-rule:nonzero}
    .fil6 {fill:black;fill-rule:nonzero}
    .fil1 {fill:white;fill-rule:nonzero;fill-opacity:0.501961}
   ]]>
  </style>
 </defs>
 <g id="Plan_x0020_1">
  <metadata id="CorelCorpID_0Corel-Layer"/>
  <path class="fil0 str0" d="M19.3003 30.2456l7.7566 0 2.0064 0.329 19.219 0.0956 0 0 223.566 -0.5616 0 0 0.0078 18.8895 0 0 5.3128 39.6723c0.1845,0.5848 -0.1987,0.7844 -0.1987,1.2782 0.613,0.768 0.5884,2.1293 0.2737,3.0432 -0.2067,0.6001 -0.3739,0.8349 -0.1369,1.4622 0.0739,0.1955 0.2599,0.4283 0.2829,0.6305 0.0328,0.2888 -0.1278,0.4679 -0.1278,0.7037 -0.0225,0.0282 -0.0413,0.0651 -0.0456,0.1005 -0.0084,0.0385 -0.0224,0.0877 -0.0274,0.128 -0.0453,0.0389 -0.0737,0.1498 -0.1003,0.2102 -0.0336,0.0764 -0.0821,0.1698 -0.0821,0.2558 0,0.0447 -0.0092,0.0821 -0.0092,0.128 0,0.0744 0.0183,0.1449 0.0183,0.2193l-1.3266 57.5369 0 0c-0.2253,0.0336 -0.4482,0.4347 -0.4983,0.5029 -0.1177,0.1606 -0.8485,0.4338 -0.8485,0.1005 0,-0.2131 0.2281,-0.3486 0.2281,-0.53 0,-0.3019 -0.7395,0.2772 -0.8303,0.3381 -0.7365,0.4942 -0.043,-0.5219 0.0638,-0.6945 0.5411,-0.8747 -0.9467,0.1442 -0.9945,0 -0.1015,-0.3064 0.3345,-0.5033 0.3923,-0.7677 0.1045,-0.4782 -0.3186,-0.3118 -0.5109,-0.0914 -0.8431,0.9664 -0.6186,-0.8099 -1.3048,-0.2376 -0.3643,0.3039 -0.889,0.5221 -0.7117,-0.1919 0.1762,-0.71 -0.0886,-0.7973 -0.7026,-0.265 -0.2416,0.2095 -1.6022,0.0202 -1.6879,-0.2285 -0.1179,-0.3417 -0.3127,-0.575 -0.4198,-0.8956 -0.2804,-0.8395 -0.099,-0.2297 -0.8394,-0.3381 -0.2626,-0.0384 -0.3032,-0.329 -0.4927,-0.329 -0.2444,0 -0.4863,0.3513 -0.6478,0.0457 -0.1454,-0.275 0.1382,-0.6199 -0.0913,-0.8956 -0.3785,-0.4544 -0.3573,0.2874 -0.2646,0.5209 0.1554,0.3916 0.155,0.5017 -0.3467,0.3838 -0.1518,-0.0357 -0.7381,-0.0375 -0.8029,-0.0913 -0.0599,-0.0499 -0.1945,-0.2253 -0.219,-0.2925 -0.0915,-0.2513 0.1618,-0.5236 -0.0183,-0.7037 -0.0031,-0.003 -0.0061,-0.0062 -0.0091,-0.0091 -0.2353,-0.2353 -0.4106,0.4918 -0.7938,0.0091 -0.1927,-0.2426 -0.491,-0.3721 -0.6022,-0.6671 -0.0974,-0.2581 0.3621,-1.8492 -0.1277,-1.3342 -0.1772,0.1862 -0.1242,0.4287 -0.2646,0.6031 -0.4505,0.5599 -0.5989,-0.5827 -0.511,-0.8682 0.1171,-0.3806 -0.1831,-0.2241 -0.3832,-0.3564 -0.2491,-0.1648 -0.0899,-0.5294 -0.219,-0.7493 -0.2168,-0.3695 -0.4225,0.5608 -0.6205,0.5757 -0.367,0.0276 -0.47,-0.6788 -0.958,-0.6032 -0.5461,0.0845 -0.6605,-0.1256 -0.9033,-0.6397 -0.1855,-0.3929 -0.3711,-0.786 -0.5566,-1.1789 -0.0898,-0.1902 -0.4198,1.6441 -0.7391,1.0419 -0.21,-0.3963 0.6855,-1.2612 0.2829,-1.2612 -0.3391,0 -0.7121,0.5841 -1.1223,0.4113 -0.4816,-0.203 0.3939,-0.772 0.0365,-0.9505 -0.006,-0.003 -0.0122,-0.0061 -0.0182,-0.0091 -0.0186,-0.0093 -0.0073,-0.0402 -0.0274,-0.0457 -0.7505,-0.2043 -2.1661,-0.245 -2.8924,-0.7676 -0.2946,-0.2119 -0.7473,0.6664 -1.0219,0.923 -0.4442,0.4149 0.0365,0.7466 0.0365,1.2794 0,0.33 -0.5337,0.6471 -0.6387,0.2284 -0.0861,-0.3438 0.269,-1.1088 -0.2281,-0.7676 -0.4514,0.3097 0.0388,1.7072 -0.876,1.4256 -0.4947,-0.1523 -0.6811,-1.0858 -1.0584,-0.1005 -0.166,0.4335 -0.9172,0.1553 -1.3413,0.1736 -0.5493,0.0237 -1.7256,0.3485 -2.0712,-0.2101 -0.1736,-0.2807 -0.0525,-0.6413 -0.4927,-0.3473 -0.5573,0.3723 -0.7153,0.4449 -0.8577,-0.1554 -0.0597,-0.2518 -0.8861,0.4491 -1.0949,0.4204 -0.7956,-0.1095 -0.2013,-1.391 -0.9124,-1.8643 -0.8675,-0.5775 -1.295,0.2967 -2.053,0.6489 -0.3762,0.1747 -1.1764,0.2317 -1.3868,0.53 -0.1885,0.2671 -0.2797,0.4691 -0.657,0.4478 -0.535,-0.0303 -1.7687,-1.1351 -1.6424,0.2559 0.2057,2.2648 -1.3087,-0.3062 -1.7792,1.0601 -0.4978,1.4452 -3.4592,-2.4171 -3.7501,-1.1789 -0.0768,0.3271 0.1871,1.0199 -0.3741,1.0418 -0.5137,0.0201 -0.5757,-0.1727 -0.739,-0.4752 -0.0305,-0.0567 0.0173,-0.2219 -0.0183,-0.2742 -0.5436,-0.7987 -0.3889,0.6977 -0.4653,0.8042 -0.4404,0.6141 -0.5027,-0.0814 -0.8395,-0.3472 -0.3314,-0.2614 -0.2132,1.1117 -0.958,0.8681 -0.3744,-0.1225 -0.8012,-0.6126 -1.25,-0.4295 -0.2867,0.117 -0.0608,0.7599 -0.3559,0.6397 -0.5611,-0.2285 -0.4883,-0.2518 -1.0036,0.1645 -0.2276,0.1839 -0.444,0.1746 -0.6296,0.3107 -0.3215,0.236 0.0072,1.6281 -0.3924,1.8826 -0.3268,0.2082 -0.494,-0.1209 -0.7755,0.1828 -0.2901,0.3131 -0.5582,0.513 -1.0949,0.1188 -0.6898,-0.5068 -1.1693,-0.6928 -1.7701,0.1096 -0.4128,0.5512 -0.4168,1.3952 -0.7482,2.038 -0.1454,0.282 -0.973,0.4093 -1.1406,0.137 -0.2129,-0.3456 -0.0916,-0.8221 -0.4288,-1.188 -0.5399,-0.5861 -0.8605,-0.824 -1.25,-1.5627 -0.5564,-1.0549 -1.949,0.4186 -2.7008,-0.5118 -0.2572,-0.3182 -0.0919,-1.0113 -0.438,-1.252 -0.3689,-0.2567 -1.3319,0.3656 -1.649,-0.0609l-0.5043 -0.2406c-0.0459,-0.0262 -0.0407,-0.0338 -0.0913,-0.0914 -0.3496,-0.5637 -0.7878,-1.0316 -0.1642,-1.6267 0.7325,-0.6992 0.1407,-0.776 -0.5474,-0.8591 -0.5204,-0.0629 -0.8588,-0.318 -1.3413,-0.466 -0.6473,-0.1987 -0.5931,1.0326 -0.5931,1.4073 0,0.8624 -0.674,1.2863 -1.6189,1.3194 -1.1334,0.0398 -1.1667,-0.327 -1.8209,-0.9812 -0.2308,-0.2308 -1.2891,-0.3904 -1.3322,0.0731 -0.0785,0.8445 -0.8539,0.0104 -1.0949,-0.3016 -0.3703,-0.4796 -0.481,-1.7257 -0.7748,-2.4811 -0.0307,-0.1447 -0.0614,-0.2895 -0.092,-0.4341 -0.0131,-0.0621 -0.1084,-0.1372 -0.146,-0.1828 -0.1243,-0.1505 -0.4859,-0.193 -0.6569,-0.1828 -0.3595,0.0215 -0.6135,0.2994 -0.8942,0.4935 -0.2139,0.148 -0.3649,0.0595 -0.4836,-0.1005 -0.0947,-0.1278 -0.1665,-0.252 -0.2737,-0.1737 -0.4125,0.3017 -0.2139,0.9443 -0.0092,1.3526 0.3822,0.7626 0.0961,0.9848 -0.2828,1.6266 -0.2004,0.3393 -0.7627,1.2064 -1.177,1.2064 -0.4166,0 -0.4235,-0.3758 -0.5475,-0.6306 -0.2033,-0.4181 -1.1609,-0.0522 -1.0128,0.4752 0.0977,0.3483 1.0919,0.2439 1.2227,0.5392 0.5937,1.3409 -1.3197,0.1071 -1.3961,0.859 -0.0786,0.773 0.423,1.7669 0.2008,2.4949 -0.4844,1.5874 -3.1905,-0.2853 -3.1296,-1.3617 0.0343,-0.6061 0.0395,-0.4594 -0.2829,-0.8682 -0.3428,-0.4348 0.2451,-1.0409 0.5383,-1.2611 0.664,-0.4986 0.4514,-0.8117 0.3103,-1.4348 -0.0521,-0.23 -0.256,-0.8407 -0.5475,-1.1332 -0.252,-0.2527 -0.6653,-0.4643 -1.0219,-0.329 -0.9124,0.3461 -0.6851,1.7984 -1.2592,1.9466 -0.4938,0.1275 -0.7677,-0.6174 -1.0766,-0.8773 -0.1307,-0.1099 -0.511,-0.2486 -0.511,0.0822 0,0.1168 0.0385,0.5848 -0.0091,0.7128 -0.151,0.4052 -0.617,-1.0552 -0.8212,-0.1827 -0.1678,0.717 0.2054,1.151 -0.6934,1.5535 -0.8465,0.3792 -2.7921,0.3445 -2.7921,-0.8956 0,-0.6598 0.5964,-1.2738 0.1916,-1.9282 -0.6767,-1.0936 -1.7976,-0.3567 -2.6369,0.0457 -1.2956,0.6211 -1.6848,-1.0756 -1.5785,-2.0562 0.0753,-0.6939 -0.3984,-0.2443 -0.6934,-0.1828 -0.3235,0.0674 -0.3251,-0.689 -0.6843,-0.8499 -1.4145,-0.6335 -1.9456,0.6761 -2.564,1.5901 -0.4195,0.6199 -1.463,0.3854 -1.2956,1.0601 0.1057,0.4259 -0.5074,0.1743 -0.6205,0.3381 -0.2534,0.3671 0.044,0.5981 -0.4014,0.9505 -1.2404,0.9812 -2.1486,0.8099 -3.4216,0.1736 -0.544,-0.272 -1.1423,-0.1795 -1.5968,-0.393 -0.7298,-0.3427 0.48,-1.3177 0.6113,-1.5535 0.1561,-0.2805 -0.3349,-0.657 -0.4105,-0.9139 -0.1636,-0.556 1.2156,-1.5666 -0.1369,-1.6176 -0.603,-0.0227 -0.3868,-0.274 -0.7938,-0.5026 -0.2268,-0.1273 -0.4372,0.405 -0.7391,0.4113 -1.2111,0.0252 -1.136,-0.1084 -2.1716,-0.5941 -0.8548,-0.4008 0.3693,-1.2365 -0.0365,-1.6084 -0.5275,-0.4836 -0.9577,-0.4887 -0.3284,-1.1971 0.3314,-0.3729 -0.0037,-1.3302 -0.1551,-1.7272 -0.6361,-1.6672 -0.9332,0.8224 -2.1716,0.8224 -0.8959,0 -1.5979,-0.8144 -2.4453,-0.6214 -0.5569,0.1269 -1.0162,-0.1604 -1.469,-0.4204 -1.4549,-0.8352 -2.6844,0.1953 -3.0384,1.581 -0.2472,0.9673 -0.2834,1.4616 -1.3595,1.4439 -0.9918,-0.0164 -1.3401,-0.2853 -1.9983,-1.1149 -0.4027,-0.5075 -0.734,-1.1401 -1.2682,-1.5261 -1.6551,-1.1958 -2.4742,-0.8013 -4.1698,0.1919 -0.9344,0.5472 -2.0527,-0.2471 -2.9745,-0.5301 -0.7762,-0.2382 -3.1116,-0.3913 -3.5767,-0.9961 -0.091,-0.1184 -0.5638,-0.6062 -0.657,-0.7494 -0.2097,-0.3218 -0.4858,-0.6589 -0.7847,-0.8773 -0.6687,-0.4889 -0.8982,0.047 -1.5146,0.393 -0.7337,0.412 -0.9589,0.1485 -1.6789,-0.0823 -0.4598,-0.1473 -0.832,0.0029 -1.2774,0.064 -0.5138,0.0704 -1.3021,-0.2228 -1.6788,-0.5575 -0.8897,-0.7902 -0.9662,-1.3991 -1.022,-2.6319 -0.0504,-1.1128 0.317,-1.5691 -0.6569,-2.4583 -0.4058,-0.3704 -0.8151,-1.1878 -1.177,-1.4987 -0.366,-0.3146 -0.5288,-0.7087 -1.0676,-0.7494 -0.5718,-0.0431 -0.6861,-0.336 -1.1496,-0.7128 -0.3072,-0.2497 -0.5949,-0.5258 -0.9216,-0.7494 -0.0476,-0.0326 -0.1156,0 -0.1734,0 -1.3176,0 0.0618,2.1231 -0.6295,2.7233 -0.986,0.8562 -2.2241,-0.0319 -2.9289,-0.594 -0.7046,-0.5621 -1.5712,-0.8103 -2.3632,-0.6214 -0.6146,0.1465 -0.4471,0.4448 -0.4471,1.0327 0,0.4952 -0.5076,0.7715 -0.9854,0.4934 -0.2598,-0.1511 -0.3712,-0.3253 -0.7665,-0.2833 -0.3436,0.0365 -0.6874,0.0732 -1.031,0.1097 -0.6435,0.0685 -1.0952,-0.5671 -1.3686,-1.0235 -0.0365,-0.0609 -0.0731,-0.1219 -0.1095,-0.1828 -0.206,-0.3437 -0.6488,-0.2962 -0.8666,-0.658 -0.4988,-0.8285 -0.9976,-1.6573 -1.4964,-2.4857 -0.0521,-0.0866 -0.0709,-0.1697 -0.146,-0.2193 -0.9,-0.594 -1.5485,-2.1688 -2.4635,-2.4675 -1.6927,-0.5527 -1.7345,-0.1986 -3.0491,0.1381l0.0094 -71.2696 -90.4568 0.0112 0 0 -0.0458 -19.0419 0 0z"/>
 </g>
</svg>
