<?xml version="1.0" encoding="UTF-8"?>
<!DOCTYPE svg PUBLIC "-//W3C//DTD SVG 1.1//EN" "http://www.w3.org/Graphics/SVG/1.1/DTD/svg11.dtd">
<!-- Creator: CorelDRAW -->
<svg xmlns="http://www.w3.org/2000/svg" xml:space="preserve" width="297mm" height="210mm" style="shape-rendering:geometricPrecision; text-rendering:geometricPrecision; image-rendering:optimizeQuality; fill-rule:evenodd; clip-rule:evenodd"
viewBox="0 0 297 210"
 xmlns:xlink="http://www.w3.org/1999/xlink">
 <defs>
  <style type="text/css">
   <![CDATA[
    .str2 {stroke:#2F3133;stroke-width:0.1}
    .str1 {stroke:black;stroke-width:0.1;stroke-opacity:0.501961}
    .str0 {stroke:black;stroke-width:0.1}
    .str3 {stroke:black;stroke-width:0.5}
    .fil5 {fill:none}
    .fil0 {fill:white}
    .fil4 {fill:#1F1A17;fill-rule:nonzero}
    .fil2 {fill:#C2C1C1;fill-rule:nonzero}
    .fil3 {fill:white;fill-rule:nonzero}
    .fil6 {fill:black;fill-rule:nonzero}
    .fil1 {fill:white;fill-rule:nonzero;fill-opacity:0.501961}
   ]]>
  </style>
 </defs>
 <g id="Plan_x0020_1">
  <metadata id="CorelCorpID_0Corel-Layer"/>
  <path class="fil0 str0" d="M83.3618 18.941c-0.2392,0 -0.801,0.4428 -1.1405,0.5209 -0.8821,0.2032 -2.1078,-0.1688 -2.6734,-0.8042 -0.4813,-0.5406 -0.7117,-0.7386 -0.7117,-1.581 0,-0.2791 -0.6424,-0.5471 -0.8486,-0.6945 -0.2904,-0.2078 -0.447,-0.5338 -0.7026,-0.7402 -0.2487,-0.201 -1.0724,-0.2912 -1.4142,-0.2102 -0.2189,0.0519 -0.3932,0.7953 -0.8383,0.9167 -0.0219,0.0054 -0.2896,0.2073 -0.3661,0.2073 -0.099,0.3037 0.1809,0.9779 -0.4015,0.9779 -0.7756,0 -1.3633,-0.0021 -2.0986,0.3655 -0.4785,0.2392 -2.1879,0.3774 -2.3267,-0.3107 -0.4221,-0.0836 -0.2921,-0.8848 -0.3284,-1.1423 -0.2356,0 -1.023,0.6614 -1.3687,0.795 -0.424,0.164 -1.1883,0.1737 -1.6515,0.1737 0,0.7955 1.8248,0.4707 1.5694,1.2428 -0.1591,0 -0.9948,-0.8332 -1.1132,-0.0091 -0.0388,0 -0.0487,0.0274 -0.1003,0.0274 -0.0054,0.0163 -0.0613,0.0091 -0.0821,0.0091 -0.096,-0.2841 -0.7888,-0.2864 -1.022,-0.4295 -0.2393,-0.147 -0.1703,-0.2277 -0.2646,-0.4752 -0.0623,-0.1637 -0.4709,0.0111 -0.5109,-0.1919 -0.0579,-0.0081 -0.2482,-0.4795 -0.3832,-0.5392 -0.3872,-0.1711 -0.5076,-0.4569 -1.022,-0.4569 -0.4091,0 -0.7299,-0.0111 -0.7299,-0.4661 0.0271,0 0.0237,-0.0009 0.0274,-0.0274 0.0619,0 0.2976,-0.2029 0.1916,-0.2559 0,-0.1167 -0.1529,-0.1059 -0.1643,-0.1736 -0.0587,0 -0.0996,-0.2833 -0.3832,-0.2833 -0.2432,0.0213 -0.4053,0.1856 -0.6113,0.2376l0.8759 1.1058c0.1561,0.197 0.501,1.4161 0.6296,1.4713 0,0.0929 0.0837,0.1644 0.0912,0.2559 0.267,0.0438 0.5235,1.7978 0.584,2.1019 0.1632,0.8209 0.6934,1.8233 0.6934,2.6959 0.116,0.6577 0.3098,2.9518 -0.7208,2.9518 -0.7144,0 -0.5173,0.6016 -0.9033,1.0052 -0.2644,0.2763 -0.1986,0.3307 -0.0912,0.6215 0.0493,0.1337 0.2714,0.6962 0.3741,0.7402 0.0831,0.4165 0.2017,0.6674 0.2281,1.1606l0.0821 1.5353c0.1676,0.7657 0.0638,1.495 -0.0912,2.239 -0.0571,0.2741 -0.1143,0.5612 -0.2008,0.8225 -0.0847,0.2561 -0.2737,0.4367 -0.2737,0.7219 0.0292,0.0073 0.045,0.0554 0.0547,0.0823 0.0924,0.0347 0.6308,0.5614 0.6844,0.658 0.5028,0.0711 0.5635,2.185 0.5383,2.5953l-0.146 1.0875c-0.0819,0.6111 -0.1642,1.13 -0.1642,1.7638 0,0.2532 -0.0216,0.5119 -0.0639,0.7494 -0.0342,0.1926 -0.1728,0.414 -0.1916,0.5483 -0.0231,0.0057 -0.015,0.0039 -0.0183,0.0274 -0.0366,0.0092 -0.0045,0.0396 -0.0273,0.0548 0,0.1212 0.5954,0.3309 0.7117,0.4296 0.2074,0.1758 0.2981,0.3198 0.6295,0.3198 0.3407,0 0.6752,1.4827 0.6752,1.8186 0.3578,0.5092 0.313,0.9244 -0.1642,1.3343 -0.2336,-0.3279 -0.733,-0.3972 -0.9854,-0.7403 -0.1084,-0.1475 -0.3889,-0.3472 -0.5931,-0.3472 0,-0.5758 0.5726,-2.1264 -0.0365,-2.4309 0,0.6883 -0.0351,1.7978 -0.292,2.44 -0.1325,0.3315 -0.5661,1.107 -0.4562,1.4256 0.0872,0.2527 0.3178,0.8671 0.5018,1.0601 0.2759,0.2892 0.9397,1.043 0.8212,1.5445 -0.055,0.2327 -0.5095,1.0785 -0.7299,1.1514 0,-0.4116 0.0836,-0.8302 0.1551,-1.2245 0.0279,-0.1544 -0.033,-0.987 -0.1642,-0.987 -0.0775,0.3844 -0.039,1.4017 -0.2373,1.6998 -0.0405,0.3663 -0.009,1.0813 -0.1551,1.389 -0.0722,0.152 -0.2755,0.35 -0.4562,0.4022 -0.2304,0.0667 -0.5192,0.2747 -0.7026,0.3198 0.0651,0.1926 1.009,-0.1325 1.2044,0.3473 0.1914,0.4702 0.1369,1.4874 0.1369,2.0288 0,0.6467 0.0143,1.8214 -0.3011,2.376 -0.0352,0.1002 -0.0459,0.2623 0.073,0.3016 0.1065,0.8668 0.0255,1.7344 -0.0639,2.6137 -0.0462,0.4538 -0.1254,1.1318 -0.2737,1.5627 -0.0703,0.2046 -0.1049,0.4662 -0.2372,0.6305 -0.0763,0.0949 -0.3605,0.2673 -0.3832,0.3473 -0.0625,0.0267 -0.3285,1.1998 -0.3285,1.3617 0.3461,0.2586 0.3854,0.6872 0.2646,1.1332l-0.3832 2.6959c-0.0674,0.4748 -0.2172,0.9851 -0.2464,1.4622 -0.0235,0.3828 0.0314,1.1819 -0.1734,1.4896 0,0.0744 -0.0193,0.1455 -0.0273,0.2193 -0.2075,0.2586 -0.2273,0.9632 -0.3741,1.3068 -0.1103,0.2637 -0.2209,0.3537 -0.4106,0.5301 -0.2453,0.2279 -0.0406,0.4524 0.0456,0.7128 0.0736,0.222 -0.2828,0.406 -0.2828,0.658 0.0469,0.0155 0.1043,0.2203 0.1368,0.2285 0,0.2945 -0.1272,1.7413 0.1186,1.8642 0.1295,0.6451 0.1572,2.4592 -0.4014,2.833 0.0018,0.0077 0.4304,0.1021 0.4836,0.3108 0.069,0.2701 0.0273,0.5365 0.0273,0.8224 -0.0096,0.3708 -0.1093,0.8045 -0.2828,1.0967 0.2273,0 0.1928,0.0099 0.0821,0.2193 -0.1617,0.3055 -0.0639,0.6322 -0.0639,0.987 0,0.6602 0.054,1.4741 -0.1642,2.0653 -0.2775,0.7515 -0.1655,1.7746 -0.2464,2.5771l-0.0182 0.1006c0.013,0.0087 0.0091,0.0069 0.0091,0.0274 0.1352,0.0904 0.0183,1.4613 0.0183,1.6632 0,0.7011 -0.1079,1.3415 -0.1643,2.0288 -0.0177,0.0806 -0.0552,0.3848 -0.1095,0.4935 0,0.2793 -0.146,0.5643 -0.146,0.8408 -0.0242,0.0546 -0.0316,0.1237 -0.0365,0.1827 -0.0776,0.416 -0.2189,0.8449 -0.2189,1.2794 -0.0191,0.0143 -0.0791,0.1422 -0.0822,0.1737 -0.2734,0.2058 -0.0129,2.6908 -0.0547,3.1437l-0.3376 3.6463c-0.2068,0.7126 0.0403,1.548 -0.0912,2.2755 -0.1201,0.6647 -0.4654,1.4913 -0.4654,2.1476 0.0231,0.0058 0.015,0.004 0.0183,0.0275l0.0182 0 0.0183 0.0274c0.029,0 0.0424,0.0091 0.073,0.0091l0.0182 0.0274 0.0183 0 0.0091 0.0274c0.0175,0.0059 0.0007,0.0033 0.0182,0.0092 -0.0028,0.02 -0.0057,0.0373 -0.0182,0.0457l0 0.0274c-0.1142,0.0282 -0.124,1.1857 -0.146,1.3434 -0.0721,0.5146 -0.0913,1.1544 -0.0913,1.6724 0,0.4072 -0.0339,1.5216 -0.2372,1.8277 0,0.1206 -0.0365,0.2349 -0.0365,0.3564 -0.1643,0.2474 -0.1797,0.9006 -0.2555,1.2063 -0.35,1.4099 -0.2418,2.9614 -0.6752,4.3683 -0.0423,0.4556 -0.234,1.0063 -0.3193,1.4622 -0.0671,0.3583 -0.3219,0.7808 -0.365,1.0875l-0.0274 0.0091c-0.0141,0.1009 -0.153,0.2568 -0.0091,0.3382 0.3915,0.2213 -0.5961,4.2194 -0.7208,4.7521 -0.0806,0.1561 -0.2099,0.477 -0.2099,0.6488 -0.1573,0.1584 -0.0956,0.926 -0.3102,1.0875 -0.0237,0.3383 -0.301,0.8246 -0.4014,1.1698 -0.1726,0.5939 -0.4005,1.402 -0.657,1.9557l-0.9398 2.0287c-0.0867,0.0978 -0.2092,0.5484 -0.3102,0.5484 -0.0145,0.0739 -0.0951,0.1263 -0.1095,0.2284l0.0091 0.0092c0.7268,0 1.6213,-1.6658 1.7975,-2.3761 0.1462,-0.589 0.8123,-0.381 1.177,-0.7768 0.2328,-0.2528 0.6372,-0.923 1.0311,-0.923 0.0046,-0.014 -0.0002,-0.0091 0.0182,-0.0091 0,0.1581 -0.3788,0.535 -0.4744,0.6762 -0.3144,0.4638 0.0523,0.3075 0.3558,0.4844 0.4458,0.2597 0.2487,0.6651 0.4015,1.0784l0.3649 0.9869c0.2034,0.5501 -0.821,0.1534 -1.031,-0.2102 -0.1607,-0.2781 0.1036,-1.6815 -0.292,-1.6815 -0.0127,0.0908 -0.0286,0.5001 -0.2098,0.4295 -0.0613,-0.0239 -0.1476,-0.3801 -0.2829,-0.265 -0.0886,0.0755 -0.2089,0.145 -0.3467,0.1554 -0.2161,0.0162 -0.1171,0.4421 -0.4745,0.5666 -0.1848,0.0643 -0.1502,0.3559 -0.219,0.5117 -0.2344,0.5302 -0.9837,1.1218 -1.0675,1.7181l-0.0182 0c-0.0151,0.0753 -0.3728,-0.1371 -0.4745,-0.1371 -0.1582,0 -0.4051,-0.0545 -0.5475,-0.1096 -0.0619,-0.024 -0.1031,0.2876 -0.1733,0.3472 -0.1753,0.1486 -0.669,0.0401 -0.6752,0.1554 -0.026,0.4856 -0.7225,0.9232 -0.7117,1.1789 0.004,0.0941 0.2918,0.4373 0.3285,0.6123 0.0597,0.2839 0.1642,0.5928 0.1642,0.8864l-0.3194 2.6046c-0.0566,0.4624 -0.3855,2.5842 -0.7573,2.769 -0.0243,0.1976 -0.2517,0.2937 -0.3193,0.4295 -0.0919,0.1845 0.0663,0.7004 0.0182,0.9778 -0.0659,0.3804 -0.0273,0.8675 -0.0273,1.2612 -0.1071,0.2071 -0.1697,0.723 -0.219,0.9595l-0.3285 1.5719c-0.0845,0.4049 -0.2853,1.2531 -0.5748,1.5444 -0.0119,0.1424 -0.3194,0.7188 -0.4015,0.8682 -0.515,0.9362 -0.9504,1.8826 -1.2044,2.9061 -0.0512,0.106 -0.6434,0.8562 -0.7391,0.8682 -0.0307,0.0618 -0.2195,0.1602 -0.2737,0.201l0 0.0274c-0.0238,0.0159 -0.0233,0.0896 0,0.1188l0.0274 0c0.0534,0.0804 0.2959,0.1353 0.3923,0.2559l0.2555 0.3199c0.0037,0.0339 0.0049,0.0413 0.0365,0.0548 0.0445,0.2011 0.2999,0.4878 0.3832,0.7585 0.2247,0.7295 0.5201,1.8225 0.5201,2.5863l0.0091 0.0091 0.0639 0c0.1187,-0.359 0.7694,-0.239 0.9763,-0.064 0.2072,0.1751 0.5839,1.4239 0.5839,1.7273 0,0.3102 -0.1293,0.4457 0.1825,0.6214 0.2843,0.1601 0.7437,0.2523 0.9581,0.5209 0.0268,0.047 0.0547,0.0721 0.0547,0.1188 0.0517,0.0514 0.2534,1.0875 0.3103,1.252 0.0716,0.2072 0.1789,1.0352 0.0091,1.2063l0 0.0366c0.0155,0.0077 0.0145,0.0083 0.0182,0.0274 0.0176,0.0087 0.0152,0.022 0.0365,0.0274 0.0348,0.248 0.2151,0.591 0.2646,0.8956 0.1899,1.1689 -0.9306,2.142 -0.9306,3.2533 -0.0507,0.1749 0.0033,0.7056 -0.1278,0.8043 -0.0299,0.3645 -0.4104,0.4175 -0.3467,0.859 0.0245,0.1703 0.1385,0.8263 0.2555,0.9139 0.0068,0.0628 0.0023,-0.008 0.0091,0.0548l0.0182 0.0091c0,0.5856 0.055,1.1786 0.0365,1.8003l-0.0273 0.9139c-0.0036,0.1241 -0.0783,0.6737 -0.0548,0.6854 0.0035,0.0183 0.0117,0.0366 0.0183,0.0548 0.3105,0.0888 0.597,1.2365 0.5748,1.5079 -0.0837,0.2238 -0.0325,0.5655 -0.073,0.8134 -0.0335,0.2056 -0.1642,0.3805 -0.1642,0.594 0.0367,0.0072 0.0483,0.0183 0.0912,0.0183 0.1306,0.1827 0.4861,0.3078 0.6387,0.5117 0.2743,0.3662 0.5979,0.876 0.5201,1.4074 -0.0496,0.3392 0.3231,0.5288 0.3193,0.9321l-0.0091 0.9505c-0.0037,0.3987 0.4282,0.6239 0.2555,1.1606 -0.1567,0.4866 0.2638,0.879 0.3011,1.3342 0.2823,0.1756 0.521,0.1996 0.6843,0.5209 0.1019,0.2003 0.0957,0.4295 0.4106,0.4295 0.3777,0.8888 0.8151,0.4343 1.3413,1.0053 0.395,0.4288 0.8643,0.659 1.2591,1.0875l0 0 8.6133 0 7.4728 0.0274 1.1953 -0.2285 5.8217 0.064 1.7514 -0.0365 6.1589 -0.2833 1.9891 0.1645 19.9273 -0.0823 3.1936 -0.0914 4.0056 0.1097 4.8723 0.1188 1.4326 0.1462 17.6281 0.1828 0.7025 0.1097 0.803 -0.0549 8.2757 0.0549 26.2139 -0.0823 0.4111 0.0812 0 0 1.6602 -0.1909 13.3579 -0.064 2.0439 0.1646 1.0492 -0.0275 1.6607 0.1097 4.4162 -0.064 7.591 0.0275 2.8981 -0.0011 28.8465 -0.2235 21.1417 0.0179 0 0 0.0637 -70.4018c0.1195,-0.4898 0.2084,-0.9427 0.2084,-1.4226 0,-0.8338 0.6404,-0.4424 0.8759,-0.6489 0.096,-0.0843 0.1725,-0.1391 0.1734,-0.2467 0.0023,-0.2477 0.0152,-0.5806 0.0729,-0.8134 0.0774,-0.3123 0.2743,-0.3595 0.4471,-0.6031 0.3792,-0.5349 -0.2067,-0.9572 -0.073,-1.3617 0.0915,-0.2766 0.2372,-0.4241 -0.2281,-0.6123 -0.3236,-0.1308 0.3892,-0.4855 0.5019,-0.658 0.2394,-0.3667 0.201,-0.2592 0.5201,-0.6031 0.2097,-0.2261 -0.2624,-0.5785 -0.0822,-0.8408 0.2127,-0.3094 0.2698,-0.4404 0.1643,-0.8133 -0.1816,-0.6416 -1.2016,0.0093 -1.0584,-1.1789 0,-0.2246 -0.1099,-0.8991 0.0091,-1.051 0.2076,-0.2648 0.8411,0.0652 1.0766,-0.3838 0.4002,-0.7626 0.5321,-1.4461 1.1315,-2.0471 0.2917,-0.2926 0.1822,-0.9266 -0.1917,-1.0966 -0.5534,-0.2518 -0.9702,-0.658 -1.615,-0.658 -0.4489,0 -0.447,-0.4142 -0.4653,-0.7768 -0.0199,-0.3927 0.0571,-0.8763 -0.1095,-1.2337 -0.0457,-0.098 -1.2179,-0.2776 -1.3869,-0.2559 -0.3251,0.0417 -0.5357,1.286 -0.9398,0.722 -0.2706,-0.3777 -0.5413,-0.7556 -0.812,-1.1332 -0.1974,-0.2755 -0.3049,-0.6185 -0.6752,-0.6946 -0.4248,-0.0872 -0.5372,0.5659 -0.7938,0.7586 -0.5471,0.4107 -1.7887,-0.6159 -2.126,-0.9779 -0.464,-0.4979 -0.278,-0.7324 0.1277,-1.0601 0.4981,-0.4025 0.7468,-0.9931 0.2555,-1.5992 -0.4495,-0.5547 -1.5133,-1.0988 -1.1861,-1.8917 0.0677,-0.164 0.8837,-0.8031 0.9215,-1.0327 0.0906,-0.5503 -0.1423,-1.2949 -0.3467,-1.8095 -0.3847,-0.9688 0.4736,-0.4452 0.7299,-1.0966 0.0936,-0.2379 0.0316,-0.7598 0.3833,-0.9504 0.238,-0.1291 0.7223,-0.3104 0.9398,-0.6854 0.1579,-0.2721 0.2978,-0.7436 0.0821,-1.1241 -0.2294,-0.4045 0.6514,-0.3959 0.6934,-0.9961 0.0327,-0.4674 -0.1217,-0.8795 0.2464,-1.2703 0.2732,-0.2902 0.4606,-0.6066 0.4744,-1.0235 0.0059,-0.179 0.0752,-0.7024 0.2738,-0.8316 0.1595,-0.1039 0.2574,-0.2439 0.3284,-0.457 0.0547,-0.164 -0.1029,-0.3512 -0.0547,-0.5209 0.1059,-0.373 0.5373,-0.359 0.438,-0.9139 -0.067,-0.3742 0.1571,-0.5045 0.2737,-0.7676 0.0404,-0.0912 0.219,-0.409 0.3558,-0.4935 0.1638,-0.1013 0.3356,-0.2025 0.5292,-0.2559 0.4457,-0.1228 1.0358,-0.0855 1.2957,-0.5666 0.1269,-0.2351 0.2398,-0.4717 0.5292,-0.4935 0.2307,-0.0174 0.7162,-0.2872 0.7482,-0.5483 0.0709,-0.5782 0.2478,-0.8154 0.5931,-1.2611 0.2054,-0.2652 0.378,-0.5734 0.3558,-0.9139 -0.0191,-0.2938 0.4041,-0.4527 0.6296,-0.6031 0.1684,-0.1124 0.3167,-0.3803 0.4197,-0.5484 0.3462,-0.5653 1.0784,-2.2232 0.6661,-2.7964 -0.0569,-0.0791 -0.3449,-0.466 -0.3832,-0.5209 -0.0457,-0.0657 -0.0819,-0.1044 -0.0183,-0.1736 0.2385,-0.2592 1.0662,-0.6762 0.7026,-0.9413 -0.1949,-0.1422 -0.3828,0.111 -0.511,0.3107 -0.1489,0.2322 -0.2553,0.2202 -0.4014,0.1188 -0.2046,-0.1422 0.2094,-0.6171 0.3193,-0.7859 0.2438,-0.3748 0.1858,-0.5917 0.1369,-1.0236 -0.0448,-0.3952 0.3474,-0.6313 0.6295,-0.8499 0.5657,-0.4386 1.095,-1.1741 1.095,-1.9008 0,-0.5066 0.3488,-0.7637 0.6934,-0.9687 0.2688,-0.16 0.2913,-0.5187 0.438,-0.658 0.0553,-0.0524 0.0915,-0.1271 0.1551,-0.1462 0.2939,-0.0887 0.4606,-1.2303 0.4927,-1.4896 0.006,-0.0487 0.0122,-0.0975 0.0182,-0.1462 0.0708,-0.5694 0.3789,-1.07 0.4015,-1.6724 0.0121,-0.3228 0.2017,-1.3312 0.3923,-1.5536 0.0213,-0.0249 0.0231,-0.1154 0.0274,-0.1371 0.0121,-0.0611 -0.0006,-0.1076 0.0274,-0.1462 0.047,-0.065 0.2264,-0.4023 0.3193,-0.4843 0.0307,-0.0272 0.0284,-0.0394 0.0639,-0.0549 0.412,-0.1794 0.0821,-1.4839 0.0821,-1.8186 0,-0.6793 0.5859,-1.1722 0.8942,-1.7455 0.1977,-0.3678 0.7228,-1.83 1.0584,-1.9191 0.0629,-0.0166 0.2905,-0.207 0.3194,-0.2559 0.2105,-0.3566 0.1067,-0.8782 0.2737,-1.2337 0.1781,-0.3789 0.7071,-0.6266 0.7938,-0.8773 0.1711,-0.4951 -0.0768,-1.755 0.3285,-1.9831 0.1845,-0.1039 0.6024,-1.1504 0.6661,-1.3982 0.2001,-0.7791 0.9671,-0.6822 1.1861,-1.3434 0.035,-0.1058 0.1498,-0.3957 0.2007,-0.4844 0.0876,-0.153 0.2034,-0.2645 0.1917,-0.4843 -0.0096,-0.1821 -0.0343,-0.3795 -0.0822,-0.5575 -0.0927,-0.3449 -0.3366,-0.5688 -0.4106,-0.859 -0.0586,-0.2295 -0.0943,-0.4029 -0.2646,-0.53 -0.169,-0.126 -0.5239,-0.7886 -0.6843,-0.9505 -0.1115,-0.1124 -0.3243,-0.287 -0.4288,-0.4295 -0.3322,-0.4532 -0.0803,-2.2789 -0.511,-2.6502 -0.3498,-0.3015 -0.6996,-0.6033 -1.0493,-0.9047 -0.4159,-0.3585 -1.0029,-0.3559 -1.5328,-0.2925 -1.1669,0.1397 -1.1051,-1.0134 -1.7702,-1.7272 -0.5321,-0.5709 -1.3753,0.6016 -1.8887,0.2102 -0.5095,-0.3883 -0.6255,-1.3859 -0.8668,-1.9648 -0.1795,-0.4309 -0.6382,-0.7444 -1.031,-0.9778 -0.4009,-0.2381 -0.6342,-0.6386 -0.7938,-0.9687 -0.2169,-0.4487 -0.4335,-1.1718 -0.4563,-1.709 -0.0014,-0.0338 -0.0037,-0.0403 -0.0273,-0.064 -0.0879,-0.0885 -0.1265,-0.1007 -0.2738,-0.1188 -0.0293,-0.0035 -0.0442,-0.0037 -0.0638,-0.0274 -0.1807,-0.2178 -0.1381,-0.9001 -0.4927,-0.9778 -0.0492,-0.0108 -0.0595,-0.0978 -0.1004,-0.1097 -0.0965,-0.0283 -0.1641,-0.2714 -0.2133,-0.5315l0 0 -28.7749 -0.2361 -30.0281 0.2011c-0.4644,0.61 -1.032,1.1348 -1.7149,1.3707 -0.2802,0.0968 -0.7117,0.3325 -0.9671,0.4113 -0.1343,0.0415 -0.6234,0.3802 -0.7117,0.4569 -0.2114,0.1834 -1.209,0.54 -1.5055,0.5757 -0.071,0.0085 -0.1075,-0.0017 -0.1825,0.0183 -0.4136,0.1102 -1.0565,0.0266 -1.4782,-0.0091 -0.1583,-0.0134 -0.3166,-0.036 -0.4653,-0.0823 -0.115,-0.0359 -0.4253,-0.1107 -0.5474,-0.1462 -0.1142,-0.0333 -0.2883,-0.0366 -0.3924,-0.0731 -0.077,-0.0271 -0.1201,-0.0045 -0.2098,0.0091 -0.4197,0.064 -0.8396,0.128 -1.2592,0.192 -1.0426,0.1589 -1.8592,0.6579 -2.9106,0.6579 -1.1348,0 -2.0568,0.8308 -3.1844,0.3473 -0.3898,-0.1671 -1.0656,-0.606 -1.4416,-0.7494 -0.8269,-0.3153 -2.9608,2.3286 -3.6224,2.6046 -0.0364,0.0152 -0.073,0.0305 -0.1095,0.0457 -1.7162,0.7163 -2.399,0.5249 -3.8504,1.0692 -1.1757,0.441 -2.543,0.1103 -3.6224,0.658 -0.9063,0.4599 -1.8127,0.92 -2.719,1.3799 -0.7017,0.3562 -2.1816,0.4746 -2.7555,0.9413 -0.0349,0.0283 -0.1132,0.0074 -0.146,0.0365 -0.6491,0.5747 -0.8107,1.3624 -1.6789,1.6633 -0.6958,0.2412 -1.4717,0.0788 -2.1989,0.2467 -1.703,0.3932 -3.576,1.1567 -5.3468,0.6672 -0.6745,-0.1865 -1.3012,-0.9866 -1.834,-1.4348 -0.3252,-0.2737 -0.726,-0.3057 -1.0493,-0.457 -0.1701,-0.0795 -0.4239,-0.0892 -0.6022,-0.0913 -0.7753,-0.0095 -1.4092,0.9158 -2.0621,1.2428 -0.6448,0.3228 -1.2896,0.6459 -1.9343,0.9687 -1.3128,0.6575 -2.7324,0.7016 -3.7501,1.9191 -0.5742,0.6871 -0.932,0.3838 -1.5694,-0.2284 -0.4466,-0.4291 -1.1079,0.3844 -1.834,0.2559 -0.5505,-0.0974 -1.101,-0.1951 -1.6515,-0.2925 -1.1809,-0.2091 -2.0506,2.9689 -3.4672,2.0105 -0.7268,-0.4918 -0.0866,-1.8842 -0.8303,-2.4765 -0.5133,-0.4087 -2.0538,-0.389 -2.3449,-1.0236 -0.0154,-0.0336 -0.189,-0.1899 -0.219,-0.201 -0.6108,-0.2256 -0.8848,-0.3656 -1.5694,-0.3656 -0.7132,0 -0.9879,0.5392 -1.6515,0.5392 -1.2002,0 -2.0569,-1.2497 -3.2391,-1.2886 -1.1173,-0.0368 -2.1468,0.4955 -3.2756,0.5941 -1.2318,0.1075 -1.8533,0.7999 -3.2026,0.5757 -0.6852,-0.1139 -1.1161,-0.4529 -1.8614,-0.4021 -0.786,0.0535 -2.0568,0.64 -2.2902,1.4348 -0.1484,0.5052 -0.0115,0.7124 -0.6022,0.8864 -0.2945,0.0868 -0.6448,-0.1346 -0.8303,0.1097 -0.0577,0.0761 -0.1156,0.1524 -0.1734,0.2285 -0.7503,0.9888 -1.8581,0.9412 -2.8376,1.4896 -1.1786,0.6598 -2.4344,0.5784 -3.6406,1.3525 -0.6646,0.4264 -1.608,0.506 -2.3814,0.6762 -0.9336,0.2054 -1.8096,0.0972 -2.4727,-0.7402 -0.1461,-0.1845 -0.322,-0.1547 -0.657,-0.1279 -1.0991,0.0881 -1.2186,0.3281 -2.3814,-0.0549 -0.6935,-0.2284 -1.3869,-0.4571 -2.0803,-0.6854 -1.3579,-0.4473 -3.1484,-0.3331 -4.3067,-1.1514 -0.5795,-0.4093 -1.5282,-1.0604 -2.1898,-1.2795 -0.0362,-0.0119 -0.0528,-0.0622 -0.0639,-0.0913 -0.1796,-0.4705 -0.2838,-1.3828 -0.1368,-1.9009 0.1649,-0.5808 0.2372,-1.1489 0.2372,-1.7546 0,-0.5432 -0.0137,-0.8945 -0.3285,-1.2886 -0.1944,-0.2435 -0.5748,-1.2029 -0.5748,-1.4987 0,-0.6015 0.1825,-1.1147 0.1825,-1.7181 0,-0.4227 -0.1371,-0.7808 -0.1916,-1.188 -0.0093,-0.0701 -0.0006,-0.1494 -0.0457,-0.2011 -0.0586,-0.0674 -0.1372,-0.3196 -0.2189,-0.4295 -0.0729,-0.0979 -0.188,-0.2632 -0.219,-0.4295 -0.0404,-0.2166 0.0103,-0.4094 0.0182,-0.6214 0.0167,-0.4457 0.071,-0.7831 -0.0547,-1.2155 -0.0526,-0.1808 -0.4924,-0.6231 -0.5749,-0.7768 -0.3571,-0.6658 -0.5192,-1.3895 -0.9854,-1.9648 -0.061,-0.0753 -0.1104,-0.1555 -0.1505,-0.2387 -0.3025,-0.6263 -0.0983,-1.4419 -0.6342,-1.918 -0.4041,-0.3591 -0.7804,-0.8058 -1.3047,-1.0418 -0.7922,-0.3567 -1.197,-0.8899 -1.8158,-1.4074 -0.2053,-0.1716 -1.4305,-0.8345 -1.6332,-0.923 -0.1579,-0.069 -0.4211,-0.2332 -0.5931,-0.3381 -0.2074,-0.1264 -0.8313,-0.6739 -1.0584,-0.8408 -0.399,-0.2934 -0.7503,-0.3852 -1.2683,-0.3381 -0.922,0.0839 -1.7783,0.9347 -2.4909,1.4256 -0.2709,0.1865 -0.5361,0.1034 -0.8212,0.2102l0 0zm-21.0041 -5.0994l0 -0.0639 -0.0091 -0.0275c-0.0742,-0.0496 -0.0713,-0.2957 -0.1277,-0.3381l0 -0.0274 -0.0091 -0.0274c-0.0573,-0.0429 -0.0355,-0.2467 -0.1095,-0.265 -0.0109,-0.0191 -0.0323,-0.042 -0.0365,-0.0549l-0.0274 0c-0.0162,0.0274 -0.0091,0.0756 -0.0091,0.1097 0,0.048 -0.0229,0.079 -0.0457,0.1188 -0.0204,0.005 -0.0157,0.007 -0.0273,0.0274l-0.0183 0 -0.0182 0.0274c-0.0237,0 -0.0325,0.006 -0.0548,0.0092l-0.0091 0.0274 -0.0274 0c-0.0116,0.0204 -0.0069,0.0224 -0.0273,0.0274 -0.0033,0.0235 0.0048,0.0217 -0.0183,0.0274 -0.0405,0.0712 -0.0456,0.1069 -0.0456,0.1919l0.0274 0.0092 0.0091 0.0274c0.0204,0.005 0.0158,0.0071 0.0274,0.0274 0.0252,0.0062 0.0362,0.0335 0.0456,0.0548 0.0391,0.0098 0.043,0.0818 0.0821,0.0914l0.0091 0.0274c0.0204,0.0051 0.0158,0.007 0.0274,0.0275l0.0365 0 0.0182 0.0274 0.0274 0 0.0183 0.0274c0.0296,0 0.0414,0.0015 0.0456,0.0274 0.0304,0 0.0572,0.0036 0.073,0.0274 0.0269,0 0.0323,0.0036 0.0547,0.0092l0.0183 0.0274 0.0182 0c0.0165,0.0248 0.0241,0.0274 0.0548,0.0274 0.0037,0.0191 0.0027,0.0197 0.0182,0.0274l0.0091 0.0274 0.0183 0c0.0192,0.0193 0.0324,0.0316 0.0456,0.0549l0.0274 0c0.0053,0.0273 0.0257,0.0449 0.0456,0.0548l0.0091 0.0274c0.031,0.0076 0.0559,0.0091 0.0913,0.0091 0.0296,-0.0371 0.0365,-0.0627 0.0365,-0.1096 -0.0314,-0.0079 -0.0427,-0.0648 -0.0639,-0.0914l-0.0183 0 -0.0091 -0.0274 -0.0365 0c-0.0173,-0.0218 -0.0162,-0.0307 -0.0456,-0.0366 -0.0047,-0.0286 0.0043,-0.0106 -0.0182,-0.0274l-0.0822 -0.1097zm1.1953 0.3199c-0.0434,0.0234 -0.0341,0.0216 -0.073,0.0274 -0.0228,0.0034 -0.0251,0.0163 -0.0547,0.0183 -0.0407,0.0027 -0.0229,0.0134 -0.0456,0.0274 -0.0117,0.0073 -0.0842,0.0172 -0.1004,0.0183 -0.0306,0.002 -0.1,0.0374 -0.1369,0.0183 -0.0087,-0.0044 -0.0088,-0.0162 -0.0182,-0.0183 -0.0098,-0.0021 -0.0262,0 -0.0365,0 -0.0266,0 -0.0231,-0.008 -0.0274,0.0183 -0.0522,0 -0.0497,0.0152 -0.073,0.0548 -0.009,0.0155 -0.0274,0.0522 -0.0274,0.0822 0,0.0594 0.1151,0.0366 0.1552,0.0366 0.0718,0 0.1249,-0.0167 0.1916,-0.0274 0.0212,-0.0034 0.0303,-0.0092 0.0547,-0.0092 0.0433,0 0.0523,-0.0239 0.0913,-0.0274 0.0322,-0.0029 0.0676,0 0.1003,0 0.0425,0 0.0672,-0.0494 0.1004,-0.0548 0.0042,-0.0305 -0.0031,-0.0232 0.0274,-0.0274 0.0022,-0.0156 0.0057,-0.0446 0.0182,-0.0549 0.0185,-0.0154 0.0183,-0.0017 0.0183,-0.0365 0.0187,-0.0125 0.0301,-0.0581 0,-0.0731l-0.1643 0.0274zm6.7429 3.427c0.1078,0 0.2803,-0.0793 0.3011,-0.1828 -0.0428,-0.0213 -0.0791,-0.0971 -0.1095,-0.1371 -0.0377,-0.0494 -0.0619,-0.0775 -0.1095,-0.1096 -0.0885,-0.0599 -0.1415,-0.1099 -0.1916,-0.2102 -0.0388,-0.0779 -0.044,-0.1806 -0.0274,-0.265 0.0528,0 0.0819,-0.0028 0.1186,0.0274 0.0465,0.0382 0.0863,0.09 0.1369,0.1279 0.0671,0.0504 0.1395,0.0939 0.1916,0.1462 0.0426,0.0426 0.1354,0.1384 0.146,0.192 0.0485,0.0068 0.0736,0.121 0.0912,0.1645 0.0364,0.0904 -0.0152,0.2085 -0.0365,0.2924 -0.0105,0.0412 -0.0022,0.0864 -0.0182,0.1279 -0.0186,0.0479 -0.0715,0.041 -0.0822,0.0731 -0.027,0 -0.0552,-0.0014 -0.0821,0 -0.0365,0.002 -0.0445,0.0148 -0.073,0.0275 -0.0282,0.0125 -0.1372,-0.0471 -0.1642,-0.064 -0.0392,-0.0247 -0.1026,-0.0769 -0.146,-0.0823l0.0548 -0.1279zm2.8102 -0.7494c0.0328,-0.1145 0.0433,-0.2344 0.0365,-0.3564 -0.0028,-0.0503 -0.0149,-0.1075 -0.0182,-0.1553 -0.0034,-0.0508 -0.0284,-0.0591 -0.0365,-0.1006 -0.1077,0 -0.1706,0.223 -0.2464,0.2925 -0.0942,0.0865 -0.1489,0.1709 -0.2555,0.2559 -0.1533,0.1224 -0.3985,0.1575 -0.5292,0.2833 -0.1476,0.1419 0.1625,0.2044 0.1825,0.3472 0.023,0.0058 0.015,0.0039 0.0183,0.0274 0.023,0.0058 0.0149,0.004 0.0182,0.0275 0.0236,0.0058 0.0238,0.0054 0.0274,0.0274l0.1551 0c0.0937,0 0.2525,-0.0483 0.3011,-0.128 0.0688,-0.1125 0.1799,-0.1863 0.2555,-0.2924l0.0912 -0.2285zm-1.8248 -2.239c-0.0312,0 -0.1496,-0.0113 -0.1734,0 -0.032,0.0153 -0.0142,0.0183 -0.0547,0.0183 -0.047,0 -0.0956,0.0092 -0.146,0.0092 -0.0289,0 -0.0224,0.0193 -0.0456,0.0274 -0.0086,0.0029 -0.0192,-0.0036 -0.0274,0 -0.0094,0.004 -0.0253,0.0205 -0.0365,0.0274 -0.0747,0.0458 -0.0342,0.1498 0.0274,0.1736 0.0141,0.0055 0.0194,0.0231 0.0273,0.0274 0.0101,0.0056 0.068,0 0.0822,0 0.0513,0 0.0513,-0.0176 0.1003,-0.0274 0.0449,-0.0089 0.0628,-0.0251 0.1095,-0.0274 0.0412,-0.002 0.051,-0.0148 0.0821,-0.0274 0.0144,-0.0059 0.0476,0.0032 0.0639,0 0.0261,-0.0053 0.0241,-0.0164 0.0456,-0.0274 0.0127,-0.0066 0.064,0.0009 0.0821,0 0.0565,-0.0028 0.0998,-0.0248 0.1552,-0.0366 0.0459,-0.0097 0.0642,-0.0526 0.0821,-0.0822 -0.0542,-0.0409 -0.1216,-0.0274 -0.1916,-0.0274l-0.1825 -0.0275zm1.3504 0l-0.1186 0c-0.0711,0 -0.1334,0.0506 -0.2099,0.0549 -0.0427,0.0023 -0.0754,0.02 -0.1186,0.0274 -0.0471,0.008 -0.14,0.0458 -0.1734,0.0822 -0.0168,0.0182 -0.0852,0.0917 -0.0638,0.128 0.0155,0.0265 0.2423,0.0298 0.2737,0.0183 0.0345,-0.0125 0.0747,-0.033 0.1095,-0.0457 0.0485,-0.0176 0.3407,-0.2001 0.3467,-0.1188 0.0079,0.1053 -0.1163,0.1561 -0.1825,0.201 -0.0631,0.0427 -0.1089,0.0892 -0.1277,0.1462 0.1074,0 0.2164,-0.0018 0.3102,-0.0365 0.1011,-0.0375 0.1742,-0.0763 0.2646,-0.1371 0.0638,-0.043 0.103,-0.1641 0.0274,-0.2102 -0.0256,-0.0157 -0.0657,-0.0524 -0.1004,-0.0548 -0.0503,-0.0034 -0.0832,-0.0274 -0.1186,-0.0274l-0.1186 -0.0275zm2.1168 0.1188c-0.0935,-0.0214 -0.2049,-0.0091 -0.3011,-0.0091 -0.0298,0 -0.0458,0.0039 -0.073,0.0091 -0.0173,0.0032 -0.0488,-0.0057 -0.0639,0 -0.0098,0.0038 -0.0298,0.0123 -0.0456,0.0183 -0.012,0.0045 -0.016,0.0217 -0.0274,0.0274l-0.0182 0.0092 -0.0183 0c-0.0134,0 -0.016,0.02 -0.0273,0.0274 -0.0113,0.0075 -0.0088,0.0114 -0.0183,0.0274 0.0269,0 0.034,0.0247 0.0639,0.0274 0.0121,0.001 0.0247,-0.0024 0.0365,0 0.0324,0.0065 0.0408,0.0274 0.0821,0.0274l0.2099 0c0.0606,0 0.1192,0.012 0.1733,0 0.038,-0.0085 0.0201,-0.001 0.0457,-0.0182 0.0254,-0.0169 0.0609,-0.0186 0.0821,-0.0457 0.0187,-0.0237 0.0273,-0.0465 0.0273,-0.0731l-0.1277 -0.0275zm-0.4562 1.9192c-0.0574,0 -0.1325,-0.0082 -0.1825,-0.0274 -0.0114,-0.0043 -0.0597,-0.0085 -0.073,-0.0092 -0.0894,-0.0049 -0.1576,-0.0756 -0.2463,-0.0822 -0.0361,-0.0027 -0.0508,-0.0122 -0.0822,0 -0.0518,0.02 -0.0352,0.0631 -0.0638,0.0822 0,0.0483 -0.043,0.0736 -0.0548,0.1188 -0.0096,0.0364 -0.0307,0.1272 -0.0456,0.1371 0,0.0206 0.0039,0.0187 -0.0091,0.0274 0,0.0231 0.0054,0.0544 -0.0092,0.064 0,0.0633 -0.0547,0.0919 0.0274,0.1097 0.0323,0.0069 0.0241,0.0228 0.0548,0.0274 0.0538,0.008 0.1464,0.0382 0.1916,0.0731 0.0318,0.0247 0.1149,0.0731 0.1642,0.0731 0.0214,0.032 0.1282,0.0758 0.1734,0.0914 0.0688,0.0236 0.1659,0.0271 0.2372,0.0091 0.0056,-0.0457 0.0188,-0.0825 0.0274,-0.1279 0.0173,-0.0903 0.0388,-0.186 0.0547,-0.2742 0.0123,-0.068 -0.0182,-0.1519 -0.0182,-0.2193l-0.146 -0.0731zm0.6661 -0.8408c-0.2125,0.0494 -0.4339,0.002 -0.657,0.0274 -0.0143,0.0016 -0.0757,0.0874 -0.0821,0.1006 -0.0347,0.0722 -0.1515,0.1226 -0.2099,0.1645 -0.0532,0.0383 -0.1811,0.1644 -0.2372,0.1644 0.0124,0.0382 0.1478,0.0224 0.1825,0.0366 0.0602,0.0245 0.1233,0.0342 0.1825,0.0548 0.0741,0.0257 0.1264,0.0823 0.219,0.0823 0.0607,0 0.1574,-0.0664 0.2007,-0.1005 0.0918,-0.0721 0.1964,-0.106 0.3011,-0.1463 0.0773,-0.0298 0.2081,-0.0938 0.1551,-0.1827l-0.0547 -0.2011zm0.2646 0.064c-0.0042,-0.0589 -0.0196,-0.1462 -0.0822,-0.1462l-0.4562 0c-0.2099,0 0.1026,-0.1626 0.1369,-0.1919 0.1374,-0.1178 0.2175,-0.2504 0.3558,-0.3747 0.0472,-0.0423 0.1458,0.0185 0.1917,0.0274 0.0935,0.018 0.2054,-0.0092 0.3011,-0.0092 -0.0381,0.0632 -0.0895,0.1159 -0.1278,0.1828 -0.0292,0.0508 -0.0367,0.0966 -0.0639,0.1462 -0.0357,0.0653 -0.073,0.1489 -0.073,0.2285 0,0.0607 0.0002,0.0501 -0.0364,0.0823 -0.022,0.0195 -0.0624,0.0758 -0.0822,0.0822l-0.0638 -0.0274zm0.8668 -1.0327c-0.0433,-0.0099 -0.0364,0.0003 -0.0548,-0.0274l-0.1003 0c-0.0393,0 -0.072,-0.0074 -0.1095,-0.0091 -0.0361,-0.0016 -0.0424,-0.0154 -0.073,-0.0183 -0.02,-0.0018 -0.0436,0 -0.0639,0 -0.0091,0 -0.0193,-0.0039 -0.0274,0 -0.0132,0.0062 -0.0222,0.0151 -0.0365,0.0183 -0.0262,0.006 -0.038,0.031 -0.0547,0.0365 0,0.0334 -0.0027,0.027 0.0091,0.0548 0.0308,0.0062 0.0539,0.0382 0.0821,0.0549 0.0301,0.0177 0.0649,0.0376 0.0913,0.0639l0.0365 0 0.0091 0.0275 0.0274 0c0.0054,0.0389 0.0308,0.0698 0.0365,0.1096l0.0182 0 0.0183 0.0274c0.0294,0 0.0448,0.0092 0.073,0.0092 0.0288,0.0348 0.0723,0.0274 0.1186,0.0274 0.0313,0.0378 0.1118,0.0274 0.1642,0.0274 0,-0.027 0.0016,-0.0554 0,-0.0822 -0.0021,-0.0367 -0.0238,-0.0554 -0.0274,-0.0914 -0.0264,-0.0044 -0.0182,0.0051 -0.0182,-0.0274l-0.0183 0 -0.0091 -0.0092 -0.0912 -0.1919zm1.0493 -0.064c-0.0969,0.0209 -0.211,0.0092 -0.3103,0.0092 -0.1015,0 -0.184,-0.0523 -0.2828,-0.0274 -0.0014,0.0102 -0.0066,0.0175 -0.0091,0.0274 -0.0119,0.047 -0.0092,0.1057 -0.0092,0.1645l0 0.0914c0,0.0335 0.0142,0.0524 0.0183,0.0822l0.0274 0c0.0159,0.04 0.0527,0.0274 0.0912,0.0274l0.1095 0c0.0232,0 0.0536,-0.0056 0.073,0.0092 0.0101,0.0078 0.0149,0.0158 0.0274,0.0182 0.038,0.0073 0.0211,0.0258 0.0547,0.0366 0.0112,0.0036 0.0419,0 0.0547,0 0.0274,0 0.0715,0.0364 0.1004,0.0183 0.0108,-0.0068 0.0148,-0.0163 0.0274,-0.0183 0.1236,-0.0202 0.004,-0.2183 0.0821,-0.2376l-0.0547 -0.2011zm1.0584 0.1737c-0.0325,-0.0743 -0.0945,-0.1247 -0.1095,-0.2011 -0.0221,0 -0.0316,-0.0126 -0.0365,-0.0274 -0.1952,0 -0.4276,-0.1371 -0.6296,-0.1371 0,0.0692 0.0574,0.1669 0.0639,0.2742 0.0083,0.1355 0.0883,0.8176 0.1825,0.8407 0.0132,0.0676 0.2227,0.2294 0.2828,0.2833 0.0774,0.0696 0.3202,0.1597 0.3376,0.2833 0.1027,0.0207 0.215,0.1518 0.2829,0.2285 0.1163,0.1312 0.1495,0.1554 0.3193,0.1554 0.0467,-0.1434 0.0202,-1.1014 -0.1368,-1.1241 -0.022,-0.131 -0.3414,-0.2081 -0.3833,-0.3473l-0.1733 -0.2284z"/>
 </g>
</svg>
