<?xml version="1.0" encoding="UTF-8"?>
<!DOCTYPE svg PUBLIC "-//W3C//DTD SVG 1.1//EN" "http://www.w3.org/Graphics/SVG/1.1/DTD/svg11.dtd">
<!-- Creator: CorelDRAW -->
<svg xmlns="http://www.w3.org/2000/svg" xml:space="preserve" width="297mm" height="210mm" style="shape-rendering:geometricPrecision; text-rendering:geometricPrecision; image-rendering:optimizeQuality; fill-rule:evenodd; clip-rule:evenodd"
viewBox="0 0 297 210"
 xmlns:xlink="http://www.w3.org/1999/xlink">
 <defs>
  <style type="text/css">
   <![CDATA[
    .str2 {stroke:#2F3133;stroke-width:0.1}
    .str1 {stroke:black;stroke-width:0.1;stroke-opacity:0.501961}
    .str0 {stroke:black;stroke-width:0.1}
    .str3 {stroke:black;stroke-width:0.5}
    .fil5 {fill:none}
    .fil0 {fill:white}
    .fil2 {fill:#1F1A17;fill-rule:nonzero}
    .fil3 {fill:#C2C1C1;fill-rule:nonzero}
    .fil4 {fill:white;fill-rule:nonzero}
    .fil6 {fill:black;fill-rule:nonzero}
    .fil1 {fill:white;fill-rule:nonzero;fill-opacity:0.501961}
   ]]>
  </style>
 </defs>
 <g id="Plan_x0020_1">
  <metadata id="CorelCorpID_0Corel-Layer"/>
  <path class="fil0 str0" d="M67.7811 158.616l158.457 0.0102 0 0 0.5297 0.1371c0.0757,-0.2281 0.1086,-0.453 0.1825,-0.6763 0.0775,-0.2345 0.2216,-0.445 0.3102,-0.6671 0.1032,-0.0387 0.2709,-0.4064 0.3741,-0.5118 0.1563,-0.1594 0.2721,-0.4054 0.4471,-0.5483 0.3081,-0.2514 0.7014,-0.6534 0.9581,-0.9687 1.0008,-1.34 2.6735,-1.9515 4.0329,-2.6959 1.2595,-0.6896 3.7599,-0.637 5.1461,-0.3747 0.5378,0.1018 2.1594,0.4012 2.5092,0.7951 0.0719,0.0088 0.166,0.084 0.2201,0.1255l1.0801 0.6139 0 0c0.2041,-0.0877 0.4006,-0.1891 0.5794,-0.3191 1.1328,-0.8239 2.4212,-2.1763 3.8048,-2.5222 0.6646,-0.1815 1.5655,-0.2388 2.2445,-0.0457 1.1965,0.3404 1.9745,-1.1418 2.9472,-1.4714 0.5892,-0.1997 2.1454,-0.0583 2.5092,-0.5666l0 0c0.0625,-0.0208 0.018,-0.0433 0.073,-0.0822 0.8414,-0.5966 -0.5857,-2.761 0.4288,-3.6372 0.5305,-0.4583 1.2436,-0.5428 1.8613,-0.8316 0.8801,-0.4114 1.0375,-0.7886 1.3869,-1.6633 0.0459,-0.1148 0.2246,-0.2313 0.3285,-0.2924 0.3932,-0.2315 0.8013,-0.1927 1.2044,-0.4478 1.2494,-0.7906 2.4774,-2.8513 4.0968,-2.8513 1.4337,0 3.4884,-1.1341 3.8596,-2.5588 0.0875,-0.3357 0.2468,-0.7582 0.6113,-0.658 0.4958,0.1362 1.1545,0.723 1.6059,0.1737 0.7209,-0.877 1.7853,-0.2208 2.3084,-1.4714 0.3911,-0.9348 -0.6853,-1.5225 -1.2865,-2.0927 -0.4112,-0.3901 -0.4862,-1.6191 -0.9398,-1.8917 -0.6995,-0.4204 -1.3992,-0.8408 -2.0986,-1.2612 -0.1215,-0.073 -0.3954,-0.175 -0.5018,-0.2559 -0.5166,-0.3925 -0.4732,-0.9531 -0.6205,-1.5444 -0.356,-1.4294 -1.335,-1.7668 -2.4727,-2.4766 -0.3986,-0.2487 -1.1299,-0.7085 -1.3503,-1.1149 -0.0785,-0.1447 -0.1106,-0.5138 -0.1369,-0.6854 -0.073,-0.4761 -0.2184,-0.7566 -0.3832,-1.2154 -0.0273,-0.0761 -0.0548,-0.1524 -0.0821,-0.2285 -0.2963,-0.8252 -0.2378,-1.2291 -1.1497,-1.6907 -0.5844,-0.2959 -1.3289,0.2003 -1.98,0.0549 -1.3121,-0.293 -1.5903,-1.2464 -1.8978,-2.367 -0.1496,-0.545 0.1342,-0.9291 0.2007,-1.4347 0.0881,-0.6706 0.2615,-1.3332 0.1278,-2.0014 -0.006,-0.0304 -0.0122,-0.061 -0.0183,-0.0914 -0.2632,-1.3157 -0.1507,-2.0871 -1.104,-2.8604 -0.7144,-0.5796 -1.9769,-1.4419 -2.8833,-0.3838 -0.4031,0.4706 -0.8187,0.125 -1.3504,-0.2102 -0.8201,-0.5169 0.2186,-1.2036 -0.1369,-1.8552 -0.161,-0.2953 -0.5346,-0.5249 -0.1459,-0.8407 0.2198,-0.1787 0.566,-0.437 0.2919,-0.8042 -0.0279,-0.0375 -0.0185,-0.0985 -0.0547,-0.128 -0.3033,-0.2469 -0.4843,-0.7611 -0.3285,-1.06 0.1448,-0.2776 1.0966,-0.8958 0.8577,-1.2338 -0.2664,-0.3767 -0.9579,-0.1415 -1.1405,-0.6488 -0.1575,-0.4378 -0.062,-0.8048 0.2919,-1.1789 0.6832,-0.7219 0.9079,-0.9835 0.2281,-1.8095 -0.7968,-0.968 0.6223,-0.833 0.7482,-1.6906 0.133,-0.9052 0.7154,-0.4097 1.2592,-0.2285 0.5604,0.1866 0.6757,-0.2371 0.9215,-0.6214 0.2016,-0.3154 0.5885,-0.2233 0.8395,-0.4661 0.2526,-0.2445 0.1008,-0.5432 0.1916,-0.8316 0.1296,-0.4118 0.6583,-0.6674 0.5748,-1.0692 -0.0797,-0.3839 -0.9288,-0.7905 -0.4562,-1.2063 0.4814,-0.4237 1.9463,0.3863 2.053,-0.8408 0.0958,-1.1012 -1.092,-0.8893 -1.1315,-1.91 -0.007,-0.1834 0.0847,-0.3589 0.0457,-0.5392 -0.0611,-0.2818 -0.3059,-0.4926 -0.4927,-0.7219 -0.3398,-0.4169 -0.8173,-0.7145 -1.0585,-1.2337 -0.1048,-0.2254 -0.1069,-0.4522 -0.1916,-0.6763 -0.0992,-0.2622 -0.1126,-0.5247 -0.2646,-0.7677 -1.2373,-1.9786 1.9689,-2.8279 3.3206,-3.692 1.0902,-0.6968 0.8165,-1.3649 1.5511,-2.1933 0.4468,-0.5038 2.1976,-0.5418 1.8796,-1.2428 -0.1788,-0.3944 -0.9768,0.3906 -1.4234,0.1279 -0.2332,-0.1371 0.3263,-1.3233 0.584,-1.4074 0.3181,-0.1037 0.7545,0.0133 1.0949,-0.1279 0.4454,-0.1847 1.1141,-0.5816 1.3686,-0.987 0.2372,-0.3776 0.4744,-0.7555 0.7117,-1.1332 0.5159,-0.8215 2.3134,-2.9089 1.9891,-3.7468 -0.2036,-0.526 -0.0514,-1.6222 0.3467,-1.8826 0.8797,-0.5756 0.5275,-2.2077 1.8431,-2.7416 1.0185,-0.4132 0.3293,-1.1804 1.3504,-1.316 0.4312,-0.0573 0.7083,-1.0351 1.4416,-1.2794 0.4118,-0.1372 1.9878,-0.372 2.3897,-0.871l0 0c0.1405,-0.1745 0.1376,-0.3814 -0.1087,-0.6277 -0.722,-0.722 -0.3668,-0.4595 -0.6569,-1.2246 -0.1671,-0.4405 -1.109,0.0919 -1.2226,-0.6397 -0.0317,-0.204 0.5058,-1.4097 0.0365,-1.517 -0.1518,-0.0347 -0.4436,0.2803 -0.5657,0.3107 -0.2367,0.0589 -0.5749,-0.1648 -0.8577,-0.0549 -0.254,0.0988 -0.8984,0.9223 -0.9489,-0.0731 -0.0142,-0.2815 -0.1711,-1.2924 -0.6752,-0.8407 -0.3328,0.2981 -0.127,0.7572 -0.8212,0.7128 -0.6273,-0.0402 -0.6309,-0.8034 -1.0767,-1.0053 -0.3613,-0.1635 -1.5615,0.8979 -1.7883,0.329 -0.1275,-0.3197 0.3383,-1.188 -0.1278,-1.188 -1.1623,0 -1.0113,-1.1713 -1.6058,-1.2611 -0.1606,-0.0242 -0.5443,0.329 -0.8942,0.329 -0.5353,0 -0.7862,-0.0059 -1.0949,-0.3473 -0.2101,-0.2325 -0.6425,-1.361 -0.7847,-1.645 -0.1735,-0.3462 -0.8652,-0.9764 -1.0036,-1.316 -0.2548,-0.6254 0.3678,-1.1727 -0.2555,-1.7363 -0.5161,-0.4665 -0.9269,-1.2169 -1.4964,-1.6632 -0.4733,-0.3708 0.3592,-1.6643 0.4927,-2.0106 0.1453,-0.3766 -0.1009,-1.1652 -0.1642,-1.5535 -0.0927,-0.5694 0.3653,-0.9551 0.1642,-1.5353 -0.1362,-0.3932 -0.6439,-0.8386 -0.6752,-1.1881 -0.0463,-0.5181 1.0402,-0.1445 1.0402,-0.9687 0,-0.5788 -0.5927,-0.795 -0.511,-1.846 0.0908,-1.1674 -2.5143,-0.7556 -2.1168,-1.9556 0.1052,-0.3176 1.9094,-0.8105 1.2409,-1.4805 -0.315,-0.3156 -1.3012,-0.0061 -1.5146,-0.5118 -0.396,-0.9384 -0.0106,-1.6776 -1.3686,-1.7546 -0.1835,-0.0104 -0.951,-0.0284 -1.0767,-0.1279 -0.2953,-0.2336 -0.1846,-1.3052 -0.584,-1.0419 -0.506,0.3337 -0.4958,0.1908 -0.9854,0.0366 -0.795,-0.2503 -1.014,0.8806 -1.4598,0.5118 -0.5333,-0.441 -0.6297,0.25 -1.0402,0.0182 -0.4077,-0.2303 -0.1109,-0.5619 -0.0548,-0.9321 0.0993,-0.6549 -1.209,-0.3055 -0.4014,-1.4256 0.2667,-0.3698 -0.3716,-1.2632 -0.4197,-1.7364 -0.0325,-0.3207 0.0853,-1.2123 -0.219,-1.2977 -0.2441,-0.0684 -0.6627,0.7912 -1.1314,0.2376 -0.3143,-0.3714 -0.1705,-0.7742 -0.8029,-0.8225 -0.7093,-0.0541 -0.2809,-1.4923 -0.9672,-1.8825 -0.1406,-0.08 -0.3014,-0.1282 -0.471,-0.1627l-7.8771 0.0165 -1.6242 -0.2102 -5.5531 0.0399 -13.4316 0.182 -10.3985 -0.2494 -27.5667 0.0674 -3.9351 0.2266 -118.26 0 0 -15.7448 0 0c-0.2997,0.1086 -0.5876,0.1801 -0.8408,0.1801 -0.4053,0.3163 -1.5112,1.1984 -1.9799,1.316 -0.636,0.848 -1.9837,0.4969 -2.8012,1.2246 -0.7525,0.67 -1.4631,1.1367 -2.3997,1.4987l-3.5767 2.2207c-0.2471,0.1534 -2.0256,1.1618 -2.0256,0.8225 0,-0.6658 -0.0019,-0.2289 -0.4288,-0.2833 -0.0234,-0.003 -0.0176,0.659 -0.5657,0.859 -0.4948,0.1805 -1.7159,0.8951 -2.0439,1.3251 -0.4915,0.6441 -0.1668,-0.458 -0.1003,-0.6671 0.1403,-0.4415 0.3373,-0.8484 0.6569,-1.1423 0.4617,-0.4244 0.8518,-0.3377 1.4417,-0.5118 0.1806,-0.0532 0.5259,-0.2683 0.5292,-0.265 0.5888,0.5888 0.6743,-0.1644 0.2372,-0.4569 0.291,-0.0984 0.8787,-0.3458 0.3376,-0.5849 -0.3375,-0.1492 -1.0329,0.141 -1.3504,0.2467 -1.0639,0.354 -1.7805,1.8528 -2.053,2.8878 -0.1465,0.5563 -0.4938,1.3066 -1.1405,1.3252 -0.594,0.0734 -1.3475,0.9496 -2.0529,1.1149 -0.6977,0.1636 -0.9276,0.4733 -1.5603,0.8042l-3.8961 2.0379c-0.5271,0.2757 -2.0443,0.6398 -2.427,1.0235 -0.3752,0.0314 -1.5751,0.5872 -1.8796,0.8591 -0.066,0 -0.2605,0.0661 -0.3102,0.1096 -0.0655,0 -0.0797,0.0228 -0.146,0.064 -0.6785,0.2696 -1.4516,0.6856 -2.2187,0.9652l0 0 -0.005 76.5533 0 0 0.0001 51.6948 44.7006 -0.0482 0 0z"/>
 </g>
</svg>
