<?xml version="1.0" encoding="UTF-8"?>
<!DOCTYPE svg PUBLIC "-//W3C//DTD SVG 1.1//EN" "http://www.w3.org/Graphics/SVG/1.1/DTD/svg11.dtd">
<!-- Creator: CorelDRAW -->
<svg xmlns="http://www.w3.org/2000/svg" xml:space="preserve" width="297mm" height="210mm" style="shape-rendering:geometricPrecision; text-rendering:geometricPrecision; image-rendering:optimizeQuality; fill-rule:evenodd; clip-rule:evenodd"
viewBox="0 0 297 210"
 xmlns:xlink="http://www.w3.org/1999/xlink">
 <defs>
  <style type="text/css">
   <![CDATA[
    .str2 {stroke:#2F3133;stroke-width:0.1}
    .str1 {stroke:black;stroke-width:0.1;stroke-opacity:0.501961}
    .str0 {stroke:black;stroke-width:0.1}
    .str3 {stroke:black;stroke-width:0.5}
    .fil5 {fill:none}
    .fil0 {fill:white}
    .fil4 {fill:#1F1A17;fill-rule:nonzero}
    .fil2 {fill:#C2C1C1;fill-rule:nonzero}
    .fil3 {fill:white;fill-rule:nonzero}
    .fil6 {fill:black;fill-rule:nonzero}
    .fil1 {fill:white;fill-rule:nonzero;fill-opacity:0.501961}
   ]]>
  </style>
 </defs>
 <g id="Plan_x0020_1">
  <metadata id="CorelCorpID_0Corel-Layer"/>
  <path class="fil0 str0" d="M138.508 161.687c0.1965,0.1965 0.1413,0.3393 0.2457,0.5616 0.2051,0.4371 1.1188,0.1884 1.2519,0.7254 0.6355,0.1575 1.3189,0.2925 2.0007,0.2925 0.4638,0 1.0409,-0.0643 1.4742,0.1404 0.4239,0.2004 0.4092,0.4598 0.9477,0.5265 0.4788,0 1.4753,0.6029 0.8307,1.0764 -0.18,0.1323 -0.6125,0.3282 -0.5148,0.585 0.0902,0.2369 0.0352,0.6668 0.1404,0.8424 0.3387,0 0.6125,-0.7254 1.0881,-0.7254 0.2709,0 0.4997,0.1742 0.7839,0.2106 0.3171,0.0405 0.551,-0.151 0.8073,0.1053 0.3585,0.3585 1.1316,-0.2392 1.4508,0.3627 0.1334,0.2515 0.3015,0.658 0.3744,0.936 0.0889,0.3395 -0.3135,0.5381 -0.5499,0.702 -0.3996,0.2769 -0.7362,0.8715 -1.1232,1.2168 -0.3048,0.2718 -0.9552,0.8094 -1.3572,0.8892 -0.2939,0.3429 -0.8392,0.5958 -1.1583,0.9477 -0.7848,0.8658 -1.6225,1.5015 -2.3166,2.4804 -0.1855,0.2615 -0.6908,1.1383 -1.0413,1.1115 -0.3016,-0.0231 -0.4795,-1.7302 -0.5382,-2.0943 -0.0594,-0.3688 -0.0175,-0.7814 0,-1.1466 0.006,-0.1251 -0.4717,-0.6945 -0.5967,-0.7254 0,1.0216 0.1773,2.1431 -0.0234,3.1473 -0.0797,0.3986 -1.1471,-0.1658 -1.3221,-0.3159 -0.4712,-0.4039 -0.9162,-1.1818 -1.2519,-1.7199 0.3126,-0.3942 0.8184,-0.3971 1.1232,-0.7605 0.28,-0.334 0.3455,-0.3212 0.702,-0.4095 0,-0.0773 -0.1409,-0.3992 -0.1755,-0.5031 -0.052,-0.1565 0.1416,-0.2609 0.1755,-0.3978 -0.3785,0 -0.6208,0.2306 -0.9477,-0.1755 -0.2525,-0.3135 -0.2646,-0.4601 -0.2223,-0.8073 0.0435,-0.3563 -0.2379,-0.2766 -0.5265,-0.351 -1.1092,-0.286 0.0439,0.682 0.117,1.1583 0.0333,0.2176 -0.9833,0.2538 -1.17,0.1755 -0.5843,-0.2449 -1.1765,-1.1309 -1.2051,-1.755 -0.0158,-0.3439 -0.3548,-0.3272 -0.585,-0.4797 -0.3692,-0.2448 -0.486,-0.9576 -0.6669,-1.3455 -0.1671,-0.308 -0.69,-1.2015 -0.2457,-1.4976 0.5002,-0.3335 0.8766,-0.7353 0.7254,-1.3455 -0.2311,-0.0573 -0.5166,0.0619 -0.7371,0.117 -0.5153,0.1287 -0.4935,-0.3273 -0.6318,-0.6669 -0.1118,-0.2743 -0.1343,-0.6635 0.2808,-0.5967 0.3003,0.0484 0.5452,0.0276 0.819,-0.0819 0.2551,-0.1019 0.3308,0.0209 0.4212,0.2457 0.1962,0.4873 0.2122,-0.5642 0.4212,-0.6786 0.2531,-0.1387 0.3916,-0.2192 0.6318,-0.3978 0.2921,-0.217 1.6633,0.1018 1.872,0.3627l0.2223 0.0585zm65.8944 -39.0078c-0.0316,-0.1375 -0.0819,-0.2653 -0.0819,-0.4095 0,-0.2643 0.1958,-1.17 -0.2223,-1.17 0,0.2074 0.0624,0.5157 0.0117,0.7137 -0.0309,0.1204 -0.0684,0.1361 -0.1989,0.1287 -0.1708,-0.0098 -0.2524,0.0108 -0.3978,0.0468 0,0.0818 0.0851,0.28 0.1287,0.351 0.0565,0.0918 0.1942,0.1257 0.2574,0.2106 0.0895,0.1205 0.3058,0.1849 0.3744,0.3393 0.0651,0.1468 0.234,0.2682 0.234,0 -0.0228,-0.0075 -0.0006,-0.0042 -0.0234,-0.0117l-0.0819 -0.1989zm-1.9188 -0.2106c-0.1015,-0.2199 -0.1301,-0.4797 -0.4446,-0.4797 -0.0294,0.0887 -0.0642,0.1441 -0.0234,0.2574 0.1355,0.3754 0.558,0.5775 0.9009,0.7488 0.086,0.043 0.1793,0.0638 0.2691,0.0936 0.0273,0.0091 0.1586,0.0338 0.1638,-0.0117 0.0061,-0.0539 -0.2253,-0.2095 -0.2691,-0.2574 -0.0829,-0.0909 -0.2757,-0.274 -0.3978,-0.3042l-0.1989 -0.0468zm-3.1473 10.2258c-0.2214,0.129 -0.2236,0.7112 -0.3627,0.9126 -0.059,0.0856 -0.0971,0.313 -0.1053,0.4212 -0.0113,0.1475 -0.1125,0.215 -0.1404,0.3276 -0.202,0.05 -0.2577,-0.2808 -0.4446,-0.2808 0,0.1739 0.117,0.3444 0.117,0.5499 0,0.3541 -0.0512,0.5995 -0.1404,0.936 -0.0637,0.2406 -0.2106,0.5513 -0.2106,0.7839 0.0314,0 0.0623,-0.0032 0.0702,-0.0351 0.2293,-0.0568 0.6977,-1.5922 0.7956,-1.8369 0.2114,-0.5288 0.5382,-1.1232 0.5382,-1.6731l-0.117 -0.1053zm-1.8954 3.2994c-0.1204,0.0277 -0.3428,0.0252 -0.4563,0 -0.1213,-0.0269 -0.2471,-0.0351 -0.3744,-0.0351 -0.1869,0 -0.4493,-0.0526 -0.5382,0.1521 -0.0723,0.1662 0.1634,0.2644 0.2925,0.2574 0.1378,-0.0074 0.2592,-0.0585 0.3978,-0.0585 0.3223,0 0.6498,0.0767 0.9594,0l0 -0.0351c-0.036,-0.0241 -0.1268,-0.1672 -0.1404,-0.2223l-0.1404 -0.0585zm-15.327 9.9099c0.0402,-0.5275 0.5905,-0.8652 1.0179,-0.9711l0 -0.0234c0.0292,0 0.0483,-0.0117 0.0819,-0.0117 0,-0.3279 -0.2114,-0.3507 0.0585,-0.7137 0.3956,-0.5323 1.063,-0.5375 1.5795,-0.7956 0.4964,-0.2482 0.8757,-0.6603 1.3572,-0.9009 0.476,-0.238 0.663,-0.7121 0.9477,-1.1232 0.1775,-0.2565 1.4309,-1.4224 1.7082,-1.2519 0.2776,0.1708 -0.1376,1.481 -0.3744,1.6146l-1.4508 0.819 -1.9188 1.053c-0.2184,0.1198 -1.3947,0.7562 -1.4508,0.9828 -0.0238,0.0058 -0.041,0.023 -0.0468,0.0468 -0.0238,0.0058 -0.041,0.023 -0.0468,0.0468 -0.0289,0.0071 -0.0507,0.0391 -0.0819,0.0468 -0.0047,0.019 -0.0339,0.066 -0.0468,0.0702 0,0.3362 -0.0285,0.6224 -0.234,0.8775 -0.0566,0.0704 -0.3133,0.339 -0.3861,0.3744 -0.1545,0.0751 -0.4293,-0.0044 -0.5148,0.0468l-0.1989 -0.1872zm-0.1287 0.3861c-0.0149,0.0179 -0.0274,0.0339 -0.0468,0.0468 0,0.8426 -1.4176,0.6847 -1.9188,1.053 -0.3796,0.2788 -1.75,0.971 -1.8486,1.3689 -0.6181,0 -0.747,0.3854 -1.2051,0.5733 -0.4716,0.1933 -0.6995,-0.1755 -1.1349,-0.1755l-0.0117 0.0117c0,1.1387 2.3866,0.4393 2.5506,-0.2223l0.0117 -0.0117c0.015,-0.0037 0.0201,-0.008 0.0351,-0.0117 0.0132,-0.0399 0.3005,-0.0976 0.3627,-0.1287 0.8031,-0.4014 1.143,-1.0407 2.0826,-1.2285 0.3013,-0.0602 2.2362,-0.6149 1.4157,-1.2285l-0.2925 -0.0468zm-6.3297 4.1184c-0.0245,0.1227 -0.035,0.2634 -0.0468,0.3861 -0.033,0.3435 -0.5613,0.4186 -0.6318,0.7722 -0.038,0.1907 -0.1876,0.3248 -0.2457,0.5031 -0.0688,0.2109 -0.0392,0.321 0.0117,0.5265 0.1779,0 0.3289,-0.4977 0.4212,-0.6201 0.1193,-0.1584 0.2579,-0.2766 0.3744,-0.4212 0.1477,-0.1835 0.2501,-0.2768 0.2691,-0.5265 0.0073,-0.0962 -0.0025,-0.3814 -0.0585,-0.4563 -0.0152,0.0204 -0.0047,0.0289 -0.0234,0.0351l-0.0702 -0.1989zm-0.702 2.8548c-0.4435,0.6408 -1.1381,1.0616 -1.872,1.3338 -0.3086,0.1145 -0.7261,0.2367 -0.9711,0.4563 -0.1392,0.1249 -0.6876,0.5493 -0.7254,0.702 0.2732,0 0.6624,-0.3878 0.9009,-0.5265 0.5505,-0.3201 1.1484,-0.4453 1.7316,-0.6786 0.3835,-0.1533 0.9288,-0.6929 1.0296,-1.0998l-0.0936 -0.1872zm-12.4699 7.4117c-0.1051,0.0808 -0.1968,0.1236 -0.3306,0.1392 -0.0724,0.0085 -0.1469,0.0116 -0.2204,0.0116 -0.0724,0 -0.1352,0.0157 -0.203,0.0232 -0.0372,0.0522 -0.0911,0.0846 -0.0058,0.1334 0.0572,0.0328 0.1322,0.0505 0.1972,0.058 0.1026,0.012 0.2122,0.0175 0.3132,0.0348 0.0511,0.0088 0.0912,0.0232 0.145,0.0232 0.0432,0 0.0658,-0.0184 0.1044,-0.0232 0.0261,-0.0458 0.0609,-0.0695 0.087,-0.1218 0.0304,-0.0612 0.014,-0.1382 0.0464,-0.203l-0.1334 -0.0754zm-1.9198 -0.4524c0.1911,-0.0716 0.369,-0.178 0.4118,-0.3886 0.0196,-0.0968 0.0174,-0.2075 0.0174,-0.3074 0,-0.0561 -0.0062,-0.2044 0.0232,-0.2436 0.1041,0.026 0.2599,0.1965 0.3016,0.29 0.0563,0.1265 0.0795,0.151 0.0058,0.2784 -0.0869,0.15 -0.2355,0.2635 -0.3712,0.3654 -0.1248,0.0936 -0.3141,0.2146 -0.4756,0.2146 -0.0044,-0.0178 -0.0146,-0.0298 -0.0174,-0.0522l0.1044 -0.1566zm-9.0132 3.4394c0.1717,0.2403 0.2033,0.4013 0.4524,0.5916 0.1899,0.145 0.448,0.0169 0.5974,-0.1218 0.0989,-0.0917 0.1712,-0.3734 0.3132,-0.3828 0.2099,-0.0138 0.4315,-0.0632 0.5394,-0.2668 0.0771,-0.1457 0.1752,-0.754 0.348,-0.754 0.2436,0.3046 0.203,0.7796 -0.1276,0.9918 -0.1977,0.1268 -0.5995,0.0585 -0.696,0.2552 -0.0649,0.1321 -0.1167,0.3756 -0.2262,0.464 -0.1779,0.1435 -0.7008,0.2573 -0.9164,0.203 -0.3075,-0.0776 -0.4241,-0.5149 -0.3596,-0.7946l0.0754 -0.1856zm-5.1098 1.3166c0.0969,-0.1938 0.2476,-0.3886 0.4814,-0.3886 0.1262,0 0.2313,-0.019 0.348,-0.0696 0.0766,-0.0331 0.2555,-0.0926 0.3364,-0.0522 0.0964,0.1543 0.2265,0.4848 0.1624,0.6612 -0.1905,0.1361 -0.4804,0.0291 -0.7018,0 -0.0964,-0.0127 -0.1914,-0.0258 -0.29,-0.0348 -0.1097,-0.0101 -0.2089,-0.0928 -0.3074,-0.0928l-0.029 -0.0232zm3.6619 7.0164c-0.1402,-0.1186 -0.3461,-0.3645 -0.4095,-0.5382 -0.1589,-0.4357 0.2159,-0.7642 0.3861,-1.17 0.1574,-0.3756 0.5324,-1.0406 0.4329,-1.4391 -0.0543,-0.2173 -0.2018,-0.4167 -0.1404,-0.6552 0.0694,-0.2691 0.1997,-0.4543 0.4212,-0.6318 0.0345,0 0.0415,0.0046 0.0702,0.0117 0.4541,0.7937 0.0391,1.6553 -0.3042,2.4336l-0.351 0.7956c-0.1169,0.265 -0.0585,0.6231 -0.0585,0.9126l-0.0468 0.2808zm-5.7798 2.7729c0.5209,-0.0974 0.8073,-0.1608 1.2402,-0.4914 0.6268,-0.4785 1.2266,-0.7452 1.9305,-1.0764 0.3437,-0.1616 0.7526,-0.4481 1.0413,-0.6903 0.1303,-0.1092 0.6372,-0.7825 0.6903,-0.7956 0.0078,-0.0235 0.031,-0.0234 0.0585,-0.0234 0.0065,0.0197 0.0355,0.0403 0.0585,0.0468 0.03,0.1211 0.3623,0.3502 0.4446,0.5148 0.1578,0.3157 -0.8553,0.6316 -1.1349,0.7488 -0.3838,0.1608 -0.7112,0.4275 -1.1232,0.5733 -1.2008,0.4249 -1.9649,1.3689 -3.3228,1.3689l0.117 -0.1755zm-1.6029 0.5031c0.3272,-0.3542 -0.0226,-0.8813 0.4212,-1.2285 0.1689,-0.1322 0.3815,-0.1988 0.5499,-0.3276 0.1275,-0.0974 0.391,-0.3744 0.5499,-0.3744 0,0.065 0.039,0.1372 0.0351,0.2223 -0.0174,0.3814 -0.3699,0.7914 -0.5967,1.0764 -0.0818,0.1029 -0.2045,0.2089 -0.2925,0.3042 -0.0487,0.0528 -0.117,0.1203 -0.1755,0.1638 -0.0852,0.0632 -0.1855,0.0838 -0.2574,0.1638l-0.234 0zm-9.9801 -3.5568c0.2603,0.1802 0.2246,-0.7158 0.3393,-0.8775 0.0855,-0.1207 0.4557,-0.4714 0.585,-0.2691 0.2744,0.4296 0.1753,0.9988 0.4212,1.4625 0.2162,0.4075 0.1526,0.5842 -0.0819,0.936 -0.1456,0.2184 -0.12,0.4438 -0.3861,0.585 -0.3355,0.1779 -1.2128,-0.1683 -0.7722,-0.585 0.1736,-0.1641 0.3804,-0.3386 0.3978,-0.585 0.0075,-0.1061 -0.0337,-0.3861 -0.1755,-0.3861 -0.167,0.2234 -0.2082,0.2808 -0.4914,0.2574 -0.2566,-0.0213 -0.1894,0.3338 -0.3042,0.4797 -0.2368,0.3006 -0.9975,-0.4532 -0.7137,-0.7605 0.2622,-0.2841 0.7684,-0.0224 1.0881,-0.1287l0.0936 -0.1287zm1.4625 -2.0358c-0.0756,0.0174 -0.1284,0.0378 -0.2106,0.0117 -0.0715,-0.0228 -0.1364,-0.077 -0.2106,-0.1053 -0.0814,-0.0311 -0.1491,-0.0351 -0.234,-0.0351 -0.0812,0.0812 0.0007,0.2068 0.0585,0.2808 0.0305,0.0389 0.0608,0.0805 0.0936,0.117 0.0193,0.0216 0.0758,0.0804 0.0819,0.1053 0.0366,0.0209 0.0607,0.0465 0.0936,0.0702 0.0483,0.0349 0.1384,0.0468 0.1989,0.0468 0.0719,0 0.0893,0.0008 0.1521,-0.0351 0.006,-0.0245 0.0284,-0.028 0.0351,-0.0468 0.0329,-0.0928 -0.0123,-0.2485 0.0468,-0.3276l-0.1053 -0.0819zm0.9009 13.2327c0.9487,-0.6325 2.0613,-0.9849 2.8665,-1.7901 0.6848,-0.6848 1.0481,-1.6644 1.7082,-2.3751 0.363,-0.3909 0.9617,-0.6956 0.8775,-1.287 -0.0846,-0.5939 -1.3788,-1.5698 -1.8369,-1.9539 -0.41,-0.3439 -0.8029,-0.7041 -1.0647,-0.117 -0.2405,0.5392 -0.3602,0.7969 -0.5031,1.3689 -0.2239,0.8956 -0.7569,0.9153 -1.5093,1.0647 -0.0548,0.0733 0.0091,0.1151 0.0234,0.1872 0.0248,0.0177 0.0279,0.0233 0.0468,0.0468 0.3275,0.0464 0.6385,0.0468 0.9828,0.0468l0.0234 0.0234 0 0.0468c-0.2662,0.2662 -1.8672,1.2397 -1.5444,1.7784 0.8419,0 1.9625,-0.6226 2.7729,-0.8541 0.1374,-0.132 0.2959,-0.2808 0.4914,-0.2808 0.1909,0.5761 -0.8993,0.8298 -1.2402,1.053 -0.3887,0.2544 -0.8667,0.2913 -1.2987,0.3744 -0.6237,0.1199 -0.5768,0.7105 -1.0998,1.0647 -0.3043,0.206 -0.5229,0.3501 -0.7137,0.6786 -0.1645,0.2834 -0.273,0.6502 -0.468,0.9009 -0.1194,0.1271 -0.1394,0.1475 -0.1755,0.2925 -0.022,0.0882 -0.0351,0.139 -0.0351,0.234 0,0.0988 0.0634,0.135 0.0936,0.2106 0.0349,0.0049 0.0586,0.0262 0.0936,0.0351 0.1713,0.0439 0.325,-0.0455 0.468,-0.117 0.0992,-0.0495 0.2042,-0.0924 0.3042,-0.1404 0.1137,-0.0545 0.2151,-0.1193 0.3276,-0.1755l0.4095 -0.3159zm-3.7791 1.9539c0.3505,-0.0807 0.674,-0.5336 0.9243,-0.7839 0.1825,-0.1825 0.3057,-0.4242 0.4212,-0.6552 0.1412,-0.2827 0.2845,-0.6336 0.3978,-0.9243 0.1485,-0.3814 0,-0.4874 0,-0.8307 -0.018,-0.0059 -0.0117,0.0003 -0.0117,-0.0234l-0.0351 -0.0351c-0.3375,0 -0.7355,0.2968 -1.053,0.4212 -0.3718,0.1456 -0.6297,0.4494 -0.9477,0.6786 -0.3978,0.2866 -0.7172,0.6687 -0.585,1.1817 0.0691,0.2681 0.3253,0.7239 0.5733,0.8658l0.3159 0.1053zm0.4212 -5.5107c0.3003,1.0512 1.6658,-0.3978 2.1996,-0.3978l0.0117 0.0117 0.0117 0.0117c0,0.1514 0.0285,0.2693 -0.0234,0.4095 -0.0771,0.2079 -0.2014,0.3908 -0.2925,0.585 -0.1289,0.2745 -0.1023,0.8872 -0.5031,0.9711 -0.2048,0.0429 -0.579,-0.2474 -0.6786,-0.4095 -0.0608,-0.0988 -0.1155,-0.351 -0.2574,-0.351 -0.1871,0 -0.458,0.3458 -0.6552,0.2574 -0.2409,-0.1079 0.061,-0.7251 0.0936,-0.8892l0.0936 -0.1989zm3.832 -2.5031c0.281,-0.3654 0.5134,-0.8415 0.6902,-1.2702 0.0395,-0.0958 0.1754,-0.6411 0.319,-0.6032 0.072,0.0189 0.1056,0.1307 0.1856,0.1566 0.0736,0.0237 0.2211,0.0007 0.2726,0.0522 0.0299,0.2393 -0.1182,0.574 -0.1566,0.8178 -0.0541,0.3425 -0.1522,0.6349 -0.4524,0.8236 -0.1338,0.084 -0.2905,0.0593 -0.4292,0.116 -0.1282,0.0523 -0.2072,0.0916 -0.348,0.029l-0.0812 -0.1218zm-102.94 -146.489l-0.2251 1.3381c-0.3551,0.7819 -0.3744,1.1229 -0.3744,1.9188 0,0.4824 -0.6339,0.0714 -0.8892,0.5733 -0.1747,0.3436 -0.5383,0.1287 -0.8073,0.1287 -0.4341,0 -0.6947,0.6019 -0.9711,0.8541 -0.1564,0.1428 -0.3989,0.1819 -0.5382,0.3393 -0.359,0.4058 -0.4728,1.1156 -1.0647,1.2987 -0.4251,0.1316 -0.4126,-0.3905 -0.8892,0.117 -0.3631,0.3868 -0.0258,0.7137 -0.5967,0.7137 -0.0231,0.0231 -0.0143,0.0188 -0.0468,0.0234 -0.1862,0.2794 -0.0719,0.627 -0.2457,0.9009 -0.1239,0.1951 -0.4978,0.0976 -0.7137,0.1404 -0.2187,0.3822 0.0988,0.8075 0.2925,1.1466 -0.2862,0.4588 -0.6803,0.0107 -0.9828,-0.1404 -0.2716,-0.1358 -0.1714,0.4054 -0.2925,0.5265 -0.212,0 -0.2981,-0.1521 -0.5031,-0.1521 -0.1959,0.1959 0.1019,0.5453 0.0819,0.8073 -0.0242,0.3156 -0.4062,0.2167 -0.5031,0.3861 -0.0614,0.0175 -0.2479,0.19 -0.2574,0.2574 -0.4248,0.3033 0.0691,1.5235 -0.1638,1.9773 -0.3187,0.6213 -0.9364,0.9798 -1.1817,1.6731 -0.0512,0.1445 -0.2448,0.5482 -0.1995,0.7011 0.2559,0.449 0.4676,0.9449 0.726,1.4634 0.2126,0.4265 0.8013,0.2509 1.2051,0.3978 0.3673,0.1335 0.7287,0.4097 0.9594,0.7371 0.1687,0.2396 0.2918,0.6823 0.5967,0.7722 0.3448,0.1018 0.7027,0.0021 1.0296,0.1755 0.4073,0.2159 0.4239,0.9041 0.7254,1.2636 0.1532,0.1828 0.4681,0.2498 0.6084,0.3861 0.0462,0.0448 0.0373,0.0651 0.117,0.1053 0.8101,0.4086 1.6319,-0.2102 2.4336,0.0702 0.3911,0.1367 -0.0943,0.7602 0.2925,1.0179 0.1807,0.1205 0.3227,0.1477 0.4914,0.3042 0.1406,0.1306 0.1185,0.4871 0.2106,0.6552 0.1641,0.2991 0.2705,0.2844 0.585,0.3978 0.2688,0.097 0.3267,0.2923 0.5382,0.4563 0.1993,0.1544 0.3819,0.3296 0.5729,0.4944 0.0232,0.0711 0.2511,0.364 0.326,0.4816 0.1828,0.2872 0.5137,0.318 0.7356,0.5412 0.1059,0.1064 0.1163,0.3013 0.1163,0.4433 0,0.232 0.0982,0.3509 0.1956,0.5458 0.1672,0.4002 0.6551,0.3423 0.9544,0.5646 0.3532,0.2625 0.2802,0.593 0.824,0.7231 0.3181,0.076 1.4061,0.7869 1.6621,0.6159 0.3191,-0.2133 1.1218,-0.3546 1.5317,-0.3546 0.1123,0 0.2058,0.1054 0.3213,0.112 0.2581,0.0148 0.5383,-0.1725 0.7914,-0.224 0.3492,-0.0712 0.691,0.1506 1.0755,0.1027 0.1002,-0.0125 0.7923,-0.1442 0.838,-0.0747 0.0246,0 0.1434,0.0203 0.149,0.0373 0.0179,0 0.029,0.0073 0.0419,0.0094 0.0038,0.0116 0.0291,0.0184 0.0326,0.0326 0.0736,0.0184 0.4893,0.5272 0.5866,0.6112 0.3312,0.2856 0.6706,0.7032 0.8101,1.1197 -0.009,0.148 0.0607,0.4292 0.0838,0.5879 0.058,0.398 0.1781,0.8121 0.4004,1.1571 0.1962,0.3043 0.4856,1.0912 0.5074,1.4463 -0.0256,0.1123 0.0217,0.2092 0.0466,0.3172 0.0402,0.1738 0.096,0.3332 0.1676,0.4946 0.0632,0.1427 0.1278,0.3196 0.2374,0.4292l0.2079 0.4157c0.0121,0.0431 0.0962,0.105 0.1219,0.1345 0.1166,0.1343 0.4447,0.3394 0.5967,0.4914 0.3367,0.3367 0.6334,0.7703 0.7605,1.2402 0.0549,0.2028 0.1673,0.4129 0.2106,0.6201 0.0502,0.2406 0.1022,0.5467 0.1989,0.7722 0.0848,0.1975 0.1638,0.3978 0.2457,0.5967 -0.0144,0.0062 -0.0133,0.0101 -0.0143,0.0168 0.0495,0.0099 0.2699,0.1924 0.3212,0.2333 0.1685,0.1347 0.2996,0.3209 0.4656,0.4479 0.1848,0.1412 0.3866,0.6576 0.405,0.8818 -0.0365,0.1298 0.1931,0.682 0.2188,0.8771 0.0584,0.4443 -0.0327,0.9345 0.0885,1.3624l0.3724 1.3156c-0.1083,0.1087 0.521,1.5892 0.5727,1.8709 0.1231,0.6712 0.354,0.5863 0.9218,0.8912 0.4274,0.2296 1.1795,0.5157 1.2989,1.0404 -0.0438,0.1766 0.208,0.7499 0.3399,0.8818 0.2566,0.2566 0.8211,0.542 0.6611,1.0077 -0.0483,0.1405 -0.1753,0.2708 -0.1211,0.4246 0.0898,0.2543 0.3024,0.3082 0.4284,0.5085 0.071,0.1562 0.2987,0.2461 0.4097,0.3919 0.1291,0.1694 0.3035,0.5646 0.4748,0.6625 0.2678,0.1532 0.5477,0.4219 0.717,0.6765l0.419 0.3151c0.0232,0.0779 0.0284,0.0546 0.0126,0.1121 -0.0107,0.0387 -0.0361,0.0818 -0.058,0.116 -0.0476,0.0747 -0.0615,0.1504 -0.0754,0.2378 -0.0059,0.0375 -0.0118,0.089 -0.0058,0.1276 0.0043,0.0275 0.0023,0.054 0.0058,0.0812 0.0038,0.0301 0.0006,0.054 0.0174,0.0812 0.0542,0.0882 0.1358,0.1564 0.2038,0.2346l0.3605 0.8499c0.0277,0.089 0.1017,0.2027 0.1118,0.2846 0.0349,0.0294 0.2117,0.4693 0.2188,0.5272 0.5258,0.3051 0.3297,1.1069 0.8333,1.465 0.3693,0.2625 0.8586,0.2205 1.2757,0.3686 0.5157,0.1832 0.8395,0.4776 1.122,0.9378 0.0285,0.2044 0.5809,0.6945 0.7309,0.8957 0.3157,0.4237 0.8694,1.1027 1.3409,1.3437 0.6148,0.3144 1.2352,0.8835 1.8902,1.0824 0.5037,0.1402 0.8856,0.2744 1.3408,0.5412 0.2866,0.1681 0.4676,0.4879 0.7496,0.6532l1.2011 0.7045c0.4279,0.2509 0.6553,0.8088 1.0289,1.1431 0.2839,0.2075 0.451,0.138 0.6099,0.5178 0.084,0.2006 0.0769,0.4125 0.2142,0.6112 0.5544,0.8018 1.5829,0.7198 1.5829,1.9642 0.0153,0.6064 0.789,0.8663 0.9218,1.4277 0.0703,0.2969 0.044,0.6454 0.1024,0.9564 0.0785,0.4187 0.2389,0.7909 0.3911,1.1851l0.852 0.6625 0.2182 0.5085c-0.435,0.2793 0.3803,1.8916 1.0168,2.2668 1.1753,0.6927 2.6313,1.2251 3.901,1.786 0.7063,0.3121 1.2573,0.6014 1.8565,1.034 0.4195,0.303 0.7181,1.2873 0.987,1.551 0.2603,0.2554 0.8417,0.8546 1.0575,1.2455 0.5722,1.0366 0.1474,1.0693 1.457,1.598 0.4072,0.1644 0.8147,0.3291 1.222,0.4935 0.2529,0.102 0.7569,0.5174 0.893,0.5875 0.0415,0.0213 0.0572,0.0258 0.0705,0.0705 0.2532,0.851 -0.1603,0.7523 -0.376,1.6215 -0.1298,0.5228 1.3517,0.926 0.2115,0.893 -0.0404,-0.0011 -0.0344,0.0154 -0.0705,-0.0235 -0.1672,-0.1804 -0.7393,0.1254 -0.8225,0.329 -0.0414,0.1015 0.3068,0.6801 0.3525,0.799 0.0969,0.2524 0.2708,0.5631 0.1175,0.8225 -0.0616,0.1041 -0.1317,0.0526 -0.282,0.0705 -0.1131,0.0135 -0.221,0.058 -0.329,0.094 -0.0105,0.0034 -0.0217,0.0127 -0.0235,0.0235 -0.0063,0.0385 -0.023,0.0859 0,0.1175 0.0235,0.0321 0,0.0322 0.0235,0.0705 0.019,0.0311 0.0397,0.0859 0.0705,0.1175 0.0336,0.0346 0.0069,-0.0033 0.047,0.0235 0.0128,0.0086 -0.0124,0.0377 0,0.047 0.0321,0.0238 0.0476,0.0337 0.094,0.0705 0.0316,0.0252 0.045,0.0377 0.047,0.0705 0.0304,0.4812 0.3066,0.7705 0.5405,1.0105 0.1929,0.1981 0.8692,0.9798 1.363,1.1515 0.0564,0.0196 0.0715,0.0857 0.1175,0.141 0.034,0.0407 0.0969,0.1116 0.141,0.141 0.1129,0.0751 0.4911,0.7264 0.7755,0.1175 0.0364,-0.0779 0.1774,-0.029 0.2585,0 0.0348,0.0125 0.5843,0.2639 0.5875,0.3055 0.0395,0.5042 -0.3287,0.8378 -0.0705,1.269 0.1435,0.2395 0.515,0.2554 0.799,0.329 0.0193,0.005 0.0898,0.0745 0.094,0.094 0.0172,0.0801 0.0465,0.1469 0.0235,0.235 -0.007,0.0266 -0.0775,0.1773 -0.1175,0.188 -1.8213,0.4908 0.9629,2.5245 1.363,2.9845 0.3172,0.3645 1.0031,0.91 1.222,-0.3055 0.0088,-0.049 0.146,-0.1636 0.235,-0.094 0.0801,0.0625 0.2076,0.1866 0.329,0.2585 0.408,0.2414 -0.0752,1.4455 -0.094,1.692 -0.2165,2.8374 3.1028,2.7515 4.606,4.183 1.006,0.9579 1.1186,0.2407 1.927,0.47 0.0317,0.0089 0.053,0.0107 0.0705,0.047 0.0662,0.1377 0.1463,0.3805 0.282,0.47 0.3534,0.2334 0.1891,0.6549 0.9635,0.705 0.054,0.0034 0.0522,0.0399 0.094,0.094 0.027,0.0351 0.0193,0.0125 0.047,0.047 0.0194,0.024 0.0538,-0.0024 0.0705,0.0235 0.0355,0.0554 0.5094,0.6388 0.517,0.658 0.0466,0.1179 0.3531,0.2111 0.4465,0.2585 0.0276,0.0139 -0.0018,0.0529 0.0235,0.0705 0.0471,0.0326 0.0463,0.0532 0.0705,0.094 0.0125,0.0209 0.1639,0.1843 0.188,0.188 0.744,0.1152 1.3231,0.0938 1.739,0.799 0.2026,0.3434 0.8759,1.1355 1.128,1.457 0.2255,0.2874 0.4214,1.5636 -0.329,1.7625 -0.2907,0.0771 -0.852,-0.055 -0.4935,0.752 0.2884,0.649 1.4455,2.7484 1.974,2.961 0.09,0.0361 0.036,0.2309 -0.0705,0.282 -0.0279,0.0133 0.0035,0.0555 -0.0235,0.0705 -0.1046,0.0585 -0.2257,0.2635 -0.2585,0.329 -0.0362,0.0725 -0.0436,0.1323 -0.0235,0.2115 0.0059,0.0231 0.0468,0.0682 0.0705,0.0705 0.2263,0.0218 0.5196,0.0698 0.7285,0.1645 0.0812,0.0368 0.1564,0.1227 0.1645,0.2115 0.0481,0.5251 -0.1166,1.0232 0.141,1.4335 0.0723,0.1151 0.2497,-0.0404 0.376,-0.0235 0.0186,0.0024 0.1007,0.0421 0.1175,0.0705 0.0414,0.0695 0.0628,0.0355 0.1175,0.1175 0.0276,0.0412 0.1756,0.1275 0.2115,0.141 0.0799,0.0299 0.1213,0.0253 0.188,0.0705 0.056,0.0381 0.0119,0.0601 0.0705,0.094 0.1527,0.0882 0.0281,0.7267 0.1175,0.8695 0.0747,0.1191 -0.0237,0.5193 -0.094,0.658 -0.2384,0.4708 -0.0198,0.7299 0,1.2455 0.0134,0.3471 0.3658,1.0648 0.5875,1.3865 0.4169,0.6047 -0.2043,1.1218 -0.2115,1.739 0,0.0076 -0.1141,0.251 -0.141,0.282 -0.0238,0.0276 -0.0334,0.0936 -0.0705,0.1175 -0.1025,0.0659 -0.1456,0.3245 -0.1175,0.4465 0.0073,0.0321 0.033,0.0326 0.047,0.0705 0.0038,0.0102 0.0131,0.0198 0.0235,0.0235 0.044,0.0157 0.0258,0.0571 0.0705,0.0705 0.8251,0.2467 1.5113,2.4132 1.0105,2.914 -1.3189,1.3189 0.103,1.5841 0.4465,2.7965 0.0127,0.0449 0.0259,0.0568 0.0705,0.0705 0.6859,0.2119 1.3486,0.874 1.927,1.3395 0.6724,0.5413 1.6783,0.173 2.444,0.3995 0.0407,0.012 0.0542,0.067 0.094,0.1175 0.0299,0.0378 0.0102,-0.0076 0.047,0.0235 0.0235,0.02 -0.0026,0.054 0.0235,0.0705 0.0745,0.0473 0.1744,0.2673 0.188,0.376 0.1022,0.8162 1.5137,1.3987 2.068,1.6685 0.0811,0.0395 0.0249,0.1243 0.047,0.2115 0.0065,0.0255 0.3411,1.404 0.7285,1.5275 0.0294,0.0094 -0.0023,0.0535 0.0235,0.0705 0.0527,0.0346 0.0999,0.0463 0.141,0.094 0.0733,0.0853 0.7749,0.5407 0.893,0.611 0.048,0.0285 0.0055,0.0961 0.047,0.141 0.0582,0.0631 0.0387,0.2969 0,0.3525 -0.0229,0.0331 -0.0444,0.0164 -0.0705,0.047 -0.0303,0.0353 -0.1031,0.1236 -0.1175,0.1645 -0.1279,0.364 -0.2601,0.7032 -0.282,1.1515 -0.0229,0.4671 0.0916,0.5874 0.2115,0.94 0.0279,0.0819 0.0847,0.1187 0.141,0.188 0.0797,0.0979 0.0628,0.2932 0.188,0.3525 0.511,0.2418 0.9296,2.8531 1.363,3.149 0.0879,0.0599 0.7283,-0.3211 0.8695,-0.1645 0.2615,0.2903 0.4897,2.4793 0.6815,2.7025 0.1513,0.1759 -0.0424,0.6748 -0.2585,0.8225 -0.1131,0.0774 -0.2557,0.2924 -0.376,0.3525 -0.4212,0.2102 -0.7108,1.3178 -0.7755,1.6215 -0.0199,0.0935 -0.0391,0.1919 -0.0353,0.3056 0.0967,0.1312 0.2289,0.274 0.419,0.5129 0.3326,0.4181 1.3064,1.2824 1.3689,1.7667 0.0261,0.3166 0.1519,0.5231 0.2574,0.8073 0.0725,0.1951 -0.3042,0.3572 -0.3042,0.6201 0,0.4527 0.4257,0.6992 0.1053,1.2168 -0.2456,0.3966 -0.0117,0.5397 -0.0117,0.9126 0,1.2145 1.7184,2.1103 2.8197,1.755 1.0408,-0.3359 1.9173,-0.7221 2.7495,0.2925 0.2796,0.341 0.7846,0.7192 1.0062,1.0296 0.258,0.0516 0.6306,0.3476 0.9477,0.4329l1.0597 0.2851 0.8612 0.2062 0 0c-0.0989,-0.3843 0.6604,-0.9495 0.5478,-1.4039 -0.5567,0.138 -0.9248,1.6009 -1.2168,0.4329 -0.1004,-0.4016 0.0456,-1.6557 -0.1521,-1.8837 -0.3119,-0.3599 -0.2343,-1.1205 0.2457,-1.2753 0.2042,-0.2548 0.0873,-0.6398 0.2574,-0.8541 0.3015,-0.3801 0.2771,-0.7916 0.5967,-1.1934 0.195,-0.245 0.5169,-0.4256 0.5967,-0.7371 0.0577,-0.225 0.4779,-0.7171 0.4095,-0.8541 -0.1097,-0.2194 -0.1404,-0.3567 -0.1404,-0.6084 0,-0.2994 0.0934,-0.5916 -0.1287,-0.8307 -0.2315,-0.2494 0.2819,-0.0898 0.5967,-0.1872 0.4712,-0.1457 0.1083,0.6072 0.2223,0.7605 0.1968,0.2649 1.3841,-0.0799 1.6497,-0.1989 0.4353,-0.1951 1.1466,0.0251 1.1466,-0.7137 0.4031,-0.6919 -0.0297,-1.0968 0.1521,-1.7784 0.1508,-0.5657 0.5545,-1.14 0.9126,-1.5912 0.1488,-0.1876 -0.343,-0.7699 -0.4095,-0.936l-0.0585 0c-1.0084,2.0168 -2.2715,1.5693 -3.8844,0.5733 -0.4812,-0.2972 -0.5295,-0.5763 -0.8892,-0.936 -0.2204,-0.2204 -0.344,-0.0527 -0.5382,-0.1638 0,-0.234 0.1775,-0.6695 0.2574,-0.9009 0.1579,-0.4577 0.546,0.117 0.7488,0.117 0.2305,0 0.369,-0.228 0.5499,-0.2574 0.3005,-0.049 0.6361,-0.0297 0.8775,-0.234 0.0613,-0.2462 0.1235,-0.4404 0.2106,-0.702 0.1351,-0.4053 0.3598,-0.2116 0.4914,-0.4446 0.111,-0.1964 -0.0001,-0.194 -0.1287,-0.3042 -0.5483,-0.4702 -1.4274,0.6578 -1.4274,-0.6318 0.3586,0 0.2604,0.5294 0.8073,0.117 0.3138,-0.2365 0.1151,-0.5456 0.2457,-0.8424 0.0912,-0.2074 0.2713,-0.2448 0.1053,-0.468 -0.1831,-0.2464 -0.3354,-0.1949 -0.2808,-0.5499 0.0805,-0.5239 -0.5382,-0.5575 -0.5382,-0.8892 0.2615,0 0.7954,0.3278 1.0764,0.4095 0.5405,0.157 0.3328,-0.7698 0.2457,-1.053 -0.0917,-0.2985 -0.5622,-0.2806 -0.4212,-0.5382 0.038,-0.0693 0.1761,-0.1875 0.1521,-0.2574 -0.0665,-0.1928 -0.1629,-0.2998 -0.2808,-0.4797 -0.1896,-0.3039 -0.3159,-0.7052 -0.3159,-1.0647 0,-0.372 0.1955,-0.3528 -0.0585,-0.7371 -0.5624,-0.8512 -1.0032,-1.4019 -1.8837,-1.989 -0.1456,-0.097 0.0887,-0.2901 0.1521,-0.4095 0.2029,-0.3826 1.0998,0.4965 1.0998,-0.6669 0.1095,0.0271 0.1913,0.5676 0.2457,0.6903 0.0957,0.2154 0.2014,0.3459 0.2691,0.6084 0.1901,0.7374 0.8307,0.479 0.8307,-0.1638l0.0117 -0.0117c0.2183,0.5103 0.2159,0.9698 0.9711,1.0062 0.5988,0.0288 0.7722,-0.121 0.7722,-0.6903 0.4855,0 0.6026,0.1969 1.1232,0.0234 0.3814,-0.127 0.7426,-0.1582 0.8541,-0.6084 0.0868,0 0.3749,0.3658 0.5265,0.4446 0.1697,0.0881 0.5141,0.1267 0.702,0.0936 0.2568,-0.1098 0.6991,0.2942 0.9594,0.3393 0.3636,0.0629 0.6058,0.0377 0.9126,0.2691 0.6257,0.4717 1.6043,0.5519 2.2581,0.0702 0.4242,0.0846 0.8936,0.0015 1.3104,0.1404 0.2539,0.0845 0.9636,0.3939 1.1817,0.2691 0.0849,-0.6851 -0.6051,-0.7924 -0.9243,-1.1817 -0.2853,-0.3478 0.1538,-0.8246 -0.4095,-1.2753 -0.149,-0.1191 -0.702,-0.542 -0.702,-0.7137l0.0117 -0.0117c0.4317,0 0.7716,0.0841 1.2168,0.0585 0.4085,-0.0234 0.2437,0.5017 0.5265,0.7137 0.2302,0.1727 0.4795,0.3282 0.7839,0.2925 0.386,-0.0454 0.6378,-0.0876 0.9711,-0.2925 0.6135,-0.3774 0.2631,-0.6674 0.7488,-0.0468 0.2159,0.276 0.1201,0.4595 0.4329,0.7137 0.3002,0.2441 -0.0275,0.5196 -0.0117,0.7956 0.0117,0.206 0.5042,0.6329 0.6084,0.8775 0.2083,0.4885 0.4469,0.6631 0.9711,0.7137 0.2064,-0.1836 0.4563,-0.2705 0.4563,-0.585 0,-0.1156 -0.1262,-0.6343 -0.0702,-0.6903 0.2575,-0.2575 0.8453,0.5629 1.2753,0.0819 0.1443,-0.1615 0.5624,0.0395 0.819,-0.0351 0.4416,-0.1283 0.4615,0.6373 0.5733,0.9243 0.0992,0.2545 1.1232,-0.2589 1.1232,-0.4563l-1.1115 -0.7371c-0.1559,-0.1033 -0.2814,-0.6405 -0.4212,-0.8541 -0.323,-0.4932 0.011,-0.2691 0.4095,-0.2691 0.2021,0 0.3815,-0.1287 0.5265,-0.1287 0.0989,0 0.0164,0.2434 0.0468,0.3042 0.3274,0.655 1.0158,-0.0071 1.0998,0.4329 0.0627,0.3282 0.0522,0.8658 0.4914,0.8658 0.7391,0 0.6335,-1.0302 0.8775,-1.1115 0.2661,-0.0886 0.0954,1.1164 0.3042,1.3104 0.1298,0.1205 0.1633,0.2654 0.0117,0.3861 -0.749,0.5959 0.4744,0.9644 0.2925,1.17 -0.1737,0.1962 -0.6891,0.1287 -0.936,0.1287 0,0.5797 0.4339,1.0273 0.9594,0.6552 0.3236,-0.229 0.5114,-0.6498 0.8073,-0.8775 0.155,-0.1193 0.4017,0.0426 0.6201,-0.1053 0.5136,-0.4489 1.0157,-1.1572 1.6263,-1.4859 0.5677,-0.3055 1.0167,-0.888 1.4625,-1.3338 0,-0.3346 -0.2093,-0.6625 -0.2223,-1.0062 -0.0088,-0.2309 0.1995,-0.6735 0.0117,-0.7605l-0.8073 -0.3744c-0.3324,-0.154 -0.6963,-0.3758 -1.0296,-0.5031 -0.2038,-0.1781 -0.5748,-0.1158 -0.8307,-0.1404 -0.3035,-0.0293 -0.3745,-0.2095 -0.585,-0.3861 -0.2955,-0.2477 -1.2519,-0.6695 -1.2519,-1.0764 0.4125,-0.236 1.5677,0.0278 1.989,0.2223 0.8926,0.4119 0.5806,-1.1924 0.3627,-1.5678 -0.216,-0.372 -0.6908,-0.8012 0.0585,-0.5148 0.7854,0.3003 0.9065,0.6432 1.0413,-0.4446 0.2249,-0.1606 0.3103,-0.3375 0.4446,-0.5616 0.3178,0 0.6249,0.578 0.8073,-0.1638 0.0892,-0.3627 -0.4117,-0.7863 -0.3276,-0.9828 0.0214,-0.0053 0.0181,-0.002 0.0234,-0.0234 0.2461,-0.1053 0.6151,0.0585 0.8775,0.0585 0.3742,0 0.3684,-0.1879 0.6318,-0.3276 0.4094,-0.2171 1.2947,0.3383 1.4742,-0.3861 0.015,-0.0037 0.0201,-0.008 0.0351,-0.0117 0.1501,0.1122 0.3744,0.7132 0.3744,0.9126 0,0.2481 -0.643,0.1287 -0.7956,0.1287 -0.8739,0 -1.3283,0.2784 -1.7199,1.0413 -0.4076,0.5242 -0.1899,0.6363 -0.9009,0.7137 -0.338,0.0367 -0.2474,0.821 -0.5382,1.0647 -0.2299,0.1928 -0.636,0.1734 -0.3627,0.6084 0.2069,0.3294 0.5904,0.7353 0.8541,1.0179 0.1736,0.1859 0.4199,0.026 0.585,0.117 0.0995,0.0549 -0.0104,0.2991 0.2808,0.4212 0.4012,0.1681 1.0192,0.8535 1.4391,0.702 0.4062,-0.1466 0.4484,-0.8424 0.7956,-0.8424 0.169,0.6819 -0.225,0.8955 -0.7254,1.0998 -0.5425,0.2214 0.4069,0.7839 -0.6084,0.7839 0,0.211 0.3394,0.5861 0.4797,0.7488 0.4139,0.3617 0.9242,-0.0008 1.2636,-0.2691 0.5794,-0.4578 1.076,-0.9729 1.8252,-1.1817 1.3651,-0.3804 2.619,-1.053 4.0833,-1.053 0.5116,0 1.9748,0.8616 1.2402,-0.585 -0.2216,-0.4363 -0.6016,-0.5195 -1.0062,-0.7137 -0.662,-0.3177 -0.7018,-0.3601 -1.3455,0.0936 -0.6378,0.4497 -1.3288,0.6396 -1.989,0.9828 -0.5298,0.2755 -1.4311,0.9477 -2.0241,0.9477l-0.0351 -0.0351c0,-1.3496 1.3218,-1.8915 2.5389,-2.0475 0.4346,-0.0557 0.8538,-0.0467 1.2519,-0.234 0.4483,-0.3263 1.5506,-0.8597 1.8369,-1.2636 0.114,-0.1607 0.1022,-0.662 0.2925,-0.7254 0.198,-0.0659 -0.0111,0.6687 0.0117,0.7839 0.1296,0.0648 0.2669,-0.1785 0.3744,-0.2457 0.1935,-0.1211 0.4718,-0.1198 0.6669,-0.2925 0.7611,-0.6734 0.7289,0.1521 1.3221,0.1521 0.2683,-0.3587 -0.2808,-0.6434 -0.2808,-0.8892 0,-0.0618 0.4173,-0.5493 0.468,-0.8307 0.2032,-1.1258 1.3884,-0.9633 1.8018,-1.7901 0.449,-0.8982 0.5545,-0.3219 1.3221,-0.4797 0.123,-0.329 -0.1287,-0.3591 -0.3744,-0.3276 -0.4414,0.0565 -1.0108,0.033 -1.4508,-0.0234 -0.5331,-0.0683 -1.638,-0.2936 -1.638,-1.0296l0.0117 -0.0117c0.4582,0 0.8145,0.5039 1.17,-0.1521 0.2607,-0.4812 -0.033,-0.8393 0.0936,-1.2987 0.0464,-0.1683 0.1813,-0.7992 0.2574,-0.9009 0.1086,0 0.1978,0.0351 0.3042,0.0351 0.0038,0.0117 0.0298,0.0426 0.0468,0.0468 0.1159,0.4679 0.2704,0.6791 0.1755,1.2051 -0.1265,0.7013 0.6393,0.4547 1.0764,0.4797 0.2933,0.0168 0.4182,0.3447 0.6435,0.4797 0.5436,-0.2326 1.1308,-0.6766 1.5678,-1.0998 0.908,-0.7649 1.7507,-1.3313 2.4453,-2.3166 0.6505,-0.9226 1.6636,-1.7451 2.4921,-2.5038 0.2047,-0.1874 1.22,-0.8064 1.2753,-1.0296 0.0361,-0.0089 0.0393,-0.0522 0.0234,0.0117l2.3166 -2.3049c0.6204,-0.6173 1.0315,-1.4811 1.5912,-2.1528 1.4093,-1.691 3.0018,-2.4208 4.8087,-3.5334 0.0941,-0.0084 0.2486,-0.1121 0.3276,-0.1638 1.0853,-0.5791 2.4779,-0.9597 3.4398,-1.6848 0.3087,-0.2328 0.5284,-0.6283 0.7956,-0.819 0.0077,-0.0622 0.0768,-0.2072 0.117,-0.2574 0.3978,0 1.0558,1.2353 1.1934,1.5795 0.3017,0.7542 0.7018,0.2183 1.2402,-0.0819 0.9616,-0.536 1.9924,-1.0689 2.5389,-2.0241 0.0383,-0.0054 0.0759,-0.027 0.117,-0.0351 0.1237,0.0925 0.125,0.1407 0.1404,0.3159 0.3898,0 0.6816,0.0044 1.0647,-0.0351 0.2638,-0.0271 0.1878,-0.3407 0.1755,-0.5382 -0.0328,-0.5275 -0.1025,-1.0865 -0.2106,-1.6029 -0.0401,-0.1913 -0.3367,-1.1815 -0.5265,-1.2285 0.2423,0 0.7998,0.5512 0.8658,0.8073 0.1023,0.397 0.1705,0.957 0.0936,1.3806 -0.0209,0.115 -0.0384,0.5448 0.1521,0.2808 0.1703,-0.2358 0.4246,-0.4271 0.6201,-0.6552 0.3346,-0.3906 0.7768,-0.7187 1.1232,-1.0881 0.3378,-0.3604 0.8061,-1.239 0.4212,-1.7199 -0.2101,-0.2626 -0.4212,-0.5564 -0.4212,-0.0468 0,0.6572 -0.1417,0.4289 -0.3978,-0.0351 -0.1047,-0.7703 0.2317,-1.2649 -0.2574,-1.9422 -0.2366,-0.3278 -1.4022,-0.5843 -1.8018,-0.7371 -1.4361,-0.549 -2.0311,-2.1184 -1.8252,-3.5802 0.049,-0.3477 0.8529,-2.3751 1.1934,-2.3751 0,0.8382 0.4198,-0.0403 0.6903,-0.1755 0,0.5308 -0.4533,1.8529 -1.0296,1.989 -0.3351,0.0792 -0.1306,0.2787 -0.117,0.5031 0.0194,0.3184 -0.2053,0.5092 -0.1053,0.819 0.2718,0.8424 2.3618,0.1742 3.1356,0.4914 0.416,0.1706 0.351,1.3294 0.351,1.755 0,0.7384 0.3049,2.6303 0.8424,3.1122 0.5042,0.4522 -0.0348,-0.9782 -0.0936,-1.0998 0.1391,-0.5214 -0.0204,-1.2123 0.0819,-1.755l0.234 -1.2402c0.092,-0.4881 0.6095,-1.5713 0.5031,-2.0007 -0.8407,0 -0.4073,1.8206 -0.9477,2.0007 -0.1638,0.0545 -0.2169,-0.2958 -0.2691,-0.3978 -0.1359,-0.2659 -0.5331,-0.4494 -0.7137,-0.6903 -0.338,-0.4506 0.1828,-1.1666 0.4797,-1.4976 0.2548,-0.2842 1.0147,-1.8954 1.3923,-1.8954 0.2726,0.8227 -0.1287,1.4538 -0.1287,2.2815 0.4392,0 0.4212,-0.5881 0.4212,-0.8775 0.1169,-0.6257 0.0932,-1.2066 0.3393,-1.8135l0.6786 -1.6731c0.3478,-0.8576 0.7882,-1.9146 1.3221,-2.6676 0.1994,-0.2811 0.6181,-1.0754 0.9009,-1.2168 0.0215,-0.0377 0.0442,-0.0604 0.0819,-0.0819l0.0234 -0.0468c0.077,-0.044 0.1554,-0.1916 0.2106,-0.2574 0.2103,-0.4631 0.6671,-0.875 1.0764,-1.1583 0.19,-0.1316 0.819,-0.5575 0.819,-0.7839 -0.1855,-0.0615 -0.4459,-0.2011 -0.6435,-0.0585 -0.1325,0.0957 -0.7015,0.702 -0.7605,0.702 0,-0.4206 0.6704,-1.2901 0.936,-1.638 0.1689,-0.2211 1.2318,-1.5574 1.4157,-1.6029 -0.047,0.3796 -0.4407,1.098 -0.6786,1.4274 -0.0838,0.1162 -0.5675,0.9477 -0.2691,0.9477 0.2738,-0.8262 0.77,-1.533 1.2987,-2.2932 0.7295,-1.0492 1.485,-2.1468 2.3283,-3.1005 0.839,-0.6287 1.4205,-1.6959 2.2932,-2.3634 0.8513,-0.651 1.5078,-1.5758 2.3283,-2.2698 0.3452,-0.2921 1.1913,-0.8256 1.3689,-1.2168 0.9112,-0.5058 1.5902,-1.5113 2.5623,-1.9188 0.9258,-0.3851 1.7588,-1.1015 2.6676,-1.4742 0.8069,-0.3308 1.9604,-0.8334 2.691,-1.287 0.8365,-0.5195 2.4976,-0.9942 3.6795,-1.1236l0 0 -49.6527 -51.1169 -49.5559 -0.7551 0.6076 -6.293 -6.5968 -8.8102 -4.1447 2.6908c-0.2316,0.162 -0.4878,0.4418 -0.7926,0.3352 -0.1676,-0.0565 -0.2675,-0.2715 -0.3212,-0.4246 -0.0684,-0.1952 -0.242,-0.3396 -0.284,-0.5412 -0.083,-0.3989 -0.0598,-0.8296 0.0838,-1.2177 0.196,-0.1783 0.2167,-0.4811 0.4702,-0.6579 0.1519,-0.1058 0.3118,-0.2246 0.4144,-0.3732 0.2107,-0.3055 0.2099,-0.4776 0.0558,-0.7885 -0.2116,-0.4266 -0.6071,-0.9927 -0.4567,-1.5148l-54.6904 -2.3984c-0.1483,0 -0.4664,0.0037 -0.5832,0.0972 -0.1171,0.0146 -0.2443,0.1016 -0.3564,0.1512 -0.1373,0.0606 -0.2954,0.0668 -0.4428,0.1188 -0.6584,0.0598 -0.8383,0.1296 -1.4148,-0.2268 -0.623,-0.385 -0.739,0.5748 -1.3608,0.486 -0.2394,-0.4191 -0.3436,-0.8973 -0.6264,-1.2744 -0.5351,0 -1.4364,0.8519 -1.4364,1.3824 0,0.8564 -1.1235,1.1872 -1.5768,0.4536 -0.2613,-0.4227 -0.9393,0.3092 -1.2636,0.5184 -0.6982,0.4506 -1.0788,0.0003 -1.7604,0.5616 -0.5749,0.1437 -0.8422,-1.0482 -1.4904,0.2484 -0.3726,0.7452 -0.9604,0.6912 -1.7064,0.6912 -0.9992,0 -2.3053,1.4006 -3.1968,0.9288 -1.2807,-0.6779 -0.4653,1.0136 -1.0908,1.242 -0.2803,0.1024 -1.0638,0.0783 -1.242,0.2268 -1.0729,0 -0.6728,2.2581 -2.2032,0.9828l-0.162 -0.4644c-0.0426,-0.0077 -0.0756,-0.0026 -0.1188,0l-14.4179 4.2662 0 0z"/>
 </g>
</svg>
