<?xml version="1.0" encoding="UTF-8"?>
<!DOCTYPE svg PUBLIC "-//W3C//DTD SVG 1.1//EN" "http://www.w3.org/Graphics/SVG/1.1/DTD/svg11.dtd">
<!-- Creator: CorelDRAW -->
<svg xmlns="http://www.w3.org/2000/svg" xml:space="preserve" width="297mm" height="210mm" style="shape-rendering:geometricPrecision; text-rendering:geometricPrecision; image-rendering:optimizeQuality; fill-rule:evenodd; clip-rule:evenodd"
viewBox="0 0 297 210"
 xmlns:xlink="http://www.w3.org/1999/xlink">
 <defs>
  <style type="text/css">
   <![CDATA[
    .str2 {stroke:#2F3133;stroke-width:0.1}
    .str1 {stroke:black;stroke-width:0.1;stroke-opacity:0.501961}
    .str0 {stroke:black;stroke-width:0.1}
    .str3 {stroke:black;stroke-width:0.5}
    .fil5 {fill:none}
    .fil0 {fill:white}
    .fil2 {fill:#1F1A17;fill-rule:nonzero}
    .fil3 {fill:#C2C1C1;fill-rule:nonzero}
    .fil4 {fill:white;fill-rule:nonzero}
    .fil6 {fill:black;fill-rule:nonzero}
    .fil1 {fill:white;fill-rule:nonzero;fill-opacity:0.501961}
   ]]>
  </style>
 </defs>
 <g id="Plan_x0020_1">
  <metadata id="CorelCorpID_0Corel-Layer"/>
  <path class="fil0 str0" d="M23.3856 32.7156l53.9396 0 1.3726 0.3294 9.0782 -0.0725 17.1094 -0.1768 76.5419 0.2829 89.8517 0.1068 0 0c-0.0124,0.1259 -0.032,0.2542 -0.062,0.3981 -0.11,0.5264 -0.2326,0.8223 -0.188,1.363 0.0575,0.6976 0.0961,2.0243 -0.1002,2.6615 0.1161,0.1997 -0.1256,0.7788 -0.2504,0.95 -0.1509,0.2068 -0.2361,0.4087 -0.419,0.5971 -0.2472,0.2547 -0.4374,0.5311 -0.568,0.8585l-0.2859 0.4807c-0.078,0.1237 -0.156,0.2474 -0.234,0.371l-0.2669 0.52c-0.1057,0.455 -0.9673,1.1779 -1.3315,1.4556l-2.123 1.619c-0.1577,0.248 -0.6995,0.5295 -0.9591,0.6718 -1.0144,0.5564 -2.3678,1.6509 -2.6165,2.8413 -0.009,0.1056 -0.0256,0.2137 -0.0256,0.3196l0 0.1563c0,0.0586 0.014,0.1166 0.014,0.1726l0.0246 0.0725c0.0283,0.1062 -0.0459,0.3326 -0.0705,0.4465 -0.0212,0.0984 0.0264,0.2336 0,0.329 -0.0436,0.1577 0.0009,0.2739 0.047,0.423 0.0296,0.0961 0.0732,0.1009 0.1175,0.1645 0.0337,0.0486 0.0725,0.0856 0.1175,0.1175 0.0809,0.0572 0.1352,0.1195 0.2115,0.188 0.1164,0.1043 0.1689,0.1851 0.329,0.2585 0.3456,0.1585 0.6912,0.3173 1.0368,0.476l0.5587 0.9351c0.1141,0.2172 0.2019,0.4365 0.3398,0.6438 0.1795,0.2701 0.3977,0.5598 0.5354,0.8538 0.0831,0.2651 0.2388,0.4978 0.298,0.7745 0.2107,0.9846 0.6914,1.6819 1.2384,2.5054 0.4414,0.6645 0.8186,1.2483 1.704,1.353 0.5513,0.0651 1.249,-0.0812 1.7598,0.1679 0.4316,0.2106 0.8337,0.7696 1.2896,0.8538 0.3045,-0.0258 1.0093,0.2806 1.3176,0.3686 0.7246,0.207 1.2636,0.8259 1.5084,1.5117 0.1575,0.441 0.313,1.234 0.5913,1.5909l0.205 0.4612 -0.0687 83.3819 0 0 -4.7706 0.0012c0,0.2863 0.1182,0.4912 0.1645,0.7062 0.0113,0.0526 0.0597,0.0761 0.094,0.1175 0.0421,0.051 0.0429,0.1082 0.1175,0.141 0.3457,0.1525 0.0235,1.0865 -0.1645,1.2455 -0.4183,0.354 -0.6003,0.758 0,1.0575 0.2089,0.1042 0.5431,-0.094 0.7285,-0.094 0.0157,0 0.0314,0 0.047,0 0.4452,0 0.3036,0.8035 0.4465,1.128 0.017,0.0386 0.1626,0.128 0.188,0.141 0.0784,0.04 0.1577,0.11 0.2115,0.188 0.0899,0.1306 0.2585,0.3334 0.329,0.517 0.0193,0.0501 0.0149,0.0305 0.047,0.0705 0.0479,0.0599 0.0906,0.0724 0.094,0.141 0.064,1.2865 -0.0739,2.5464 -0.2115,3.807 -0.0159,0.1457 -0.2051,0.2385 -0.3525,0.1175 -0.1753,-0.1438 -1.4731,-0.2547 -1.3865,-0.0235 0.0469,0.1254 0.0941,0.2507 0.141,0.376 0.067,0.1788 0.1151,0.5477 -0.1645,0.6815 -0.0623,0.0298 -0.0187,0.0992 0.0235,0.141 0.043,0.0425 0.969,0.3737 0.987,0.3995 0.123,0.1769 -0.1298,0.5623 -0.2115,0.7755 -0.5499,1.4346 0.6134,0.6241 1.175,1.128 0.5501,0.4934 0.9035,-0.2919 1.5275,-0.1645 0.1439,0.0293 0.2585,0.1777 0.2585,0.4465 0,0.2742 0,0.5484 0,0.8225 0,0.4387 0,0.8774 0,1.316 0,0.693 0.102,1.497 0.7755,1.88 0.0455,0.0259 0.2077,0.257 0.2115,0.3055 0.0462,0.5856 -0.5067,1.2454 -0.5875,1.8565 -0.0925,0.7003 -0.0676,0.6652 -0.6815,0.94 -0.3485,0.156 -1.0617,0.242 -1.175,0.658 -0.224,0.8219 0.3341,0.7924 0.7285,1.4335 0.3913,0.6359 -0.576,0.7002 -0.799,1.1985 -0.2306,0.5151 0.3995,0.7068 0.3995,1.0105 0,0.3045 -0.0896,1.47 -0.423,1.504 -0.2477,0.0253 -0.6532,-0.0639 -0.7755,0.2115 -0.4309,0.97 0.5556,1.5725 0.047,2.303 -0.3722,0.5347 -0.0264,0.6866 -0.235,1.1045 -0.1359,0.2725 -0.5628,1.0515 -0.7755,1.034 -0.6913,-0.057 -0.9804,0.9614 -1.0105,1.551 -0.0487,0.9524 -1.0836,0.467 -0.8695,1.7155 0.0194,0.1132 0.047,0.1845 0.047,0.282 0,0.0555 0.0065,0.0497 0.0235,0.094 0.0495,0.1293 -0.0376,0.2842 -0.094,0.376 -0.0268,0.0436 -0.1458,0.1822 -0.1645,0.2115 -0.0406,0.0639 -0.0619,0.1589 -0.0705,0.235 -0.0245,0.2155 -0.1008,0.3729 0,0.5875 0.3548,0.7546 0.7941,0.7469 1.457,1.222 0.1281,0.0919 0.2832,0.4221 0.329,0.517 0.0756,0.157 0.3429,0.1288 0.47,0.2115 0.061,0.0398 0.0382,0.1236 0.094,0.1645 0.1269,0.0932 0.094,0.4272 0.2115,0.517 0.0748,0.0573 0.1977,0.1175 0.282,0.1175 0.0157,0 0.0314,0 0.047,0 0.0483,0 -0.0143,0.0171 0.0235,0.047 0.0505,0.0398 0.0781,0.0797 0.1175,0.1175 0.0318,0.0304 0.0233,0.057 0.047,0.094 0.0109,0.0172 0.1979,0.2289 0.2115,0.235 0.0585,0.0266 0.1175,0.0514 0.1175,0.094 0,0.0157 0,0.0314 0,0.047 0,0.0484 0.0323,-0.0224 0.047,0.0235 0.1809,0.5653 0.3965,0.9799 0.7285,1.457 0.1174,0.1686 0.6301,1.263 0.564,1.4805 -0.1441,0.4743 -0.2747,0.7068 0.094,0.94 0.7428,0.4696 -0.3852,2.0993 0.3525,2.632 0.2111,0.1524 1.0079,0.533 1.1709,0.5437l0 0c-0.526,0.1377 -1.0153,0.3355 -1.5413,0.1738 -0.7501,-0.2305 -0.8924,-1.0898 -1.2519,-1.3923 -0.6345,-0.5337 -1.9376,0.7968 -2.6559,0.2457 -0.3126,-0.2399 -0.4684,-1.4255 -0.585,-1.755 -0.3054,-0.8634 -0.9668,-0.6808 -1.5093,-1.1817 -0.3454,-0.3188 -0.7393,-0.7156 -0.9711,-1.0998 -0.5444,-0.9027 1.0252,-1.95 0.0351,-2.7378 -0.8704,-0.6927 -2.6444,0.8421 -2.9367,-0.9126 -0.181,-1.0871 -0.2349,-0.8762 -1.1817,-1.0998 -0.711,-0.168 -1.3607,-0.5183 -2.0358,-1.1934 -0.0117,-0.0116 -0.0234,-0.0235 -0.0351,-0.0351 -0.544,-0.544 -1.3143,0.6652 -1.9188,0.3978 -0.5648,-0.2497 -0.2658,-1.2816 -1.0179,-1.5561 -0.4124,-0.1504 -0.8281,-0.3419 -1.287,-0.2808 -0.4145,0.0551 -0.853,0.1638 -1.2753,0.1638 -0.438,0 -2.0921,-0.3879 -2.3283,-0.7722 -0.1816,-0.2953 -0.7228,-0.7533 -1.053,-0.9126 -0.3985,-0.1921 -0.827,-0.4148 -1.2168,-0.4797 -0.0234,-0.0038 -0.0468,-0.0079 -0.0702,-0.0117 -0.3433,-0.0571 -0.4005,-1.1017 -0.5967,-1.4157 -0.117,-0.1871 -0.2341,-0.3745 -0.351,-0.5616 -0.2166,-0.3465 -0.497,-0.365 -0.8458,-0.2518 -0.1364,0.0443 -0.2835,0.1087 -0.4412,0.1816 -0.4204,0.1941 -1.2342,-0.6261 -1.8135,-0.5148 -0.6745,0.1297 -0.859,0.6018 -1.6263,-0.0351 -0.3626,-0.3011 -1.173,-0.5155 -1.521,0.0234 -0.3438,0.5322 -0.7009,1.139 -1.3923,0.7722 -0.2905,-0.154 -0.6627,-0.168 -0.9844,-0.1871l-2.9308 0.0147 -0.0937 0.028 -1.8622 -0.056c-0.8906,-0.0267 -1.8123,0.1761 -2.6816,-0.0186 -1.025,-0.2297 -3.5846,-0.745 -4.4507,-0.224 -0.9678,0.5821 -1.3695,1.1543 -2.0191,2.0537 -0.0108,0.0464 -0.0921,0.139 -0.1187,0.196 -0.059,0.1267 -0.1698,0.2012 -0.2305,0.3289 -0.0466,0.0979 -0.076,0.2006 -0.121,0.2986 -0.0258,0.0563 -0.0935,0.1192 -0.0972,0.1785l-0.2582 0.3735c-0.1539,0.0966 -0.3078,0.1933 -0.4617,0.2898 -0.1172,0.0736 -0.2297,0.1443 -0.3393,0.234 -0.1041,0.0851 -0.2417,0.1471 -0.3627,0.1989 -0.214,0.0915 -0.4602,0.0936 -0.6903,0.0936 -0.1354,0 -0.258,0.0068 -0.3861,-0.0234 -0.0518,-0.0122 -0.1416,-0.0652 -0.1872,-0.0819 -0.8171,-0.2995 -1.422,-0.215 -2.0943,-0.8424 -0.468,-0.4367 -0.936,-0.8737 -1.404,-1.3104 -0.295,-0.2754 -0.284,-0.7609 -0.702,-0.8892 -0.5247,-0.1612 -0.5716,0.2085 -1.1817,-0.0234 -0.4719,-0.1793 -0.9438,-0.3589 -1.4157,-0.5382 -0.8648,-0.3287 -2.2413,-1.0622 -2.9952,-1.5912 -0.849,-0.5956 -1.6643,-1.4124 -2.6091,-1.7901 -0.953,-0.3811 -1.7035,-0.047 -2.4687,-0.9945 -0.4797,-0.5942 -0.8871,-1.5166 -1.2232,-2.3958l-12.6407 0.2219 -171.781 -0.4715 0 0 -0.3152 -92.1831 0 0.0056 0.7072 0 0 -44.5727 0 0z"/>
 </g>
</svg>
