<?xml version="1.0" encoding="UTF-8"?>
<!DOCTYPE svg PUBLIC "-//W3C//DTD SVG 1.1//EN" "http://www.w3.org/Graphics/SVG/1.1/DTD/svg11.dtd">
<!-- Creator: CorelDRAW -->
<svg xmlns="http://www.w3.org/2000/svg" xml:space="preserve" width="297mm" height="210mm" style="shape-rendering:geometricPrecision; text-rendering:geometricPrecision; image-rendering:optimizeQuality; fill-rule:evenodd; clip-rule:evenodd"
viewBox="0 0 297 210"
 xmlns:xlink="http://www.w3.org/1999/xlink">
 <defs>
  <style type="text/css">
   <![CDATA[
    .str2 {stroke:#2F3133;stroke-width:0.1}
    .str1 {stroke:black;stroke-width:0.1;stroke-opacity:0.501961}
    .str0 {stroke:black;stroke-width:0.1}
    .str3 {stroke:black;stroke-width:0.5}
    .fil5 {fill:none}
    .fil0 {fill:white}
    .fil2 {fill:#1F1A17;fill-rule:nonzero}
    .fil3 {fill:#C2C1C1;fill-rule:nonzero}
    .fil4 {fill:white;fill-rule:nonzero}
    .fil6 {fill:black;fill-rule:nonzero}
    .fil1 {fill:white;fill-rule:nonzero;fill-opacity:0.501961}
   ]]>
  </style>
 </defs>
 <g id="Plan_x0020_1">
  <metadata id="CorelCorpID_0Corel-Layer"/>
  <path class="fil0 str0" d="M159.121 90.2227l8.4308 0.0823 6.9344 -0.0914 24.4624 0.0274 0 0 0.6569 -5.008 0.2463 -3.427c-0.1322,-0.6308 1.9288,-2.2778 2.3906,-2.2115 0.1519,0.2437 0.6629,1.1191 0.9306,1.1606 0.5262,0.0815 1.3021,-0.173 1.834,-0.2468 0.9849,-0.1366 2.4887,-0.8108 2.9289,-1.7546 0.2651,-0.5682 -0.2466,-1.1468 -0.0821,-1.7272l0.2099 -0.7402 0.1094 -0.1006c0.0166,-0.004 0.0199,-0.0141 0.0365,-0.0182 0.0227,-0.0682 -0.023,0.0399 0.0822,-0.1097 0.305,-0.6579 0.5246,-0.6818 0.2737,-1.4622 -0.2205,-0.686 0.0073,-0.8049 0.4745,-1.316 0.8826,-0.9656 2.1753,-1.1803 2.9836,-2.3486 0.6697,-0.9678 0.6039,-0.7865 1.6789,-0.9596 0.5185,-0.0834 2.0648,-0.9885 2.3905,-1.3799 0.4511,-0.0504 1.3356,-0.1391 1.7336,-0.3381 0.7292,-0.3645 1.0839,0.0841 1.688,-0.0914 0.5715,0 1.1053,-0.3426 1.6059,-0.2651 0.5741,0.089 0.9069,0.6472 1.5329,0.6946 1.3896,0.1052 1.6661,-0.3999 2.5274,-1.2612 0.6048,-0.6048 0.8266,-0.7592 1.6424,-0.9321 0.8059,-0.1707 1.5491,-1.0951 2.1898,-1.5536 0.1354,-1.0989 1.6015,0.6151 1.9617,-0.8499 0.0167,-0.0041 0.0141,-0.0016 0.0183,-0.0182 0.0287,-0.0072 0.0302,-0.0319 0.0638,-0.0366 0.0337,-0.0507 0.2198,-0.0931 0.2829,-0.1279 0.2389,-0.3088 0.5953,-0.6105 0.6934,-1.0053 0.0747,-0.3011 -0.1405,-0.6755 0.3559,-0.7037 0.7466,-0.0424 1.6812,0.3453 2.0256,-0.5574 0.1644,-0.4309 0.3536,-0.9779 0.8668,-0.9779 0.6117,0 1.3034,-0.0221 1.7792,-0.4295 0.6222,-0.5329 1.2752,-0.6464 1.9982,-0.1462 0.1575,0.109 1.2254,0.4107 1.2592,0.3107 0.1864,0 0.8863,-1.4603 1.0492,-1.6907 0.2276,-0.3244 0.7116,-0.6547 0.8304,-1.0418 0.1176,-0.3828 -0.1636,-0.767 0.2919,-0.9687 0.8663,-0.3838 -0.6929,-1.82 -0.073,-2.2664 0.0394,-0.3123 1.0855,-0.6854 1.3596,-0.6854 0.7466,0 0.8351,0.4442 1.3777,0.786 0.9938,0.6262 1.0915,-1.8286 1.4417,-2.239l0.4288 -0.5026c0.0602,-0.0152 0.2697,-0.2611 0.3376,-0.3108l1.9161 -1.1788 1.8431 -1.115c0.0829,-0.0207 0.1325,-0.0548 0.2281,-0.0548 0.3787,0.3787 1.0384,0.7562 1.3048,1.2246 0.0256,0.0063 0.0263,0.0355 0.0456,0.0548 0,0.0457 -0.0183,0.0703 -0.0183,0.1097 -0.8419,0.8419 -0.7025,1.4026 -0.7025,2.5405 0.2035,0.2046 1.5196,0.0684 1.7975,-0.0091 0.5037,-0.1404 1.1662,-0.7076 1.6332,-0.9961 1.2471,-0.7703 2.0626,-1.7765 2.5822,-3.1437 0.3242,-0.8533 1.0937,-0.7919 1.5146,-1.2977 0.0761,-0.0096 0.1239,-0.0597 0.1825,-0.1097 0.6916,-0.4614 0.9239,-0.6292 1.7336,-0.8682 0.6762,-0.1997 1.0173,0.0984 1.615,-0.0274 0.3249,-0.0684 0.9354,-0.6142 1.1314,-0.8864 0.27,-0.3752 0.9136,0.2265 1.2683,0.3564 0.965,0.3533 1.0848,0.2007 1.5602,1.1515 0.3552,0.7106 1.7698,0.069 2.3815,-0.192 1.0924,-0.4663 1.6473,-1.7165 1.9069,-2.7598 0.1118,-0.4492 0.6636,-1.0264 0.7026,-1.3434 0.087,-0.0622 0.175,-0.2325 0.219,-0.329l2.9471 -3.8657c0.9105,-1.1943 1.9515,-0.9686 3.0749,-0.3472 0.629,0.3478 1.1894,0.2526 1.0584,-0.5941 -0.0812,-0.5247 -0.6715,-1.7032 0.0548,-2.0653 0.0295,-0.1189 0.5243,-0.8286 0.6204,-0.9047 0.2488,-0.562 0.3045,-1.2179 0.3924,-1.8186 0.0913,-0.6233 -0.0365,-1.1904 -0.0365,-1.8004 0,-0.3537 0.0547,-0.6995 0.0547,-1.0418 0.2203,-0.2759 0.2628,-0.7984 0.511,-1.1149l0 0 0.1932 -0.3461c0.0278,-0.0279 0.0404,-0.0622 0.0593,-0.096 0.0169,-0.0304 0.0426,-0.0555 0.0593,-0.0868 0.0271,-0.0504 0.0656,-0.09 0.0913,-0.1417 0.0109,-0.0218 0.0323,-0.0552 0.0502,-0.0731 0.0041,-0.0168 0.0178,-0.0339 0.0273,-0.0502 0.0173,-0.03 0.0157,-0.0444 0.0212,-0.0834l-8.1738 -0.0903 -0.5672 0.8397 -1.6789 0.0091 -1.4599 0.128 -4.0147 -0.0732 -4.3431 0.0092 -1.3322 -0.1462 -10.429 0.0548 -9.6444 0.1462 -7.8377 -0.0548 -1.0667 -0.2685 -11.9537 -0.024 0 0 -0.5831 0.7049 -2.948 -0.0377 -6.3504 -0.064 -1.0585 -0.1462 -0.0912 -0.0274 -4.5256 -0.1097 -6.7794 -0.1279 -12.0258 -0.3016 -3.3942 -0.3016 -2.4544 -0.1919 -1.5329 0.0091 -3.8048 -0.0731 -1.2774 -0.1188 -2.2812 -0.0274 -14.4619 -0.2193 -1.0858 -0.0731 -4.1241 0.0182 -0.6935 -0.1645 -5.6205 -0.2924 -5.4381 -0.2285 -2.792 -0.3381 -5.6023 0.1188 -1.5511 -0.2467 -7.2446 0.1462 -2.5275 0.1828 -4.7812 0.2193 -3.303 -0.0548 -5.0457 -0.0366 -5.3924 0.1097 -10.4473 0.2741 -0.0639 -1.2611 -6.7884 -0.4752 0.3832 2.0014c0,0.2 0.1515,0.5481 0.2098,0.7493l0.1643 0.5666c0.1037,0.358 0.1773,0.6509 0.2372,1.0236 0.0418,0.2607 0.1188,0.5027 0.1277,0.7676l0.0274 0.8042c0.0079,0.2343 -0.5242,0.8572 -0.7573,0.8865 -0.003,0.0124 -0.1234,0.1268 -0.1326,0.1376l-39.1383 -0.3844 -2.6582 0.2809 0 0c-0.3903,0.9292 -0.9505,1.6524 -1.7762,1.6291 -0.8624,-0.0244 -0.7655,-0.7626 -0.5165,-1.5028l-0.0023 0.0071 -1.8032 0.0176 0 0c0.0858,0.1001 0.176,0.1969 0.2691,0.2901 0.7528,0.7528 -0.1763,1.2667 -0.292,2.1019 -0.0152,0.1096 -0.0305,0.2194 -0.0456,0.329 -0.0637,0.4597 0.5995,0.9171 0.7938,1.3251 0.2467,0.5177 0.4825,1.4595 -0.2007,1.8734 -0.8508,0.5156 -1.2509,-0.1306 -2.053,-0.064 -0.4495,0.0373 -0.9236,0.3683 -0.7847,0.8773 0.1473,0.5402 0.6701,0.8462 1.1223,1.0967 0.6243,0.3458 1.1527,1.0224 0.885,1.7363 -0.4487,1.197 -2.402,-0.0126 -3.2938,0.0549 -1.1433,0.0865 -0.7426,1.2269 -0.0821,1.846 0.735,0.689 2.1752,0.9558 2.3632,2.1933 0.1979,1.302 -1.4724,1.3042 -2.3085,1.6541 -0.5269,0.2206 -0.7442,1.2517 -0.7299,1.7729 0.0163,0.5963 -0.0513,1.1094 -0.4562,1.5718 -0.0921,0.1051 -0.1797,0.1913 -0.2603,0.2693l0 0c-0.288,0.2791 -0.4879,0.4569 -0.4879,1.0376 0,1.0409 1.3499,1.3529 1.9891,1.9556 0.3597,0.3393 0.8761,1.4349 0.2372,1.7638 -0.4725,0.2433 -0.5279,0.1696 -0.9581,0.0183 -0.0805,-0.0283 -0.2882,-0.2354 -0.3284,-0.3016 -0.2621,-0.4323 -0.7482,-0.9413 -1.2683,-0.9413 -0.5708,0 -1.0027,0.6782 -1.1953,1.2063 -0.2297,0.6302 0.7262,0.9736 1.0037,1.1424 0.5017,0.3053 1.3106,0.223 1.4964,0.7493 0.121,0.3428 -0.3549,0.6642 -0.8924,0.9313 -0.8024,0.1359 -1.7062,-0.4086 -2.1825,0.5492 -0.1873,0.434 -0.1325,0.8905 -0.3809,1.2204 -0.2123,0.1592 -0.4247,0.2881 -0.641,0.388 -0.2979,0.1375 -0.6635,0.2208 -1.0534,0.2895 -0.5659,0.0036 -1.0989,-0.639 -1.7752,-0.4723 -1.289,0.3177 -1.6028,1.948 -0.8576,2.9244 1.1311,1.4818 1.7884,-0.2308 2.7281,0.5575 0.0459,0.4185 0.2393,0.5594 0,1.0144 -0.5678,1.0798 -3.1935,0.6659 -3.1935,1.8551 -0.0226,0.2506 0.0504,0.3966 0.0821,0.6214 0.5047,0.5047 1.1928,0.5539 1.7783,1.0034 0.0253,0.4196 -0.0369,0.7869 -0.3914,1.0894 -0.2764,0.2358 -0.6489,0.1638 -1.0403,0.0141 -0.6493,-0.6686 -0.8564,-2.2204 -2.29,-1.5037 -0.7204,0.3601 -0.9319,1.5936 -0.7756,2.3029 0.157,0.7129 1.7927,1.848 1.2438,2.6039 -0.1747,0.1706 -0.4179,0.3038 -0.7328,0.5216 -0.3216,0.2226 -0.5854,0.3457 -0.8319,0.4809 -0.1658,0.0112 -0.3078,-0.0839 -0.4273,-0.3987 -0.2667,-0.7019 -0.0365,-1.3507 -0.0365,-2.0745 -0.2159,-0.2774 -0.4266,-0.8025 -0.8942,-0.7128 -1.0243,0.1965 -0.4959,0.9872 -0.7573,1.645 -0.2704,0.6808 -1.0627,0.5305 -1.4781,1.0509 0,0.3531 -0.2756,0.7028 -0.146,1.0144 0.108,0.308 1.2044,1.0444 1.2044,0.4204 0,-0.5392 -0.2085,-1.0959 0.219,-1.5444 0.5631,-0.5906 0.6928,0.0574 0.8942,0.4386 0.1178,0.2232 0.7664,0.6917 0.7634,0.7786 -0.0434,0.0683 -0.0839,0.131 -0.1247,0.1993 -0.5177,0.8665 -0.7328,1.9266 -0.7352,2.9742 -0.0971,0.1127 -0.2514,0.1677 -0.5149,0.1603 -0.4835,-0.0137 -1.1367,-0.0933 -1.4051,0.393 -0.392,0.7099 0.7878,1.3962 1.4051,1.252 0.2011,-0.047 0.7717,-0.0745 0.9037,-0.0284 0.1092,0.1379 0.2188,0.2678 0.2369,0.3939 0.0017,0.012 0.1983,0.4089 0.3016,0.6257 0.0115,0.5718 -0.3397,0.3502 -0.6392,0.7726 -0.064,0.0697 -0.1235,0.0869 -0.1825,0.1462 -0.6726,0.0829 -0.5465,0.7326 -0.0365,0.9778 0.4332,0.2084 0.9718,0.1845 1.0858,0.7585 0.0217,0.1091 0.031,0.2159 0.0757,0.3619 -0.0825,0.5125 -0.3434,0.9042 -0.8969,1.1186 -0.6384,0.2472 -0.9995,-0.4117 -1.4873,-0.4843 -0.0245,-0.0036 -0.0256,-0.0042 -0.0456,-0.0183 -0.1485,-0.1042 -0.4352,-0.0634 -0.5566,0.0274 -0.9996,0.7479 -0.522,1.9241 -0.6652,2.9204 -0.394,0.8923 -1.2965,0.8354 -2.072,0.6528 -0.8482,-0.1996 -1.6005,0.4088 -1.6211,1.3645 -0.0078,0.018 -0.015,0.0366 -0.0215,0.0558l-0.0004 0.0014 65.052 0.268 0 0 0.0047 -0.5017 80.33 0.8042 0 0z"/>
 </g>
</svg>
