<?xml version="1.0" encoding="UTF-8"?>
<!DOCTYPE svg PUBLIC "-//W3C//DTD SVG 1.1//EN" "http://www.w3.org/Graphics/SVG/1.1/DTD/svg11.dtd">
<!-- Creator: CorelDRAW -->
<svg xmlns="http://www.w3.org/2000/svg" xml:space="preserve" width="297mm" height="210mm" style="shape-rendering:geometricPrecision; text-rendering:geometricPrecision; image-rendering:optimizeQuality; fill-rule:evenodd; clip-rule:evenodd"
viewBox="0 0 297 210"
 xmlns:xlink="http://www.w3.org/1999/xlink">
 <defs>
  <style type="text/css">
   <![CDATA[
    .str2 {stroke:#2F3133;stroke-width:0.1}
    .str1 {stroke:black;stroke-width:0.1;stroke-opacity:0.501961}
    .str0 {stroke:black;stroke-width:0.1}
    .str3 {stroke:black;stroke-width:0.5}
    .fil5 {fill:none}
    .fil0 {fill:white}
    .fil4 {fill:#1F1A17;fill-rule:nonzero}
    .fil2 {fill:#C2C1C1;fill-rule:nonzero}
    .fil3 {fill:white;fill-rule:nonzero}
    .fil6 {fill:black;fill-rule:nonzero}
    .fil1 {fill:white;fill-rule:nonzero;fill-opacity:0.501961}
   ]]>
  </style>
 </defs>
 <g id="Plan_x0020_1">
  <metadata id="CorelCorpID_0Corel-Layer"/>
  <path class="fil0 str0" d="M159.572 193.295l-0.2002 -1.1031 -0.2692 -2.1111 -0.333 -1.5079 -0.8806 -3.2069 -1.0264 0.1178 0.4243 0.4022c0.2049,0.1776 0.2632,0.4805 0.3285,0.7357 0.0429,0.168 0.0802,0.6236 0.2509,0.7082 0.0713,0.1449 0.1368,0.1677 0.1368,0.3473 0,0.2447 0.0829,0.4283 0.1506,0.658 0.0356,0.1207 0.034,0.2317 0.0547,0.3519 0.0287,0.1672 0.1154,0.2502 0.1643,0.3975l0.041 0.0457c0.0562,0.1534 0.1556,0.3291 0.1688,0.4935 0.272,0.4916 0.4654,0.8606 0.4654,1.4395 0,0.2387 -0.0202,0.5286 0.0274,0.7631l0.1688 0.8316 0.1551 0.5347 0.1728 0.1023zm7.7335 -35.4524c-0.9652,0.5124 -1.9678,1.3994 -2.71,2.198 -0.1868,0.2009 -0.4797,0.4273 -0.6113,0.6672 -0.0283,0.0258 -0.0427,0.0529 -0.0639,0.0868 -0.4914,0.4634 -1.0124,0.8911 -1.4097,1.4485l-0.9216 1.2932c-0.0793,0.1112 -0.3969,0.5683 -0.3969,0.6854 -0.0204,-0.0067 -0.1355,-0.1259 -0.1597,-0.1553 0.0511,-0.1778 0.13,-0.3835 0.2053,-0.5529 0.0359,-0.0806 0.0063,-0.1759 0.0274,-0.2605 0.0205,-0.082 0.1263,-0.1573 0.1414,-0.2193 0.2761,-0.1587 0.6207,-0.626 0.6981,-0.9322 0.0934,-0.067 0.1012,-0.2583 0.2007,-0.329 0.098,-0.5492 0.4492,-0.7276 0.7664,-1.1516 0.129,-0.16 0.2138,-0.3982 0.3833,-0.5118 0.2534,-0.17 1.4142,-0.5493 1.4142,-0.891 -0.1064,-0.1225 -0.2499,-0.4024 -0.0501,-0.5255 0.1083,-0.0666 0.3802,0.0234 0.5337,-0.0137 0.7801,-0.1885 1.1939,-0.7888 1.8432,-1.2201 0.3193,-0.2337 0.7357,-0.3841 1.0721,-0.6169 0.4412,-0.3055 0.9975,-0.4469 1.4416,-0.7677 0.1782,-0.1288 0.377,-0.2128 0.5338,-0.3701 0.1503,-0.1509 0.174,-0.1855 0.2783,-0.3564 0,-0.0398 0.0063,-0.1687 0.0274,-0.1965l0 -0.0137 0.0091 -0.0092 0.0274 0c0.0089,0.0091 0.0056,0.0074 0.0182,0.0092 0.0402,0.048 0.1427,0.0619 0.1962,0.1051 0.0395,0.1549 -0.29,0.5165 -0.3878,0.658 -0.3624,0.5237 -0.6265,0.5719 -1.2135,0.7859 -0.3132,0.1142 -0.5728,0.2597 -0.8532,0.4433 -0.2507,0.164 -0.4579,0.4018 -0.7436,0.5164l-0.2965 0.1964zm3.595 -2.8879c0.1289,-0.0759 0.2451,-0.1847 0.3558,-0.2833 0.0718,-0.0638 0.1551,-0.1593 0.1551,-0.2605 0.0425,0.0106 0.1415,0.092 0.1415,0.1371 -0.0371,0.0092 -0.1247,0.1216 -0.146,0.1554 -0.0841,0.1339 -0.1633,0.219 -0.292,0.3107 -0.0469,0.0333 -0.0884,0.0616 -0.1232,0.1097 -0.0345,0.0475 -0.0776,-0.0185 -0.0958,-0.0503l0.0046 -0.1188zm3.0064 -3.4911c-0.1118,0.0921 -0.2854,0.1324 -0.4242,0.1508 -0.0325,0.0043 -0.0828,0.0257 -0.0958,-0.0138 -0.0147,-0.0444 -0.032,-0.1234 -0.032,-0.169 -0.0744,0 -0.3835,-0.0314 -0.3786,0.0731 0.0036,0.076 0.1159,0.2347 0.1551,0.3061 0.0498,0.0909 0.0564,0.1069 0.1688,0.0869 0.1582,-0.0283 0.3163,-0.178 0.4744,-0.2331 0.0892,-0.0311 0.365,-0.0656 0.365,-0.1965l-0.2327 -0.0045zm19.7133 -10.9304c-0.1174,0.1438 -0.4022,0.2787 -0.5749,0.3884l-0.5611 0.3564 -0.9124 0.5986 -1.5466 1.0556c-0.0132,0.0183 -0.012,0.0184 -0.032,0.0274l-0.3421 0.3565 -0.1004 0.1599c-0.0449,-0.0346 -0.1049,-0.0729 -0.1049,-0.1325 0.0826,0 0.2264,-0.3203 0.2783,-0.3884 0.2043,-0.2683 0.558,-0.3842 0.8166,-0.5895 0.1812,-0.144 0.5376,-0.3466 0.6615,-0.5301 0.16,-0.2372 0.0773,-0.1206 0.2966,-0.1965 0.1234,-0.0426 0.2142,-0.1907 0.2874,-0.2924 0.1349,-0.1877 0.3579,-0.286 0.5292,-0.4387 0.1992,-0.1777 0.1987,-0.3727 0.4836,-0.5164 0.1092,-0.0715 0.3063,-0.1167 0.4288,-0.1416l0 -0.0229c-0.0815,-0.0483 -0.2522,-0.065 -0.219,-0.2147 0.0128,-0.0575 0.5597,-0.2284 0.6524,-0.2696 0.217,-0.0963 0.0626,-0.7253 0.1917,-0.8408 0.0218,-0.0194 0.2777,0.1793 0.3193,0.2056 0.1047,0.066 0.0877,0.1514 0.1141,0.2559 0.0059,0 0.1286,-0.1072 0.1733,-0.1234 0.1672,-0.0605 0.5437,-0.091 0.7072,-0.0502 0.0278,0.1138 -0.4737,0.4395 -0.5657,0.5163 -0.2416,0.2015 -0.4748,0.4672 -0.7346,0.6397l-0.2463 0.1874zm-119.84 -126.522l44.0623 0.0044 0.0234 34.4744c0.6232,-0.1521 1.2723,-0.0236 1.8377,0.4809 0.5587,0.4984 0.9022,1.9243 1.4416,2.2025 0.1807,0.0932 0.4326,0.1081 0.5384,0.3015 0.315,0.5762 1.1914,0.7873 1.8248,0.6854 0.5868,-0.0945 0.274,-0.4053 0.5475,-0.6397 0.784,-0.6716 1.6301,1.3501 2.5183,0.5301 0.2435,-0.2247 0.0076,-0.9604 0.2555,-1.1606 0.4709,-0.3805 0.6381,0.4514 0.8941,0.6397 0.2638,0.1939 0.6471,-0.0499 0.803,0.3198 0.2492,0.5905 0.9124,1.0166 0.9124,1.7272 0,0.6983 0.0407,1.3171 0.8029,1.581 0.4885,0.1692 0.8719,-0.1181 1.2501,0.0183 0.323,0.1166 0.3655,0.2867 0.7573,0.1462 0.3091,-0.1109 0.3761,-0.4011 0.7025,-0.2559 0.4388,0.1951 0.5799,0.9112 1.0311,1.0784 0.5116,0.1895 1.116,0.0818 1.6241,0.3016 1.2272,0.5309 1.8764,-0.6959 2.9928,-0.1371 0.5031,0.2519 0.7483,0.942 1.2956,1.188 0.7356,0.3305 0.7596,0.3516 1.1132,-0.201 0.3286,-0.5137 0.5151,-1.467 1.3139,-1.0327 0.7771,0.4224 1.2066,0.0243 1.8978,0.4844 0.607,0.404 0.6432,-0.2343 1.0128,-0.4387 0.7433,-0.411 0.2236,1.1246 0.1916,1.2337 -0.0791,0.2698 0.3885,0.258 0.438,0.4295 0.0862,0.2991 -0.2767,0.46 0.073,0.7494 0.321,0.2655 0.7669,0.1842 1.1314,0.064 0.292,-0.0962 1.0853,0.392 0.9489,0.7494 -0.1808,0.4739 -0.9854,1.047 -0.5383,1.3433 1.1028,0.731 2.3021,0.6195 3.0475,-0.6671 0.2007,-0.3463 0.4303,-0.1814 0.7117,-0.3016 0.428,-0.1827 0.1724,-0.9729 0.7664,-0.9504 0.3086,0.0117 0.5144,0.6593 0.803,0.6489 0.3759,-0.0135 0.3613,-0.1213 0.2281,0.4203 -0.3439,1.3988 1.295,0.3159 1.7062,0.3747 0.6799,0.0972 0.3923,0.7804 0.3923,1.1698 0,0.7764 1.3082,0.5637 1.4326,-0.0549 0.1094,-0.5438 0.3675,0.122 0.4927,-0.2467 0.2323,-0.6843 0.2414,0.1213 0.7847,-0.0183 0.4045,-0.104 0.8811,-0.8261 1.104,-0.7859 0.5295,0.0954 0.5577,1.0978 0.1369,1.3891 -1.2085,0.8365 1.5829,3.1151 1.3503,0.8499 -0.0462,-0.4507 0.3781,-0.324 0.584,-0.6306 0.1504,-0.2238 -0.5072,-0.5151 -0.3741,-0.6671 0.2603,-0.2975 0.5546,0.2703 0.8121,0.1279 0.278,-0.1536 0.3306,-0.6375 0.4014,-0.9138 0.2627,-1.0238 0.0376,-0.8106 0.9833,-0.7218 0.2607,0.1009 0.2584,0.1777 0.3521,0.4126 0.0941,0.2357 0.1827,0.5023 0.256,0.7418 0.0674,0.2206 0.2006,0.3826 0.4516,0.3826 0.2393,-0.0675 0.3759,-0.2374 0.6471,-0.119 0.14,0.0612 0.2069,0.1737 0.3446,0.231 0.1488,0.062 0.3133,0.1423 0.4772,0.1423 0.5015,-0.0238 0.715,-0.0449 1.0079,-0.4969 0.1543,-0.238 0.2773,-0.4369 0.4796,-0.6392 0.1505,-0.1505 0.4739,-0.0875 0.5586,0.098 0.1149,0.2518 0.051,0.4934 0.1257,0.7371 0.0788,0.2567 0.1289,0.3078 0.3213,0.4526l0.1876 0.119c0.1244,0.0733 0.7312,0.1493 0.7783,0.1769 0.1197,0.0701 0.08,0.6891 0.4197,0.7128 0.1554,0.0108 0.8342,-0.1482 1.0401,0.0183 0.2944,0.2379 0.5592,1.5242 1.0949,1.4804 0.698,-0.0572 0.4775,-1.053 0.8577,-1.389 0.2031,-0.1796 1.7884,0.7077 1.7884,-0.2742 0,-0.7399 1.2232,-1.1774 1.2956,-1.1332 0.09,0.0548 0.2361,0.2095 0.3467,0.2193 0.245,0.0217 0.0715,-0.2913 0.1825,-0.4021 0.1106,-0.1106 0.1774,-0.0037 0.1825,0.0183 0.1317,0.5589 0.4425,-0.0476 0.6022,-0.1645 0.1569,-0.1147 0.3814,0.292 0.5292,0.1645 0.1154,-0.0994 0.0885,-0.2938 0.2007,-0.3655 0.2123,-0.1355 1.0487,0.6952 1.3139,0.6579 0.3892,-0.0548 0.7786,-0.1097 1.1679,-0.1645 0.3513,-0.0495 0.0249,-0.7278 0.6022,-0.6762 0.3921,0.0351 1.374,-0.4366 1.7336,-0.6946 0.8681,-0.6227 0.9786,0.7316 1.0037,0.8042 0.061,0.1757 1.1692,-0.0584 1.2774,0.0183 0.0387,0.0275 -0.0022,0.0716 0.0182,0.1097 0.0139,0.0261 -0.0168,0.025 0.0183,0.0365 0.4702,0.1538 1.3633,0.2231 1.6058,-0.2741 0.0359,-0.0735 0.2038,0.2735 0.2737,0.2924 0.2237,0.0604 0.1665,-0.3329 0.3103,-0.4935 0.169,-0.1886 0.6752,0.5551 0.6752,-0.0914 0,-0.8121 0.6482,-0.76 1.1679,-0.6397 0.2363,0.0547 0.69,-0.0957 0.7299,0.2559 0.0664,0.5859 0.3933,-0.2062 0.5657,0.0549 0.5555,0.8408 -0.486,0.2492 0.438,0.3655 0.4416,0.0555 0.2877,0.7967 0.8029,0.7494 0.1745,-0.016 0.2293,-0.1189 0.3832,-0.0914 0.0297,0.0053 0.0908,0.1469 0.0913,0.1645 0.0166,0.5542 0.1034,0.4082 0.5292,0.5666 0.18,0.067 0.2988,0.8002 0.4562,0.9138 0.7638,0.5509 0.5407,-0.1501 1.2409,0.0549 0.0714,0.0209 0.2127,0.4429 0.2554,0.4935 0.0674,0.0796 0.3763,0.009 0.4745,0.0548 0.0257,0.012 0.0693,0.0283 0.0912,0.0548 0.0301,0.0363 0.014,0.0895 0.073,0.1097 0.5702,0.1962 -0.3205,0.6129 0.8395,0.4204 0.6659,-0.1105 0.5203,0.003 0.6752,0.5117 0.0091,0.03 0.0292,0.0348 0.0547,0.0366 0.3236,0.0236 0.3862,-0.2015 0.6752,-0.0366 0.0901,0.0513 0.0297,0.1941 0.1095,0.2194 0.2253,0.0713 0.39,-0.2137 0.5839,-0.1828 0.0344,0.0055 0.0107,0.0247 0.0365,0.0731 0.0175,0.033 0.0311,-0.0186 0.0365,0.0183 0.0333,0.2285 -0.2457,0.502 -0.073,0.658 0.2562,0.2316 0.654,0.1236 1.0202,-0.0305l0 0c0.0883,-0.0372 0.175,-0.0772 0.2572,-0.1157 0.1667,-0.078 0.516,0.6568 0.6387,0.7859 0.113,0.1187 0.3693,0.0049 0.511,0.0548 0.0294,0.0104 0.0522,0.0501 0.0547,0.0731 0.021,0.1923 -0.1901,0.3039 -0.1095,0.5118 0.0124,0.032 0.0036,0.0265 0.0365,0.0365 0.5397,0.1649 0.546,-0.1825 0.9672,-0.0913 0.0336,0.0073 0.0262,0.0037 0.0365,0.0365 0.1422,0.4509 0.7696,-0.3321 0.8212,-0.3838 0.4605,-0.461 0.1397,0.2209 0.3832,0.3655 0.6022,0.3579 0.4051,-0.9432 1.0219,-0.4203 0.4679,0.3968 1.542,-0.1383 1.6971,0.1644 0.0241,0.0469 0.0888,0.0283 0.1337,0.0481l0.0407 2.9296 0.0997 2.2771 -0.0003 4.3774 0 0 -0.0903 17.5595c0.0249,0.0494 -0.0001,0.1934 0.0137,0.265 0.0907,0.0732 0.3261,0.0823 0.4471,0.1462 0.1459,0.0769 0.2554,0.2162 0.3194,0.3656l0.3923 0.9139c0.1397,0.3258 0.3572,0.0975 0.5338,0.2285 0.1488,0.1103 -0.0933,0.4747 0.3376,0.297 0.2284,-0.0942 0.4767,0.8097 0.5611,0.9642 0.1371,0.2506 0.2136,0.2277 0.4106,0.4021 0.0337,0.1671 0.105,0.2675 0.105,0.4524 0,0.2139 0.1253,0.2875 0.146,0.4524 0.0123,0.0155 0.0112,0.0313 0.0228,0.0457 0.0085,0.0707 0.0535,0.1406 0.0593,0.2102 0.1943,0.2505 0.2086,0.587 0.1733,0.8682 -0.1629,0.1865 0.3336,0.3884 0.0046,0.7174 -0.0316,0.1441 -0.2088,0.3346 -0.2692,0.4935 -0.0856,0.2249 0.108,0.4162 0.1141,0.6306 0,0.4922 0.3384,0.7677 0.8075,0.7677 0.2258,0 0.4955,0.3187 0.6022,0.5072 0.124,0.2188 -0.1891,0.3118 -0.3057,0.3976 -0.2112,0.1552 -0.1103,0.5282 0.2008,0.4478 0.1916,-0.0496 0.2333,0.0857 0.2874,0.2376 0.0626,0.1756 -0.0606,0.4127 -0.0137,0.5209 0.1642,0.0475 0.4867,0.181 0.5155,0.3793 0.1016,0.201 -0.0987,0.3932 0.2145,0.3244 0.219,-0.048 -0.0734,0.375 -0.0958,0.4113 -0.2079,0.3376 -0.417,0.7543 -0.0594,1.0921 0.144,0.1359 0.6602,0.166 0.7209,0.2879 0.1709,0.3435 -0.2021,0.7494 0.3649,0.7494 0,0.182 -0.0877,0.3854 -0.114,0.5712 0,0.0895 0.0606,0.4857 0.1597,0.5118 0.1347,0.0356 0.3056,-0.0776 0.3056,-0.2056 0.0111,0.0035 0.1327,0.2241 0.1688,0.2604 0.0805,0.0807 0.1836,0.1416 0.2418,0.2422 0.0931,0.1606 0.1318,0.3684 0.0867,0.5529 -0.0454,0.1859 -0.1397,0.1849 -0.2372,0.3062 -0.1218,0.1513 0.1401,0.2776 0.2235,0.3747 0.1754,0.2044 0.0056,0.4853 0.2464,0.6991 0.0536,0.0477 0.2661,0.1346 0.1049,0.2239l-0.3878 0.2148c-0.1778,0.0985 -0.2646,-0.0142 -0.4151,-0.064 -0.2444,-0.081 -0.0224,0.3928 -0.0046,0.4478 0.0803,0.1289 0.292,0.4581 0.4517,0.4936 0.1985,0.044 0.1816,0.3063 0.0456,0.4158 -0.0825,0.0663 -0.1957,0.0573 -0.2737,0.1416 -0.1143,0.1233 0.083,0.3518 0,0.4067 -0.0197,0.098 -0.2388,0.052 -0.2464,0.2377 -0.0041,0.0991 0.0686,0.3137 0.1688,0.3427 0.0861,0.1722 -0.078,0.2951 -0.1095,0.4752 -0.0406,0.2315 0.1095,0.3659 0.1095,0.5803 0,0.1254 -0.1314,0.0926 -0.2144,0.1234 -0.2175,0.081 -0.1182,0.1222 -0.1323,0.3244 -0.0223,0.1775 -0.2445,0.3995 -0.3832,0.4981 -0.0189,0.1508 0.0182,0.2535 0.0182,0.3976 0,0.159 -0.1443,0.2219 -0.1688,0.3701 -0.0169,0.1028 -0.0097,0.2136 -0.0502,0.3107 -0.047,0.1129 -0.1108,0.2151 -0.2098,0.2834 -0.1441,0.0996 -0.3014,0.0077 -0.4289,0.1919 -0.0866,0.1253 -0.3089,0.5392 -0.2509,0.6717 0.0444,0.1012 0.1019,0.2491 0.073,0.3656 -0.0256,0.1031 -0.1088,0.245 -0.2236,0.1416 -0.1445,-0.1303 -0.2193,0.1062 -0.3467,0.1737 -0.1685,0.2092 -0.1415,0.1554 -0.0411,0.3564 0.073,0.146 -0.1308,0.19 -0.2053,0.2787 -0.1942,0.231 0.3242,0.4007 0.4608,0.4341 0,0.1676 -0.0913,0.3241 -0.1551,0.4844 -0.098,0.2459 0.0643,0.2567 0.1688,0.4021 0.0705,0.0979 -0.1165,0.1807 -0.041,0.2833 0.0623,0.0848 0.118,0.2606 0.0091,0.3382 -0.1817,0.1297 -0.3094,-0.189 -0.3969,0.1508 -0.0309,0.1198 -0.117,0.2184 -0.1825,0.329 -0.0906,0.1364 -0.3168,0.2093 -0.2509,0.4067 0.0248,0.0743 0.155,0.2564 0.0684,0.329 -0.0147,0.1606 -0.265,0.4285 0.0456,0.5301 0.302,0.0989 0.0825,0.376 0.2646,0.4569 0.1081,0.0481 0.2647,0.1138 0.3741,0.1417 0.181,0.3162 -0.2326,0.8063 -0.2326,1.1241 0,0.1487 0.0569,0.28 0.0912,0.4158 0.0002,-0.011 -0.0037,-0.0087 -0.0091,-0.0183 0.0753,0.1219 0.1949,0.3469 0.2418,0.4798 0.0421,0.119 -0.1138,0.2726 -0.073,0.3245 0.0353,0.0447 0.1967,0.0618 0.2007,0.0776 0.1312,0.0189 -0.1042,0.4481 -0.1277,0.5073 -0.0631,0.1582 -0.1917,0.2917 -0.2601,0.4569 -0.0373,0.0903 0.032,0.245 0.032,0.3427 0,0.1523 -0.1257,0.3063 -0.1825,0.4433 -0.0546,0.132 -0.2738,0.4967 -0.3931,0.561l-0.41 0.4219 0.0011 0.002c-0.0376,-0.0672 -0.0663,-0.1624 -0.1059,-0.1624 -0.2166,0 -0.3554,0.2133 -0.5383,0.2605 -0.0711,0.0184 -0.4226,-0.2575 -0.3011,0.0731 0.0189,0.0517 -0.0368,0.1767 -0.0776,0.1142 -0.0681,0.0689 -0.013,0.2881 0.0046,0.3793 0.0317,0.1636 -0.1482,0.2966 -0.2145,0.425 -0.0521,0.1011 -0.0813,0.2267 -0.114,0.3381 -0.0564,0.1925 -0.2986,0.2335 -0.3878,0.425 -0.0306,0.124 -0.1987,0.1812 -0.2418,0.3335 -0.0289,0.1019 0.0142,0.1834 0.0182,0.2788 0.01,0.241 -0.1093,0.4633 -0.1551,0.6991 -0.1277,0.6564 0.397,0.3251 0.511,0.7175 0.0627,0.2157 0.2682,0.2848 0.3832,0.5254 0.1567,0.3279 0.3041,0.5436 0.5612,0.7951l-1.8523 0c-0.4861,0 -1.3475,0.0258 -1.7655,0.2697l-2.2948 0.9824 -2.8103 1.2384c-0.3829,0.0944 -0.8313,0.3879 -1.2045,0.5529l-1.1679 0.5163c-0.7586,0.3354 -1.1968,0.6211 -1.8112,1.1333 -0.2319,0.1934 -0.5936,0.6916 -0.9717,0.5483l-0.0593 -0.1325c-0.0057,-0.0396 -0.0049,-0.0959 0.0502,-0.1097 0.0892,-0.1255 0.2965,-0.1943 0.3969,-0.3701 0.2297,-0.2917 0.8111,-0.5428 0.9215,-0.8911 0.1712,-0.5402 0.6029,-0.2154 1.0311,-0.3929 0.2637,-0.1094 0.4205,-0.3051 0.4608,-0.5895 0.0456,-0.3226 0.3937,0.1932 0.7071,0.0365 0.2084,-0.1041 0.1514,-0.0368 0.406,0.0229 0.3162,0.0741 0.6477,-0.6281 0.6205,-0.7357 -0.2153,0.0544 -0.3912,0.24 -0.6296,0.2787 -0.2213,0.036 -0.2126,-0.2054 -0.3011,-0.3427 -0.3095,-0.4796 -0.7396,-0.0584 -1.1907,0.096 -0.4893,0.1674 -2.3786,0.8484 -2.6142,0.1416 0.2866,0.0716 0.5702,0.2172 0.7026,-0.1599 0.1049,-0.2991 0.1651,-0.6505 0.3467,-0.9002 0.2767,-0.5534 0.4426,-1.0728 0.4426,-1.6999 0,-0.3227 -0.0838,-1.0109 0.1825,-1.2337 0.1942,-0.1624 0.4925,-0.6574 -0.0046,-0.6718 -0.6442,-0.0186 -0.2646,0.6731 -0.2646,0.9962 -0.0528,-0.0133 -0.2623,-0.214 -0.3559,-0.2605 -0.1535,-0.0764 -0.4312,-0.133 -0.5748,-0.0183 -0.2171,0.0274 -0.477,0.3336 -0.6843,0.3336 0,-0.168 0.145,-0.2791 0.1186,-0.4661 -0.0094,-0.0672 -0.0599,-0.5275 -0.1779,-0.1965 -0.0789,0.2211 -0.7552,1.0018 0.0273,0.7449 -0.0162,0.0663 -0.278,0.2613 -0.3376,0.3244 -0.1506,0.1596 -0.2765,0.3452 -0.3649,0.5438 -0.1698,0.3818 -0.3042,0.8588 -0.844,0.7905 -0.1576,-0.0199 -0.1348,-0.322 -0.1552,-0.4432 -0.0163,-0.0965 -0.6618,-0.3368 -0.7801,-0.3656 -0.2497,-0.0608 -0.3463,-0.0658 -0.5338,-0.2467l-0.2509 -0.2422c-0.067,-0.0646 0.1046,-0.1965 0,-0.2651 -0.3345,-0.2193 -0.3071,0.0498 -0.2235,-0.3975 0.0203,-0.1086 -0.2262,-0.0672 -0.2874,-0.1097 -0.407,-0.2821 0.0722,0.22 -0.0867,0.3702 -0.1266,0.1195 0.1931,0.251 0.2372,0.3198 0.2496,0.1444 -0.037,0.3141 -0.0319,0.4021 0.0093,0.162 0.3169,0.1845 0.4288,0.2011 0.2705,0.04 0.5209,0.0402 0.6843,0.3199 0.0592,0.1015 -0.3199,0.3714 -0.3695,0.5118 -0.1437,0.4069 0.0622,0.584 0.3559,0.7951 0,0.2167 -0.3277,0.434 -0.4335,0.6306 -0.1692,0.3147 -0.0157,0.5439 0.2327,0.7631 0.3363,0.2175 0.992,0.5156 1.4006,0.4112 -0.0752,0.0258 -0.4014,0.6362 -0.438,0.3839 -0.0454,-0.3135 -0.4224,0.1847 -0.4106,0.1919 0.118,0.073 0.2892,0.0522 0.4106,0.1736 0.1952,0.1952 -0.0664,0.2167 -0.2235,0.3839 -0.1991,0.2117 0.5721,0.1518 0.6752,0.0411 0.0958,-0.1027 -0.1423,-0.3324 -0.2418,-0.3564 0.2038,0.15 0.3835,0.0933 0.438,0.3747 0.0313,0.1613 -0.0361,0.7266 0.0547,0.7768 0.1484,0.0822 0.3863,0.0998 0.0776,0.2605 -0.1089,0.0566 -0.2604,0.0777 -0.3832,0.0777 -0.1037,0 -0.2324,-0.0641 -0.178,0.1188 0.112,0.376 0.6344,0.4711 0.1825,0.923 -0.2808,0.2808 -0.302,0.0404 -0.114,-0.0868 0.0903,-0.0101 -0.0035,-0.178 -0.0183,-0.2376 -0.0354,-0.143 -0.2969,-0.0724 -0.3923,-0.1143 -0.2757,-0.1209 -0.661,0.2673 -0.1552,0.3702 0,0.0258 -0.1952,0.2312 -0.2281,0.233 -0.1144,0.0066 -0.2211,-0.1051 -0.3649,-0.1051 -0.3914,0 -0.494,0.2729 -0.3559,0.6032 0.0433,0.1034 0.0839,0.4833 -0.0593,0.2193 -0.0917,-0.1689 -0.2066,-0.4843 -0.438,-0.4843 0,0.1493 0.0614,0.3119 0.0867,0.4615 0.0208,0.1226 0.1782,0.2761 0.1734,0.3655 -0.0124,0.2265 -0.8742,0.6732 -1.0584,0.786 -0.2386,0.1463 -0.2306,-0.0323 -0.2783,-0.2376 -0.0375,-0.1619 -0.151,-0.4886 -0.3285,-0.3382 -0.4322,0.3665 -0.4148,-0.1118 -0.8075,-0.0319 0,0.0913 0.2817,0.4609 0.4197,0.4112 0.2198,-0.0791 0.2783,-0.1007 0.2783,0.1965 -0.0475,0.1071 -0.0246,0.3033 -0.0776,0.4433 -0.0825,0.2175 -0.1888,0.2812 -0.333,0.4478 -0.1251,0.1447 -0.5072,0.6904 -0.2783,0.8545 0.0613,0.223 -0.3302,0.4367 -0.438,0.6169 -0.0811,0.1358 -0.3401,0.6045 -0.3193,0.7494 -0.0556,0.0738 -0.1188,0.1686 -0.1825,0.233 0.0841,0 0.4672,-0.3528 0.552,-0.425l0.5794 -0.4935c0.2322,-0.1978 0.7847,-0.5674 0.7847,-0.891 0,-0.0446 0.1622,0.2123 0.1871,0.2604l-0.7528 0.6215 -1.4508 1.2246c-0.17,0.2753 -0.8642,0.7981 -1.1542,0.9734 -0.3037,0.1837 -0.5066,0.6165 -0.8668,0.6762 -0.2122,0.0352 -0.4122,0.078 -0.6159,0.16 -0.2934,0.118 -0.7232,0.3295 -0.9581,0.5392 -0.193,0.0645 -0.3961,0.2692 -0.5703,0.3747l-0.7619 0.4615c-0.1222,0.034 -0.2733,0.1609 -0.3832,0.2331 -0.0887,0 -0.2567,0.2573 -0.3148,0.0868 -0.04,-0.1176 -0.1183,-0.1113 -0.219,-0.096 -0.239,0.0363 -0.9989,0.6052 -1.1679,0.329 -0.1677,-0.2742 -0.6706,-0.0269 -0.6706,-0.2924 -0.1514,0 -0.3411,0.1703 -0.4973,0.2102 -0.0138,0.0035 -0.4318,0.1042 -0.219,0.1096l0.1825 0.0046 -1.8112 0.8134c-0.1409,0.0633 -0.0867,0.1391 -0.0867,0.2924 0,0.1977 0.0012,0.4136 -0.1186,0.5804l-0.1003 0.5163 2.2354 -1.0738 2.2583 -1.2932c0.0163,-0.0174 0.0345,-0.0286 0.0548,-0.0411l0.1094 0.0822 -0.8531 0.5301 -1.5603 0.9185 -2.0575 1.0144 -1.5146 0.6717c-0.4051,0.1796 -0.9361,0.5721 -1.3505,0.6809 -0.2751,0.2341 -0.7784,0.3401 -1.0082,0.6215 -0.2323,0.1067 -0.532,0.2808 -0.7345,0.4341 -0.1686,0.1275 -0.4404,0.4202 -0.625,0.4798l-0.2145 -0.2468 0.4106 -0.3244 2.5138 -1.4257 2.1032 -0.9688c0.0701,-0.1238 0.1426,-0.2969 0.1003,-0.4478 0.0185,-0.2214 0.2327,-0.5298 0.2327,-0.7357l-0.0045 -0.0045c-0.54,0 -2.7647,1.3418 -2.9518,0.8088 -0.1183,-0.3368 -0.5527,0.1871 -0.6843,0.0548 -0.0434,-0.0437 -0.2156,-0.2775 -0.219,-0.329 -0.0106,-0.1565 0.3285,-0.1596 0.3285,-0.3016 -0.2995,0 0.0656,-0.2689 0.1505,-0.3199 0.0395,-0.0238 0.2671,-0.437 0.2601,-0.4706 -0.0297,-0.1433 -0.1351,-0.2183 -0.1095,-0.3839 0.0163,-0.1052 0.2658,-0.4086 0.2144,-0.4249l-0.2828 0.2513c-0.1154,0.1025 -0.1187,0.2231 -0.1187,0.3747 0,0.4222 -0.1938,0.2691 -0.5064,0.4021 -0.2396,0.102 -0.4463,0.0117 -0.6387,0.0777 -0.1817,0.1484 -0.6436,0.2631 -0.4334,0.5803 0.2075,0.3129 -0.1949,0.2958 -0.4334,0.361 -0.1933,0.0528 -0.3031,0.1726 -0.26,-0.1005 0.0402,-0.2541 0.0065,-0.3658 -0.2601,-0.4341 -0.2606,-0.0667 -0.2509,-0.437 -0.2509,-0.6717 0,-0.1316 0.0595,-0.2966 0.0182,-0.425 -0.0548,-0.1699 -0.3152,0.1187 -0.3923,0.1691 -0.1761,0.1154 -0.2027,-0.2336 -0.2235,-0.3199 -0.0934,0.1232 -0.2239,0.5033 -0.0137,0.5758 0.1508,0.0519 0.3467,-0.1909 0.3923,-0.0869 0.0444,0.1015 -0.0413,0.2833 -0.1049,0.361 -0.1781,0.2172 -0.0315,0.1695 0.0547,0.3427 0.0817,0.1644 -0.3117,0.3574 -0.1733,0.6124 0.107,0.1973 0.2756,0.0939 0.4197,0.1736 0.1554,0.0858 -0.2252,0.2009 -0.2372,0.2056 -0.0193,0 -0.0357,0.0046 -0.0548,0.0046 -0.1218,0.0609 -0.2483,0.1233 -0.3695,0.1874 -0.0152,0.0081 -0.0592,0.0504 -0.0639,0.0502l-0.0639 -0.0045c0.1218,-0.1919 0.1047,-0.1567 0.0092,-0.3747 -0.0559,-0.1275 -0.1745,-0.3127 -0.2053,-0.4387 -0.1472,0.0865 -0.2161,0.4311 -0.3513,0.5529 -0.0507,0.0458 -0.3337,-0.1679 -0.3057,-0.2011 0.0957,-0.1137 0.1317,-0.113 0.0639,-0.265 -0.095,-0.2133 -0.2451,-0.2274 -0.4517,-0.1599 -0.5262,0.1722 -0.3529,0.1031 -0.5201,-0.2925 -0.0551,-0.1302 -0.1454,-0.1656 -0.0502,-0.2787 0.0683,-0.081 0.1687,-0.2537 0.032,-0.3108 -0.2333,-0.0976 -0.2503,-0.2117 -0.3331,-0.4204 -0.0413,-0.1039 -0.1138,-0.4345 -0.2144,-0.3335 -0.1182,0.1188 -0.1105,0.2439 -0.1642,0.3838 -0.085,0.2217 -0.5623,0.1455 -0.625,0.4021 -0.0692,0.283 0.3294,0.4905 0.4014,0.7951 0.2887,0.184 0.3504,0.0626 0.1506,0.3702 -0.093,0.1433 0.2405,0.5471 0.1551,0.6397 -0.034,0.037 -0.3617,0.3016 -0.2144,0.3016 0.0837,0 0.1883,-0.009 0.26,0.0365 0.3274,0.2081 0.2288,-0.2449 0.3741,-0.2833 0.1657,-0.0437 0.2015,0.0969 0.292,0.1874 0.1108,0.1108 0.256,0.1633 0.3832,0.2604 0.0919,0.0703 0.3056,0.3344 0.3422,0.4387 0.0344,0.0982 -0.0411,0.1478 -0.0411,0.2376 0.0584,0 0.4877,-0.0415 0.3148,0.096l-0.4653 0.3701c-0.1442,0.1147 -0.3441,-0.0221 -0.5156,-0.0274 -0.2146,-0.0066 0.048,0.2557 0.1187,0.2788 0.111,0.0362 0.4662,0.1035 0.5611,0.0639 0.0094,-0.0018 0.0146,-0.007 0.0228,-0.0091 0.0031,-0.0063 0.006,-0.0074 0.0091,-0.0137 0.034,-0.0049 0.0676,-0.0559 0.0822,-0.0823 0.0229,-0.0417 0.0414,-0.091 0.0684,-0.1325 0.0543,-0.0831 0.1269,-0.124 0.2144,-0.1828 0.0669,-0.024 0.1369,-0.1027 0.1369,-0.1736 0.0089,0 0.0105,0.0027 0.0182,0.0046 0.0161,0.0632 0.34,0.3177 0.4061,0.3838 0.1472,0.1472 0.3216,0.2951 0.4927,0.4158 0.1024,0.0721 0.2062,0.1869 0.3148,0.2377 0.146,0.0682 -0.091,0.1295 -0.1643,0.1736 -0.2178,0.1309 -0.508,0.1549 -0.7071,0.3062l-1.8842 0.9276 -1.3413 0.5072c-0.1044,0.0395 -0.3377,-0.1682 -0.3741,-0.2513 -0.0994,-0.2263 0.0352,-0.4645 -0.0547,-0.6261 -0.093,-0.1669 -0.0903,-0.124 -0.1186,-0.3107 -0.0235,-0.1557 -0.3523,-0.0483 -0.4699,-0.1279 -0.2156,-0.1461 -0.0842,-0.2654 -0.1232,-0.4661 -0.2757,-0.1595 -0.374,-0.1884 -0.4608,-0.4981 0,-0.1547 -0.0262,-0.3582 -0.1232,-0.4798 0,-0.088 -0.0593,-0.2313 -0.0821,-0.3199 -0.0251,-0.0979 -0.0716,-0.2134 -0.1277,-0.297 -0.0207,-0.0307 -0.0832,-0.1268 -0.0913,-0.1599 -0.136,-0.0975 -0.1965,-0.3725 -0.4334,-0.2148 -0.2104,0.14 -0.3512,0.3708 -0.3878,0.6169 0.114,0.1965 0.1138,0.554 0.4654,0.3427 0.1074,-0.0646 0.3325,-0.2407 0.3695,-0.3519 0.0693,0.0525 0.1964,0.5403 0.2281,0.6535 0.0548,0.1952 -0.6977,0.2796 -0.3878,0.4021 0.1814,0.0718 0.4059,-0.0858 0.4517,0.1234 0.0319,0.1462 0.0947,0.2381 0.1597,0.3701 0.0482,0.0981 0.09,0.1182 -0.0502,0.1234 -0.1193,0.0045 -0.2688,0.032 -0.3787,0.032 0,-0.1118 -0.2366,-0.2586 -0.3239,-0.297 -0.159,-0.0701 -0.3987,0.1392 -0.4152,0.2924 -0.0454,0.4208 0.5869,0.7736 0.8805,0.955 0.1836,0.1133 0.1688,0.4409 0.1688,0.6626 -0.0563,0.1731 0.0668,0.2326 -0.1323,0.361 -0.147,0.0949 -0.1388,0.2072 -0.0684,0.3427 0.1007,0.1935 0.3553,0.4875 0.1779,0.6992 -0.1193,0.1425 -0.3002,0.1637 -0.4014,0.2742 -0.067,0.0733 -0.1008,0.1556 -0.1825,0.2193l-0.7209 0.5621c-0.1809,0.1411 -0.8509,0.9655 -1.0903,0.827 -0.0266,-0.1043 -0.0365,-0.1634 -0.0365,-0.2787 0.0229,-0.029 0.0101,-0.0153 0.0593,-0.0503 0.0733,-0.1467 0.0691,-0.2537 0.1004,-0.4067 0.0243,-0.1191 0.1584,-0.3294 0.2326,-0.4295 0.2543,-0.3426 -0.3344,-0.3307 -0.0867,-0.7174 0.1021,-0.1595 0.3878,-0.4375 0.3878,-0.6215 -0.0916,-0.0224 -0.368,0.2662 -0.5064,0.3108 -0.1052,0.034 -0.1113,0.4091 -0.3011,0.5072 -0.0359,0.0186 -0.3732,0.185 -0.2007,0.2147 0.1612,0.0277 0.3556,0.031 0.3923,0.2285 0.0384,0.2061 -0.2862,0.4924 -0.3604,0.6809 -0.0496,0.1259 0.0426,0.3697 -0.041,0.4706 -0.0485,0.0584 -0.3225,-0.1238 -0.3878,-0.1553 -0.1223,-0.0589 -0.3039,-0.064 -0.2144,-0.2331 0.0663,-0.1254 0.1108,-0.1532 0.0821,-0.3016 -0.0314,-0.1618 -0.0475,-0.2545 0,-0.4204 0.0115,-0.04 0.137,-0.1873 0.0456,-0.1873 -0.1519,0 -0.1485,0.0099 -0.1962,0.1462 -0.043,0.1231 -0.2332,0.1596 -0.333,0.2239 -0.5012,0.1683 -1.0066,0.4651 -1.4189,0.7951 -0.0083,0.0067 -0.0738,0.0485 -0.0775,0.0183 -0.0093,-0.0762 0.0644,-0.1744 0.0867,-0.2467 0.2233,-0.7234 -0.9166,-0.2825 -0.4928,0.2147 0.1131,0.1326 0.1913,0.0549 0.324,0.0549 -0.2929,0.07 -1.0302,0.9511 -1.2181,1.2063 0.1845,-0.1414 0.3893,0.1239 0.5109,-0.0731 0.0484,-0.0783 0.4533,0.2113 0.6296,0.2285 0.0384,0.0037 0.0705,0.4046 0.073,0.4661 0.0114,0.277 -0.3096,0.5051 -0.438,0.7722 -0.1824,0.3792 0.3733,-0.3263 0.4015,-0.3427 0.1394,-0.0816 0.2474,-0.1621 0.2965,-0.3336 0.0854,-0.2977 0.1616,-0.1669 0.3741,-0.3381 0.1864,-0.1503 -0.2422,-0.1689 -0.0501,-0.361 0.2138,-0.2138 0.1356,-0.2916 0.4881,-0.3747 0.3277,-0.0773 0.5423,-0.2123 0.479,-0.5803 -0.008,-0.0466 0.2685,0.0794 0.3422,0.1142 0.1013,0.048 -0.0335,0.204 -0.0684,0.2879 -0.0735,0.1762 -0.0412,0.3891 -0.0776,0.5849 0,0.3063 0.1249,0.2502 -0.0456,0.5346 -0.0655,0.1094 -0.295,0.2939 -0.3102,0.4204 -0.3264,0.3264 -0.5089,0.8414 -0.7893,1.2109 -0.3609,0.4754 -0.7758,1.081 -1.0356,1.6177 -0.2202,0.2481 -0.2292,0.3299 -0.6022,0.1188 -0.0373,-0.2597 -0.1741,-0.6665 -0.3924,-0.8408 -0.4437,-0.3541 -1.1775,0.3918 -1.4097,0.2513 0,-0.1016 0.2418,-0.2173 0.2418,-0.3153 -0.0069,-0.0052 -0.0115,-0.0069 -0.0182,-0.0137 -0.2523,0 -0.5693,0.0874 -0.8167,0.1554 -0.301,0.0827 -0.5962,0.0216 -0.8987,0.0502 -0.1592,0.0151 -0.3656,0.1186 -0.511,0.0868 -0.1815,-0.0398 -0.0728,-0.3793 -0.187,-0.4615 -0.0634,-0.0455 -0.7697,0.1371 -0.9307,0.1371 -0.1878,0.1878 0.4023,0.353 0.4471,0.4158 0.29,0.1816 0.722,0.5255 1.0675,0.5255 0.1218,0 0.2307,-0.1161 0.3422,-0.0731 0.3241,0.1253 0.1585,0.0308 0.4106,-0.1051 0.2598,-0.1399 0.427,-0.1422 0.3513,0.1691 -0.0555,0.2286 -0.2707,0.5921 -0.0958,0.8454 0.2456,0.3554 0.3481,0.6403 0.7527,0.8636 0.1655,0.0914 0.7013,0.2126 0.2236,0.2742 -0.5637,0.0728 0.0248,0.2536 0.1095,0.4661 0.0667,0.1676 0.2933,-0.4632 0.1916,-0.4981l0 -0.0091c0.2259,0 0.5347,0.2102 0.8075,0.2102l0.0046 0.0045c-0.0219,0.0879 -0.214,0.2241 -0.2647,0.3153l-0.2463 0.4433c-0.1161,0.3498 -0.2327,0.5324 -0.2327,0.8865 0.0133,0.0042 -0.0075,0.0599 -0.0137,0.0685 -0.0267,0.0376 -0.0674,0.0715 -0.1095,0.096 -0.1106,0.0643 -0.1706,0.1705 -0.2189,0.2833l-0.3148 0.7357c-0.2214,0.5174 -0.4174,1.1008 -0.4563,1.6679 0.1135,0.4131 -0.2778,0.7355 -0.3786,1.1515 -0.1119,0.4621 -0.1733,0.6188 -0.6843,0.6534 -0.2196,0.0149 -0.5254,0.2833 -0.6798,0.4296 -0.3048,0.2891 -0.5894,0.0137 -0.9216,0.0137 0.132,-0.0333 0.291,-0.0112 0.4061,-0.0914 0.1044,-0.0726 0.111,-0.1428 0.2281,-0.2011 0.4426,-0.2203 -0.066,-0.2666 0.26,-0.4204 0.226,-0.1067 0.0617,-0.2603 0.0958,-0.4021 0.049,-0.2042 -0.0009,-0.3833 0.0548,-0.594 0.0775,-0.2935 -0.3539,0.4577 -0.4152,0.5118l-1.3504 1.1926c-0.16,0.1413 -0.4661,-0.042 -0.5064,-0.2376 -0.0658,-0.3198 0.1585,-0.3365 -0.2099,-0.4158 -0.2521,-0.0543 -0.066,-0.5873 -0.1095,-0.5986 -0.2029,-0.0526 -0.2138,-0.1547 -0.3604,-0.2285 -0.4746,-0.2388 -0.2836,0.2069 -0.1642,0.4981 0.1062,0.2592 0.6046,0.6522 0.5292,0.8499 -0.0848,0.222 -0.3325,0.2004 -0.5292,0.2833 -0.1761,0.0743 -0.7035,0.313 -0.2007,0.2011 0.2013,-0.0447 0.7098,-0.1831 0.8987,-0.1463 0.4262,0.0829 -0.1818,0.6191 0.2965,0.5392 0.2286,-0.0382 0.6688,-0.0604 0.8851,0.0183 0.4149,0.1509 0.5746,0.3579 0.9763,-0.0091 0.1947,-0.178 0.5747,-0.2229 0.8486,-0.361 0.5219,-0.263 0.2616,0.4027 0.1505,0.6763 0,0.2322 -0.046,0.4819 -0.073,0.7128 -0.0258,0.2199 -0.0166,0.4424 -0.0319,0.6626l-0.0958 1.38c-0.0176,0.254 0.1095,0.4974 0.1095,0.7449l0.0274 0.0731c-0.0244,0.3637 -0.1688,0.6702 -0.1688,1.0555 0,0.3829 0.0186,0.7852 -0.0411,1.1607 -0.0261,0.1638 -0.0773,0.473 -0.0274,0.6352 0.0524,0.1705 0.6276,0.3241 0.7939,0.3929 0.0546,0.0226 0.4062,0.1467 0.3832,0.0046 -0.0556,-0.3421 -0.2579,-0.694 -0.2053,-1.0418 0.0516,-0.3407 -0.0926,-0.3686 -0.2099,-0.6489 -0.0943,-0.2259 0.082,-1.4314 0.082,-1.726l0 -0.9961 0.1004 -1.9923c0.0201,-0.0338 0.0274,-0.0953 0.0274,-0.137l0.0182 -0.0366c0,-0.3148 0.0365,-1.0468 0.1916,-1.3068 0,-0.0243 -0.0047,-0.0364 0.0092,-0.0549 0,-0.0235 0.0048,-0.0329 0.0091,-0.0548l0.073 -0.1005c0.0452,-0.0907 0.0547,-0.1539 0.0547,-0.2559 -0.0192,-0.0257 -0.0046,-0.061 -0.0273,-0.0914l0 -0.0274c-0.0161,-0.0212 -0.0097,-0.0494 -0.0274,-0.0731 0,-0.1337 -0.0274,-0.2763 -0.0274,-0.4204 0.0823,-0.1101 0.1086,-0.246 0.219,-0.3564 0.014,-0.0712 0.1085,-0.137 0.1186,-0.2193 0.1192,-0.1199 0.219,-0.4808 0.219,-0.6489 0.0792,-0.1188 0.0642,-0.3266 0.146,-0.4661 0.0635,-0.1081 0.1179,-0.2519 0.1642,-0.3655 0.0968,-0.2379 0.3793,-0.5398 0.4289,-0.7859 0.0207,-0.0208 0.0343,-0.0436 0.0547,-0.064 0.0088,-0.0448 0.0461,-0.0844 0.0548,-0.1279 0.0187,-0.0188 0.0219,-0.0356 0.0365,-0.0549 0,-0.0401 0.0245,-0.1091 0.032,-0.1387 0.038,-0.1531 0.0163,-0.311 0.1277,-0.4433 0.0738,-0.0878 0.0382,-0.1979 0.0137,-0.297 -0.0153,-0.0617 0.0434,-0.1414 0.0593,-0.2011 0.0942,-0.3515 0.2274,-0.4974 0.5703,-0.5849 0.2085,-0.0531 0.2045,-0.3415 0.2874,-0.4843 0,-0.0978 0.1202,-0.5587 0.2053,-0.6124 0.0156,-0.031 0.0335,-0.0534 0.0548,-0.0822 0.075,-0.1413 0.1975,-0.2146 0.3011,-0.329 0.0814,-0.0897 0.1107,-0.2063 0.1733,-0.3016 0.1325,-0.2013 0.3689,-0.3066 0.4243,-0.5666 0.0345,-0.1618 0.1333,-0.2836 0.1734,-0.4387 0.0407,-0.1578 -0.3389,-0.2239 -0.4471,-0.2239 0.025,-0.0752 0.6433,-0.1485 0.7528,-0.1691 0.238,-0.0448 0.3464,-0.137 0.5657,0.0274l-0.4106 0.4981c-0.3327,0.4036 -0.6392,0.8308 -0.9126,1.2767 -0.3694,0.6022 -0.696,1.2309 -1.0127,1.8626 -0.2873,0.5731 -0.5377,1.1643 -0.7984,1.7501 -0.1711,0.3845 -0.347,0.7677 -0.4972,1.1607 -0.1828,0.4786 -0.3589,0.9611 -0.5019,1.4531 -0.1841,0.6329 -0.3575,1.2711 -0.479,1.9192 -0.1008,0.5378 -0.1387,1.0861 -0.1871,1.6313 -0.0398,0.4482 -0.0715,0.8981 -0.0775,1.3481 -0.0061,0.4585 0.0102,0.9178 0.041,1.3754 0.0346,0.5147 0.0952,1.0276 0.1552,1.5399 0.0387,0.3299 0.0698,0.6625 0.1414,0.9871 0.1491,0.6759 0.329,1.3453 0.5201,2.0106 0.1997,0.6953 0.4349,1.38 0.6524,2.07l-0.8942 0.0548 -0.1187 -0.2001c-0.0359,-0.3211 -0.3321,-0.5637 -0.4471,-0.8499 -0.1018,-0.2536 -0.2862,-0.4589 -0.3924,-0.7128 -0.2199,-0.5252 -0.2479,-0.9155 -0.3467,-1.4622 -0.0633,-0.3501 -0.1944,-0.3833 -0.4106,-0.6214 -0.1814,-0.1997 -0.507,-0.4472 -0.7938,-0.3747 0,0.0807 0.2477,0.2108 0.3194,0.2284 0.0464,0.1887 0.1459,0.2938 0.1459,0.5301 0,0.2655 0.0467,0.5537 0.0913,0.8133 0.0737,0.4282 0.1352,1.0742 0.3376,1.4531 0.0426,0.303 0.0327,0.9475 0.3193,1.124 0.1045,0.0644 0.194,1.0205 0.2099,1.1789 0.0856,0.8542 1.3581,1.4612 1.177,2.3304 -0.0532,0.2555 -0.0482,0.47 0.0091,0.7219 0.0566,0.2486 0.7151,0.1184 0.5749,0.5484 -0.1548,0 -0.2567,-0.0914 -0.4289,-0.0914 0,0.3209 0.4971,0.3674 0.1278,0.795 -0.2419,0.28 0.0356,0.4656 0.1826,0.7716 0.0382,0.1583 -0.1827,0.2009 -0.0639,0.3564 0.1175,0.1537 0.0599,0.1336 0.1141,0.3016 0.057,0.177 0.3831,0.5594 0,0.4615 0,0.1604 0.3905,0.4531 0.5383,0.5164 0.285,0.1219 0.531,0.11 0.8394,0.1234 0.2148,0.0094 0.0319,0.2442 0.0274,0.329 -0.0042,0.0779 0.0686,0.16 0.073,0.2467 0.0072,0.1416 -0.0798,0.1875 -0.1369,0.3062 -0.0772,0.1608 0.2325,0.0717 0.292,0.0685 0.4492,-0.0245 -0.1348,-0.4886 0.0593,-0.6306 0.1034,-0.0757 0.2583,-0.1233 0.3878,-0.1233l0.1414 1.6633 -0.0084 0.2589 0 0c-0.0793,-0.0579 -0.1589,-0.1138 -0.2381,-0.1716 -0.0985,-0.0717 -0.2113,-0.0833 -0.3375,-0.0183 -0.2416,0.1244 -0.2001,0.1167 -0.4015,0.0092 -0.0663,-0.0353 -0.2743,0.0686 -0.3102,0.0822 -0.1168,0.0443 -0.3029,0.1063 -0.4289,0.0366 -0.4037,-0.2231 -0.228,0.2737 -0.5292,0.3198 -0.2253,0.0345 -0.3441,-0.0563 -0.5292,0.1737 -0.0378,0.0471 -0.1833,-0.105 -0.2099,-0.1006 -0.1439,0.0238 -0.3169,0.2852 -0.3649,0.393 -0.0332,0.0745 0.1207,0.3057 -0.0183,0.3381 -0.0354,0.0083 0.0015,0.0707 0.0365,0.1188 0.0501,0.069 0.2235,0.3284 0.1369,0.4752 -0.2381,0.4031 -0.6012,-0.1594 -0.7756,-0.2193 -0.085,-0.0292 -0.1955,0.2102 -0.3376,0.2102 -0.2503,0 -0.3396,-0.2802 -0.3558,-0.4661 -0.019,-0.2187 -0.4423,0.0154 -0.7391,-0.3747 -0.1897,-0.2492 -0.3741,0.1342 -0.3741,-0.3107 0,-0.2631 -0.3285,0.219 -0.3285,-0.3747 0,-0.1402 -0.4194,0.0704 -0.447,-0.0365 -0.0971,-0.3764 -0.1067,-0.0081 -0.3194,-0.3016 -0.2339,-0.323 -0.4471,-0.6137 -0.4471,-0.8956 0,-0.1976 -0.1927,-0.0476 -0.3376,-0.0731 -0.0255,-0.0045 -0.0239,-0.1432 -0.0274,-0.1645 -0.0198,-0.1201 -0.2792,0.0548 -0.3558,0.0548 -0.199,0 -0.0897,-0.1694 -0.3011,-0.0639 -0.0434,0.0217 -0.5655,0.1158 -0.6296,0 -0.0724,-0.1306 -0.101,-0.3148 -0.3193,-0.128 -0.2786,0.2386 -0.1701,-0.2741 -0.4197,-0.2741 -0.2385,0 -0.5674,0.3108 -0.876,-0.1188 -0.1412,-0.1964 -0.5025,0.1978 -0.6934,0.1736 -0.1917,-0.0243 -0.3833,-0.0489 -0.5749,-0.0731 -0.2832,-0.0359 -1.0211,-0.076 -1.2409,0.0091 -0.0278,0.0107 -0.7289,0.8201 -0.7755,0.0914 -0.0286,-0.4463 -0.791,-0.1206 -0.9854,0.0092 -0.1636,0.1091 -0.3466,-0.5336 -0.5566,-0.2468 -0.1259,0.1721 -1.557,-0.1503 -1.1314,-0.7311 0.4856,-0.6625 -0.73,0.3371 -0.73,-0.2833 0,-0.8251 -1.0219,-0.3164 -1.0219,-0.594 0,-0.1448 0.0097,-0.4276 -0.219,-0.3838 -0.3061,0.0585 -0.5598,-0.0403 -0.6843,-0.3199 -0.3367,-0.7566 -0.2467,0.307 -0.7573,-0.0731 -0.4568,-0.3399 -0.4397,-0.6819 -0.9581,-0.3929 -0.1682,0.0938 -0.3673,-0.2931 -0.4927,-0.3565 -0.3518,-0.1778 -0.6415,0.5936 -0.9489,0.3199 -0.219,-0.1949 -0.438,-0.3901 -0.6569,-0.5849 -0.1541,-0.1372 0.4026,-0.2833 -0.1187,-0.2833 -0.69,0 -0.1288,-0.2845 -0.3467,-0.4752 -0.2702,-0.2366 -0.4732,0.0739 -0.6843,-0.3107 -0.0677,-0.1233 -0.2876,-0.7023 -0.4197,-0.3199 -0.0143,0.0413 -0.0566,0.0476 -0.0821,0.0092 -0.0426,-0.0639 -0.0853,-0.1281 -0.1278,-0.1919 -0.0323,-0.0485 -0.2078,0.2505 -0.4197,0.0457 -0.226,-0.2186 -0.325,0.2051 -0.5383,0.1279 -0.0391,-0.0142 -0.0178,-0.0898 -0.0548,-0.1097 -0.114,-0.0616 -0.4724,-0.4307 -0.52,-0.3929 -0.4205,0.3345 -0.0904,-0.1958 -0.4471,-0.1554 -0.2325,0.0264 -0.0971,0.3626 -0.4563,0.2376 -0.1889,-0.0658 -0.3428,-0.4295 -0.5657,-0.4295 -0.5576,0 -0.4005,0.4019 -0.958,-0.1188 -0.3504,-0.3274 0.399,-0.7839 0.073,-1.1972 -0.3713,-0.4709 -1.0608,-0.5467 -0.9911,-1.1026l-0.0206 -0.1699c0,-0.1087 -0.0367,-0.2216 -0.0466,-0.3266 -0.0379,-0.0272 -0.0888,-0.2107 -0.1094,-0.2636 -0.0413,-0.1063 -0.1173,-0.2589 -0.128,-0.3709 -0.0135,-0.0045 -0.0827,-0.2887 -0.0885,-0.3196 -0.028,-0.1482 -0.1123,-0.2994 -0.1234,-0.4526 -0.0041,-0.0566 -0.0329,-0.1728 -0.0139,-0.2216 0,-0.1925 -0.0729,-0.3786 -0.1816,-0.5342 -0.0339,-0.0487 -0.0641,-0.0936 -0.0931,-0.147 -0.0378,-0.0699 -0.0586,-0.1348 -0.1048,-0.2006 -0.0082,-0.0019 -0.0111,-0.018 -0.0186,-0.0233 0,-0.0305 -0.1201,-0.2122 -0.149,-0.2543 -0.063,-0.092 -0.0824,-0.214 -0.0908,-0.3242 -0.0108,-0.1412 0.0348,-0.3204 0.0258,-0.4636 -0.0015,-0.0243 0.0026,-0.0473 0.0076,-0.071 -0.0851,-0.0792 -0.1703,-0.1584 -0.2554,-0.2376 -0.3939,-0.3665 -0.8989,-1.2488 -1.1862,-1.6449 -0.099,-0.1364 -0.3542,-0.1309 -0.5018,-0.2376 -0.2703,-0.1952 -0.0848,-0.4151 -0.1278,-0.6763 -0.0079,-0.048 -0.2958,-0.3682 -0.4014,-0.4387 -0.2273,-0.1516 -0.1577,-0.0723 -0.4106,-0.0913 -0.1922,-0.0145 -0.1471,-0.9057 -0.0639,-1.0419 0.1745,-0.2853 0.2878,-0.1684 0.0091,-0.4843 -0.0144,-0.0164 0.4074,-0.467 0.0456,-0.7037 -0.1414,-0.0926 0.1435,-0.1668 0.1916,-0.2924 0.0279,-0.0728 -0.023,-0.2928 -0.0364,-0.3656 -0.0646,-0.3507 -0.2005,-0.4232 -0.1734,-0.795 0.0483,-0.6636 -0.5253,-0.2341 -0.7573,-0.4661 -0.2862,-0.2862 0.3646,-0.6032 -0.4654,-0.6032 -0.4215,0 -0.0943,-0.3692 0.0822,-0.466 0.3331,-0.1825 0.2784,-0.5057 0.3649,-0.8317 0.1239,-0.4671 -0.0027,-0.9037 0.1369,-1.3616 0.0721,-0.2365 0.0912,-0.511 -0.2099,-0.594 -0.4354,-0.12 -0.4405,-0.1179 -0.3102,-0.6123 0.0746,-0.2831 0.0234,-0.6616 -0.1551,-0.9048 -0.5556,-0.7574 -0.4563,0.1442 -0.8577,-0.265 -0.2555,-0.2604 0.0032,-0.594 -0.4653,-0.594 -0.0705,0 -0.6752,0.4586 -0.6752,0.0548 0,-0.2368 0.1385,-0.3016 -0.1643,-0.3564 -0.3868,-0.0701 -0.3243,0.2587 -0.6204,-0.1462 -0.2249,-0.3077 -0.4502,-0.6154 -0.6752,-0.923 -0.2309,-0.3157 -0.5201,-0.0153 -0.5475,-0.594 -0.0192,-0.4063 -0.3378,0.0669 -0.4288,0.0365 -0.2743,-0.0917 -0.0623,-0.5907 -0.4927,-0.6397 -0.2699,-0.0308 -0.0561,-0.705 -0.1734,-0.8956 -0.0979,-0.159 -0.3102,-0.258 -0.3102,-0.466 0,-0.1044 0.1081,-0.461 -0.0091,-0.5392 -0.2798,-0.1867 -0.2026,-0.361 -0.4289,-0.5392 -0.2181,-0.1716 0.0641,-0.6064 -0.1551,-0.6671 -0.5503,-0.1525 -0.5595,-0.0071 -0.8942,-0.5301 -0.1447,-0.226 -0.2204,-0.6924 -0.2828,-0.9504 -0.0084,-0.0349 -0.0613,-0.0183 -0.1095,-0.0548 -0.0654,-0.0497 -0.2789,-0.0538 -0.292,-0.2011 -0.017,-0.1922 0.0408,-0.2578 -0.1186,-0.4112 -0.1169,-0.1126 -0.1952,-0.3528 -0.3011,-0.4844 -0.1117,-0.139 -0.286,-0.1023 -0.4288,-0.1736 -0.2372,-0.1185 -0.673,-0.25 -0.876,-0.3655 -0.0689,-0.0391 -0.2797,-0.2233 -0.3558,-0.2651 -0.1689,-0.0927 -0.1301,-0.2121 -0.219,-0.3564 -0.3004,-0.4878 -0.1083,-0.2848 -0.6113,-0.4478 -0.6163,-0.1998 -0.4204,-1.1452 -0.7391,-1.5718 -0.1521,-0.2035 -0.7444,-0.9337 -0.6296,-1.1972 0.2941,-0.6753 -0.3329,-0.9262 -0.2189,-1.316 0.005,-0.0172 0.0101,-0.0222 0.0273,-0.0274 0.0981,-0.0294 0.2829,-0.1111 0.292,-0.1371 0.091,-0.2598 -0.7149,-0.2382 -0.8668,-0.7036 -0.1015,-0.3109 0.1237,-0.5763 0.0183,-0.8134 -0.094,-0.2112 -0.5451,-0.1784 -0.7117,-0.4386 -0.0462,-0.0723 -0.1539,-0.4377 -0.1643,-0.4752 -0.0339,-0.1212 -0.1979,-0.1606 -0.2646,-0.1828 -0.8067,-0.268 -0.2943,-1.2027 -0.5748,-1.6998 -0.1259,-0.2231 -0.3285,-0.0756 -0.3285,-0.4661 0,-0.3268 -0.0238,-0.6482 -0.219,-0.8499 -0.1713,-0.1769 -0.3389,-0.1854 -0.4379,-0.4386 -0.0494,-0.1262 -0.1127,-0.45 -0.219,-0.5849 -0.124,-0.1572 -0.3762,-0.3465 -0.4562,-0.5301 -0.0191,-0.044 -0.1478,-0.1476 -0.1551,-0.1827 -0.0359,-0.1724 0.0143,-0.4118 -0.0365,-0.5758 -0.0199,-0.0642 -0.0233,-0.118 -0.0365,-0.1827 -0.0154,-0.0757 -0.0521,-0.1582 -0.0639,-0.2285 -0.0043,-0.0257 -0.014,-0.0354 -0.0274,-0.064 -0.0094,-0.02 0.0007,-0.0441 -0.0091,-0.0639 -0.0165,-0.0331 -0.0712,-0.1487 -0.073,-0.1554 -0.0126,-0.0467 -0.0169,-0.0837 -0.0365,-0.1371 -0.0364,-0.0995 -0.0684,-0.2674 -0.0821,-0.3747 -0.0202,-0.1584 -0.0417,-0.18 -0.0821,-0.3929 -0.0237,-0.1252 -0.2932,-0.7214 -0.4197,-0.7585 -0.0211,-0.0061 -0.0086,-0.0319 -0.0274,-0.0366 -0.2802,-0.0702 -0.5673,-0.3058 -0.6205,-0.594 -0.0649,-0.352 -0.5746,-0.0885 -0.4471,-0.6489 0.0328,-0.1443 -0.0715,-0.4856 -0.1916,-0.5574 -0.2959,-0.1767 -0.1166,-0.4186 -0.4106,-0.5118 -0.022,-0.007 -0.0475,-0.0449 -0.0638,-0.064 -0.0127,-0.0147 -0.0147,-0.023 -0.0274,-0.0365 -0.0118,-0.0124 -0.0044,-0.0083 -0.0183,-0.0183 -0.019,-0.0138 -0.0052,-0.01 -0.0273,-0.0183 -0.1494,-0.0568 -0.2909,-0.0077 -0.4197,-0.137 -0.1009,-0.1012 -0.32,-0.2602 -0.4471,-0.329 -0.0433,-0.0235 -0.1211,-0.3213 -0.146,-0.3382 -0.0099,-0.0066 0.0006,-0.0206 -0.0091,-0.0274 -0.0226,-0.0156 -0.0008,0.0199 -0.0274,-0.0091 -0.0342,-0.0372 -0.2902,-0.1473 -0.3467,-0.1828 -0.1307,-0.0823 -0.2617,-0.1645 -0.3924,-0.2467 -0.0053,-0.0033 -0.0727,-0.0522 -0.0821,-0.064 -0.0137,-0.017 -0.063,-0.0899 -0.073,-0.1097 -0.0168,-0.0336 -0.0066,-0.0348 -0.0274,-0.0365 -0.2266,-0.0191 -0.2221,-0.0323 -0.3558,-0.1097 -0.0378,-0.0218 -0.0807,-0.1478 -0.1095,-0.1554 -0.4054,-0.1075 -0.3356,-0.2917 -0.5292,-0.5483 -0.1808,-0.2395 -0.1793,-0.4352 -0.3741,-0.6671 -0.091,-0.1082 -0.4097,-0.2387 -0.5475,-0.3016 -0.3071,-0.1401 -0.6144,-0.2803 -0.9215,-0.4204 -0.2055,-0.0937 -0.2594,-0.3108 -0.3924,-0.466 -0.1744,-0.2037 -0.3206,-0.335 -0.6022,-0.3839 -0.4819,-0.0836 -0.7471,0.0337 -0.6387,-0.53 0.0245,-0.1274 0.19,-0.9454 0.146,-1.0784 -0.2571,-0.7762 -0.5487,0.5039 -0.5748,0.5484 -0.1089,0.1858 -0.3832,0.2856 -0.3832,-0.0183 0,-0.2988 0.1642,-0.606 0.1642,-0.8316 0,-0.6639 -0.621,-0.0533 -0.885,-0.2011 -0.1454,-0.0813 -0.1917,-0.4545 -0.1917,-0.6306 0,-0.4007 -0.295,-0.1958 -0.3193,-0.4112 -0.0133,-0.1181 0.0567,-0.239 -0.0182,-0.3381 -0.0469,-0.0622 -0.1605,-0.1149 -0.2099,-0.1463 -0.017,-0.0107 -0.0227,-0.0395 -0.0365,-0.0548 -0.0115,-0.0129 -0.0014,-0.0142 -0.0091,-0.0274 -0.0101,-0.017 0.0134,-0.0404 0.0182,-0.0548 0.0121,-0.0355 0.046,-0.0592 0.073,-0.0914 0.0179,-0.0212 0.0132,-0.0235 0.0365,-0.0366 0.0632,-0.0357 0.1471,-0.1827 -0.0182,-0.1827 -0.1337,0 -0.3366,0.219 -0.4654,0.2833 -0.4389,0.2194 -0.2079,-0.4534 -0.3284,-0.5027 -0.021,-0.0086 -0.0127,-0.0322 -0.0274,-0.0365 -0.3253,-0.0952 -0.5721,0.4902 -1.0219,0.2741 -0.1165,-0.0559 0.195,-0.8965 -0.0913,-0.7676 -0.4612,0.2078 -0.3918,0.6165 -0.6387,0.7402 -0.164,0.0822 -0.4315,-0.1651 -0.5839,-0.0274 -0.3813,0.3448 -0.2079,0.2069 -0.6205,0.1919 -0.0159,-0.0005 -0.1122,-0.0989 -0.1369,-0.1371 -0.0115,-0.0179 -0.0226,-0.0315 -0.0456,-0.0365 -0.2956,-0.0641 -0.6066,0.2866 -0.8394,-0.1554 -0.0525,-0.0998 -0.3281,0.0546 -0.4106,-0.0731 -0.0108,-0.0166 -0.0137,-0.0028 -0.0274,-0.0183 -0.0113,-0.0126 -0.0233,-0.0076 -0.0365,-0.0182 -0.0093,-0.0076 0.0029,-0.0272 -0.0091,-0.0275 -0.4685,-0.0116 -0.3753,0.3154 -0.6022,-0.3838 -0.0869,-0.2677 -0.113,0.2364 -0.2281,0.393 -0.0548,0.0744 -0.3151,-0.2559 -0.365,-0.3199 -0.036,-0.0463 -0.3138,0.1572 -0.4197,0.1645 -0.1926,0.0134 -0.4791,-0.0612 -0.6113,0.1005 -0.2817,0.3448 -0.2193,-0.191 -0.3924,-0.1462 -0.24,0.062 -0.2917,0.209 -0.3741,-0.0548 -0.0899,-0.2881 -0.2423,0.153 -0.3376,0.1188 -0.2299,-0.0825 -0.2913,-0.0043 -0.4927,-0.0823 -0.2519,-0.0977 -0.3623,0.3384 -0.8394,0.1554 -0.5076,-0.1948 -0.8902,-0.1317 -1.2956,-0.5849 -0.4082,-0.4565 -0.5595,-0.1941 -1.0585,-0.594 -0.1243,-0.0995 -0.4253,0.0628 -0.6387,-0.0914 -0.4167,-0.301 -0.485,0.0734 -0.5474,0.0457 -0.2652,-0.1178 -0.1964,0.0086 -0.4197,0.1919 -0.1379,0.1131 -0.2453,0.5404 -0.2555,0.722 -0.0256,0.4541 -0.4579,0.9259 -0.9124,0.6397 -0.2052,-0.1293 -1.2384,-0.3516 -1.2957,0.0274 -0.0404,0.2672 -0.4411,0.3838 -0.6934,0.3838 -0.2813,0 -0.8476,0.2074 -0.9763,0.1828 -0.6609,-0.1267 -0.6555,-0.0753 -0.7847,0.6763 -0.0201,0.1169 0.0565,0.4216 -0.0365,0.466 -0.1734,0.0827 -0.2933,0.294 -0.4289,0.329 -0.131,0.0337 -0.1504,0.7463 -0.2281,0.8774 -0.0557,0.0938 -0.1702,0.0297 -0.2919,0.0456 -0.0169,0.0022 -0.0141,0.0017 -0.0183,0.0183 -0.0681,0.2681 0.2135,0.3657 -0.1642,0.3839 -0.0182,0.0008 -0.0086,0.0036 -0.0091,0.0182 -0.0137,0.3639 0.0094,0.4308 -0.3285,0.6397 -0.2691,0.1665 -0.0809,0.5677 -0.0639,0.7768 0.0114,0.1405 -0.3365,0.3326 -0.3558,0.4935 -0.0303,0.2528 -0.0609,0.5056 -0.0913,0.7585 -0.0209,0.1743 0.3018,0.0699 0.2373,0.265 -0.0592,0.1789 -0.3481,0.1985 -0.4289,0.4478 -0.0946,0.2923 -0.2486,0.2098 -0.4288,0.3199 -0.0614,0.0376 -0.1348,0.6338 -0.1643,0.7402 -0.0759,0.2741 -0.1521,0.5483 -0.2281,0.8225 -0.0833,0.3004 0.3242,0.1333 0.5201,0.329 0.003,0.003 0.0061,0.0061 0.0091,0.0091 0.1391,0.1391 -0.3391,0.678 -0.5565,0.5209 -0.3678,-0.2656 -0.3,0.303 -0.6114,0.4113 -0.2875,0.1001 -0.2962,-0.1667 -0.5109,-0.0366 -0.1583,0.096 -0.0362,0.4308 -0.1916,0.5849 -0.3693,0.3659 -0.5413,1.0536 -0.9946,0.8408 -0.489,-0.2297 -0.5892,1.0907 -0.6204,1.3342 -0.0613,0.4788 -0.6218,0.4693 -0.8577,0.6489 -0.1725,0.1312 -1.3641,-0.2058 -1.4325,-0.2742 -0.1944,-0.1944 -0.1837,0.2088 -0.3741,0.1188 -0.1124,-0.0532 -0.2863,-0.3269 -0.3011,-0.3381 -0.0243,-0.0182 -0.0209,-0.0076 -0.0274,-0.0274 -0.0167,-0.0503 0.0208,-0.2165 -0.0091,-0.2651 -0.0627,-0.1019 -0.3035,0.1555 -0.3924,0.128 -0.1225,-0.0379 0.0351,-0.2649 0.0092,-0.3382 -0.0109,-0.0308 -0.2303,-0.0893 -0.3285,-0.0456 -0.2278,0.1012 -0.1642,0.5634 -0.6478,0.137 -0.1159,-0.1023 -0.5305,-0.3859 -0.6844,-0.4295 -0.0236,-0.0067 -0.0462,-0.0312 -0.0638,-0.0457 -0.0154,-0.0128 -0.1235,-0.0993 -0.1278,-0.1096 -0.0467,-0.1127 -0.1669,0.0407 -0.219,-0.064 -0.0788,-0.1586 -0.1525,-0.1601 -0.2189,-0.3564 -0.0917,-0.2706 -0.3389,-0.2726 -0.5201,-0.3838 -0.1227,-0.0754 -0.0937,-0.3664 -0.2099,-0.4296 -0.0391,-0.0213 -0.0332,-0.0784 -0.073,-0.0914 -0.276,-0.0908 -0.9144,-0.0724 -1.1679,-0.3289 -0.003,-0.003 -0.0061,-0.0062 -0.0091,-0.0092 -0.1285,-0.1299 -0.4533,0.3478 -0.5931,0.0823 -0.0781,-0.1482 -0.3433,-0.2761 -0.4653,-0.3199 -0.3032,-0.1089 -0.5936,-0.1412 -0.8212,-0.5575 -0.2072,-0.3788 -0.3832,-0.0434 -0.3832,-0.2558 0,-0.1463 0,-0.2925 0,-0.4387 0,-0.1618 -0.2844,0.0624 -0.4106,-0.1279 -0.2099,-0.3168 -0.1068,-0.1097 -0.4197,-0.1097 -0.3207,0 -1.0779,-0.2787 -1.4143,-0.3838 -0.497,-0.1552 -1.7611,-0.1351 -2.0073,-0.8225 -0.0072,-0.0201 -0.0312,-0.0179 -0.0457,-0.0366 -0.0096,-0.0122 -0.0256,-0.0237 -0.0365,-0.0274 -0.0262,-0.0091 -0.0389,0.0032 -0.0638,-0.0091 -0.0154,-0.0075 -0.0431,-0.0102 -0.0548,-0.0274 -0.0618,-0.0912 -0.338,-0.3874 -0.4562,-0.4204 -0.0179,-0.005 -0.7068,-0.3063 -0.8212,-0.4935 -0.0729,-0.1191 -0.3653,-0.6749 -0.4288,-0.7585 -0.1276,-0.1677 -0.2209,0.0261 -0.1277,-0.3473 0.046,-0.1841 -0.0083,-0.2741 -0.2099,-0.2741 -0.3306,0 -0.106,-0.1158 -0.2464,-0.2742 -0.2137,-0.2413 -0.6052,-0.212 -0.9033,-0.3655 -0.3986,-0.2054 -0.1534,0.0182 -0.4379,0.0182 -0.1798,0 -0.226,-0.177 -0.3467,-0.2193 -0.0137,-0.0048 -0.5546,-0.2987 -0.6752,-0.5392 -0.1205,-0.2401 -0.4285,-0.4697 -0.6661,-0.5757 -0.0353,-0.0157 -0.157,-0.0275 -0.1916,-0.0457 -0.0759,-0.0401 -0.9786,-0.8956 -1.0311,-1.0144 -0.1759,-0.3982 -0.2681,-0.7823 -0.3923,-1.188 -0.082,-0.2681 -0.1644,-0.5362 -0.2464,-0.8042 -0.0689,-0.2249 -0.5712,-0.6401 -0.6934,-0.8956 -0.1429,-0.2985 -0.2728,-0.6038 -0.4289,-0.8956 -0.0482,-0.0902 -0.1217,-0.1646 -0.1824,-0.2468 -0.1349,-0.1826 -0.5099,-0.8258 -0.2099,-1.0144 0.0826,-0.052 -0.1502,-0.1452 -0.2007,-0.2376 -0.0536,-0.0982 -0.0079,-0.2453 -0.0365,-0.3564 -0.033,-0.1284 -0.0202,-0.4876 -0.1734,-0.5392 -0.0148,-0.005 -0.029,-0.0058 -0.0365,-0.0274 -0.07,-0.2012 0.1471,-0.2315 0.0456,-0.4935 -0.0878,-0.2264 0.2338,-0.3014 0.1825,-0.5026 -0.1049,-0.4113 0.0365,-0.9324 -0.073,-1.3616 -0.0743,-0.2909 -0.2695,-0.6345 -0.3011,-0.9139 -0.0069,-0.0613 -0.0185,-0.4009 -0.0456,-0.4295 -0.0186,-0.0198 -0.0067,-0.0394 -0.0182,-0.064 -0.0066,-0.0143 -0.01,-0.0059 -0.0274,-0.0183 -0.0097,-0.0068 0.0023,-0.0245 -0.0091,-0.0274 -0.7858,-0.2039 -0.3902,-1.1068 -1.2866,-1.3708 -0.2441,-0.0718 0.0314,-0.4458 -0.0912,-0.6123 -0.205,-0.2781 -0.7213,0.2111 -0.5292,-0.6854 0.0147,-0.0688 0.0884,-0.119 0.0456,-0.1371 -0.483,-0.205 -0.4036,-2.2228 -0.8029,-2.504 -0.1964,-0.1382 -0.3123,-0.4692 -0.4836,-0.5574 -0.5717,-0.2941 -0.8087,-0.4329 -0.8395,-1.0967 -0.0014,-0.032 -0.0377,-0.1537 -0.0547,-0.1919 -0.0225,-0.0509 -0.0497,-0.1084 -0.0912,-0.1188 -0.115,-0.0287 -0.2834,0.161 -0.4289,0.064 -0.1068,-0.0713 -0.1778,-0.1726 -0.3193,-0.1097 -0.2907,0.1292 -0.1747,-0.3701 -0.3194,-0.4569 -0.0446,-0.0268 -0.4379,-0.2122 -0.4744,-0.2833 -0.2085,-0.4062 -1.1635,-0.6817 -1.3139,-1.0784 -0.0648,-0.1708 -0.1927,-0.1828 -0.4654,-0.1828 -0.1903,0 -0.338,0.1256 -0.4744,0.0183 -0.0838,-0.066 -0.3277,-0.658 -0.6387,-0.3838 -0.1461,0.1289 -0.316,-0.0631 -0.4654,-0.2011 -0.2188,-0.2023 -0.6008,-0.2052 -0.8212,-0.3381 -0.1146,-0.0692 -0.0559,-0.4401 -0.1459,-0.5666 -0.1027,-0.1441 -0.7663,-0.4936 -0.9581,-0.6854 -0.2152,-0.2152 -0.613,-0.7216 -0.8759,-0.8499 -0.0703,-0.0342 -0.386,-0.1582 -0.4654,-0.2376 -0.1044,-0.1044 -0.1852,-0.2912 -0.2463,-0.4295 -0.0888,-0.2012 -0.1829,-0.9183 -0.3741,-1.051 -0.0585,-0.0405 -0.0822,-0.1461 -0.1278,-0.201 -0.0238,-0.0285 -0.0509,-0.0537 -0.0912,-0.0731 -0.1702,-0.0823 -0.3407,-0.1646 -0.511,-0.2468 -0.2732,-0.1319 -0.6055,-0.298 -0.8211,-0.4843 -0.2037,-0.1761 -0.3694,-0.5666 -0.6752,-0.5666 -0.449,0 -0.6255,-0.6703 -0.8668,-1.0327 -0.2559,-0.3845 -0.6491,-0.8232 -0.9581,-1.0966 -0.1182,-0.1047 -0.2201,-0.0033 -0.3467,-0.0457 -0.0274,-0.0092 -0.0629,-0.0702 -0.0821,-0.1005 -0.0175,-0.0274 -0.02,-0.0929 -0.0457,-0.1097 -0.0098,-0.0065 0.0023,-0.0243 -0.0091,-0.0274 -0.4495,-0.1241 -0.4163,-0.0744 -0.4653,-0.5575 -0.0419,-0.4129 -0.2866,-0.4191 -0.6205,-0.5849 -0.6605,-0.3278 -1.1944,-0.324 -1.8339,-0.7859 -0.1584,-0.1145 -0.3975,-0.0956 -0.584,-0.2376 -0.0809,-0.0617 -0.4015,-0.3767 -0.4015,-0.4204 0,-0.006 0,-0.0121 0,-0.0182 0,-0.4151 -0.5986,-0.4776 -0.739,-0.8043 -0.0289,-0.0672 -0.1688,-0.0923 -0.1734,-0.1553 -0.009,-0.1218 -0.0183,-0.2437 -0.0274,-0.3656 -0.0131,-0.1754 -0.2678,-0.2624 -0.4197,-0.2924 -0.2591,-0.0513 -0.2819,-0.6492 -0.4653,-0.9504 -0.4291,-0.7049 -0.8985,-1.9066 -1.615,-2.3304 -0.3887,-0.2298 -0.6301,0.0738 -0.9763,-0.0183 -0.2929,-0.0778 -0.464,-0.2921 -0.6177,-0.5344l0 0c-0.0652,-0.1028 -0.1274,-0.2108 -0.1944,-0.3155 -0.3145,-0.4915 -1.1768,-0.0841 -0.9671,-1.1149 0.2079,-1.0229 -0.076,-1.5822 -0.3924,-2.376 -0.0141,-0.0352 -0.0288,-0.0687 -0.0437,-0.1007l52.1419 0.0182 0.3436 -79.7576 0.6423 0.0094 0 0z"/>
 </g>
</svg>
