<?xml version="1.0" encoding="UTF-8"?>
<!DOCTYPE svg PUBLIC "-//W3C//DTD SVG 1.1//EN" "http://www.w3.org/Graphics/SVG/1.1/DTD/svg11.dtd">
<!-- Creator: CorelDRAW -->
<svg xmlns="http://www.w3.org/2000/svg" xml:space="preserve" width="210mm" height="297mm" style="shape-rendering:geometricPrecision; text-rendering:geometricPrecision; image-rendering:optimizeQuality; fill-rule:evenodd; clip-rule:evenodd"
viewBox="0 0 210 297"
 xmlns:xlink="http://www.w3.org/1999/xlink">
 <defs>
  <style type="text/css">
   <![CDATA[
    .str2 {stroke:#2F3133;stroke-width:0.1}
    .str1 {stroke:black;stroke-width:0.1;stroke-opacity:0.501961}
    .str0 {stroke:black;stroke-width:0.1}
    .str3 {stroke:black;stroke-width:0.5}
    .fil5 {fill:none}
    .fil0 {fill:white}
    .fil2 {fill:#1F1A17;fill-rule:nonzero}
    .fil3 {fill:#C2C1C1;fill-rule:nonzero}
    .fil4 {fill:white;fill-rule:nonzero}
    .fil6 {fill:black;fill-rule:nonzero}
    .fil1 {fill:white;fill-rule:nonzero;fill-opacity:0.501961}
   ]]>
  </style>
 </defs>
 <g id="Plan_x0020_1">
  <metadata id="CorelCorpID_0Corel-Layer"/>
  <path class="fil0 str0" d="M41.3775 268.007l63.5891 1.9899 0 0c-0.0268,-0.2834 -0.0267,-0.5751 -0.2526,-0.9694 -0.2184,-0.3811 -0.5722,-0.6938 -0.6673,-1.0981 -0.0905,-0.3851 0.0244,-0.7078 -0.0239,-1.0861 -0.0879,-0.6886 -0.8226,-1.5724 -1.5611,-1.6591 -0.69,-0.0809 -0.8817,0.7439 -1.3227,0.6207 -0.642,-0.1793 -0.1488,-0.9894 -0.0239,-1.4443 0.1749,-0.6364 -0.567,-1.1684 -1.001,-1.4561 -1.4437,-0.957 -1.3284,-1.9572 -1.7398,-3.4375 -0.1453,-0.5228 -0.1436,-1.0023 -0.2503,-1.5159 -0.1086,-0.5222 -0.4294,-0.7946 -0.5958,-1.2891 -0.2909,-0.8647 0.143,-2.1076 0.143,-3.0078 0,-0.8839 0.4738,-0.4903 0.9891,-0.8474 0.2408,-0.1668 0.487,-0.481 0.6196,-0.6923 0.154,-0.2456 0.2247,-1.9455 0.4171,-1.9455 0.3178,0 0.3808,-0.2488 0.3575,-0.5371 -0.0472,-0.5844 -0.2025,-1.0783 -0.2025,-1.6711 0,-0.5239 0.033,-1.1301 -0.4648,-1.4561 -1.0875,-0.7121 0.9838,-1.7231 1.5968,-1.9575 0.5771,-0.2208 1.6902,-0.0097 2.0259,-0.6445 0.0871,-0.1646 0.3707,-0.4247 0.572,-0.2746 0.6556,0.4888 1.4521,-1.0027 1.3228,-1.5516 -0.1581,-0.6706 -0.5364,-0.9247 0.0953,-1.3488 0.6465,-0.4339 1.1588,0.31 1.4062,-0.6803 0.1967,-0.7872 -0.7723,-1.0241 -1.1679,-1.4204 -0.5027,-0.5038 -0.2619,-1.3848 -0.1668,-2.0052 0.1097,-0.7159 -0.1217,-0.6419 -0.4886,-1.0981 -0.7997,-0.9946 3.599,-3.2751 2.2523,-4.3804 -0.1305,-0.107 -0.2495,-0.3683 -0.2979,-0.5729 -0.0578,-0.2439 -0.0137,-0.5105 -0.1311,-0.74 -0.3022,-0.591 0.5659,-0.7618 0.8103,-1.1698 0.2564,-0.4282 0.037,-0.9049 -0.2145,-1.2771 -0.5112,-0.7568 -1.4292,-1.5821 -1.6087,-2.5184 -0.1284,-0.6696 0.3932,-1.2015 0.3932,-1.8381 0,-0.3419 -0.0717,-0.6679 0.0119,-1.0027 0.0866,-0.3471 0.5743,-0.5158 0.6435,-0.8355 0.1448,-0.6694 -0.6851,-0.9422 -0.1549,-1.5277 0.2843,-0.3138 0.812,-0.7731 0.7865,-1.2294 -0.0251,-0.4478 -0.3358,-0.6772 -0.2621,-1.2055 0.1419,-1.0172 0.6699,-1.5685 0.1549,-2.6021 -0.3446,-0.6914 -0.176,-1.1009 0.0238,-1.6948 0.0962,-0.2862 0.4041,-0.3419 0.7031,-0.4775 0.2507,-0.1136 0.5677,-0.4118 0.7388,-0.6564 0.1839,-0.2628 0.4221,-0.9728 0.5244,-1.2652 0.3391,-0.9692 0.4644,-1.8331 0.7388,-2.7811 0.2732,-0.9435 0.8897,-1.0936 -0.0238,-1.9336 -0.4749,-0.4366 -0.6304,-0.6604 -0.5959,-1.3129 0.0238,-0.4495 0.6874,-1.5447 1.013,-1.8501 0.0659,-0.0619 0.746,-0.5975 0.5243,-0.7877 -0.1714,-0.1469 -1.2581,-0.2376 -1.5015,-0.3462 -0.6321,-0.2819 -0.2564,-0.8265 -0.4409,-1.3726 -0.1592,-0.4711 -0.0254,-0.9111 0.1787,-1.2652 0.2639,-0.4581 0.7041,-0.5825 0.7865,-1.1458 0.0873,-0.5968 0.1773,-1.1933 0.2622,-1.7904 0.1494,-1.05 0.2941,-2.1007 0.4409,-3.151 0.0886,-0.6339 0.2092,-1.2802 0.0834,-1.9336 -0.092,-0.4775 -0.0573,-0.8574 0.2503,-1.2772 0.2637,-0.3598 0.668,-0.7381 0.7031,-1.2174 0.0561,-0.7661 0.2298,-2.0586 -0.6197,-2.5662 -0.1388,-0.083 -0.4444,-0.4356 -0.5363,-0.561 -0.3284,-0.4484 -0.3499,-0.6573 -0.131,-1.2055 0.115,-0.2883 0.4036,-0.857 0.6196,-1.0742 0.1029,-0.1036 0.2979,-0.432 0.3814,-0.561 0.0285,-0.0439 0.086,-0.1245 0.0953,-0.1791 0.0564,-0.3301 0.0851,-0.5508 0.0715,-0.919 -0.0521,-1.4121 -0.2245,-2.9257 1.2036,-3.6285 0.972,-0.4784 2.9077,-1.2621 2.9077,-2.602 0,-0.3753 -0.1443,-0.673 -0.3098,-0.8713 -0.3473,-0.4159 0.1218,-1.0589 0.2621,-1.3726 0.1876,-0.4198 -0.106,-0.9528 0.2026,-1.2175 0.2615,-0.2244 0.5723,-0.1844 0.8223,-0.37 0.427,-0.3169 0.3791,-0.5535 0.3336,-0.9907 -0.0087,-0.0841 -0.0548,-0.1559 -0.0595,-0.2387 -0.0479,-0.8458 0.6465,-1.2016 0.9771,-1.9933 0.3175,-0.7605 -0.1906,-1.6085 -0.1906,-2.3633 0,-0.5324 -0.1006,-1.1051 0.2145,-1.4681 0.3178,-0.3659 0.656,-0.7154 0.9533,-1.098 0.2755,-0.3545 0.5086,-0.7401 0.7627,-1.1101 0.1104,-0.1607 0.2926,-0.3674 0.4052,-0.5132 0.1459,-0.1891 0.0841,-0.394 0.3455,-0.5013 0.3275,-0.1343 0.4577,-0.0411 0.7746,-0.1074 0.5613,-0.1176 1.0182,-0.7401 1.5135,-1.0146 0.3149,-0.1744 0.8376,-0.3563 1.0367,-0.6803 0.2791,-0.4544 0.3929,-1.0446 0.7031,-1.4681 0.27,-0.3684 1.3109,-0.7113 1.3109,-1.0981 0,-0.6109 -0.4087,-1.5187 0.4766,-1.9456 0.2312,-0.1115 0.3933,-0.4003 0.3933,-0.8474 0,-0.3395 0.3452,-0.5735 0.5482,-0.8236 0.3885,-0.4789 -0.3781,-1.3174 -0.3575,-1.8142 0.0235,-0.5691 0.6573,-1.1227 0.5243,-1.683 -0.1168,-0.4925 -0.2463,-0.9316 -0.4409,-1.4084 -0.1452,-0.3556 0.0796,-0.6356 0.143,-0.9668 0.1175,-0.6144 0.1349,-0.6445 0.7865,-0.6445 1.1308,0 0.4761,-0.8424 0.2145,-1.3368 -0.4508,-0.8523 1.0137,-0.9247 1.2751,-1.3488 0.2243,-0.3637 0.2248,-0.8136 0.5243,-1.2294 0.1717,-0.2385 1.0749,-0.6837 1.2274,-0.931 0.2902,-0.4708 0.6622,-0.4081 0.9653,-0.6803 0.6182,-0.5549 0.6228,-1.1497 0.4886,-1.85 -0.0642,-0.335 -0.2636,-1.5002 0.1787,-1.5756 0.4299,-0.0732 0.6606,-0.1263 0.9176,-0.5132 0.233,-0.3506 0.0978,-1.024 0.2622,-1.1697 0.1866,-0.1655 0.5806,-0.0536 0.7031,-0.2745 0.1796,-0.324 -0.4367,-0.4483 -0.6078,-0.5013 -0.4167,-0.129 -0.8309,0.1256 -1.144,0.0238 -0.6752,-0.2195 0.5603,-1.7168 0.0596,-2.1484 -0.1456,-0.1256 -0.4972,-0.2851 -0.5124,-0.4894 -0.017,-0.2289 0.3668,-0.3807 0.5005,-0.4894 0.4152,-0.3379 0.6472,-0.3515 0.6554,-0.9668 0.0039,-0.2944 0.0081,-0.5888 0.0119,-0.8832 0.0026,-0.1979 0.6075,0.2247 0.715,0.1074 0.177,-0.1933 -0.0953,-0.6666 -0.0953,-0.919 0,-0.6788 1.3227,0.8916 1.1917,-0.4059 -0.0573,-0.5673 0.4715,-0.5209 0.4528,-0.7519 -0.0196,-0.2429 -0.1525,-0.3271 -0.2383,-0.5371 -0.4264,-1.0441 0.9719,-0.9011 1.1321,-1.3607 0.0177,-0.0507 0.0436,-0.1307 0.0119,-0.1432 -0.5608,-0.2225 -0.9536,-0.6804 0,-0.6804 0.5919,0 0.8538,-0.6159 1.0248,-1.1339 0.1491,-0.4514 -0.2177,-0.5683 -0.1906,-0.931 0.0387,-0.5161 1.1941,-0.1071 1.4061,-0.1193 1.0803,-0.0626 -0.672,-0.9597 -0.703,-0.9907 -0.2327,-0.2327 0.5429,-0.2956 0.6554,-0.3461 0.2824,-0.1267 0.4886,-0.6722 0.4886,-0.9668 0,-0.016 0,-0.0319 0,-0.0478 0,-0.0307 -0.0372,-0.0317 -0.0477,-0.0597 -0.0198,-0.0532 -0.0176,-0.1129 -0.0596,-0.1551 -0.0158,-0.0159 -0.0318,-0.0319 -0.0476,-0.0478 -0.0446,-0.0446 -0.0892,-0.1456 -0.143,-0.179 -0.1628,-0.1008 -0.4797,-0.1599 -0.6316,-0.1313 -0.2921,0.0552 -0.359,0.635 -0.5125,0.5849 -0.308,-0.1005 -0.3745,-0.5044 -0.4051,-0.7878 -0.0682,-0.6324 -0.267,-1.3893 0.3694,-1.8501 0.2927,-0.212 0.9057,-0.1575 0.9057,-0.4893 0,-0.7077 0.1452,-0.5578 -0.3933,-1.0981 -0.2824,-0.2832 -0.0953,-1.5074 -0.0953,-1.9456 0,-0.1321 -0.0608,-0.9481 -0.0954,-0.9668 -0.0115,-0.0061 -0.5045,-0.1107 -0.5839,-0.5251 -0.064,-0.3345 -0.3015,-0.7382 -0.429,-1.0623 -0.1236,-0.3145 -0.0871,-0.5713 -0.286,-0.8594 -0.1363,-0.1976 -0.3575,-0.4531 -0.3575,-0.7042 0,-0.5674 0.6197,-0.9721 0.6197,-1.5517 0,-0.5902 -0.1054,-0.4267 0.2502,-0.919 0.2381,-0.3295 0.1383,-1.04 0.155,-1.4562 0.0154,-0.3824 0.6361,-1.6201 0.2502,-1.9217 -0.0434,-0.034 -0.028,-0.0929 -0.0715,-0.1312 -0.6283,-0.5541 -0.5768,-1.1099 -0.6673,-1.862 -0.0373,-0.31 0.1367,-0.6591 -0.0477,-0.8952 -0.1226,-0.1569 -0.7388,0.1982 -0.7388,-0.1074 0,-0.4244 0.3374,-0.7924 0.6077,-1.0862 0.5315,-0.5774 1.5286,-1.0026 1.9186,-1.7068 0.7299,-1.3182 -0.0493,-2.3102 1.716,-2.6856 1.5666,-0.3332 2.0971,-1.935 3.9087,-1.7545 0.6052,0.0602 2.1683,0.1172 2.7171,-0.0239 0.519,-0.1335 0.5833,-0.6962 1.0725,-0.8594 1.2859,-0.4289 2.158,0.5869 3.2652,0.7997 0.0692,0.0132 0.3262,0.0747 0.3813,0.0836 0.5636,0.0341 1.1494,-0.3337 1.6415,-0.5675 0.7632,-0.3628 1.5866,-0.7174 2.2619,-1.2126 0.6886,-0.5048 0.63,-0.927 0.5715,-1.7 -0.0089,-0.3082 0.3873,-1.0725 0.5594,-1.3466 0.505,-0.8046 0.9252,-1.6313 1.7694,-2.0534l0.5132 -0.1143c0.2503,-0.1393 0.5006,-0.2787 0.7508,-0.4178 0.2548,-0.1418 0.6237,-0.2125 0.8937,-0.1432 0.2936,0.0753 0.4446,0.2754 0.6554,0.4416 0.1205,0.0951 0.2022,0.0411 0.3575,0 0.148,-0.0391 0.2608,-0.2083 0.3456,-0.2506 0.0244,-0.0122 0.0127,-0.045 0.0358,-0.0597 0.0499,-0.0319 0.132,-0.1606 0.1907,-0.2029 0.0539,-0.039 0.0502,-0.1005 0.1191,-0.1671 0.6856,-0.6622 1.526,-0.1091 2.3476,-0.4058 0.6223,-0.2248 1.3424,-1.0501 1.8233,-1.5039 0.4828,-0.4554 0.2307,-0.5992 0.4767,-0.9907 0.3197,-0.509 1.0628,-0.0199 1.4419,-0.931 0.247,-0.5939 -0.2252,-2.1274 0.8461,-1.9217 0.3883,0.0745 0.8262,-0.224 0.5958,-0.6326 -0.1895,-0.3363 -0.9146,-0.622 -0.3456,-1.0145 0.4627,-0.3193 0.6844,-0.6246 1.0606,-1.0026 0.6244,-0.6272 0.4903,0.2169 -0.2621,0.7997 -0.6017,0.4662 1.0895,0.0201 1.3227,-0.3581 0.5247,-0.8509 0.675,-0.2979 1.287,-0.74 0.3166,-0.2288 0.5177,-0.6421 0.5005,-1.0384 -0.0441,-1.015 1.7641,-0.3349 1.4301,-1.1817 -0.1535,-0.3891 -1.4612,-1.035 -1.3705,-1.4919 0.0901,-0.4544 1.1633,-0.6432 1.5135,-1.1101 0.8848,-1.1799 -1.6087,-2.2188 -1.8948,-3.151 -0.2801,-0.9123 1.7739,-1.0667 2.288,-0.8952 0.7846,0.2616 0.7055,0.074 0.9891,-0.4655 0.1495,-0.2843 0.4441,-0.0747 0.5482,-0.2149 0.1897,-0.2558 -0.4469,-1.5939 0.0596,-1.4084 0.2544,0.0932 0.2399,0.6804 0.3932,0.6804 0.2707,0 0.4539,-0.2663 0.5601,-0.5252 0.3367,-0.8211 -0.4768,-1.3846 -1.1559,-1.3846 -1.0228,0 -0.3462,-0.9304 -0.1669,-1.289 0.2016,-0.4032 -0.1162,-0.7615 -0.1668,-1.1578 -0.0947,-0.7421 0.9979,-0.8638 0.5124,-1.4442 -0.1928,-0.2306 -0.6923,-0.3497 -0.9057,-0.5491 -0.5174,-0.4832 0.1928,-1.0668 -0.0476,-1.6829 -0.2955,-0.7575 -0.8999,0.3723 -1.4896,-0.0478 -0.3696,-0.2634 0.0751,-1.2244 0.3456,-1.492 0.1338,-0.1323 0.2355,-0.1766 0.1549,-0.4177 -0.1966,-0.588 -0.4503,-1.8334 -1.2751,-1.9336 -0.2597,-0.0315 -0.5508,-0.1263 -0.5124,-0.4655 0.0517,-0.4576 0.0552,-0.6832 -0.3099,-0.9549 -0.3528,-0.2624 -0.1505,-0.6811 -0.274,-1.0384 -0.062,-0.1792 -0.3293,-0.4029 -0.4291,-0.5132 -0.1659,-0.1831 -0.4955,-0.9882 -0.5243,-1.2413 -0.0545,-0.4791 -0.8164,-0.3953 -0.8342,-0.6446 -0.0638,-0.8917 0.9004,-1.3305 0.0954,-2.232 -0.4283,-0.4795 0.7844,-0.818 0.9894,-1.1339 0.4586,-0.7063 1.4453,-1.7898 1.5253,-2.6497 0.0078,-0.0844 0.1229,-0.1223 0.2145,-0.1433 0.0409,-0.0094 0.1666,-0.0946 0.1907,-0.0954 0.6316,-0.0226 0.9931,-0.4811 1.1917,-0.7878 0.2494,-0.3849 0.3391,-1.1164 0.1907,-1.5039 -0.1057,-0.2762 0.0953,-1.3247 0.0953,-1.7426 0,-0.016 0,-0.0319 0,-0.0478 0,-0.2075 0.5892,-0.4693 0.715,-0.5968 0.0932,-0.0944 -0.0052,-0.2915 0.0715,-0.4058 0.0697,-0.1041 0.236,-0.2428 0.3575,-0.4297 0.4032,-0.6205 -0.0816,-0.6661 -0.0238,-1.289 0.0531,-0.5734 0.8272,-1.0084 0.858,-1.4562 0.0023,-0.0333 0.1458,-0.4026 0.1668,-0.4774 0.0481,-0.1717 0.1795,-0.3966 0.286,-0.4536 0.2725,-0.1457 1.4371,-1.3976 1.5969,-1.6471 0.0606,-0.0945 0.5482,-0.4613 0.5482,-0.5968 0,-0.2467 0,-0.4934 0,-0.7401 0,-0.1127 1.2796,-1.2652 1.3346,-1.2652 0.0159,0 0.0318,0 0.0477,0 0.4925,0 -0.3796,-1.5583 -0.8818,-1.6948 -0.0391,-0.0106 -0.1366,-0.1692 -0.143,-0.191 -0.0617,-0.2095 -0.3181,-0.4598 -0.3575,-0.6923 -0.2035,-1.2014 -0.5735,-1.5707 -0.286,-2.9839 0.2068,-1.0165 -0.8344,-1.8166 -1.4301,-2.4827 -0.2063,-0.2306 -0.2719,-1.2513 -0.0715,-1.6233 0.4247,-0.7881 1.596,-1.1187 2.2452,-1.6497 0.5625,0.1615 1.6118,0.9877 2.1994,0.6233 0.2614,-0.162 0.2821,-0.5813 0.5005,-0.7997 0.1672,-0.1672 0.5643,-0.2546 0.7866,-0.2984 0.0306,-0.0616 0.0078,-0.002 0.0715,-0.1433l-3.1297 -0.0042 0 0 -25.2201 0.4101 -8.2346 0.2148 -30.6381 0.4774 -9.8076 -0.4655 -9.9743 -0.1074 -4.5165 -0.6087 -12.3578 -0.2029 -12.6557 0.1193 -9.6049 -0.0954 -22.7072 0.5498 0 0 -0.1894 0.8825c-0.2426,0.718 -0.5629,1.4365 -0.5316,2.2081 0.0404,0.9932 0.7743,1.2061 1.3585,1.7903 0.1686,1.1947 0.1907,2.3406 0.1907,3.5689 0,1.3987 -0.0707,2.2983 -1.442,2.9839 -0.5294,0.6457 -0.5865,1.409 -0.715,2.1962l-0.2145 1.3129c-0.0661,0.4049 -0.2992,0.8416 -0.3456,1.2175 -0.0289,0.0331 -0.0496,0.0551 -0.0596,0.0955 -0.0777,0.0777 -0.1793,0.2038 -0.2264,0.2984 -0.769,0.4814 -0.8478,2.2964 -0.3336,2.9481 0.3922,0.4969 0.4737,0.6919 1.0605,1.0026 0.5698,0.3018 0.6894,0.4865 0.9653,1.0384 0.2106,0.3442 0.4454,0.7205 0.7269,1.0026 0.5353,0.5363 0.6293,0.5739 0.5959,1.3488 -0.0188,0.4379 0.0859,1.1542 -0.0358,1.5516 -0.0775,0.2529 -0.6728,0.519 -0.858,0.7878 -0.2794,0.4058 -0.2923,1.0698 -0.4052,1.5517 -0.1546,0.6603 -0.607,1.15 -0.8341,1.7187 -0.2834,0.1613 -0.2279,1.3871 -0.2026,1.6949 0,0.878 0.0875,1.6832 -0.0119,2.5543 -0.024,0.2105 -0.1146,0.6777 -0.0239,0.8713 0.1278,0.2724 0.3099,0.2418 0.3099,0.6087 -0.2544,0.3801 -0.4528,0.7746 -0.7746,1.122 -0.3684,0.3979 -0.225,1.1865 -0.1669,1.6948 0.0277,0.242 0.3719,0.517 0.2026,0.752 -0.1513,0.2102 -0.4208,0.3502 -0.6077,0.5371 -0.0836,0.4225 -0.2026,0.8808 -0.2026,1.3249 0.1165,0.8527 -0.6316,0.7195 -0.6316,1.4323 0,0.2862 0.2101,0.5189 0.1787,0.8474 -0.0289,0.3018 -0.2621,0.5051 -0.2621,0.8594 0.1831,0.2293 0.4795,0.3049 0.5601,0.6326 0.0586,0.2379 0.0069,0.5281 0.0953,0.752 0.0937,0.2374 0.331,0.3431 0.3575,0.6206 0.0416,0.4342 -0.2782,0.7721 -0.1311,1.2294 0.2313,0.7195 0.2774,1.3474 0.7031,1.9813 0.5449,0.8116 1.1867,1.2711 1.8829,1.9098 0.3935,0.3626 0.5325,1.0593 0.7626,1.5397 0.1657,0.3457 0.5344,1.143 0.8223,1.3487 0.0961,0.6809 0.1323,1.0288 0.5124,1.6352 0.2567,0.4094 0.7593,0.7447 0.9295,1.1936 0.2245,0.5923 0.1731,1.457 0.3337,2.1127 0.2079,0.8482 0.2264,1.4307 0.2264,2.2916l0.1073 0.1552c0,0.0577 0.0602,0.2305 0.0953,0.2745 0,0.7012 0.143,1.4018 0.143,2.1127 0,1.0019 -0.5756,2.6126 -0.9533,3.5568 -0.2617,0.6545 -0.3692,1.198 -0.5006,1.8859 -0.1489,0.7801 -0.8311,1.0951 -1.3585,1.6233 -0.4783,0.8955 -0.0141,1.3756 -0.1787,2.2558 -0.0636,0.3401 -0.439,0.5805 -0.1907,0.9071 0.1698,0.2233 0.679,0.5251 0.9295,0.6684 0.1695,0.5957 -0.3131,0.9889 -0.1191,1.6233 0.0741,0.2423 0.2305,0.4102 0.274,0.6804 0.0794,0.4939 -0.0879,0.5045 0.1669,1.0026 0.2137,0.4175 0.0651,1.3557 -0.1669,1.7307 -0.4739,0.766 0.8104,1.1754 0.8104,1.8261 0,0.3355 -0.0677,0.7262 -0.1192,1.0623 -0.0772,0.5044 -0.2983,0.8844 -0.3694,1.4204 -0.0824,0.6203 -0.4901,0.8312 -0.7984,1.2652 -1.0188,0.2017 -1.7592,1.8629 -2.1808,2.6617 -0.2947,0.5586 -0.5207,1.1108 -0.9176,1.6113 -0.2242,0.2826 -1.4193,1.2137 -1.716,1.3487 -0.0734,0.6077 0.1703,1.1867 -0.3456,1.6472 -0.647,0.5774 -0.3878,2.0112 -0.5243,2.8049 -0.0888,0.5169 -0.1855,0.8435 -0.5363,1.2533 -0.1251,0.146 -0.7269,0.6299 -0.7269,0.8235l-0.0238 0.0239c0,0.5874 0.3694,1.0582 0.3694,1.7188 0,0.6602 -0.228,1.4374 -0.3099,2.0887 -0.2182,0.5392 -0.6855,1.0046 -0.7984,1.5994 -0.1666,0.8779 -0.3717,1.8783 -0.6554,2.7214 -0.1796,0.5335 -0.5363,1.4348 -0.5363,1.9813l0.0239 0.012c0.4125,0.5165 1.5286,0.8617 2.0973,1.289 0.5962,0.4478 0.8441,1.7716 0.6674,2.4827 -0.263,0.3952 -0.4954,1.9232 -0.5601,2.4468 -0.38,0.4345 0.0028,0.9883 0.1549,1.4204 0.2624,0.7449 0.2979,1.6579 0.2979,2.4587 0,0.618 -0.4618,2.0274 -0.0715,2.5304 0.0103,0.1145 0.1013,0.353 0.1788,0.4417 0.0116,0.1059 0.1661,0.4541 0.2383,0.5371 0.0324,0.2614 0.2161,0.6499 0.286,0.931 0.2367,0.6075 0.7773,0.9932 0.9891,1.5516 0.3339,0.8807 1.0069,1.6046 0.7508,2.6498 -0.2982,1.2166 -0.6594,1.6414 0.3694,2.6736 0,0.8225 -1.0299,0.9831 -1.2513,1.7068 -0.2631,0.8604 -0.268,1.4858 0.4171,2.1723 0.3796,0.3443 0.3999,0.6782 0.5363,1.122 0.2527,0.8216 1.1313,1.0891 1.4419,1.7904 0.0941,0.2127 0.4052,1.2606 0.4052,1.48 0,0.6511 -0.7895,1.9071 -1.0726,2.5423 -0.2138,0.4795 -0.2821,0.7181 -0.2502,1.2533 0.0293,0.4907 -0.0287,0.7053 -0.0715,1.1816 -0.1405,0.1177 -0.3444,0.6331 -0.4528,0.8236 -0.1002,0.1803 -0.291,0.294 -0.4648,0.3939l-0.2622 0.6684c-0.089,0.227 -0.5124,0.4124 -0.5124,0.6803 -0.0746,0.0937 0.0135,0.2615 -0.0834,0.37 -0.574,0.6429 -0.7272,0.7302 -0.9414,1.5875 -0.2495,0.9981 -0.1548,2.5621 -0.7508,3.4256 -0.1968,0.285 -1.099,1.055 -1.1202,1.2771 -0.0625,0.6521 0.1608,1.1173 0.5482,1.6352 0.652,0.7724 -0.3126,1.1127 -0.3456,1.8142 -0.034,0.7207 0.3054,0.8206 -0.0953,1.6233 -0.1362,0.273 -0.6685,0.9432 -0.0954,1.0981 1.0338,0.2793 1.3304,1.6587 2.2881,1.8143 0.6224,0.1012 1.1797,-0.9588 1.1797,-1.3965 0,-0.2825 0.1806,-0.4806 0.2384,-0.752 0.2026,-0.9496 -0.6362,-0.3513 0.3098,-1.3129 0.3735,-0.3797 0.2321,-0.5773 0.0834,-0.9907 -0.1808,-0.503 0.4384,-0.6714 0.3099,-1.3487 -0.1256,-0.6616 0.7487,-0.1972 1.0605,-0.573 0.2963,-0.0366 0.7373,0.5688 0.8461,0.4417 0.3006,-0.351 0.9793,-0.7112 1.5016,-0.5252 0.2016,0.0718 1.4303,0.1713 1.6326,0.1193 0.4538,-0.1166 0.3742,0.6568 0.429,0.931 0.1656,0.8285 0.8341,0.9884 0.8341,2.0411 0,0.6527 -0.4413,1.6714 -0.2383,2.232 0.3981,0.199 0.6861,-0.1207 1.0725,0.2387 1.133,1.0536 3.0368,1.052 2.5383,3.2226 -0.0444,0.1513 -0.0343,0.1799 0.0476,0.3104 0.1435,0.2283 0.3221,0.4291 0.4529,0.6564 0.1313,0.2284 0.1072,0.3365 0.1072,0.5849 -0.0887,0.0635 -0.2143,0.4294 -0.274,0.549 -0.0905,0.181 -0.1311,0.4217 -0.1311,0.6326l-2.4006 74.0207 -0.6144 0.8168 -0.1072 1.4681 0.2621 0.6326 -0.5839 1.0981 1.1322 6.0216 0.9306 0 0 0z"/>
 </g>
</svg>
