<?xml version="1.0" encoding="UTF-8"?>
<!DOCTYPE svg PUBLIC "-//W3C//DTD SVG 1.1//EN" "http://www.w3.org/Graphics/SVG/1.1/DTD/svg11.dtd">
<!-- Creator: CorelDRAW -->
<svg xmlns="http://www.w3.org/2000/svg" xml:space="preserve" width="297mm" height="210mm" style="shape-rendering:geometricPrecision; text-rendering:geometricPrecision; image-rendering:optimizeQuality; fill-rule:evenodd; clip-rule:evenodd"
viewBox="0 0 297 210"
 xmlns:xlink="http://www.w3.org/1999/xlink">
 <defs>
  <style type="text/css">
   <![CDATA[
    .str2 {stroke:#2F3133;stroke-width:0.1}
    .str1 {stroke:black;stroke-width:0.1;stroke-opacity:0.501961}
    .str0 {stroke:black;stroke-width:0.1}
    .str3 {stroke:black;stroke-width:0.5}
    .fil5 {fill:none}
    .fil0 {fill:white}
    .fil2 {fill:#1F1A17;fill-rule:nonzero}
    .fil3 {fill:#C2C1C1;fill-rule:nonzero}
    .fil4 {fill:white;fill-rule:nonzero}
    .fil6 {fill:black;fill-rule:nonzero}
    .fil1 {fill:white;fill-rule:nonzero;fill-opacity:0.501961}
   ]]>
  </style>
 </defs>
 <g id="Plan_x0020_1">
  <metadata id="CorelCorpID_0Corel-Layer"/>
  <path class="fil0 str0" d="M273.977 90.8259c-0.4473,0 -1.2551,1.4051 -1.5146,1.7729 -0.1718,0.2434 -0.4925,0.5109 -0.7117,0.7311 -0.1155,0.1159 -0.5305,0.589 -0.5566,0.722 0.1898,0 0.4746,-0.2836 0.6022,-0.4113 0.4862,-0.487 1.6515,-0.3552 1.6515,-1.2703 0,-0.4812 0.6296,-0.7951 0.6296,-1.3068l-0.1004 -0.2376zm-8.706 15.8282c-0.4827,0 -0.4921,0.1695 -0.7299,0.5392 -0.3346,0.5204 -0.5413,1.185 -0.9763,1.6541 -0.2964,0.3198 -0.3011,0.8971 -0.3011,1.3342 0.1125,0 0.5135,-0.5882 0.5931,-0.6945 0.3334,-0.4456 0.5406,-0.9368 0.7846,-1.4256 0.0667,-0.1335 0.466,-0.8848 0.584,-0.9139 0.0212,-0.086 0.1095,-0.1541 0.1095,-0.265l-0.0639 -0.2285zm-1.7701 4.4688c-0.0833,-0.0385 -0.1208,-0.0206 -0.2007,-0.0091 -0.0101,0.0306 -0.2116,0.197 -0.2555,0.2467 -0.1308,0.1484 -0.154,0.5096 -0.2555,0.6946 -0.1148,0.2095 -0.1361,0.4924 -0.2372,0.7219 -0.2074,0.4703 -0.3714,0.946 -0.7117,1.3434 -0.1158,0.1352 -0.2208,0.2929 -0.3376,0.4295 -0.0371,0.0435 -0.2162,0.3297 -0.0182,0.2742 0.1151,-0.0322 0.5016,-0.5686 0.5839,-0.6854 0.3311,-0.4693 0.5844,-1.0078 0.9033,-1.4805 0.1238,-0.1834 0.2608,-0.4077 0.4197,-0.5666 0.1572,-0.1572 0.1636,-0.3712 0.2373,-0.5666l-0.1278 -0.4021zm-1.989 4.0485c-0.0314,-0.0454 -0.0835,-0.109 -0.146,-0.0823 -0.0411,0.1627 -0.1211,0.3615 -0.1916,0.5209 -0.0418,0.0943 -0.0961,0.2166 -0.146,0.3016 -0.0501,0.0856 -0.1616,0.2053 -0.1734,0.3016 -0.0956,0.0683 -0.1183,0.2498 -0.219,0.329 -0.1602,0.1262 -0.2613,0.3232 -0.4288,0.4478 -0.0891,0.0664 -0.365,0.2366 -0.365,0.3472 0.0872,0.0657 0.3012,-0.2285 0.3741,-0.2833 0.3247,-0.2438 0.5997,-0.6789 0.8303,-1.0052 0.0947,-0.1339 0.1791,-0.2842 0.2555,-0.4296 0.0568,-0.1079 0.1825,-0.2245 0.1825,-0.3472l0.0274 -0.1005zm-5.0183 8.764c-0.1148,0.0263 -0.2211,0.0948 -0.3467,0.1279 -0.2383,0.063 -0.4081,0.1426 -0.5749,0.329 -0.0745,0.0834 -0.0808,0.1625 -0.1368,0.2467 -0.0437,0.0656 -0.1186,0.1698 -0.1186,0.2468 0.0646,0.0213 0.1148,-0.0101 0.1824,-0.0457 0.2167,-0.1144 0.4532,-0.2323 0.657,-0.3656 0.1695,-0.111 0.2979,-0.2234 0.4197,-0.3929 0.0633,-0.088 0.2463,-0.2474 0.2463,-0.3473 -0.0682,0 -0.0838,0.0283 -0.1368,0.0548l-0.1916 0.1463zm-2.152 1.1057c-0.0391,0.0326 -0.0578,0.0673 -0.1095,0.0731 -0.0575,0.0065 -0.0738,-0.0274 -0.1278,-0.0274 -0.0616,-0.0743 -0.3098,-0.0639 -0.4106,-0.0639 -0.143,0 -0.2562,0.0933 -0.3284,0.2101 -0.0911,0.1472 0.069,0.4179 0.1916,0.5027 0.2739,0.1892 0.7693,0.2612 1.0584,0.0822 0.0672,-0.0415 0.1056,-0.1006 0.1095,-0.1828 0.0057,-0.1218 0.0651,-0.2803 0.0365,-0.4021 -0.0252,-0.1078 -0.1409,-0.2467 -0.2555,-0.2467l-0.1642 0.0548zm-1.0754 -27.4301c0.0071,-0.1104 0.0045,-0.1691 0.0867,-0.2467 0.0807,-0.0763 0.1362,-0.1641 0.1733,-0.265 -0.1025,-0.131 -0.0321,-0.1337 -0.0091,-0.2834 0.0285,-0.1859 -0.1299,-0.4873 -0.2828,-0.5894 -0.3184,-0.2125 -0.2146,0.5905 -0.2099,0.7082 0.0046,0.1176 0.0319,0.2277 0.0319,0.3473 0,0.0515 -0.0045,0.1001 -0.0045,0.1508 0,0.0955 0.1053,0.1169 0.1368,0.1965l0.0776 -0.0183zm2.2628 48.8694l-1.3698 0.0086 0 0c0.0024,-0.4323 0.0403,-0.3192 0.4196,-0.3192 0.3933,0 0.519,-0.3374 0.8486,-0.4021 0,0.221 0.0448,0.469 0.1016,0.7127l0 0zm20.569 -57.164l-0.5437 0.0289 0 0c-0.1036,0.1141 -0.2023,0.2201 -0.2817,0.3109 -0.0216,0.1752 -0.2297,0.3422 -0.2919,0.5209l-0.2738 0.7859c0.013,-0.0213 0.0117,-0.0305 0.0365,-0.0274 -0.0199,0.0065 -0.2177,0.3642 -0.2828,0.4295 -0.1041,0.1043 -0.1728,0.3035 -0.2099,0.4478 -0.0697,0.2704 -0.3297,0.637 -0.4927,0.8682 -0.3297,0.4673 -0.4252,0.8588 -1.0219,1.0326 -0.1882,0.0548 -0.4489,0.1085 -0.5201,0.3016 -0.1148,0.311 -0.0619,0.4021 0.3011,0.4021 0.2167,-0.0406 0.4092,0.0134 0.6113,-0.0822 0.2622,-0.1239 0.0403,0.26 -0.0091,0.4203 -0.1314,0.4268 -0.4358,0.5103 -0.7573,0.3108 -0.3083,-0.1912 -0.9145,-0.0823 -1.2683,-0.0823 0.0046,0.0136 0.5611,0.3496 0.6296,0.4295 0.3032,0.3542 0.2166,0.8075 0.8394,0.2285 0.6393,-0.5942 0.9956,-1.1915 1.3687,-2.0105l1.0949 -2.4035 0.0547 -0.2467c0.4081,-0.4431 0.6796,-1.1458 1.017,-1.6649l0 0zm-3.8762 0.4107l-7.3174 0.7874c-0.1115,0 -0.2016,-0.0636 -0.3149,-0.0594 -0.1107,0.0042 -0.2033,0.0524 -0.2874,0.1188 -0.0138,0.0717 -0.0703,0.2402 -0.1231,0.2879 -0.0033,0.036 -0.043,0.0884 -0.0594,0.1234 -0.0208,0.0443 -0.1019,0.344 -0.1246,0.389l0 0c0.2287,0.6861 0.0896,1.6341 -0.9124,1.1332 -0.2432,-0.1216 -0.3383,0.1803 -0.4836,0.3016 -0.4282,0.3578 -0.6461,-0.135 -0.8941,-0.1097 -0.2846,0.029 -0.6722,0.8855 -0.8121,1.115 -0.182,0.2984 -0.4525,0.3731 0.0639,0.3015 0.302,-0.0419 0.4882,-0.0899 0.739,-0.265 0.193,-0.1346 0.3961,0.2834 0.7573,0.2011 0.7334,-0.167 0.5406,0.0519 0.0457,0.2924 -0.2869,0.1393 -0.1285,0.2784 0.073,0.393 0.5128,0.2918 -0.1773,0.3423 0.0365,0.7767 0.0611,0.124 0.3923,0.3699 0.3923,0.4296 0,0.2297 -0.2409,0.5183 -0.3102,0.7585 -0.0586,0.2028 -0.2914,-0.2352 -0.3741,-0.329 -0.574,-0.6506 -0.6478,0.5479 -0.6478,0.987 0,0.1938 0.1403,0.7757 0.0547,0.9047 -0.144,0.2173 -0.6091,0.3574 -0.8486,0.5026 -0.111,0 -0.2032,-0.4102 -0.3193,-0.5026 -0.2406,-0.1917 -0.5767,0.0716 -0.5018,-0.3381 0.0611,-0.3337 -1.7236,0.3972 -0.8851,0.8407 1.817,0.9613 -0.3003,1.0272 -0.9307,1.7912 -0.3207,0.3886 0.6364,0.2461 0.6752,0.2559 -0.5464,0.1808 -2.1595,1.4034 -1.2409,1.9557 0.1733,0.1042 0.8635,0.1973 0.292,0.2741 -0.3756,0.0504 -0.7099,0.2194 -1.0858,0.2194 -0.291,0 -0.8161,0.985 -0.5383,1.2063 0.3571,0.2843 0.0977,0.5757 0.6204,0.5757 0.0569,0 -0.6397,0.4676 -0.7664,0.329 -0.3027,-0.3309 -0.301,-0.6598 -0.6296,-0.1005 -0.0864,0.2028 -0.3224,0.6511 -0.3376,0.8681 -0.0132,0.1872 0.4388,0.1426 0.5019,0.2194 0.1086,0.1324 -0.1669,0.0822 -0.219,0.0822 -0.4694,0 -1.3797,1.3067 -0.3467,0.9687 0.1206,-0.0395 1.1496,-0.0042 1.1496,0.1645 -0.3275,0.0809 -1.2166,0.0396 -1.4781,0.2285 -0.4353,0.3146 -0.5186,1.7788 -0.6022,2.2846 -0.0359,0.2173 -0.219,0.4349 -0.219,0.6398l0.0091 0.0091c0.1965,0 0.5708,-0.1347 0.7482,-0.2285 0.1254,-0.0662 0.5231,-0.4295 0.6205,-0.4295 0,0.3993 -0.5295,0.4794 -0.5931,0.9322 -0.2386,0 -0.5033,-0.3058 -0.7391,0.0274 -0.2504,0.3536 -0.3866,1.13 -0.5383,1.5535 0.2155,0.1083 -0.2149,1.1068 0.4379,0.6215 0.5698,-0.4235 0.0173,0.142 -0.1368,0.3838 -0.0804,0.1263 0.3278,0.3554 0.2463,0.3838 -0.3255,0.1133 -0.6021,0.1854 -0.666,0.6032 -0.0771,0.5037 -0.2728,0.9541 -0.5475,1.3982 -0.2019,0.3262 -1.1854,2.2943 -0.1825,1.2154 0.0955,-0.1028 0.7593,-0.6478 0.657,-0.4295 -0.1836,0.3918 -0.4225,0.5217 -0.6843,0.8408 -0.2395,0.2921 -0.4803,1.0527 -0.5475,1.4256 -0.1378,0.7647 0.3074,1.1241 1.0402,1.1241 -0.1013,0.033 -0.2378,0.1653 -0.3559,0.2193 -0.0317,0.1284 -0.2145,0.2299 -0.2281,0.3564 -0.0212,0.1982 0.0385,0.4187 0.1095,0.6032 0.1342,0.3491 0.3502,0.9659 0.6022,1.2337 0.1435,0.1524 0.4457,0.3553 0.4836,0.5757 0.0379,0.221 -0.0087,1.076 0.0547,1.1789 0.17,0.2762 0.9794,-0.2733 1.1406,-0.4021l-0.0639 -1.2611 0.0821 -1.8095c0.0523,-1.1556 0.3692,-2.1699 0.5735,-3.2625 0.1054,-0.314 0.0369,-0.6511 0.1825,-0.9778 0.1171,-0.2625 0.2176,-0.5364 0.292,-0.8134 0.1669,-0.6205 0.5416,-1.3209 0.8485,-1.8917 0.1802,-0.335 0.5631,-0.8296 0.6296,-1.1972 0.2334,-0.1663 0.3306,-0.4274 0.6569,-0.5117 0.2315,-0.0597 0.4133,-0.0915 0.5475,-0.3199 0.1911,-0.4971 -0.0956,-0.661 0.0456,-1.0326 0.1454,-0.383 0.6113,-0.8214 0.6113,-1.2063 0,-0.4256 0.069,-0.1349 0.365,-0.3108 0.3281,-0.1949 0.3742,-1.0273 0.7208,-1.1149l-0.5566 1.2337c-0.1408,0.312 -0.6387,0.6538 -0.6387,1.0144 0,0.2447 0.3082,-0.1011 0.3741,-0.1827 0.2263,-0.28 0.379,-0.6152 0.6022,-0.8774 0.3749,-0.4406 0.64,-0.9518 0.9946,-1.4165 0.4654,-0.6101 0.6397,-1.4667 1.1405,-2.0196 0.2656,-0.2933 0.8721,-0.7504 1.031,-1.0692 0.2299,-0.2953 0.2731,-0.7365 0.5018,-1.0418 0.2625,-0.3506 0.4595,-0.7974 0.6844,-1.1789 0.226,-0.3836 0.0725,-0.258 0.3832,-0.1006 0.1171,0.0594 0.2697,0.0701 0.3741,0.1463 0.1762,0.1285 -0.0282,0.5934 -0.0365,0.7768 -0.0235,0.5201 -0.1968,0.6924 -0.3468,1.124 -0.026,0.0751 0.0491,0.4295 0.0822,0.4295 0.0372,0 0.282,-0.5156 0.3102,-0.594 0.2064,-0.574 0.4744,-1.1509 0.4744,-1.7912 0,-0.6063 -0.4146,-0.1018 -0.6204,-0.3838 -0.1172,-0.1607 -0.1953,-0.1908 -0.1095,-0.4386 0.1517,-0.4376 0.3959,-0.8938 0.5383,-1.3526 0.0664,-0.2137 0.654,-0.3854 0.6387,-0.0457 -0.0196,0.4332 -0.1483,0.7899 -0.3193,1.1789 -0.0359,0.0817 -0.2529,0.7206 -0.1278,0.5849 0.1135,-0.1233 0.2445,-0.4448 0.3103,-0.6123l0.3376 -0.859c0.1355,-0.3449 0.3536,-0.6284 0.4576,-0.987 0.6814,-1.2808 1.3735,-2.6205 2.4362,-3.6189 0.1476,-0.1387 0.716,-0.7159 0.885,-0.7403 0.0455,-0.0679 0.353,-0.291 0.4289,-0.3472 0.1455,-0.108 0.1635,-0.2548 0.2737,-0.3656 0,-0.0647 0.0035,-0.0971 -0.0456,-0.1462 -0.8179,0 -1.2574,0.7806 -1.907,1.1241 -0.2017,0.1067 -0.4876,-0.1558 -0.4379,-0.3656 0.0806,-0.3408 0.268,-0.5585 0.4014,-0.8773 0.149,-0.3558 0.3894,-0.9917 0.6205,-1.3068 0.2334,-0.318 0.686,-0.2773 0.9672,-0.5118l0.0456 -0.0914c0.1559,-0.2688 0.0224,-0.3288 -0.0913,-0.5209 -0.0574,-0.0968 -0.0281,-0.4166 -0.0456,-0.5483 -0.1024,-0.7715 0.5308,-0.5709 0.9216,-0.9413 0.2891,-0.2741 0.3974,-0.3654 0.739,-0.5757 0.0698,-0.043 0.1032,-0.1114 0.1153,-0.1941l0 0zm-256.736 54.9439l11.8251 0 0.9033 0.2285 28.7506 -0.1507 1.4416 0.169 4.1333 -0.0092 6.5421 -0.0914 0.657 -0.8133 8.1753 0.064 -0.5109 0.9138 0 0c0.0761,0.0221 0.1414,0.0366 0.2189,0.0366 0.3138,0.1863 1.5797,-0.0004 1.9891,0.0091 0.8923,0.0207 1.9138,0.2458 2.8194,0.3656l1.1041 0.1462c0.253,0.0334 0.9702,-0.0141 1.1405,0.1188l0.338 0.0822 29.0883 0.7194 3.8956 0.2493 3.6771 0.0001 17.0715 0.1279 2.037 0.1687 21.1869 -0.1881 62.7368 -0.1478 0.7008 -0.2514 26.426 0.0616 0 0c-0.0572,-0.2169 -0.1065,-0.4343 -0.1199,-0.6574 -0.0202,-0.337 -0.3779,-0.746 -0.4471,-1.0966 0.1217,0.0402 0.4376,0.3371 0.5109,0.4569 0.2231,0.3649 0.2313,0.3441 0.6205,0.53 0.2683,0.1282 0.3296,0.4426 0.4125,0.7702l0 0 0.859 -0.0032 0 0c-0.1829,-0.2048 -0.3546,-0.4577 -0.3864,-0.5294 -0.1804,-0.4075 0.1421,-0.6395 0.0547,-0.9504 0,-0.7219 -0.2027,-1.2919 0.073,-1.9831 0.1096,-0.2748 0.7525,-1.2512 0.438,-1.4896 0,-0.0936 0.1263,-0.5271 0.1916,-0.5483 0.0217,-0.1545 0.0547,-0.222 0.0547,-0.393 -0.0539,-0.0359 -0.338,-0.3135 -0.3285,-0.3198l0 -0.0274c0.0965,-0.0965 0.9398,-0.3674 0.9672,-0.2559l0.5748 1.3525c0.1584,0.3729 0.3726,1.0847 0.2373,1.4805 0.0825,0.221 0.1613,0.6684 0.2007,0.9138 0.0687,0.4279 0.37,0.5336 0.4653,0.9048 0.0725,0.282 -0.1551,0.309 0.0548,0.6123 0.1524,0.2203 0.0249,0.7289 -0.0973,1.2348l0 0 0.8904 0.0129 0 0c-0.0709,-1.2622 -0.516,-2.4934 -0.8935,-3.6329 -0.3081,-0.9296 -0.9478,-1.8606 -1.0584,-2.833 -0.0043,-0.0378 -0.017,-0.2495 -0.0365,-0.2559 0,-0.0236 -0.0353,-0.1337 -0.0456,-0.1371l0 -0.0274c-0.0205,-0.0067 -0.0548,-0.0697 -0.0639,-0.0823 -0.0932,-0.1865 -0.2119,-0.3793 -0.2281,-0.594 -0.3452,-0.4934 -0.4759,-1.4712 -0.6478,-2.0562 -0.1938,-0.6597 -0.3419,-1.3599 -0.438,-2.0379 -0.0615,-0.4344 -0.219,-0.8964 -0.219,-1.3342 -0.0405,-0.0612 -0.0401,-0.2415 -0.0456,-0.3108 -0.1037,-0.3126 -0.0972,-0.6244 -0.3102,-0.9047 -0.2313,-0.3046 -0.488,-0.3568 -0.7482,-0.5849 -0.1375,-0.0151 -0.2844,-0.1794 -0.438,-0.0731 -0.1649,0.114 -0.2925,0.306 -0.4562,0.4295 -0.3828,0.2891 -0.6955,0.5118 -1.1861,0.5118 -0.8795,0 -1.5185,-0.5757 -2.418,-0.5757 -0.829,-0.0788 -2.0869,-0.6503 -2.7281,-1.1972 -0.3889,-0.3318 -1.9757,-0.6423 -1.2865,-0.2467 0.0466,0.0268 1.1908,0.0972 0.6478,0.4478 -0.6061,0.3915 -0.9106,-0.081 -1.3504,-0.4113 -0.7355,-0.5523 -0.3297,1.5549 -0.292,1.7364 0.1265,0.6096 0.0897,0.466 0.6478,0.466 0,0.2621 -0.6478,0.7026 -0.6478,1.0236 0,0.2976 0.6007,0.7433 0.5292,0.9595l-1.104 0 0.1095 -1.0601c0.0783,-0.7589 -0.2154,-0.3117 -0.2464,-0.859 -0.0146,-0.2574 -0.0394,-0.6199 -0.1186,-0.859 -0.045,-0.136 -0.9293,0.0377 -1.104,0.0731 -0.0594,0.2352 0.1488,0.8684 -0.1004,0.9321 -0.3763,0.0961 -0.8938,-0.2284 -1.2774,-0.2284 -0.4846,0 -0.4209,0.4375 -0.7208,0.7219 -0.3511,0.3328 -0.933,0.116 -1.2227,0.4752 -0.3523,0.437 -0.5444,1.1488 -1.0128,1.4622 -0.192,0.1285 -0.7778,0.2796 -0.8485,0.4935 -0.242,-0.0598 0.126,-0.5178 0.219,-0.5849 0.1866,-0.1349 0.4879,-0.1989 0.6113,-0.4112l0.7755 -1.3343c0.2662,-0.458 0.567,0.0921 0.6661,-0.4386 0.0941,-0.1892 0.2786,-0.606 0.1551,-0.7951 -0.1766,-0.2706 -0.3551,-0.1044 -0.593,-0.1645 0,-0.2392 0.2833,-0.2907 0.1551,-0.6123 -0.1973,-0.4945 0.1108,-0.1645 0.3741,-0.1645 0,-0.307 -0.3117,-0.8023 -0.6022,-0.9321 -0.4299,-0.192 -0.4612,-0.5955 -0.8942,-0.7859 -0.2952,-0.1299 -0.465,-0.3532 -0.6935,-0.5666 -0.3712,-0.3468 -0.5451,0.1122 -0.9763,0.1827 -0.264,0.0432 -0.5975,0.0089 -0.8668,0 -0.2341,-0.0078 -0.1619,-0.3223 0,-0.3655 0.3536,-0.0942 0.4737,0.1411 0.7209,0.2285 0.5466,0.1932 0.6676,-0.9862 0.1642,-1.1972 -1.2796,-0.5362 -2.2675,0.204 -2.7647,-1.4896 0.5249,-1.1992 0.6221,-1.508 0.146,-2.7142 -0.3034,-0.7689 0.5994,-1.6762 -0.3741,-2.1202 -0.0384,-0.0772 -0.1359,-0.1828 -0.2281,-0.1828 -0.5956,0.4516 -0.2623,1.8265 -1.3504,1.7912 -0.5108,-0.0166 -1.535,-1.0623 -1.834,-1.4713 -0.3428,-0.4687 -0.3586,-0.6671 -0.9762,-0.6671 -0.8038,0 -1.5555,0.3536 -2.3176,0.329 -0.295,-0.0095 -0.4892,-0.3022 -0.7391,-0.4661 -0.2236,-0.4112 -1.5425,-1.0784 -1.9982,-1.0784 -0.138,-0.3238 -0.3415,-2.2888 -0.7847,-2.3395 -0.6749,-0.0771 -1.3363,2.3728 -2.2628,0.5849 -0.6555,-1.2649 -0.4424,-0.2903 -1.5967,-0.5118 -0.5304,-0.1017 -0.7283,0.0356 -1.2227,0.2651 -0.5658,0.2625 -0.6321,-0.1018 -0.9945,-0.4387 -0.0837,-0.0777 -0.2326,-0.4569 -0.3011,-0.4569 -0.0965,0.3819 -0.7278,0.7939 -1.1132,0.6123 -0.357,-0.1681 -0.4475,-0.5592 -0.7391,-0.7768 -0.1489,-0.1112 -0.3101,0.4104 -0.4288,0.2559 -0.2178,-0.2837 0.0319,-0.5769 0.2007,-0.7586 0.5595,-0.6019 0.234,-0.4284 0.511,0.2011 0.2064,0.4693 1.401,-0.0939 1.8157,-0.0274 0.4184,0.0672 0.6834,0.4786 1.2318,0.5392 0.5311,0.0586 0.7187,-0.1102 1.1953,0.0365 0.1984,0.0611 0.2731,-0.2102 0.4471,-0.2102 0.4286,0 1.0399,-0.3707 1.2135,0.0457 0.172,0.4128 -0.071,1.5832 0.5292,1.3434 0.3525,-0.1409 1.3378,-1.2178 1.6424,-1.0509 0.3162,0.1734 0.5145,0.4973 0.4927,0.859 0,0.788 0.8174,1.3804 1.4416,1.7455 0.9449,0.5525 1.4174,-0.3015 2.0986,-0.7037 0.1672,-0.0988 0.0133,-0.2573 0.0365,-0.2285 0.0312,0.0385 0.1368,0.249 0.1368,0.3016 0,0.9615 0.7358,0.6287 1.5785,0.6671 0.9984,0.0454 1.2592,2.1347 2.2355,1.8917 0.4439,-0.1104 0.4113,-0.809 -0.0274,-0.8955 0.5017,0 0.7817,0.0669 1.3048,-0.0275 0.4602,-0.083 0.8999,-0.411 1.3686,-0.3015 1.05,0.2455 1.6134,1.6909 1.4325,2.6867 -0.2291,0.4609 -0.6111,0.926 -0.0091,1.3343 0.4834,0.328 1.0049,0.5501 1.2227,1.1332 0.0944,0.2526 0.7664,0.8312 0.7664,0.2924 0,-0.415 -0.3011,-0.8954 -0.3011,-1.2337l0 0c0.1364,0.4122 1.0219,1.1139 1.0219,1.5353 0,0.8795 0.9717,1.1609 1.6333,1.5901 0.9811,0.6363 1.2251,4.0253 2.5821,2.0197 0.2717,-0.4015 0.3167,-0.5639 0.8121,-0.6489 0.2546,-0.0597 0.8985,-0.6485 1.0128,-0.6214 0.3826,0.0908 0.384,1.0678 0.8303,0.4204 0.2983,-0.4329 0.5358,-1.5355 0.6478,-2.0654 0.09,-0.4255 0.5281,-1.1068 0.3194,-1.5261 -0.0585,-0.1174 -0.3074,-0.5918 -0.438,-0.4387 -0.3251,0.3814 -0.7204,0.3109 -1.031,0.5483 -0.2164,0.1655 -0.8786,1.1515 -1.0493,1.1515 0,-0.4315 0.4379,-0.5637 0.4562,-0.9504 0.021,-0.4418 -0.5724,-0.7528 -0.657,-1.0875 0.3545,0 0.6577,0.696 1.0037,0.4204 0.2956,-0.2353 0.7914,-0.2398 0.9946,-0.5118 0.4081,-0.546 -1.1864,-1.0842 -1.3596,-1.7546 -0.0662,-0.2565 -0.0325,-0.4055 -0.3284,-0.2742 -0.3062,0.1358 -0.567,0.4077 -0.7573,0.6671 -0.0479,0.0652 -0.5195,-0.296 -0.7756,-0.2558 -0.5302,0.0834 -0.0896,-0.225 -0.146,-0.5758 -0.031,-0.1934 0.1592,-0.0702 0.2829,-0.0914 0.0523,-0.0699 0.194,-0.2471 0.2737,-0.2924 0.0722,-0.5136 -0.7098,-0.811 -0.1551,-1.1698 0.9825,-0.6357 -0.8985,-0.2695 -1.1588,-0.2102 -0.4441,0.1011 -1.1556,0.262 -1.542,-0.0365l-1.2774 -0.987 -0.6935 -0.658c-0.5699,-0.5407 -1.5113,-0.3596 -2.0347,-1.2246l-1.6697 -2.7598c-0.1904,-0.6227 -0.951,-1.2777 -1.3778,-1.7455 -0.4883,-0.5354 -0.9845,-1.0704 -1.3504,-1.6998 -0.1897,-0.3262 -0.1973,-0.7691 -0.3193,-1.1241 -0.1817,-0.5283 -0.8484,-0.2508 -1.0767,-0.6397 -0.1815,-0.3093 -0.1256,-1.0904 -0.219,-1.4622 0.0787,0.1044 0.3485,0.4778 0.4836,0.393 0.1452,-0.091 0.1875,-0.3003 0.1095,-0.4569 -0.0117,-0.0237 0.0951,0.2355 0.1004,0.3289 0.0504,0.8872 0.6946,0.8638 1.2226,1.4348 0.4069,0.4402 0.4907,1.2262 0.8668,1.7272 0.4575,0.6092 0.8973,1.3212 1.6242,1.5627 0.2552,0.0848 0.2789,0.5633 0.2554,0.8591 0.3938,0.7311 1.7876,2.3943 2.5183,2.8147 0.8435,0.4854 2.228,1.5768 2.1077,2.6411 -0.0351,0.3102 0.7108,-0.1554 1.0585,-0.1554 0.3639,0 2.6662,-0.6012 2.7099,-0.7585 0.1302,-0.4675 -0.2067,-0.7454 -0.2281,-1.124 -0.0067,-0.1192 0.1505,-0.3883 0.1003,-0.457 -0.1081,-0.1482 -0.6674,0.1741 -0.7938,0.2102 -0.2347,0.0669 -0.4936,-0.1433 -0.8394,-0.0365 -0.2899,0.0896 -0.0435,-0.3809 -0.1095,-0.4935 -0.0331,-0.0563 -0.6721,-0.2833 -0.2007,-0.2833 0.3163,0 0.8159,0.2221 1.1131,0.1096 0.7063,-0.2673 -0.5936,-1.5079 -0.8029,-1.5079 -0.5417,0 -0.5991,0.3413 -0.6935,-0.466 -0.0332,-0.2836 -0.2646,-0.8105 -0.2646,-1.0236 0.2739,0.2065 0.489,0.5589 0.7117,0.7129 0.3362,0.2327 0.7265,0.2317 1.1497,0.5391 0.1582,0.1148 -0.0426,-1.5181 -0.1825,-1.5992 -0.4478,-0.2594 -1.0493,-0.22 -1.0493,-0.8865 0.3065,0.1036 0.5613,0.5972 1.0584,0.5209 0.5172,-0.0795 0.6666,0.092 0.7482,0.6123 0.0768,0.4891 1.3338,1.8321 1.5603,1.0053 0.1386,-0.5057 -0.1819,-1.1538 0.146,-0.6215 0.3032,0.4924 -0.0122,1.0306 0.4288,1.5536 0.2231,0.2645 1.5559,2.3495 1.5785,1.3068l0.0274 -1.2611c0.0093,-0.4318 -0.1613,-0.296 0.1825,-0.393 0.5657,-0.5657 0.6726,-1.1091 0.5018,-1.8642 -0.114,-0.5039 0.1346,-1.8369 -0.5383,-1.8369 -0.8993,0 -0.5411,-0.2085 -0.5657,-0.7494 -0.013,-0.288 -0.4309,-0.386 -0.3741,-0.6123 0.2594,-0.0641 1.1208,0.7086 0.7938,-0.0274 -0.0997,-0.2243 -0.5074,-0.9687 -0.7756,-0.9687 -0.0573,0.2317 -0.4363,1.0418 -0.7026,1.0418 -0.0801,0 -0.6583,-0.5646 -0.8576,-0.658 -0.2648,-0.1242 -0.338,-0.4437 -0.5475,-0.5574 -0.3306,-0.1793 -0.7213,-0.2323 -1.104,-0.2742 -0.537,-0.0587 -0.2349,-0.4422 0.1368,-0.3655 0.4898,-0.1635 1.1833,0.0472 1.7428,-0.064 0.1779,-0.0354 1.3777,-0.519 1.3777,-0.6306 0,-0.2682 -0.6969,-0.4079 -0.8942,-0.4843 -0.6706,-0.2597 -1.2277,-0.2214 -1.9252,-0.3473 -1.1069,-0.1997 -0.9538,-0.586 -1.3869,-1.3434 -0.8288,-0.2049 -2.0224,-0.0161 -2.9197,-0.1279 -0.5166,-0.0643 -1.0881,-1.0813 -1.4782,-1.4714 -0.3461,-0.3461 -0.5227,-0.4382 -0.1824,-0.7767 0,-0.1506 -0.1856,-0.3538 -0.2555,-0.5027 -0.1863,-0.4185 -0.3284,-1.0165 -0.3832,-1.4622 -0.0522,-0.0519 -0.1021,-0.1375 -0.1734,-0.1553 -0.1312,-0.1842 -0.5249,-0.2631 -0.584,-0.5575 -0.469,-0.3362 -0.927,-0.2527 -1.3595,-0.5209 -0.5351,-0.3317 -0.1954,-0.7993 -0.5201,-1.124 -0.2026,-0.2026 -0.7201,-0.116 -0.9854,-0.1463 -0.7005,-0.0802 -1.5653,-2.3308 -1.9252,-2.9243 -0.0296,-0.3613 -0.2465,-0.7412 -0.3102,-1.1332 -0.0583,-0.3594 -0.8149,-0.2836 -1.0676,-0.6672 -0.1536,-0.2333 -0.4105,-0.3792 -0.7025,-0.4112l-1.1314 -1.5079c-0.7039,-0.9381 -0.2765,-0.5211 -1.0493,-0.6763 -0.3973,-0.0798 -0.0606,-0.8413 -0.0365,-1.0418 0.0554,-0.461 -0.3848,-0.8387 -0.0274,-1.124 0,-0.1617 0.1011,-0.2878 0.1642,-0.4387 0.1047,0.4168 0.2105,0.8252 0.365,1.2337 0.2326,0.6145 0.2867,0.7644 0.9398,1.0784 0.5088,0.2447 0.4113,0.4099 0.6478,0.8773 0.1552,0.3066 0.1995,1.0529 0.6022,1.1515 0.5743,0.1405 0.9872,0.2541 1.3687,0.7768 0.3176,0.3196 0.5839,0.5153 0.5839,0.9961 0,0.4088 0.541,0.3506 0.584,0.5209 0.2217,0.0548 0.3821,0.8368 0.4653,1.0327 0.1095,0.2575 0.8839,0.9778 1.1862,0.9778 0.0717,0 0.5646,-0.1316 0.593,-0.0457 0.0183,0.0046 0.4167,0.7886 0.5749,0.923 0.384,0.3261 0.518,-0.52 0.7299,-0.1827 0.1729,0.275 0.1186,0.2446 0.1186,0.5209 0.3569,0.1163 1.0138,0.6517 1.3048,0.923 0.4603,0.4289 0.2623,0.9185 0.584,1.3525 0.2325,0.3135 0.4665,0.4869 0.6295,0.8682 0.202,0.2517 0.3923,0.3977 0.4562,0.7311 0.0506,0.2637 -0.0567,0.5705 0.0274,0.8316 0.0812,0.2525 0.7648,1.1531 1.0402,0.7768 0.2749,-0.3754 0.9112,-2.383 0.2463,-2.6046 0.2085,0.0524 0.5129,0.415 0.7391,0.4022 0.2726,-0.0154 0.1649,0.1903 0.0365,0.4021 -0.0976,0.1609 0.1317,0.2495 0.2099,0.3564 0.1956,0.267 -0.41,0.506 -0.3924,0.53l0.2829 0.3838c0.2509,0.3405 0.6402,0.3164 0.7938,0.5118 0.3326,0.4234 1.0267,0.6947 1.5511,0.7128 0.3026,0.0105 0.4687,0.5198 0.7117,0.7037 0.3033,0.2294 0.351,-0.2679 0.6478,-0.3473 0.404,-0.108 0.9285,-0.0467 1.3139,0.1005 0.5818,0.2224 0.7649,0.0569 0.3285,-0.4843 -0.5292,-0.6564 -0.3733,-0.4455 -0.9307,-0.0366 -0.4174,0.3063 -0.4653,-0.8988 -0.4653,-1.1332 0,-0.2363 -0.3265,-0.476 -0.0091,-0.5391 0.5117,-0.1017 0.1072,-0.2881 0.0547,-0.4935 -0.0251,-0.0986 0.5967,0.0353 0.7391,-0.0914 0.2004,-0.1785 0.0182,-0.7424 -0.0913,-0.9413 0,-0.1763 -0.3347,-0.4865 -0.2281,-0.5849 0.1776,-0.1641 0.5198,-0.006 0.4015,-0.3929 -0.1719,-0.5624 -0.1401,-0.7711 -0.0548,-1.3343 0.0293,-0.1934 0.4289,-0.3522 0.4289,-0.53 -0.4044,0 -0.6481,0.2092 -0.511,-0.3107 0.08,-0.3032 0.0966,-0.7479 0.0365,-1.051 -0.0479,-0.2411 -0.282,-0.4876 -0.3376,-0.7128 0.1617,0 0.3367,0.3216 0.4654,0.4112 0.1926,0.1343 0.4459,0.1606 0.6022,0.3564 0.4128,0.5175 0.8658,0.2567 1.0857,-0.3198 0.1213,-0.3178 0.5212,-2.4553 0.292,-2.5771 -0.4433,-0.2355 -1.0929,-0.7657 -1.4507,-1.1241 -0.4075,-0.2621 -0.7835,-0.7668 -1.2592,-0.8956l-1.5511 -0.4203c-0.8854,-0.2398 -1.3713,-1.063 -2.1533,-1.1789 -0.747,-0.1108 -0.2434,-0.4415 -0.5475,-0.8134 -0.1383,-0.1693 -1.3249,-0.7311 -1.5511,-0.7311 -0.3923,0 -0.5007,0.4844 -0.6935,0.4844 -0.3033,-0.9301 -0.3109,-1.0195 0.6296,-1.252 0,-0.9269 -1.6193,-2.0683 -2.3723,-2.4035 -0.2044,-0.4112 -0.175,-1.125 -0.4015,-1.5993 -0.1265,-0.2647 -1.1828,-0.5554 -0.9033,0.2559 0.0402,0.1169 0.2514,1.0365 0.0639,0.8682 -0.3802,-0.3414 -0.6001,-0.8237 -0.9672,-1.1698 -0.9756,-0.9201 -0.8957,-0.6513 -1.2774,0.2468 -0.2877,0.6768 -0.2929,0.4554 -0.6113,0.2559 -0.4506,-0.2825 -0.8756,-0.4974 -1.1953,-0.9505 -0.3891,-0.5517 -0.8415,-0.4098 -1.4416,-0.3015 -1.8532,0.3345 -2.5659,-1.4135 -4.1516,-1.6267 -0.1532,-0.0205 -0.8546,0.0148 -0.8759,-0.1737 -0.0237,-0.2087 0.5149,0.2128 0.3741,-0.3381 -0.0537,-0.2105 0.2007,-0.6703 0.2007,-0.9595 -0.0093,0.0156 -0.008,0.0275 -0.0091,0.0456 0,-0.3361 -0.1881,-0.649 -0.4106,-0.8864 -0.3667,-0.3911 -0.3727,-0.2053 -0.8577,-0.2833 -0.2719,-0.0438 -0.0157,-0.2024 -0.1459,-0.3838 -0.1637,-0.2278 -0.4194,-0.4119 -0.5931,-0.6397 -0.4348,-0.5704 -0.567,-0.3165 -1.1953,-0.4753 -0.1278,-0.2997 0.6503,-0.2244 0.8029,-0.2467 0.3933,-0.0577 0.4253,-0.2333 0.4927,-0.5849 0.0489,-0.255 0.195,-1.5602 0,-1.6998 -0.0439,-0.3553 -0.5305,-0.831 -0.885,-0.8042 -0.3162,0.024 -0.769,0.7776 -1.0584,0.9779 -0.3169,0.2192 -0.525,0.0731 -0.8577,0.0731 -0.6472,0 -0.8187,0.5927 -1.2227,0.658 -0.4616,0.3591 -0.8311,0.5666 -1.4325,0.5666 -0.5771,0 -1.0341,0.3564 -1.5693,0.3564 -0.329,0 -0.4912,-0.2325 -0.7939,-0.3107 -0.4956,-0.1279 -1.015,-0.0495 -1.4963,-0.1737 -0.2133,-0.0551 -0.2815,-0.2872 -0.4471,-0.329 0.1592,0 0.2636,0.123 0.4014,0.1462 0.129,0.0218 0.2013,-0.0579 0.3011,-0.0639 0.246,-0.0147 0.5225,-0.0392 0.7391,-0.1554 0.2009,-0.1001 0.0858,-0.2197 -0.0091,-0.3655 -0.1165,-0.1791 -0.263,-0.3722 -0.4015,-0.5392 -0.0935,-0.1128 -0.2481,-0.1681 -0.365,-0.2559 -0.4234,-0.3179 -0.9193,-0.8819 -1.1405,-1.3525 -0.0434,-0.0925 -0.1916,-0.225 -0.1916,-0.3107 0.2652,0 0.7187,0.3644 0.8394,0.5848 0.0841,0.1534 0.5657,0.9728 0.5657,0.4204 0,-0.2828 -0.1248,-0.5344 -0.2463,-0.7859 -0.2877,-1.2283 -0.1478,-1.7898 0.3376,-2.8878 0.0723,-0.1637 0.3558,-0.3461 0.3558,-0.5027 0,-0.4563 0.092,-0.2858 0.3832,-0.6031 0.4397,-0.4792 -0.1342,-0.2907 -0.2828,-0.7037 -0.0788,-0.2193 -0.2578,-0.5103 -0.3011,-0.7311 0.1068,0.3277 0.6022,0.3877 0.6022,0.8956 0.1664,0 0.1225,-0.4702 0.2007,-0.5757 0.1658,-0.2235 0.4289,-0.3939 0.5292,-0.658 0.0658,-0.1731 0.0315,-0.3839 0.0822,-0.5758 -0.1328,-0.3978 0.6659,-0.429 0.2098,-0.7585 -0.1762,-0.1274 0.2007,-0.8805 0.2007,-1.1514 0,-0.4305 -0.0741,-0.2463 0.4015,-0.3656 0.5378,-0.135 0.0993,-0.7632 0.0091,-1.0235 -0.0051,-0.0147 0.4319,0.2451 0.5475,0.265 0.2162,0.0371 0.5839,-0.1984 0.5839,0.1097 0,0.3725 -0.3526,0.5069 -0.4835,0.7676 -0.0988,0.1969 0.2606,0.6316 0.4744,0.6032 0.5221,-0.0693 0.7267,-0.151 1.0311,-0.5392 0.2855,-0.3643 1.2893,0.0957 0.9306,-0.393l-0.7846 -1.0692c-0.0645,-0.0878 -0.6723,-0.4987 -0.5201,-0.5392 0.3045,-0.0809 0.5009,-0.1051 0.6934,0.1371 0.2572,0.3238 0.697,0.2819 0.8942,-0.0731 0.2185,-0.3931 -0.1004,-0.5565 -0.1004,-0.8865 0.2433,0.1834 0.6606,0.348 0.9672,0.2194 0.2047,-0.0858 0.5738,-0.4801 0.6661,-0.4661 0.2315,0.035 0.4783,0.0847 0.7025,-0.0274 0.3256,-0.1627 0.1929,-1.9728 0.1187,-2.3578 0.0498,-0.4051 -0.2152,-0.6226 0.1733,-0.9778 0.2034,-0.1859 0.1933,-0.8897 0.146,-1.1515 -0.0339,-0.1881 -0.1264,-0.4193 -0.1095,-0.6032 0.0089,-0.0967 0.146,-0.0996 0.146,-0.2376 0,-0.1204 -0.0005,-0.2519 -0.0274,-0.3655 -0.092,-0.3873 -0.2919,-0.8007 -0.2919,-1.2063l0 0c-0.188,-0.0881 -0.2486,-0.4372 -0.4749,-0.5575 -0.5573,-0.2963 -1.5685,-0.3408 -1.7519,-1.0966 -0.0286,-0.1178 -0.0595,-0.2268 -0.0928,-0.3276l0 0c-0.4483,-1.3582 -1.3242,-1.25 -2.608,-1.4636 -1.3611,-0.2266 -1.3204,-0.8357 -1.3686,-1.9009 -0.0276,-0.6104 -1.0308,-0.5582 -1.4051,-1.0052 -0.7967,-0.9511 -2.0586,-0.6367 -3.23,-0.7494 -0.5028,-0.0484 -1.7098,-0.1137 -2.0621,-0.5118 -0.4932,-0.5571 -0.7248,-1.0477 -1.2591,-1.6084 -0.3676,-0.3856 -0.5459,-1.5883 -0.3832,-2.1201 0.2014,-0.6578 0.7866,-0.2577 1.1131,-0.7311 0.547,-0.7933 1.5241,-1.4955 0.4197,-2.175 -0.6942,-0.4272 -1.7457,-0.6712 -2.3175,-1.1332 -0.4866,-0.3933 -0.2145,-1.3313 -0.8577,-1.5536 -0.371,-0.1283 -0.9232,0.1756 -1.3686,0.0183 -0.7254,-0.2561 -1.2826,-0.7774 -2.0803,-0.6397 -0.1875,0.0324 -0.6687,-0.0205 -1.1535,-0.1219l0 0 -3.1897 7.9629 -15.7249 -12.9979c-0.0602,0.1994 -0.3289,0.5812 -0.4521,0.7703 -0.2163,0.3317 -0.5956,0.9086 -0.3102,1.2703 0.3031,0.3839 0.2713,0.6704 0.2189,1.0875 -0.0964,0.0691 -0.4744,0.617 -0.4744,0.7219 0,0.3325 0.8513,0.0535 0.958,0.4387 0.0687,0.2478 -0.4734,0.8004 -0.6022,1.0052 -0.0879,0.1483 -0.1884,0.2986 -0.3102,0.4204 -0.0454,0.1826 -0.498,0.7282 -0.6387,0.8773 -0.1921,0.2034 -0.7003,0.9844 -0.7664,1.2429 -0.0841,0.3284 0.3021,0.9692 -0.0548,1.2246 -0.2112,0.4769 -0.9372,0.8442 -0.3558,1.4256 0.0287,0.1159 0.3093,0.4657 0.4197,0.5209 0.2208,0.3545 0.1536,0.724 -0.2372,0.9687 -0.3601,0.4531 -0.5922,1.0103 -0.9763,1.4622 -0.452,0.5318 -0.5546,0.5892 -1.2044,0.8225 -0.8197,0.2942 -1.3357,1.442 -1.9526,2.0196 -0.8168,0.7647 0.1015,0.8269 -0.1278,1.2886 -0.1822,0.3667 -0.4955,0.695 -0.6478,1.1058 -0.2979,0.8037 -0.5954,0.9668 -1.2774,0.4752 -0.2739,-0.1975 -0.6915,0.7186 -0.9216,1.0052 -0.6594,0.5264 -1.1631,1.4192 -1.8431,1.8643 -0.3735,0.2445 0.0534,-1.7098 -0.7938,-0.8225 -0.9246,0.9682 -1.7814,1.5278 -2.2902,2.7965 -0.2764,0.6891 -0.5338,1.447 -0.9306,2.0745 -0.2563,0.4055 -0.7023,1.1607 -0.7938,1.6267l-3.9874 -3.1529c-0.1642,0.3099 -0.5509,0.6465 -0.7664,0.9504 -0.2256,0.3183 -0.3432,0.6426 -0.5292,0.9687 -0.5048,0.0638 -0.8694,0.0321 -0.8303,0.722 0.024,0.4227 -0.2577,1.0294 -0.4197,1.4165 -0.1253,0.2992 -0.3724,0.5271 -0.4927,0.8225 -0.1604,0.3941 0.1733,1.0985 0.1733,1.5535 0,0.792 -0.5225,0.8736 -1.1679,1.051 -0.0462,0.0043 -0.144,0.0036 -0.1825,0.0365 -0.0409,0 -0.1444,0.0351 -0.1733,0.064 -0.1202,0.0151 -0.3661,0.1893 -0.3832,0.3107l-0.0274 0.0274c-0.148,1.2037 -0.7134,2.6465 -1.4052,3.6464 -0.4655,0.6727 -0.2271,1.3475 -0.5292,2.0014 -0.1724,0.3733 -0.2291,0.7366 -0.5018,1.0783 -0.3357,0.4208 -0.7739,0.6444 -1.1314,1.0327l-1.3322 1.4256 -5.3194 -1.7181 -1.7701 -3.6828 -3.2209 -1.5627c-0.1094,-0.0212 -0.4667,-0.1068 -0.5292,0.0182 -0.2205,0.0629 -0.7066,1.7191 -0.5383,1.91 0.54,0.6121 0.1771,0.7156 -0.2555,1.0601 -0.7446,0.5931 -0.7618,1.7001 -0.4562,2.5405 0.1582,0.4353 -0.0263,0.9857 -0.3376,1.316 -0.409,0.4341 -0.5791,0.7395 -0.8668,1.2337 -0.108,0.1562 -0.0615,0.4552 -0.2099,0.5666 -0.1609,0.1209 -0.3609,0.1047 -0.5109,0.2194 -0.148,0.113 -0.5695,0.6814 -0.6752,0.8499 -0.2535,0.4037 -0.8851,0.6952 -0.8851,1.1789 0,0.5329 0.3464,0.8451 0.292,1.453 -0.3419,0.2927 -0.5981,0.8013 -1.0037,1.1149 -0.9215,0.7127 -2.8011,1.5378 -2.8011,2.8147 -0.1366,0.3009 -0.1362,0.6661 -0.3011,0.9962 -0.1139,0.2278 -0.4927,0.5304 -0.4927,0.7402 0.2708,0.3393 0.7554,0.8834 0.1551,1.1789 -0.3719,0.1831 -0.4032,0.6968 -0.5292,1.0509 -0.4702,1.3219 -1.3172,3.0757 -2.3997,3.9936l-0.876 0.722c-0.6808,0.5611 -1.2577,1.4362 -1.9526,1.9283 -0.5123,0.3629 -0.9698,0.2575 -1.25,0.8224l-0.7208 1.4531c-0.2446,0.4933 -0.901,1.0337 -1.0219,1.5444 -0.0622,0.2627 0.294,0.4978 0.073,0.7768 -0.1295,0.1634 -0.5131,0.339 -0.6935,0.4935 -0.016,0.1301 -0.1344,0.2786 -0.1916,0.393 -0.0074,0.2413 -0.2874,0.3314 -0.2372,0.594 0.0195,0.102 0.0481,0.2031 0.0639,0.3107 0.0173,0.117 -0.0233,0.213 -0.0365,0.3198l-0.0183 0.0275c-0.0891,0.0637 -0.1646,0.1591 -0.2555,0.2193 -0.1203,0.0795 -0.2111,0.2006 -0.3284,0.2741l-1.4234 1.1607 3.0201 2.3852 -0.2646 0.2924c-0.2324,0.3028 -0.6766,0.3896 -0.885,0.7128 -0.1194,0.1853 -0.2754,0.3536 -0.4198,0.5118 -0.122,0.1338 -0.2879,0.1723 -0.4562,0.2284 -0.2764,0.092 -0.5514,0.2143 -0.8303,0.3108 -0.1637,0.0567 -0.429,0.3464 -0.2098,0.5026 0.0431,0.1189 0.1003,0.1852 0.1003,0.3198 -0.1107,0.3559 -0.2098,0.5012 -0.2098,0.8956 0.3132,0.3941 0.7026,-0.6231 1.104,-0.3929 0.2937,1.1878 -1.5283,1.5688 -2.2354,2.0836l-2.6735 1.9465c-2.1242,1.5465 -0.7934,-1.3743 -2.4179,-1.6267 -0.9744,-0.1513 -3.0965,1.7521 -3.8596,2.3121l-1.7427 1.0693c-0.331,0.1975 -1.6098,0.9289 -1.9435,0.5666 -0.4105,-0.4455 -0.9075,-0.3166 -1.25,-0.7129 -0.1254,-0.145 -0.6063,-1.1487 -0.9033,-0.6762 -0.2476,0.3941 -0.2384,0.5501 -0.6843,0.7859 -0.2196,0.1162 -0.6608,0.0677 -0.4653,0.4295 0.1849,0.3424 0.9876,1.1842 0.3832,1.4988 -1.0606,0.5519 -1.5301,1.6658 -2.8286,1.846 -0.4932,0.0684 -0.7725,-0.3478 -1.25,-0.2011 -0.5056,0.1554 -1.0968,0.4107 -1.6241,0.4387 -0.7892,0.5436 -2.1961,-0.0309 -3.0201,0.4569 -0.7327,0.4336 -2.3483,2.3107 -3.1479,1.2246l-0.5383 -0.7311c-0.1596,-0.2169 -0.7355,-0.2978 -1.0037,-0.5666 -0.2624,-0.2628 -0.2855,-0.7869 -0.7208,-0.8407 -0.7124,-0.6246 -1.1163,-1.615 -1.9344,-0.4753 -0.6613,0.2415 -0.4544,0.6985 -0.7482,1.1881 -0.3505,0.5838 -0.9557,0.5613 -1.5146,0.8407 -0.4832,0.2421 -0.8285,-0.0432 -1.1405,0.4295 -1.1638,1.7627 -3.8553,2.2655 -5.8031,1.5719 -0.7062,-0.2515 -1.7932,-0.8393 -1.9708,-1.6267 -0.1077,-0.4779 -0.3647,-0.6669 -0.7482,-0.923 -0.5981,-0.3996 -0.4575,-0.3022 -1.0675,-0.2559 -0.2641,0.2056 -1.1526,-0.1042 -1.4599,-0.1553l-0.2281 -0.2468c-0.0488,-0.3879 -0.2696,-0.6629 -0.5201,-0.9504 -0.1311,-0.1268 -0.3486,-0.2609 -0.4562,-0.393 -0.3104,-0.1291 -1.2203,-0.9612 -1.2409,-1.2977l-0.1369 -2.2207c-0.3624,-0.5905 -0.3646,-0.7935 -0.9763,-1.2245 -0.3071,-0.2165 -1.0922,-0.8175 -0.7664,-1.252 0.1313,-0.06 0.3632,-0.1031 0.4653,-0.1828 0.4471,-0.0742 0.657,-0.5776 0.657,-0.9779l-0.5749 -0.9687 0 0 -12.244 10.7599c-0.9651,0.5506 -2.5553,0.4988 -3.6048,1.0382l-1.7245 0.8864c-0.5714,0.2937 -1.0546,0.8296 -1.6515,1.0784l-0.0456 0.0366c-0.1572,0.2162 -0.9243,0.8251 -1.1679,0.923 -0.1102,0.1211 -0.4037,0.3165 -0.5566,0.3929 -0.4211,0.2291 -1.5087,0.6475 -1.9709,0.6854 -0.2652,0.3201 -0.4106,0.214 -0.4106,0.7494 0,0.6141 0.1329,1.4004 0.0639,1.974 -0.022,0.1829 -0.3724,0.3117 -0.5018,0.4752 -0.3478,0.4397 -0.3096,0.7477 -0.9216,0.9687 -0.8678,0.3135 -1.6234,0.3247 -2.3632,0.9138 -0.8209,0.6538 -0.4106,0.8237 -0.4106,1.6633 0.07,0.3969 -0.0106,0.5567 -0.0547,0.9138l-0.3193 0.329c0,0.9057 -0.0676,1.2159 -1.0128,1.5536l-2.0713 0.7402c-0.5764,0.2059 -0.7492,0.4924 -1.4051,0.2742 -0.8116,-0.2701 -1.4298,-0.1607 -1.9708,0.5483 -0.1998,0.262 -0.2798,0.5378 -0.4106,0.8316 -0.1555,0.3495 -0.4665,0.6675 -0.6114,1.0144 -0.4772,0.4986 -0.3077,1.0347 -0.593,1.6085 -0.7053,0.3203 -1.5141,0.0924 -2.1807,0.4752 -1.0279,0.5901 -2.8505,0.9631 -4.0238,1.1697 -0.6605,0.1162 -1.1057,0.5444 -1.6515,0.8773l-1.7975 1.0967c-0.3073,0.1978 -1.3567,-0.1268 -1.6971,-0.2102 -1.0507,-0.2573 -1.6575,0.2764 -2.5639,0.7037l-2.5001 1.1788 -0.0821 0.1463 -0.1643 0.4386 0 0z"/>
 </g>
</svg>
