<?xml version="1.0" encoding="UTF-8"?>
<!DOCTYPE svg PUBLIC "-//W3C//DTD SVG 1.1//EN" "http://www.w3.org/Graphics/SVG/1.1/DTD/svg11.dtd">
<!-- Creator: CorelDRAW -->
<svg xmlns="http://www.w3.org/2000/svg" xml:space="preserve" width="297mm" height="210mm" style="shape-rendering:geometricPrecision; text-rendering:geometricPrecision; image-rendering:optimizeQuality; fill-rule:evenodd; clip-rule:evenodd"
viewBox="0 0 297 210"
 xmlns:xlink="http://www.w3.org/1999/xlink">
 <defs>
  <style type="text/css">
   <![CDATA[
    .str2 {stroke:#2F3133;stroke-width:0.1}
    .str1 {stroke:black;stroke-width:0.1;stroke-opacity:0.501961}
    .str0 {stroke:black;stroke-width:0.1}
    .str3 {stroke:black;stroke-width:0.5}
    .fil5 {fill:none}
    .fil0 {fill:white}
    .fil2 {fill:#1F1A17;fill-rule:nonzero}
    .fil3 {fill:#C2C1C1;fill-rule:nonzero}
    .fil4 {fill:white;fill-rule:nonzero}
    .fil6 {fill:black;fill-rule:nonzero}
    .fil1 {fill:white;fill-rule:nonzero;fill-opacity:0.501961}
   ]]>
  </style>
 </defs>
 <g id="Plan_x0020_1">
  <metadata id="CorelCorpID_0Corel-Layer"/>
  <path class="fil0 str0" d="M77.446 20.7958c0.1012,0.2858 0.5741,1.4218 0.5234,1.49 -0.5394,-0.4067 -1.7836,0.2193 -2.3267,0.2193 -0.1748,-0.5285 0.02,-1.1394 -0.0213,-1.7177l0 0 1.8246 0.0084 0 0zm-1.1829 14.9878c0.2518,0 0.5735,-0.2969 0.7482,-0.4569 0.1047,-0.096 0.1803,-0.3916 0.3194,-0.4021 0.1875,-0.0141 0.37,-0.0351 0.5566,-0.0823 0.0755,-0.019 0.4197,-0.1756 0.4197,-0.0365 0,0.2363 -0.0333,0.4694 -0.0183,0.7037 0.0114,0.1792 0.0988,0.359 0.1095,0.5483 0.0139,0.2474 -0.3083,0.5885 -0.5018,0.7219 -0.1198,0.0825 -0.2645,0.2116 -0.3924,0.2651 -0.046,0.0193 -0.3653,0.1384 -0.3741,0.1644 -0.0989,-0.0739 0.5083,-0.8076 0.0913,-0.9778 -0.3876,-0.1583 -0.7849,-0.0608 -1.1406,-0.329l0.1825 -0.1188zm-3.3851 1.1423c-0.1938,0.1496 -0.538,0.0985 -0.7573,0.0275 -0.0723,-0.0233 -0.2555,-0.1217 -0.2828,-0.2011 -0.0818,-0.2381 -0.0433,-0.2833 -0.3103,-0.2833l-0.8668 0c-0.6746,0 0.5324,0.7736 0.6843,0.8773 0.1509,0.1029 0.3222,0.1685 0.4563,0.2925 0.0638,0.0589 0.4157,0.3738 0.4835,0.1645 0.0543,-0.1675 -0.059,-0.2647 0.1734,-0.3199 0.4737,-0.1124 1.1215,0.4021 1.6424,0.4021 0,-0.1208 -0.7294,-0.6661 -0.8577,-0.7951l-0.365 -0.1645zm-1.0401 4.277c0.082,-0.1096 0.1145,-0.26 0.1551,-0.393 0.061,-0.2003 0.2378,-0.5329 0.3832,-0.6854 0.0331,-0.0348 0.3703,-0.4017 0.4106,-0.2376 0.0759,0.0251 0.0456,0.3467 0.0456,0.4295 0,0.065 -0.0091,0.1254 -0.0091,0.1919 0,0.1276 0.0354,0.1914 -0.0274,0.3107 -0.0554,0.1051 -0.1095,0.1386 -0.1095,0.2742 0,0.1957 0.0793,0.3936 -0.1186,0.5392 -0.2533,0.1862 -0.2634,-0.3306 -0.3285,-0.4387l-0.0182 0c-0.0152,0.0622 -0.0066,0.1334 -0.0091,0.2011 -0.0035,0.0952 -0.0487,0.1419 -0.0639,0.2193 -0.0639,0.0158 -0.1364,0.0542 -0.2099,0.0274 -0.0766,-0.0278 -0.1182,-0.1645 -0.1551,-0.1736l0.0548 -0.265zm6.3961 5.4375l0 -0.0549c-0.1137,-0.0946 -0.2145,-0.3895 -0.3467,-0.4843 -0.0297,-0.2365 -0.0737,-0.8912 0.0456,-1.0692 0.474,-0.0685 1.7539,0.1426 1.6058,-0.6306 -0.1538,-0.8035 -1.0422,0.0791 -1.2135,-0.1188 -0.283,-0.3267 -0.1103,-0.6186 -0.1368,-0.9687 -0.0588,-0.7772 -0.8427,-0.4781 -1.2318,-0.9596 -0.2108,-0.261 -0.3825,-0.579 -0.6296,-0.8133 -0.2898,-0.2747 -0.969,-0.3978 -1.1497,-0.6854 -0.2388,-0.3799 0.3356,-0.7449 0.2464,-1.1058 -0.4171,-0.2488 -1.3883,0.3787 -1.7519,-0.1279 -0.1412,0 -0.5881,0.9383 -0.6478,1.1332 -0.0294,0.1626 -0.0677,0.3818 -0.0456,0.5391 0.2055,0 0.6843,-0.6496 0.6843,-0.3198 0,0.5088 -0.1807,0.5662 -0.5931,0.6762 -0.1544,0.0411 -0.2346,0.4871 -0.3102,0.6306 -0.4107,0.7799 0.4653,0.8465 0.4653,1.38 0,0.4673 -0.26,0.7039 0.0822,1.188 0.3893,0.5505 0.9235,1.088 1.4507,1.5079 0.2112,0.1681 0.5913,0.3288 0.8395,0.4478 0.1504,0.072 0.2937,-0.0183 0.447,-0.0183 0.1778,0 0.2295,0.1916 0.3833,0.2559 0.1042,0.1358 0.2149,0.1964 0.3376,0.3015 0.2225,0.1904 0.1672,0.4104 0.52,0.4935 0.2204,0.0518 0.4506,0.0455 0.6752,0.0731 0.5626,0.0693 1.1512,0.2833 1.6972,0.2833 0.0794,-0.1191 0.1905,-0.2169 0.0821,-0.3929 -0.0964,-0.1563 -0.0963,-0.4347 -0.2099,-0.5483 -0.0339,0.0084 -0.1049,0.2865 -0.2098,0.3564 -0.1757,0.1173 -0.5652,0.0042 -0.7209,-0.1006 -0.0829,-0.0557 -0.1941,-0.1581 -0.2372,-0.2558 -0.0436,-0.0991 -0.0173,-0.2364 -0.0912,-0.329l-0.0365 -0.2833zm-4.0512 -7.9324c-0.1,0.0186 -0.4141,-0.1207 -0.5201,-0.1736 -0.1812,-0.0906 -0.4072,-0.2183 -0.6204,-0.1645 0,0.1662 0.8317,0.4857 0.9945,0.594 0.2681,0.1785 0.656,0.3131 0.9672,0.2102 0,-0.0865 -0.3155,-0.3164 -0.4015,-0.3656l-0.4197 -0.1005zm3.3212 1.1332c0,-1.0406 0.9465,-2.0773 1.6059,-2.8147 0.3137,-0.3507 0.8062,-0.6285 1.0584,-0.9779 0.2578,-0.357 -0.0738,-0.7152 0.4745,-0.6945 0.9375,0.0354 1.8204,-0.4151 2.7738,0.2285l2.0438 1.3799 0.7299 0.4935c0.5805,0.3924 0.6981,0.155 0.4015,0.8225 -0.3281,0.7383 -1.4736,0.7931 -1.6697,1.581 -0.1066,0.4287 -0.0693,0.208 0.0182,0.6488 0.0748,0.3773 -0.1669,0.0349 -0.3923,0.1097 -0.1267,0.0421 -0.3622,0.3087 -0.5019,0.0822 -0.1105,-0.179 0.0021,-0.433 -0.0821,-0.6397 -0.0897,-0.2204 -0.6223,-0.2745 -0.8029,-0.7402 -0.1229,-0.3171 -0.0894,-0.4974 -0.4106,-0.6214 -0.4142,-0.1598 -0.3781,-0.8113 -0.4106,-1.2246 -0.0343,-0.4373 -0.283,-0.8269 -0.3376,-1.2155 -0.0193,-0.0038 -0.0197,-0.0027 -0.0274,-0.0183l-0.0273 0c-0.0038,0.0152 -0.0463,0.0711 -0.0548,0.0732 -0.0049,0.0299 -0.038,0.0421 -0.0456,0.0731 -0.6816,0 -0.7448,0.0234 -0.4745,0.6031 0.168,0.3602 0.0877,0.7688 0.3194,1.1241 0.2263,0.3472 0.5218,0.4839 0.7117,0.8864 0.1514,0.3207 0.7258,1.2904 0.593,1.5902 -0.2361,0.5333 -0.343,0.8114 -0.9306,0.6945 -0.5911,-0.1175 -1.9126,0.1281 -2.1442,-0.658 -0.079,-0.2684 0.2565,-1.0583 -0.0822,-1.1789 -0.4397,-0.1565 -0.6502,-0.2171 -0.8029,-0.6854 -0.637,0 0.4106,1.7293 0.4106,2.0197l-0.0091 0.0183c-0.1609,0.0397 -0.2988,-0.0077 -0.438,0.0274 -0.0114,0.0464 -0.0182,0.0663 -0.0182,0.1188l-0.0092 0.0182c-0.2497,0.0631 -1.1362,0.4637 -0.5565,-0.1736 0.4431,-0.487 0.0897,-0.4427 -0.0639,-0.9139l-0.0365 0c-0.0702,0.2857 -0.5284,0.7279 -0.7664,0.3108l-0.0457 -0.3473zm0.5566 1.6541c0.5062,0.1441 0.7668,-0.2218 1.2227,-0.2924 0.2582,-0.04 0.451,0.0899 0.666,0.2101 0.1424,0.0797 0.3796,0.2385 0.4198,0.4021 0.0311,0.1264 0.0986,0.3043 0.2646,0.2742 0.2545,-0.0461 0.1699,-0.4842 0.4379,-0.5666 0.1241,-0.0382 0.4931,0.1209 0.6296,0.1554l0.0182 0.0182c0,0.2523 -0.067,0.3873 -0.2463,0.5666 -0.2741,0.2741 -0.7598,0.0818 -0.7938,0.6123 -0.0219,0.3412 -0.3122,0.471 -0.6205,0.457 -0.27,-0.0122 -0.4797,-0.1645 -0.7755,-0.1645 -0.72,0 -0.185,-0.5914 -0.4106,-0.8956 -0.091,-0.1228 -0.2749,-0.1867 -0.4106,-0.2285 -0.2072,-0.0637 -0.2256,-0.1713 -0.365,-0.3107l-0.0365 -0.2376zm7.2264 0.2376c-0.021,-0.0111 -0.0409,-0.0212 -0.0638,-0.0274 -0.3508,-0.4902 -0.6717,-0.1977 -1.0676,0.0274 -0.0216,0.0875 -0.0869,0.174 -0.1095,0.265 -0.1116,0.4499 0.0704,0.9075 0.3285,1.252 0.1592,0.2124 0.049,0.4963 0.1642,0.7403 0.1479,0.3136 0.277,0.2148 0.5384,0.0639 0.2174,-0.1254 0.4219,-0.362 0.6296,-0.5117 0.2517,-0.1815 0.4719,-0.488 0.3193,-0.7951 -0.1088,-0.2192 -0.4259,-0.4086 -0.4653,-0.6489l-0.2738 -0.3655zm3.3121 -0.4752c-0.0933,-0.2187 0.0447,-0.5078 -0.2372,-0.6032 -0.1225,-0.0415 -0.2184,-0.0558 -0.3285,-0.1279 -0.0709,-0.0463 -0.1572,-0.0761 -0.2372,-0.0914 -0.147,-0.0281 -0.2344,0.6834 -0.3467,0.8042 -0.1264,0.136 -0.279,0.143 -0.4289,0.2468 -0.0988,0.0683 -0.1328,0.2122 -0.0364,0.2924l0 0.064c0.0201,0.1077 0.0425,0.5295 0.0912,0.5848 0.067,0.0759 0.1689,0.1033 0.2646,0.128 0.1289,0.0332 0.1508,0.0701 0.2372,0.1279 0,0.1217 -0.0552,0.2187 -0.1003,0.3382 -0.051,0.1348 0.0029,0.1861 0.0182,0.3107 0.1015,0.0577 0.0639,0.2667 0.0639,0.3655 0,0.3218 0.4675,0.0836 0.6569,0.0548 0.207,-0.0314 0.734,-0.0607 0.8851,-0.1736 0,-0.2306 -0.4591,-0.2972 -0.4197,-0.594 0.0208,-0.1574 0.9334,-0.5838 0.6022,-0.7494 -0.3631,-0.1814 -0.6387,-0.2369 -0.6387,-0.7037l-0.0457 -0.2741zm1.0037 -1.3891c-0.0753,-0.0441 -0.1723,-0.2992 -0.2372,-0.393 -0.0466,-0.0675 -0.0968,-0.2493 -0.2007,-0.2376 -0.037,0.0042 -0.0617,0.0823 -0.1004,0.1097 -0.2314,0.1643 -0.511,0.2509 -0.7665,0.3838 -0.2666,0.1388 -0.0217,0.2402 0.146,0.3016 0.1341,0.049 0.333,0.06 0.4471,0.1371 0.1462,0.0987 0.3225,0.1482 0.4927,0.201 0.2388,0.0742 0.2373,-0.111 0.2373,-0.2924l-0.0092 0.0183 -0.0091 -0.2285zm-4.3705 4.6881c-0.1556,0 -0.3368,0.0575 -0.4927,0.0823 -0.148,0.0236 -0.3125,0.0011 -0.4562,0.0274 -0.2225,0.0408 -0.1859,0.2325 -0.3559,0.3656 -0.1081,0.0845 -0.2121,0.2044 -0.0821,0.3015 0.2146,0.1601 0.4425,0.2611 0.6022,0.4844 0.068,0.095 0.073,0.3043 0.073,0.4295 -0.014,0.0046 -0.0091,-0.0001 -0.0091,0.0183 -0.0158,0.0051 -0.0274,0.0209 -0.0274,0.0457 -0.019,0.0062 -0.0146,0.0287 -0.0274,0.0457 0.0872,0.0648 0.3803,-0.2696 0.4654,-0.329 0.1418,-0.0989 0.2943,-0.1872 0.4106,-0.3107 0.2273,-0.2416 -0.0647,-0.2476 -0.1187,-0.457 -0.0466,-0.1805 0.1825,-0.2944 0.1825,-0.5026l-0.1642 -0.2011zm-2.3176 -1.6632l-0.0456 -0.1279c-0.1401,-0.0354 -0.5839,0.9151 -0.5839,0.1919 0,-0.1139 -0.1113,-0.7697 -0.146,-0.6489l-0.1734 0.6032c-0.2025,0.7046 -0.7285,0.2885 -0.8942,0.4935 -0.0414,0.0513 0.1529,0.671 0.1186,0.8499 -0.0676,0.3527 -0.4283,0.4141 -0.5657,0.7585 -0.2009,0.5038 -0.2996,1.4107 -0.2007,1.9557 0.0422,0.2324 -0.0421,0.6199 0.0547,0.8224 0.108,0.2262 0.4784,0.0535 0.6661,0.1737 0.1403,0.0897 -0.0121,0.4962 0.1095,0.5574 0.0765,0.0386 0.4705,-0.1096 0.6296,-0.0822 0.296,0.0509 1.0295,-0.036 1.0037,0.393 -0.0155,0.258 -0.8668,-0.2429 -0.4745,0.1279 0.383,0.3619 -0.0967,0.3228 -0.219,0.53 -0.1826,0.3091 -0.0043,0.3585 0.3011,0.393 0.5819,0.0659 1.1439,-0.8189 1.5694,-0.4752 0.4605,0.3721 0.5149,0.2801 0.9398,-0.1828 0.047,-0.0513 -0.2333,-0.1834 -0.2737,-0.2559 -0.1547,-0.278 0.2775,-0.4379 0.3649,-0.6671 0.1015,-0.2659 -0.6571,-0.2742 -0.6295,-0.6671 0.0114,-0.162 0.1551,-0.2854 0.1551,-0.4752 0,-0.1387 -0.1551,-0.2643 -0.1551,-0.4021 -0.0183,0 -0.3539,0.6707 -0.3285,0.7859 0.0602,0.2732 -0.2222,0.8225 -0.5384,0.8225 -0.365,0 -0.0229,-0.4131 -0.3284,-0.5483 -0.3833,-0.1698 -0.0494,-0.4781 -0.0365,-0.7768 0.0272,-0.628 -0.5384,-0.8875 -0.5384,-1.3526 0,-0.3773 0.3744,-0.5917 0.2829,-1.0052 -0.1251,-0.5656 0.7228,-0.7366 0.4745,-0.9596 -0.1596,-0.1432 -0.4512,-0.0914 -0.657,-0.0914 -0.4055,0 0.0135,-0.3109 0.0548,-0.4752l0.0638 -0.265zm8.3031 -0.2467c-0.3177,-0.0911 -0.628,-0.4216 -0.7847,-0.7037 -0.1205,-0.2167 -0.1756,-0.6123 -0.4653,-0.6123 -0.0104,0.014 -0.0137,0.0228 -0.0274,0.0365 0,0.2134 0.0138,0.5008 0.073,0.7037 0.0498,0.171 0.146,0.3419 0.146,0.5301 0,0.1102 -0.137,0.2623 -0.2007,0.3655 -0.1428,0.2316 -0.0682,0.5803 -0.0183,0.8408 0.0457,0.2391 -0.0143,0.5199 0.1916,0.6945 0.2384,0.202 1.0144,-0.3608 1.2774,-0.4112 0.5022,-0.0962 0.6116,0.2283 1.0311,0.3107 0.053,-0.071 -0.014,-0.4876 -0.0274,-0.5757 -0.0173,-0.1128 0.0513,-0.5008 -0.0912,-0.5209 -0.0509,-0.0712 -0.3256,-0.1053 -0.4198,-0.1371 -0.179,-0.0606 -0.3307,-0.1562 -0.4744,-0.2651l-0.2099 -0.2558zm-0.1004 -5.1177c-0.0754,-0.3296 -0.6478,-1.0834 -0.9671,-1.2429 -0.2616,-0.1308 -0.6298,-0.3705 -0.7208,-0.6671 -0.0946,-0.3079 -0.2426,-0.3551 -0.4289,-0.5574 -0.2001,-0.2171 -0.3537,-0.7312 -0.4653,-1.0053 -0.0623,-0.1532 -0.6714,-0.6397 -0.8121,-0.6397 0,0.3169 -0.3115,1.5342 0.0821,1.5718 0.6251,0.0596 1.003,0.5224 1.1953,1.0876 0.2539,0.7466 0.8639,1.5592 1.4234,2.1201 0.1328,0.1332 0.339,0.0646 0.4836,0.2011 0.0195,0.0183 0.3603,0.6672 0.4288,0.4021 0.0691,-0.2678 -0.0273,-0.675 -0.0273,-0.9687l-0.1917 -0.3016zm-8.6863 -4.1215c-0.0152,-0.2162 0.0913,-0.393 0.0913,-0.6123 -0.0383,-0.0492 -0.0321,-0.1145 -0.0821,-0.1645 -0.0644,-0.0644 -0.2393,-0.1082 -0.3285,-0.128 -0.1311,-0.029 -0.2677,-0.0416 -0.4015,-0.0731 -0.1032,-0.0242 -0.1882,-0.0713 -0.292,-0.0914 -0.2368,-0.0458 -0.2486,0.1878 -0.2919,0.329 -0.0403,0.1312 -0.174,0.223 -0.2099,0.3747 -0.0412,0.1736 0.3354,0.3943 0.4653,0.4387 0.108,0.0368 0.1699,0.1377 0.2647,0.1736 0.1871,0.0707 0.3625,-0.0242 0.5474,-0.0548l0.2372 -0.1919zm17.2084 39.4882c0.383,-0.5125 0.0926,-1.4001 -0.2007,-1.8551 -0.4037,-0.626 -0.1551,-1.1294 -0.1551,-1.8643 0,-0.5417 -0.4527,-0.3851 -0.876,-0.4844 -0.4347,-0.1021 -1.4287,-0.5788 -1.6515,-0.9687 -0.2207,-0.386 -0.3768,-0.6827 -0.6843,-1.0052 -0.2963,-0.3109 -0.4168,-0.9608 -0.812,-1.0327l-1.3048 -0.2376c-0.0104,0.014 -0.0137,0.0228 -0.0274,0.0365 0,0.7493 0.4543,1.0907 0.3559,1.8917 -0.0541,0.4405 0.2542,2.0413 -0.4289,2.2116 -0.0614,0.0866 -0.1722,0.0457 -0.2555,0.0457 -0.0115,-0.0154 -0.0158,-0.0303 -0.0273,-0.0457 0,-0.5773 0.3915,-1.6538 -0.146,-2.0379 -0.0448,-0.3191 0.2075,-0.8514 -0.1551,-1.0327 -0.3366,-0.1682 -0.5598,-0.745 -0.6387,-1.0966 0,-0.282 0.3011,-0.4565 0.3011,-0.8408 0,-0.3402 -0.1734,-0.6119 -0.1734,-0.859 0,-0.2494 0.0454,-0.4068 -0.1004,-0.6306 -0.2041,-0.313 -0.3467,-0.3877 -0.3467,-0.7859 0,-0.4508 -0.1278,-0.8836 -0.4106,-1.2337 -0.3471,-0.4295 -0.5262,-0.9695 -0.8941,-1.4257 -0.4262,-0.5287 -1.6185,-0.2568 -2.1716,-0.1645 -0.2741,0.0458 -0.4203,0.2507 -0.657,0.3564 -0.4876,0.2179 -0.5607,-0.4764 -0.8668,-0.6945 0,-0.564 2.3426,-0.1085 2.5822,-1.1698 0,-0.2022 0.078,-0.4254 0.0182,-0.6214 -0.0523,-0.1716 -0.2919,-0.3082 -0.2919,-0.4843 0,-0.3103 0.4615,-0.6946 0.7573,-0.6946 0,0.3507 0.2318,0.4844 -0.2737,0.4844 -0.1109,0.439 0.8394,0.9688 0.8394,-0.0549 0,-0.7075 0.6286,-0.985 1.2683,-0.6123 0.3766,0.2195 0.6794,0.7921 0.9763,0.6854 0.1929,-0.0694 0.361,-0.061 0.5748,-0.0731 0.6647,-0.0377 1.1691,-1.0902 0.7938,-1.6449 -0.5973,-0.8827 -1.5777,-1.8274 -2.6278,-2.0928 0,-0.186 0.2776,-0.5991 0.3285,-0.8499 0.056,-0.2762 -0.0012,-0.7467 -0.0639,-1.0144 -0.0842,-0.3589 -0.3253,-0.167 -0.5109,-0.3838 -0.3326,-0.3883 -0.0909,-0.344 -0.657,-0.1554 -0.526,0.1753 -0.9339,0.1097 -1.4599,0.1097 -0.2291,0 -0.1678,1.4651 -0.2646,1.7455 -0.2594,0.7517 -0.9181,1.8722 -1.3777,2.5223 -0.4171,0.5898 -0.5019,0.6122 -0.5019,1.3982 0,0.653 -0.7593,0.8319 -0.8029,1.4073 -0.0783,0.1992 -0.2169,0.9337 -0.3559,1.0327 -0.0493,0.272 -0.5774,0.8948 -0.0638,1.1515 0.418,0.209 0.453,0.1458 0.7482,0.5483 0.3101,0.4226 1.1851,0.4646 1.6058,0.9504 0.4444,0.513 0.26,0.9755 0.3741,1.5536l0.0091 0.0091c0.1045,0 0.3495,-0.247 0.4471,-0.3107 0.5307,-0.3468 1.6057,-0.0726 1.8796,0.4752 0.3391,0.6783 0.2714,1.5992 0.2099,2.3487 -0.0438,0.4567 -0.4757,1.1176 -0.4288,1.4439 0.777,0.5571 0.9318,1.3212 0.3923,2.0471 0.0366,0.1858 0.4266,0.5716 0.5383,0.795 0.2559,0.5121 1.4347,0.1789 1.542,0.9961 0.0541,0.4127 -0.3247,0.4923 -0.3011,0.9322 0.0592,1.1035 1.412,-0.2821 1.7975,-0.4295 0.8099,-0.3095 1.6923,0.7956 1.7519,1.5079 0,0.2118 0.0409,0.3732 -0.073,0.5483 -0.097,0.1489 -0.1544,0.2972 -0.1369,0.4752 0.1205,0.0859 0.2349,0.2477 0.3194,0.3747 0.0855,0.1283 0.0514,0.3034 0.1277,0.4478 0.1268,0.2402 0.7758,0.0544 1.0493,0.1188 0.2582,0.0607 0.4604,0.3655 0.7299,0.3655 0.7223,0 0.2357,-0.5529 0.219,-0.923 -0.0133,-0.2934 0.1585,-0.2295 0.3285,-0.3655 0.1882,-0.1504 0.0608,-0.3535 0.1825,-0.4752l0.1277 -0.3656zm1.4964 -3.1985c-0.0151,-0.0035 -0.0302,-0.007 -0.0456,-0.0092 -0.0066,-0.027 -0.0575,-0.0602 -0.0821,-0.0822 -0.0859,-0.0772 -0.1857,-0.1862 -0.2281,-0.2925 -0.0434,-0.109 -0.0394,-0.0822 -0.1369,-0.0822 -0.089,0 -0.1757,-0.0208 -0.2646,0 -0.0345,0.0081 -0.1475,0.0634 -0.1643,0.1097 -0.0249,0.069 0.1482,0.239 0.1917,0.2924 0.1346,0.1654 0.2505,0.3004 0.447,0.393 0.0784,0.037 0.1572,0.1014 0.2373,0.1279 0.1125,0.0372 0.1277,-0.0329 0.1277,-0.1279 -0.0353,-0.0296 -0.0365,-0.0706 -0.0365,-0.1188l-0.0456 -0.2102zm-5.9308 20.6808c-0.1814,-0.0162 -0.3677,0.0732 -0.4653,-0.1279 -0.0628,-0.1292 -0.0267,-0.2232 0.0091,-0.3564 0.0605,-0.2255 0.2147,-0.5686 0.1916,-0.7951 -0.015,-0.1477 -0.5486,0.0352 -0.6661,-0.0823 0.0676,-0.1353 0.4114,-0.1179 0.5019,-0.2833 0.1563,-0.2858 0.3025,0.0457 0.4106,0.0457 0,-0.1381 -0.088,-0.2901 -0.0365,-0.4295 0.0555,-0.1506 -0.0351,-0.2859 -0.1643,-0.3655 -0.3222,-0.1983 -0.6519,-0.4351 -0.3832,-0.8316 0.0952,-0.0956 0.3102,-0.1249 0.3102,-0.2833 0,-0.1748 -0.1665,-0.1925 -0.2372,-0.3199 -0.1127,-0.2027 0.0034,-0.66 0.0365,-0.8865 0.0361,-0.2463 0.0146,-0.5061 0.0548,-0.7493 0.059,-0.3562 -0.0831,-0.4016 -0.4106,-0.3199 -0.4961,0.1239 -0.7382,0.1093 -0.8942,-0.4021 -0.0784,-0.257 -0.2566,-0.0365 -0.4015,0.0914 -0.1693,0.1496 -0.2737,0.2016 -0.2737,0.4295 0,0.3061 -0.0251,0.5675 -0.073,0.8682 -0.0364,0.2291 0.1039,0.935 0.0182,1.0418 -0.1764,0 -0.2607,-0.3395 -0.4197,-0.2742 -0.1265,0.052 -0.4562,0.3398 -0.4562,0.4844 -0.0165,0.0054 -0.0117,0.0172 -0.0182,0.0457 0.0089,0.3168 0.1506,0.5365 0.2919,0.8042 0.2252,0.4264 0.3558,1.0153 0.3376,1.4987 -0.0147,0.3889 -0.1277,0.741 -0.1277,1.1424 0.1883,0.1346 0.1765,0.2271 0.4106,0.0183 0.1909,-0.1704 0.4364,-0.5464 0.7208,-0.3199 0.2335,0.1858 0.167,0.5334 0.3559,0.7494 0.0927,0.1132 0.1918,0.2058 0.2828,0.3198 0.1322,0.1658 0.23,0.1835 0.4288,0.1371 0.3243,-0.0758 0.5652,-0.2969 0.8942,-0.3655 0.0868,-0.0181 0.2116,0.0079 0.2646,-0.0732 0.0696,-0.1067 -0.1235,-0.1849 -0.146,-0.2741l-0.0182 0 -0.3285 -0.1371zm0.0639 2.1385c-0.0748,0.0056 -0.1513,0.0238 -0.2281,0.0365 -0.0767,0.0126 -0.3894,0.0235 -0.4197,0.0914 -0.0391,0.0878 0.0361,0.1964 0.0912,0.2559 0.0527,0.0571 0.0882,0.1182 0.1551,0.1645 0.087,0.0604 0.1428,0.1673 0.219,0.2376 0.0309,0.0286 0.0671,0.0758 0.1095,0.0822 0.027,0.004 0.0388,0.0165 0.0639,0.0183 0.0322,0.0024 0.0346,-0.0141 0.0638,-0.0183 0.02,-0.0528 0.0183,-0.0979 0.0183,-0.1553 0,-0.0785 0.0255,-0.1292 0.0456,-0.2011 0.02,-0.0712 0.0183,-0.1498 0.0183,-0.2284l-0.0183 -0.0092 -0.1186 -0.2741zm0.0091 8.8645c0.0686,-0.2766 0.1095,-0.8365 0.365,-1.0144 0.2178,-0.1518 0.898,0.2192 0.9215,-0.2193 0.0212,-0.3974 -0.3114,-0.2428 -0.5018,-0.3564 0,-0.3103 0.4184,-0.3656 0.6387,-0.4204 0.1278,-0.0317 0.3355,-0.3856 0.2007,-0.4295 0,-0.4463 0.2711,-0.3547 0.1004,-0.8225 -0.1201,-0.3293 -0.2946,-1.009 -0.1277,-1.3434 0.1927,-0.3864 0.1544,-0.4858 -0.0913,-0.7951 -0.2202,-0.2774 -0.6065,-0.6672 -0.5201,-1.0875 0.0349,-0.1698 0.2467,-0.2664 0.1916,-0.4295 -0.5707,0 -0.9519,-0.6818 -0.9033,0.4387 0.0217,0.4995 -0.4207,1.0434 -0.7481,1.3708 -0.3249,0.3249 -0.3559,0.882 -0.3559,1.3159 0,0.639 0.0163,1.1258 -0.1825,1.7455 -0.076,0.2368 -0.2822,0.4438 -0.3467,0.7037 -0.0894,0.3604 0.3832,0.4871 0.3832,0.7768 0,0.0895 0.0091,0.1693 0.0091,0.2559 -0.0563,0.0706 -0.0966,0.1761 -0.1551,0.2558 -0.2727,0.3718 -0.1142,0.7905 -0.0912,1.1972 0.0182,0.3204 0.7423,0.4661 0.9854,0.4661 0.1973,-0.1574 0.1186,-0.3361 0.1186,-0.5666 0,-0.2357 -0.0479,-0.4715 -0.0182,-0.7128l0.1277 -0.329zm0.4562 0.6762c-0.0499,-0.2345 0.0132,-1.0056 0.2373,-1.124 0.1757,-0.0929 0.3584,-0.0478 0.52,-0.2193 0.1134,-0.1202 0.2297,-0.3391 0.3741,-0.4113 0.0281,-0.1957 -0.2274,-0.4352 -0.0365,-0.658 0.0757,-0.0885 0.0993,-0.2376 0.2464,-0.2376 0.1239,0 0.2881,0.0836 0.4197,0.1097 0.2093,-0.0119 0.7128,0.0413 0.8759,0.1736 0.1574,0.1278 0.4084,0.3429 0.6114,0.3656 0.1183,0.1663 0.1469,0.1827 -0.1004,0.265 -0.3814,0.1271 -0.7301,0.0829 -1.0767,0.3473 -0.3688,0.2814 -0.9549,0.6552 -1.1131,1.1149 -0.0591,0.1716 -0.0397,0.4188 -0.2099,0.53 -0.2432,0.1588 -0.3842,0.1133 -0.6296,-0.0091l-0.1186 -0.2468zm-4.4428 4.6425c-0.1998,0.0458 -0.3073,-0.2344 -0.4288,-0.3564 -0.1329,-0.1336 -0.1201,-0.1695 -0.292,-0.1554 -0.1914,0.0158 -0.3866,-0.2634 -0.5474,-0.3747 -0.173,-0.1196 -0.5915,-0.3001 -0.7847,-0.1827 0,0.0969 0.4237,0.549 0.5201,0.6305 0.188,0.1592 0.2699,0.4092 0.4653,0.5849 0.2397,0.2157 0.4532,0.5848 0.6113,0.8682 0.1289,0.2313 0.4219,0.5635 0.4836,0.8133 0.0217,0 0.0272,0.0046 0.0456,0.0092 0.1833,-0.1843 0.6403,-0.5172 0.6569,-0.7951 0.0092,-0.1536 -0.1326,-0.2896 -0.2281,-0.393 -0.1342,-0.1451 -0.2208,-0.2931 -0.3376,-0.4386l-0.1642 -0.2102zm-2.1442 1.2429c-0.2732,-0.1474 -0.6052,-0.5311 -0.8941,-0.1463 -0.1055,0.1404 -0.1639,0.325 -0.2646,0.4752 -0.0701,0.1044 -0.2658,0.3527 -0.3741,0.4022 -0.0673,0.1069 -0.2777,0.2195 -0.219,0.3746 0.1403,0.371 0.6011,0.3102 0.9124,0.4021 0.2514,0.0741 0.475,0.3165 0.7391,0.2651 0.1876,-0.0364 0.493,-0.2138 0.6752,-0.3016 0.3575,-0.1725 0.4956,-0.4992 0.2919,-0.8865 -0.0667,-0.127 -0.1751,-0.1404 -0.3011,-0.1645 -0.1491,-0.0286 -0.2725,-0.1404 -0.3923,-0.1645l-0.0183 -0.0182 -0.1551 -0.2376zm-2.2354 3.6554c0.3117,-0.2287 0.3929,-0.5039 0.511,-0.859 0.1045,-0.3139 0.4504,-0.5594 0.6387,-0.8225 0.2999,0 0.606,0.1682 0.9032,0.2559 0.2929,0.0865 0.3627,0.036 0.3194,0.3655 -0.0542,0.4114 -0.0837,0.7985 -0.0639,1.2155 0.0194,0.4098 -0.2698,0.3016 -0.5748,0.3016 -0.0346,0.0463 -0.0868,0.1377 -0.146,0.1462 -0.1105,0.1942 0.0553,0.2723 0.0821,0.4752 0.0187,0.141 -0.0737,0.3902 -0.2463,0.3473 -0.203,-0.0504 -0.3991,-0.3682 -0.5383,-0.5209 -0.1829,-0.2005 -0.429,-0.3333 -0.6296,-0.5118l-0.2555 -0.393zm-6.0311 -3.957c0,-0.1635 0.077,-0.4072 0.1369,-0.5575 0.2101,-0.5276 0.0504,-1.8435 0.7847,-1.9831 0.2865,-0.0545 0.6278,-0.0499 0.8577,-0.2467 0.1152,-0.0987 0.789,-0.5802 0.9032,-0.5118 0,0.3768 -0.9763,0.9336 -0.7755,1.2703l0.0912 0.3198c0.0185,0.2217 0.0988,0.4139 0.0457,0.6398 -0.0846,0.3604 -0.1918,0.6037 0.1094,0.859 0.19,0.1611 0.1674,0.4603 0.3011,0.6763 0.1018,0.1646 0.3256,0.4289 0.3833,0.6031 0.1193,0.3602 -0.2794,1.0921 -0.3741,1.4622 -0.0902,0.3522 -0.3227,0.5705 -0.584,0.8042 -0.3363,0.3006 -0.2135,-0.1782 -0.292,-0.3747 -0.1806,-0.4521 -0.6756,-2.204 -1.1496,-2.3212 0,0.2016 0.2496,0.5887 0.3193,0.8042 0.1564,0.4837 0.255,0.9447 0.3376,1.453 0.094,0.579 -0.2058,0.1447 -0.4653,-0.0457l-0.6478 -0.4752c-0.1404,-0.103 0.0668,-0.3531 0.1186,-0.4935 0.1,-0.2712 0.0233,-0.5868 -0.0639,-0.8498 -0.106,-0.3201 -0.0582,-0.3386 -0.0273,-0.6763l-0.0092 -0.3564zm-12.4098 51.8346c-0.1256,-0.087 -0.3191,-0.1053 -0.4653,-0.1736 -0.6263,-0.2925 -1.0503,-1.0181 -1.6059,-1.4257 -0.274,-0.2011 -0.6181,-0.4067 -0.9033,-0.5757 -0.2048,-0.1214 -0.663,-0.6306 -0.8394,-0.6306 -0.057,0.0946 -0.0546,1.1194 0,1.2337 0.1877,0.3931 0.5954,0.4154 0.885,0.6854 0.1003,0.0934 0.3822,0.3002 0.438,0.4021 0.4054,0.7412 1.452,0.5301 2.1989,0.5301l0.292 -0.0457zm-23.3001 -6.2076l-0.1186 -0.5575c-0.0282,0 -0.0616,0.0429 -0.0821,0.064 -0.0817,0.0836 -0.2349,0.0925 -0.3331,0.1645 -0.159,0.1168 0.1271,0.4345 0.2099,0.5301 0.051,0.059 0.1193,0.0996 0.1734,0.1508 0.0922,0.087 0.1194,0.2173 0.2235,0.3016 0.0682,0.0551 0.151,0.1132 0.2418,0.1188 0.1724,0.0108 0.2983,0.003 0.146,-0.1554l-0.3559 -0.3701 -0.1049 -0.2468zm229.024 -132.412l0.0554 12.054 -0.6074 31.5041 0.2783 5.9138 -0.0074 75.9215 0 0c0.2042,0.7003 -0.3748,2.2103 -0.8039,2.8266 -0.3067,0.4406 -0.2407,0.9423 0.4106,1.1057 1.0607,0.2661 0.5441,0.5961 0.885,1.3983 0.2004,0.4716 1.708,0.7071 1.1497,1.4256 -0.1163,0.1498 -0.1979,0.0631 -0.2281,0.2011 -0.0758,0.3455 0.1549,0.5684 0.4745,0.7493 0.5388,0.3048 0.8583,1.3962 0.7299,1.974 -0.1276,0.5737 -0.6879,0.7917 -0.0912,1.3251 0.3378,0.3021 0.4527,0.5727 0.6387,0.9687 0.0995,0.2117 0.5225,0.1359 0.6204,0.4569 0.1088,0.357 -0.5339,0.4293 -0.4288,0.8773 0.0981,0.4179 -0.173,0.6638 -0.4471,0.9413 -0.0897,0.0907 -0.0484,0.2516 -0.0639,0.3838 -0.0246,0.2104 -0.1117,0.7745 -0.3102,0.8682 -0.2166,0.1024 -0.5874,0.1545 -0.7026,0.3656 -0.4273,0.7833 0.571,0.768 0.9946,0.923 0.4029,0.1475 0.3467,0.6978 0.3467,1.0509 0,0.347 0.3204,1.316 0.4562,1.6541 0.0864,0.2153 0.173,0.4307 0.2695,0.6403l0 0 -21.7031 -0.028 -16.6533 -0.1363 -29.6073 0.1572c-0.0476,0.0689 -0.0931,0.1381 -0.1357,0.2076 -0.4289,0.6998 -0.9921,1.2133 -1.7062,1.6449 -0.4019,0.2428 -0.7324,0.6153 -1.1405,0.8682 -0.0638,0.0396 -0.124,0.0864 -0.1916,0.1188 -0.3706,0.1779 -0.7482,0.3413 -1.1223,0.5118 -0.8944,0.4079 -1.7231,0.1764 -2.6552,-0.0457 -0.274,-0.0652 -0.5732,-0.2098 -0.8303,-0.3107 -1.3415,-0.5262 -2.1171,-0.1176 -3.376,0.3929 -1.0264,0.4163 -2.0018,0.6507 -3.1114,0.6854 -0.5422,0.0169 -1.0742,0.1199 -1.5511,0.2559 -1.2743,0.3634 -1.9468,-0.167 -2.9471,-0.6488 -0.9687,-0.4665 -2.3899,1.0438 -3.0384,1.6358 -0.7526,0.6869 -1.4991,1.3902 -2.4453,1.8003 -1.0249,0.4441 -1.9397,0.2169 -2.9928,0.3382 -0.4529,0.0521 -0.9316,0.249 -1.3504,0.3015 -0.0687,0.0086 -0.0683,-0.0052 -0.1459,0.0366 -1.1131,0.5991 -2.3921,0.3779 -3.5768,0.7859 -1.3043,0.4493 -2.3557,1.391 -3.7135,1.8369 -0.7512,0.2467 -1.5452,0.3893 -2.2537,0.7402 -0.412,0.204 -0.6996,0.5971 -1.0493,0.8956 -0.3878,0.3311 -0.7,1.0042 -1.2044,1.0784 -0.1034,0.0152 -0.2069,0.0305 -0.3103,0.0457 -2.7747,0.4087 -7.3095,2.8919 -9.6078,0.1553 -0.046,-0.0547 -0.0729,-0.0921 -0.1278,-0.137 -1.0447,-0.8541 -1.5794,-1.0101 -2.9015,-1.0144 -1.4469,-0.0048 -3.2161,1.8774 -4.7081,2.312 -1.721,0.5012 -2.9425,1.1972 -4.2519,2.4127 -1.0111,0.9385 -0.9708,-0.2165 -1.5876,-0.5301 -0.0468,-0.0237 -0.1126,-0.0897 -0.1551,-0.1188 -0.2804,-0.1926 -1.2239,0.5804 -1.7975,0.3107 -1.3498,-0.6349 -2.8111,0.5551 -3.7684,1.3251 -1.0366,0.8336 -1.716,1.4124 -2.427,0.2102 -0.3133,-0.5296 -0.1362,-1.9064 -0.6935,-2.2664 -0.9793,-0.6324 -1.9743,-0.6567 -2.9015,-1.4073 -0.4629,-0.3748 -1.2644,-0.6113 -1.8522,-0.4661 -0.7137,0.1762 -1.6132,0.7311 -2.3449,0.5118 -0.6453,-0.1933 -1.1897,-0.6255 -1.7975,-0.923 -1.5714,-0.7691 -3.191,0.2277 -4.7811,0.3655 -0.884,0.0766 -1.7094,0.2523 -2.564,0.5575 -0.4721,0.1685 -0.9081,0.0074 -1.396,-0.1006 -1.7299,-0.3833 -2.5629,-0.3963 -4.0603,0.6398 -1.0709,0.7409 -0.9278,1.1365 -2.2902,1.7089 -1.1542,0.485 -1.4144,1.3213 -2.6825,1.7089 -0.8878,0.2714 -2.3386,0.6924 -3.1935,1.1149 -0.7086,0.3503 -1.4174,0.7007 -2.126,1.051 -0.5862,0.2899 -1.373,0.3349 -2.0073,0.5118 -1.6426,0.4581 -2.0826,0.0727 -3.4855,-0.7677 -1.1622,-0.6961 -2.3991,0.6759 -3.6771,-0.393 -0.3323,-0.278 -0.7751,-0.267 -1.2044,-0.3107 -0.4668,-0.0475 -1.0367,-0.3615 -1.5146,-0.4843 -0.2883,-0.0741 -0.9014,-0.2166 -1.1588,-0.2925 -0.5092,-0.1501 -1.018,-0.2565 -1.5967,-0.2833 -0.6219,-0.0288 -1.106,-0.319 -1.5785,-0.6945 -0.7005,-0.5569 -1.9894,-0.9773 -2.5274,-1.7272 -0.4724,-0.6583 -0.2225,-2.0436 0.073,-2.7051 0.2682,-0.6003 0.2158,-1.2575 0.0273,-1.9191 -0.1722,-0.6042 -0.5435,-1.0909 -0.8759,-1.6175 -0.783,-1.2405 0.3886,-2.4478 -0.1004,-3.5915 -0.0149,-0.0349 0.0487,-0.0646 0.0365,-0.1006 -0.1021,-0.3015 -0.0821,-0.8166 -0.2737,-1.0692 -0.725,-0.9555 0.1657,-2.4307 -0.7117,-3.363 -0.808,-0.8587 -1.3352,-1.7678 -1.6697,-2.8513 -0.1551,-0.5027 -0.3103,-1.0054 -0.4654,-1.5079 -0.0286,-0.0928 -0.1027,-0.3993 -0.1642,-0.4843 -0.8589,-1.1879 -2.2997,-1.3009 -3.2209,-2.4675 -0.2327,-0.2946 -0.5562,-0.6917 -0.9124,-0.8407 -0.1897,-0.0794 -0.4457,-0.2702 -0.6205,-0.3656 -0.7087,-0.3867 -1.4173,-0.7738 -2.1259,-1.1606 -0.7278,-0.3973 -1.2207,-1.1799 -2.199,-0.8773 -1.1639,0.3599 -2.3707,2.4713 -3.3942,1.8552 -0.0304,-0.0182 -0.0608,-0.0366 -0.0912,-0.0549l0 0 -1.3504 -0.3473c-0.4427,-0.1137 -0.7045,-0.7089 -1.0402,-1.0052 -0.806,-0.7117 -1.8674,-1.2562 -2.4088,-2.1933 -0.3858,-0.6679 -0.4173,-1.1945 -1.0767,-1.7272 -1.2702,-1.0264 -1.625,-0.1188 -2.8924,-0.1188 -0.653,0 -1.33,0.2467 -2.0164,0.2467 -0.5526,0 -0.9076,-0.3107 -1.396,-0.3107 -1.1217,0 -1.0259,-0.5998 -1.3869,-1.4622 -0.3481,-0.8314 -0.6065,-0.2293 -1.0219,-0.1827 -0.098,0.1366 -0.2672,0.5212 -0.4289,0.5757 -0.2572,0.0866 -0.6375,-0.3558 -0.7117,0.1279 -0.1978,1.2878 -0.6553,0.2295 -1.3321,0.1554 -0.6175,-0.0677 -0.5116,0.6009 -0.8668,0.5849 -0.2074,-0.0094 -0.359,-0.0593 -0.4927,0.1462 -0.1964,0.3016 -0.3492,0.2312 -0.5201,0.4021 -0.5775,0.5775 -0.503,0.7768 -1.3322,0.7768 -0.5337,-0.2382 -0.7405,-0.1428 -1.1131,-0.6671 -0.2664,-0.375 -0.7156,-0.6124 -0.9855,-1.0053 -0.4263,-0.6203 -0.8381,-1.8398 -1.8431,-1.6907 -0.3215,0.0476 -0.4148,0.3338 -0.6387,0.4022 -0.0921,0.0282 -0.1878,0.0255 -0.2737,0.0731 -0.259,0.1434 -0.3922,0.5925 -0.3011,0.8681 0.036,0.1087 0.2099,0.3439 0.2099,0.4296 -0.2133,0.0527 -0.4613,-0.085 -0.7026,-0.0457 -0.2027,0.0329 -0.3838,0.3555 -0.4471,0.0639 -0.0833,-0.3841 -0.0537,-1.234 0.0821,-1.5901 0.0975,-0.2556 0.3027,-0.8793 0.2373,-1.1423 0,-0.9157 0.186,-1.7975 0.1733,-2.7234l-0.0365 -2.6593c-0.005,-0.3622 0.1343,-1.1089 0.0092,-1.4439 0,-0.1537 0.0273,-0.2999 0.0273,-0.4478 0.0231,-0.0613 0.0009,-0.0987 -0.0182,-0.1645 0,-0.7728 -0.1709,-1.5403 -0.1643,-2.3121l0.0183 -2.1019c0.0091,-1.0592 -0.3717,-2.5882 0.1642,-3.5275 0.0244,-0.0092 0.088,-0.0189 0.1004,0l0.0274 0c0.0136,0.0136 0.0226,0.0169 0.0365,0.0274 0.0045,0.0182 0.0327,0.066 0.0456,0.0822 0,0.4492 0.202,0.4466 0.5201,0.6671 0.0092,0.0123 0.0146,0.0219 0.0182,0.0366 0.0317,0.0044 0.0673,0.0117 0.1004,0.0183 0.0422,0.0083 0.0728,0.0029 0.1095,0.0274 0.0316,0.021 0.0723,0.0679 0.0638,0.1097 -0.0343,0.1695 -0.0395,0.0622 -0.3376,0.2833 -0.1598,0 -0.1772,0.0548 -0.2919,0.137 0,0.4333 0.3181,0.8787 0.5383,1.2338 0.2068,0.3337 0.4132,0.8705 0.4471,1.2611 0.104,1.1975 -0.0526,2.4008 -0.1642,3.6006 0.3822,0.6162 0.0647,1.8585 0.1916,2.5954 0.138,0.802 0.3083,1.3618 0.2098,2.2025 -0.0751,0.6417 0.1032,0.4758 0.584,0.4569 0.6868,-0.027 0.9429,0.2257 1.3321,0.7494 0.1199,-0.1614 0.0183,-0.5517 0.0183,-0.7494 0,-0.3441 0.0627,-0.562 0.1551,-0.8865 0.2302,-0.4604 -0.762,0.0756 -0.7391,-0.4295 0.0189,-0.4183 0.4386,-0.9386 -0.0639,-1.1332 -0.3203,-0.1241 -0.6332,-0.3077 -0.7755,-0.6306 -0.21,-0.4761 0.1172,-0.3299 0.2007,-0.731 0.0633,-0.3038 -0.0625,-1.5622 0.3832,-1.6724 0.0047,0.014 -0.0001,0.0091 0.0183,0.0091 0.0717,0.2919 0.1272,0.7136 0.3102,0.9687 0.0492,0.0687 0.7143,0.5301 0.7756,0.5301 0.0982,0.3972 -0.0975,2.5589 0.5657,2.3395l0 -0.0275c0.0363,-0.0059 0.0045,-0.035 0.0365,-0.0456l0 -0.0275c0.0178,-0.0059 0.0004,-0.0032 0.0182,-0.0091 0,-0.018 -0.006,-0.0315 0.0091,-0.0366 0,-0.3207 -0.7151,-1.5745 -0.2737,-1.5535 0.6672,0.0317 0.2095,1.5647 0.6843,1.3525 0.2714,-0.1212 0.1459,-0.845 0.2099,-1.1149 0.0745,-0.3137 -0.3744,-0.3793 -0.5931,-0.4844 -0.7831,-0.3767 -0.7306,-1.346 -0.0912,-1.8551 0.4011,-0.3195 0.2568,-0.644 0.8212,-0.8499 0.1786,-0.0652 0.2691,-1.2571 0.1368,-1.3526 -0.2121,-0.1533 -0.3873,-0.3305 -0.4744,-0.5848 -0.2221,-0.4989 -0.3143,-1.002 -0.6114,-1.4531 -0.3665,-0.5567 -0.7421,-0.7156 -0.7755,-1.453 -0.0045,-0.101 0.0419,-0.812 0.1003,-0.8317 0,0.1656 0.4081,1.1222 0.6479,1.0419 0.167,-0.056 -0.0112,-0.924 -0.0822,-1.0327 -0.1503,-0.2304 0.2863,-0.1948 0.4015,-0.4021 0.2104,-0.3788 0.0547,-0.846 0.1734,-1.2337 0.1276,-0.4166 0.9947,-0.6198 1.396,-0.9413 0.1952,-0.1563 0.4948,-0.5072 0.7208,-0.5575 0.3847,-0.0858 0.5015,0.2376 0.8121,0.2376 -0.0537,-0.1589 -0.2766,-0.3408 -0.3741,-0.5117l-0.0092 -0.0092 -0.0091 -0.0091 -0.0091 -0.0092c-0.0266,-0.1075 -0.1697,-0.1674 -0.2281,-0.2376 -0.2236,-0.0275 -0.8136,-0.4161 -0.9854,-0.5757 -0.2651,-0.2465 -0.19,-0.7167 -0.365,-1.0235 -0.7827,-0.1128 -0.6059,1.1789 -0.9398,1.1789 -0.5891,0 -1.419,0.0488 -1.7701,-0.5666 -0.0236,-0.0047 -0.0312,-0.0183 -0.0548,-0.0183 -0.1938,0.2428 -0.0297,0.6151 -0.0912,0.8773 -0.0941,0.4017 0.0531,0.4077 0.3832,0.658l0 0.0274c-0.2152,0.1608 -0.6597,-0.1155 -0.885,0.0091 -0.3798,0.2099 -0.504,0.0558 -0.7391,-0.2741 -0.0511,-0.0127 -0.0993,-0.0571 -0.1551,-0.064 -0.5652,-0.7933 -2.0455,-0.7091 -2.4818,-1.4622 -0.2757,-0.4757 -0.4188,-1.9696 -0.2737,-2.4857 0,-0.4461 -0.1404,-0.9704 -0.219,-1.4165l-0.219 -1.2429 -0.5292 -2.0105c-0.1333,-0.5062 -0.2766,-0.526 0.219,-0.7037 0.114,-0.0408 0.438,-0.3929 0.4562,-0.3929 0,0.2718 0.8288,0.6101 0.7938,0.8042 -0.0806,0.4458 -0.5438,0.7774 -0.365,1.2063 0.1204,0.289 0.6,0.3585 0.8577,0.4112 0.3231,0.0662 0.8043,0.3112 1.1132,0.457 0.1663,0.0784 0.3219,0.4803 0.4836,0.5209 -0.0375,-0.1867 -0.3168,-0.6616 -0.438,-0.8042 -0.1407,-0.1657 -0.8869,-0.1131 -0.7665,-0.2742 0.3867,-0.5175 0.1415,-1.3377 0.7939,-1.6541 0.0497,-0.024 1.4537,-0.2032 0.9124,-0.4661 -0.0827,-0.0402 -0.7003,-0.0671 -0.4836,-0.1462 0.1033,-0.0376 0.2201,-0.0607 0.3102,-0.1005 0.2749,-0.1214 0.2894,-0.0927 0.4471,0.1371 0.0181,0.0263 0.2891,-0.4299 0.4197,-0.4844 0.6457,-0.1981 1.3184,-0.0623 2.0621,-0.329 0.5382,-0.1929 1.4894,-0.5504 1.8887,-0.9504 0.3126,-0.3133 0.575,-0.2158 1.0037,-0.3381 0.3476,-0.0992 1.0801,-0.847 0.4745,-0.5209 -0.8582,0.4623 -0.9199,0.0255 -1.5694,-0.1463 -0.7851,-0.2076 -1.7869,0.1097 -2.5457,0.1097 -0.4053,0 0.6229,-0.5523 0.4745,-0.6397 -0.6074,-0.3575 -3.6178,0.6281 -2.4636,-1.1058 0.2476,-0.3719 -1.0994,-1.3851 -1.3869,-1.5079 -0.7401,-0.3164 -3.1661,-0.7701 -3.1661,0.6032 0,0.4481 0.3541,0.7185 0.365,1.0692l0.0547 1.7455c0.012,0.3857 0.8219,1.3313 0.9672,0.7402 0,0.646 0.0279,1.0397 -0.5201,0.4387 -0.377,-0.4133 -1.2606,0.092 -0.9945,0.4295 0.1263,0.1601 -0.6415,0.1233 -0.7573,0.1645 -0.1707,0.0607 -0.0504,-0.7893 -0.0913,-1.0144l0.0274 -1.8917c0.0086,-0.5998 -0.0821,-1.1943 -0.0821,-1.782 -0.0075,-0.0228 -0.0107,-0.0413 -0.0183,-0.064 0,-0.0512 -0.0046,-0.0915 -0.0091,-0.1462 0.0354,-0.2384 -0.0103,-0.492 0.0183,-0.7311 0.0276,-0.2311 0.0273,-0.498 0.0273,-0.7311 0,-0.3863 -0.0456,-0.7763 -0.0456,-1.1515 -0.0124,-0.0208 -0.0169,-0.0486 -0.0274,-0.0731 0,-0.036 0.0093,-0.0656 0.0183,-0.1005l-0.2099 -1.4896c-0.0507,-0.36 -0.083,-0.9496 -0.2646,-1.2612l-0.3285 -2.1201c-0.1018,-0.6568 -0.0587,-1.4755 -0.4288,-2.0562 -0.0099,-0.1014 -0.0609,-0.2224 -0.0912,-0.3199l-0.365 -1.1515c-0.1151,-0.363 -0.144,-0.7465 -0.292,-1.0966 -0.2901,-0.6866 -0.6362,-0.8042 -1.3321,-0.8042 -0.3387,-1.0163 -0.0253,-2.2468 -1.3687,-2.5771 0,-0.3776 0.0183,-0.7894 -0.0912,-1.1515 -0.0358,-0.4371 -0.2446,-0.8317 -0.292,-1.2154 -0.2908,-0.3508 -0.2319,-1.0481 -0.2646,-1.4805l-0.1369 -1.8095c-0.0931,-1.2301 -0.0625,-2.6505 -0.5018,-3.8017 -0.1547,-0.31 -0.1728,-0.8974 -0.2281,-1.252l-0.1825 -1.1697c-0.1142,-0.7319 -0.3249,-1.6852 -0.5657,-2.3943 -0.152,-0.4479 -0.2059,-1.1579 -0.4927,-1.5262 -0.0129,-0.1581 -0.136,-0.3284 -0.1551,-0.4844 -0.0406,-0.0473 -0.0289,-0.0374 -0.1004,-0.1005 -0.1424,-0.2579 -0.1172,-0.7896 -0.1642,-1.0966 -0.0576,-0.377 -0.1687,-0.7151 -0.3376,-1.0601 -0.2392,-0.4883 -0.7493,-1.3891 -1.3778,-1.3891 -0.6121,0 -0.2098,-0.487 -0.2098,-0.859 0,-0.644 -0.1496,-1.1947 -0.511,-1.7181 -0.1889,-0.2737 -0.6084,-0.1546 -0.8668,-0.3381 -0.0875,-0.0622 -0.2151,-0.3102 -0.2829,-0.3199 -0.1328,-0.1873 -0.3622,-0.0913 -0.4288,-0.3747 -0.0547,-0.2332 -0.2058,-0.3519 -0.4288,-0.4752 -0.1479,-0.443 -0.7828,-1.4165 -1.3139,-1.4165 -0.2481,0 -0.3874,0.2285 -0.584,0.2285 -0.0122,-0.0091 -0.0152,-0.0091 -0.0274,-0.0183 -0.1094,-0.4428 -0.5092,-1.337 -0.8303,-1.6815 -0.4418,-0.4742 0.062,-1.3674 -0.52,-1.8552 -0.2113,-0.1772 -0.1824,-0.3554 -0.3194,-0.5117 0,-0.1696 -0.1352,-0.4017 -0.2372,-0.5392 -0.1044,-0.1409 0.073,-0.4037 0.073,-0.5849 0,-0.4685 -0.3328,-0.9436 -0.3833,-1.4622 0,-0.6437 -0.132,-1.4151 -0.3284,-2.0288 -0.1056,-0.3298 -0.4324,-1.2546 -0.3559,-1.5627 0.0945,-0.381 0.2464,-0.6201 0.2464,-1.0418 0,-0.4736 -0.0924,-0.8041 -0.4197,-1.1332 0,-0.2791 -0.215,-0.678 -0.438,-0.8499 -0.0992,-0.3662 -0.8333,-0.9354 -0.4653,-1.2977 0.4216,-0.4149 0.8252,-0.744 1.1131,-1.2794 0.6422,-1.1939 -0.2646,-1.6454 -0.2646,-2.7325 0.3428,0 0.5301,0.1786 0.7026,-0.2558 0.1171,-0.2948 0.0624,-0.695 0.0912,-1.0144 0,-0.0994 -0.0926,-0.2527 -0.1277,-0.3473 0.11,-0.1844 -0.0406,-0.4799 0.0547,-0.6397 0.5715,-0.1123 0.8615,0.0221 0.657,-0.7768 -0.1243,-0.4853 0.3773,-0.5307 0.2007,-0.9321 -0.1501,-0.3414 -0.4271,-0.4159 -0.7755,-0.2925 -0.3301,0.1168 -0.6907,-0.4988 -0.876,-0.7676 -0.1297,-0.1883 -0.0096,-0.4698 -0.1642,-0.6763 -0.1291,-0.1723 -0.6017,-0.4927 -0.6113,-0.6854 -0.0246,-0.4935 2.1435,-0.3473 2.4179,-0.3473 0.5374,0 0.8883,-0.1979 1.0219,0.4844 0.1161,0.5928 0.7698,0.6766 1.1862,0.3198 0.1651,-0.1414 1.0354,0.1315 1.1131,0.2468 0.2124,0.3156 0.4058,0.4196 0.6935,0.6306 0.2571,0.1887 0.585,0.2793 0.8212,0.5026 0.5315,0.5022 1.538,0.9917 2.208,1.252l0.0183 0.0091c0.0586,0.3571 0.5167,0.5482 0.8029,0.658 0.3246,0.1246 0.4265,0.3447 0.6661,0.5849 0.6044,0.6061 1.1694,0.0018 1.6332,0.4112 0.4549,0.4017 0.9835,0.5563 1.5512,0.7311 0.2396,0.0737 0.129,0.3874 0.2646,0.4844 0.0622,0.5039 1.2017,0.2711 1.4233,-0.0823 0.2361,-0.3763 0.9276,0.1453 1.1953,0.3107 0.5033,0.3108 2.9954,1.951 3.4308,1.6816 0.3064,-0.1895 0.0774,1.2702 0.8029,1.2245 0.194,0.0653 1.0339,0.5812 1.1314,0.7768 0.6436,0.3227 1.3411,0.2677 1.9343,0.5483 0.7191,0.34 1.2411,0.1189 1.9526,0.329 0.6275,0.1854 1.1039,0.1172 1.7337,0.0914 0.5926,-0.0243 0.9464,0.6304 1.5785,0.128l0.0912 0c0.3748,0.2991 1.549,0.2749 1.9891,0.1188 0.1751,-0.062 0.3121,-0.3382 0.4744,-0.3382l0.876 0c0.61,0 0.9446,-0.4034 1.396,-0.201l1.5694 0.7037c0,0.1333 -0.1198,0.3284 -0.073,0.4386 0.6463,0.1633 1.5665,0.6462 2.1442,0.1554 0.9566,-0.8128 0.7923,-0.5592 1.6697,0.1096 1.2514,0.9541 2.8828,-1.138 3.9782,-0.0365 0,0.0209 0.0032,0.0291 -0.0091,0.0457 -0.291,0 -2.0165,-0.0905 -2.0165,0.2376 0.0171,0.0171 0.0402,0.0237 0.0456,0.0457 0.064,0.0078 0.1955,0.1346 0.2281,0.1919 0.35,0.0687 0.6172,0.3442 0.949,0.4112l1.177 0.2376 1.5694 -0.1279c0.4246,-0.0345 1.3062,0.3202 1.6332,-0.0274 0.3545,-0.3767 0.287,-0.0517 0.6935,0.1188 1.4175,0.5945 2.5795,-1.6061 3.3668,-2.44 0.4959,-0.5251 1.6357,-0.987 2.3541,-0.987 -0.2162,0.2162 -0.5872,0.3171 -0.8486,0.4478 -0.4664,0.2331 -0.3787,0.4336 -0.6569,0.7585 -0.2648,0.3091 -0.123,-0.3287 -0.0639,-0.4478 0.1472,-0.2962 -0.4098,0.2091 -0.4653,0.2924 -0.2121,0.3187 -0.6151,0.5935 -0.9216,0.8225 0.6005,0 1.4137,-0.1998 1.9161,-0.4661 0.5081,-0.2694 1.1739,1.1719 1.5694,1.3983 0.4034,0.4034 0.8191,0.5984 1.0767,1.1149 0.081,0.1623 0.4653,1.1543 0.4653,1.3068 -0.0738,0.0244 -0.1288,0.0731 -0.2555,0.0731 -0.1404,0.4305 0.8644,2.6084 1.2774,2.504l-0.0274 -0.6762c-0.0105,-0.2598 -0.3376,-0.5107 -0.3376,-0.7768 0,-0.5186 0.3635,-1.1406 -0.5292,-1.316 0,-0.1582 0.598,-0.221 0.73,-0.265 0.3235,-0.1077 0.6499,-0.2899 0.9763,-0.3564 0.6613,-0.1347 1.4207,0.0182 2.0986,0.0182 0,0.0216 0.0005,0.0486 -0.0183,0.0549 0,0.3657 -0.6014,0.9519 -0.1734,1.4165 0.4609,0.5002 0.9698,0.6124 1.542,0.9504 0.2675,0.1579 0.3569,0.7424 0.4654,1.0509 0.2701,0.768 -0.6113,0.8806 -0.6113,1.3526 0.8695,0 0.8855,0.0876 1.1679,-0.6672 0.3062,-0.9221 0.8964,-1.712 -0.2738,-2.1019 -0.7834,-0.2611 -0.3058,-1.2154 -1.5055,-1.2154 0,-0.2298 0.3534,-0.4289 0.4471,-0.6123 0.1187,-0.2321 -0.1368,-0.5256 -0.1368,-0.7128 0.4454,-0.1101 1.0143,-0.8978 1.3047,-1.2246 0.4679,-0.5268 1.078,-0.3823 1.761,-0.4843 0.3559,-0.0532 0.9467,-0.329 1.25,-0.329 0,0.0817 -0.1436,0.444 -0.1916,0.53 -0.1237,0.222 0.0939,0.275 0.1004,0.4752 0.4002,0.8048 0.4194,0.33 -0.2464,0.923 -0.2305,0.2052 -1.0401,0.6713 -1.0401,0.9413 0.2005,0.1148 0.4481,0.7045 0.5748,0.923 0.2943,0.5078 0.3102,0.2312 0.3102,0.8499 0,0.4045 0.2593,0.442 0.4927,0.6763 0.1928,0.1937 0.4186,0.5965 0.6205,0.1005 0.1721,-0.4226 -0.2405,-0.6015 -0.219,-0.9596 0.0143,-0.2379 0.0594,-0.3859 -0.0091,-0.6214 -0.0809,-0.2778 -0.1883,-0.2835 0.0091,-0.5483l0.4836 -0.6489c0.0696,0.0175 0.0789,0.198 0.1277,0.2468 0.075,0.075 0.1583,0.078 0.1916,0.201 0.0774,0.2861 0.0092,0.6285 0.0092,0.9322 0,0.3403 0.299,2.0686 0.7847,1.9465 0.0302,-0.2152 -0.1537,-0.665 -0.219,-0.8773 -0.058,-0.1884 0.0818,-0.8011 -0.0456,-0.8225 -0.0957,-0.3787 -0.237,-1.4838 -0.73,-1.6084 0,-0.0591 0.2185,-0.057 0.2646,-0.064 0.1077,-0.0164 0.2183,-0.0985 0.3194,-0.1462 0.1053,-0.0496 0.4186,-0.2811 0.4471,-0.3655l0.0182 0c0.2813,0.8501 0.1153,2.0026 0.4745,2.8604 0.1369,0.3272 0.3485,0.4774 0.3649,0.8956 0.0099,0.2542 -0.5335,1.1019 -0.7847,1.0144 -0.29,-0.1009 -0.5535,-1.0072 -1.1679,-0.8865 0,0.496 0.1686,1.3958 0.4106,1.8095 0.2259,0.2815 0.2141,0.4783 0.5749,0.6854 0.1619,0.093 0.4333,0.1504 0.6022,0.1919 0.114,0.4612 -0.0617,0.7088 -0.1278,1.1606 -0.0482,0.3289 0.1909,0.6505 0.1278,0.9139 -0.062,0.2583 -0.5384,0.3483 -0.5384,0.4752 0.3919,0.0963 0.8511,-0.0425 1.1041,-0.3747 0.0341,-0.0449 0.1628,-0.3016 0.1825,-0.3016 0,0.2531 -0.059,1.243 0.0912,1.4348 0.4645,0.593 0.5374,0.722 1.3048,0.722 0,0.2376 -0.4873,0.5053 -0.6479,0.6214 -0.2303,0.1663 -0.0338,0.6626 -0.4835,0.6854 -0.3576,0.0182 -1.8597,-0.8366 -1.4873,0 0.1854,0.4164 0.4395,0.7139 0.292,1.188 -0.2238,0.2875 -0.2038,0.246 -0.4745,0.4295 -0.2664,0.1805 -0.3253,0.5378 -0.5657,0.722 -0.5223,0.4004 -0.9211,-0.1438 -0.958,0.7951 -0.0377,0.9574 -0.0155,2.0897 -0.6752,2.8147 -0.3581,0.3937 -0.6001,1.4994 -0.2646,1.9739 0.2243,0.3171 -0.0631,0.3434 -0.4198,0.4844 -0.1327,0.0525 -1.0487,0.3847 -1.1131,0.2559 -0.2531,-0.0363 -0.5461,-0.5412 -0.2646,-0.7677 0.2103,-0.1693 -0.1431,-0.7444 0.292,-0.8864 0.2914,-0.0952 0.0037,-0.4507 0.1186,-0.6489 0.0805,-0.1391 0.1825,-0.1979 0.1825,-0.3747 0,-0.165 -0.0567,-0.3388 -0.0183,-0.5026 0.0506,-0.2163 0.1897,-0.4266 0.2646,-0.6397 0.154,-0.4378 0.5047,-1.5638 0.3194,-1.9831 -0.1352,-0.3057 -0.2438,-0.426 -0.2646,-0.7951 -0.014,-0.2476 -0.1398,-0.899 -0.2829,-1.0783 -0.0362,0 -0.3467,0.7297 -0.3467,0.8407 0,0.3118 0.3051,0.5518 0.1551,0.8134 -0.4152,0.7245 -0.0431,1.4256 -1.25,1.4256 -0.1219,-0.1608 0.3154,-2.2649 -0.1369,-1.9283 -0.458,0.341 -0.4278,1.9404 -0.146,2.3487 0.2019,0.269 0.5084,0.3328 0.4197,0.7128 -0.0754,0.3235 -0.0984,0.6824 -0.1733,0.987 -0.2235,0 -0.2023,-0.385 -0.3103,-0.4387 -0.1416,-0.0705 -0.2659,0.3697 -0.3467,0.457 -0.1536,0.1657 -0.4744,1.3287 -0.4744,1.5901 0,0.363 0.4864,0.4367 0.2189,0.7676 -0.243,0.3008 -0.9957,0.7252 -0.7846,1.2063 0.5318,1.2123 -0.4883,0.5691 -0.9307,1.316 -0.2548,0.2555 -1.0352,1.0053 -1.396,1.0053 -0.2542,0.3352 -0.3276,0.947 -0.5657,1.3159 -0.2501,0.3873 -0.5462,1.255 -0.9125,1.5171 -0.0332,0.2691 -0.0977,0.7611 -0.4197,0.8407 -0.0584,0.2375 -0.2964,0.5386 -0.4288,0.7494 -0.1706,0.2719 -0.152,0.5048 -0.2829,0.7676 -0.2065,0.4149 -0.5957,0.9668 -0.9215,1.2795 -0.7698,1.0264 -1.18,2.4933 -1.7063,3.6737 -0.3242,0.7274 -0.8753,2.0759 -0.3467,2.7416 0.4843,0.6097 0.7267,-0.2893 1.0219,-0.4935 0.451,-0.3121 1.494,0.3645 2.1169,0.3473 1.182,-0.0326 1.713,-1.1496 2.8741,-1.4531 0.4054,-0.106 1.4694,-0.3811 1.7701,-0.594 0.2572,-0.1822 0.484,-0.5341 0.7208,-0.7585 0.3154,-0.2991 1.2866,-1.1654 1.2866,-1.5718 -0.4914,0 -1.5064,1.0777 -1.9891,1.252 -0.8319,0.3006 -1.9528,0.7922 -2.6826,1.2885 -0.5977,0.4066 -0.8091,0.9256 -1.2956,1.316 -0.5123,0.411 -1.014,-0.4311 -1.4417,-0.5483 -0.3661,-0.1002 -0.8851,0.1113 -1.1952,-0.064 -0.0749,-0.0424 -0.298,-0.666 -0.2829,-0.7494 0.2404,-1.3268 1.1009,-2.1859 1.542,-3.4087 0.1637,-0.1314 0.401,-0.7124 0.5292,-0.923 0.1564,-0.2572 0.3458,-0.4535 0.4836,-0.7311 0.2987,-0.6012 0.2404,-1.131 0.7938,-1.6541 0.4122,-0.3895 1.7781,-2.9418 1.9891,-2.9518 0.9961,-0.0475 1.25,-0.7035 1.25,-1.6084 0.0162,-0.0162 0.025,-0.0255 0.0365,-0.0457 0.1713,-0.0421 0.2728,-0.0755 0.4654,-0.0914 0.4269,-0.3332 1.1149,-0.3678 1.4599,-0.7128 0.396,-0.396 0.447,-0.6406 1.0584,-0.7951 0.061,0.1873 -0.2124,0.5865 -0.1825,0.6397 0.0401,0.0716 0.5482,-0.2462 0.6478,-0.3015l1.9252 -1.0693c0.2699,-0.1499 0.1004,-0.669 0.1004,-0.9321 0,-0.5348 -0.0433,-1.2568 0.1004,-1.7546 0.1822,-0.6308 0.5927,-1.3558 0.9033,-1.9466 0.2174,-0.4134 0.4935,-0.523 0.8668,-0.7676 0.2319,-0.1162 0.172,-0.4063 0.219,-0.6306 0.0578,-0.2752 0.3755,-0.3261 0.4106,-0.5575 0.0492,-0.3239 0.7399,-0.7273 0.9763,-1.06 0.3039,-0.4279 0.4554,-0.2283 0.7755,-0.4844 0.3477,-0.278 -0.0109,-0.9236 0.4015,-1.0327l0.7938 -0.2102c0,0.2125 -0.1213,2.6884 0.5748,1.9923 0.174,-0.174 0.0393,-0.4915 0.0274,-0.7037 -0.0146,-0.2583 -0.4167,-0.7051 -0.3741,-0.859 0.1175,-0.4236 0.4761,-0.5812 0.146,-1.0601 -0.337,-0.4891 -0.3743,-1.5346 -0.7665,-1.8826 -0.309,-0.2741 -0.732,-0.3227 -0.8029,-0.7859 -0.059,-0.386 0.3708,-0.5619 0.6843,-0.4844 0.1375,0.5473 -0.0208,0.8065 0.6661,0.9596 0.8354,0.1863 0.7791,-0.287 1.5603,0.329 0.4701,0.3706 0.7361,2.2684 0.8029,2.9701 0.0697,0.7311 -0.0522,1.6997 0.9854,1.6997 0.062,0.1902 -0.1003,0.6561 -0.2281,0.8408 -0.0283,0.3159 -0.6494,0.1325 -0.5748,0.3747 0.0916,0.2978 0.3837,0.5076 0.6204,0.6854 0.3628,0.2724 0.6683,1.3716 0.1825,1.6175 -0.3408,0.1724 -1.2764,0.2542 -1.615,0.0549 -0.9046,-0.5322 -0.7178,0.2691 -0.8212,0.8407 -0.0504,0.2783 -0.3671,0.5883 -0.5383,0.8225 -0.1429,0.1953 -0.5609,0.9747 -0.6752,1.0601 -0.1105,-0.3341 -0.6093,-0.599 -0.7026,-0.9047 -0.1302,-0.4261 -0.5534,0.0892 -0.6295,-0.5027 -0.0075,-0.0591 -0.4588,-0.5066 -0.5384,-0.6579 -0.2126,-0.4045 -0.5793,-0.2255 -0.3832,0.1919 0.1982,0.4217 0.4678,0.9883 0.9124,1.2246 0.2207,0.1172 0.4349,-0.1814 0.438,0.2193l0.0091 1.1515c0,0.9398 0.0035,1.2031 0.7573,1.7272 0.0808,0.0561 0.0589,2.0274 0.0092,2.2755 -0.0718,0.3589 -0.5657,0.9379 -0.5657,1.2154 -0.0251,0 -0.2576,-0.3312 -0.3376,-0.4112 -0.1714,-0.1714 -0.4716,-0.2674 -0.7026,-0.3473 -0.4177,-0.1444 -0.5486,-0.7943 -0.6661,-1.1789 -0.0617,-0.2017 -0.2912,-0.1934 -0.4014,-0.3564 -0.1798,-0.2657 0.0063,-1.9885 -0.5201,-1.5078 -0.3173,0.2896 -0.2564,0.8897 -0.4562,1.2611 -0.2478,0.4609 -0.0127,0.594 0.447,0.594 0.039,0.1544 0.0658,1.4704 0.4471,0.7494 0.0993,-0.1877 0.4628,0.7924 0.6114,0.201 0.1034,0 0.3786,0.3964 0.6387,0.4844 0.1495,0.0506 0.7299,0.3081 0.7299,0.466 0,0.7235 -1.7453,0.7652 -1.8796,1.316 -0.0539,0.2209 -0.4745,0.5653 -0.4745,0.658 0.5096,-0.1253 0.8916,-0.5039 1.4052,-0.5757 0.3521,-0.0493 1.2149,-0.5221 1.4599,-0.7677 0.2391,-0.2395 0.565,-0.6273 0.739,-0.9047 0.0745,-0.1189 0.7967,-1.142 0.9125,-0.7951 0.1069,0.3199 0.0053,1.0342 0.1916,1.1332 0.0641,0.034 0.3376,0.022 0.3376,0.1005 0,0.3973 -0.3027,0.2472 -0.146,0.8042 0.166,0.2234 -0.4088,1.0436 -0.3103,1.0876 0.3631,0.1622 0.8433,0.0278 1.2045,0.1644 0.2798,0.1059 0.3103,0.1737 0.6204,0.1737 0,0.4282 -0.8653,1.5119 -1.0949,1.9465 -0.4251,0.805 -0.1383,1.5882 -0.2737,2.4309 -0.0818,0.509 -0.5788,0.8086 -0.6752,1.2794 0,0.8158 0.7224,0.9318 0.3193,1.6998 -0.2575,0.4908 -1.0297,1.7667 -0.9945,2.2664 0.025,0.3562 0.5316,1.0868 0.7573,1.3708 0.5489,0.6908 -0.4702,1.3039 -0.9124,1.8003 -0.1728,0.1941 -0.5201,-0.3507 -0.5201,-0.4386 0,-0.1587 0.2516,-0.7494 0.1003,-0.7494 -0.2778,1.13 -2.0217,-0.3016 -2.6004,-0.3016 -0.3284,0 -0.3644,0.366 -0.6204,0.329 -0.0387,-0.2687 -0.3198,-0.7455 -0.0092,-1.0326 0.0909,-0.0839 0.2927,0.0341 0.2373,-0.1463 -0.0269,-0.0874 -0.1691,-0.3979 -0.1551,-0.4569 0.0543,-0.2293 0.4032,-0.4105 0.3467,-0.6488 -0.082,-0.3453 0.107,-0.5301 0.4927,-0.5301l0 -0.0183c-0.1047,-0.0258 -0.1721,-0.1691 -0.3011,-0.201 0,-0.319 1.4316,-1.271 1.6059,-1.6358 0.0987,-0.2068 0.1093,-0.4589 -0.1643,-0.3473 -0.4306,0.1756 -0.7168,0.3673 -1.1861,0.4661 -0.4736,0.0996 -1.0419,0.9522 -1.3869,1.2977 -0.1276,0.1279 -0.657,0.2894 -0.657,0.4386 0,0.3844 -0.049,0.6597 -0.1459,1.0144 -0.0984,0.3599 -0.3873,0.7838 -0.5566,1.1332 -0.0225,0.1566 -0.3301,0.8886 -0.292,0.8865 0.0816,-0.0045 0.2381,-0.0599 0.3102,-0.0275 0.0608,0.0274 -0.078,0.3033 -0.0912,0.3564 -0.0752,0.3028 0.1732,0.2117 0.3467,0.1554 0.2511,-0.0816 0.0735,0.5025 0.2737,0.6306 0.1129,0.0723 0.2971,-0.0637 0.3741,0.0365 0.062,0.0808 -0.1173,0.4092 -0.0821,0.5575 0.0433,0.1827 0.2624,0.3702 0.2099,0.5757 -0.0559,0.2192 -0.3425,0.4307 -0.4654,0.6306 -0.1803,0.2935 -0.4248,0.3874 -0.7025,0.1097 0,0.3132 0.237,0.527 0.1916,0.8499 -0.0434,0.3083 -0.2166,0.7105 -0.3468,1.0052 -0.3433,0.7764 -0.6429,0.2429 -0.6752,-0.2924 -0.0232,-0.3861 -0.4475,-0.2815 -0.6569,-0.6215 -0.1597,-0.2591 -0.3414,-1.5977 -0.4562,-1.6449 -0.2928,-0.1203 -0.6537,-0.2179 -0.6661,-0.6214 -0.2187,-0.6599 0.5812,-1.9104 0.9854,-2.4127 0.5576,-0.6927 0.1825,-1.677 0.3559,-2.5314 0.0499,-0.2457 -0.2151,-0.2158 -0.2646,-0.3747 -0.0939,-0.3018 0.1241,-0.2676 -0.2829,-0.4478 -0.2607,-0.1155 -0.1288,-0.538 -0.1733,-0.795 -0.0621,-0.3581 -0.1278,-0.7481 -0.1278,-1.1149 -0.3715,0.3715 -0.2355,1.2989 -0.3376,1.8094 0,0.3563 0.2972,0.5329 0.1095,0.9596 -0.1824,0.4147 0.4143,0.4422 0.1734,0.7676 -0.1396,0.1887 -0.266,0.3139 -0.5019,0.2559 -0.0078,-0.0316 -0.0286,-0.0919 -0.0547,-0.1005 -0.0046,0.014 0.0002,0.0091 -0.0182,0.0091 -0.2034,0.4091 -1.3355,1.1096 -1.7702,1.2063 -0.8655,0.1925 -1.1952,0.4075 -1.1952,1.3343 0,1.2106 -0.5074,2.142 -0.2829,3.3447 -0.0453,0.1844 -0.4245,0.4591 -0.5292,0.6946 -0.1466,0.33 -0.3309,0.8282 -0.7938,0.6854 -0.763,-0.2353 -1.2246,0.9333 -1.2957,1.4896 -0.1021,0.7996 -0.4894,0.9342 -1.2135,1.0144 -0.5288,0.0585 0.0186,0.2079 0.2737,0.3655 0.2286,0.1411 0.5839,0.1831 0.7756,-0.0091 0.4371,-0.4385 0.3412,-1.5529 1.0037,-1.7089 0.4947,-0.1164 0.7064,0.339 0.958,-0.4204 0.1666,-0.5027 0.6114,-0.5526 0.6114,-1.2703 0,-0.3078 0.1805,0.0373 0.3649,0.1371 0.2133,0.1153 0.3924,0.117 0.3924,0.3381 0,0.1687 -0.0726,0.5294 -0.1916,0.6489 -0.4835,0.4853 -1.0894,0.9836 -1.2318,1.6997 -0.0883,0.4438 0.4177,0.679 0.073,0.9048 -0.5675,0.3716 -0.5708,0.035 -0.8668,0.7768 -0.1893,0.4747 -1.4706,1.1539 -0.8942,0.8773l0.8759 -0.4204c0.4405,-0.2113 0.7229,-0.725 1.1862,-0.9047 0.6768,-0.2624 0.2771,-0.6427 0.1916,-1.1149 -0.0295,-0.1627 0.5236,-1.2808 0.5748,-1.2977 0,0.3496 -0.0089,0.8336 0.0639,1.1697 0.1455,0.6721 0.0025,0.9763 -0.1278,1.6267 -0.1247,0.6229 0.0451,0.41 0.3103,0.859 0.2465,0.4175 0.4106,0.7285 0.4106,1.2338 0.125,-0.0947 0.1234,-0.6159 0.1733,-0.6215 0.228,-0.026 0.1978,0.397 0.1643,0.0274 -0.0408,-0.4489 -0.3326,-0.8057 -0.292,-1.2428 0.1136,-0.4284 0.4175,-0.8061 0.365,-1.2703 -0.0434,-0.3844 -0.5674,-0.8181 -0.5293,-1.1058 0.0948,-0.714 1.162,-0.7903 1.6515,-1.3525 0.3766,-0.4324 0.7397,-0.3517 0.6387,0.3016 -0.041,0.2649 0.0327,2.0379 0.3559,2.0379 0,-0.9012 0.0576,-2.343 0.3376,-3.1894l0.0365 0c0.3488,0.6976 0.9452,1.2066 1.1131,2.0836 0.1272,0.6641 1.5035,1.5735 2.1534,1.846 0.4776,0.2003 1.3355,-0.1721 1.5602,-0.5483 0.1878,-0.3142 0.4096,-0.8317 0.6843,-1.0509 0.346,-0.2762 0.7315,-0.3597 0.9125,-0.8134 0.1309,-0.3283 0.2073,-1.2407 0.5565,-1.3525 0.7738,-0.2476 0.5698,-0.5645 0.6844,-1.2337 0.1292,-0.5207 0.408,-0.5962 0.6113,-1.0053 0.1489,-0.2999 -0.0586,-1.0023 0.1642,-1.1697 0.2854,-0.2143 0.2726,-0.2879 0.4654,-0.5666 0.1785,-0.2579 0.6022,-0.8175 0.6022,-1.1424 0,-0.4448 -0.4275,-1.2815 -0.3103,-1.6358 0.5496,-0.1351 1.4584,1.3908 1.8158,1.6907 0.3256,0.2731 0.8473,0.362 1.1223,0.6214 0.3547,0.3344 0.4966,-0.086 0.7755,-0.3656 0.4872,-0.4882 0.6463,-0.8488 -0.1551,-0.9869 -0.1687,-0.0291 -1.0146,-0.2099 -0.4288,-0.4478 0.2875,-0.109 0.2269,-0.2646 0.3741,-0.5027 0.1508,-0.2437 0.4048,-0.2611 0.6569,-0.3746 0.6258,-0.282 1.2624,-0.6788 1.9344,-0.8317 1.4206,-0.3234 0.7299,-1.5826 0.7299,-2.6045 0,-0.7506 -0.7309,-0.8612 -0.7573,-1.4713 -0.0143,-0.3292 -0.0115,-0.6147 -0.1916,-0.8865 -0.0721,-0.1087 -1.2934,-0.4167 -0.803,-0.5666 0.114,-0.0349 0.4279,-0.1149 0.4654,-0.2284 0.0044,0.0132 -0.0024,0.0152 -0.0091,0.0274 0.0696,-0.0934 0.002,-0.5951 0.0273,-0.7585 0.0323,-0.2092 0.1503,-0.414 0.1095,-0.6397 -0.0681,-0.3759 -0.5514,-0.7233 -0.7938,-1.0144 -0.5836,-0.7005 -0.0581,-1.8528 -0.6204,-2.7234 -0.0747,-0.1158 -0.511,-0.4386 -0.511,-0.5209 0.4636,-0.1146 1.0353,-0.5222 1.1953,-1.0052 0.0332,-0.1003 0.495,0.6435 0.8303,0.6031 0.3169,-0.0382 0.6566,-0.472 0.6934,-0.7676 0,-0.667 -0.9476,-1.1638 -1.542,-1.2155 -1.1835,-0.1029 -0.8137,-1.6562 -1.6788,-1.8277 0,-0.0595 0.4464,-0.1394 0.5018,-0.265 0.0702,-0.1588 0.2062,-0.1975 0.3376,-0.2925 0.3879,-0.2802 0.1825,-0.7958 0.1825,-1.1149 1.2739,0 1.0009,-1.3928 0.9215,-2.1658 0,-0.187 -0.2116,-0.3524 -0.1186,-0.5484 0.0758,-0.1595 0.1474,-0.2625 0.073,-0.4295 -0.1469,-0.3301 -0.6056,-0.6527 -0.6296,-1.0509 -0.0171,-0.2849 0.224,-0.4578 0.2373,-0.722 0.0187,-0.3688 -0.1424,-0.6257 0.2281,-0.8682 0.3842,-0.2516 0.7087,-1.0628 1.031,-1.2063 0.0088,-0.0627 0.3171,-0.2845 0.3741,-0.3929 0.1105,-0.2103 0.1597,-0.3793 0.2372,-0.6032 0.0727,-0.2104 0.3279,-0.8642 0.0183,-0.9961 0,-0.0814 0.0646,-0.144 0.1095,-0.2102 0.1659,-0.4576 0.1578,-1.0033 0.3376,-1.4348 0.1832,-0.4394 0.5414,-0.6392 0.5201,-1.1514 -0.0044,-0.108 -0.149,-0.5679 -0.1095,-0.5758 0.0475,-0.0951 1.459,-0.4363 1.6697,-0.53 0.5215,-0.2322 0.8204,-0.4025 0.9946,-0.9413 0.1996,-0.6176 -0.9399,-1.5583 0.1003,-1.974 0.4662,-0.1862 1.141,-0.1416 0.5657,-0.8224 -0.2952,-0.2971 -0.428,0.0634 -0.5839,0.2193 -0.2729,0.2729 -0.4372,-0.0087 -0.6387,-0.2102 -0.2455,-0.2455 -1.5055,-0.7462 -1.5055,-1.0509 0.1206,0 0.5021,0.1491 0.3011,-0.1006 -0.1364,-0.1696 -0.1995,-0.3838 -0.4471,-0.3838 -0.4476,0 -0.8708,-0.7185 -1.0037,-1.0784 -0.1188,-0.322 -0.5863,-0.3153 -0.7117,-0.5848l-0.5018 -1.0784 -0.2007 -0.6854c-0.0584,-0.1995 0.1732,-0.5263 0.1368,-0.7585l-0.146 -0.9322c0.0733,-0.2179 0.1248,-0.6593 0.0457,-0.8681 -0.1087,-0.2873 -0.3329,-0.2835 -0.3011,-0.6306 0.425,-0.4269 0.3856,-0.7973 -0.1004,-1.1332 -0.4875,-0.3368 -0.6944,0.0274 -1.177,0.0274 -0.4238,0 -0.3194,-0.4569 -0.657,-0.4569 -0.6696,0 -0.3308,0.7032 -0.2646,1.0875 0.0251,0.1463 -0.0223,0.2428 -0.0182,0.3838 -0.0932,0.7419 -1.2295,0.382 -1.0767,1.1515 0.095,0.4788 0.291,1.0417 0.6022,1.4256 0.2383,0.2941 0.3813,0.64 0.6022,0.923 0.3044,0.3897 0.6613,0.2154 0.7482,0.8316 0.5084,0.365 0.989,0.8311 1.25,1.4165 0.1072,0.2403 0.9034,1.4541 0.7208,1.5353 -0.3944,0.1756 -0.707,-0.2788 -0.9763,-0.4478 -0.0077,-0.0308 -0.0284,-0.0542 -0.0547,-0.0731 -0.0195,-0.1389 -0.1643,-0.1991 -0.1643,-0.3747 0,-0.1167 -0.0379,-0.2904 -0.0821,-0.3929 -0.0227,-0.0057 -0.036,-0.0415 -0.0456,-0.064 -0.1695,-0.0419 -0.3417,-0.3614 -0.6661,-0.4204 -0.221,-0.0364 -0.1491,-0.4315 -0.3102,-0.5391 -0.201,-0.1341 -0.5068,-0.0289 -0.6478,-0.1554 -0.2966,-0.2663 -0.3892,-1.0966 -0.9124,-1.0966 -0.3362,0 -0.2754,0.4713 -0.6296,0.3838 -0.0822,-0.3346 -0.7472,-0.6972 -0.7938,-1.0601 -0.0726,-0.5655 -0.0934,-1.0405 -0.3741,-1.5444 -0.2086,-0.3747 -0.3051,-0.3317 -0.2464,-0.7494 0.041,-0.0059 0.0533,-0.0513 0.0821,-0.0914 0.0536,-0.1951 -0.0821,-0.4834 -0.0821,-0.7037 0,-0.3166 0.1278,-0.6117 0.1278,-0.9139 0,-0.3914 -0.1084,-1.0079 0.073,-1.3251 0.1439,-0.0359 0.9741,-0.2361 1.0036,-0.3564 0.336,-0.0826 0.2503,0.5032 0.73,0.2194 0.4375,-0.2587 0.3243,-0.6984 0.6204,-0.9962 0.4483,0 1.3974,0.9965 1.7701,1.2977 0.3924,0.317 0.5892,-1.0896 0.7026,-1.3616 0.1531,-0.3674 -0.093,-1.0547 -0.2829,-1.3617 -0.2432,-0.393 -0.4329,-1.3343 -0.9489,-1.4348 -0.3906,-0.1734 -0.5813,-0.3274 -0.8485,-0.658 -0.2584,-0.3199 -0.8141,-0.184 -1.1406,-0.3289 -0.2576,-0.1142 -0.4495,-0.2947 -0.7208,-0.3747 -0.2374,-0.0699 -0.7581,-0.0473 -0.9307,-0.1828 -0.1981,-0.1557 -0.1312,-0.8271 -0.146,-1.0875 -0.0263,-0.4646 -0.0131,-0.4696 -0.374,-0.8316 -0.3113,-0.3121 0.113,-1.0144 -0.4745,-1.0144 0,-0.0697 0.3193,-0.2027 0.3193,-0.4935 0,-0.2569 0.0548,-0.5057 0.0548,-0.7494 -1.1808,0 -0.2213,0.701 -1.1953,1.1332 -0.5674,0.2518 -1.3396,0.8122 -1.9161,0.4204 -0.3809,-0.2272 -0.6134,0.0223 -0.8394,-0.5209 -0.0787,-0.189 -0.3561,-0.8135 -0.1004,-0.9413 0.8532,-0.4266 0.4839,-0.8276 0.2555,-1.517 -0.2196,-0.6626 -0.3176,-0.6658 -1.0493,-0.8134l-0.0091 -0.0091c0,-0.2134 0.4283,-0.6788 0.6478,-0.5757 0.4205,0.1974 1.3405,-0.3617 1.7336,-0.5118 0.1565,-0.0598 0.7896,-0.4717 0.8486,-0.4569 0.0738,0.2985 -0.1425,0.4675 -0.1095,0.7585 0.0276,0.2442 0.2898,0.8854 0.4379,1.0692 0.0641,0.0794 0.3395,0.7198 0.4836,0.6306 0.2017,-0.1247 -0.1769,-0.7452 -0.1368,-0.9048 0.1007,-0.0249 0.8294,-0.5061 0.8759,-0.3655 0.3838,0.0949 0.2267,1.3511 0.6296,1.5993 0.518,0.319 1.542,0.6978 1.8522,-0.1188 0.1555,-0.4093 -0.1916,-0.7092 -0.1916,-1.0967 0,-0.4851 -0.1503,-0.9204 -0.073,-1.4256 0.0821,-0.5362 -0.2105,-0.7464 -0.3741,-1.1789 -0.092,-0.2431 -0.0326,-0.5402 -0.1734,-0.7677 -0.2301,-0.372 -0.7377,-0.4984 -1.1405,-0.6031 -0.2076,-0.054 -0.6049,0.0797 -0.7391,0 -0.0178,-0.0906 0.0611,-0.7015 0.1004,-0.7677 0.116,0 0.358,0.2909 0.3832,0.393 0.6528,0.1288 1.4819,-0.0652 1.8157,0.5392 0.5505,0.9971 1.1653,0.6629 1.6424,-0.2011 0.3098,-0.5612 0.4471,-0.7372 0.4471,-1.3799 -0.1079,-0.0901 -0.2867,-0.6162 -0.4288,-0.7951 -0.2278,-0.287 -0.5316,-0.3446 -0.8212,-0.53 -0.6201,-0.3969 -0.7263,-0.9288 -1.2227,-1.4256 -0.0213,-0.0857 -0.6319,-0.4892 -0.2555,-0.5118 0.254,-0.0153 0.6479,0.1051 0.6479,-0.2833 0,-0.7607 -0.1056,-1.0051 -0.7938,-1.2155 -0.7725,-0.2363 1.0756,-2.3386 0.7573,-2.6045l-1.5968 -1.3342c-1.052,-0.8789 -2.9142,1.2513 -3.2573,2.3669 -0.2896,0.9414 0.6022,0.9574 0.6022,0.3198 0.0364,0.1117 1.0559,2.2769 -0.0913,1.3708 -0.5777,-0.4562 -0.8483,-1.234 -1.3777,-1.718 -0.4554,-0.4162 -0.0649,-0.9068 0.2007,-1.3434 0.2147,-0.3527 0.6447,-1.3819 0.0821,-1.6176 -0.3254,-0.1364 -0.658,-0.5356 -0.9398,-0.6123 -0.7004,-0.1906 -0.4967,0.7148 -0.6661,0.7586 -0.1867,0.0484 -0.2193,-0.4282 -0.1186,-0.5484 0,-1.1276 0.1466,-2.3193 -0.9398,-2.9609 -0.3503,-0.2068 -1.9799,-1.5572 -1.9799,-1.9008l0.0091 -0.0092c0.2518,-0.0622 0.5107,0.0338 0.7025,-0.1736 0.2177,-0.2356 0.2308,-0.4627 0.5475,-0.6306 0.4363,-0.2312 0.7125,-0.9788 0.1825,-1.3068 -0.419,-0.2592 -0.8111,0.489 -1.2592,0.4204 -0.5061,-0.0776 -1.1909,-0.4953 -0.8211,-1.0601 0.2731,-0.5893 0.3535,-0.8559 0.7846,-1.3708 0.088,-0.105 0.7984,-0.7582 0.8668,-0.5483 0.0251,0 0.0172,0.0086 0.0365,0.0182 0.0391,0.1556 0.013,0.1167 -0.0091,0.2742 -0.2198,0.1254 -0.7704,0.4387 -0.5383,0.7311 0.2393,0.3013 0.9243,0.461 1.2865,0.4021 0.9289,-0.1511 0.2941,-1.2908 -0.219,-1.517 -0.1091,-0.048 -0.4836,0.0017 -0.4836,-0.1554 0,-0.1858 0.3295,-0.1575 0.365,-0.265l0.0183 -0.0092c0,-0.0516 -0.041,-0.1161 -0.106,-0.1858l0 0 187.764 0.0628 0 0z"/>
 </g>
</svg>
