<?xml version="1.0" encoding="UTF-8"?>
<!DOCTYPE svg PUBLIC "-//W3C//DTD SVG 1.1//EN" "http://www.w3.org/Graphics/SVG/1.1/DTD/svg11.dtd">
<!-- Creator: CorelDRAW -->
<svg xmlns="http://www.w3.org/2000/svg" xml:space="preserve" width="297mm" height="210mm" style="shape-rendering:geometricPrecision; text-rendering:geometricPrecision; image-rendering:optimizeQuality; fill-rule:evenodd; clip-rule:evenodd"
viewBox="0 0 297 210"
 xmlns:xlink="http://www.w3.org/1999/xlink">
 <defs>
  <style type="text/css">
   <![CDATA[
    .str2 {stroke:#2F3133;stroke-width:0.1}
    .str1 {stroke:black;stroke-width:0.1;stroke-opacity:0.501961}
    .str0 {stroke:black;stroke-width:0.1}
    .str3 {stroke:black;stroke-width:0.5}
    .fil5 {fill:none}
    .fil0 {fill:white}
    .fil2 {fill:#1F1A17;fill-rule:nonzero}
    .fil3 {fill:#C2C1C1;fill-rule:nonzero}
    .fil4 {fill:white;fill-rule:nonzero}
    .fil6 {fill:black;fill-rule:nonzero}
    .fil1 {fill:white;fill-rule:nonzero;fill-opacity:0.501961}
   ]]>
  </style>
 </defs>
 <g id="Plan_x0020_1">
  <metadata id="CorelCorpID_0Corel-Layer"/>
  <path class="fil0 str0" d="M115.14 16.2852l-0.0825 48.1027 41.6587 -0.0197 0 0 -0.5615 27.2454c0.0794,0.0032 0.1714,-0.0659 0.2469,-0.0657 0.3852,-0.2144 0.8558,-0.1137 1.2774,-0.3473 0.4192,-0.2324 0.6295,-0.5411 0.9306,-0.9139 0.5065,-0.6274 1.2365,-2.214 2.0074,-2.5223 0.7806,-0.3121 1.0569,-0.1041 1.4598,-1.0052 0.5768,-1.2902 1.5807,-0.195 2.2628,-0.7859 0.352,-0.3048 0.3718,-0.8588 0.7847,-1.2246 0.2138,-0.1895 0.4323,-1.4866 0.6752,-1.5902 0.8113,-0.3461 1.4462,-0.0237 1.8796,-1.06 0.2436,-0.5823 0.6725,-0.3191 1.0949,-0.6763 0.4083,-0.3454 0.4254,-1.6102 0.8577,-1.1698 1.0496,1.0696 1.3091,-0.9664 1.6058,-1.846 0.7491,-2.2211 1.6962,-0.2747 2.6278,-1.2063 0.6126,-0.6126 0.588,0.5691 1.3139,0.8591 1.1989,0.479 1.8443,1.7117 2.7008,-0.1463 0.5758,-1.2489 1.9376,-1.9397 2.7555,-3.0888 0.4379,-0.6153 0.876,-1.2307 1.3139,-1.846 1.0488,-1.4737 0.2895,-0.5626 1.0766,-1.8461 0.4744,-0.7737 0.949,-1.5475 1.4234,-2.3212 0.6814,-1.1114 0.2983,1.1 0.657,1.2794 0.3355,0.1679 1.5281,-0.7761 1.5511,-0.1645 0.0318,0.8457 -1.0949,0.5115 -1.3504,1.0236 -0.4317,0.8655 1.7419,1.2986 2.1168,2.1019 0.9039,1.9363 3.8631,1.7666 5.5914,1.8107 0.0406,0.001 0.0811,0.0021 0.1213,0.0032 0.0558,-0.0146 0.1275,-0.0228 0.2178,-0.0228 0.8658,0 4.0193,0.8688 4.4161,-0.3289 0.2544,-0.7676 0.9269,-0.802 0.6752,-1.5536 -0.2003,-0.5979 -1.5598,-0.9759 -1.2227,-1.6815 0.3451,-0.7226 2.089,1.0917 2.3541,0.3838 0.313,-0.836 -1.0356,-1.3598 -1.0037,-2.0654 0.036,-0.798 1.6689,0.4868 2.0803,0.457 0.0346,-0.0025 0.0301,-0.0062 0.0547,-0.0366 0.1114,-0.1372 -0.5541,-0.8854 -0.0547,-0.7311 0.2649,0.0819 0.8864,0.4098 0.6204,-0.3107 -0.5133,-1.3907 0.5892,-0.4629 1.2957,0.0183 0.6893,0.4694 1.4145,0.4913 2.208,0.4569 0.8084,-0.035 1.0087,-1.4519 1.4964,-1.8825 0.2495,-0.2202 2.4276,-1.7274 2.6277,-1.7364 1.445,-0.0656 3.4972,0.8497 4.3614,2.1567 0.6701,1.0136 1.3854,2.6942 2.6643,2.9061 0.5961,0.0988 0.7234,-0.4706 1.1496,-0.6397 0.4755,-0.1886 0.2609,0.7444 0.9124,0.6946 1.0255,-0.0783 -0.4128,-1.4817 0.2555,-1.4439 0.2377,0.0134 1.9697,2.0138 2.1898,0.7859 0.2258,-1.2602 2.7451,0.0911 2.0073,1.5536 -0.5609,1.112 -1.774,0.4355 -2.0438,0.8407 -0.21,0.3156 0.3368,0.821 0.5109,1.0053 0.296,0.3136 -0.1251,0.787 0.292,1.0601 0.2958,0.1937 0.8547,-0.0276 1.0037,-0.3108 0.231,-0.4392 0.6724,0.0969 0.4014,0.4204 -0.2526,0.3017 -0.9912,0.5586 -0.3832,1.0236 0.3515,0.2687 1.3271,0.3206 1.7701,0.2558 0.19,-0.0278 1.4385,-0.6891 0.9672,0.1828 -0.2145,0.3967 -1.3813,0.4829 -0.9854,1.0418 0.4023,0.5681 0.8478,0.2514 -0.1825,0.6397 -0.1268,0.0477 0.7516,0.7216 0.3832,0.7494 -0.4284,0.0323 -0.5651,0.3776 -0.1277,0.5483 0.7643,0.2982 1.873,0.1301 1.9525,1.1332 0.0392,0.4948 0.5513,1.0379 0,1.4074 -0.8495,0.5692 0.334,0.9816 -0.1095,1.4439 -0.3091,0.3221 -0.8855,0.5084 -0.7664,0.9504 0.1122,0.416 1.1267,0.3773 1.4781,0.5118 0.0634,0.0243 0.1278,0.0441 0.1929,0.06l0 0 -4.0151 10.3123 -20.42 -16.9887 -0.5931 0.9595c-0.1712,0.3005 -0.1606,0.8123 -0.219,1.1515 -0.0545,0.317 -0.1784,0.6848 -0.1003,1.0053 0.0513,0.2104 0.2439,0.3786 0.2737,0.6214 0.0478,0.3896 -0.0995,0.7003 -0.3559,0.9778 -0.458,0.4954 -0.0106,0.7105 0.4563,0.7951 0.0291,0.0325 0.0518,0.0421 0.0912,0.064 0.2041,0.4906 0.1021,0.8851 -0.2007,1.3251 -0.589,0.957 -1.2367,1.9507 -1.9435,2.8147 -0.7444,0.9098 -0.146,1.1208 -0.146,2.0653 0,0.4531 -0.5562,0.992 -0.8851,1.2612 -0.2441,0.7358 0.3349,0.9747 0.5475,1.581 0.0599,0.3017 0.3886,0.5312 0.1277,0.8316l-0.7938 0.9139c-0.5603,0.6451 -1.1033,2.0133 -2.0712,2.1019 -0.0545,0.0478 -0.319,0.1512 -0.3923,0.1644l-2.7373 3.0706c-0.2132,0.4288 -0.0385,0.591 0.1551,0.9505 0.1931,0.3583 -0.2225,0.6431 -0.4471,0.8956 -0.5441,0.6119 -0.9131,2.3342 -1.7975,1.4896 -0.6078,-0.5803 -0.7554,-0.0478 -1.104,0.5117 -0.5017,0.805 -1.2017,1.6681 -1.907,2.303 -1.1994,1.0799 -1.1344,0.6778 -1.25,-0.6123 -0.576,-0.3461 -1.222,1.2751 -1.7245,1.5261 -0.2647,0.3992 -0.6529,0.8703 -1.0128,1.1789 -0.2993,0.9005 -0.8824,1.7697 -1.2409,2.6685 -0.3868,0.9694 -0.9262,1.7873 -1.4325,2.6868 -0.3064,0.5442 -0.4201,0.532 -0.9398,0.4021 -0.0797,-0.0798 -0.143,-0.1234 -0.2463,-0.1736l-4.3432 -3.6007 -0.7482 0.9961c-0.3558,0.4082 -0.6232,0.7549 -0.9124,1.2155 -0.2701,0.4304 -0.5161,0.4295 -0.9854,0.4295 -0.3344,0.2932 -0.1875,0.8673 -0.2464,1.2794 -0.0748,0.5241 -0.2524,0.9628 -0.4745,1.4348 -0.4101,0.8718 -1.0495,1.1833 -0.4835,2.2024 0.0848,0.1916 0.3274,0.8773 0.1459,1.0327 -0.0774,1.1004 -1.9019,1.0637 -2.4635,1.7912 -0.6163,0.7982 -0.3583,2.1944 -0.8759,3.0797l-0.9672 1.6541c-0.0285,0.3476 -0.3501,0.9006 -0.4927,1.2337 -0.1846,0.4309 -0.2109,0.8319 -0.3102,1.2795 -0.1951,0.8797 -0.6453,1.4823 -1.3504,2.0105 -0.5487,0.4109 -0.864,0.907 -1.3322,1.3708 -0.6472,0.6409 -0.7265,0.9504 -1.6515,0.9504 -0.4493,-0.3507 -1.6001,-0.6006 -2.2081,-0.8042l-2.5091 -0.8408c-1.5712,-0.6288 -2.1502,-0.7456 -2.7556,-2.3395l-1.1314 -2.9792c-0.3606,-0.2259 -0.598,-0.455 -1.0584,-0.5849 -0.4147,-0.1169 -1.2602,-0.288 -1.5785,-0.5574 -0.4008,-0.0499 -0.7433,-0.5129 -1.104,-0.6032 -0.0409,-0.0454 -0.18,-0.133 -0.2373,-0.1462 -0.5788,-0.5802 -0.9596,0.6314 -1.1131,0.9778 -0.3003,0.6778 -0.595,0.986 -0.3285,1.7455 0.0219,0.4012 0.3238,0.7988 -0.1004,1.1149 -0.2768,0.2064 -0.8338,0.451 -0.9854,0.7677 -0.4558,0.9521 -0.066,1.5581 0.073,2.4949 0.1062,0.7164 -0.0796,1.1552 -0.5109,1.6998 -0.5328,0.6729 -1.095,0.9057 -1.095,1.8642 -0.0235,0.0039 -0.0146,-0.0039 -0.0182,-0.0274 0,0.345 -0.0637,0.5525 -0.1734,0.8591 -0.72,0.36 -1.2243,0.3264 -1.5237,1.1789 -0.2198,0.6256 -1.2917,0.7974 -1.1953,1.3799 0.0602,0.3635 0.3248,0.8816 0.5201,1.1972 0.3314,0.5357 -0.4704,1.0854 -0.8303,1.3525 -0.6369,0.4729 -1.3844,1.1375 -1.8705,1.7729 -0.2547,0.305 -0.6481,0.4909 -0.8577,0.8408 -0.4817,0.3211 -1.1757,0.8367 -1.3686,1.389 -0.2409,0.6901 0.1074,1.2999 -0.3832,1.9557 -1.3399,0.6699 0.3584,1.8087 -0.803,2.6776 -0.1254,0.2364 -0.3885,0.6674 -0.5657,0.8591 -0.3706,1.1161 -0.7967,2.2475 -1.3504,3.2808 -0.5394,1.0064 -1.4592,1.7321 -2.2628,2.5131 -0.4678,0.4545 -1.2094,0.8317 -1.6059,1.316l-0.1186 0.0365c-0.6754,0.5421 -1.0808,1.3684 -1.7245,1.91 -0.7196,0.6056 -1.2124,-0.3009 -1.5146,1.0327 -0.1123,0.4954 -0.3212,1.1233 -0.5748,1.5536 -0.3816,0.6478 -0.758,1.2245 -1.2227,1.8003 -0.3238,0.4013 -0.3402,0.2376 -0.1551,0.7494l0.1004 0.0639c0.3642,1.0966 -0.7366,0.5879 -1.1588,1.1424 -0.3291,0.4323 -0.3924,1.0958 -0.219,1.5992 0.1724,0.5007 -0.0154,0.6079 -0.3558,0.923 -0.4679,0.4329 -1.0907,0.6857 -1.6242,1.0144 -0.812,0.5001 -0.5555,0.6561 0.073,1.1881 0.297,0.2515 1.7851,1.4896 2.1169,1.4896 0,-0.014 -0.0071,-0.0099 -0.0183,-0.0183 0.3084,0.2313 0.5899,0.5904 0.876,0.7951 0.0889,0.7196 -0.6236,0.8087 -1.095,1.2611 -0.6414,0.6157 -1.3257,1.0084 -2.062,1.4622 -0.401,0.2472 -0.7742,0.2717 -0.5566,0.859 0.1534,0.4138 -0.2095,1.0156 0.1003,1.2886 0.2196,0.1934 0.5215,-0.0382 0.7574,-0.064 0.0777,-0.1095 0.2799,0.0489 0.3193,0.1279 0.0991,0.1991 0.0631,0.3968 -0.0091,0.5941 -0.1325,0.3616 -0.5572,0.7739 -0.8942,0.9321l-1.2956 0.4661 -1.4508 0.795 -3.2209 2.303c-2.0666,1.4777 -0.6294,-2.3193 -2.4362,-2.3761 -1.1964,-0.0376 -2.5904,0.8233 -3.3851,1.7181l-0.1368 0.0091c-1.0764,0.6468 -1.9044,1.5091 -3.1023,2.0837 -0.6586,0.316 -2.6279,1.7094 -3.3121,1.3799 -0.4041,-0.1947 -0.2646,-0.804 -0.7208,-0.9139 -0.8112,-0.1953 -0.9886,-1.0493 -1.5876,-1.2611 -0.3604,-0.1275 -0.8062,0.5788 -1.1927,1.0846 -0.1821,0.2384 -0.2688,0.2585 -0.4789,0.4734 -0.0653,0.5967 0.3919,1.0976 0.6497,1.6223 0.2616,0.5322 -1.0097,1.0351 -1.3504,1.2885 -0.0579,0.4032 -1.3394,1.222 -1.7063,1.4165 -0.7773,0.4119 -1.2311,0.1468 -1.9617,0.0914 -0.0901,-0.0827 -0.2117,-0.0842 -0.292,-0.1645 -0.7616,-0.0627 -1.3686,0.4481 -2.0986,0.658 -0.817,0.2348 -1.7132,0.1681 -2.5456,0.3107 -1.7246,0.2954 -2.4097,0.7597 -3.7045,1.8643 -0.3338,0.2225 -1.0748,0.4989 -1.4872,0.3564 -0.4718,-0.1629 -0.5477,-0.5268 -0.9033,-0.722 -0.1272,-0.5327 -1.6518,-1.791 -2.126,-2.0562 -0.7917,-0.4427 -1.1427,-1.3322 -1.8431,-1.8186 -0.4261,-0.2958 -0.8457,0.5749 -1.177,0.8042 -0.2755,0.1908 -0.5666,0.256 -0.7026,0.6032 -0.1464,0.3735 -0.1553,0.8852 -0.4106,1.2063 -0.4177,0.5256 -2.1764,1.1698 -2.865,1.1698 -0.6145,0 -0.6346,0.2682 -0.584,0.795l-0.0091 0.0274c-0.9212,0.9262 -1.8667,1.315 -3.1387,1.5353 -1.2381,0.2144 -3.048,0.4187 -4.2337,-0.0731 -0.2088,-0.0866 -0.4821,-0.2829 -0.6843,-0.3381 -0.1988,-0.2429 -0.5167,-0.4128 -0.6661,-0.6945 -0.3115,-0.3821 -0.8532,-0.463 -1.1223,-0.9505 -0.1645,-0.2979 -0.077,-0.8153 -0.4197,-0.9869 -0.9667,-0.4839 -1.3783,-0.7468 -2.4909,-0.5666 -0.6739,0.1092 -1.1859,0.0153 -1.4873,-0.6672 -0.2742,-0.6212 -0.4093,-1.5328 -1.0402,-1.8825 -0.7073,-0.3919 -1.9794,-1.2549 -2.0803,-2.175 -0.0512,-0.0514 -0.0375,-0.0612 -0.0456,-0.1463 -0.0963,-0.3549 0.1813,-0.9162 0.3011,-1.252 0.1427,-0.4003 0.0732,-0.8277 0,-1.2337 -0.2027,-1.1247 -1.3615,-1.1129 -2.126,-1.5993 -0.2116,-0.1347 -0.3817,-0.3297 -0.5839,-0.4569 -0.2627,-0.7911 0.552,-1.1732 1.1131,-1.4256 0.7655,-0.3444 0.8323,-0.9969 0.5292,-1.6673 -0.1097,-0.1117 -0.1947,-0.2068 -0.2366,-0.2701 -0.0815,-0.1228 -0.1582,-0.2163 -0.2338,-0.2864l0 0c-0.3274,-0.304 -0.6343,-0.1734 -1.2261,-0.134 -1.0013,0.0668 -0.5103,0.6008 -1.4599,-0.0548 -0.721,-0.4979 -0.7089,0.6522 -1.1861,0.4386 -0.2154,-0.0964 -0.1765,-0.526 -0.3102,-0.7128 -0.7277,-1.016 -4.071,0.6273 -2.4453,-1.645 0.4152,-0.5803 -1.4849,-1.2462 -1.7336,-1.9008 -0.1413,-0.3719 0.0112,-1.4687 -0.4927,-1.2611 -0.3765,0.155 0.0743,1.0171 -0.3285,1.2245 -0.3598,0.1854 -1.2293,-1.6957 -1.9343,-2.0287 -0.7229,-0.3416 -2.2695,-0.5155 -2.5001,-1.444 -0.4094,-1.6489 -1.1578,-2.8211 -1.3139,-4.5327 -0.0092,-0.1013 -0.1563,-0.3024 -0.2372,-0.3839 -0.082,-0.0828 -0.2091,-0.1905 -0.292,-0.2559 -0.0378,-0.0297 -0.0664,-0.0677 -0.1095,-0.0913 -0.136,-0.0748 -0.259,-0.1739 -0.4197,-0.2011 -0.1939,-0.0328 -0.0482,-0.0106 -0.3102,-0.1828 -0.3742,-0.2458 -0.4273,-0.6693 -0.7299,-0.8042 -0.2507,-0.1117 -0.4626,0.5604 -0.7482,0 -0.2797,-0.549 -0.4177,-1.5088 -0.657,-2.1384 -0.1707,-0.4494 0.1341,-0.9542 0,-1.316 -0.2205,-0.5949 -0.9202,-0.9703 -1.3868,-1.3891 -0.3147,-0.2826 -0.624,0.2327 -0.8212,-0.0365 -0.3328,-0.454 -0.866,-0.9729 -0.7482,-1.517 0.1438,-0.6646 0.8727,-0.5942 0.7117,-1.2246 -0.1299,-0.5088 0.3677,-0.6695 0.3284,-0.8956 -0.0074,-0.0424 -0.0436,-0.007 -0.0547,-0.0366 -0.0759,-0.2031 -0.8247,-0.0221 -0.8759,-0.3838 -0.0626,-0.4429 -0.2361,-0.5469 -0.657,-0.6763 -0.7754,-0.2384 -0.8627,-1.1694 -1.2591,-1.7911 -0.6257,-0.981 -1.3924,-2.8877 -2.2573,-3.5445 0.003,-0.12 0.0007,-0.2479 -0.0055,-0.3852 -0.0368,-0.8148 -1.1345,-1.2176 -1.4599,-1.9557 -0.628,-1.424 1.3828,-0.9661 1.5876,-1.9922 0.2056,-1.0307 0.3419,-1.2339 -0.073,-2.1202 -0.4421,-0.9447 0.8609,-0.6334 1.0767,-1.2977 0.1606,-0.4941 0.0182,-1.0087 0.0182,-1.517 0,-0.5498 0.393,-1.3054 0.2738,-1.7729 -0.2192,-0.8594 -1.4177,-0.9367 -1.4599,-1.8277 -0.0315,-0.6652 0.6717,-2.9653 0.6327,-3.2191l0.0001 0c0.1323,0.2954 0.2872,0.5699 0.4803,0.8065 0.23,0.282 0.5949,0.4386 1.1862,0.4386 1.6449,0 4.7701,-2.2631 6.022,-1.846 0.6791,0.2263 3.0041,0.203 3.2664,-0.7311 0.5998,-2.1357 0.4696,-4.7835 1.3504,-6.7809 0.7109,-1.6119 1.3642,-0.5446 2.5731,-0.4386 0.8231,0.0721 2.2297,-0.0987 1.9708,-1.444 -0.2274,-1.1819 -0.8704,-2.2638 -0.5657,-3.4909 0.331,-1.3333 0.0956,-2.4875 -0.4745,-3.6007 -0.3156,-0.6165 -0.9489,-0.2985 -0.9489,-1.1332 0,-0.6736 0.1705,-1.023 0.6935,-1.4622 0.6264,-0.5262 1.7495,-0.1926 2.0985,-1.1514 0.1258,-0.3457 0.4487,-1.4512 0.365,-1.8278 -0.1691,-0.7612 -0.1221,-1.1072 0.4562,-1.9008 0.629,-0.8633 0.7026,-1.9902 1.1679,-2.9244 0.4103,-0.824 0.7547,-0.6939 1.4234,-1.1149 0.6983,-0.4395 1.6829,-3.2124 2.6642,-1.9557 0.3446,0.4412 0.8902,1.8079 1.4782,1.5901 1.5477,-0.5732 1.9667,1.1698 2.281,2.3944 0.195,0.7597 0.0918,0.9777 -0.4014,1.5536 -0.2102,0.2454 -0.5303,1.1492 -0.1278,1.5353 1.0871,1.0427 2.6702,-0.3848 2.8833,-1.3891 0.2885,-1.3601 1.1967,-2.864 2.0256,-0.8225 0.1898,0.4674 1.4079,0.9177 1.6241,0 0.1617,-0.6861 -0.6453,-1.0578 -0.8577,-1.5901 -0.4184,-1.048 0.8879,-2.1249 0.4927,-3.0889 -0.2383,-0.5811 -3.1983,-3.0158 -1.6424,-3.3265 0.7248,-0.1447 1.326,0.4707 1.9709,-0.2559 0.654,-0.737 0.7575,-1.4338 0.7117,-2.3395 -0.0643,-1.2735 -0.8988,-2.2118 0.1094,-2.9975 0.5298,-0.413 -0.2292,-1.2491 0.5292,-1.4073 2.0342,-0.4243 0.2039,-3.731 3.8505,-2.8696 2.6904,0.6356 2.4957,-0.3048 2.6642,-2.5954 0.1405,-1.9095 1.5441,-1.3489 2.3541,-2.5405 1.4201,-2.0888 3.5542,-2.5044 4.0146,0.3473 0.4268,2.6433 4.4646,-0.3662 5.6206,-0.8591 0.3987,-0.1699 0.8786,-0.7301 1.1131,-0.2924 0.5969,1.1142 1.1221,-0.7816 1.1862,-0.9322 0.2322,-0.5456 1.2112,-1.8277 1.8431,-1.8277 1.8281,0 1.495,-1.1043 2.4817,-2.3395 1.6154,-2.0223 3.1847,-3.9577 5.2008,-5.666 1.0323,-0.8748 1.2765,-1.0242 2.5548,-1.0966 0.3193,-0.0181 1.011,-0.3485 1.2227,-0.5849 0.3983,-0.445 -0.0647,-0.7903 0.1095,-1.1698 0.4351,-0.9475 -0.4467,-2.1114 0.6752,-2.3943 2.3568,-0.5945 -0.6386,-2.8331 -0.6022,-3.6006 0.0421,-0.8893 1.3374,-1.0743 1.6241,-1.8826 0.3088,-0.8709 -0.3382,-1.3284 -0.073,-2.1019 0.1086,-0.317 1.0624,-0.7832 1.2409,-1.0235 0.3144,-0.4233 0.1722,-0.7906 -0.073,-1.115 -0.4104,-0.5427 -0.729,-1.8266 0.2555,-1.7363 0.6632,0.0609 1.4769,1.0117 1.3503,-0.2011 -0.0611,-0.5854 -0.8564,-2.2007 0.3285,-2.047 0.9311,0.1208 0.2062,-2.4832 0.365,-3.162 0.162,-0.693 0.3649,-1.0164 0.3649,-1.7912 0,-0.2873 -0.1874,-0.5579 -0.2007,-0.8407 -0.0209,-0.4442 0.1095,-0.5872 0.3102,-0.6215 1.0927,-0.1866 0.6123,-2.3966 0.7482,-3.1071 0.1096,-0.5728 0.3116,-1.12 0.657,-1.6084 0.2734,-0.3864 1.0449,-1.3194 1.0766,-1.7912 0.0615,-0.9145 0.1059,-1.7348 1.0219,-2.1019 0.7485,-0.2999 1.0133,-0.6265 0.8577,-1.4074 -0.1163,-0.5834 -0.0921,-1.1941 0.4015,-1.6084 0.931,-0.7812 0.0684,-0.9198 -0.219,-1.5718 -0.0884,-0.2006 0.3824,-1.5499 0.1642,-1.8643 -0.189,-0.2722 -1.0972,-0.9461 -0.6934,-1.2429 0.4576,-0.3362 0.9682,-0.3492 0.8394,-1.0966 -0.0498,-0.2893 -0.2172,-0.9305 -0.1095,-1.1881 0.229,-0.5478 0.5698,-0.737 0.7117,-1.389 0.1371,-0.6302 -0.8454,-1.002 -1.1131,-1.4439 -0.5326,-0.8795 -0.6472,-2.4121 -1.1132,-3.4545 -0.2479,-0.5545 -1.2397,-1.2492 -0.2007,-2.0653 1.9706,-1.548 2.332,-0.4324 3.9051,-1.5536 0.2757,-0.1966 0.8698,-0.5377 1.4763,-0.7641l0 0z"/>
 </g>
</svg>
