<?xml version="1.0" encoding="UTF-8"?>
<!DOCTYPE svg PUBLIC "-//W3C//DTD SVG 1.1//EN" "http://www.w3.org/Graphics/SVG/1.1/DTD/svg11.dtd">
<!-- Creator: CorelDRAW -->
<svg xmlns="http://www.w3.org/2000/svg" xml:space="preserve" width="210mm" height="297mm" style="shape-rendering:geometricPrecision; text-rendering:geometricPrecision; image-rendering:optimizeQuality; fill-rule:evenodd; clip-rule:evenodd"
viewBox="0 0 210 297"
 xmlns:xlink="http://www.w3.org/1999/xlink">
 <defs>
  <style type="text/css">
   <![CDATA[
    .str2 {stroke:#2F3133;stroke-width:0.1}
    .str1 {stroke:black;stroke-width:0.1;stroke-opacity:0.501961}
    .str0 {stroke:black;stroke-width:0.1}
    .str3 {stroke:black;stroke-width:0.5}
    .fil5 {fill:none}
    .fil0 {fill:white}
    .fil2 {fill:#1F1A17;fill-rule:nonzero}
    .fil3 {fill:#C2C1C1;fill-rule:nonzero}
    .fil4 {fill:white;fill-rule:nonzero}
    .fil6 {fill:black;fill-rule:nonzero}
    .fil1 {fill:white;fill-rule:nonzero;fill-opacity:0.501961}
   ]]>
  </style>
 </defs>
 <g id="Plan_x0020_1">
  <metadata id="CorelCorpID_0Corel-Layer"/>
  <path class="fil0 str0" d="M164.121 200.31c-0.0991,-0.4181 -0.0799,-0.774 -0.1564,-1.2263 -0.0866,-0.5124 -0.0238,-1.1673 -0.0238,-1.6829 0,-0.16 0.1879,-0.6487 0.0119,-0.6923 -0.0124,-0.0208 -0.0091,-0.026 -0.0238,-0.0358 0,-0.2636 -0.0566,-0.7199 -0.1073,-0.9907 0,-0.8167 0.1912,-1.8688 0.6197,-2.5423 0.2652,-0.4167 0.6582,-1.3999 0.6197,-1.8739 -0.0392,-0.4838 -0.2637,-0.7432 -0.0358,-1.301 0.0762,-0.1867 0.4755,-0.4126 0.4886,-0.4655 0.2368,-0.0398 -0.394,-0.5905 -0.4886,-0.6326 -0.2793,-0.1246 -0.6444,-0.5747 -0.8937,-0.7758 -0.4686,-0.3778 -0.8078,-1.6997 -1.0249,-2.2798 0.1605,-0.1605 -0.1869,-0.8282 -0.0834,-1.0981 0.1288,-0.3356 -0.0092,-0.5563 -0.0953,-0.919 -0.218,-0.9186 0.3987,-1.5555 -0.4767,-2.2678 -0.5741,-0.467 -0.8281,-1.011 -0.7746,-1.7785 0.0357,-0.5113 1.0126,-1.3115 0.7984,-1.7426 -0.1475,-0.2971 -0.0961,-0.798 -0.3098,-1.0623 -0.3154,-0.3898 -0.7931,-0.4921 -0.6435,-1.0981 0.0091,0.0137 0.0035,0.0197 0,0.0358 0.0818,-0.4954 0.4767,-1.1738 0.4767,-1.5874 0,-0.4867 -0.3705,-0.7544 -0.4052,-1.1817 -0.0215,-0.2644 0.0828,-0.6716 -0.2026,-0.8355 -0.0302,-0.2144 -0.2578,-0.3701 -0.2741,-0.6445 -0.0175,-0.2938 -0.0122,-0.5714 0.0477,-0.8594 0.1298,-0.6245 0.4485,-1.0595 0.6316,-1.6233 0.3428,-1.056 0.1231,-2.1606 0.5481,-3.2107l1.001 -1.6591c0.2245,-0.3722 0.8223,-1.1588 0.8223,-1.5994 0.566,-0.6612 0.2742,-2.639 0.4409,-3.5091 0.1895,-0.9896 0.8928,-2.0925 1.3466,-3.0317 0.682,-1.229 1.2418,-2.0258 0.9295,-3.3898 -0.0752,-0.3283 0.1396,-0.7515 0.1788,-1.0742 0.009,-0.0749 -0.0016,-0.4354 0.0715,-0.4535 0.0076,-0.0311 0.0399,-0.0406 0.0477,-0.0717 0.0334,-0.0082 0.112,-0.0899 0.0595,-0.1074 0,-0.0404 -0.1487,-0.2163 -0.1906,-0.2268 -0.1129,-0.4479 -0.4823,-0.9668 -0.6197,-1.5039 -0.1505,-0.5886 0.0991,-1.3026 -0.1311,-1.8739 -0.175,-0.4341 -0.245,-0.81 -0.0238,-1.2532 0.2124,-0.373 0.0863,-1.2028 0.2621,-1.6591 0.1751,-0.4543 0.2175,-0.7609 0.5482,-1.1697 0.1809,-0.2237 0.1009,-0.4745 0.1788,-0.7281 0.1308,-0.426 0.0553,-0.9633 0.286,-1.3726 0.1383,-0.2453 0.4592,-1.4227 0.7388,-1.492 0.1474,-0.5947 0.0365,-1.4324 0.286,-1.9575 0.3782,-0.7963 1.1171,-1.0474 1.7518,-1.6829 1.2814,-0.6434 1.985,-1.3029 2.3357,-2.6736 0.3284,-1.2833 -0.6272,-2.3943 -0.9772,-3.533 -0.121,-0.394 -0.0688,-1.9756 0.2741,-2.2201 0.0054,-0.0443 0.3019,-0.5756 0.3336,-0.5968 0.0468,-0.3728 -0.0316,-0.8341 0.1311,-1.1816l0.3814 -1.3727c0.0912,-0.3284 0.0523,-0.6259 0.0715,-0.9668 0.0406,-0.7221 0.3779,-1.5856 0.5124,-2.3274 0.2146,-1.184 0.8023,-3.2861 1.7279,-4.0343 0.2654,-0.2146 0.4521,-0.6761 0.6912,-0.8475 0,-0.0787 0.146,-0.313 0.1787,-0.3939 0.3544,-0.4713 0.4435,-1.1504 0.7985,-1.6829 0.2139,-0.321 0.6212,-1.3333 0.6435,-1.7068 0.0248,-0.4166 0.0041,-0.7804 0.2502,-1.122 0.3583,-0.4976 0.1795,-0.9199 0.441,-1.3368 0.3277,-0.5226 0.9652,-0.751 0.9652,-1.3726 0,-0.5135 0.4734,-0.6887 0.5601,-1.0384 0.2926,-0.0737 1.1812,-0.4209 1.2751,-0.7997 0.5563,-0.1124 0.2713,-0.6916 0.0477,-1.0026 -0.6023,-1.0534 2.0172,-0.8548 0.9652,-1.9098 -0.5542,-0.5559 -0.0111,-2.0328 0.5124,-2.411 0.6066,-0.4384 0.9559,-0.8525 1.1083,-1.6471 0.0683,-0.356 0.027,-0.6543 0.1192,-1.0265 0.0218,-0.0055 0.0184,-0.002 0.0238,-0.0239 0.1948,-0.0483 0.5284,-0.2066 0.5958,0.1313 0.1103,0.5525 0.035,0.4722 0.3933,0.3819 0.085,-0.3432 0.2737,-0.3937 -0.0477,-0.7161 -0.2151,-0.2159 -0.5176,-0.7294 0.0715,-0.6445 0.0073,0.0297 0.1708,0.0895 0.2145,0.1551 0.0574,0.0861 0.1045,0.1642 0.1788,0.2387 0.1534,0.154 0.2822,-0.2494 0.3217,-0.2625l0 -0.0359 0.012 -0.0119c0.0687,-0.017 0.0735,-0.0119 0.143,-0.0119 0.0145,0.0588 0.0942,0.033 0.131,0.0238 0.0366,-0.1454 -0.0476,-0.3644 -0.0476,-0.5371 0.1062,-0.0531 -0.0686,-0.6596 -0.1311,-0.6803 -0.0199,-0.0806 -0.5191,-0.3575 -0.6078,-0.37 -0.0029,-0.0117 -0.0622,-0.0805 -0.0715,-0.0836 0,-0.0637 -0.0426,-0.1192 -0.0715,-0.179 0.0292,-0.2366 -0.1028,-1.089 0.4052,-0.6326 0.2364,0.2125 0.4713,0.7954 0.8223,0.6207 0.0158,-0.0802 0.143,-0.1862 0.143,-0.2746 0.0605,-0.015 0.0357,-0.1794 0.0357,-0.2267 -0.4504,-0.1518 -0.463,-0.7308 -0.4052,-1.0981l0.2145 -1.3607c0,-0.0269 0.012,-0.0328 0.012,-0.0597 0.3389,-0.1694 0.0238,-0.6427 0.0238,-0.8594l0.0119 -0.0119c0.508,0 1.0914,1.1312 1.3228,0.6684 0.0369,-0.0073 0.0736,-0.02 0.0834,-0.0597 0.1505,-0.0213 0.2257,-0.1944 0.3098,-0.2506 0,-0.115 -0.3133,-0.6025 -0.1311,-0.6326 0.0079,-0.0475 0.2598,-0.2422 0.1311,-0.2746l-0.0119 -0.0119c-0.0052,-0.0213 -0.0374,-0.0422 -0.0596,-0.0477 -0.0166,-0.0675 -0.1329,-0.1174 -0.143,-0.1791 -0.0772,-0.0191 -0.0464,-0.752 0.143,-0.7997 0.0268,-0.1082 0.4651,-0.6798 -0.0357,-0.7639 -0.0188,-0.1333 -0.5255,-0.3672 -0.5601,-0.2267 -0.1922,0 -0.2947,-0.002 -0.4886,-0.0239 -0.1793,-0.0202 -0.1876,0.2615 -0.3337,0.3342 -0.2785,0.1388 -0.8769,-0.1213 -0.9533,-0.4297 -0.0739,0 -0.239,0.8166 -0.3098,0.931 -0.2089,0.3377 -0.0835,0.5029 -0.0835,0.8594 -0.2545,0.0843 -0.5903,-0.1556 -0.8818,-0.1075 0,0.6659 -0.6595,1.2951 -0.4648,2.0291 0.0459,0.173 0.1311,0.4723 0.1311,0.6446l-0.0119 0.0119c-0.1806,0.0447 -0.4036,-0.0103 -0.5839,0.0358 -0.1783,0.0457 -0.3852,0.1658 -0.5601,0.191 -0.0119,0.0483 -0.1055,0.0405 -0.143,0.0477 -0.5857,0.0984 0.0479,2.029 -0.7865,1.2891 -0.148,-0.1312 -0.0853,-0.3735 -0.2026,-0.4774 -0.2561,-0.2271 -0.633,0.0567 -0.7388,-0.37 -0.1058,0 -0.1862,0.0835 -0.298,0.0835 -0.0081,0.0244 -0.0238,0.0177 -0.0238,0.0597 -0.0905,0.03 0.0237,0.4672 -0.1311,0.4894 0,0.2861 -0.0834,0.6724 -0.0834,0.9787 -0.4682,0.1551 -0.4473,1.5599 -0.6316,2.0171 -0.0918,0.228 -0.4015,0.2827 -0.4171,0.3462 -0.2293,0.0455 -0.08,0.8074 -0.1311,0.9906 -0.0897,0.3209 -0.5623,-0.2506 -0.6911,-0.2506l0 0.0239c-0.1532,0.0766 -0.5959,1.4255 -0.5959,1.6113 -0.8156,0.2022 -1.0741,2.2888 -1.6206,2.9362 0,0.3002 -0.7616,1.3384 -0.5006,1.5994 0.3388,0.3388 0.7151,1.0912 0.7151,1.671 0,0.499 -0.3961,0.6058 -0.0239,0.9549l1.1202 1.0503c-0.1439,-0.0356 -1.4269,-0.8646 -1.4777,-0.9668 -0.2314,-0.466 -0.3351,-0.9359 -0.6077,-1.4323 -0.1384,-0.2522 -0.9235,-0.4609 -0.5482,-0.5968 0.2527,-0.0914 0.4766,0.0285 0.1787,-0.1551 -0.3496,-0.2153 -1.1899,0.5711 -1.3823,0.8832 -0.2607,0.4226 -0.3079,0.3592 -0.6554,0.1075 -0.5406,-0.3914 -0.6668,-0.4798 -0.3456,0.1671 0.3417,0.6879 -0.6722,0.1875 -0.6912,0.2029 -0.034,0.0278 -0.1439,0.5673 -0.2026,0.6922 -0.0858,0.1822 -0.3893,0.7215 -0.5005,0.2865 -0.0754,-0.2948 0.1936,-0.5251 0.1788,-0.6565 -0.0616,-0.5469 -1.2053,0.1625 -1.4658,0.3581 -0.6833,0.5134 -1.2124,1.5595 -1.6207,2.2678 -0.3804,0.6601 -1.791,1.9414 -1.716,2.7214 0.0926,0.2476 0.2717,0.9432 0.0596,1.1339 -0.1876,0.1685 -0.7441,0.4962 -0.7627,0.7639 -0.0637,0.9121 -0.5856,1.1742 -1.4538,1.2413 -0.5562,0.043 -0.8534,0.716 -1.2155,0.7639 -0.1519,0.02 -0.5416,-0.1162 -0.6316,0.0477 -0.1543,0.2813 -0.3747,0.4935 -0.5482,0.7878 -0.1785,0.3026 -0.659,0.5083 -0.9653,0.6087l0 0.0239 0.5005 0.1193c0,0.7057 -0.6544,1.8023 -1.4419,1.8023 -1.0865,0 -1.569,-0.5131 -2.3238,-1.1219 -0.7839,-0.6322 0.0334,-0.5793 0.4221,-0.9728 0.2292,-0.16 0.0596,-0.8852 0.0596,-1.1339 0.1304,0 0.4497,0.4682 0.5958,0.567 0.0397,0.0269 0.4709,0.4539 0.3992,0.2267 -0.1159,-0.3676 -0.5369,-0.7211 -0.7329,-1.0742 -0.1866,-0.3364 -0.1401,-0.4813 -0.0298,-0.8415 0.0595,-0.1942 0.0596,-0.4081 0.1073,-0.6087 0.0439,-0.1851 0.143,-0.4779 0.143,-0.6565l0.006 -0.0059c0.0529,0.013 0.2699,0.4439 0.2979,0.5252 0.0364,0.106 0.1824,0.4714 0.3098,0.4714 0,-0.2012 -0.1358,-0.3546 -0.1787,-0.5371 -0.0471,-0.2006 -0.084,-0.4837 -0.1837,-0.6624 -0.1525,-0.2291 -0.0954,-0.6282 -0.0954,-0.8952 0,-0.241 0.147,-0.6056 0.2741,-0.8116 0.0757,-0.1229 0.2914,-0.431 0.3098,-0.561 0.1257,-0.0718 0.3411,-0.4594 0.3814,-0.5968 0.2924,-0.3579 0.5253,-0.4703 0.7507,-0.8952 0.136,-0.2562 0.1846,-0.5976 0.3456,-0.8236 0.1479,-0.2074 0.6086,-1.424 0.7389,-1.4561 0.0161,-0.0653 0.1064,-0.056 0.1191,-0.1075 0.0405,-0.008 0.0499,-0.0394 0.0835,-0.0477 0.0794,-0.1589 0.5665,-0.3882 0.7388,-0.561 0.1463,-0.1468 0.171,-0.5206 0.2741,-0.7281 0.0882,-0.1773 0.9933,-1.2755 0.6554,-1.3607 -0.0126,-0.0442 -0.0532,-0.0468 -0.0715,-0.0835 -0.5562,-0.1378 -0.3408,-1.2182 -0.1192,-1.5517 0.4827,-0.7265 0.8146,-0.8055 1.6922,-1.0026 1.1559,-0.2595 3.2963,-0.1143 4.0994,-0.919 0.4809,-0.774 0.0909,-2.3412 0.4886,-3.2346 0.0852,-0.1916 0.3891,-0.4713 0.429,-0.6326 0.1292,0 0.5839,0.3657 0.5839,0.5371 0.1907,-0.048 -0.2355,-0.6683 -0.2622,-0.7281 -0.0401,-0.09 -0.0985,-0.2172 -0.166,-0.3472l0 0c-0.4607,-0.0906 -0.9225,-0.183 -1.3832,-0.2735 -0.1665,-0.0327 -0.3176,-0.0833 -0.4528,-0.1671 -0.0851,-0.0527 -0.262,-0.2773 -0.2979,-0.3342 -0.0731,-0.1162 -0.3365,-0.7643 -0.4171,-0.8952 -0.282,-0.4584 -1.0653,-0.6192 -1.3347,-1.2293 -0.0826,-0.187 -0.6261,-1.0245 -0.3098,-1.2414 0.2584,-0.1771 0.6412,-0.3437 0.5243,-0.7877 -0.1579,-0.5992 0.2384,-0.8721 0.2384,-1.5278 0,-0.5341 0.355,-1.564 0.7984,-1.8142 0.4493,-0.2534 0.7002,-1.0711 1.0129,-1.3727 0.2464,-0.2376 -0.2385,-1.1867 -0.4409,-1.4203 -0.4907,-0.5665 -0.8041,-1.0648 -1.3704,-0.4536 -0.3095,0.3339 -0.8698,1.3846 -1.3347,1.3846 -0.5474,0 -0.9126,-0.2929 -1.4896,0 -0.5466,0.2774 -0.8485,0.0007 -1.3228,-0.1671 -0.4522,-0.1599 -0.7966,0.0822 -0.572,-0.6088 0.1865,-0.5735 0.6783,-0.9495 0.7984,-1.5277 0.1071,-0.5151 -0.4273,-0.9421 -0.3455,-1.3965 0.052,-0.289 0.7567,-0.5617 0.9533,-0.8952 0.2872,-0.4873 0.9295,-0.578 0.9295,-1.2413 0,-0.5843 -0.3081,-1.0745 -0.3575,-1.6352 -0.0403,-0.4566 -0.5886,-1.0102 -0.2979,-1.4204 0.0392,-0.0552 0.1554,-0.0393 0.2383,-0.0239 0.0237,0.0043 0.182,0.0429 0.2026,0.0716 0.4123,0.573 0.8938,-1.2565 0.7388,-1.659 -0.2881,-0.7476 -1.5687,-1.2714 -1.0605,-2.2082 0.1001,-0.1845 0.8075,-0.4115 0.8818,-0.5968 0.1091,-0.2723 -0.1824,-0.5792 -0.3933,-0.7877 -0.2223,-0.2198 -0.0366,-0.5643 -0.286,-0.7758 -0.3311,-0.281 -0.8679,0.1715 -1.1082,-0.3939 -0.1504,-0.3537 -0.0943,-0.7624 -0.3933,-1.0026 -0.518,-0.4163 -1.427,-0.3104 -2.1092,-0.3104 -1.0748,0 -0.6794,-0.9401 -1.3109,-1.4323 -0.6425,-0.5007 -0.9595,0.211 -1.6803,0.4894 -0.6957,0.2686 -2.6785,-1.1375 -2.3476,-1.8381 0.1074,-0.2274 0.6921,-0.476 0.9176,-0.74 0.4305,-0.504 -0.3421,-1.3495 -0.1668,-1.9456 0.3286,-1.1172 -0.9385,-1.5635 -1.6922,-2.232 -0.7849,-0.696 -0.8707,-0.6054 -2.4668,-0.8235 -0.0872,-0.0119 -0.1746,-0.0239 -0.2619,-0.0358 -0.0517,-0.0071 -0.1417,0.1588 -0.1668,0.2148 -0.2272,0.5062 -1.2924,0.1128 -1.4539,0 -0.1265,-0.0885 -0.2407,-0.1193 -0.3813,-0.1193 -0.2049,0 -1.0282,-1.1069 -1.4301,-0.7878 -0.4443,0.3529 -0.8095,0.6108 -1.3585,-0.2149 -0.8263,-1.243 -1.0749,0.9304 -2.0973,-0.8832 -0.3108,-0.5515 -0.831,0.0737 -1.2632,0.1432 -0.7188,0.1156 -1.0784,-0.9062 -1.4062,-0.5252 -0.381,0.443 -0.4441,1.504 -1.0725,1.504 -0.9298,0 -0.6267,-1.1936 -1.7161,-1.1936 -0.4094,0 -0.8597,0.0775 -1.2155,0 -0.4627,-0.1007 -0.4036,-0.9549 -0.8818,-0.6207 -0.396,0.2766 -1.0694,0.0593 -1.4062,0.0716 -0.057,0.0021 -0.1228,0.0064 -0.2005,0.015l-7.5454 -4.6819 -29.2081 -8.0686c-0.1716,-0.0973 -0.0417,-0.7472 -0.0417,-0.9369 0,-0.4354 -0.0943,-0.7674 -0.429,-1.0802 -0.1724,-0.161 -0.3171,-0.5823 -0.4885,-0.7042 -0.019,-0.1516 -0.1843,-0.7652 -0.292,-0.8833 -0.1139,-0.1251 -0.4092,-0.5259 -0.4707,-0.6803 -0.0972,-0.049 -0.1603,-0.2454 -0.1311,-0.3462 -0.0379,-0.3113 -0.2961,-0.4933 -0.3098,-0.7937 -0.0128,-0.2792 -0.3569,-0.4401 -0.435,-0.6803 -0.272,-0.8366 -0.6998,-0.6754 -1.3763,-1.0146 -0.3537,-0.1774 -0.5531,-0.6907 -1.007,-0.376 -0.1515,0.1051 -0.5193,0.4261 -0.5779,0.0657 -0.0391,-0.2411 0.0538,-0.5116 0.0357,-0.7639 -0.0221,-0.3094 -0.2816,-0.429 -0.5184,-0.5669 -0.4117,-0.2399 -0.448,-0.1068 -0.7209,0.2088 -0.5372,0.6215 -1.5125,0.0284 -1.7637,-0.555 -0.0744,-0.0189 -0.0585,-0.2658 -0.0503,-0.3252l0.0073 -0.2419 0 0c-0.2471,0.1383 -0.5042,0.2058 -0.7735,0.1494 -1.1257,-0.236 -1.4869,-1.3869 -2.7766,-0.8475 -0.6072,0.254 -1.0974,-0.2841 -1.5373,-0.6445l-2.0612 -1.6889 -2.1986 -2.2201c-0.4747,-0.4792 -1.0392,-1.4311 -1.6802,-1.6292 -0.1394,-0.0431 -0.6996,0.0698 -0.4112,0.1492 0.5601,0.1544 1.0001,0.1982 1.2036,0.8116 0.1071,0.3226 0.3966,0.3777 0.5899,0.6386 0.2194,0.2959 0.5964,0.4716 0.7984,0.7519 0.0969,0.1343 0.2825,0.3316 0.4111,0.4297 -0.2851,-0.0724 -0.7485,-0.1716 -1.0486,-0.1074 -0.1811,0.0388 -1.0033,0.3601 -0.3337,0.3342 0.1443,-0.0055 0.4441,-0.1762 0.5541,-0.0418 0.1959,0.2391 -0.1922,0.4776 -0.3758,0.5312 -0.322,0.2571 -0.7033,0.4511 -1.0606,0.6564 -0.4145,0.2383 -0.8223,0.5537 -1.2632,0.7281 -0.861,0.3408 -1.6373,1.0694 -2.4906,1.3488 -0.2366,0.0775 -0.7455,-0.2865 -1.0487,-0.2865l-0.0119 -0.0119c-0.0271,-0.1101 -0.0119,-0.4003 -0.0119,-0.5371l0.0119 -0.012c0.1007,-0.0249 0.2374,-0.1772 0.3337,-0.191 0.2439,-0.4275 0.398,-0.6084 0.5362,-1.098 0.1233,-0.4371 0.1518,-0.8943 0.4052,-1.2891 0.2162,-0.0428 0.4448,-0.0716 0.6673,-0.0716l0.012 -0.012c0.0282,-0.1138 0.143,-0.4268 0.143,-0.5132 0.0241,-0.008 0.0438,-0.0497 0.0834,-0.0597 0.0083,-0.0251 0.0404,-0.0259 0.0477,-0.0477 0.0496,0 0.0807,-0.0478 0.1191,-0.0478 0.0085,-0.0343 0.0603,-0.0256 0.0715,-0.0596 0.0995,-0.025 0.1834,-0.1686 0.2741,-0.191 0.0664,-0.2693 0.198,-0.3008 0.0834,-0.6207 -0.0903,-0.2524 -0.2979,-0.4427 -0.3932,-0.7042 -0.1784,-0.4898 -0.5989,-0.8646 -0.4529,-1.4562 0.0199,-0.0049 0.043,-0.0213 0.0477,-0.0358 0.1665,-0.0412 0.6089,-0.2468 0.6793,-0.4058 0.1252,-0.2829 -0.1457,-0.5478 -0.0835,-0.7997 0.022,-0.0054 0.0185,-0.0019 0.0239,-0.0239 0.2887,-0.0409 0.5947,-0.0978 0.8699,-0.1671 0.0054,-0.0218 0.002,-0.0184 0.0238,-0.0238 0.0037,-0.0153 0.0082,-0.0206 0.0119,-0.0358 0.0918,-0.023 0.0656,-0.3483 0.1311,-0.37 0,-0.0465 0.0929,-0.159 0.1102,-0.1868 0.352,-0.2908 0.6523,-0.5951 0.6523,-0.8994 0.2561,-0.0634 0.2979,-0.9404 0.2979,-1.11 0,-0.4571 0.6332,-0.8135 0.5124,-1.301 0.3712,0 0.6157,-0.1959 0.4409,-0.5849 -0.2173,-0.4839 -0.4257,-0.3415 -0.7626,-0.549 -0.4875,-0.3004 0.1799,-1.3672 -1.0249,-0.931 -0.4686,0.1697 -0.3319,-0.7421 -0.6197,-0.9191 -0.9352,-0.5749 -0.8172,-0.0046 -1.3347,0.3939 -0.2958,0.2279 -0.5308,0.0155 -0.8461,0.4177 -0.1986,0.2532 -0.9593,-0.1155 -1.2155,-0.2148 -0.6435,-0.2493 -0.476,0.2498 -0.7865,0.6326 -0.1565,0.1931 -1.1494,0.9071 -1.3943,0.9071 -0.0936,0.3792 -0.4532,1.5182 -1.1202,0.9907 -0.9323,-0.7372 -0.4055,1.122 -1.2632,1.122 -0.7801,0 -0.3178,-0.8354 -0.5601,-0.8952 -0.1176,0.3548 -0.7468,1.1771 -1.144,1.2174 -0.7305,0.074 -0.5362,-0.7591 -0.5362,-1.0503 0.0268,-0.0067 0.0834,-0.0629 0.0834,-0.0955 0.0549,-0.0109 0.3888,-0.3665 0.3456,-0.4536 -0.0884,-0.1779 -0.3513,0.2509 -0.4052,0.2984 -0.338,0.2984 -0.9666,0.4451 -1.0725,0.931 -0.1361,0.6898 -1.425,0.9387 -1.9663,1.0742 -0.8983,0.2248 -1.0467,1.0708 -1.8233,1.3965 -0.5913,0.2481 -0.7314,0.0836 -1.2632,0.0836 -0.4409,0.4409 -0.5526,0.6864 -1.1798,0.9668 -0.5151,0.2302 -0.6611,-0.0124 -1.1916,0.37 -1.0754,0.7754 -2.1808,-0.095 -3.3606,0.6923 -0.8293,0.5535 -1.4804,0.8035 -2.4832,0.925l-2.294 1.1458c-0.7497,0.3744 -1.395,0.3285 -2.1628,0.1254 -0.0875,-0.0772 -0.1695,-0.0606 -0.2741,-0.0538 -0.4974,0.2912 -1.3575,0.5431 -1.9364,0.5431 -0.1914,-0.0806 -0.5958,0.027 -0.864,-0.0477 -0.213,-0.0594 -0.3782,-0.2733 -0.566,-0.382 -0.2728,-0.158 -0.6723,-0.7042 -0.9653,-0.7042 0,0.4564 1.1219,0.7493 1.1917,1.0265 -0.1753,0 -0.9054,0.1139 -1.001,0.0477 -0.0873,-0.0606 0.053,-0.6147 -0.1728,-0.6147 -0.1089,0.4509 -0.4457,-0.0998 -0.5422,-0.2566 -0.1755,-0.2849 -0.4755,-0.4892 -0.6971,-0.74 -0.5384,-0.609 -0.9255,-1.4003 -1.7994,-0.6028 -0.2528,0.2306 -0.7021,1.2884 -0.995,1.1339 -0.4532,-0.2389 -0.354,0.3027 -0.5601,0.1672 -0.0709,-0.0465 -0.2546,-0.2734 -0.2979,-0.0717 -0.1791,0.8323 0.5123,0.1748 0.3277,0.7759 -0.0776,0.253 -0.2373,0.5274 -0.4052,0.728 -0.0987,0.118 -0.1693,0.1743 -0.2189,0.1853l0 0 -0.0671 0.2325c-0.02,0.0682 -0.0034,0.051 -0.0298,0.0776 0,0.0195 -0.0039,0.0339 -0.0179,0.0477 0,0.1371 -0.193,0.3081 -0.286,0.3939 -0.2724,0.2512 -0.7677,0.0668 -1.0724,-0.0298 -0.1145,-0.0363 -0.2191,-0.0979 -0.3218,-0.1612 -0.1192,-0.0736 -0.2167,-0.1724 -0.3456,-0.2446 -0.1057,-0.0591 -0.1714,-0.173 -0.28,-0.2268l0 22.2308c-0.2752,0.1789 -0.4691,0.013 -0.709,0.3159 0,0.1739 0.1495,0.4777 0.274,0.6028 0.0327,0.2594 0.1192,0.4157 0.1192,0.7042 -0.1025,0.1275 -0.1565,0.2736 -0.2741,0.4058 -0.0799,0.0897 -0.3558,0.3753 -0.3694,0.4834 -0.2232,0.2232 -0.2494,0.6314 -0.2731,1.0369 -0.038,0.025 -0.0765,0.0433 -0.1158,0.0552 -0.0808,0.0243 -0.2551,0.1116 -0.3095,0.1791 -0.6533,0.8092 -0.8974,0.3474 -1.5015,0.0596 -0.7643,-0.364 -1.3416,0.515 -1.6088,1.122 -0.1783,0.4053 -0.1791,0.9599 -0.5839,1.1816 -0.4115,0.2255 -0.8823,-0.358 -1.2513,-0.358 -0.6433,0 -0.8267,0.7316 -1.1321,1.2413 -0.1252,0.2091 -0.3967,0.0933 -0.6435,0.2268 -0.1388,0.075 -1.1157,0.5013 -1.3347,0.5013 -0.4302,0 -0.5806,0.4177 -0.7031,0.4177 -0.274,0 -0.2383,-0.0938 -0.4766,0.191 -0.1699,0.2032 -0.4031,0.6273 -0.6674,0.7639 -0.3429,0.1771 -0.7824,0.4388 -1.001,0.7878 -0.312,0.4978 -0.1254,1.1533 -0.6077,1.5635 -0.9516,0.8091 0.2296,0.8321 -0.4052,1.683 -0.4808,0.6443 -0.2983,1.2934 -0.6435,1.7904 -0.4111,0.5921 -1.2597,1.0222 -1.9067,1.3129 -0.5132,0.2305 -0.6916,0.6415 -0.7984,1.1458 -0.2036,0.9618 -0.3054,1.8138 -0.1549,2.8408 0.1126,0.7679 -0.523,1.781 0,2.3513 0.2562,0.2795 0.7665,0.238 1.2036,0.2268 0.4608,-0.0118 0.9216,-0.024 1.3823,-0.0358 0.5304,-0.0137 1.9544,0.7474 1.9544,1.1578 0,1.2324 0.2931,1.3864 0.846,2.4349 0.2518,0.4774 1.1546,0.9134 1.1321,1.4442 -0.0193,0.4567 0.0841,1.0096 0.012,1.48 -0.0913,0.5963 -0.4435,0.5263 -0.6912,0.931 -0.1509,0.2467 -0.302,0.4935 -0.4529,0.74 -0.2252,0.3681 -0.0365,0.8025 -0.1906,1.1936 -0.1323,0.3355 -0.907,1.1341 -1.1917,1.3965 -0.4809,0.443 -0.8372,0.5713 -0.6912,1.5278 0.1099,0.7195 0.6504,1.2851 0.4052,2.0888 -0.1508,0.4941 -0.4442,0.5363 -0.3579,1.1458 0.016,0.113 0.6111,0.6109 0.6435,0.7161 0.1771,0.5752 0.1334,1.6474 -0.0953,2.244 -0.0748,0.1954 -1.5494,1.2238 -1.6445,1.4323 -0.2168,0.4756 0.7209,1.6438 1.0963,1.7903 0.154,0.06 -0.1109,0.0478 0.0238,0.1433 0.1743,0.1234 0.0984,0.8726 0.0239,0.9787 -0.1188,0.1689 0.1193,1.402 0.143,1.5517 0.1054,0.663 0.3342,1.3374 0.1906,2.0291 -0.0324,0.1562 -0.3788,0.3834 -0.5005,0.4535 -0.0424,0.0245 -0.0899,0.1292 -0.0953,0.1671 -0.0342,0.2359 0.3008,0.8197 0.5005,0.9787 0.1059,0.0842 0.0297,0.2789 -0.0715,0.3343 -0.3189,0.1749 -0.0359,0.9405 -0.1192,1.1219 -0.1049,0.2287 -0.0798,0.419 -0.1668,0.5968 -0.0328,0.0669 -0.5149,1.4432 -0.6197,1.5755 -0.0673,0.0851 -0.1349,-0.0163 -0.1668,0.0716 -0.1712,0.4712 -0.2655,0.8918 -0.3461,1.4691 0.3871,0.1884 0.7365,0.3803 0.9423,0.5123 0.6632,0.4256 1.3267,0.8515 1.9901,1.2771 0.8233,0.5283 1.5979,1.6293 2.2642,2.3514 0.2527,0.274 0.0194,1.1109 0.5124,1.2055 0.6846,0.1315 0.8849,0.1951 1.1679,0.6207 0.2542,0.3825 -0.2051,1.3032 0.6197,1.0503 0.6156,-0.1888 1.1198,0.1883 1.716,0.0836 0.1829,-0.0321 0.3659,-0.0643 0.5489,-0.0964 0.903,-0.0409 1.8585,0.1931 2.7248,0.4174 0.4424,0.1146 1.5337,0.4676 1.6599,0.981l0.0061 0.0061c0.0869,0.825 0.311,1.6005 0.8148,2.2606 0.2432,0.3185 0.9932,0.7522 1.3741,0.9383 0.3296,0.1609 1.0571,0.7191 1.3925,0.7191 0.1613,0.0347 0.3257,0.1366 0.4864,0.1949 0.4916,0.1786 0.952,0.4861 1.4289,0.6459l0.241 0.1397c0.1562,-0.0837 0.1075,-0.1025 0.2264,-0.0478 0.1,0.0459 0.4846,0.0347 0.572,0.1194 0.3377,0.3277 0.6483,0.1246 0.9295,0.4058 0.4812,0.4812 0.889,0.7131 1.4896,1.0742 0.2536,0.1525 0.5829,0.2282 0.8342,0.382 0.1998,0.1222 0.2289,0.629 0.4052,0.7877 0.1302,0.1171 0.4547,0.3298 0.572,0.4536 0.2979,0.3146 0.2486,0.493 0.1668,1.0026 -0.1461,0.91 1.2679,1.1323 1.1917,2.1484 -0.0189,0.253 -0.1828,0.4757 -0.2026,0.7401 -0.0279,0.3735 0.3328,0.8381 0.5482,1.11 0.0804,0.1016 0.326,0.2747 0.3694,0.37 0.3871,0.85 2.4043,2.1829 3.2175,2.4707 1.8316,0.6482 2.6907,2.7563 4.2782,3.8792 0.8894,0.6292 2.3246,0.5313 3.3724,1.0861 0.9882,0.5233 1.2402,1.3009 2.1569,1.8262 0.4751,0.2722 0.9625,0.7532 1.2156,1.2532 0.104,0.2054 0.194,0.4608 0.3098,0.6446 0.0815,0.1292 0.2536,0.4145 0.286,0.5252 0.069,0.2361 0.3688,0.4531 0.5243,0.5848 0.0815,0.069 0.163,0.1382 0.2446,0.2073l0.1609 0.5455c0.0491,0.127 0.0705,0.2978 0.1308,0.4169 0.043,0.0848 0.1238,0.2638 0.1907,0.3462 0.1317,0.1619 0.265,0.3373 0.417,0.4893 0.1254,0.1254 0.3087,0.2762 0.441,0.3581 0.1565,0.097 0.0117,0.6266 -0.0239,0.7281 -0.2053,0.5842 -0.0072,0.7305 0.3933,1.0742 0.2996,0.257 0.2297,0.589 0.1192,0.9549 -0.0413,0.1366 -0.143,0.2885 -0.143,0.4177 0,0.2124 0.0217,0.4313 0.0119,0.6207 -0.0036,0.0695 -0.0702,0.2254 -0.1192,0.2745 -0.047,0.0472 -0.1395,0.176 -0.1668,0.2387 -0.0089,0.0207 -0.0007,0.0253 -0.0239,0.0358 -0.1078,0.0486 -0.0167,0.6633 -0.0238,0.752 -0.016,0.2 -0.0322,0.4001 -0.0483,0.6002 0.2976,0.6645 0.5679,1.2474 0.5679,2.0051 0,0.277 0.0221,0.5452 0.0365,0.8165 0.0105,0.1969 0.1216,0.3672 0.1216,0.5606l0.228 0.5651c0.0665,0.2269 0.1087,0.3418 0.0476,0.5729 -0.036,0.136 -0.1496,0.3708 -0.1906,0.5014 -0.0492,0.1563 -0.0841,0.3174 -0.0715,0.5013 0.0053,0.0776 0.083,0.1664 0.1191,0.2387 0.0479,0.0962 0.0448,0.1712 0.0715,0.2745 0.0967,0.374 0.2806,0.707 0.4057,1.0634l0 0c0.0761,0.2168 0.1306,0.4423 0.1306,0.6912 0,0.4919 -0.4528,0.7252 -0.4528,1.1935 0,0.425 0.3756,0.6612 0.5958,0.9668 0.3861,0.536 0.5284,1.1906 0.2502,1.7904 -0.2452,0.5285 -0.418,0.8657 0.0239,1.2771 0.2254,0.2097 0.9531,0.3247 1.2155,0.5252 0.3659,0.2794 0.8691,0.3815 1.2036,0.7281 0.158,0.1636 0.316,0.3275 0.4741,0.4913 0.0164,0.0152 0.0163,0.024 0.036,0.0135 0.4149,0.3031 0.5806,0.8246 0.5806,1.3344 -0.0112,0.2102 -0.02,0.3659 -0.1131,0.5606 -0.1287,0.2688 -0.1981,0.5371 -0.3162,0.7921 -0.123,0.2659 -0.2284,0.5527 -0.3158,0.8305 -0.4981,0.3381 -0.5604,1.091 -0.7746,1.6471 -0.298,0.7732 -0.6462,0.7883 -1.1321,1.3487 -0.2081,0.2399 -0.2329,0.6704 -0.286,1.0385 -0.0861,0.5971 0.0799,1.5117 0.1311,2.1126 0.0277,0.3262 0.0557,0.6524 0.0834,0.9787 0.0221,0.2593 0.124,0.5121 0.2264,0.7281 0.0744,0.1572 0.2312,1.0848 0.2622,1.2772 0.0198,0.1233 0.0398,0.2467 0.0596,0.37 0.0178,0.1107 0.2271,0.2288 0.2383,0.3103 0.0584,0.4255 0.023,1.934 0.2502,2.3872 0.0079,0.0159 0.016,0.0319 0.0239,0.0477 0.3191,0.6371 0.9709,1.3813 1.1202,2.0171 0.0445,0.1893 0.3217,2.8394 0.3217,3.1869 0,0.8077 0.2359,0.9772 0.858,1.4084 0.2235,0.1548 0.4501,0.4894 0.7389,0.4894 0.2536,0 0.5816,-0.0109 0.7984,0.1432 0.1365,0.0969 0.5204,0.454 0.5958,0.5968 0.0443,0.0838 0.163,0.1797 0.2622,0.2387 0.1833,0.1092 0.3715,0.3224 0.5839,0.37 0.342,0.0766 0.7128,-0.0448 0.9772,0.1791 0.2449,0.2074 0.601,0.4345 0.9414,0.4297 0.2398,-0.0033 0.4797,-0.0068 0.7196,-0.0102l1.3154 0.2062c0.3416,0.0534 0.6781,0.1551 1.0215,0.1889 0.3476,0.0891 1.0261,0.2087 1.2977,0.4082 0.5082,0.3731 0.8147,0.7122 1.1553,1.2065 0.2173,0.3152 0.2217,0.7907 0.4378,1.0602 0.1,0.3175 0.3261,0.597 0.4686,0.8988 0.0919,0.1945 0.2187,0.3737 0.2706,0.585l0.0227 0.1352c0.3673,0.276 0.4169,0.8722 0.2145,1.2771 -0.0283,0.0571 -0.0588,0.1109 -0.0901,0.1625l0 0 38.5801 0.6074 42.1761 -0.212 0 0zm-89.9904 -178.986c0.1489,0.0346 0.416,0 0.5779,0 0.3067,0 0.4925,0.0831 0.435,-0.3461 -0.0131,-0.098 -0.1067,-0.3468 -0.0358,-0.4237 0.0847,-0.0917 0.292,-0.2094 0.292,-0.3283 -0.127,-0.1005 -0.1261,-0.1664 -0.1907,-0.3043 -0.0569,-0.1212 -0.0248,-0.2704 -0.1847,-0.3163 -0.1254,-0.0359 -0.1287,0.087 -0.143,0.179 -0.0636,0.4095 -0.913,0.2226 -1.2036,0.5132 -0.1837,0.1837 -0.1515,0.3187 0,0.4894 0.1073,0.1208 0.3694,0.1438 0.3694,0.3581l0.0835 0.179zm3.2353 -0.9966c-0.1251,0.0384 -0.2779,0.0744 -0.3694,-0.0478 -0.0748,-0.1 -0.1916,-0.2148 -0.3218,-0.2148 -0.1014,0 -0.1006,0.0888 -0.0536,0.1552 0.0734,0.1039 0.2099,0.1621 0.2979,0.2506 0.0347,0.0348 0.0573,0.0822 0.0715,0.1253 0.0071,0.0214 0.007,0.0519 0.0179,0.0717 0.0078,0.014 0.0262,0.0391 0.0298,0.0537 0.052,0.0072 0.1318,0.0702 0.1966,0.0477 0.052,-0.0181 0.1511,-0.1257 0.1073,-0.185l0.0238 -0.2566zm1.8471 0.6684c0.003,-0.0495 0.041,-0.0895 0.0536,-0.1373 0.0238,-0.0908 0.0426,-0.153 0.0238,-0.2506 -0.0135,-0.0697 -0.0691,-0.1012 -0.143,-0.0836 -0.0431,0.0103 -0.0554,0.0651 -0.0655,0.1015 -0.0105,0.0383 -0.0297,0.0571 -0.0477,0.0895 -0.0268,0.0479 -0.1139,0.0795 -0.1608,0.1015 -0.0256,0.0119 -0.0472,0.021 -0.0715,0.0358 -0.0172,0.0106 -0.0344,0.037 -0.0537,0.0417 -0.0031,0.0195 -0.0298,0.0364 -0.0298,0.0657 0,0.0521 -0.0072,0.0864 0.0417,0.1134 0.0696,0.0383 0.1678,-0.006 0.2384,-0.006l0.2145 -0.0716zm0.3753 -1.7367c0.0408,-0.1755 -0.0297,-0.3794 -0.0297,-0.561 0,-0.1202 0.133,-0.1652 0.2145,-0.2267 0.0659,-0.0496 0.2242,-0.197 0.3038,-0.197 0.1381,0.1393 0.1974,0.3992 0.3635,0.5312 0.0988,0.0784 0.1911,0.2934 0.1251,0.4177 -0.0434,0.0819 -0.1726,0.1758 -0.1847,0.2686 -0.0212,0.1617 0.0767,0.3408 -0.1549,0.3282 -0.0757,-0.0041 -0.2366,-0.0624 -0.2979,-0.1074 -0.0743,-0.0547 -0.183,-0.2542 -0.2503,-0.2626l-0.0894 -0.191zm2.5919 0.2089c-0.0817,0 -0.1561,-0.0254 -0.2324,-0.0537 -0.0583,-0.0215 -0.1626,-0.0588 -0.2085,0.006 -0.0524,0.0127 -0.0958,0.2035 -0.1132,0.2506 -0.0255,0.0603 -0.0352,0.0975 -0.0656,0.1432 -0.0122,0.0182 -0.0349,0.0539 -0.0417,0.0717 -0.0104,0.0274 -0.0274,0.0441 -0.0357,0.0716 -0.005,0.0163 -0.0158,0.0271 -0.0239,0.0418 -0.0206,0.0377 -0.0238,0.0924 -0.0238,0.1372 -0.0089,0.006 -0.0059,0.0112 -0.0059,0.0239 -0.1273,0.1324 -0.1438,0.2052 0.0119,0.2924 0.2374,0.1328 0.4617,-0.0949 0.6137,-0.2387 0.0662,-0.0625 0.2023,-0.159 0.286,-0.191 0.0449,-0.0171 0.1195,-0.0501 0.1549,-0.0835 0.0356,-0.0334 0.0777,-0.0882 0.1132,-0.1134 0,-0.1158 -0.1277,-0.1919 -0.1847,-0.2924l-0.2443 -0.0657zm1.281 1.0205c-0.2069,0 -0.4032,0.0611 -0.5064,0.2447 -0.0725,0.1292 -0.1588,0.2029 -0.2681,0.3044 -0.078,0.0723 -0.0995,0.1118 -0.1311,0.2029 -0.0156,0.0448 -0.047,0.11 -0.0894,0.1432 -0.0572,0.0446 -0.2093,0.1049 -0.1549,0.2029 0.0258,0.0463 0.0853,0.2856 0.1132,0.2924 0.019,0.059 0.2683,-0.1726 0.3039,-0.1969l0.6911 -0.4715c0.1487,-0.1015 0.1788,-0.3093 0.1788,-0.4834l-0.1371 -0.2387zm0.9593 -1.0563c-0.0096,-0.0032 -0.0166,-0.0048 -0.0238,-0.0119 -0.0232,0 -0.052,-0.0133 -0.0775,-0.0179 -0.0737,-0.0134 -0.1757,-0.0211 -0.2502,-0.006 -0.037,0.0075 -0.072,0.0138 -0.1073,0.0239 -0.0284,0.0082 -0.0677,0.0264 -0.0953,0.0298 -0.0507,0.0708 -0.1132,0.0932 -0.1073,0.1969 0.0033,0.0578 0.0622,0.1187 0.1013,0.1612 0.0629,0.0681 0.0707,0.1947 0.0894,0.2805 0.0177,0.0809 0.0899,0.1039 0.1728,0.0895 0.1238,-0.0214 0.2999,-0.1029 0.3277,-0.2387 0.0119,-0.0579 0.0205,-0.1132 0.0238,-0.1731 0.0024,-0.0454 0.012,-0.0913 0.012,-0.1373 0,-0.0353 -0.012,-0.0627 -0.012,-0.0954l-0.0536 -0.1015zm1.4062 -0.7639c-0.0349,0 -0.0608,-0.0136 -0.0894,-0.0298 -0.0052,-0.021 -0.025,-0.0176 -0.0298,-0.0418 -0.0651,-0.0466 -0.0482,-0.1186 -0.0715,-0.179 -0.034,-0.0879 0.1089,-0.1908 -0.006,-0.3163 -0.1028,-0.1121 -0.2749,-0.0261 -0.3157,0.1074 -0.0388,0.1267 -0.0263,0.2243 -0.012,0.3521 0.0248,0.2201 0.1341,0.4432 0.1788,0.6684 0.0322,0.1619 0.0596,0.3308 0.0596,0.5013 0,0.0793 -0.0672,0.2268 0.0595,0.2268 0.1451,0 0.3507,-0.3217 0.3993,-0.4476 0.0345,-0.0892 0.1466,-0.4206 0.0774,-0.5073 0,-0.0513 -0.0926,-0.1664 -0.1311,-0.1969l-0.0238 0 -0.0953 -0.1373zm-2.3714 -0.6147c-0.0385,-0.0089 -0.0879,-0.0096 -0.1252,0 -0.0381,0.0099 -0.0731,0.0397 -0.1012,0.0478 -0.0095,0.0373 -0.0483,0.099 -0.0715,0.1313 -0.0313,0.0433 -0.0748,0.0707 -0.1073,0.1074 -0.0449,0.0509 0.0549,0.1004 0.0775,0.1432 0.0215,0.0405 0.0504,0.0736 0.0774,0.1074 0.019,0.0236 0.0664,0.0493 0.0775,0.0716 0.0507,0.0073 0.0813,0.0272 0.1251,-0.0119 0.0469,-0.0417 0.0623,-0.1388 0.0655,-0.1969l0.006 -0.1075c0.0016,-0.0292 0.0014,-0.1213 0.0179,-0.1432l-0.0417 -0.1492zm-0.3397 -0.6027c-0.188,0.0574 -0.305,0.3551 -0.5064,0.3998 -0.1447,0.032 -0.3041,0 -0.4469,0 -0.2266,0 -0.2133,0.319 -0.2264,0.4894 -0.0073,0.0944 0.003,0.1994 0.0298,0.2864 0.0305,0.0987 0.1136,0.1975 0.137,0.2925 0.0432,0.0306 0.0626,0.0873 0.1252,0.0835 0.1482,-0.009 0.2127,-0.51 0.2264,-0.6326 0.0735,-0.0632 0.1014,-0.239 0.1906,-0.3282 0.0538,-0.0538 0.1427,-0.1577 0.2205,-0.1671 0.1004,-0.1213 0.3008,-0.1756 0.3456,-0.3521l-0.0954 -0.0716zm-1.5968 4.4759c-0.1563,-0.0727 -0.0856,-0.4715 -0.2145,-0.4715 -0.1588,0 -0.2373,0.061 -0.4111,-0.0119 -0.1993,-0.0837 -0.4222,-0.2828 -0.572,-0.0597 -0.1246,0.1858 -0.2687,0.3873 -0.4528,0.5192 -0.0258,0.1789 0.2659,0.4584 0.3575,0.6326 0.0896,0.1706 0.3342,0.4299 0.3575,0.6147 0.0552,0.0462 0.0482,0.1781 0.1489,0.1969 0.2125,0.0399 1.3127,-0.0188 1.3883,-0.2327 0.0785,-0.2219 -0.3394,-0.8415 -0.5005,-1.0026l-0.1013 -0.185zm1.5134 0.9787c0.1408,-0.1517 0.2816,-0.325 0.3992,-0.4953 0.0995,-0.1442 0.0804,-0.3581 0.3158,-0.3581 0.221,0 0.3213,0.0527 0.5363,-0.0597 0.3187,-0.1665 0.5289,-0.4818 0.9354,-0.5132 0.2778,-0.0214 0.5111,-0.0711 0.7746,-0.1552 0.3631,-0.1158 0.6574,-0.4272 0.9831,-0.1193 0.0751,0.0709 0.2701,0.1695 0.28,0.2805 0.0129,0.1455 -0.2197,0.172 -0.2323,0.2625 -0.0167,0.0119 -0.0228,0.025 -0.0417,0.0359 -0.0058,0.0405 -0.1397,0.1907 -0.1669,0.2625 -0.052,0.1368 -0.0082,0.4423 -0.1489,0.5013 -0.1133,0.0476 -0.4769,-0.0697 -0.5065,0.0478 -0.0243,0.0061 -0.0476,0.1365 -0.0476,0.1671 -0.0965,0.0799 0.0298,0.335 0.0298,0.4237 0.014,0.01 0.045,0.0647 0.0476,0.0836 0.1868,0.1329 0.0333,0.3163 -0.1489,0.3163 -0.1218,-0.2122 -0.213,-0.7383 -0.6137,-0.6505 -0.2599,0.057 -0.2752,0.357 -0.6614,0.3222 -0.1909,-0.0172 -0.2576,-0.3837 -0.4886,-0.179 -0.0914,0.0811 -0.0734,0.213 -0.143,0.3103 -0.1173,0.1637 -0.5069,0.2474 -0.6911,0.1791 -0.2657,-0.0987 -0.2665,-0.3556 -0.4469,-0.4596l0.0357 -0.2029zm-0.6613 1.1936c-0.211,0.0454 -0.8177,0.126 -0.6852,0.4655 0.0419,0.1076 0.0733,0.1582 0.1728,0.2268 0.1367,0.0944 0.3109,-0.1069 0.3992,-0.191 0.0589,-0.0562 0.1407,-0.0791 0.2085,-0.1194 0.0648,-0.0384 0.1104,-0.081 0.1549,-0.1372 0,-0.0163 0.0041,-0.0261 0.006,-0.0418 -0.01,-0.0166 -0.0487,-0.0873 -0.0537,-0.1074l-0.2025 -0.0955zm6.3813 -0.1373c-0.015,0.0075 -0.0262,0.0149 -0.0417,0.0179 -0.0414,0.0842 -0.3247,0.1941 -0.4171,0.2328 -0.2599,0.1087 -0.5201,0.1648 -0.7746,0.2924 -0.1,0.0502 -0.1923,0.1389 -0.2919,0.197 -0.0489,0.0284 -0.3277,0.1518 -0.3277,0.1969 0.0098,0.0033 0.1063,0.0946 0.1251,0.1134 0.32,0.3218 0.8383,0.1348 1.1261,-0.1194 0.1447,-0.1277 0.2584,-0.2716 0.4349,-0.37 0.1266,-0.0707 0.194,-0.2145 0.292,-0.2805 0,-0.0498 0.0671,-0.1575 0.0238,-0.2148l-0.1489 -0.0657zm-7.9126 2.1365c0.1248,-0.1345 0.3396,-0.5004 0.3396,-0.6743 0,-0.1558 -0.1628,-0.382 -0.3337,-0.382 -0.3978,0 -0.6166,0.5934 -0.7388,0.9012 -0.0992,0.2502 -0.3098,0.6747 -0.1906,0.9131 0.1527,0.0212 0.2755,-0.0497 0.3753,-0.1671 0.1294,-0.1524 0.3227,-0.2625 0.4409,-0.4118l0.1073 -0.1791zm3.8133 -0.8653l-0.0298 0c-0.0936,-0.3716 -0.6452,-0.257 -0.8342,-0.0418 -0.5715,0.6511 -0.9981,1.2106 -1.7934,1.6233 -0.3339,0.1733 -0.742,0.3313 -0.995,0.6147 -0.1884,0.2109 -0.1042,0.6022 -0.429,0.6505 -0.3764,0.0559 -0.5444,0.2704 -0.864,0.4118 -0.1434,0.0635 -0.7209,0.168 -0.7209,0.3342 0,0.1568 0.3575,0.26 0.3575,0.4714 0,0.1628 -0.3398,0.5924 -0.0835,0.7997 0.5113,0.4133 1.6116,-1.5445 2.2523,-1.301 0.3347,0.1271 1.8438,-0.2527 1.6147,-0.5669 -0.1824,-0.2503 -0.9852,-0.1518 -0.7687,-0.6923 0.1592,-0.3977 0.5601,-0.3075 0.8878,-0.561 0.6072,-0.4695 1.3587,-0.3516 2.008,-0.6385 0.5302,-0.2344 0.0054,-0.6198 -0.3575,-0.7997l-0.2443 -0.3044zm3.5332 -5.0548c-0.0258,-0.3728 0.1716,-0.578 0.292,-0.8892 0.2037,-0.5266 0.0115,-1.0281 0.149,-1.5636 0.1312,-0.5106 0.5084,-1.2712 1.132,-1.2712 0.2158,0.1738 0.7865,-0.1264 0.7865,0.1671 0,0.1818 -0.0458,0.8201 -0.1847,0.931 -0.0576,0.3207 -0.3242,0.4063 -0.28,0.7997 0.0273,0.2439 0.0451,0.5566 -0.1847,0.7162 -0.1067,0.0742 -0.3089,0.1833 -0.3814,0.2745 -0.1784,0.2247 -0.1968,0.4699 -0.5541,0.4953 -0.2868,0.0203 -0.3404,0.063 -0.5541,0.2507l-0.2205 0.0895zm103.871 65.2172c0.1185,0 0.2348,-0.0119 0.3515,-0.0119 0.084,0 0.1676,0.0175 0.2264,-0.0418 0,-0.1389 0.066,-0.3971 0.012,-0.5192 -0.0544,-0.1233 -0.184,-0.1597 -0.286,-0.2447 -0.1025,-0.0855 -0.1666,-0.2356 -0.3039,-0.2626 -0.2304,-0.0452 -0.223,0.1745 -0.2145,0.3402 0.0037,0.0721 0.0429,0.1524 0.0536,0.2268 0.0138,0.0951 0.0414,0.1914 0.0477,0.2864l0.1132 0.2268zm-2.3952 3.342c-0.0383,-0.0698 -0.1184,-0.1673 -0.1311,-0.2446 -0.0982,-0.0845 -0.0178,-0.259 -0.2086,-0.2805 -0.243,-0.0273 -0.1432,-0.0482 -0.28,-0.2029 -0.2028,-0.2295 -0.0452,-0.4297 0.2264,-0.4297 0.0872,0 0.2709,0.3191 0.3039,0.3998 0.1561,0.3824 0.4404,0.2179 0.7805,0.2865 0.1879,0.0378 0.2937,0.1478 0.4826,0.0179 0.2033,-0.1399 0.02,-0.8584 0.1371,-1.1399 0.0911,-0.2193 0.2657,-0.3346 0.429,-0.5073 0.1839,-0.1946 0.2766,-0.5101 0.3456,-0.7639 -0.0211,-0.3564 -0.2874,-0.3298 -0.4588,-0.555 -0.1517,-0.1994 -0.1765,-0.3948 -0.4826,-0.3819 -0.2582,0.0109 -0.7576,0.1683 -1.001,0.2626 -0.26,0.1008 -0.4431,0.5183 -0.7269,0.4774 -0.0605,-0.1002 0.1132,-0.4551 0.1132,-0.6028 0,-0.1106 -0.1558,-0.4361 -0.3039,-0.3521 -0.115,0.4658 -0.6259,1.1307 -0.5303,1.6173 0.0454,0.2308 0.29,0.5921 0.2443,0.8117 -0.0411,0.1972 -0.3992,0.0082 -0.3992,0.3461 0.1547,0.1295 -0.0383,0.46 0.1489,0.6087 0.2127,0.1691 0.5044,0.0624 0.7329,0.2925 0.0248,0.0857 0.0727,0.1504 0.0953,0.2327 0.0363,0.1327 0.0609,0.2564 0.1609,0.3641 0.143,0.1542 0.2987,0.1863 0.3516,0.3998 0.0172,0.0693 0.0303,0.1625 0.0357,0.2328 0.0069,0.0906 0.0676,0.1518 0.0775,0.2208 0.0638,0.0362 0.1824,0.2817 0.2681,0.2148 0.0782,-0.0612 0.0091,-0.5457 0,-0.6744 -0.007,-0.0981 -0.0604,-0.1537 -0.1192,-0.2267 -0.0304,-0.0376 -0.168,-0.2552 -0.1906,-0.2626l-0.1013 -0.1612zm-0.9295 0.5013c-0.072,-0.0839 -0.1326,-0.2241 -0.2503,-0.2625 -0.0879,-0.0286 -0.1066,-0.0254 -0.1906,0.0119 -0.0565,0.025 -0.1456,0.0265 -0.1907,0.0716 0,0.1508 0.1471,0.2844 0.2562,0.376 0.0504,0.0424 0.1079,0.0898 0.143,0.1372 0.028,0.0377 0.0605,0.0843 0.0953,0.1194 0.0472,0 0.0925,0.0292 0.1132,-0.0358 0.024,-0.0754 0.012,-0.1333 0.012,-0.2089l0.0119 -0.2089zm-12.429 5.3234c0,-0.1819 0.0968,-0.3353 0.1251,-0.5132 0.0307,-0.1935 0.0997,-0.6135 0.3694,-0.4118 0.1033,0.0773 0.1847,0.1107 0.292,0.0239 0.068,-0.0549 0.0837,-0.2036 0.1311,-0.2865 0.0916,-0.0132 0.5229,-0.3458 0.4349,-0.0836 0,0.437 -0.143,0.8538 -0.143,1.2772 0,0.1868 0.0956,0.2969 0.1132,0.4535 0.0201,0.1797 0.2384,0.3356 0.2384,0.5013 -0.1576,0 -0.5793,-0.3257 -0.7329,-0.4058 -0.1462,-0.0761 -0.2887,-0.1745 -0.429,-0.2626 -0.1162,-0.0731 -0.3001,-0.1923 -0.3992,-0.2924z"/>
 </g>
</svg>
