<?xml version="1.0" encoding="UTF-8"?>
<!DOCTYPE svg PUBLIC "-//W3C//DTD SVG 1.1//EN" "http://www.w3.org/Graphics/SVG/1.1/DTD/svg11.dtd">
<!-- Creator: CorelDRAW -->
<svg xmlns="http://www.w3.org/2000/svg" xml:space="preserve" width="297mm" height="210mm" style="shape-rendering:geometricPrecision; text-rendering:geometricPrecision; image-rendering:optimizeQuality; fill-rule:evenodd; clip-rule:evenodd"
viewBox="0 0 297 210"
 xmlns:xlink="http://www.w3.org/1999/xlink">
 <defs>
  <style type="text/css">
   <![CDATA[
    .str2 {stroke:#2F3133;stroke-width:0.1}
    .str1 {stroke:black;stroke-width:0.1;stroke-opacity:0.501961}
    .str0 {stroke:black;stroke-width:0.1}
    .str3 {stroke:black;stroke-width:0.5}
    .fil5 {fill:none}
    .fil0 {fill:white}
    .fil2 {fill:#1F1A17;fill-rule:nonzero}
    .fil3 {fill:#C2C1C1;fill-rule:nonzero}
    .fil4 {fill:white;fill-rule:nonzero}
    .fil6 {fill:black;fill-rule:nonzero}
    .fil1 {fill:white;fill-rule:nonzero;fill-opacity:0.501961}
   ]]>
  </style>
 </defs>
 <g id="Plan_x0020_1">
  <metadata id="CorelCorpID_0Corel-Layer"/>
  <path class="fil0 str0" d="M26.5085 47.1796l-0.0213 -19.8208 6.2643 0c0.0452,-0.0128 0.0333,-0.0137 0.0604,-0.0137 0.0919,-0.0556 0.2455,-0.0352 0.3376,-0.0914 0.2985,0 0.4929,-0.0225 0.803,0.032 0.2041,0.0358 0.4369,0.1703 0.6159,0.265 0.3101,0.1639 0.6545,0.0873 0.9808,0.1828 0.3409,0.0999 0.5694,0.2468 0.9444,0.2468l7.9183 0c0.5765,-0.0395 0.733,-0.7073 1.4765,-0.6134 0.152,0.2124 0.9575,0.5462 1.2136,0.5118 0.9055,-0.1216 1.7484,-0.1439 2.6551,-0.0183 0.4014,0.0555 0.7535,0.0225 1.1223,-0.128 0.3793,-0.1549 0.6233,-0.4976 1.0767,-0.5483l26.6888 -0.1006c0.1179,-0.0146 0.1852,0.0429 0.2908,0.0606 0.5246,0.4069 1.1683,0.3148 1.7656,0.1782 0.6843,-0.1566 1.1249,0.045 1.7838,0.1279l133.184 0.054 0 0 0.2649 75.2566 0 0 0.0364 72.8249 0 0 -101.906 -0.0808 -0.7299 -0.2284 -6.1563 0.3472 -24.9666 -0.0548 -0.2811 -0.3984 -1.3417 0 0 0 -33.2593 0.0968 -1.8888 0.128 -1.0453 -0.1069 -17.6176 -0.0729 -0.0874 -33.2861 0.073 -0.9961 -0.0745 -1.5794 0 0 -0.181 -92.1743 0 0z"/>
 </g>
</svg>
